%TF.GenerationSoftware,Altium Limited,Altium Designer,23.7.1 (13)*%
G04 Layer_Color=16711935*
%FSLAX45Y45*%
%MOMM*%
%TF.SameCoordinates,130BD4C1-0636-47CB-9725-464FD0227ADF*%
%TF.FilePolarity,Negative*%
%TF.FileFunction,Soldermask,Bot*%
%TF.Part,Single*%
G01*
G75*
%TA.AperFunction,ComponentPad*%
%ADD85C,2.10000*%
G04:AMPARAMS|DCode=86|XSize=1.4mm|YSize=1.1mm|CornerRadius=0.3mm|HoleSize=0mm|Usage=FLASHONLY|Rotation=270.000|XOffset=0mm|YOffset=0mm|HoleType=Round|Shape=RoundedRectangle|*
%AMROUNDEDRECTD86*
21,1,1.40000,0.50000,0,0,270.0*
21,1,0.80000,1.10000,0,0,270.0*
1,1,0.60000,-0.25000,-0.40000*
1,1,0.60000,-0.25000,0.40000*
1,1,0.60000,0.25000,0.40000*
1,1,0.60000,0.25000,-0.40000*
%
%ADD86ROUNDEDRECTD86*%
%ADD87O,1.10000X1.40000*%
%TA.AperFunction,ViaPad*%
%ADD88C,0.70000*%
%ADD89C,0.50000*%
%ADD90C,1.10000*%
D85*
X2060000Y1495000D02*
D03*
Y1749000D02*
D03*
X900000Y2800000D02*
D03*
X680000Y535000D02*
D03*
Y789000D02*
D03*
X679999Y1043000D02*
D03*
X1386000Y150000D02*
D03*
X878000D02*
D03*
X370000D02*
D03*
X624000D02*
D03*
X1132000D02*
D03*
D86*
X4554000Y300000D02*
D03*
D87*
X4173000D02*
D03*
X4300000D02*
D03*
X4046000D02*
D03*
X4427000D02*
D03*
D88*
X4310000Y2690000D02*
D03*
X4320000Y2422500D02*
D03*
X990000Y447500D02*
D03*
X1482500Y570000D02*
D03*
X1342500Y520000D02*
D03*
X955000Y522500D02*
D03*
X1072500Y552500D02*
D03*
X885000Y552500D02*
D03*
X2150000Y2110000D02*
D03*
X4962500Y2585000D02*
D03*
Y317500D02*
D03*
X5710000Y1147500D02*
D03*
X5705000Y1922500D02*
D03*
X6255000Y1830000D02*
D03*
X6347500Y1915000D02*
D03*
X5048750Y403750D02*
D03*
X4707500Y392500D02*
D03*
X4802500Y305000D02*
D03*
X1270000Y567500D02*
D03*
X5697500Y2662500D02*
D03*
X5625863Y318933D02*
D03*
X6262500Y320000D02*
D03*
X6267500Y2580000D02*
D03*
X5617500D02*
D03*
X4985551Y1830000D02*
D03*
X5625455Y1832410D02*
D03*
X6347500Y1145000D02*
D03*
X6262500Y1055000D02*
D03*
X4985000Y1053087D02*
D03*
X5070000Y1130000D02*
D03*
X5630000Y1057500D02*
D03*
X3575000Y172500D02*
D03*
X4725000Y917500D02*
D03*
X3250000Y475000D02*
D03*
X5057500Y2662500D02*
D03*
X4810000Y1812500D02*
D03*
X4560000Y1990000D02*
D03*
X4165000Y2080000D02*
D03*
X1817500Y1290000D02*
D03*
X2527500Y2342500D02*
D03*
X380370Y1479266D02*
D03*
X1212500Y807500D02*
D03*
X1828766Y1127500D02*
D03*
X1480000Y780000D02*
D03*
X1332500Y2347500D02*
D03*
X3230000Y2525000D02*
D03*
X3797500Y2127500D02*
D03*
X4752500Y2590000D02*
D03*
X2950000Y2205000D02*
D03*
X4067500Y2012500D02*
D03*
X2597500Y452500D02*
D03*
X6350000Y2667500D02*
D03*
Y2335000D02*
D03*
X6347500Y1580000D02*
D03*
X5072500Y1592500D02*
D03*
X5045000Y75000D02*
D03*
X5700000Y2337500D02*
D03*
X5068087Y1911243D02*
D03*
X6352500Y65000D02*
D03*
X5710000Y62500D02*
D03*
X6350000Y815000D02*
D03*
X5710000Y810000D02*
D03*
X5070000Y792500D02*
D03*
X5710000Y405000D02*
D03*
X6350000D02*
D03*
X3787500Y1040000D02*
D03*
X3575000Y550000D02*
D03*
X5710000Y1590000D02*
D03*
X5055000Y2327500D02*
D03*
X3795000Y792500D02*
D03*
X2077500Y135000D02*
D03*
X1780000Y465000D02*
D03*
X1872500Y815000D02*
D03*
X2455000Y2252500D02*
D03*
X2290000Y2250000D02*
D03*
X860000Y1480000D02*
D03*
X770000Y1380000D02*
D03*
X1206938Y1002006D02*
D03*
X1090000Y1710000D02*
D03*
X2070000Y920000D02*
D03*
Y1080000D02*
D03*
X1120000Y900000D02*
D03*
X4800454Y985492D02*
D03*
X3845000Y1850000D02*
D03*
X2725000Y485000D02*
D03*
D89*
X2137500Y825000D02*
D03*
X972500Y342500D02*
D03*
X1162500Y340000D02*
D03*
X5997500Y1160000D02*
D03*
X4932500Y980000D02*
D03*
X1190000Y1545000D02*
D03*
X1187500Y1327500D02*
D03*
X6020000Y1260000D02*
D03*
X6050000Y2040000D02*
D03*
X6648247Y520747D02*
D03*
X5370000Y420000D02*
D03*
X5370000Y520000D02*
D03*
X5372500Y1260000D02*
D03*
X5375000Y1160000D02*
D03*
X5401841Y1938039D02*
D03*
X5405000Y2682500D02*
D03*
X6641016Y2040587D02*
D03*
X2772500Y185000D02*
D03*
X3742500Y1680000D02*
D03*
X4305000Y2122500D02*
D03*
X3192500Y1887500D02*
D03*
Y2212500D02*
D03*
X2795000Y2345000D02*
D03*
X6017500Y2680000D02*
D03*
X6630000Y2777500D02*
D03*
X6630000Y2680000D02*
D03*
X6005000Y2775000D02*
D03*
X6642500Y1161005D02*
D03*
X6640000Y1262500D02*
D03*
X6000000Y520000D02*
D03*
X6002500Y420000D02*
D03*
X6650000D02*
D03*
X2725000Y2266005D02*
D03*
X3862500Y732500D02*
D03*
X2675000Y1882500D02*
D03*
X2540000Y1850000D02*
D03*
X3977500Y1352500D02*
D03*
X4300000Y492500D02*
D03*
X4173000Y490000D02*
D03*
X3868566Y931066D02*
D03*
X3895000Y852500D02*
D03*
X4392500Y1000000D02*
D03*
X5397500Y2780000D02*
D03*
X6042500Y1945000D02*
D03*
X6640000Y1937500D02*
D03*
X5402500Y2040000D02*
D03*
X3407500Y805000D02*
D03*
X2209487Y1288087D02*
D03*
X1967500Y467500D02*
D03*
X2600000Y1250000D02*
D03*
X310000Y800000D02*
D03*
X2457998Y639940D02*
D03*
X2455000Y565000D02*
D03*
X3727882Y1504944D02*
D03*
X4810001Y1347706D02*
D03*
X3725000Y1430000D02*
D03*
X3327500Y2164794D02*
D03*
X3125496Y400299D02*
D03*
D90*
X2657500Y2735000D02*
D03*
X2677500Y2564376D02*
D03*
X1375000Y1205000D02*
D03*
X1835000Y1425000D02*
D03*
X455000Y2297500D02*
D03*
X945000Y2300000D02*
D03*
X947500Y1997500D02*
D03*
X632500Y1600000D02*
D03*
%TF.MD5,e7279cefe642d5c6379905f0a49cc5c3*%
M02*
