%TF.GenerationSoftware,Altium Limited,Altium Designer,23.7.1 (13)*%
G04 Layer_Physical_Order=4*
G04 Layer_Color=16711680*
%FSLAX45Y45*%
%MOMM*%
%TF.SameCoordinates,130BD4C1-0636-47CB-9725-464FD0227ADF*%
%TF.FilePolarity,Positive*%
%TF.FileFunction,Copper,L4,Bot,Signal*%
%TF.Part,Single*%
G01*
G75*
%TA.AperFunction,Conductor*%
%ADD38C,0.30000*%
%TA.AperFunction,ComponentPad*%
%ADD44C,2.00000*%
G04:AMPARAMS|DCode=45|XSize=1.3mm|YSize=1mm|CornerRadius=0.25mm|HoleSize=0mm|Usage=FLASHONLY|Rotation=270.000|XOffset=0mm|YOffset=0mm|HoleType=Round|Shape=RoundedRectangle|*
%AMROUNDEDRECTD45*
21,1,1.30000,0.50000,0,0,270.0*
21,1,0.80000,1.00000,0,0,270.0*
1,1,0.50000,-0.25000,-0.40000*
1,1,0.50000,-0.25000,0.40000*
1,1,0.50000,0.25000,0.40000*
1,1,0.50000,0.25000,-0.40000*
%
%ADD45ROUNDEDRECTD45*%
%ADD46O,1.00000X1.30000*%
%TA.AperFunction,ViaPad*%
%ADD47C,0.60000*%
%ADD48C,0.40000*%
%ADD49C,1.00000*%
G36*
X2126560Y770000D02*
X2148440D01*
X2158507Y763273D01*
Y730604D01*
X1946051Y518147D01*
X1936345Y514126D01*
X1920873Y498655D01*
X1912500Y478440D01*
Y456560D01*
X1920873Y436345D01*
X1936345Y420873D01*
X1956560Y412500D01*
X1978440D01*
X1998655Y420873D01*
X2014127Y436345D01*
X2018147Y446051D01*
X2227286Y655189D01*
X2239019Y650329D01*
Y591115D01*
X2038884Y390980D01*
X1803961D01*
X1802289Y403680D01*
X1805089Y404430D01*
X1819911Y412987D01*
X1832013Y425089D01*
X1840570Y439911D01*
X1845000Y456443D01*
Y473558D01*
X1840570Y490089D01*
X1832013Y504911D01*
X1819911Y517013D01*
X1812951Y521031D01*
X1810634Y536675D01*
X2047979Y774020D01*
X2116854D01*
X2126560Y770000D01*
D02*
G37*
G36*
X6974512Y25488D02*
X6417444D01*
X6411093Y36487D01*
X6413070Y39911D01*
X6417500Y56443D01*
Y73558D01*
X6413070Y90089D01*
X6404513Y104911D01*
X6392411Y117013D01*
X6377589Y125570D01*
X6361058Y130000D01*
X6343943D01*
X6327411Y125570D01*
X6312589Y117013D01*
X6300487Y104911D01*
X6291930Y90089D01*
X6287500Y73558D01*
Y56443D01*
X6291930Y39911D01*
X6293907Y36487D01*
X6287557Y25488D01*
X5777578D01*
X5770613Y35797D01*
X5770779Y38188D01*
X5775000Y53943D01*
Y71058D01*
X5770570Y87589D01*
X5762013Y102411D01*
X5749911Y114513D01*
X5735089Y123070D01*
X5718558Y127500D01*
X5701443D01*
X5684911Y123070D01*
X5670089Y114513D01*
X5657987Y102411D01*
X5649430Y87589D01*
X5645000Y71058D01*
Y53943D01*
X5649222Y38188D01*
X5649387Y35797D01*
X5642423Y25488D01*
X5103775D01*
X5098802Y38188D01*
X5105570Y49911D01*
X5110000Y66443D01*
Y83558D01*
X5105570Y100089D01*
X5097013Y114911D01*
X5084911Y127013D01*
X5070089Y135570D01*
X5053558Y140000D01*
X5036443D01*
X5019911Y135570D01*
X5005089Y127013D01*
X4992987Y114911D01*
X4984430Y100089D01*
X4980000Y83558D01*
Y66443D01*
X4984430Y49911D01*
X4991198Y38188D01*
X4986225Y25488D01*
X1464874D01*
X1461587Y37756D01*
X1468892Y41973D01*
X1494027Y67108D01*
X1511800Y97892D01*
X1521000Y132227D01*
Y167773D01*
X1511800Y202108D01*
X1494027Y232892D01*
X1468892Y258027D01*
X1438108Y275800D01*
X1436165Y276321D01*
X1437837Y289021D01*
X2060000D01*
X2079509Y292901D01*
X2096048Y303952D01*
X2326046Y533950D01*
X2337097Y550489D01*
X2340978Y569998D01*
Y918882D01*
X2621449Y1199353D01*
X2631155Y1203374D01*
X2646626Y1218845D01*
X2655000Y1239060D01*
Y1260940D01*
X2646626Y1281155D01*
X2631155Y1296627D01*
X2610940Y1305000D01*
X2589060D01*
X2568845Y1296627D01*
X2553373Y1281155D01*
X2549353Y1271449D01*
X2272200Y994296D01*
X2260467Y999156D01*
Y1267441D01*
X2264487Y1277147D01*
Y1299027D01*
X2256114Y1319242D01*
X2240642Y1334713D01*
X2220427Y1343087D01*
X2198547D01*
X2178332Y1334713D01*
X2162861Y1319242D01*
X2154487Y1299027D01*
Y1277147D01*
X2158507Y1267441D01*
Y886727D01*
X2148459Y880013D01*
X2136398Y880395D01*
X2129293Y892700D01*
X2130570Y894911D01*
X2135000Y911442D01*
Y928557D01*
X2130570Y945089D01*
X2122013Y959911D01*
X2109911Y972013D01*
X2095089Y980570D01*
X2078557Y985000D01*
X2061442D01*
X2044911Y980570D01*
X2030089Y972013D01*
X2017987Y959911D01*
X2009430Y945089D01*
X2005000Y928557D01*
Y911442D01*
X2009430Y894911D01*
X2014324Y886434D01*
X2008761Y872379D01*
X2007354Y872099D01*
X1990815Y861048D01*
X1615747Y485979D01*
X1409363D01*
X1389854Y482099D01*
X1388179Y480980D01*
X1153505D01*
X1133996Y477099D01*
X1117458Y466048D01*
X1044889Y393480D01*
X993146D01*
X983440Y397500D01*
X961560D01*
X941345Y389126D01*
X925873Y373655D01*
X917500Y353440D01*
Y331560D01*
X925873Y311345D01*
X941345Y295873D01*
X961560Y287500D01*
X983440D01*
X993146Y291520D01*
X1066005D01*
X1085514Y295401D01*
X1102053Y306452D01*
X1106342Y310741D01*
X1115874Y308845D01*
X1127019Y297700D01*
X1121758Y285000D01*
X1114227D01*
X1079892Y275800D01*
X1049108Y258027D01*
X1023973Y232892D01*
X1012332Y212729D01*
X997668D01*
X986027Y232892D01*
X960892Y258027D01*
X930108Y275800D01*
X895773Y285000D01*
X860227D01*
X825892Y275800D01*
X795108Y258027D01*
X769973Y232892D01*
X758332Y212729D01*
X743668D01*
X732027Y232892D01*
X706892Y258027D01*
X676108Y275800D01*
X641773Y285000D01*
X606227D01*
X571892Y275800D01*
X541108Y258027D01*
X515973Y232892D01*
X504332Y212729D01*
X489668D01*
X478027Y232892D01*
X452892Y258027D01*
X422108Y275800D01*
X387773Y285000D01*
X387500D01*
Y150000D01*
X370000D01*
Y132500D01*
X235000D01*
Y132227D01*
X244200Y97892D01*
X261973Y67108D01*
X287108Y41973D01*
X294413Y37756D01*
X291126Y25488D01*
X25488D01*
Y2974512D01*
X6974512D01*
Y25488D01*
D02*
G37*
%LPC*%
G36*
X917773Y2935000D02*
X917500D01*
Y2817500D01*
X1035000D01*
Y2817773D01*
X1025800Y2852108D01*
X1008027Y2882892D01*
X982892Y2908027D01*
X952108Y2925800D01*
X917773Y2935000D01*
D02*
G37*
G36*
X882500D02*
X882227D01*
X847892Y2925800D01*
X817108Y2908027D01*
X791973Y2882892D01*
X774200Y2852108D01*
X765000Y2817773D01*
Y2817500D01*
X882500D01*
Y2935000D01*
D02*
G37*
G36*
X6575000Y2883480D02*
X6272500D01*
X6252991Y2879599D01*
X6236452Y2868548D01*
X6168884Y2800979D01*
X6053770D01*
X6051626Y2806155D01*
X6036155Y2821627D01*
X6021829Y2827561D01*
X5990842Y2858548D01*
X5974303Y2869599D01*
X5954794Y2873480D01*
X5662500D01*
X5642991Y2869599D01*
X5626452Y2858548D01*
X5598884Y2830980D01*
X5418146D01*
X5408440Y2835000D01*
X5386560D01*
X5366345Y2826627D01*
X5350873Y2811155D01*
X5342500Y2790940D01*
Y2769060D01*
X5350873Y2748845D01*
X5366345Y2733374D01*
X5364931Y2720213D01*
X5358374Y2713655D01*
X5350000Y2693440D01*
Y2671560D01*
X5358374Y2651345D01*
X5373845Y2635874D01*
X5394060Y2627500D01*
X5415940D01*
X5425646Y2631521D01*
X5597500D01*
X5617009Y2635401D01*
X5633548Y2646452D01*
X5688616Y2701520D01*
X5901178D01*
X5956833Y2645865D01*
X5973372Y2634814D01*
X5991640Y2631180D01*
X6006560Y2625000D01*
X6028440D01*
X6042764Y2630934D01*
X6201913D01*
X6221422Y2634814D01*
X6237961Y2645865D01*
X6298861Y2706765D01*
X6529645D01*
X6564957Y2671452D01*
X6569462Y2668442D01*
X6579353Y2658551D01*
X6583373Y2648845D01*
X6598845Y2633374D01*
X6619060Y2625000D01*
X6640940D01*
X6661155Y2633374D01*
X6676626Y2648845D01*
X6685000Y2669060D01*
Y2690940D01*
X6676626Y2711155D01*
X6667328Y2720453D01*
X6662413Y2728750D01*
X6667328Y2737047D01*
X6676626Y2746345D01*
X6685000Y2766560D01*
Y2788440D01*
X6676626Y2808655D01*
X6661155Y2824126D01*
X6651449Y2828147D01*
X6611048Y2868548D01*
X6594509Y2879599D01*
X6575000Y2883480D01*
D02*
G37*
G36*
X1035000Y2782500D02*
X917500D01*
Y2665000D01*
X917773D01*
X952108Y2674200D01*
X982892Y2691973D01*
X1008027Y2717108D01*
X1025800Y2747892D01*
X1035000Y2782227D01*
Y2782500D01*
D02*
G37*
G36*
X882500D02*
X765000D01*
Y2782227D01*
X774200Y2747892D01*
X791973Y2717108D01*
X817108Y2691973D01*
X847892Y2674200D01*
X882227Y2665000D01*
X882500D01*
Y2782500D01*
D02*
G37*
G36*
X4318558Y2755000D02*
X4301443D01*
X4284911Y2750570D01*
X4270089Y2742013D01*
X4257987Y2729911D01*
X4249430Y2715089D01*
X4245000Y2698557D01*
Y2681442D01*
X4249430Y2664911D01*
X4257987Y2650089D01*
X4270089Y2637987D01*
X4284911Y2629430D01*
X4301443Y2625000D01*
X4318558D01*
X4335089Y2629430D01*
X4349911Y2637987D01*
X4362013Y2650089D01*
X4370570Y2664911D01*
X4375000Y2681442D01*
Y2698557D01*
X4370570Y2715089D01*
X4362013Y2729911D01*
X4349911Y2742013D01*
X4335089Y2750570D01*
X4318558Y2755000D01*
D02*
G37*
G36*
X2688691Y2649376D02*
X2666310D01*
X2644691Y2643584D01*
X2625309Y2632393D01*
X2609483Y2616568D01*
X2598293Y2597185D01*
X2592500Y2575567D01*
Y2553186D01*
X2598293Y2531568D01*
X2609483Y2512185D01*
X2625309Y2496359D01*
X2644691Y2485169D01*
X2666310Y2479377D01*
X2688691D01*
X2710309Y2485169D01*
X2729691Y2496359D01*
X2745517Y2512185D01*
X2756707Y2531568D01*
X2762500Y2553186D01*
Y2575567D01*
X2756707Y2597185D01*
X2745517Y2616568D01*
X2729691Y2632393D01*
X2710309Y2643584D01*
X2688691Y2649376D01*
D02*
G37*
G36*
X3238557Y2590000D02*
X3221442D01*
X3204911Y2585570D01*
X3190089Y2577013D01*
X3177987Y2564911D01*
X3169430Y2550089D01*
X3165000Y2533558D01*
Y2516443D01*
X3169430Y2499911D01*
X3177987Y2485089D01*
X3190089Y2472987D01*
X3204911Y2464430D01*
X3221442Y2460000D01*
X3238557D01*
X3255089Y2464430D01*
X3269911Y2472987D01*
X3282013Y2485089D01*
X3290570Y2499911D01*
X3295000Y2516443D01*
Y2533558D01*
X3290570Y2550089D01*
X3282013Y2564911D01*
X3269911Y2577013D01*
X3255089Y2585570D01*
X3238557Y2590000D01*
D02*
G37*
G36*
X5708558Y2402500D02*
X5691443D01*
X5674911Y2398070D01*
X5660089Y2389513D01*
X5647987Y2377411D01*
X5639430Y2362589D01*
X5635000Y2346058D01*
Y2328943D01*
X5639430Y2312411D01*
X5647987Y2297589D01*
X5660089Y2285487D01*
X5674911Y2276930D01*
X5691443Y2272500D01*
X5708558D01*
X5725089Y2276930D01*
X5739911Y2285487D01*
X5752013Y2297589D01*
X5760570Y2312411D01*
X5765000Y2328943D01*
Y2346058D01*
X5760570Y2362589D01*
X5752013Y2377411D01*
X5739911Y2389513D01*
X5725089Y2398070D01*
X5708558Y2402500D01*
D02*
G37*
G36*
X6358558Y2400000D02*
X6341442D01*
X6324911Y2395570D01*
X6310089Y2387013D01*
X6297987Y2374911D01*
X6289430Y2360089D01*
X6285000Y2343557D01*
Y2326442D01*
X6289430Y2309911D01*
X6297987Y2295089D01*
X6310089Y2282987D01*
X6324911Y2274430D01*
X6341442Y2270000D01*
X6358558D01*
X6375089Y2274430D01*
X6389911Y2282987D01*
X6402013Y2295089D01*
X6410570Y2309911D01*
X6415000Y2326442D01*
Y2343557D01*
X6410570Y2360089D01*
X6402013Y2374911D01*
X6389911Y2387013D01*
X6375089Y2395570D01*
X6358558Y2400000D01*
D02*
G37*
G36*
X2805940D02*
X2784060D01*
X2774354Y2395979D01*
X2685000D01*
X2665491Y2392099D01*
X2648952Y2381048D01*
X2532263Y2264359D01*
X2518098Y2268155D01*
X2515570Y2277589D01*
X2507013Y2292411D01*
X2494911Y2304513D01*
X2480089Y2313070D01*
X2463557Y2317500D01*
X2446442D01*
X2429911Y2313070D01*
X2415089Y2304513D01*
X2402987Y2292411D01*
X2394430Y2277589D01*
X2390000Y2261057D01*
Y2243942D01*
X2394430Y2227411D01*
X2402987Y2212589D01*
X2415089Y2200487D01*
X2429911Y2191930D01*
X2439345Y2189402D01*
X2443141Y2175237D01*
X2308884Y2040979D01*
X2185852D01*
X2182450Y2053679D01*
X2189911Y2057987D01*
X2202013Y2070089D01*
X2210570Y2084911D01*
X2215000Y2101443D01*
Y2118558D01*
X2210570Y2135089D01*
X2202013Y2149911D01*
X2189911Y2162013D01*
X2175089Y2170570D01*
X2158558Y2175000D01*
X2141443D01*
X2124911Y2170570D01*
X2110089Y2162013D01*
X2097987Y2149911D01*
X2089430Y2135089D01*
X2085000Y2118558D01*
Y2101443D01*
X2089430Y2084911D01*
X2097987Y2070089D01*
X2110089Y2057987D01*
X2117551Y2053679D01*
X2114148Y2040979D01*
X2021360D01*
X2001851Y2037099D01*
X1985312Y2026048D01*
X1665384Y1706119D01*
X1654332Y1689580D01*
X1650452Y1670071D01*
Y1651187D01*
X1462744Y1463480D01*
X1343616D01*
X1240647Y1566449D01*
X1236626Y1576155D01*
X1221155Y1591626D01*
X1200940Y1600000D01*
X1179060D01*
X1158845Y1591626D01*
X1143373Y1576155D01*
X1135000Y1555940D01*
Y1534060D01*
X1143373Y1513845D01*
X1158845Y1498373D01*
X1168551Y1494353D01*
X1232691Y1430213D01*
X1229757Y1423131D01*
X1226636Y1418308D01*
X1207991Y1414599D01*
X1191452Y1403548D01*
X1166051Y1378147D01*
X1156345Y1374127D01*
X1140874Y1358655D01*
X1132500Y1338440D01*
Y1316560D01*
X1140874Y1296345D01*
X1156345Y1280873D01*
X1176560Y1272500D01*
X1198440D01*
X1218655Y1280873D01*
X1234127Y1296345D01*
X1238147Y1306051D01*
X1248617Y1316521D01*
X1502500D01*
X1522009Y1320401D01*
X1538548Y1331452D01*
X1782479Y1575383D01*
X1793530Y1591922D01*
X1797411Y1611431D01*
Y1630315D01*
X1913267Y1746171D01*
X1925000Y1741311D01*
Y1731227D01*
X1934200Y1696892D01*
X1951973Y1666108D01*
X1977108Y1640973D01*
X1997271Y1629333D01*
Y1614668D01*
X1977108Y1603027D01*
X1951973Y1577892D01*
X1934200Y1547108D01*
X1925000Y1512773D01*
Y1477227D01*
X1934200Y1442892D01*
X1951973Y1412108D01*
X1977108Y1386973D01*
X2007892Y1369200D01*
X2042227Y1360000D01*
X2077773D01*
X2112108Y1369200D01*
X2142892Y1386973D01*
X2168027Y1412108D01*
X2185800Y1442892D01*
X2195000Y1477227D01*
Y1512773D01*
X2185800Y1547108D01*
X2168027Y1577892D01*
X2142892Y1603027D01*
X2122729Y1614668D01*
Y1629333D01*
X2142892Y1640973D01*
X2168027Y1666108D01*
X2185800Y1696892D01*
X2195000Y1731227D01*
Y1766773D01*
X2185800Y1801108D01*
X2168027Y1831892D01*
X2142892Y1857027D01*
X2112108Y1874800D01*
X2087774Y1881320D01*
X2089446Y1894020D01*
X2420000D01*
X2439509Y1897901D01*
X2456048Y1908952D01*
X2759135Y2212039D01*
X2770186Y2228577D01*
X2771386Y2234609D01*
X2771626Y2234850D01*
X2780000Y2255065D01*
Y2276945D01*
X2779452Y2278267D01*
X2780634Y2281274D01*
X2788339Y2290000D01*
X2805940D01*
X2826155Y2298373D01*
X2841627Y2313845D01*
X2850000Y2334060D01*
Y2355940D01*
X2841627Y2376155D01*
X2826155Y2391626D01*
X2805940Y2400000D01*
D02*
G37*
G36*
X5063558Y2392500D02*
X5046443D01*
X5029911Y2388070D01*
X5015089Y2379513D01*
X5002987Y2367411D01*
X4994430Y2352589D01*
X4990000Y2336058D01*
Y2318943D01*
X4994430Y2302411D01*
X5002987Y2287589D01*
X5015089Y2275487D01*
X5029911Y2266930D01*
X5046443Y2262500D01*
X5063558D01*
X5080089Y2266930D01*
X5094911Y2275487D01*
X5107013Y2287589D01*
X5115570Y2302411D01*
X5120000Y2318943D01*
Y2336058D01*
X5115570Y2352589D01*
X5107013Y2367411D01*
X5094911Y2379513D01*
X5080089Y2388070D01*
X5063558Y2392500D01*
D02*
G37*
G36*
X5977294Y2150980D02*
X5648661D01*
X5629152Y2147099D01*
X5612613Y2136048D01*
X5567545Y2090980D01*
X5423146D01*
X5413440Y2095000D01*
X5391560D01*
X5371345Y2086627D01*
X5355873Y2071155D01*
X5347500Y2050940D01*
Y2029060D01*
X5355873Y2008845D01*
X5367590Y1997129D01*
X5369728Y1988524D01*
X5367317Y1981296D01*
X5355215Y1969193D01*
X5346841Y1948979D01*
Y1927099D01*
X5355215Y1906884D01*
X5370686Y1891412D01*
X5390901Y1883039D01*
X5412781D01*
X5422487Y1887059D01*
X5562467D01*
X5581976Y1890940D01*
X5598515Y1901991D01*
X5683045Y1986521D01*
X5925247D01*
X5925249Y1986520D01*
X5928884D01*
X5991853Y1923551D01*
X5995873Y1913845D01*
X6011345Y1898373D01*
X6031560Y1890000D01*
X6045282D01*
X6050206Y1889021D01*
X6214780D01*
X6234289Y1892901D01*
X6250827Y1903952D01*
X6290896Y1944020D01*
X6546987D01*
X6548700Y1943680D01*
X6561724D01*
X6589353Y1916051D01*
X6593373Y1906345D01*
X6608845Y1890874D01*
X6629060Y1882500D01*
X6650940D01*
X6671155Y1890874D01*
X6686626Y1906345D01*
X6695000Y1926560D01*
Y1948440D01*
X6686626Y1968655D01*
X6674219Y1981062D01*
X6672807Y1989957D01*
X6674640Y1996430D01*
X6687642Y2009432D01*
X6696016Y2029647D01*
Y2051527D01*
X6687642Y2071742D01*
X6672171Y2087214D01*
X6657845Y2093147D01*
X6634945Y2116048D01*
X6618406Y2127099D01*
X6598897Y2130979D01*
X6291140D01*
X6271631Y2127099D01*
X6255092Y2116048D01*
X6230024Y2090980D01*
X6070646D01*
X6060940Y2095000D01*
X6054390D01*
X6013342Y2136048D01*
X5996803Y2147099D01*
X5977294Y2150980D01*
D02*
G37*
G36*
X4568558Y2055000D02*
X4551443D01*
X4534911Y2050570D01*
X4520089Y2042013D01*
X4507987Y2029911D01*
X4499430Y2015089D01*
X4495000Y1998558D01*
Y1981443D01*
X4499430Y1964911D01*
X4507987Y1950089D01*
X4520089Y1937987D01*
X4534911Y1929430D01*
X4551443Y1925000D01*
X4568558D01*
X4585089Y1929430D01*
X4599911Y1937987D01*
X4612013Y1950089D01*
X4620570Y1964911D01*
X4625000Y1981443D01*
Y1998558D01*
X4620570Y2015089D01*
X4612013Y2029911D01*
X4599911Y2042013D01*
X4585089Y2050570D01*
X4568558Y2055000D01*
D02*
G37*
G36*
X958690Y2082500D02*
X936310D01*
X914691Y2076707D01*
X895309Y2065517D01*
X879483Y2049691D01*
X868293Y2030309D01*
X862500Y2008690D01*
Y1986309D01*
X868293Y1964691D01*
X879483Y1945309D01*
X895309Y1929483D01*
X914691Y1918293D01*
X936310Y1912500D01*
X958690D01*
X980309Y1918293D01*
X999691Y1929483D01*
X1015517Y1945309D01*
X1026707Y1964691D01*
X1032500Y1986309D01*
Y2008690D01*
X1026707Y2030309D01*
X1015517Y2049691D01*
X999691Y2065517D01*
X980309Y2076707D01*
X958690Y2082500D01*
D02*
G37*
G36*
X3203440Y2267500D02*
X3181560D01*
X3161345Y2259126D01*
X3145874Y2243655D01*
X3137500Y2223440D01*
Y2201560D01*
X3141521Y2191854D01*
Y1908146D01*
X3137500Y1898440D01*
Y1876560D01*
X3145874Y1856345D01*
X3161345Y1840873D01*
X3181560Y1832500D01*
X3203440D01*
X3223655Y1840873D01*
X3239127Y1856345D01*
X3247500Y1876560D01*
Y1898440D01*
X3243480Y1908146D01*
Y2191854D01*
X3247500Y2201560D01*
Y2223440D01*
X3239127Y2243655D01*
X3223655Y2259126D01*
X3203440Y2267500D01*
D02*
G37*
G36*
X3853557Y1915000D02*
X3836442D01*
X3819911Y1910570D01*
X3805089Y1902013D01*
X3792987Y1889911D01*
X3784430Y1875089D01*
X3780000Y1858558D01*
Y1841443D01*
X3784430Y1824911D01*
X3792987Y1810089D01*
X3805089Y1797987D01*
X3819911Y1789430D01*
X3836442Y1785000D01*
X3853557D01*
X3870089Y1789430D01*
X3884911Y1797987D01*
X3897013Y1810089D01*
X3905570Y1824911D01*
X3910000Y1841443D01*
Y1858558D01*
X3905570Y1875089D01*
X3897013Y1889911D01*
X3884911Y1902013D01*
X3870089Y1910570D01*
X3853557Y1915000D01*
D02*
G37*
G36*
X4818558Y1877500D02*
X4801443D01*
X4784911Y1873070D01*
X4770089Y1864513D01*
X4757987Y1852411D01*
X4749430Y1837589D01*
X4745000Y1821058D01*
Y1803943D01*
X4749430Y1787411D01*
X4757987Y1772589D01*
X4770089Y1760487D01*
X4784911Y1751930D01*
X4801443Y1747500D01*
X4818558D01*
X4835089Y1751930D01*
X4849911Y1760487D01*
X4862013Y1772589D01*
X4870570Y1787411D01*
X4875000Y1803943D01*
Y1821058D01*
X4870570Y1837589D01*
X4862013Y1852411D01*
X4849911Y1864513D01*
X4835089Y1873070D01*
X4818558Y1877500D01*
D02*
G37*
G36*
X5081057Y1657500D02*
X5063942D01*
X5047411Y1653070D01*
X5032589Y1644513D01*
X5020487Y1632411D01*
X5011930Y1617589D01*
X5007500Y1601058D01*
Y1583942D01*
X5011930Y1567411D01*
X5020487Y1552589D01*
X5032589Y1540487D01*
X5047411Y1531930D01*
X5063942Y1527500D01*
X5081057D01*
X5097589Y1531930D01*
X5112411Y1540487D01*
X5124513Y1552589D01*
X5133070Y1567411D01*
X5137500Y1583942D01*
Y1601058D01*
X5133070Y1617589D01*
X5124513Y1632411D01*
X5112411Y1644513D01*
X5097589Y1653070D01*
X5081057Y1657500D01*
D02*
G37*
G36*
X5718558Y1655000D02*
X5701442D01*
X5684911Y1650570D01*
X5670089Y1642013D01*
X5657987Y1629911D01*
X5649430Y1615089D01*
X5645000Y1598558D01*
Y1581443D01*
X5649430Y1564911D01*
X5657987Y1550089D01*
X5670089Y1537987D01*
X5684911Y1529430D01*
X5701442Y1525000D01*
X5718558D01*
X5735089Y1529430D01*
X5749911Y1537987D01*
X5762013Y1550089D01*
X5770570Y1564911D01*
X5775000Y1581443D01*
Y1598558D01*
X5770570Y1615089D01*
X5762013Y1629911D01*
X5749911Y1642013D01*
X5735089Y1650570D01*
X5718558Y1655000D01*
D02*
G37*
G36*
X643690Y1685000D02*
X621309D01*
X599691Y1679207D01*
X580309Y1668017D01*
X564483Y1652191D01*
X553293Y1632809D01*
X547500Y1611191D01*
Y1588810D01*
X553293Y1567191D01*
X564483Y1547809D01*
X580309Y1531983D01*
X599691Y1520793D01*
X621309Y1515000D01*
X643690D01*
X665309Y1520793D01*
X684691Y1531983D01*
X700517Y1547809D01*
X711707Y1567191D01*
X717500Y1588810D01*
Y1611191D01*
X711707Y1632809D01*
X700517Y1652191D01*
X684691Y1668017D01*
X665309Y1679207D01*
X643690Y1685000D01*
D02*
G37*
G36*
X6356057Y1645000D02*
X6338942D01*
X6322411Y1640570D01*
X6307589Y1632013D01*
X6295487Y1619911D01*
X6286930Y1605089D01*
X6282500Y1588557D01*
Y1571442D01*
X6286930Y1554911D01*
X6295487Y1540089D01*
X6307589Y1527987D01*
X6322411Y1519430D01*
X6338942Y1515000D01*
X6356057D01*
X6372589Y1519430D01*
X6387411Y1527987D01*
X6399513Y1540089D01*
X6408070Y1554911D01*
X6412500Y1571442D01*
Y1588557D01*
X6408070Y1605089D01*
X6399513Y1619911D01*
X6387411Y1632013D01*
X6372589Y1640570D01*
X6356057Y1645000D01*
D02*
G37*
G36*
X1846190Y1510000D02*
X1823809D01*
X1802191Y1504207D01*
X1782809Y1493017D01*
X1766983Y1477191D01*
X1755793Y1457809D01*
X1750000Y1436190D01*
Y1413809D01*
X1755793Y1392191D01*
X1766983Y1372809D01*
X1782809Y1356983D01*
X1802191Y1345793D01*
X1823809Y1340000D01*
X1846190D01*
X1867809Y1345793D01*
X1887191Y1356983D01*
X1903017Y1372809D01*
X1914207Y1392191D01*
X1920000Y1413809D01*
Y1436190D01*
X1914207Y1457809D01*
X1903017Y1477191D01*
X1887191Y1493017D01*
X1867809Y1504207D01*
X1846190Y1510000D01*
D02*
G37*
G36*
X6570000Y1383480D02*
X6246484D01*
X6226974Y1379599D01*
X6210436Y1368548D01*
X6152867Y1310980D01*
X6041116D01*
X5998548Y1353548D01*
X5982009Y1364599D01*
X5962500Y1368480D01*
X5690000D01*
X5670491Y1364599D01*
X5653952Y1353548D01*
X5611384Y1310980D01*
X5393146D01*
X5383440Y1315000D01*
X5361560D01*
X5341345Y1306627D01*
X5325874Y1291155D01*
X5317500Y1270940D01*
Y1249060D01*
X5325874Y1228845D01*
X5337672Y1217047D01*
X5340894Y1211609D01*
X5338164Y1200945D01*
X5328373Y1191155D01*
X5320000Y1170940D01*
Y1149060D01*
X5328373Y1128845D01*
X5343845Y1113373D01*
X5364060Y1105000D01*
X5385940D01*
X5395646Y1109020D01*
X5597500D01*
X5617009Y1112901D01*
X5633548Y1123952D01*
X5711116Y1201520D01*
X5882389D01*
X5894957Y1188952D01*
X5899463Y1185941D01*
X5946853Y1138551D01*
X5950874Y1128845D01*
X5966345Y1113373D01*
X5986560Y1105000D01*
X6008440D01*
X6018146Y1109020D01*
X6178750D01*
X6198259Y1112901D01*
X6214798Y1123952D01*
X6272366Y1181520D01*
X6549889D01*
X6591853Y1139556D01*
X6595874Y1129850D01*
X6611345Y1114379D01*
X6631560Y1106005D01*
X6653440D01*
X6673655Y1114379D01*
X6689127Y1129850D01*
X6697500Y1150065D01*
Y1171945D01*
X6689127Y1192160D01*
X6676581Y1204706D01*
X6674037Y1209942D01*
X6675779Y1220498D01*
X6686626Y1231345D01*
X6695000Y1251560D01*
Y1273440D01*
X6686626Y1293655D01*
X6671155Y1309126D01*
X6661449Y1313147D01*
X6606048Y1368548D01*
X6589509Y1379599D01*
X6570000Y1383480D01*
D02*
G37*
G36*
X3988440Y1407500D02*
X3966560D01*
X3946345Y1399126D01*
X3930874Y1383655D01*
X3922500Y1363440D01*
Y1341560D01*
X3930874Y1321345D01*
X3946345Y1305873D01*
X3966560Y1297500D01*
X3988440D01*
X3998146Y1301520D01*
X4778404D01*
X4778846Y1301079D01*
X4799061Y1292706D01*
X4820941D01*
X4841155Y1301079D01*
X4856627Y1316551D01*
X4865000Y1336766D01*
Y1358646D01*
X4856627Y1378861D01*
X4841155Y1394332D01*
X4820941Y1402706D01*
X4802026D01*
X4798135Y1403480D01*
X3998146D01*
X3988440Y1407500D01*
D02*
G37*
G36*
X3338440Y2219794D02*
X3316560D01*
X3296345Y2211421D01*
X3280874Y2195949D01*
X3272500Y2175734D01*
Y2153854D01*
X3280874Y2133639D01*
X3296345Y2118167D01*
X3306051Y2114147D01*
X3691520Y1728678D01*
Y1700646D01*
X3687500Y1690940D01*
Y1669060D01*
X3695873Y1648845D01*
X3711345Y1633374D01*
X3731560Y1625000D01*
X3753440D01*
X3761022Y1628141D01*
X3768216Y1617374D01*
X3706433Y1555591D01*
X3696727Y1551571D01*
X3681256Y1536099D01*
X3672882Y1515884D01*
Y1494004D01*
X3681256Y1473789D01*
X3686132Y1468913D01*
X3678373Y1461155D01*
X3670000Y1440940D01*
Y1419060D01*
X3678373Y1398845D01*
X3693845Y1383373D01*
X3707693Y1377637D01*
X3860655Y1224676D01*
X3854398Y1212971D01*
X3839276Y1215979D01*
X3411117D01*
X2727415Y1899681D01*
X2721627Y1913655D01*
X2706155Y1929126D01*
X2685940Y1937500D01*
X2664060D01*
X2643845Y1929126D01*
X2628373Y1913655D01*
X2620000Y1893440D01*
Y1871560D01*
X2628373Y1851345D01*
X2619154Y1842942D01*
X2590647Y1871449D01*
X2586627Y1881155D01*
X2571155Y1896627D01*
X2550940Y1905000D01*
X2529060D01*
X2508845Y1896627D01*
X2493373Y1881155D01*
X2485000Y1860940D01*
Y1839060D01*
X2493373Y1818845D01*
X2508845Y1803374D01*
X2518551Y1799353D01*
X3233952Y1083952D01*
X3250491Y1072901D01*
X3270000Y1069020D01*
X3715157D01*
X3724580Y1056320D01*
X3722500Y1048557D01*
Y1031442D01*
X3726930Y1014911D01*
X3734857Y1001180D01*
X3732681Y993315D01*
X3730678Y988480D01*
X3292500D01*
X3272991Y984599D01*
X3256452Y973548D01*
X2968884Y685980D01*
X2932500D01*
X2932499Y685979D01*
X2489739D01*
X2489153Y686566D01*
X2468938Y694940D01*
X2447058D01*
X2426843Y686566D01*
X2411371Y671095D01*
X2402998Y650880D01*
Y629000D01*
X2411371Y608785D01*
X2416187Y603969D01*
X2408373Y596155D01*
X2400000Y575940D01*
Y554060D01*
X2408373Y533845D01*
X2423845Y518373D01*
X2444060Y510000D01*
X2465940D01*
X2486155Y518373D01*
X2486802Y519021D01*
X2557317D01*
X2560720Y506321D01*
X2557589Y504513D01*
X2545487Y492411D01*
X2536930Y477589D01*
X2532500Y461057D01*
Y443942D01*
X2536930Y427411D01*
X2545487Y412589D01*
X2557589Y400487D01*
X2572411Y391930D01*
X2588942Y387500D01*
X2606058D01*
X2622589Y391930D01*
X2637411Y400487D01*
X2649513Y412589D01*
X2658070Y427411D01*
X2662500Y443942D01*
Y461057D01*
X2658070Y477589D01*
X2649513Y492411D01*
X2637411Y504513D01*
X2634280Y506321D01*
X2637683Y519021D01*
X3022782D01*
X3042291Y522901D01*
X3058830Y533952D01*
X3186398Y661521D01*
X3828137D01*
X3847646Y665401D01*
X3864185Y676452D01*
X3865233Y677500D01*
X3873440D01*
X3893655Y685873D01*
X3909127Y701345D01*
X3917500Y721560D01*
Y743440D01*
X3909127Y763655D01*
X3893655Y779126D01*
X3873440Y787500D01*
X3851560D01*
X3831345Y779126D01*
X3830696Y778478D01*
X3826714Y777686D01*
X3810176Y766635D01*
X3807021Y763480D01*
X3460355D01*
X3455094Y776180D01*
X3458147Y783551D01*
X3506117Y831521D01*
X3797020D01*
X3812089Y816452D01*
X3828628Y805401D01*
X3848137Y801520D01*
X3874354D01*
X3884060Y797500D01*
X3905940D01*
X3926155Y805873D01*
X3941627Y821345D01*
X3950000Y841560D01*
Y863440D01*
X3941627Y883655D01*
X3926155Y899126D01*
X3916520Y903117D01*
X3923566Y920126D01*
Y927014D01*
X3936266Y932275D01*
X4122020Y746520D01*
Y510646D01*
X4118000Y500940D01*
Y479060D01*
X4126374Y458845D01*
X4141845Y443374D01*
X4162060Y435000D01*
X4183940D01*
X4204155Y443374D01*
X4219627Y458845D01*
X4228000Y479060D01*
Y500940D01*
X4223980Y510646D01*
Y691607D01*
X4235713Y696467D01*
X4249020Y683160D01*
Y513146D01*
X4245000Y503440D01*
Y481560D01*
X4253374Y461345D01*
X4268845Y445873D01*
X4289060Y437500D01*
X4310940D01*
X4331155Y445873D01*
X4346627Y461345D01*
X4355000Y481560D01*
Y503440D01*
X4350980Y513146D01*
Y704276D01*
X4347099Y723785D01*
X4336048Y740324D01*
X4136048Y940324D01*
X4142304Y952029D01*
X4157426Y949020D01*
X4371854D01*
X4381560Y945000D01*
X4403440D01*
X4423655Y953374D01*
X4439127Y968845D01*
X4447500Y989060D01*
Y1010940D01*
X4439127Y1031155D01*
X4423655Y1046627D01*
X4403440Y1055000D01*
X4381560D01*
X4371854Y1050980D01*
X4178543D01*
X3773931Y1455591D01*
X3771626Y1461155D01*
X3766750Y1466031D01*
X3774509Y1473789D01*
X3778529Y1483496D01*
X4166554Y1871521D01*
X4172500D01*
X4192009Y1875401D01*
X4208548Y1886452D01*
X4341048Y2018952D01*
X4352099Y2035491D01*
X4355980Y2055000D01*
Y2101854D01*
X4360000Y2111560D01*
Y2133440D01*
X4351627Y2153655D01*
X4336155Y2169126D01*
X4315940Y2177500D01*
X4294060D01*
X4273845Y2169126D01*
X4258373Y2153655D01*
X4250000Y2133440D01*
Y2111560D01*
X4254020Y2101854D01*
Y2076116D01*
X4151384Y1973480D01*
X4145438D01*
X4133298Y1971065D01*
X4125176Y1982398D01*
X4128070Y1987411D01*
X4132500Y2003942D01*
Y2021057D01*
X4128070Y2037589D01*
X4119513Y2052411D01*
X4107411Y2064513D01*
X4092589Y2073070D01*
X4076058Y2077500D01*
X4058943D01*
X4042411Y2073070D01*
X4027589Y2064513D01*
X4015487Y2052411D01*
X4006930Y2037589D01*
X4002500Y2021057D01*
Y2003942D01*
X4006930Y1987411D01*
X4015487Y1972589D01*
X4027589Y1960487D01*
X4042411Y1951930D01*
X4058943Y1947500D01*
X4076058D01*
X4081964Y1949083D01*
X4088538Y1937696D01*
X3805126Y1654284D01*
X3794359Y1661478D01*
X3797500Y1669060D01*
Y1690940D01*
X3793480Y1700646D01*
Y1749794D01*
X3789599Y1769303D01*
X3778548Y1785842D01*
X3378147Y2186243D01*
X3374127Y2195949D01*
X3358655Y2211421D01*
X3338440Y2219794D01*
D02*
G37*
G36*
X1837323Y1192500D02*
X1820208D01*
X1803677Y1188070D01*
X1788855Y1179513D01*
X1776753Y1167411D01*
X1768196Y1152589D01*
X1763766Y1136058D01*
Y1118943D01*
X1768196Y1102411D01*
X1776753Y1087589D01*
X1788855Y1075487D01*
X1803677Y1066930D01*
X1820208Y1062500D01*
X1837323D01*
X1853855Y1066930D01*
X1868676Y1075487D01*
X1880779Y1087589D01*
X1889336Y1102411D01*
X1893766Y1118943D01*
Y1136058D01*
X1889336Y1152589D01*
X1880779Y1167411D01*
X1868676Y1179513D01*
X1853855Y1188070D01*
X1837323Y1192500D01*
D02*
G37*
G36*
X6358558Y880000D02*
X6341442D01*
X6324911Y875570D01*
X6310089Y867013D01*
X6297987Y854911D01*
X6289430Y840089D01*
X6285000Y823557D01*
Y806442D01*
X6289430Y789911D01*
X6297987Y775089D01*
X6310089Y762987D01*
X6324911Y754430D01*
X6341442Y750000D01*
X6358558D01*
X6375089Y754430D01*
X6389911Y762987D01*
X6402013Y775089D01*
X6410570Y789911D01*
X6415000Y806442D01*
Y823557D01*
X6410570Y840089D01*
X6402013Y854911D01*
X6389911Y867013D01*
X6375089Y875570D01*
X6358558Y880000D01*
D02*
G37*
G36*
X5718558Y875000D02*
X5701442D01*
X5684911Y870570D01*
X5670089Y862013D01*
X5657987Y849911D01*
X5649430Y835089D01*
X5645000Y818557D01*
Y801442D01*
X5649430Y784911D01*
X5657987Y770089D01*
X5670089Y757987D01*
X5684911Y749430D01*
X5701442Y745000D01*
X5718558D01*
X5735089Y749430D01*
X5749911Y757987D01*
X5762013Y770089D01*
X5770570Y784911D01*
X5775000Y801442D01*
Y818557D01*
X5770570Y835089D01*
X5762013Y849911D01*
X5749911Y862013D01*
X5735089Y870570D01*
X5718558Y875000D01*
D02*
G37*
G36*
X1221058Y872500D02*
X1203942D01*
X1187411Y868070D01*
X1172589Y859513D01*
X1160487Y847411D01*
X1151930Y832589D01*
X1147500Y816058D01*
Y798943D01*
X1151930Y782411D01*
X1160487Y767589D01*
X1172589Y755487D01*
X1187411Y746930D01*
X1203942Y742500D01*
X1221058D01*
X1237589Y746930D01*
X1252411Y755487D01*
X1264513Y767589D01*
X1273070Y782411D01*
X1277500Y798943D01*
Y816058D01*
X1273070Y832589D01*
X1264513Y847411D01*
X1252411Y859513D01*
X1237589Y868070D01*
X1221058Y872500D01*
D02*
G37*
G36*
X697773Y1178000D02*
X662226D01*
X627891Y1168800D01*
X597108Y1151027D01*
X571973Y1125892D01*
X554200Y1095108D01*
X553783Y1093553D01*
X552573D01*
X533064Y1089672D01*
X516525Y1078621D01*
X288551Y850647D01*
X278845Y846626D01*
X263373Y831155D01*
X255000Y810940D01*
Y789060D01*
X263373Y768845D01*
X278845Y753373D01*
X299060Y745000D01*
X320940D01*
X341155Y753373D01*
X356626Y768845D01*
X360647Y778551D01*
X553701Y971605D01*
X566292Y969947D01*
X571973Y960108D01*
X597108Y934973D01*
X617270Y923332D01*
Y908667D01*
X597108Y897027D01*
X571973Y871892D01*
X554200Y841108D01*
X545000Y806773D01*
Y771227D01*
X554200Y736892D01*
X571973Y706108D01*
X597108Y680973D01*
X617270Y669332D01*
Y654667D01*
X597108Y643027D01*
X571973Y617892D01*
X554200Y587108D01*
X545000Y552773D01*
Y552500D01*
X815000D01*
Y552773D01*
X805800Y587108D01*
X788026Y617892D01*
X762892Y643027D01*
X742729Y654667D01*
Y669332D01*
X762892Y680973D01*
X788026Y706108D01*
X805800Y736892D01*
X815000Y771227D01*
Y806773D01*
X805800Y841108D01*
X788026Y871892D01*
X762892Y897027D01*
X742729Y908667D01*
Y923332D01*
X762891Y934973D01*
X788026Y960108D01*
X805799Y990892D01*
X814999Y1025227D01*
Y1060773D01*
X805799Y1095108D01*
X788026Y1125892D01*
X762891Y1151027D01*
X732108Y1168800D01*
X697773Y1178000D01*
D02*
G37*
G36*
X3583557Y615000D02*
X3566442D01*
X3549911Y610570D01*
X3535089Y602013D01*
X3522987Y589911D01*
X3514430Y575089D01*
X3510000Y558557D01*
Y541442D01*
X3514430Y524911D01*
X3522987Y510089D01*
X3535089Y497987D01*
X3549911Y489430D01*
X3566442Y485000D01*
X3583557D01*
X3600089Y489430D01*
X3614911Y497987D01*
X3627013Y510089D01*
X3635570Y524911D01*
X3640000Y541442D01*
Y558557D01*
X3635570Y575089D01*
X3627013Y589911D01*
X3614911Y602013D01*
X3600089Y610570D01*
X3583557Y615000D01*
D02*
G37*
G36*
X815000Y517500D02*
X697499D01*
Y400000D01*
X697773D01*
X732108Y409200D01*
X762892Y426973D01*
X788026Y452108D01*
X805800Y482892D01*
X815000Y517227D01*
Y517500D01*
D02*
G37*
G36*
X662500D02*
X545000D01*
Y517227D01*
X554200Y482892D01*
X571973Y452108D01*
X597108Y426973D01*
X627892Y409200D01*
X662227Y400000D01*
X662500D01*
Y517500D01*
D02*
G37*
G36*
X4579000Y401175D02*
X4529000D01*
X4505589Y396519D01*
X4485743Y383258D01*
X4479102Y382161D01*
X4469867Y389247D01*
X4449189Y397812D01*
X4444500Y398429D01*
Y299999D01*
Y201570D01*
X4449189Y202188D01*
X4469867Y210753D01*
X4479102Y217839D01*
X4485743Y216742D01*
X4505589Y203481D01*
X4529000Y198825D01*
X4579000D01*
X4602411Y203481D01*
X4622257Y216743D01*
X4635519Y236589D01*
X4640175Y260000D01*
Y340000D01*
X4635519Y363411D01*
X4622257Y383257D01*
X4602411Y396519D01*
X4579000Y401175D01*
D02*
G37*
G36*
X4300000Y400733D02*
X4277811Y397812D01*
X4257133Y389247D01*
X4245831Y380575D01*
X4236500Y376790D01*
X4227169Y380575D01*
X4215867Y389247D01*
X4195189Y397812D01*
X4173000Y400733D01*
X4150811Y397812D01*
X4130133Y389247D01*
X4118831Y380575D01*
X4109500Y376790D01*
X4100169Y380575D01*
X4088867Y389247D01*
X4068189Y397812D01*
X4046000Y400733D01*
X4023811Y397812D01*
X4003133Y389247D01*
X3985377Y375623D01*
X3971753Y357866D01*
X3963188Y337189D01*
X3960267Y315000D01*
Y285000D01*
X3963188Y262810D01*
X3971753Y242133D01*
X3985377Y224377D01*
X4003133Y210753D01*
X4023811Y202188D01*
X4046000Y199267D01*
X4068189Y202188D01*
X4088867Y210753D01*
X4100169Y219425D01*
X4109500Y223210D01*
X4118831Y219425D01*
X4130133Y210753D01*
X4150811Y202188D01*
X4173000Y199267D01*
X4195189Y202188D01*
X4215867Y210753D01*
X4227169Y219425D01*
X4236500Y223210D01*
X4245831Y219425D01*
X4257133Y210753D01*
X4277811Y202188D01*
X4300000Y199267D01*
X4322189Y202188D01*
X4342867Y210753D01*
X4354169Y219425D01*
X4363500Y223210D01*
X4372831Y219425D01*
X4384133Y210753D01*
X4404811Y202188D01*
X4409500Y201570D01*
Y299999D01*
Y398429D01*
X4404811Y397812D01*
X4384133Y389247D01*
X4372831Y380575D01*
X4363500Y376790D01*
X4354169Y380575D01*
X4342867Y389247D01*
X4322189Y397812D01*
X4300000Y400733D01*
D02*
G37*
G36*
X4943440Y1035000D02*
X4921560D01*
X4901345Y1026627D01*
X4885873Y1011155D01*
X4877500Y990940D01*
Y969060D01*
X4885873Y948845D01*
X4901345Y933374D01*
X4907870Y930671D01*
X4939021Y899520D01*
Y757500D01*
X4942901Y737991D01*
X4953952Y721452D01*
X5291452Y383952D01*
X5307990Y372901D01*
X5327500Y369021D01*
X5349354D01*
X5359060Y365000D01*
X5380940D01*
X5390646Y369021D01*
X5611864D01*
X5631373Y372901D01*
X5647911Y383952D01*
X5697979Y434020D01*
X5914889D01*
X5934957Y413952D01*
X5939462Y410942D01*
X5951853Y398551D01*
X5955874Y388845D01*
X5971345Y373373D01*
X5991560Y365000D01*
X6013440D01*
X6023146Y369021D01*
X6227443D01*
X6246952Y372901D01*
X6263491Y383952D01*
X6360714Y481176D01*
X6516728D01*
X6599353Y398551D01*
X6603373Y388845D01*
X6618845Y373373D01*
X6639060Y365000D01*
X6660940D01*
X6681155Y373373D01*
X6696626Y388845D01*
X6705000Y409060D01*
Y430940D01*
X6696626Y451155D01*
X6684828Y462953D01*
X6681807Y469172D01*
X6684337Y479055D01*
X6694874Y489592D01*
X6703247Y509807D01*
Y531687D01*
X6694874Y551902D01*
X6679402Y567374D01*
X6669696Y571394D01*
X6627542Y613548D01*
X6611004Y624599D01*
X6591495Y628480D01*
X6300000D01*
X6280491Y624599D01*
X6263952Y613548D01*
X6221384Y570980D01*
X6021116D01*
X5986048Y606048D01*
X5969509Y617099D01*
X5950000Y620979D01*
X5698224D01*
X5678715Y617099D01*
X5662176Y606048D01*
X5627108Y570980D01*
X5390646D01*
X5380940Y575000D01*
X5359060D01*
X5338845Y566627D01*
X5323373Y551155D01*
X5315000Y530940D01*
Y522556D01*
X5302300Y517296D01*
X5098987Y720608D01*
X5101770Y735787D01*
X5109911Y740487D01*
X5122013Y752589D01*
X5130570Y767411D01*
X5135000Y783943D01*
Y801058D01*
X5130570Y817589D01*
X5122013Y832411D01*
X5109911Y844513D01*
X5095089Y853070D01*
X5078558Y857500D01*
X5061443D01*
X5053680Y855420D01*
X5040980Y864843D01*
Y920636D01*
X5037099Y940145D01*
X5026048Y956684D01*
X4984465Y998268D01*
X4979126Y1011155D01*
X4963655Y1026627D01*
X4943440Y1035000D01*
D02*
G37*
G36*
X3136436Y455299D02*
X3114556D01*
X3094342Y446925D01*
X3078870Y431454D01*
X3070497Y411239D01*
Y393034D01*
X2913442Y235979D01*
X2793146D01*
X2783440Y240000D01*
X2761560D01*
X2741345Y231626D01*
X2725873Y216155D01*
X2717500Y195940D01*
Y174060D01*
X2725873Y153845D01*
X2741345Y138373D01*
X2761560Y130000D01*
X2783440D01*
X2793146Y134020D01*
X2934558D01*
X2954067Y137901D01*
X2970606Y148952D01*
X3159631Y337977D01*
X3170682Y354516D01*
X3174563Y374025D01*
Y375034D01*
X3180496Y389359D01*
Y411239D01*
X3172123Y431454D01*
X3156651Y446925D01*
X3136436Y455299D01*
D02*
G37*
G36*
X352500Y285000D02*
X352227D01*
X317892Y275800D01*
X287108Y258027D01*
X261973Y232892D01*
X244200Y202108D01*
X235000Y167773D01*
Y167500D01*
X352500D01*
Y285000D01*
D02*
G37*
%LPD*%
D38*
X2060000Y340000D02*
X2289998Y569998D01*
X1162500Y340000D02*
X2060000D01*
X2026863Y825000D02*
X2137500D01*
X1153505Y430000D02*
X1404363D01*
X1636863Y435000D02*
X2026863Y825000D01*
X1066005Y342500D02*
X1153505Y430000D01*
X1404363D02*
X1409363Y435000D01*
X1636863D01*
X972500Y342500D02*
X1066005D01*
X1701431Y1630071D02*
Y1670071D01*
X2021360Y1990000D01*
X2330000D02*
X2685000Y2345000D01*
X2021360Y1990000D02*
X2330000D01*
X2685000Y2345000D02*
X2795000D01*
X1746431Y1651432D02*
X2040000Y1945000D01*
X2420000D01*
X2723087Y2248087D01*
X6178750Y1160000D02*
X6251250Y1232500D01*
X5997500Y1160000D02*
X6178750D01*
X5932500Y1225000D02*
X5997500Y1160000D01*
X5931005Y1225000D02*
X5932500D01*
X5375000Y1160000D02*
X5597500D01*
X5690000Y1252500D02*
X5903505D01*
X5597500Y1160000D02*
X5690000Y1252500D01*
X5401841Y1938039D02*
X5562467D01*
X5661928Y2037500D01*
X5925248D01*
X5370000Y420000D02*
X5611864D01*
X5327500D02*
X5370000D01*
X4932500Y978136D02*
Y980000D01*
Y978136D02*
X4990000Y920636D01*
Y757500D02*
Y920636D01*
X1190000Y1545000D02*
X1322500Y1412500D01*
X1483861D01*
X1187500Y1327500D02*
X1227500Y1367500D01*
X1502500D01*
X6300000Y577500D02*
X6591495D01*
X6648247Y520747D01*
X6582841Y1994659D02*
X6638087Y1939413D01*
X6548700Y1994659D02*
X6582841D01*
X6548360Y1995000D02*
X6548700Y1994659D01*
X6269779Y1995000D02*
X6548360D01*
X6214780Y1940000D02*
X6269779Y1995000D01*
X5903505Y1252500D02*
X5931005Y1225000D01*
X6173984Y1260000D02*
X6246484Y1332500D01*
X5690000Y1317500D02*
X5962500D01*
X6020000Y1260000D01*
X6173984D01*
X5950000Y2037500D02*
X6042500Y1945000D01*
X5925249Y2037500D02*
X5950000D01*
X5925248Y2037500D02*
X5925249Y2037500D01*
X6050000Y2040000D02*
X6251140D01*
X6048087Y2041913D02*
X6050000Y2040000D01*
X6035381Y2041913D02*
X6048087D01*
X5977294Y2100000D02*
X6035381Y2041913D01*
X6251140Y2040000D02*
X6291140Y2080000D01*
X6272500Y2832500D02*
X6575000D01*
X6005000Y2775000D02*
X6030000Y2750000D01*
X6190000D01*
X6272500Y2832500D01*
X6002294Y2775000D02*
X6005000D01*
X6277744Y2757744D02*
X6550761D01*
X6201913Y2681913D02*
X6277744Y2757744D01*
X6019413Y2681913D02*
X6201913D01*
X6015587D02*
X6017500Y2680000D01*
X5662500Y2822500D02*
X5954794D01*
X5397500Y2780000D02*
X5620000D01*
X5662500Y2822500D01*
X5405000Y2682500D02*
X5597500D01*
X5667499Y2752499D02*
X5922294D01*
X5597500Y2682500D02*
X5667499Y2752499D01*
X5588661Y2040000D02*
X5648661Y2100000D01*
X5977294D01*
X5372500Y1260000D02*
X5632500D01*
X5690000Y1317500D01*
X6000000Y520000D02*
X6242500D01*
X6300000Y577500D01*
X5950000Y570000D02*
X6000000Y520000D01*
X6339598Y532155D02*
X6537845D01*
X6227443Y420000D02*
X6339598Y532155D01*
X6002500Y420000D02*
X6227443D01*
X6246484Y1332500D02*
X6570000D01*
X6251250Y1232500D02*
X6571005D01*
X6598897Y2080000D02*
X6638310Y2040587D01*
X6291140Y2080000D02*
X6598897D01*
X4990000Y757500D02*
X5327500Y420000D01*
X5370000Y520000D02*
X5648224D01*
X5698224Y570000D01*
X5950000D01*
X5611864Y420000D02*
X5676863Y485000D01*
X5936005D01*
X5971005Y450000D01*
X5922294Y2752499D02*
X5992881Y2681913D01*
X6638310Y2040587D02*
X6641016D01*
X2772500Y185000D02*
X2934558D01*
X3123583Y374025D01*
X3742500Y1680000D02*
Y1749794D01*
X3327500Y2164794D02*
X3742500Y1749794D01*
X4808087Y1349619D02*
X4810001Y1347706D01*
X4801016Y1349619D02*
X4808087D01*
X4798135Y1352500D02*
X4801016Y1349619D01*
X3977500Y1352500D02*
X4798135D01*
X4172500Y1922500D02*
X4305000Y2055000D01*
X4145438Y1922500D02*
X4172500D01*
X4305000Y2055000D02*
Y2122500D01*
X3725969Y1503031D02*
X4145438Y1922500D01*
X3192500Y1887500D02*
Y2212500D01*
X1502500Y1367500D02*
X1746431Y1611431D01*
Y1651432D01*
X6550761Y2757744D02*
X6601005Y2707500D01*
X5992881Y2681913D02*
X6015587D01*
X6602500Y2707500D02*
X6630000Y2680000D01*
X6601005Y2707500D02*
X6602500D01*
X6575000Y2832500D02*
X6630000Y2777500D01*
X5954794Y2822500D02*
X6002294Y2775000D01*
X6571005Y1232500D02*
X6641005Y1162500D01*
X6570000Y1332500D02*
X6640000Y1262500D01*
X5971005Y450000D02*
X5972500D01*
X6002500Y420000D01*
X6537845Y532155D02*
X6650000Y420000D01*
X2540000Y1850000D02*
X3270000Y1120000D01*
X3820637D01*
X2723087Y2248087D02*
Y2264092D01*
X2725000Y2266005D01*
X3846223Y730587D02*
X3860587D01*
X3862500Y732500D01*
X3165282Y712500D02*
X3828137D01*
X3846223Y730587D01*
X3022782Y570000D02*
X3165282Y712500D01*
X2675000Y1880000D02*
Y1882500D01*
Y1880000D02*
X3390000Y1165000D01*
X3839276D01*
X4300000Y492500D02*
Y704276D01*
X3839276Y1165000D02*
X4300000Y704276D01*
X4157426Y1000000D02*
X4392500D01*
X3727426Y1430000D02*
X4157426Y1000000D01*
X3725000Y1430000D02*
X3727426D01*
X4173000Y490000D02*
Y767637D01*
X3820637Y1120000D02*
X4173000Y767637D01*
X3850000Y937500D02*
X3854521Y932979D01*
X3866653D01*
X3292500Y937500D02*
X3850000D01*
X3866653Y932979D02*
X3868566Y931066D01*
X3848137Y852500D02*
X3895000D01*
X3818137Y882500D02*
X3848137Y852500D01*
X3485000Y882500D02*
X3818137D01*
X3407500Y805000D02*
X3485000Y882500D01*
X2990000Y635000D02*
X3292500Y937500D01*
X5402500Y2040000D02*
X5588661D01*
X6050206Y1940000D02*
X6214780D01*
X6045206Y1945000D02*
X6050206Y1940000D01*
X2462706Y570000D02*
X3022782D01*
X2455000Y565000D02*
X2457706D01*
X2462706Y570000D01*
X2209487Y709487D02*
Y1288087D01*
X1967500Y467500D02*
X2209487Y709487D01*
X2289998Y569998D02*
Y939999D01*
X1483861Y1412500D02*
X1701431Y1630071D01*
X2289998Y939999D02*
X2600000Y1250000D01*
X679573Y1042573D02*
X679999Y1043000D01*
X552573Y1042573D02*
X679573D01*
X310000Y800000D02*
X552573Y1042573D01*
X2932500Y635000D02*
X2990000D01*
X2470009Y635000D02*
X2932500D01*
X2932500Y635000D01*
X2466982Y638027D02*
X2470009Y635000D01*
X2459911Y638027D02*
X2466982D01*
X2457998Y639940D02*
X2459911Y638027D01*
X3123583Y374025D02*
Y398386D01*
X3125496Y400299D01*
D44*
X2060000Y1495000D02*
D03*
Y1749000D02*
D03*
X900000Y2800000D02*
D03*
X680000Y535000D02*
D03*
Y789000D02*
D03*
X679999Y1043000D02*
D03*
X1386000Y150000D02*
D03*
X878000D02*
D03*
X370000D02*
D03*
X624000D02*
D03*
X1132000D02*
D03*
D45*
X4554000Y300000D02*
D03*
D46*
X4173000D02*
D03*
X4300000D02*
D03*
X4046000D02*
D03*
X4427000D02*
D03*
D47*
X4310000Y2690000D02*
D03*
X4320000Y2422500D02*
D03*
X990000Y447500D02*
D03*
X1482500Y570000D02*
D03*
X1342500Y520000D02*
D03*
X955000Y522500D02*
D03*
X1072500Y552500D02*
D03*
X885000Y552500D02*
D03*
X2150000Y2110000D02*
D03*
X4962500Y2585000D02*
D03*
Y317500D02*
D03*
X5710000Y1147500D02*
D03*
X5705000Y1922500D02*
D03*
X6255000Y1830000D02*
D03*
X6347500Y1915000D02*
D03*
X5048750Y403750D02*
D03*
X4707500Y392500D02*
D03*
X4802500Y305000D02*
D03*
X1270000Y567500D02*
D03*
X5697500Y2662500D02*
D03*
X5625863Y318933D02*
D03*
X6262500Y320000D02*
D03*
X6267500Y2580000D02*
D03*
X5617500D02*
D03*
X4985551Y1830000D02*
D03*
X5625455Y1832410D02*
D03*
X6347500Y1145000D02*
D03*
X6262500Y1055000D02*
D03*
X4985000Y1053087D02*
D03*
X5070000Y1130000D02*
D03*
X5630000Y1057500D02*
D03*
X3575000Y172500D02*
D03*
X4725000Y917500D02*
D03*
X3250000Y475000D02*
D03*
X5057500Y2662500D02*
D03*
X4810000Y1812500D02*
D03*
X4560000Y1990000D02*
D03*
X4165000Y2080000D02*
D03*
X1817500Y1290000D02*
D03*
X2527500Y2342500D02*
D03*
X380370Y1479266D02*
D03*
X1212500Y807500D02*
D03*
X1828766Y1127500D02*
D03*
X1480000Y780000D02*
D03*
X1332500Y2347500D02*
D03*
X3230000Y2525000D02*
D03*
X3797500Y2127500D02*
D03*
X4752500Y2590000D02*
D03*
X2950000Y2205000D02*
D03*
X4067500Y2012500D02*
D03*
X2597500Y452500D02*
D03*
X6350000Y2667500D02*
D03*
Y2335000D02*
D03*
X6347500Y1580000D02*
D03*
X5072500Y1592500D02*
D03*
X5045000Y75000D02*
D03*
X5700000Y2337500D02*
D03*
X5068087Y1911243D02*
D03*
X6352500Y65000D02*
D03*
X5710000Y62500D02*
D03*
X6350000Y815000D02*
D03*
X5710000Y810000D02*
D03*
X5070000Y792500D02*
D03*
X5710000Y405000D02*
D03*
X6350000D02*
D03*
X3787500Y1040000D02*
D03*
X3575000Y550000D02*
D03*
X5710000Y1590000D02*
D03*
X5055000Y2327500D02*
D03*
X3795000Y792500D02*
D03*
X2077500Y135000D02*
D03*
X1780000Y465000D02*
D03*
X1872500Y815000D02*
D03*
X2455000Y2252500D02*
D03*
X2290000Y2250000D02*
D03*
X860000Y1480000D02*
D03*
X770000Y1380000D02*
D03*
X1206938Y1002006D02*
D03*
X1090000Y1710000D02*
D03*
X2070000Y920000D02*
D03*
Y1080000D02*
D03*
X1120000Y900000D02*
D03*
X4800454Y985492D02*
D03*
X3845000Y1850000D02*
D03*
X2725000Y485000D02*
D03*
D48*
X2137500Y825000D02*
D03*
X972500Y342500D02*
D03*
X1162500Y340000D02*
D03*
X5997500Y1160000D02*
D03*
X4932500Y980000D02*
D03*
X1190000Y1545000D02*
D03*
X1187500Y1327500D02*
D03*
X6020000Y1260000D02*
D03*
X6050000Y2040000D02*
D03*
X6648247Y520747D02*
D03*
X5370000Y420000D02*
D03*
X5370000Y520000D02*
D03*
X5372500Y1260000D02*
D03*
X5375000Y1160000D02*
D03*
X5401841Y1938039D02*
D03*
X5405000Y2682500D02*
D03*
X6641016Y2040587D02*
D03*
X2772500Y185000D02*
D03*
X3742500Y1680000D02*
D03*
X4305000Y2122500D02*
D03*
X3192500Y1887500D02*
D03*
Y2212500D02*
D03*
X2795000Y2345000D02*
D03*
X6017500Y2680000D02*
D03*
X6630000Y2777500D02*
D03*
X6630000Y2680000D02*
D03*
X6005000Y2775000D02*
D03*
X6642500Y1161005D02*
D03*
X6640000Y1262500D02*
D03*
X6000000Y520000D02*
D03*
X6002500Y420000D02*
D03*
X6650000D02*
D03*
X2725000Y2266005D02*
D03*
X3862500Y732500D02*
D03*
X2675000Y1882500D02*
D03*
X2540000Y1850000D02*
D03*
X3977500Y1352500D02*
D03*
X4300000Y492500D02*
D03*
X4173000Y490000D02*
D03*
X3868566Y931066D02*
D03*
X3895000Y852500D02*
D03*
X4392500Y1000000D02*
D03*
X5397500Y2780000D02*
D03*
X6042500Y1945000D02*
D03*
X6640000Y1937500D02*
D03*
X5402500Y2040000D02*
D03*
X3407500Y805000D02*
D03*
X2209487Y1288087D02*
D03*
X1967500Y467500D02*
D03*
X2600000Y1250000D02*
D03*
X310000Y800000D02*
D03*
X2457998Y639940D02*
D03*
X2455000Y565000D02*
D03*
X3727882Y1504944D02*
D03*
X4810001Y1347706D02*
D03*
X3725000Y1430000D02*
D03*
X3327500Y2164794D02*
D03*
X3125496Y400299D02*
D03*
D49*
X2657500Y2735000D02*
D03*
X2677500Y2564376D02*
D03*
X1375000Y1205000D02*
D03*
X1835000Y1425000D02*
D03*
X455000Y2297500D02*
D03*
X945000Y2300000D02*
D03*
X947500Y1997500D02*
D03*
X632500Y1600000D02*
D03*
%TF.MD5,05b2441dcb849acb3c774830b342ab52*%
M02*
