%TF.GenerationSoftware,Altium Limited,Altium Designer,23.7.1 (13)*%
G04 Layer_Color=8421504*
%FSLAX45Y45*%
%MOMM*%
%TF.SameCoordinates,130BD4C1-0636-47CB-9725-464FD0227ADF*%
%TF.FilePolarity,Positive*%
%TF.FileFunction,Paste,Top*%
%TF.Part,Single*%
G01*
G75*
%TA.AperFunction,SMDPad,CuDef*%
G04:AMPARAMS|DCode=10|XSize=0.8mm|YSize=0.8mm|CornerRadius=0.08mm|HoleSize=0mm|Usage=FLASHONLY|Rotation=90.000|XOffset=0mm|YOffset=0mm|HoleType=Round|Shape=RoundedRectangle|*
%AMROUNDEDRECTD10*
21,1,0.80000,0.64000,0,0,90.0*
21,1,0.64000,0.80000,0,0,90.0*
1,1,0.16000,0.32000,0.32000*
1,1,0.16000,0.32000,-0.32000*
1,1,0.16000,-0.32000,-0.32000*
1,1,0.16000,-0.32000,0.32000*
%
%ADD10ROUNDEDRECTD10*%
G04:AMPARAMS|DCode=11|XSize=0.3mm|YSize=1.45mm|CornerRadius=0.075mm|HoleSize=0mm|Usage=FLASHONLY|Rotation=90.000|XOffset=0mm|YOffset=0mm|HoleType=Round|Shape=RoundedRectangle|*
%AMROUNDEDRECTD11*
21,1,0.30000,1.30000,0,0,90.0*
21,1,0.15000,1.45000,0,0,90.0*
1,1,0.15000,0.65000,0.07500*
1,1,0.15000,0.65000,-0.07500*
1,1,0.15000,-0.65000,-0.07500*
1,1,0.15000,-0.65000,0.07500*
%
%ADD11ROUNDEDRECTD11*%
G04:AMPARAMS|DCode=12|XSize=0.3mm|YSize=1.45mm|CornerRadius=0.075mm|HoleSize=0mm|Usage=FLASHONLY|Rotation=180.000|XOffset=0mm|YOffset=0mm|HoleType=Round|Shape=RoundedRectangle|*
%AMROUNDEDRECTD12*
21,1,0.30000,1.30000,0,0,180.0*
21,1,0.15000,1.45000,0,0,180.0*
1,1,0.15000,-0.07500,0.65000*
1,1,0.15000,0.07500,0.65000*
1,1,0.15000,0.07500,-0.65000*
1,1,0.15000,-0.07500,-0.65000*
%
%ADD12ROUNDEDRECTD12*%
G04:AMPARAMS|DCode=13|XSize=0.8mm|YSize=0.8mm|CornerRadius=0.08mm|HoleSize=0mm|Usage=FLASHONLY|Rotation=0.000|XOffset=0mm|YOffset=0mm|HoleType=Round|Shape=RoundedRectangle|*
%AMROUNDEDRECTD13*
21,1,0.80000,0.64000,0,0,0.0*
21,1,0.64000,0.80000,0,0,0.0*
1,1,0.16000,0.32000,-0.32000*
1,1,0.16000,-0.32000,-0.32000*
1,1,0.16000,-0.32000,0.32000*
1,1,0.16000,0.32000,0.32000*
%
%ADD13ROUNDEDRECTD13*%
G04:AMPARAMS|DCode=14|XSize=0.575mm|YSize=0.35mm|CornerRadius=0.0875mm|HoleSize=0mm|Usage=FLASHONLY|Rotation=180.000|XOffset=0mm|YOffset=0mm|HoleType=Round|Shape=RoundedRectangle|*
%AMROUNDEDRECTD14*
21,1,0.57500,0.17500,0,0,180.0*
21,1,0.40000,0.35000,0,0,180.0*
1,1,0.17500,-0.20000,0.08750*
1,1,0.17500,0.20000,0.08750*
1,1,0.17500,0.20000,-0.08750*
1,1,0.17500,-0.20000,-0.08750*
%
%ADD14ROUNDEDRECTD14*%
G04:AMPARAMS|DCode=15|XSize=0.35mm|YSize=0.575mm|CornerRadius=0.0875mm|HoleSize=0mm|Usage=FLASHONLY|Rotation=180.000|XOffset=0mm|YOffset=0mm|HoleType=Round|Shape=RoundedRectangle|*
%AMROUNDEDRECTD15*
21,1,0.35000,0.40000,0,0,180.0*
21,1,0.17500,0.57500,0,0,180.0*
1,1,0.17500,-0.08750,0.20000*
1,1,0.17500,0.08750,0.20000*
1,1,0.17500,0.08750,-0.20000*
1,1,0.17500,-0.08750,-0.20000*
%
%ADD15ROUNDEDRECTD15*%
G04:AMPARAMS|DCode=16|XSize=1.3mm|YSize=0.9mm|CornerRadius=0.09mm|HoleSize=0mm|Usage=FLASHONLY|Rotation=270.000|XOffset=0mm|YOffset=0mm|HoleType=Round|Shape=RoundedRectangle|*
%AMROUNDEDRECTD16*
21,1,1.30000,0.72000,0,0,270.0*
21,1,1.12000,0.90000,0,0,270.0*
1,1,0.18000,-0.36000,-0.56000*
1,1,0.18000,-0.36000,0.56000*
1,1,0.18000,0.36000,0.56000*
1,1,0.18000,0.36000,-0.56000*
%
%ADD16ROUNDEDRECTD16*%
G04:AMPARAMS|DCode=17|XSize=1.3mm|YSize=0.95mm|CornerRadius=0.095mm|HoleSize=0mm|Usage=FLASHONLY|Rotation=270.000|XOffset=0mm|YOffset=0mm|HoleType=Round|Shape=RoundedRectangle|*
%AMROUNDEDRECTD17*
21,1,1.30000,0.76000,0,0,270.0*
21,1,1.11000,0.95000,0,0,270.0*
1,1,0.19000,-0.38000,-0.55500*
1,1,0.19000,-0.38000,0.55500*
1,1,0.19000,0.38000,0.55500*
1,1,0.19000,0.38000,-0.55500*
%
%ADD17ROUNDEDRECTD17*%
G04:AMPARAMS|DCode=18|XSize=0.55mm|YSize=0.8mm|CornerRadius=0.055mm|HoleSize=0mm|Usage=FLASHONLY|Rotation=270.000|XOffset=0mm|YOffset=0mm|HoleType=Round|Shape=RoundedRectangle|*
%AMROUNDEDRECTD18*
21,1,0.55000,0.69000,0,0,270.0*
21,1,0.44000,0.80000,0,0,270.0*
1,1,0.11000,-0.34500,-0.22000*
1,1,0.11000,-0.34500,0.22000*
1,1,0.11000,0.34500,0.22000*
1,1,0.11000,0.34500,-0.22000*
%
%ADD18ROUNDEDRECTD18*%
G04:AMPARAMS|DCode=19|XSize=0.6mm|YSize=0.95mm|CornerRadius=0.06mm|HoleSize=0mm|Usage=FLASHONLY|Rotation=90.000|XOffset=0mm|YOffset=0mm|HoleType=Round|Shape=RoundedRectangle|*
%AMROUNDEDRECTD19*
21,1,0.60000,0.83000,0,0,90.0*
21,1,0.48000,0.95000,0,0,90.0*
1,1,0.12000,0.41500,0.24000*
1,1,0.12000,0.41500,-0.24000*
1,1,0.12000,-0.41500,-0.24000*
1,1,0.12000,-0.41500,0.24000*
%
%ADD19ROUNDEDRECTD19*%
G04:AMPARAMS|DCode=20|XSize=1.8mm|YSize=1.5mm|CornerRadius=0.15mm|HoleSize=0mm|Usage=FLASHONLY|Rotation=0.000|XOffset=0mm|YOffset=0mm|HoleType=Round|Shape=RoundedRectangle|*
%AMROUNDEDRECTD20*
21,1,1.80000,1.20000,0,0,0.0*
21,1,1.50000,1.50000,0,0,0.0*
1,1,0.30000,0.75000,-0.60000*
1,1,0.30000,-0.75000,-0.60000*
1,1,0.30000,-0.75000,0.60000*
1,1,0.30000,0.75000,0.60000*
%
%ADD20ROUNDEDRECTD20*%
G04:AMPARAMS|DCode=21|XSize=0.6mm|YSize=1mm|CornerRadius=0.15mm|HoleSize=0mm|Usage=FLASHONLY|Rotation=180.000|XOffset=0mm|YOffset=0mm|HoleType=Round|Shape=RoundedRectangle|*
%AMROUNDEDRECTD21*
21,1,0.60000,0.70000,0,0,180.0*
21,1,0.30000,1.00000,0,0,180.0*
1,1,0.30000,-0.15000,0.35000*
1,1,0.30000,0.15000,0.35000*
1,1,0.30000,0.15000,-0.35000*
1,1,0.30000,-0.15000,-0.35000*
%
%ADD21ROUNDEDRECTD21*%
G04:AMPARAMS|DCode=22|XSize=2.82mm|YSize=1.37mm|CornerRadius=0.0685mm|HoleSize=0mm|Usage=FLASHONLY|Rotation=0.000|XOffset=0mm|YOffset=0mm|HoleType=Round|Shape=RoundedRectangle|*
%AMROUNDEDRECTD22*
21,1,2.82000,1.23300,0,0,0.0*
21,1,2.68300,1.37000,0,0,0.0*
1,1,0.13700,1.34150,-0.61650*
1,1,0.13700,-1.34150,-0.61650*
1,1,0.13700,-1.34150,0.61650*
1,1,0.13700,1.34150,0.61650*
%
%ADD22ROUNDEDRECTD22*%
G04:AMPARAMS|DCode=23|XSize=1.1mm|YSize=0.45mm|CornerRadius=0.1125mm|HoleSize=0mm|Usage=FLASHONLY|Rotation=0.000|XOffset=0mm|YOffset=0mm|HoleType=Round|Shape=RoundedRectangle|*
%AMROUNDEDRECTD23*
21,1,1.10000,0.22500,0,0,0.0*
21,1,0.87500,0.45000,0,0,0.0*
1,1,0.22500,0.43750,-0.11250*
1,1,0.22500,-0.43750,-0.11250*
1,1,0.22500,-0.43750,0.11250*
1,1,0.22500,0.43750,0.11250*
%
%ADD23ROUNDEDRECTD23*%
G04:AMPARAMS|DCode=24|XSize=0.3mm|YSize=0.65mm|CornerRadius=0.03mm|HoleSize=0mm|Usage=FLASHONLY|Rotation=180.000|XOffset=0mm|YOffset=0mm|HoleType=Round|Shape=RoundedRectangle|*
%AMROUNDEDRECTD24*
21,1,0.30000,0.59000,0,0,180.0*
21,1,0.24000,0.65000,0,0,180.0*
1,1,0.06000,-0.12000,0.29500*
1,1,0.06000,0.12000,0.29500*
1,1,0.06000,0.12000,-0.29500*
1,1,0.06000,-0.12000,-0.29500*
%
%ADD24ROUNDEDRECTD24*%
G04:AMPARAMS|DCode=25|XSize=1.8mm|YSize=1.5mm|CornerRadius=0.15mm|HoleSize=0mm|Usage=FLASHONLY|Rotation=90.000|XOffset=0mm|YOffset=0mm|HoleType=Round|Shape=RoundedRectangle|*
%AMROUNDEDRECTD25*
21,1,1.80000,1.20000,0,0,90.0*
21,1,1.50000,1.50000,0,0,90.0*
1,1,0.30000,0.60000,0.75000*
1,1,0.30000,0.60000,-0.75000*
1,1,0.30000,-0.60000,-0.75000*
1,1,0.30000,-0.60000,0.75000*
%
%ADD25ROUNDEDRECTD25*%
%TA.AperFunction,ConnectorPad*%
G04:AMPARAMS|DCode=26|XSize=1.65mm|YSize=3.43mm|CornerRadius=0.165mm|HoleSize=0mm|Usage=FLASHONLY|Rotation=0.000|XOffset=0mm|YOffset=0mm|HoleType=Round|Shape=RoundedRectangle|*
%AMROUNDEDRECTD26*
21,1,1.65000,3.10000,0,0,0.0*
21,1,1.32000,3.43000,0,0,0.0*
1,1,0.33000,0.66000,-1.55000*
1,1,0.33000,-0.66000,-1.55000*
1,1,0.33000,-0.66000,1.55000*
1,1,0.33000,0.66000,1.55000*
%
%ADD26ROUNDEDRECTD26*%
G04:AMPARAMS|DCode=27|XSize=1.27mm|YSize=3.4mm|CornerRadius=0.127mm|HoleSize=0mm|Usage=FLASHONLY|Rotation=270.000|XOffset=0mm|YOffset=0mm|HoleType=Round|Shape=RoundedRectangle|*
%AMROUNDEDRECTD27*
21,1,1.27000,3.14600,0,0,270.0*
21,1,1.01600,3.40000,0,0,270.0*
1,1,0.25400,-1.57300,-0.50800*
1,1,0.25400,-1.57300,0.50800*
1,1,0.25400,1.57300,0.50800*
1,1,0.25400,1.57300,-0.50800*
%
%ADD27ROUNDEDRECTD27*%
%TA.AperFunction,SMDPad,CuDef*%
G04:AMPARAMS|DCode=28|XSize=1.9mm|YSize=1.9mm|CornerRadius=0.19mm|HoleSize=0mm|Usage=FLASHONLY|Rotation=270.000|XOffset=0mm|YOffset=0mm|HoleType=Round|Shape=RoundedRectangle|*
%AMROUNDEDRECTD28*
21,1,1.90000,1.52000,0,0,270.0*
21,1,1.52000,1.90000,0,0,270.0*
1,1,0.38000,-0.76000,-0.76000*
1,1,0.38000,-0.76000,0.76000*
1,1,0.38000,0.76000,0.76000*
1,1,0.38000,0.76000,-0.76000*
%
%ADD28ROUNDEDRECTD28*%
G04:AMPARAMS|DCode=29|XSize=0.4mm|YSize=1.35mm|CornerRadius=0.04mm|HoleSize=0mm|Usage=FLASHONLY|Rotation=270.000|XOffset=0mm|YOffset=0mm|HoleType=Round|Shape=RoundedRectangle|*
%AMROUNDEDRECTD29*
21,1,0.40000,1.27000,0,0,270.0*
21,1,0.32000,1.35000,0,0,270.0*
1,1,0.08000,-0.63500,-0.16000*
1,1,0.08000,-0.63500,0.16000*
1,1,0.08000,0.63500,0.16000*
1,1,0.08000,0.63500,-0.16000*
%
%ADD29ROUNDEDRECTD29*%
G04:AMPARAMS|DCode=30|XSize=0.6mm|YSize=0.5mm|CornerRadius=0.05mm|HoleSize=0mm|Usage=FLASHONLY|Rotation=180.000|XOffset=0mm|YOffset=0mm|HoleType=Round|Shape=RoundedRectangle|*
%AMROUNDEDRECTD30*
21,1,0.60000,0.40000,0,0,180.0*
21,1,0.50000,0.50000,0,0,180.0*
1,1,0.10000,-0.25000,0.20000*
1,1,0.10000,0.25000,0.20000*
1,1,0.10000,0.25000,-0.20000*
1,1,0.10000,-0.25000,-0.20000*
%
%ADD30ROUNDEDRECTD30*%
G04:AMPARAMS|DCode=31|XSize=1mm|YSize=0.9mm|CornerRadius=0.09mm|HoleSize=0mm|Usage=FLASHONLY|Rotation=180.000|XOffset=0mm|YOffset=0mm|HoleType=Round|Shape=RoundedRectangle|*
%AMROUNDEDRECTD31*
21,1,1.00000,0.72000,0,0,180.0*
21,1,0.82000,0.90000,0,0,180.0*
1,1,0.18000,-0.41000,0.36000*
1,1,0.18000,0.41000,0.36000*
1,1,0.18000,0.41000,-0.36000*
1,1,0.18000,-0.41000,-0.36000*
%
%ADD31ROUNDEDRECTD31*%
G04:AMPARAMS|DCode=32|XSize=0.6mm|YSize=0.5mm|CornerRadius=0.05mm|HoleSize=0mm|Usage=FLASHONLY|Rotation=90.000|XOffset=0mm|YOffset=0mm|HoleType=Round|Shape=RoundedRectangle|*
%AMROUNDEDRECTD32*
21,1,0.60000,0.40000,0,0,90.0*
21,1,0.50000,0.50000,0,0,90.0*
1,1,0.10000,0.20000,0.25000*
1,1,0.10000,0.20000,-0.25000*
1,1,0.10000,-0.20000,-0.25000*
1,1,0.10000,-0.20000,0.25000*
%
%ADD32ROUNDEDRECTD32*%
G04:AMPARAMS|DCode=33|XSize=1.1mm|YSize=1.2mm|CornerRadius=0.1375mm|HoleSize=0mm|Usage=FLASHONLY|Rotation=270.000|XOffset=0mm|YOffset=0mm|HoleType=Round|Shape=RoundedRectangle|*
%AMROUNDEDRECTD33*
21,1,1.10000,0.92500,0,0,270.0*
21,1,0.82500,1.20000,0,0,270.0*
1,1,0.27500,-0.46250,-0.41250*
1,1,0.27500,-0.46250,0.41250*
1,1,0.27500,0.46250,0.41250*
1,1,0.27500,0.46250,-0.41250*
%
%ADD33ROUNDEDRECTD33*%
%TA.AperFunction,ConnectorPad*%
G04:AMPARAMS|DCode=34|XSize=1.8mm|YSize=1.2mm|CornerRadius=0.12mm|HoleSize=0mm|Usage=FLASHONLY|Rotation=0.000|XOffset=0mm|YOffset=0mm|HoleType=Round|Shape=RoundedRectangle|*
%AMROUNDEDRECTD34*
21,1,1.80000,0.96000,0,0,0.0*
21,1,1.56000,1.20000,0,0,0.0*
1,1,0.24000,0.78000,-0.48000*
1,1,0.24000,-0.78000,-0.48000*
1,1,0.24000,-0.78000,0.48000*
1,1,0.24000,0.78000,0.48000*
%
%ADD34ROUNDEDRECTD34*%
G04:AMPARAMS|DCode=35|XSize=0.6mm|YSize=1.55mm|CornerRadius=0.06mm|HoleSize=0mm|Usage=FLASHONLY|Rotation=270.000|XOffset=0mm|YOffset=0mm|HoleType=Round|Shape=RoundedRectangle|*
%AMROUNDEDRECTD35*
21,1,0.60000,1.43000,0,0,270.0*
21,1,0.48000,1.55000,0,0,270.0*
1,1,0.12000,-0.71500,-0.24000*
1,1,0.12000,-0.71500,0.24000*
1,1,0.12000,0.71500,0.24000*
1,1,0.12000,0.71500,-0.24000*
%
%ADD35ROUNDEDRECTD35*%
%TA.AperFunction,SMDPad,CuDef*%
G04:AMPARAMS|DCode=36|XSize=0.6mm|YSize=1.55mm|CornerRadius=0.06mm|HoleSize=0mm|Usage=FLASHONLY|Rotation=270.000|XOffset=0mm|YOffset=0mm|HoleType=Round|Shape=RoundedRectangle|*
%AMROUNDEDRECTD36*
21,1,0.60000,1.43000,0,0,270.0*
21,1,0.48000,1.55000,0,0,270.0*
1,1,0.12000,-0.71500,-0.24000*
1,1,0.12000,-0.71500,0.24000*
1,1,0.12000,0.71500,0.24000*
1,1,0.12000,0.71500,-0.24000*
%
%ADD36ROUNDEDRECTD36*%
G04:AMPARAMS|DCode=37|XSize=1.8mm|YSize=1.2mm|CornerRadius=0.12mm|HoleSize=0mm|Usage=FLASHONLY|Rotation=0.000|XOffset=0mm|YOffset=0mm|HoleType=Round|Shape=RoundedRectangle|*
%AMROUNDEDRECTD37*
21,1,1.80000,0.96000,0,0,0.0*
21,1,1.56000,1.20000,0,0,0.0*
1,1,0.24000,0.78000,-0.48000*
1,1,0.24000,-0.78000,-0.48000*
1,1,0.24000,-0.78000,0.48000*
1,1,0.24000,0.78000,0.48000*
%
%ADD37ROUNDEDRECTD37*%
D10*
X2295000Y2150000D02*
D03*
X2455000D02*
D03*
X3270000Y325000D02*
D03*
X3430000D02*
D03*
Y200000D02*
D03*
X3270000D02*
D03*
X3280000Y2305000D02*
D03*
X3440000D02*
D03*
X3797500Y2232500D02*
D03*
X3637500D02*
D03*
X4810001Y1707500D02*
D03*
X4650000D02*
D03*
X4810000Y1567500D02*
D03*
X4650000D02*
D03*
X4650000Y1432500D02*
D03*
X4810001D02*
D03*
X4152500Y852500D02*
D03*
X3992500D02*
D03*
X4557500Y1902500D02*
D03*
X4397500D02*
D03*
X4070000Y1902500D02*
D03*
X4230000D02*
D03*
X4577500Y2120000D02*
D03*
X4417500D02*
D03*
X2950000Y2300000D02*
D03*
X3110000D02*
D03*
X2062500Y1292500D02*
D03*
X1902500D02*
D03*
X1210000Y720000D02*
D03*
X1050000D02*
D03*
X2464999Y135000D02*
D03*
X2625000D02*
D03*
X2189999D02*
D03*
X2350000D02*
D03*
X2189999Y310000D02*
D03*
X2350000D02*
D03*
X2625000D02*
D03*
X2464999D02*
D03*
X3415000Y650000D02*
D03*
X3575000D02*
D03*
X3675000Y465000D02*
D03*
X3835000D02*
D03*
X4450000Y850000D02*
D03*
X4610000D02*
D03*
X4452500Y647500D02*
D03*
X4612500D02*
D03*
X3890000Y1615000D02*
D03*
X4050000D02*
D03*
X3990000Y647500D02*
D03*
X4150000D02*
D03*
D11*
X2377500Y1150000D02*
D03*
Y1200000D02*
D03*
Y1100000D02*
D03*
Y1300000D02*
D03*
Y1250000D02*
D03*
Y1550000D02*
D03*
Y1600000D02*
D03*
Y1400000D02*
D03*
Y1500000D02*
D03*
Y1450000D02*
D03*
Y1800000D02*
D03*
Y1850000D02*
D03*
Y1650000D02*
D03*
Y1750000D02*
D03*
Y1700000D02*
D03*
Y1350000D02*
D03*
X3522500Y1250000D02*
D03*
Y1100000D02*
D03*
Y1200000D02*
D03*
Y1150000D02*
D03*
Y1400000D02*
D03*
Y1350000D02*
D03*
Y1300000D02*
D03*
Y1600000D02*
D03*
Y1650000D02*
D03*
Y1450000D02*
D03*
Y1550000D02*
D03*
Y1500000D02*
D03*
Y1850000D02*
D03*
Y1700000D02*
D03*
Y1800000D02*
D03*
Y1750000D02*
D03*
D12*
X2775000Y902500D02*
D03*
X2675000D02*
D03*
X2725000D02*
D03*
X2625000D02*
D03*
X2575000D02*
D03*
X2825000Y2047500D02*
D03*
X2625000D02*
D03*
X2575000D02*
D03*
X2775000D02*
D03*
X2675000D02*
D03*
X2725000D02*
D03*
X3125000Y902500D02*
D03*
X3075000D02*
D03*
X3275000D02*
D03*
X3175000D02*
D03*
X3225000D02*
D03*
X2875000D02*
D03*
X2825000D02*
D03*
X3025000D02*
D03*
X2925000D02*
D03*
X2975000D02*
D03*
X3325000D02*
D03*
X3225000Y2047500D02*
D03*
X3125000D02*
D03*
X3175000D02*
D03*
X2925000D02*
D03*
X2875000D02*
D03*
X3075000D02*
D03*
X2975000D02*
D03*
X3025000D02*
D03*
X3275000D02*
D03*
X3325000D02*
D03*
D13*
X2060000Y2107500D02*
D03*
Y1947500D02*
D03*
X3755000Y2010000D02*
D03*
Y1850000D02*
D03*
X3700000Y795000D02*
D03*
Y955000D02*
D03*
X4192500Y1252500D02*
D03*
Y1092500D02*
D03*
X4317500Y1252500D02*
D03*
Y1092500D02*
D03*
X4467500Y1252500D02*
D03*
Y1092500D02*
D03*
X4222500Y2620001D02*
D03*
Y2460000D02*
D03*
X4022500Y2620001D02*
D03*
Y2460000D02*
D03*
X3355000Y2685000D02*
D03*
Y2525000D02*
D03*
X3022500Y2455000D02*
D03*
Y2615000D02*
D03*
X2627500Y2245000D02*
D03*
Y2405000D02*
D03*
X2550000Y2680000D02*
D03*
Y2520000D02*
D03*
X1872500Y715000D02*
D03*
Y555000D02*
D03*
X2175000Y1080000D02*
D03*
Y920000D02*
D03*
X1180000Y1710000D02*
D03*
Y1870000D02*
D03*
X1175000Y2205000D02*
D03*
Y2045000D02*
D03*
X1225000Y2520000D02*
D03*
Y2680000D02*
D03*
X625000Y1480000D02*
D03*
Y1320000D02*
D03*
X475000D02*
D03*
Y1480000D02*
D03*
X3100000Y570000D02*
D03*
Y730000D02*
D03*
X3250000Y570000D02*
D03*
Y730000D02*
D03*
X3725000Y300000D02*
D03*
Y140000D02*
D03*
X5710000Y1060000D02*
D03*
Y900000D02*
D03*
X5070000Y1050000D02*
D03*
Y890000D02*
D03*
X5050000Y320000D02*
D03*
Y160000D02*
D03*
X5710000D02*
D03*
Y320000D02*
D03*
X6350000D02*
D03*
Y160000D02*
D03*
Y1060000D02*
D03*
Y900000D02*
D03*
Y1830000D02*
D03*
Y1670000D02*
D03*
X5710000Y1832500D02*
D03*
Y1672500D02*
D03*
X6350000Y2580000D02*
D03*
Y2420000D02*
D03*
X5700000Y2580000D02*
D03*
Y2420000D02*
D03*
X5057500Y2425000D02*
D03*
Y2585000D02*
D03*
X5070000Y1670000D02*
D03*
Y1830000D02*
D03*
D14*
X4431250Y1562500D02*
D03*
Y1612500D02*
D03*
Y1512500D02*
D03*
Y1662500D02*
D03*
X4198750D02*
D03*
Y1562500D02*
D03*
Y1612500D02*
D03*
Y1512500D02*
D03*
D15*
X4315000Y1678750D02*
D03*
X4265000D02*
D03*
X4365000D02*
D03*
X4265000Y1496250D02*
D03*
X4365000D02*
D03*
X4315000D02*
D03*
D16*
X3965000Y2230000D02*
D03*
X1635000Y447500D02*
D03*
X1730000Y1127500D02*
D03*
X2585000Y630000D02*
D03*
D17*
X4155000Y2230000D02*
D03*
X1445000Y447500D02*
D03*
X1540000Y1127500D02*
D03*
X2775000Y630000D02*
D03*
D18*
X4657500Y2460000D02*
D03*
Y2590000D02*
D03*
X4442500Y2525000D02*
D03*
D19*
X3625000Y2650000D02*
D03*
Y2460000D02*
D03*
X3860000Y2555000D02*
D03*
D20*
X2350000Y2750000D02*
D03*
Y2450000D02*
D03*
X2100000Y2750000D02*
D03*
Y2450000D02*
D03*
X1850000Y2750000D02*
D03*
Y2450000D02*
D03*
D21*
X1430000Y2735000D02*
D03*
X1525000D02*
D03*
X1620000D02*
D03*
Y2465000D02*
D03*
X1430000D02*
D03*
X1525000D02*
D03*
X1575000Y645000D02*
D03*
X1385000D02*
D03*
Y915000D02*
D03*
X1575000D02*
D03*
X1480000D02*
D03*
D22*
X1525000Y1933000D02*
D03*
Y2217000D02*
D03*
D23*
X2070000Y697500D02*
D03*
Y632500D02*
D03*
Y567500D02*
D03*
Y502500D02*
D03*
X2330000D02*
D03*
Y567500D02*
D03*
Y632500D02*
D03*
Y697500D02*
D03*
D24*
X1730000Y700000D02*
D03*
Y840000D02*
D03*
D25*
X1675000Y1425000D02*
D03*
X1375000D02*
D03*
X1675000Y1675000D02*
D03*
X1375000D02*
D03*
D26*
X150000Y2689500D02*
D03*
Y1610500D02*
D03*
D27*
X700000Y2000000D02*
D03*
Y2300000D02*
D03*
D28*
X145000Y680000D02*
D03*
Y920000D02*
D03*
Y1195000D02*
D03*
Y405000D02*
D03*
D29*
X412500Y930000D02*
D03*
Y865000D02*
D03*
Y800000D02*
D03*
Y735000D02*
D03*
Y670000D02*
D03*
D30*
X860000Y1240000D02*
D03*
Y1380000D02*
D03*
X1072500Y480000D02*
D03*
Y340000D02*
D03*
X882500Y342500D02*
D03*
Y482500D02*
D03*
X1270000Y340000D02*
D03*
Y480000D02*
D03*
X4800000Y777500D02*
D03*
Y917500D02*
D03*
X4802500Y530000D02*
D03*
Y390000D02*
D03*
D31*
X1015000Y1245000D02*
D03*
Y1455000D02*
D03*
X1185000D02*
D03*
Y1245000D02*
D03*
D32*
X1120000Y1000000D02*
D03*
X980000D02*
D03*
D33*
X3030000Y190000D02*
D03*
X2870000D02*
D03*
Y410000D02*
D03*
X3030000D02*
D03*
D34*
X5486250Y650000D02*
D03*
Y90000D02*
D03*
X6126250D02*
D03*
Y650000D02*
D03*
X6766250Y90000D02*
D03*
Y650000D02*
D03*
X6126250Y2350000D02*
D03*
Y2910000D02*
D03*
X6766250Y2350000D02*
D03*
Y2910000D02*
D03*
X5486250D02*
D03*
Y2350000D02*
D03*
D35*
X5233750Y420000D02*
D03*
Y520000D02*
D03*
Y220000D02*
D03*
Y320000D02*
D03*
X5873750D02*
D03*
Y220000D02*
D03*
Y520000D02*
D03*
Y420000D02*
D03*
X6513750Y320000D02*
D03*
Y220000D02*
D03*
Y520000D02*
D03*
Y420000D02*
D03*
X5873750Y2580000D02*
D03*
Y2480000D02*
D03*
Y2780000D02*
D03*
Y2680000D02*
D03*
X6513750Y2580000D02*
D03*
Y2480000D02*
D03*
Y2780000D02*
D03*
Y2680000D02*
D03*
X5233750D02*
D03*
Y2780000D02*
D03*
Y2480000D02*
D03*
Y2580000D02*
D03*
D36*
X5873750Y1060000D02*
D03*
Y960000D02*
D03*
Y1260000D02*
D03*
Y1160000D02*
D03*
X6513750Y1060000D02*
D03*
Y960000D02*
D03*
Y1260000D02*
D03*
Y1160000D02*
D03*
Y1840000D02*
D03*
Y1740000D02*
D03*
Y2040000D02*
D03*
Y1940000D02*
D03*
X5233750Y1160000D02*
D03*
Y1260000D02*
D03*
Y960000D02*
D03*
Y1060000D02*
D03*
X5873750Y1940000D02*
D03*
Y2040000D02*
D03*
Y1740000D02*
D03*
Y1840000D02*
D03*
X5233750Y1940000D02*
D03*
Y2040000D02*
D03*
Y1740000D02*
D03*
Y1840000D02*
D03*
D37*
X6126250Y830000D02*
D03*
Y1390000D02*
D03*
X6766250Y830000D02*
D03*
Y1390000D02*
D03*
Y1610000D02*
D03*
Y2170000D02*
D03*
X5486250Y1390000D02*
D03*
Y830000D02*
D03*
X6126250Y2170000D02*
D03*
Y1610000D02*
D03*
X5486250Y2170000D02*
D03*
Y1610000D02*
D03*
%TF.MD5,dbc672191e8cd07129e0b80eb21875ae*%
M02*
