%TF.GenerationSoftware,Altium Limited,Altium Designer,23.7.1 (13)*%
G04 Layer_Color=65535*
%FSLAX45Y45*%
%MOMM*%
%TF.SameCoordinates,0A3F61FF-30B4-451A-A2EB-F0EB8CF3D454*%
%TF.FilePolarity,Positive*%
%TF.FileFunction,Legend,Top*%
%TF.Part,Single*%
G01*
G75*
%TA.AperFunction,NonConductor*%
%ADD36C,0.30000*%
%ADD37C,0.25000*%
%ADD38C,0.40000*%
%ADD39C,0.25400*%
%ADD40C,0.20000*%
%ADD41C,0.15000*%
D36*
X8815000Y6100500D02*
G03*
X8815000Y6100500I-15000J0D01*
G01*
D37*
X8812501Y7310000D02*
G03*
X8812501Y7310000I-12500J0D01*
G01*
X8920001Y7292500D02*
G03*
X8920001Y7292500I-5000J0D01*
G01*
X7795001Y6997500D02*
G03*
X7795001Y6997500I-5000J0D01*
G01*
X8060000Y7312500D02*
G03*
X8060000Y7312500I-12500J0D01*
G01*
X7707500Y5755000D02*
G03*
X7707500Y5755000I-12500J0D01*
G01*
X7280001Y6727500D02*
G03*
X7280001Y6727500I-12500J0D01*
G01*
X7795001Y7222500D02*
G03*
X7795001Y7222500I-5000J0D01*
G01*
D38*
X8270000Y6000000D02*
G03*
X8270000Y6000000I-20000J0D01*
G01*
D39*
X8918681Y5550000D02*
G03*
X8918681Y5550000I-11180J0D01*
G01*
X8653780Y7091631D02*
X8755347Y6939280D01*
Y7091631D02*
X8653780Y6939280D01*
X8806131D02*
X8856914D01*
X8831523D01*
Y7091631D01*
X8806131Y7066239D01*
D40*
X8500000Y6500000D02*
Y6600000D01*
X7075001Y6550000D02*
X7175000D01*
X7075001Y6175000D02*
X7175000D01*
X8500000Y6250000D02*
Y6350000D01*
X8225000Y5825001D02*
Y5925000D01*
X8770001Y7130000D02*
Y7220000D01*
X8470001Y7130000D02*
Y7220000D01*
X8770001D01*
X8470001Y7130000D02*
X8770001D01*
X8150000Y7175000D02*
X8250000D01*
X7630000Y6570000D02*
Y6620000D01*
X7680000D01*
X8220000D02*
X8270000D01*
Y6570000D02*
Y6620000D01*
X7630000Y5980000D02*
X7680000D01*
X7630000D02*
Y6030000D01*
X7450000Y7375000D02*
X7550000D01*
X8250000D02*
Y7475000D01*
X8150000Y7375000D02*
X8250000D01*
X7450000Y7375000D02*
Y7475000D01*
X7785000Y5725000D02*
X7875000D01*
X7785000Y5425000D02*
X7875000D01*
X7785000D02*
Y5725000D01*
X7875000Y5425000D02*
Y5725000D01*
X8500000Y6625000D02*
Y6725000D01*
Y6375000D02*
Y6475000D01*
Y6750000D02*
Y6850000D01*
X7975001Y6950000D02*
X8075000D01*
X8425000Y6000000D02*
Y6100000D01*
X7425000Y6400000D02*
Y6500000D01*
X7350000Y5875000D02*
Y5975000D01*
X8585000Y5717500D02*
Y5782500D01*
X8865000Y5717500D02*
Y5782500D01*
X8725000Y6000001D02*
Y6100000D01*
Y5425001D02*
Y5525000D01*
X7342500Y6837500D02*
X7407501D01*
X7342500Y7012500D02*
X7407501D01*
D41*
X8520000Y7520000D02*
X8580000D01*
X8520000Y7630000D02*
X8580000D01*
X7120000Y5540001D02*
Y5600000D01*
X7230001Y5540001D02*
Y5600000D01*
X7320000Y6020000D02*
X7380000D01*
X7320000Y6130000D02*
X7380000D01*
X8095000Y5545000D02*
Y5605000D01*
X8205000Y5545000D02*
Y5605000D01*
X7395000Y5570000D02*
Y5630000D01*
X7505000Y5570000D02*
Y5630000D01*
%TF.MD5,e7e1cdedd642a21e65c0098c501262fe*%
M02*
