%TF.GenerationSoftware,Altium Limited,Altium Designer,23.7.1 (13)*%
G04 Layer_Color=8421504*
%FSLAX45Y45*%
%MOMM*%
%TF.SameCoordinates,0A3F61FF-30B4-451A-A2EB-F0EB8CF3D454*%
%TF.FilePolarity,Positive*%
%TF.FileFunction,Paste,Top*%
%TF.Part,Single*%
G01*
G75*
%TA.AperFunction,SMDPad,CuDef*%
G04:AMPARAMS|DCode=10|XSize=0.8mm|YSize=0.8mm|CornerRadius=0.08mm|HoleSize=0mm|Usage=FLASHONLY|Rotation=270.000|XOffset=0mm|YOffset=0mm|HoleType=Round|Shape=RoundedRectangle|*
%AMROUNDEDRECTD10*
21,1,0.80000,0.64000,0,0,270.0*
21,1,0.64000,0.80000,0,0,270.0*
1,1,0.16000,-0.32000,-0.32000*
1,1,0.16000,-0.32000,0.32000*
1,1,0.16000,0.32000,0.32000*
1,1,0.16000,0.32000,-0.32000*
%
%ADD10ROUNDEDRECTD10*%
G04:AMPARAMS|DCode=11|XSize=0.8mm|YSize=0.8mm|CornerRadius=0.08mm|HoleSize=0mm|Usage=FLASHONLY|Rotation=180.000|XOffset=0mm|YOffset=0mm|HoleType=Round|Shape=RoundedRectangle|*
%AMROUNDEDRECTD11*
21,1,0.80000,0.64000,0,0,180.0*
21,1,0.64000,0.80000,0,0,180.0*
1,1,0.16000,-0.32000,0.32000*
1,1,0.16000,0.32000,0.32000*
1,1,0.16000,0.32000,-0.32000*
1,1,0.16000,-0.32000,-0.32000*
%
%ADD11ROUNDEDRECTD11*%
G04:AMPARAMS|DCode=12|XSize=1.3mm|YSize=0.95mm|CornerRadius=0.095mm|HoleSize=0mm|Usage=FLASHONLY|Rotation=90.000|XOffset=0mm|YOffset=0mm|HoleType=Round|Shape=RoundedRectangle|*
%AMROUNDEDRECTD12*
21,1,1.30000,0.76000,0,0,90.0*
21,1,1.11000,0.95000,0,0,90.0*
1,1,0.19000,0.38000,0.55500*
1,1,0.19000,0.38000,-0.55500*
1,1,0.19000,-0.38000,-0.55500*
1,1,0.19000,-0.38000,0.55500*
%
%ADD12ROUNDEDRECTD12*%
G04:AMPARAMS|DCode=13|XSize=1.3mm|YSize=0.9mm|CornerRadius=0.09mm|HoleSize=0mm|Usage=FLASHONLY|Rotation=90.000|XOffset=0mm|YOffset=0mm|HoleType=Round|Shape=RoundedRectangle|*
%AMROUNDEDRECTD13*
21,1,1.30000,0.72000,0,0,90.0*
21,1,1.12000,0.90000,0,0,90.0*
1,1,0.18000,0.36000,0.56000*
1,1,0.18000,0.36000,-0.56000*
1,1,0.18000,-0.36000,-0.56000*
1,1,0.18000,-0.36000,0.56000*
%
%ADD13ROUNDEDRECTD13*%
G04:AMPARAMS|DCode=14|XSize=0.6mm|YSize=1mm|CornerRadius=0.15mm|HoleSize=0mm|Usage=FLASHONLY|Rotation=0.000|XOffset=0mm|YOffset=0mm|HoleType=Round|Shape=RoundedRectangle|*
%AMROUNDEDRECTD14*
21,1,0.60000,0.70000,0,0,0.0*
21,1,0.30000,1.00000,0,0,0.0*
1,1,0.30000,0.15000,-0.35000*
1,1,0.30000,-0.15000,-0.35000*
1,1,0.30000,-0.15000,0.35000*
1,1,0.30000,0.15000,0.35000*
%
%ADD14ROUNDEDRECTD14*%
G04:AMPARAMS|DCode=15|XSize=1.3mm|YSize=0.95mm|CornerRadius=0.095mm|HoleSize=0mm|Usage=FLASHONLY|Rotation=0.000|XOffset=0mm|YOffset=0mm|HoleType=Round|Shape=RoundedRectangle|*
%AMROUNDEDRECTD15*
21,1,1.30000,0.76000,0,0,0.0*
21,1,1.11000,0.95000,0,0,0.0*
1,1,0.19000,0.55500,-0.38000*
1,1,0.19000,-0.55500,-0.38000*
1,1,0.19000,-0.55500,0.38000*
1,1,0.19000,0.55500,0.38000*
%
%ADD15ROUNDEDRECTD15*%
G04:AMPARAMS|DCode=16|XSize=1.3mm|YSize=0.9mm|CornerRadius=0.09mm|HoleSize=0mm|Usage=FLASHONLY|Rotation=0.000|XOffset=0mm|YOffset=0mm|HoleType=Round|Shape=RoundedRectangle|*
%AMROUNDEDRECTD16*
21,1,1.30000,0.72000,0,0,0.0*
21,1,1.12000,0.90000,0,0,0.0*
1,1,0.18000,0.56000,-0.36000*
1,1,0.18000,-0.56000,-0.36000*
1,1,0.18000,-0.56000,0.36000*
1,1,0.18000,0.56000,0.36000*
%
%ADD16ROUNDEDRECTD16*%
G04:AMPARAMS|DCode=17|XSize=0.6mm|YSize=0.5mm|CornerRadius=0.05mm|HoleSize=0mm|Usage=FLASHONLY|Rotation=0.000|XOffset=0mm|YOffset=0mm|HoleType=Round|Shape=RoundedRectangle|*
%AMROUNDEDRECTD17*
21,1,0.60000,0.40000,0,0,0.0*
21,1,0.50000,0.50000,0,0,0.0*
1,1,0.10000,0.25000,-0.20000*
1,1,0.10000,-0.25000,-0.20000*
1,1,0.10000,-0.25000,0.20000*
1,1,0.10000,0.25000,0.20000*
%
%ADD17ROUNDEDRECTD17*%
G04:AMPARAMS|DCode=18|XSize=0.4mm|YSize=0.48mm|CornerRadius=0.04mm|HoleSize=0mm|Usage=FLASHONLY|Rotation=0.000|XOffset=0mm|YOffset=0mm|HoleType=Round|Shape=RoundedRectangle|*
%AMROUNDEDRECTD18*
21,1,0.40000,0.40000,0,0,0.0*
21,1,0.32000,0.48000,0,0,0.0*
1,1,0.08000,0.16000,-0.20000*
1,1,0.08000,-0.16000,-0.20000*
1,1,0.08000,-0.16000,0.20000*
1,1,0.08000,0.16000,0.20000*
%
%ADD18ROUNDEDRECTD18*%
%ADD19R,4.10000X4.10000*%
G04:AMPARAMS|DCode=20|XSize=0.28mm|YSize=0.8mm|CornerRadius=0.07mm|HoleSize=0mm|Usage=FLASHONLY|Rotation=90.000|XOffset=0mm|YOffset=0mm|HoleType=Round|Shape=RoundedRectangle|*
%AMROUNDEDRECTD20*
21,1,0.28000,0.66000,0,0,90.0*
21,1,0.14000,0.80000,0,0,90.0*
1,1,0.14000,0.33000,0.07000*
1,1,0.14000,0.33000,-0.07000*
1,1,0.14000,-0.33000,-0.07000*
1,1,0.14000,-0.33000,0.07000*
%
%ADD20ROUNDEDRECTD20*%
G04:AMPARAMS|DCode=21|XSize=0.28mm|YSize=0.8mm|CornerRadius=0.07mm|HoleSize=0mm|Usage=FLASHONLY|Rotation=0.000|XOffset=0mm|YOffset=0mm|HoleType=Round|Shape=RoundedRectangle|*
%AMROUNDEDRECTD21*
21,1,0.28000,0.66000,0,0,0.0*
21,1,0.14000,0.80000,0,0,0.0*
1,1,0.14000,0.07000,-0.33000*
1,1,0.14000,-0.07000,-0.33000*
1,1,0.14000,-0.07000,0.33000*
1,1,0.14000,0.07000,0.33000*
%
%ADD21ROUNDEDRECTD21*%
G04:AMPARAMS|DCode=22|XSize=1.9mm|YSize=1.9mm|CornerRadius=0.19mm|HoleSize=0mm|Usage=FLASHONLY|Rotation=180.000|XOffset=0mm|YOffset=0mm|HoleType=Round|Shape=RoundedRectangle|*
%AMROUNDEDRECTD22*
21,1,1.90000,1.52000,0,0,180.0*
21,1,1.52000,1.90000,0,0,180.0*
1,1,0.38000,-0.76000,0.76000*
1,1,0.38000,0.76000,0.76000*
1,1,0.38000,0.76000,-0.76000*
1,1,0.38000,-0.76000,-0.76000*
%
%ADD22ROUNDEDRECTD22*%
%TA.AperFunction,ConnectorPad*%
G04:AMPARAMS|DCode=23|XSize=0.4mm|YSize=1.35mm|CornerRadius=0.04mm|HoleSize=0mm|Usage=FLASHONLY|Rotation=180.000|XOffset=0mm|YOffset=0mm|HoleType=Round|Shape=RoundedRectangle|*
%AMROUNDEDRECTD23*
21,1,0.40000,1.27000,0,0,180.0*
21,1,0.32000,1.35000,0,0,180.0*
1,1,0.08000,-0.16000,0.63500*
1,1,0.08000,0.16000,0.63500*
1,1,0.08000,0.16000,-0.63500*
1,1,0.08000,-0.16000,-0.63500*
%
%ADD23ROUNDEDRECTD23*%
%TA.AperFunction,SMDPad,CuDef*%
G04:AMPARAMS|DCode=24|XSize=0.6mm|YSize=1mm|CornerRadius=0.15mm|HoleSize=0mm|Usage=FLASHONLY|Rotation=90.000|XOffset=0mm|YOffset=0mm|HoleType=Round|Shape=RoundedRectangle|*
%AMROUNDEDRECTD24*
21,1,0.60000,0.70000,0,0,90.0*
21,1,0.30000,1.00000,0,0,90.0*
1,1,0.30000,0.35000,0.15000*
1,1,0.30000,0.35000,-0.15000*
1,1,0.30000,-0.35000,-0.15000*
1,1,0.30000,-0.35000,0.15000*
%
%ADD24ROUNDEDRECTD24*%
G04:AMPARAMS|DCode=25|XSize=1.1mm|YSize=1.2mm|CornerRadius=0.1375mm|HoleSize=0mm|Usage=FLASHONLY|Rotation=90.000|XOffset=0mm|YOffset=0mm|HoleType=Round|Shape=RoundedRectangle|*
%AMROUNDEDRECTD25*
21,1,1.10000,0.92500,0,0,90.0*
21,1,0.82500,1.20000,0,0,90.0*
1,1,0.27500,0.46250,0.41250*
1,1,0.27500,0.46250,-0.41250*
1,1,0.27500,-0.46250,-0.41250*
1,1,0.27500,-0.46250,0.41250*
%
%ADD25ROUNDEDRECTD25*%
G04:AMPARAMS|DCode=26|XSize=1mm|YSize=0.9mm|CornerRadius=0.09mm|HoleSize=0mm|Usage=FLASHONLY|Rotation=90.000|XOffset=0mm|YOffset=0mm|HoleType=Round|Shape=RoundedRectangle|*
%AMROUNDEDRECTD26*
21,1,1.00000,0.72000,0,0,90.0*
21,1,0.82000,0.90000,0,0,90.0*
1,1,0.18000,0.36000,0.41000*
1,1,0.18000,0.36000,-0.41000*
1,1,0.18000,-0.36000,-0.41000*
1,1,0.18000,-0.36000,0.41000*
%
%ADD26ROUNDEDRECTD26*%
D10*
X8420000Y6550000D02*
D03*
X8580000D02*
D03*
Y6300000D02*
D03*
X8420000D02*
D03*
X8145000Y5875000D02*
D03*
X8305000D02*
D03*
X8420000Y6675000D02*
D03*
X8580000D02*
D03*
X8420000Y6425000D02*
D03*
X8580000D02*
D03*
Y6800000D02*
D03*
X8420000D02*
D03*
X8345000Y6050000D02*
D03*
X8505000D02*
D03*
X7505000Y6450001D02*
D03*
X7345000D02*
D03*
X7430000Y5925001D02*
D03*
X7270000D02*
D03*
X8805000Y6050001D02*
D03*
X8645000D02*
D03*
X8805000Y5475001D02*
D03*
X8645000D02*
D03*
D11*
X7125000Y6630000D02*
D03*
Y6470000D02*
D03*
X7125001Y6255000D02*
D03*
Y6095000D02*
D03*
X8200001Y7095000D02*
D03*
Y7255000D02*
D03*
X8025000Y7030000D02*
D03*
Y6870000D02*
D03*
D12*
X8455000Y7575000D02*
D03*
X7255000Y6075000D02*
D03*
D13*
X8645000Y7575000D02*
D03*
X7445000Y6075000D02*
D03*
D14*
X8715001Y7310000D02*
D03*
X8620001D02*
D03*
X8525001D02*
D03*
Y7040000D02*
D03*
X8715001D02*
D03*
D15*
X7175000Y5665001D02*
D03*
X8150000Y5670000D02*
D03*
X7450000Y5695000D02*
D03*
D16*
X7175000Y5475000D02*
D03*
X8150000Y5480000D02*
D03*
X7450000Y5505000D02*
D03*
D17*
X8850001Y7100000D02*
D03*
Y7240001D02*
D03*
D18*
X7725001Y6941000D02*
D03*
Y6809000D02*
D03*
Y7166000D02*
D03*
Y7034000D02*
D03*
D19*
X7950000Y6300000D02*
D03*
D20*
X8225000Y6100000D02*
D03*
Y6150000D02*
D03*
Y6200000D02*
D03*
Y6250000D02*
D03*
Y6300000D02*
D03*
Y6350000D02*
D03*
Y6400000D02*
D03*
Y6450000D02*
D03*
Y6500000D02*
D03*
X7675000Y6500000D02*
D03*
Y6450000D02*
D03*
Y6400000D02*
D03*
Y6350000D02*
D03*
Y6100000D02*
D03*
Y6300000D02*
D03*
Y6250000D02*
D03*
Y6200000D02*
D03*
Y6150000D02*
D03*
D21*
X8150000Y6025000D02*
D03*
Y6575000D02*
D03*
X8100001Y6025000D02*
D03*
X8100000Y6575000D02*
D03*
X8050000D02*
D03*
Y6025000D02*
D03*
X8000001D02*
D03*
X8000000Y6575000D02*
D03*
X7950000D02*
D03*
X7800000D02*
D03*
X7850000D02*
D03*
X7900000D02*
D03*
X7750000D02*
D03*
X7950000Y6025000D02*
D03*
X7750001D02*
D03*
X7800000D02*
D03*
X7850001D02*
D03*
X7900000D02*
D03*
D22*
X7730000Y7655000D02*
D03*
X7970000D02*
D03*
X8245000D02*
D03*
X7455000D02*
D03*
D23*
X7980000Y7387500D02*
D03*
X7915000D02*
D03*
X7850000D02*
D03*
X7785000D02*
D03*
X7720000D02*
D03*
D24*
X7695000Y5670000D02*
D03*
Y5575000D02*
D03*
Y5480000D02*
D03*
X7965000D02*
D03*
Y5670000D02*
D03*
D25*
X8645000Y5640000D02*
D03*
X8805000D02*
D03*
Y5860000D02*
D03*
X8645000D02*
D03*
D26*
X7480001Y7010000D02*
D03*
Y6840000D02*
D03*
X7270000Y7010000D02*
D03*
Y6840000D02*
D03*
%TF.MD5,cf31cec7c9bd80ef265635b09752b80a*%
M02*
