%TF.GenerationSoftware,Altium Limited,Altium Designer,23.7.1 (13)*%
G04 Layer_Color=0*
%FSLAX45Y45*%
%MOMM*%
%TF.SameCoordinates,0A3F61FF-30B4-451A-A2EB-F0EB8CF3D454*%
%TF.FilePolarity,Positive*%
%TF.FileFunction,Plated,1,4,PTH,Drill*%
%TF.Part,Single*%
G01*
G75*
%TA.AperFunction,ComponentDrill*%
%ADD64C,0.70000*%
%ADD65C,1.02000*%
%TA.AperFunction,ViaDrill,NotFilled*%
%ADD66C,0.20000*%
D64*
X8800000Y6754000D02*
D03*
Y6627000D02*
D03*
Y6500000D02*
D03*
Y6373000D02*
D03*
Y6246000D02*
D03*
D65*
X7125000Y7683000D02*
D03*
Y7175000D02*
D03*
Y7429000D02*
D03*
D66*
X8375328Y5957001D02*
D03*
X7750000Y5775000D02*
D03*
X7575000Y6195000D02*
D03*
X8675000Y6675000D02*
D03*
X8675000Y6550000D02*
D03*
X8474437Y6145000D02*
D03*
X7748647Y5948678D02*
D03*
X8675000Y6425000D02*
D03*
X8675000Y6300000D02*
D03*
X8575000Y6200000D02*
D03*
X7485000Y6587416D02*
D03*
X7255000Y6400000D02*
D03*
X7125000Y6375000D02*
D03*
X8300000Y6800000D02*
D03*
X7475225Y6195000D02*
D03*
X7575000Y5925000D02*
D03*
X7125000Y5975000D02*
D03*
X8200000Y7025000D02*
D03*
X8300000Y7100000D02*
D03*
X8575000Y6875000D02*
D03*
X8425000Y6900000D02*
D03*
X8715001Y6945000D02*
D03*
X8645000Y7720000D02*
D03*
X8325000Y6322822D02*
D03*
X8450000Y5950000D02*
D03*
X8550000Y5450000D02*
D03*
X7543727Y5450000D02*
D03*
X8326391Y6573609D02*
D03*
X7923567Y5932254D02*
D03*
X7933937Y6872310D02*
D03*
X7973610Y5876391D02*
D03*
X8395000Y5875000D02*
D03*
X7125000Y6775000D02*
D03*
X7535000Y6125000D02*
D03*
X8025000Y7125000D02*
D03*
X8325000Y6650000D02*
D03*
X7550000Y6550000D02*
D03*
X7650000Y6825000D02*
D03*
X7800000D02*
D03*
X7650000Y7050000D02*
D03*
X7788003Y7061998D02*
D03*
X8275000Y5475000D02*
D03*
X8150000Y5375000D02*
D03*
X8250000Y5675000D02*
D03*
X7805000Y5575000D02*
D03*
X7325000Y5475000D02*
D03*
Y5750000D02*
D03*
X8620001Y7180000D02*
D03*
X7625000Y7425000D02*
D03*
X7720000Y7505000D02*
D03*
%TF.MD5,f71708ac8b7ad87d6d40bcd64088d59e*%
M02*
