%TF.GenerationSoftware,Altium Limited,Altium Designer,23.7.1 (13)*%
G04 Layer_Physical_Order=3*
G04 Layer_Color=16440176*
%FSLAX45Y45*%
%MOMM*%
%TF.SameCoordinates,0A3F61FF-30B4-451A-A2EB-F0EB8CF3D454*%
%TF.FilePolarity,Positive*%
%TF.FileFunction,Copper,L3,Inr,Signal*%
%TF.Part,Single*%
G01*
G75*
%TA.AperFunction,NonConductor*%
%ADD27C,0.05000*%
%TA.AperFunction,ComponentPad*%
%ADD31O,1.30000X1.00000*%
G04:AMPARAMS|DCode=32|XSize=1.3mm|YSize=1mm|CornerRadius=0.25mm|HoleSize=0mm|Usage=FLASHONLY|Rotation=180.000|XOffset=0mm|YOffset=0mm|HoleType=Round|Shape=RoundedRectangle|*
%AMROUNDEDRECTD32*
21,1,1.30000,0.50000,0,0,180.0*
21,1,0.80000,1.00000,0,0,180.0*
1,1,0.50000,-0.40000,0.25000*
1,1,0.50000,0.40000,0.25000*
1,1,0.50000,0.40000,-0.25000*
1,1,0.50000,-0.40000,-0.25000*
%
%ADD32ROUNDEDRECTD32*%
%ADD33C,2.00000*%
%TA.AperFunction,ViaPad*%
%ADD34C,0.40000*%
G36*
X8974512Y5847941D02*
X8454753D01*
X8447697Y5858501D01*
X8450000Y5864060D01*
Y5885940D01*
X8456054Y5895000D01*
X8460940D01*
X8481155Y5903374D01*
X8496627Y5918845D01*
X8505000Y5939060D01*
Y5960940D01*
X8496627Y5981155D01*
X8481155Y5996627D01*
X8460940Y6005000D01*
X8439060D01*
X8418845Y5996627D01*
X8403374Y5981155D01*
X8395000Y5960940D01*
Y5939061D01*
X8388947Y5930000D01*
X8384060D01*
X8363845Y5921627D01*
X8348374Y5906155D01*
X8340000Y5885940D01*
Y5864060D01*
X8342303Y5858501D01*
X8335247Y5847941D01*
X8032787D01*
X8025731Y5858501D01*
X8028610Y5865451D01*
Y5887331D01*
X8020236Y5907546D01*
X8004765Y5923017D01*
X7984550Y5931391D01*
X7978567D01*
Y5943194D01*
X7970194Y5963409D01*
X7954722Y5978881D01*
X7934507Y5987254D01*
X7912627D01*
X7892412Y5978881D01*
X7876941Y5963409D01*
X7868567Y5943194D01*
Y5921314D01*
X7876941Y5901099D01*
X7892412Y5885628D01*
X7912627Y5877254D01*
X7918610D01*
Y5865451D01*
X7921489Y5858501D01*
X7914433Y5847941D01*
X7575000D01*
X7566221Y5846195D01*
X7558779Y5841222D01*
X7553806Y5833779D01*
X7552060Y5825000D01*
X7553806Y5816221D01*
X7558779Y5808779D01*
X7759888Y5607670D01*
X7758374Y5606155D01*
X7750001Y5585940D01*
Y5564060D01*
X7758374Y5543845D01*
X7773846Y5528374D01*
X7794060Y5520000D01*
X7802060D01*
Y5325488D01*
X7025488D01*
Y7067000D01*
X7037222Y7071860D01*
X7042108Y7066973D01*
X7072892Y7049200D01*
X7107227Y7040000D01*
X7142773D01*
X7177108Y7049200D01*
X7207892Y7066973D01*
X7233027Y7092108D01*
X7250800Y7122892D01*
X7260000Y7157227D01*
Y7192773D01*
X7250800Y7227108D01*
X7233027Y7257892D01*
X7207892Y7283027D01*
X7187730Y7294668D01*
Y7309333D01*
X7207892Y7320973D01*
X7233027Y7346108D01*
X7250800Y7376892D01*
X7260000Y7411227D01*
Y7446773D01*
X7250800Y7481108D01*
X7233027Y7511892D01*
X7207892Y7537027D01*
X7187730Y7548668D01*
Y7563333D01*
X7207892Y7574973D01*
X7233027Y7600108D01*
X7250800Y7630892D01*
X7260000Y7665227D01*
Y7700773D01*
X7250800Y7735108D01*
X7235383Y7761812D01*
X7241068Y7774512D01*
X8603770D01*
X8609031Y7761812D01*
X8598374Y7751155D01*
X8590001Y7730940D01*
Y7709060D01*
X8598374Y7688845D01*
X8613846Y7673374D01*
X8634060Y7665000D01*
X8655941D01*
X8676155Y7673374D01*
X8691627Y7688845D01*
X8700000Y7709060D01*
Y7730940D01*
X8691627Y7751155D01*
X8680970Y7761812D01*
X8686231Y7774512D01*
X8974512D01*
Y5847941D01*
D02*
G37*
G36*
Y5325488D02*
X8196230D01*
X8190970Y5338188D01*
X8196627Y5343845D01*
X8205000Y5364060D01*
Y5385940D01*
X8196627Y5406155D01*
X8181155Y5421627D01*
X8160940Y5430000D01*
X8139060D01*
X8118845Y5421627D01*
X8103374Y5406155D01*
X8095000Y5385940D01*
Y5364060D01*
X8103374Y5343845D01*
X8109031Y5338188D01*
X8103770Y5325488D01*
X7847941D01*
Y5540159D01*
X7851627Y5543845D01*
X7860000Y5564060D01*
Y5585940D01*
X7851627Y5606155D01*
X7836155Y5621627D01*
X7815940Y5630000D01*
X7802443D01*
X7642117Y5790326D01*
X7646977Y5802060D01*
X8974512D01*
Y5325488D01*
D02*
G37*
%LPC*%
G36*
X7730940Y7560000D02*
X7709060D01*
X7688845Y7551626D01*
X7673374Y7536155D01*
X7665000Y7515940D01*
Y7494060D01*
X7673374Y7473845D01*
X7688845Y7458373D01*
X7709060Y7450000D01*
X7730940D01*
X7751155Y7458373D01*
X7766627Y7473845D01*
X7775000Y7494060D01*
Y7515940D01*
X7766627Y7536155D01*
X7751155Y7551626D01*
X7730940Y7560000D01*
D02*
G37*
G36*
X7635941Y7480000D02*
X7614060D01*
X7593846Y7471627D01*
X7578374Y7456155D01*
X7570001Y7435940D01*
Y7414060D01*
X7578374Y7393845D01*
X7593846Y7378374D01*
X7614060Y7370000D01*
X7635941D01*
X7656155Y7378374D01*
X7671627Y7393845D01*
X7680000Y7414060D01*
Y7435940D01*
X7671627Y7456155D01*
X7656155Y7471627D01*
X7635941Y7480000D01*
D02*
G37*
G36*
X8630941Y7235000D02*
X8609061D01*
X8588846Y7226627D01*
X8573374Y7211155D01*
X8565001Y7190940D01*
Y7169060D01*
X8573374Y7148845D01*
X8588846Y7133374D01*
X8609061Y7125000D01*
X8630941D01*
X8651156Y7133374D01*
X8666627Y7148845D01*
X8675001Y7169060D01*
Y7190940D01*
X8666627Y7211155D01*
X8651156Y7226627D01*
X8630941Y7235000D01*
D02*
G37*
G36*
X8310940Y7155000D02*
X8289060D01*
X8268845Y7146627D01*
X8253374Y7131155D01*
X8245000Y7110940D01*
Y7089060D01*
X8253374Y7068845D01*
X8268845Y7053374D01*
X8289060Y7045000D01*
X8310940D01*
X8331155Y7053374D01*
X8346627Y7068845D01*
X8355000Y7089060D01*
Y7110940D01*
X8346627Y7131155D01*
X8331155Y7146627D01*
X8310940Y7155000D01*
D02*
G37*
G36*
X7798943Y7116997D02*
X7777063D01*
X7756848Y7108624D01*
X7741376Y7093152D01*
X7733003Y7072938D01*
Y7051058D01*
X7741376Y7030843D01*
X7756848Y7015371D01*
X7777063Y7006998D01*
X7798943D01*
X7819158Y7015371D01*
X7834629Y7030843D01*
X7843003Y7051058D01*
Y7072938D01*
X7834629Y7093152D01*
X7819158Y7108624D01*
X7798943Y7116997D01*
D02*
G37*
G36*
X7660940Y7105000D02*
X7639060D01*
X7618846Y7096627D01*
X7603374Y7081155D01*
X7595001Y7060940D01*
Y7039060D01*
X7603374Y7018845D01*
X7618846Y7003374D01*
X7639060Y6995000D01*
X7660940D01*
X7681155Y7003374D01*
X7696627Y7018845D01*
X7705000Y7039060D01*
Y7060940D01*
X7696627Y7081155D01*
X7681155Y7096627D01*
X7660940Y7105000D01*
D02*
G37*
G36*
X8210940Y7080000D02*
X8189060D01*
X8168845Y7071627D01*
X8153374Y7056155D01*
X8145000Y7035940D01*
Y7014060D01*
X8153374Y6993845D01*
X8168845Y6978374D01*
X8189060Y6970000D01*
X8210940D01*
X8231155Y6978374D01*
X8246627Y6993845D01*
X8255000Y7014060D01*
Y7035940D01*
X8246627Y7056155D01*
X8231155Y7071627D01*
X8210940Y7080000D01*
D02*
G37*
G36*
X8435940Y6955000D02*
X8414060D01*
X8393845Y6946627D01*
X8378374Y6931155D01*
X8370000Y6910940D01*
Y6889060D01*
X8378374Y6868845D01*
X8393845Y6853374D01*
X8414060Y6845000D01*
X8435940D01*
X8456155Y6853374D01*
X8471627Y6868845D01*
X8480000Y6889060D01*
Y6910940D01*
X8471627Y6931155D01*
X8456155Y6946627D01*
X8435940Y6955000D01*
D02*
G37*
G36*
X7944877Y6927310D02*
X7922997D01*
X7902782Y6918936D01*
X7887310Y6903465D01*
X7878937Y6883250D01*
Y6861370D01*
X7887310Y6841155D01*
X7902782Y6825683D01*
X7922997Y6817310D01*
X7944877D01*
X7965092Y6825683D01*
X7980563Y6841155D01*
X7988937Y6861370D01*
Y6883250D01*
X7980563Y6903465D01*
X7965092Y6918936D01*
X7944877Y6927310D01*
D02*
G37*
G36*
X7810940Y6880000D02*
X7789060D01*
X7768846Y6871627D01*
X7753374Y6856155D01*
X7745001Y6835940D01*
Y6814060D01*
X7753374Y6793845D01*
X7768846Y6778374D01*
X7789060Y6770000D01*
X7810940D01*
X7831155Y6778374D01*
X7846627Y6793845D01*
X7855000Y6814060D01*
Y6835940D01*
X7846627Y6856155D01*
X7831155Y6871627D01*
X7810940Y6880000D01*
D02*
G37*
G36*
X7660940D02*
X7639060D01*
X7618846Y6871627D01*
X7603374Y6856155D01*
X7595001Y6835940D01*
Y6814060D01*
X7603374Y6793845D01*
X7618846Y6778374D01*
X7639060Y6770000D01*
X7660940D01*
X7681155Y6778374D01*
X7696627Y6793845D01*
X7705000Y6814060D01*
Y6835940D01*
X7696627Y6856155D01*
X7681155Y6871627D01*
X7660940Y6880000D01*
D02*
G37*
G36*
X8310940Y6855000D02*
X8289060D01*
X8268845Y6846627D01*
X8253374Y6831155D01*
X8245000Y6810940D01*
Y6789060D01*
X8253374Y6768845D01*
X8268845Y6753374D01*
X8289060Y6745000D01*
X8310940D01*
X8331155Y6753374D01*
X8346627Y6768845D01*
X8355000Y6789060D01*
Y6810940D01*
X8346627Y6831155D01*
X8331155Y6846627D01*
X8310940Y6855000D01*
D02*
G37*
G36*
X8815000Y6839734D02*
X8785000D01*
X8762811Y6836812D01*
X8742133Y6828247D01*
X8724378Y6814623D01*
X8710753Y6796867D01*
X8702188Y6776190D01*
X8699267Y6754000D01*
X8701463Y6737317D01*
X8691383Y6728421D01*
X8690455Y6728130D01*
X8685940Y6730000D01*
X8664060D01*
X8643845Y6721627D01*
X8628374Y6706155D01*
X8620000Y6685940D01*
Y6664060D01*
X8628374Y6643845D01*
X8643845Y6628374D01*
X8664060Y6620000D01*
X8685940D01*
X8689437Y6613527D01*
X8679527Y6605000D01*
X8664060D01*
X8643846Y6596627D01*
X8628374Y6581155D01*
X8620001Y6560940D01*
Y6539060D01*
X8628374Y6518845D01*
X8643846Y6503374D01*
X8664060Y6495000D01*
X8685940D01*
X8689039Y6488728D01*
X8679085Y6480000D01*
X8664060D01*
X8643845Y6471627D01*
X8628374Y6456155D01*
X8620000Y6435940D01*
Y6414060D01*
X8628374Y6393845D01*
X8643845Y6378374D01*
X8664060Y6370000D01*
X8685940D01*
X8686805Y6370358D01*
X8700668Y6362354D01*
X8702188Y6350811D01*
X8710753Y6330134D01*
X8717839Y6320899D01*
X8716743Y6314257D01*
X8703481Y6294411D01*
X8698825Y6271000D01*
Y6263500D01*
X8800001D01*
X8901175D01*
Y6271000D01*
X8896519Y6294411D01*
X8883258Y6314257D01*
X8882161Y6320899D01*
X8889247Y6330134D01*
X8897812Y6350811D01*
X8900734Y6373000D01*
X8897812Y6395190D01*
X8889247Y6415867D01*
X8875623Y6433623D01*
Y6439378D01*
X8889247Y6457134D01*
X8897812Y6477811D01*
X8900734Y6500000D01*
X8897812Y6522190D01*
X8889247Y6542867D01*
X8875623Y6560623D01*
Y6566378D01*
X8889247Y6584134D01*
X8897812Y6604811D01*
X8900734Y6627000D01*
X8897812Y6649190D01*
X8889247Y6669867D01*
X8875623Y6687623D01*
Y6693378D01*
X8889247Y6711134D01*
X8897812Y6731811D01*
X8900734Y6754000D01*
X8897812Y6776190D01*
X8889247Y6796867D01*
X8875623Y6814623D01*
X8857867Y6828247D01*
X8837190Y6836812D01*
X8815000Y6839734D01*
D02*
G37*
G36*
X7135941Y6830000D02*
X7114060D01*
X7093846Y6821627D01*
X7078374Y6806155D01*
X7070001Y6785940D01*
Y6764060D01*
X7078374Y6743845D01*
X7093846Y6728374D01*
X7114060Y6720000D01*
X7135941D01*
X7156155Y6728374D01*
X7171627Y6743845D01*
X7180000Y6764060D01*
Y6785940D01*
X7171627Y6806155D01*
X7156155Y6821627D01*
X7135941Y6830000D01*
D02*
G37*
G36*
X8335940Y6705000D02*
X8314060D01*
X8293845Y6696627D01*
X8278374Y6681155D01*
X8270000Y6660940D01*
Y6639060D01*
X8278374Y6618845D01*
X8286110Y6611109D01*
X8279764Y6604764D01*
X8271391Y6584549D01*
Y6562669D01*
X8279764Y6542455D01*
X8295236Y6526983D01*
X8315451Y6518610D01*
X8337331D01*
X8357546Y6526983D01*
X8373018Y6542455D01*
X8381391Y6562669D01*
Y6584549D01*
X8373018Y6604764D01*
X8365282Y6612500D01*
X8371627Y6618845D01*
X8380000Y6639060D01*
Y6660940D01*
X8371627Y6681155D01*
X8356155Y6696627D01*
X8335940Y6705000D01*
D02*
G37*
G36*
X7560940Y6605000D02*
X7539060D01*
X7518846Y6596627D01*
X7503374Y6581155D01*
X7495001Y6560940D01*
Y6539060D01*
X7503374Y6518845D01*
X7518846Y6503374D01*
X7539060Y6495000D01*
X7560940D01*
X7581155Y6503374D01*
X7596627Y6518845D01*
X7605000Y6539060D01*
Y6560940D01*
X7596627Y6581155D01*
X7581155Y6596627D01*
X7560940Y6605000D01*
D02*
G37*
G36*
X7265941Y6455000D02*
X7244060D01*
X7223846Y6446627D01*
X7208374Y6431155D01*
X7200001Y6410940D01*
Y6389060D01*
X7208374Y6368845D01*
X7223846Y6353374D01*
X7244060Y6345000D01*
X7265941D01*
X7286155Y6353374D01*
X7301627Y6368845D01*
X7310000Y6389060D01*
Y6410940D01*
X7301627Y6431155D01*
X7286155Y6446627D01*
X7265941Y6455000D01*
D02*
G37*
G36*
X8335940Y6377822D02*
X8314060D01*
X8293845Y6369448D01*
X8278374Y6353977D01*
X8270000Y6333762D01*
Y6311882D01*
X8278374Y6291667D01*
X8293845Y6276195D01*
X8314060Y6267822D01*
X8335940D01*
X8356155Y6276195D01*
X8371627Y6291667D01*
X8380000Y6311882D01*
Y6333762D01*
X8371627Y6353977D01*
X8356155Y6369448D01*
X8335940Y6377822D01*
D02*
G37*
G36*
X8585940Y6255000D02*
X8564060D01*
X8543845Y6246627D01*
X8528374Y6231155D01*
X8520000Y6210940D01*
Y6195179D01*
X8507300Y6189919D01*
X8505592Y6191627D01*
X8485377Y6200000D01*
X8463497D01*
X8443283Y6191627D01*
X8427811Y6176155D01*
X8419438Y6155940D01*
Y6134060D01*
X8427811Y6113846D01*
X8443283Y6098374D01*
X8463497Y6090001D01*
X8485377D01*
X8505592Y6098374D01*
X8521064Y6113846D01*
X8529437Y6134060D01*
Y6149821D01*
X8542137Y6155082D01*
X8543845Y6153374D01*
X8564060Y6145000D01*
X8585940D01*
X8606155Y6153374D01*
X8621627Y6168845D01*
X8630000Y6189060D01*
Y6210940D01*
X8621627Y6231155D01*
X8606155Y6246627D01*
X8585940Y6255000D01*
D02*
G37*
G36*
X8901175Y6228500D02*
X8817501D01*
Y6159825D01*
X8840000D01*
X8863411Y6164481D01*
X8883258Y6177743D01*
X8896519Y6197589D01*
X8901175Y6221000D01*
Y6228500D01*
D02*
G37*
G36*
X8782501D02*
X8698825D01*
Y6221000D01*
X8703481Y6197589D01*
X8716743Y6177743D01*
X8736589Y6164481D01*
X8760000Y6159825D01*
X8782501D01*
Y6228500D01*
D02*
G37*
G36*
X7486165Y6250000D02*
X7464285D01*
X7444070Y6241627D01*
X7428599Y6226155D01*
X7420225Y6205940D01*
Y6184060D01*
X7428599Y6163845D01*
X7444070Y6148374D01*
X7464285Y6140000D01*
X7477288D01*
X7480001Y6135940D01*
Y6114060D01*
X7488374Y6093845D01*
X7503846Y6078374D01*
X7524060Y6070000D01*
X7545940D01*
X7566155Y6078374D01*
X7581627Y6093845D01*
X7590000Y6114060D01*
Y6135940D01*
X7587970Y6140841D01*
X7606155Y6148374D01*
X7621627Y6163845D01*
X7630000Y6184060D01*
Y6205940D01*
X7621627Y6226155D01*
X7606155Y6241627D01*
X7585940Y6250000D01*
X7564060D01*
X7543845Y6241627D01*
X7533410Y6231191D01*
X7525113Y6227576D01*
X7516816Y6231191D01*
X7506380Y6241627D01*
X7486165Y6250000D01*
D02*
G37*
G36*
X7135940Y6030000D02*
X7114060D01*
X7093845Y6021627D01*
X7078374Y6006155D01*
X7070000Y5985940D01*
Y5964060D01*
X7078374Y5943845D01*
X7093845Y5928374D01*
X7114060Y5920000D01*
X7135940D01*
X7156155Y5928374D01*
X7171627Y5943845D01*
X7180000Y5964060D01*
Y5985940D01*
X7171627Y6006155D01*
X7156155Y6021627D01*
X7135940Y6030000D01*
D02*
G37*
G36*
X7759587Y6003678D02*
X7737707D01*
X7717492Y5995305D01*
X7702020Y5979833D01*
X7693647Y5959618D01*
Y5937738D01*
X7702020Y5917523D01*
X7717492Y5902052D01*
X7737707Y5893678D01*
X7759587D01*
X7779802Y5902052D01*
X7795273Y5917523D01*
X7803647Y5937738D01*
Y5959618D01*
X7795273Y5979833D01*
X7779802Y5995305D01*
X7759587Y6003678D01*
D02*
G37*
G36*
X7335940Y5530000D02*
X7314060D01*
X7293845Y5521627D01*
X7278374Y5506155D01*
X7270000Y5485940D01*
Y5464060D01*
X7278374Y5443845D01*
X7293845Y5428374D01*
X7314060Y5420000D01*
X7335940D01*
X7356155Y5428374D01*
X7371627Y5443845D01*
X7380000Y5464060D01*
Y5485940D01*
X7371627Y5506155D01*
X7356155Y5521627D01*
X7335940Y5530000D01*
D02*
G37*
G36*
X7554667Y5505000D02*
X7532787D01*
X7512572Y5496627D01*
X7497101Y5481155D01*
X7488727Y5460940D01*
Y5439060D01*
X7497101Y5418845D01*
X7512572Y5403373D01*
X7532787Y5395000D01*
X7554667D01*
X7574882Y5403373D01*
X7590354Y5418845D01*
X7598727Y5439060D01*
Y5460940D01*
X7590354Y5481155D01*
X7574882Y5496627D01*
X7554667Y5505000D01*
D02*
G37*
G36*
X8285940Y5530000D02*
X8264060D01*
X8243845Y5521627D01*
X8228374Y5506155D01*
X8220000Y5485940D01*
Y5464060D01*
X8228374Y5443845D01*
X8243845Y5428374D01*
X8264060Y5420000D01*
X8285940D01*
X8306155Y5428374D01*
X8321627Y5443845D01*
X8330000Y5464060D01*
Y5485940D01*
X8321627Y5506155D01*
X8306155Y5521627D01*
X8285940Y5530000D01*
D02*
G37*
G36*
X8560940Y5505000D02*
X8539060D01*
X8518845Y5496627D01*
X8503374Y5481155D01*
X8495000Y5460940D01*
Y5439060D01*
X8503374Y5418845D01*
X8518845Y5403374D01*
X8539060Y5395000D01*
X8560940D01*
X8581155Y5403374D01*
X8596627Y5418845D01*
X8605000Y5439060D01*
Y5460940D01*
X8596627Y5481155D01*
X8581155Y5496627D01*
X8560940Y5505000D01*
D02*
G37*
%LPD*%
D27*
X7000000Y5825000D02*
Y7797462D01*
X7825000Y5300000D02*
Y5325000D01*
Y5300000D02*
X9000000D01*
Y5825000D01*
X7575000D02*
X9000000D01*
X7575000D02*
X7825000Y5575000D01*
Y5325000D02*
Y5575000D01*
X7000000Y5693750D02*
Y5825000D01*
Y5300000D02*
Y5431250D01*
X8997462Y7797462D02*
X9000000Y7800000D01*
X6997462Y7797462D02*
X8997462D01*
X9000000Y5825000D02*
Y7800000D01*
X7000000Y5431250D02*
Y5693750D01*
Y5300000D02*
X9000000D01*
Y5825000D01*
D31*
X8800000Y6754000D02*
D03*
Y6627000D02*
D03*
Y6500000D02*
D03*
Y6373000D02*
D03*
D32*
Y6246000D02*
D03*
D33*
X7125000Y7683000D02*
D03*
Y7175000D02*
D03*
Y7429000D02*
D03*
D34*
X8375328Y5957001D02*
D03*
X7750000Y5775000D02*
D03*
X7575000Y6195000D02*
D03*
X8675000Y6675000D02*
D03*
X8675000Y6550000D02*
D03*
X8474437Y6145000D02*
D03*
X7748647Y5948678D02*
D03*
X8675000Y6425000D02*
D03*
X8675000Y6300000D02*
D03*
X8575000Y6200000D02*
D03*
X7485000Y6587416D02*
D03*
X7255000Y6400000D02*
D03*
X7125000Y6375000D02*
D03*
X8300000Y6800000D02*
D03*
X7475225Y6195000D02*
D03*
X7575000Y5925000D02*
D03*
X7125000Y5975000D02*
D03*
X8200000Y7025000D02*
D03*
X8300000Y7100000D02*
D03*
X8575000Y6875000D02*
D03*
X8425000Y6900000D02*
D03*
X8715001Y6945000D02*
D03*
X8645000Y7720000D02*
D03*
X8325000Y6322822D02*
D03*
X8450000Y5950000D02*
D03*
X8550000Y5450000D02*
D03*
X7543727Y5450000D02*
D03*
X8326391Y6573609D02*
D03*
X7923567Y5932254D02*
D03*
X7933937Y6872310D02*
D03*
X7973610Y5876391D02*
D03*
X8395000Y5875000D02*
D03*
X7125000Y6775000D02*
D03*
X7535000Y6125000D02*
D03*
X8025000Y7125000D02*
D03*
X8325000Y6650000D02*
D03*
X7550000Y6550000D02*
D03*
X7650000Y6825000D02*
D03*
X7800000D02*
D03*
X7650000Y7050000D02*
D03*
X7788003Y7061998D02*
D03*
X8275000Y5475000D02*
D03*
X8150000Y5375000D02*
D03*
X8250000Y5675000D02*
D03*
X7805000Y5575000D02*
D03*
X7325000Y5475000D02*
D03*
Y5750000D02*
D03*
X8620001Y7180000D02*
D03*
X7625000Y7425000D02*
D03*
X7720000Y7505000D02*
D03*
%TF.MD5,4db6cb94a77ff9650b37202c7e0ba1f6*%
M02*
