%TF.GenerationSoftware,Altium Limited,Altium Designer,23.7.1 (13)*%
G04 Layer_Physical_Order=1*
G04 Layer_Color=255*
%FSLAX45Y45*%
%MOMM*%
%TF.SameCoordinates,0A3F61FF-30B4-451A-A2EB-F0EB8CF3D454*%
%TF.FilePolarity,Positive*%
%TF.FileFunction,Copper,L1,Top,Signal*%
%TF.Part,Single*%
G01*
G75*
%TA.AperFunction,SMDPad,CuDef*%
G04:AMPARAMS|DCode=10|XSize=0.8mm|YSize=0.8mm|CornerRadius=0.08mm|HoleSize=0mm|Usage=FLASHONLY|Rotation=270.000|XOffset=0mm|YOffset=0mm|HoleType=Round|Shape=RoundedRectangle|*
%AMROUNDEDRECTD10*
21,1,0.80000,0.64000,0,0,270.0*
21,1,0.64000,0.80000,0,0,270.0*
1,1,0.16000,-0.32000,-0.32000*
1,1,0.16000,-0.32000,0.32000*
1,1,0.16000,0.32000,0.32000*
1,1,0.16000,0.32000,-0.32000*
%
%ADD10ROUNDEDRECTD10*%
G04:AMPARAMS|DCode=11|XSize=0.8mm|YSize=0.8mm|CornerRadius=0.08mm|HoleSize=0mm|Usage=FLASHONLY|Rotation=180.000|XOffset=0mm|YOffset=0mm|HoleType=Round|Shape=RoundedRectangle|*
%AMROUNDEDRECTD11*
21,1,0.80000,0.64000,0,0,180.0*
21,1,0.64000,0.80000,0,0,180.0*
1,1,0.16000,-0.32000,0.32000*
1,1,0.16000,0.32000,0.32000*
1,1,0.16000,0.32000,-0.32000*
1,1,0.16000,-0.32000,-0.32000*
%
%ADD11ROUNDEDRECTD11*%
G04:AMPARAMS|DCode=12|XSize=1.3mm|YSize=0.95mm|CornerRadius=0.095mm|HoleSize=0mm|Usage=FLASHONLY|Rotation=90.000|XOffset=0mm|YOffset=0mm|HoleType=Round|Shape=RoundedRectangle|*
%AMROUNDEDRECTD12*
21,1,1.30000,0.76000,0,0,90.0*
21,1,1.11000,0.95000,0,0,90.0*
1,1,0.19000,0.38000,0.55500*
1,1,0.19000,0.38000,-0.55500*
1,1,0.19000,-0.38000,-0.55500*
1,1,0.19000,-0.38000,0.55500*
%
%ADD12ROUNDEDRECTD12*%
G04:AMPARAMS|DCode=13|XSize=1.3mm|YSize=0.9mm|CornerRadius=0.09mm|HoleSize=0mm|Usage=FLASHONLY|Rotation=90.000|XOffset=0mm|YOffset=0mm|HoleType=Round|Shape=RoundedRectangle|*
%AMROUNDEDRECTD13*
21,1,1.30000,0.72000,0,0,90.0*
21,1,1.12000,0.90000,0,0,90.0*
1,1,0.18000,0.36000,0.56000*
1,1,0.18000,0.36000,-0.56000*
1,1,0.18000,-0.36000,-0.56000*
1,1,0.18000,-0.36000,0.56000*
%
%ADD13ROUNDEDRECTD13*%
G04:AMPARAMS|DCode=14|XSize=0.6mm|YSize=1mm|CornerRadius=0.15mm|HoleSize=0mm|Usage=FLASHONLY|Rotation=0.000|XOffset=0mm|YOffset=0mm|HoleType=Round|Shape=RoundedRectangle|*
%AMROUNDEDRECTD14*
21,1,0.60000,0.70000,0,0,0.0*
21,1,0.30000,1.00000,0,0,0.0*
1,1,0.30000,0.15000,-0.35000*
1,1,0.30000,-0.15000,-0.35000*
1,1,0.30000,-0.15000,0.35000*
1,1,0.30000,0.15000,0.35000*
%
%ADD14ROUNDEDRECTD14*%
G04:AMPARAMS|DCode=15|XSize=1.3mm|YSize=0.95mm|CornerRadius=0.095mm|HoleSize=0mm|Usage=FLASHONLY|Rotation=0.000|XOffset=0mm|YOffset=0mm|HoleType=Round|Shape=RoundedRectangle|*
%AMROUNDEDRECTD15*
21,1,1.30000,0.76000,0,0,0.0*
21,1,1.11000,0.95000,0,0,0.0*
1,1,0.19000,0.55500,-0.38000*
1,1,0.19000,-0.55500,-0.38000*
1,1,0.19000,-0.55500,0.38000*
1,1,0.19000,0.55500,0.38000*
%
%ADD15ROUNDEDRECTD15*%
G04:AMPARAMS|DCode=16|XSize=1.3mm|YSize=0.9mm|CornerRadius=0.09mm|HoleSize=0mm|Usage=FLASHONLY|Rotation=0.000|XOffset=0mm|YOffset=0mm|HoleType=Round|Shape=RoundedRectangle|*
%AMROUNDEDRECTD16*
21,1,1.30000,0.72000,0,0,0.0*
21,1,1.12000,0.90000,0,0,0.0*
1,1,0.18000,0.56000,-0.36000*
1,1,0.18000,-0.56000,-0.36000*
1,1,0.18000,-0.56000,0.36000*
1,1,0.18000,0.56000,0.36000*
%
%ADD16ROUNDEDRECTD16*%
G04:AMPARAMS|DCode=17|XSize=0.6mm|YSize=0.5mm|CornerRadius=0.05mm|HoleSize=0mm|Usage=FLASHONLY|Rotation=0.000|XOffset=0mm|YOffset=0mm|HoleType=Round|Shape=RoundedRectangle|*
%AMROUNDEDRECTD17*
21,1,0.60000,0.40000,0,0,0.0*
21,1,0.50000,0.50000,0,0,0.0*
1,1,0.10000,0.25000,-0.20000*
1,1,0.10000,-0.25000,-0.20000*
1,1,0.10000,-0.25000,0.20000*
1,1,0.10000,0.25000,0.20000*
%
%ADD17ROUNDEDRECTD17*%
G04:AMPARAMS|DCode=18|XSize=0.4mm|YSize=0.48mm|CornerRadius=0.04mm|HoleSize=0mm|Usage=FLASHONLY|Rotation=0.000|XOffset=0mm|YOffset=0mm|HoleType=Round|Shape=RoundedRectangle|*
%AMROUNDEDRECTD18*
21,1,0.40000,0.40000,0,0,0.0*
21,1,0.32000,0.48000,0,0,0.0*
1,1,0.08000,0.16000,-0.20000*
1,1,0.08000,-0.16000,-0.20000*
1,1,0.08000,-0.16000,0.20000*
1,1,0.08000,0.16000,0.20000*
%
%ADD18ROUNDEDRECTD18*%
%ADD19R,4.10000X4.10000*%
G04:AMPARAMS|DCode=20|XSize=0.28mm|YSize=0.8mm|CornerRadius=0.07mm|HoleSize=0mm|Usage=FLASHONLY|Rotation=90.000|XOffset=0mm|YOffset=0mm|HoleType=Round|Shape=RoundedRectangle|*
%AMROUNDEDRECTD20*
21,1,0.28000,0.66000,0,0,90.0*
21,1,0.14000,0.80000,0,0,90.0*
1,1,0.14000,0.33000,0.07000*
1,1,0.14000,0.33000,-0.07000*
1,1,0.14000,-0.33000,-0.07000*
1,1,0.14000,-0.33000,0.07000*
%
%ADD20ROUNDEDRECTD20*%
G04:AMPARAMS|DCode=21|XSize=0.28mm|YSize=0.8mm|CornerRadius=0.07mm|HoleSize=0mm|Usage=FLASHONLY|Rotation=0.000|XOffset=0mm|YOffset=0mm|HoleType=Round|Shape=RoundedRectangle|*
%AMROUNDEDRECTD21*
21,1,0.28000,0.66000,0,0,0.0*
21,1,0.14000,0.80000,0,0,0.0*
1,1,0.14000,0.07000,-0.33000*
1,1,0.14000,-0.07000,-0.33000*
1,1,0.14000,-0.07000,0.33000*
1,1,0.14000,0.07000,0.33000*
%
%ADD21ROUNDEDRECTD21*%
G04:AMPARAMS|DCode=22|XSize=1.9mm|YSize=1.9mm|CornerRadius=0.19mm|HoleSize=0mm|Usage=FLASHONLY|Rotation=180.000|XOffset=0mm|YOffset=0mm|HoleType=Round|Shape=RoundedRectangle|*
%AMROUNDEDRECTD22*
21,1,1.90000,1.52000,0,0,180.0*
21,1,1.52000,1.90000,0,0,180.0*
1,1,0.38000,-0.76000,0.76000*
1,1,0.38000,0.76000,0.76000*
1,1,0.38000,0.76000,-0.76000*
1,1,0.38000,-0.76000,-0.76000*
%
%ADD22ROUNDEDRECTD22*%
%TA.AperFunction,ConnectorPad*%
G04:AMPARAMS|DCode=23|XSize=0.4mm|YSize=1.35mm|CornerRadius=0.04mm|HoleSize=0mm|Usage=FLASHONLY|Rotation=180.000|XOffset=0mm|YOffset=0mm|HoleType=Round|Shape=RoundedRectangle|*
%AMROUNDEDRECTD23*
21,1,0.40000,1.27000,0,0,180.0*
21,1,0.32000,1.35000,0,0,180.0*
1,1,0.08000,-0.16000,0.63500*
1,1,0.08000,0.16000,0.63500*
1,1,0.08000,0.16000,-0.63500*
1,1,0.08000,-0.16000,-0.63500*
%
%ADD23ROUNDEDRECTD23*%
%TA.AperFunction,SMDPad,CuDef*%
G04:AMPARAMS|DCode=24|XSize=0.6mm|YSize=1mm|CornerRadius=0.15mm|HoleSize=0mm|Usage=FLASHONLY|Rotation=90.000|XOffset=0mm|YOffset=0mm|HoleType=Round|Shape=RoundedRectangle|*
%AMROUNDEDRECTD24*
21,1,0.60000,0.70000,0,0,90.0*
21,1,0.30000,1.00000,0,0,90.0*
1,1,0.30000,0.35000,0.15000*
1,1,0.30000,0.35000,-0.15000*
1,1,0.30000,-0.35000,-0.15000*
1,1,0.30000,-0.35000,0.15000*
%
%ADD24ROUNDEDRECTD24*%
G04:AMPARAMS|DCode=25|XSize=1.1mm|YSize=1.2mm|CornerRadius=0.1375mm|HoleSize=0mm|Usage=FLASHONLY|Rotation=90.000|XOffset=0mm|YOffset=0mm|HoleType=Round|Shape=RoundedRectangle|*
%AMROUNDEDRECTD25*
21,1,1.10000,0.92500,0,0,90.0*
21,1,0.82500,1.20000,0,0,90.0*
1,1,0.27500,0.46250,0.41250*
1,1,0.27500,0.46250,-0.41250*
1,1,0.27500,-0.46250,-0.41250*
1,1,0.27500,-0.46250,0.41250*
%
%ADD25ROUNDEDRECTD25*%
G04:AMPARAMS|DCode=26|XSize=1mm|YSize=0.9mm|CornerRadius=0.09mm|HoleSize=0mm|Usage=FLASHONLY|Rotation=90.000|XOffset=0mm|YOffset=0mm|HoleType=Round|Shape=RoundedRectangle|*
%AMROUNDEDRECTD26*
21,1,1.00000,0.72000,0,0,90.0*
21,1,0.82000,0.90000,0,0,90.0*
1,1,0.18000,0.36000,0.41000*
1,1,0.18000,0.36000,-0.41000*
1,1,0.18000,-0.36000,-0.41000*
1,1,0.18000,-0.36000,0.41000*
%
%ADD26ROUNDEDRECTD26*%
%TA.AperFunction,NonConductor*%
%ADD27C,0.05000*%
%TA.AperFunction,Conductor*%
%ADD28C,0.30000*%
%ADD29C,0.40000*%
%ADD30C,0.60000*%
%TA.AperFunction,ComponentPad*%
%ADD31O,1.30000X1.00000*%
G04:AMPARAMS|DCode=32|XSize=1.3mm|YSize=1mm|CornerRadius=0.25mm|HoleSize=0mm|Usage=FLASHONLY|Rotation=180.000|XOffset=0mm|YOffset=0mm|HoleType=Round|Shape=RoundedRectangle|*
%AMROUNDEDRECTD32*
21,1,1.30000,0.50000,0,0,180.0*
21,1,0.80000,1.00000,0,0,180.0*
1,1,0.50000,-0.40000,0.25000*
1,1,0.50000,0.40000,0.25000*
1,1,0.50000,0.40000,-0.25000*
1,1,0.50000,-0.40000,-0.25000*
%
%ADD32ROUNDEDRECTD32*%
%ADD33C,2.00000*%
%TA.AperFunction,ViaPad*%
%ADD34C,0.40000*%
G36*
X8974512Y5325488D02*
X8188758D01*
X8184905Y5338188D01*
X8186048Y5338952D01*
X8197099Y5355491D01*
X8200980Y5375000D01*
Y5399138D01*
X8206000D01*
X8223168Y5402553D01*
X8237722Y5412278D01*
X8244307Y5422133D01*
X8255491Y5427901D01*
X8275000Y5424021D01*
X8294509Y5427901D01*
X8311048Y5438952D01*
X8322099Y5455491D01*
X8325980Y5475000D01*
X8322099Y5494509D01*
X8311048Y5511048D01*
X8306048Y5516048D01*
X8289509Y5527099D01*
X8270000Y5530980D01*
X8247882D01*
X8247447Y5533168D01*
X8237722Y5547722D01*
X8223168Y5557447D01*
X8206000Y5560862D01*
X8167500D01*
Y5480000D01*
X8132500D01*
Y5560862D01*
X8094000D01*
X8076832Y5557447D01*
X8062278Y5547722D01*
X8052553Y5533168D01*
X8051946Y5530115D01*
X8038464Y5527433D01*
X8036048Y5531048D01*
X8019509Y5542099D01*
X8000000Y5545980D01*
X7930000D01*
X7910491Y5542099D01*
X7893952Y5531048D01*
X7882901Y5514509D01*
X7879021Y5495000D01*
Y5465000D01*
X7882901Y5445492D01*
X7893952Y5428953D01*
X7910491Y5417902D01*
X7930000Y5414021D01*
X8000000D01*
X8019509Y5417902D01*
X8036048Y5428953D01*
X8038464Y5432567D01*
X8051946Y5429886D01*
X8052553Y5426832D01*
X8062278Y5412278D01*
X8076832Y5402553D01*
X8094000Y5399138D01*
X8099021D01*
Y5375000D01*
X8102901Y5355491D01*
X8113952Y5338952D01*
X8115095Y5338188D01*
X8111243Y5325488D01*
X7025488D01*
Y7067000D01*
X7037222Y7071860D01*
X7042108Y7066973D01*
X7072892Y7049200D01*
X7089314Y7044800D01*
Y7015775D01*
X7092031Y7002119D01*
X7099767Y6990541D01*
X7190541Y6899766D01*
X7192671Y6898344D01*
X7192554Y6898168D01*
X7189139Y6881000D01*
Y6814070D01*
X7178428Y6804802D01*
X7171627Y6806155D01*
X7156155Y6821627D01*
X7135941Y6830000D01*
X7114060D01*
X7093846Y6821627D01*
X7078374Y6806155D01*
X7070001Y6785940D01*
Y6764060D01*
X7078374Y6743845D01*
X7089315Y6732904D01*
Y6705110D01*
X7076223Y6702505D01*
X7061999Y6693001D01*
X7052495Y6678778D01*
X7049158Y6662000D01*
Y6598000D01*
X7052495Y6581223D01*
X7061999Y6566999D01*
X7076223Y6557495D01*
X7081354Y6556475D01*
Y6543526D01*
X7076223Y6542505D01*
X7061999Y6533001D01*
X7052495Y6518778D01*
X7049158Y6502000D01*
Y6438000D01*
X7052495Y6421222D01*
X7061999Y6406999D01*
X7075098Y6398247D01*
X7070000Y6385940D01*
Y6364060D01*
X7078374Y6343845D01*
X7082121Y6340098D01*
X7078434Y6327945D01*
X7076223Y6327505D01*
X7062000Y6318001D01*
X7052496Y6303778D01*
X7049158Y6287000D01*
Y6223000D01*
X7052496Y6206223D01*
X7062000Y6191999D01*
X7076223Y6182495D01*
X7081354Y6181475D01*
Y6168526D01*
X7076223Y6167505D01*
X7062000Y6158001D01*
X7052496Y6143778D01*
X7049158Y6127000D01*
Y6112500D01*
X7125001D01*
Y6077500D01*
X7049158D01*
Y6063000D01*
X7052496Y6046222D01*
X7062000Y6031999D01*
X7076223Y6022495D01*
X7084217Y6020905D01*
Y5975004D01*
X7084216Y5975000D01*
X7087321Y5959393D01*
X7096162Y5946162D01*
X7109393Y5937321D01*
X7125000Y5934216D01*
X7140607Y5937321D01*
X7153839Y5946162D01*
X7153839Y5946162D01*
X7162680Y5959393D01*
X7165784Y5975001D01*
X7165784Y5975002D01*
Y5993193D01*
X7178484Y5997046D01*
X7184918Y5987418D01*
X7189354Y5984454D01*
X7197495Y5973778D01*
X7195937Y5965944D01*
X7194158Y5957001D01*
Y5942500D01*
X7270000D01*
Y5925001D01*
X7287500D01*
Y5849158D01*
X7302000D01*
X7318778Y5852496D01*
X7333001Y5861999D01*
X7342505Y5876223D01*
X7343526Y5881354D01*
X7356475D01*
X7357495Y5876223D01*
X7366999Y5861999D01*
X7381223Y5852496D01*
X7398000Y5849158D01*
X7462000D01*
X7478778Y5852496D01*
X7493002Y5861999D01*
X7502505Y5876223D01*
X7504095Y5884217D01*
X7538002D01*
X7543845Y5878374D01*
X7564060Y5870000D01*
X7585940D01*
X7606155Y5878374D01*
X7621627Y5893845D01*
X7630000Y5914060D01*
Y5935940D01*
X7621627Y5956155D01*
X7606155Y5971627D01*
X7585940Y5980000D01*
X7564060D01*
X7543845Y5971627D01*
X7538002Y5965784D01*
X7511275D01*
X7503383Y5978188D01*
X7504037Y5981474D01*
X7512723Y5987278D01*
X7522447Y6001833D01*
X7525862Y6019000D01*
Y6034315D01*
X7598491D01*
X7612147Y6037031D01*
X7623725Y6044767D01*
X7631270Y6052312D01*
X7642000Y6050177D01*
X7700178D01*
Y5992000D01*
X7702502Y5980315D01*
X7702020Y5979833D01*
X7693647Y5959618D01*
Y5937738D01*
X7702020Y5917523D01*
X7717492Y5902052D01*
X7737707Y5893678D01*
X7759587D01*
X7779802Y5902052D01*
X7795273Y5917523D01*
X7803647Y5937738D01*
Y5949178D01*
X7807000D01*
X7823388Y5952437D01*
X7825000Y5953515D01*
X7826613Y5952437D01*
X7843001Y5949178D01*
X7857001D01*
X7858466Y5949469D01*
X7868567Y5938529D01*
Y5921314D01*
X7876941Y5901099D01*
X7892412Y5885628D01*
X7912627Y5877254D01*
X7918610D01*
Y5865451D01*
X7926983Y5845236D01*
X7942455Y5829764D01*
X7962670Y5821391D01*
X7984550D01*
X8004765Y5829764D01*
X8020236Y5845236D01*
X8028610Y5865451D01*
Y5877106D01*
X8052582Y5901078D01*
X8064315Y5896218D01*
Y5895000D01*
X8067031Y5881344D01*
X8069158Y5878161D01*
Y5843001D01*
X8072495Y5826223D01*
X8081999Y5811999D01*
X8096223Y5802495D01*
X8113000Y5799158D01*
X8177000D01*
X8193778Y5802495D01*
X8208001Y5811999D01*
X8217505Y5826223D01*
X8218526Y5831354D01*
X8231475D01*
X8232495Y5826223D01*
X8241999Y5811999D01*
X8256223Y5802495D01*
X8273000Y5799158D01*
X8287500D01*
Y5875001D01*
X8322500D01*
Y5799158D01*
X8337000D01*
X8353778Y5802495D01*
X8368002Y5811999D01*
X8377505Y5826223D01*
X8380110Y5839315D01*
X8395000D01*
X8408657Y5842031D01*
X8420234Y5849767D01*
X8427969Y5861344D01*
X8430686Y5875000D01*
X8427969Y5888657D01*
X8420234Y5900234D01*
X8416679Y5902609D01*
X8414976Y5917328D01*
X8425239Y5923903D01*
X8432381Y5919679D01*
X8436344Y5917031D01*
X8450000Y5914315D01*
X8463657Y5917031D01*
X8475234Y5924767D01*
X8513257Y5962790D01*
X8520853Y5974157D01*
X8537000D01*
X8553778Y5977495D01*
X8567119Y5986409D01*
X8570916Y5987970D01*
X8581351D01*
X8581999Y5987000D01*
X8596223Y5977496D01*
X8609315Y5974892D01*
Y5950955D01*
X8598750D01*
X8579729Y5947172D01*
X8563604Y5936397D01*
X8552829Y5920272D01*
X8549045Y5901250D01*
Y5818751D01*
X8552829Y5799729D01*
X8563604Y5783604D01*
X8579729Y5772829D01*
X8598750Y5769046D01*
X8609315D01*
Y5730955D01*
X8598750D01*
X8579729Y5727172D01*
X8563604Y5716397D01*
X8552829Y5700272D01*
X8549045Y5681250D01*
Y5598751D01*
X8552829Y5579729D01*
X8563604Y5563604D01*
X8579729Y5552829D01*
X8580963Y5552584D01*
X8583645Y5539101D01*
X8581999Y5538002D01*
X8572495Y5523778D01*
X8570691Y5514708D01*
X8560940Y5505000D01*
X8539060D01*
X8518845Y5496627D01*
X8503374Y5481155D01*
X8495000Y5460940D01*
Y5439060D01*
X8503374Y5418845D01*
X8518845Y5403374D01*
X8539060Y5395000D01*
X8549722D01*
X8569954Y5374768D01*
X8581532Y5367032D01*
X8595188Y5364316D01*
X8694811D01*
X8708467Y5367032D01*
X8720045Y5374768D01*
X8745233Y5399956D01*
X8745505Y5400364D01*
X8756223Y5402496D01*
X8773000Y5399158D01*
X8837000D01*
X8853778Y5402496D01*
X8868002Y5412000D01*
X8877505Y5426223D01*
X8880843Y5443001D01*
Y5507001D01*
X8877505Y5523778D01*
X8868002Y5538002D01*
X8866356Y5539101D01*
X8869038Y5552584D01*
X8870271Y5552829D01*
X8886397Y5563604D01*
X8897171Y5579729D01*
X8900955Y5598751D01*
Y5681250D01*
X8897171Y5700272D01*
X8886397Y5716397D01*
X8870271Y5727172D01*
X8851250Y5730955D01*
X8758750D01*
X8739729Y5727172D01*
X8725000Y5717330D01*
X8710271Y5727172D01*
X8691250Y5730955D01*
X8680686D01*
Y5769046D01*
X8691250D01*
X8710271Y5772829D01*
X8725000Y5782671D01*
X8739729Y5772829D01*
X8758750Y5769046D01*
X8851250D01*
X8870271Y5772829D01*
X8886397Y5783604D01*
X8897171Y5799729D01*
X8900955Y5818751D01*
Y5901250D01*
X8897171Y5920272D01*
X8886397Y5936397D01*
X8870271Y5947172D01*
X8851250Y5950955D01*
X8840686D01*
Y5974892D01*
X8853778Y5977496D01*
X8868002Y5987000D01*
X8877505Y6001223D01*
X8880843Y6018001D01*
Y6082001D01*
X8877505Y6098779D01*
X8868002Y6113002D01*
X8853778Y6122506D01*
X8837000Y6125843D01*
X8779625D01*
X8758004Y6147464D01*
X8758624Y6151300D01*
X8762446Y6159213D01*
X8762938Y6159825D01*
X8840000D01*
X8863411Y6164481D01*
X8883258Y6177743D01*
X8896519Y6197589D01*
X8901175Y6221000D01*
Y6271000D01*
X8896519Y6294411D01*
X8883258Y6314257D01*
X8882161Y6320899D01*
X8889247Y6330134D01*
X8897812Y6350811D01*
X8898430Y6355500D01*
X8800001D01*
Y6390500D01*
X8898430D01*
X8897812Y6395190D01*
X8889247Y6415867D01*
X8875623Y6433623D01*
Y6439378D01*
X8889247Y6457134D01*
X8897812Y6477811D01*
X8900734Y6500000D01*
X8897812Y6522190D01*
X8889247Y6542867D01*
X8875623Y6560623D01*
Y6566378D01*
X8889247Y6584134D01*
X8897812Y6604811D01*
X8900734Y6627000D01*
X8897812Y6649190D01*
X8889247Y6669867D01*
X8875623Y6687623D01*
Y6693378D01*
X8889247Y6711134D01*
X8897812Y6731811D01*
X8900734Y6754000D01*
X8897812Y6776190D01*
X8889247Y6796867D01*
X8875623Y6814623D01*
X8857867Y6828247D01*
X8841668Y6834957D01*
X8838657Y6836969D01*
X8825000Y6839686D01*
X8815363D01*
X8815000Y6839734D01*
X8785000D01*
X8784637Y6839686D01*
X8729782D01*
X8690994Y6878474D01*
X8696148Y6889278D01*
X8700004Y6891681D01*
X8704061Y6890000D01*
X8725941D01*
X8746156Y6898374D01*
X8761627Y6913845D01*
X8770001Y6934060D01*
Y6955940D01*
X8765980Y6965646D01*
Y6968907D01*
X8766049Y6968952D01*
X8777100Y6985491D01*
X8780001Y6989216D01*
X8795608Y6992321D01*
X8808839Y7001162D01*
X8846894Y7039217D01*
X8875001D01*
X8890608Y7042321D01*
X8903839Y7051162D01*
X8912680Y7064393D01*
X8915784Y7080000D01*
Y7120000D01*
X8912680Y7135608D01*
X8903839Y7148839D01*
X8890608Y7157679D01*
X8875001Y7160784D01*
X8825001D01*
X8809393Y7157679D01*
X8796162Y7148839D01*
X8787322Y7135608D01*
X8784217Y7120000D01*
Y7106717D01*
X8771517Y7102864D01*
X8766049Y7111048D01*
X8749510Y7122099D01*
X8730001Y7125980D01*
X8700001D01*
X8680492Y7122099D01*
X8663953Y7111048D01*
X8652902Y7094509D01*
X8649021Y7075000D01*
Y7005000D01*
X8652902Y6985491D01*
X8663953Y6968952D01*
X8664021Y6968907D01*
Y6965646D01*
X8660001Y6955940D01*
Y6936209D01*
X8654082Y6932003D01*
X8648268Y6929981D01*
X8623015Y6955234D01*
X8611438Y6962969D01*
X8597782Y6965686D01*
X8589141D01*
X8582352Y6978386D01*
X8587100Y6985491D01*
X8590981Y7005000D01*
Y7075000D01*
X8587100Y7094509D01*
X8576049Y7111048D01*
X8559510Y7122099D01*
X8540001Y7125980D01*
X8510001D01*
X8490492Y7122099D01*
X8473953Y7111048D01*
X8462902Y7094509D01*
X8459021Y7075000D01*
Y7005000D01*
X8462902Y6985491D01*
X8473953Y6968952D01*
X8490492Y6957901D01*
X8508174Y6954384D01*
X8514086Y6944159D01*
X8514620Y6942869D01*
X8490509Y6918757D01*
X8475528Y6921737D01*
X8471627Y6931155D01*
X8456155Y6946627D01*
X8435940Y6955000D01*
X8414060D01*
X8393845Y6946627D01*
X8378374Y6931155D01*
X8370000Y6910940D01*
Y6889060D01*
X8374397Y6878445D01*
X8371222Y6872505D01*
X8356999Y6863001D01*
X8347495Y6848778D01*
X8347055Y6846566D01*
X8334902Y6842880D01*
X8331155Y6846627D01*
X8310940Y6855000D01*
X8289060D01*
X8268845Y6846627D01*
X8253374Y6831155D01*
X8245000Y6810940D01*
Y6789060D01*
X8253374Y6768845D01*
X8268845Y6753374D01*
X8289060Y6745000D01*
X8310940D01*
X8331155Y6753374D01*
X8331888Y6754106D01*
X8346922D01*
X8347495Y6751222D01*
X8356664Y6737500D01*
X8347495Y6723778D01*
X8345691Y6714708D01*
X8335940Y6705000D01*
X8320468D01*
X8305234Y6720234D01*
X8293657Y6727970D01*
X8280000Y6730686D01*
X8267000D01*
X8214295Y6783391D01*
Y6796391D01*
X8211579Y6810047D01*
X8203843Y6821624D01*
X8130234Y6895234D01*
X8118657Y6902969D01*
X8105000Y6905686D01*
X8100110D01*
X8097506Y6918778D01*
X8088002Y6933001D01*
X8073778Y6942505D01*
X8068647Y6943526D01*
Y6956475D01*
X8073778Y6957495D01*
X8088002Y6966999D01*
X8097506Y6981223D01*
X8100843Y6998000D01*
Y7062000D01*
X8097506Y7078778D01*
X8088002Y7093002D01*
X8074903Y7101754D01*
X8080000Y7114060D01*
Y7135940D01*
X8071627Y7156155D01*
X8056155Y7171627D01*
X8035940Y7180000D01*
X8014060D01*
X7993846Y7171627D01*
X7978374Y7156155D01*
X7970001Y7135940D01*
Y7114060D01*
X7975098Y7101754D01*
X7963386Y7093928D01*
X7957199Y7095517D01*
X7950686Y7098930D01*
Y7276874D01*
X7960504Y7284931D01*
X7964000Y7284236D01*
X7996000D01*
X8011217Y7287263D01*
X8021363Y7294042D01*
X8088906Y7226499D01*
X8105445Y7215448D01*
X8124954Y7211567D01*
X8126433D01*
X8127496Y7206223D01*
X8136999Y7191999D01*
X8151223Y7182495D01*
X8156354Y7181475D01*
Y7168526D01*
X8151223Y7167505D01*
X8136999Y7158001D01*
X8127496Y7143778D01*
X8124158Y7127000D01*
Y7112500D01*
X8200001D01*
Y7077500D01*
X8124158D01*
Y7063000D01*
X8127496Y7046222D01*
X8136999Y7031999D01*
X8151223Y7022495D01*
X8160065Y7020736D01*
X8162321Y7009393D01*
X8171162Y6996162D01*
X8184393Y6987321D01*
X8200000Y6984217D01*
X8215608Y6987321D01*
X8228839Y6996162D01*
X8237679Y7009393D01*
X8239936Y7020736D01*
X8248778Y7022495D01*
X8263002Y7031999D01*
X8272506Y7046222D01*
X8274096Y7054217D01*
X8294999D01*
X8295000Y7054216D01*
X8310607Y7057321D01*
X8323838Y7066162D01*
X8328838Y7071162D01*
X8337679Y7084393D01*
X8340784Y7100000D01*
X8337679Y7115607D01*
X8328838Y7128838D01*
X8315607Y7137679D01*
X8300000Y7140784D01*
X8284393Y7137679D01*
X8272570Y7143455D01*
X8272506Y7143778D01*
X8263002Y7158001D01*
X8248778Y7167505D01*
X8243647Y7168526D01*
Y7181475D01*
X8248778Y7182495D01*
X8263002Y7191999D01*
X8272506Y7206223D01*
X8275843Y7223000D01*
Y7236731D01*
X8303211Y7264100D01*
X8314263Y7280639D01*
X8318143Y7300148D01*
Y7346047D01*
X8446225Y7474129D01*
X8466276D01*
X8474021Y7466383D01*
Y7381094D01*
X8473953Y7381048D01*
X8462902Y7364509D01*
X8459021Y7345000D01*
Y7275000D01*
X8462902Y7255491D01*
X8473953Y7238952D01*
X8490492Y7227901D01*
X8510001Y7224021D01*
X8540001D01*
X8556321Y7227267D01*
X8569021Y7220145D01*
Y7180000D01*
X8572902Y7160491D01*
X8583953Y7143952D01*
X8600492Y7132901D01*
X8620001Y7129021D01*
X8639510Y7132901D01*
X8656049Y7143952D01*
X8667100Y7160491D01*
X8670980Y7180000D01*
Y7220145D01*
X8683681Y7227267D01*
X8700001Y7224021D01*
X8730001D01*
X8749510Y7227901D01*
X8766049Y7238952D01*
X8771517Y7247136D01*
X8784217Y7243283D01*
Y7220001D01*
X8787322Y7204393D01*
X8796162Y7191162D01*
X8809393Y7182321D01*
X8825001Y7179217D01*
X8875001D01*
X8890608Y7182321D01*
X8903839Y7191162D01*
X8912680Y7204393D01*
X8915784Y7220001D01*
Y7260000D01*
X8912680Y7275608D01*
X8903839Y7288839D01*
X8890608Y7297680D01*
X8877753Y7300236D01*
X8877680Y7300607D01*
X8868839Y7313838D01*
X8868838Y7313839D01*
X8828839Y7353838D01*
X8815608Y7362679D01*
X8800000Y7365784D01*
X8799999Y7365784D01*
X8776248D01*
X8766049Y7381048D01*
X8765302Y7381547D01*
X8762100Y7397646D01*
X8751049Y7414185D01*
X8704186Y7461048D01*
X8698703Y7464711D01*
X8698481Y7470053D01*
X8700256Y7478948D01*
X8712723Y7487278D01*
X8722447Y7501832D01*
X8725862Y7519000D01*
Y7557500D01*
X8645001D01*
X8564139D01*
Y7538419D01*
X8551439Y7533158D01*
X8538372Y7546224D01*
Y7630500D01*
X8534918Y7647863D01*
X8525083Y7662583D01*
X8510363Y7672418D01*
X8493000Y7675872D01*
X8417000D01*
X8399638Y7672418D01*
X8388758Y7665148D01*
X8376058Y7670442D01*
Y7731000D01*
X8371867Y7752070D01*
X8365358Y7761812D01*
X8372146Y7774512D01*
X8613725D01*
X8617578Y7761812D01*
X8608953Y7756048D01*
X8597902Y7739509D01*
X8594021Y7720000D01*
Y7672882D01*
X8591833Y7672447D01*
X8577278Y7662722D01*
X8567554Y7648168D01*
X8564139Y7631000D01*
Y7592500D01*
X8645001D01*
X8725862D01*
Y7631000D01*
X8722447Y7648168D01*
X8712723Y7662722D01*
X8698168Y7672447D01*
X8695980Y7672882D01*
Y7720000D01*
X8692099Y7739509D01*
X8681048Y7756048D01*
X8672423Y7761812D01*
X8676276Y7774512D01*
X8974512D01*
Y5325488D01*
D02*
G37*
G36*
X8124643Y7761812D02*
X8118134Y7752070D01*
X8113943Y7731000D01*
Y7579000D01*
X8118134Y7557930D01*
X8130069Y7540068D01*
X8147931Y7528133D01*
X8169000Y7523942D01*
X8321000D01*
X8337085Y7527142D01*
X8343341Y7515437D01*
X8263952Y7436048D01*
X8263952Y7436047D01*
X8231116Y7403211D01*
X8220065Y7386672D01*
X8216184Y7367163D01*
Y7330843D01*
X8168001D01*
X8151223Y7327505D01*
X8139754Y7319842D01*
X8073549Y7386047D01*
X8057010Y7397098D01*
X8037501Y7400979D01*
X8035764D01*
Y7451000D01*
X8032737Y7466217D01*
X8024118Y7479117D01*
X8011217Y7487737D01*
X7996000Y7490764D01*
X7964000D01*
X7948783Y7487737D01*
X7947500Y7486880D01*
X7946217Y7487737D01*
X7931000Y7490764D01*
X7899000D01*
X7883784Y7487737D01*
X7882500Y7486879D01*
X7881217Y7487737D01*
X7866000Y7490764D01*
X7834000D01*
X7818783Y7487737D01*
X7817500Y7486879D01*
X7816217Y7487737D01*
X7801000Y7490764D01*
X7769000D01*
X7765503Y7490068D01*
X7755686Y7498125D01*
Y7505000D01*
X7754444Y7511242D01*
X7763549Y7523942D01*
X7806000D01*
X7827070Y7528133D01*
X7844932Y7540068D01*
X7855069D01*
X7872931Y7528133D01*
X7894000Y7523942D01*
X8046000D01*
X8067070Y7528133D01*
X8084932Y7540068D01*
X8096867Y7557930D01*
X8101058Y7579000D01*
Y7731000D01*
X8096867Y7752070D01*
X8090358Y7761812D01*
X8097146Y7774512D01*
X8117854D01*
X8124643Y7761812D01*
D02*
G37*
G36*
X7609643D02*
X7603134Y7752070D01*
X7598943Y7731000D01*
Y7579000D01*
X7603134Y7557930D01*
X7615069Y7540068D01*
X7632931Y7528133D01*
X7654000Y7523942D01*
X7676452D01*
X7685556Y7511242D01*
X7684315Y7505000D01*
Y7484751D01*
X7675883Y7479117D01*
X7667263Y7466217D01*
X7664766Y7453663D01*
X7652970Y7447498D01*
X7650234Y7450234D01*
X7638657Y7457969D01*
X7625000Y7460686D01*
X7611344Y7457969D01*
X7599767Y7450234D01*
X7592031Y7438656D01*
X7589315Y7425000D01*
X7592031Y7411344D01*
X7599767Y7399767D01*
X7637267Y7362266D01*
X7648844Y7354531D01*
X7662501Y7351814D01*
X7664236D01*
Y7324000D01*
X7667263Y7308783D01*
X7675883Y7295883D01*
X7688783Y7287263D01*
X7702500Y7284534D01*
Y7387499D01*
X7729231D01*
Y7323999D01*
X7732258Y7308780D01*
X7737500Y7300936D01*
Y7284534D01*
X7751217Y7287263D01*
X7752500Y7288120D01*
X7753783Y7287263D01*
X7769000Y7284236D01*
X7776175D01*
X7781035Y7272503D01*
X7734297Y7225764D01*
X7709001D01*
X7693784Y7222737D01*
X7680883Y7214118D01*
X7672577Y7201686D01*
X7448782D01*
X7255613Y7394855D01*
X7260000Y7411227D01*
Y7446773D01*
X7250800Y7481108D01*
X7233027Y7511892D01*
X7207892Y7537027D01*
X7187730Y7548668D01*
Y7563333D01*
X7207892Y7574973D01*
X7233027Y7600108D01*
X7250800Y7630892D01*
X7260000Y7665227D01*
Y7665500D01*
X7125000D01*
Y7700500D01*
X7260000D01*
Y7700773D01*
X7250800Y7735108D01*
X7235383Y7761812D01*
X7241068Y7774512D01*
X7327855D01*
X7334643Y7761812D01*
X7328134Y7752070D01*
X7323943Y7731000D01*
Y7579000D01*
X7328134Y7557930D01*
X7340069Y7540068D01*
X7357931Y7528133D01*
X7379000Y7523942D01*
X7531000D01*
X7552070Y7528133D01*
X7569932Y7540068D01*
X7581867Y7557930D01*
X7586058Y7579000D01*
Y7731000D01*
X7581867Y7752070D01*
X7575358Y7761812D01*
X7582146Y7774512D01*
X7602854D01*
X7609643Y7761812D01*
D02*
G37*
G36*
X7379533Y7170000D02*
X7305395Y7095862D01*
X7247894D01*
X7241544Y7106861D01*
X7250800Y7122892D01*
X7260000Y7157227D01*
Y7192773D01*
X7250800Y7227108D01*
X7233027Y7257892D01*
X7207892Y7283027D01*
X7187730Y7294668D01*
Y7309333D01*
X7207892Y7320973D01*
X7218226Y7331307D01*
X7379533Y7170000D01*
D02*
G37*
G36*
X7949158Y7055730D02*
Y6998000D01*
X7952495Y6981223D01*
X7961999Y6966999D01*
X7976223Y6957495D01*
X7981354Y6956475D01*
Y6943526D01*
X7976223Y6942505D01*
X7961999Y6933001D01*
X7955309Y6922989D01*
X7944877Y6927310D01*
X7922997D01*
X7902782Y6918936D01*
X7887310Y6903465D01*
X7878937Y6883250D01*
Y6861370D01*
X7887310Y6841155D01*
X7902782Y6825683D01*
X7922997Y6817310D01*
X7944877D01*
X7952892Y6820630D01*
X7961999Y6806999D01*
X7976223Y6797495D01*
X7993001Y6794158D01*
X8057000D01*
X8073778Y6797495D01*
X8088002Y6806999D01*
X8092637Y6813936D01*
X8108447Y6816086D01*
X8142924Y6781609D01*
Y6768610D01*
X8145641Y6754953D01*
X8153376Y6743376D01*
X8226985Y6669767D01*
X8238563Y6662031D01*
X8252219Y6659315D01*
X8265219D01*
X8270000Y6654533D01*
Y6639060D01*
X8278374Y6618845D01*
X8293845Y6603374D01*
X8314060Y6595000D01*
X8333795D01*
X8340600Y6589646D01*
X8344734Y6584896D01*
X8344158Y6582000D01*
Y6518000D01*
X8347495Y6501222D01*
X8356664Y6487500D01*
X8347495Y6473778D01*
X8344705Y6459752D01*
X8335741Y6457969D01*
X8324163Y6450233D01*
X8312988Y6439058D01*
X8305223Y6441574D01*
X8300823Y6444854D01*
Y6457000D01*
X8297563Y6473388D01*
X8296486Y6475000D01*
X8297563Y6476613D01*
X8300823Y6493000D01*
Y6507000D01*
X8297563Y6523388D01*
X8288280Y6537280D01*
X8274388Y6546563D01*
X8258000Y6549823D01*
X8199823D01*
Y6608000D01*
X8196563Y6624388D01*
X8187281Y6638280D01*
X8173388Y6647563D01*
X8157000Y6650823D01*
X8143000D01*
X8126613Y6647563D01*
X8125000Y6646486D01*
X8123388Y6647563D01*
X8107000Y6650823D01*
X8093000D01*
X8076613Y6647563D01*
X8075000Y6646486D01*
X8073388Y6647563D01*
X8057000Y6650823D01*
X8043000D01*
X8026613Y6647563D01*
X8025000Y6646486D01*
X8023388Y6647563D01*
X8007000Y6650823D01*
X7993000D01*
X7976613Y6647563D01*
X7975000Y6646486D01*
X7973388Y6647563D01*
X7957000Y6650823D01*
X7943000D01*
X7926613Y6647563D01*
X7925000Y6646486D01*
X7923388Y6647563D01*
X7907000Y6650823D01*
X7893000D01*
X7876613Y6647563D01*
X7875000Y6646486D01*
X7873388Y6647563D01*
X7857000Y6650823D01*
X7843000D01*
X7826613Y6647563D01*
X7825000Y6646486D01*
X7823388Y6647563D01*
X7807000Y6650823D01*
X7793000D01*
X7776613Y6647563D01*
X7775000Y6646486D01*
X7773388Y6647563D01*
X7767500Y6648734D01*
Y6641481D01*
X7762717Y6638284D01*
X7753433Y6624390D01*
X7750172Y6608000D01*
Y6575001D01*
X7750000D01*
Y6557501D01*
X7700178D01*
Y6549823D01*
X7642000D01*
X7625613Y6546563D01*
X7611720Y6537280D01*
X7610655Y6535686D01*
X7600000D01*
X7586343Y6532969D01*
X7574766Y6525234D01*
X7564724Y6515191D01*
X7553778Y6522506D01*
X7537000Y6525843D01*
X7534643D01*
X7532669Y6535765D01*
X7525784Y6546070D01*
Y6550418D01*
X7531627Y6556261D01*
X7540000Y6576476D01*
Y6598356D01*
X7531627Y6618570D01*
X7516155Y6634042D01*
X7495940Y6642415D01*
X7474060D01*
X7465686Y6648011D01*
Y6754138D01*
X7516000D01*
X7533168Y6757553D01*
X7547723Y6767278D01*
X7557447Y6781832D01*
X7560862Y6799000D01*
Y6881000D01*
X7557447Y6898168D01*
X7547723Y6912722D01*
X7540777Y6917363D01*
Y6932637D01*
X7547723Y6937278D01*
X7557447Y6951832D01*
X7560862Y6969000D01*
Y6974314D01*
X7573852D01*
X7632400Y6915767D01*
X7643977Y6908031D01*
X7657633Y6905315D01*
X7672577D01*
X7680883Y6892883D01*
X7693784Y6884263D01*
X7709000Y6881236D01*
Y6868764D01*
X7693784Y6865737D01*
X7680883Y6857117D01*
X7676795Y6850999D01*
X7666363Y6857970D01*
X7652707Y6860686D01*
X7650000D01*
X7636344Y6857970D01*
X7624767Y6850234D01*
X7617031Y6838657D01*
X7614315Y6825000D01*
X7617031Y6811344D01*
X7624767Y6799767D01*
X7632922Y6794318D01*
X7643473Y6783766D01*
X7655050Y6776031D01*
X7668707Y6773314D01*
X7672577D01*
X7680883Y6760883D01*
X7693784Y6752263D01*
X7707501Y6749535D01*
Y6809000D01*
X7742500D01*
Y6749535D01*
X7756217Y6752263D01*
X7769118Y6760883D01*
X7777424Y6773314D01*
X7781294D01*
X7794950Y6776031D01*
X7806528Y6783766D01*
X7817079Y6794318D01*
X7825234Y6799767D01*
X7832970Y6811344D01*
X7835686Y6825000D01*
X7832970Y6838657D01*
X7825234Y6850234D01*
X7813657Y6857970D01*
X7800000Y6860686D01*
X7797294D01*
X7783638Y6857970D01*
X7773206Y6850999D01*
X7769118Y6857117D01*
X7756217Y6865737D01*
X7741001Y6868764D01*
Y6881236D01*
X7756217Y6884263D01*
X7769118Y6892883D01*
X7777738Y6905783D01*
X7778481Y6909518D01*
X7781805Y6910179D01*
X7793382Y6917915D01*
X7936458Y7060991D01*
X7949158Y7055730D01*
D02*
G37*
G36*
X7409336Y6941682D02*
X7412278Y6937278D01*
X7419224Y6932637D01*
Y6917363D01*
X7412278Y6912722D01*
X7402554Y6898168D01*
X7399139Y6881000D01*
Y6801810D01*
X7397031Y6798656D01*
X7394314Y6785000D01*
Y6535348D01*
X7381614Y6524925D01*
X7377000Y6525843D01*
X7362500D01*
Y6450001D01*
X7327501D01*
Y6525843D01*
X7313000D01*
X7296222Y6522506D01*
X7281999Y6513002D01*
X7272495Y6498778D01*
X7269158Y6482000D01*
Y6440784D01*
X7255000D01*
X7248387Y6439468D01*
X7235686Y6449314D01*
Y6754138D01*
X7306000D01*
X7323168Y6757553D01*
X7337723Y6767278D01*
X7347447Y6781832D01*
X7350862Y6799000D01*
Y6881000D01*
X7347447Y6898168D01*
X7347330Y6898344D01*
X7349460Y6899766D01*
X7392985Y6943292D01*
X7409336Y6941682D01*
D02*
G37*
G36*
X7420225Y6196527D02*
Y6184061D01*
X7414747Y6175862D01*
X7409000D01*
X7391833Y6172447D01*
X7377278Y6162722D01*
X7367553Y6148168D01*
X7364138Y6131000D01*
Y6019000D01*
X7367553Y6001833D01*
X7373771Y5992527D01*
X7366999Y5988002D01*
X7357495Y5973778D01*
X7356475Y5968647D01*
X7343526D01*
X7342505Y5973778D01*
X7333001Y5988002D01*
X7327797Y5991479D01*
X7334918Y6002138D01*
X7338372Y6019501D01*
Y6057501D01*
X7255000D01*
Y6075001D01*
X7237500D01*
Y6175872D01*
X7217000D01*
X7199637Y6172418D01*
X7184918Y6162583D01*
X7182010Y6162005D01*
X7173778Y6167505D01*
X7168648Y6168526D01*
Y6181475D01*
X7173778Y6182495D01*
X7188002Y6191999D01*
X7197506Y6206223D01*
X7200110Y6219314D01*
X7397438D01*
X7420225Y6196527D01*
D02*
G37*
%LPC*%
G36*
X7252500Y5907501D02*
X7194158D01*
Y5893001D01*
X7197495Y5876223D01*
X7206999Y5861999D01*
X7221223Y5852496D01*
X7238000Y5849158D01*
X7252500D01*
Y5907501D01*
D02*
G37*
G36*
X7760940Y5830000D02*
X7739060D01*
X7718845Y5821627D01*
X7703374Y5806155D01*
X7695000Y5785940D01*
Y5764060D01*
X7701371Y5748680D01*
X7694646Y5735980D01*
X7681116D01*
X7680901Y5736196D01*
X7664362Y5747247D01*
X7644853Y5751127D01*
X7546907D01*
X7537583Y5765083D01*
X7522863Y5774918D01*
X7505500Y5778372D01*
X7394501D01*
X7377138Y5774918D01*
X7373789Y5775934D01*
X7371627Y5781155D01*
X7356155Y5796627D01*
X7335940Y5805000D01*
X7314060D01*
X7293845Y5796627D01*
X7278374Y5781155D01*
X7270000Y5760940D01*
Y5745102D01*
X7257556Y5738442D01*
X7247863Y5744919D01*
X7230500Y5748372D01*
X7119501D01*
X7102138Y5744919D01*
X7087418Y5735083D01*
X7077582Y5720363D01*
X7074129Y5703001D01*
Y5627001D01*
X7077582Y5609638D01*
X7087418Y5594918D01*
X7102138Y5585083D01*
X7119501Y5581629D01*
X7230500D01*
X7247863Y5585083D01*
X7262583Y5594918D01*
X7272418Y5609638D01*
X7273290Y5614021D01*
X7289853D01*
X7309362Y5617902D01*
X7325901Y5628953D01*
X7339444Y5642496D01*
X7352346Y5640826D01*
X7352582Y5639637D01*
X7362418Y5624918D01*
X7377138Y5615082D01*
X7394501Y5611629D01*
X7505500D01*
X7516321Y5613781D01*
X7529021Y5605085D01*
Y5592648D01*
X7516321Y5583809D01*
X7506000Y5585862D01*
X7467500D01*
Y5505000D01*
Y5424138D01*
X7473914D01*
X7484100Y5413952D01*
X7500639Y5402901D01*
X7520148Y5399020D01*
X7543727D01*
X7563236Y5402901D01*
X7579775Y5413952D01*
X7590826Y5430491D01*
X7590958Y5431157D01*
X7602692Y5436017D01*
X7607354Y5432902D01*
X7623454Y5429699D01*
X7623952Y5428953D01*
X7640491Y5417902D01*
X7660000Y5414021D01*
X7730000D01*
X7749509Y5417902D01*
X7766048Y5428953D01*
X7777099Y5445492D01*
X7780980Y5465000D01*
Y5495000D01*
X7777733Y5511320D01*
X7784856Y5524021D01*
X7805000D01*
X7824509Y5527901D01*
X7841048Y5538952D01*
X7852099Y5555491D01*
X7855980Y5575000D01*
X7852099Y5594509D01*
X7841048Y5611048D01*
X7824509Y5622099D01*
X7805000Y5625980D01*
X7784855D01*
X7777733Y5638680D01*
X7780980Y5655000D01*
Y5685000D01*
X7777099Y5704509D01*
X7772683Y5711118D01*
X7777453Y5726840D01*
X7781155Y5728374D01*
X7796627Y5743845D01*
X7805000Y5764060D01*
Y5785940D01*
X7796627Y5806155D01*
X7781155Y5821627D01*
X7760940Y5830000D01*
D02*
G37*
G36*
X8205500Y5753372D02*
X8094500D01*
X8077138Y5749918D01*
X8062418Y5740083D01*
X8052582Y5725363D01*
X8051710Y5720980D01*
X8036094D01*
X8036048Y5721048D01*
X8019509Y5732099D01*
X8000000Y5735980D01*
X7930000D01*
X7910491Y5732099D01*
X7893952Y5721048D01*
X7882901Y5704509D01*
X7879021Y5685000D01*
Y5655000D01*
X7882901Y5635491D01*
X7893952Y5618952D01*
X7910491Y5607901D01*
X7930000Y5604021D01*
X8000000D01*
X8019509Y5607901D01*
X8036048Y5618952D01*
X8036094Y5619021D01*
X8051710D01*
X8052582Y5614637D01*
X8062418Y5599918D01*
X8077138Y5590082D01*
X8094500Y5586629D01*
X8205500D01*
X8222863Y5590082D01*
X8237583Y5599918D01*
X8247418Y5614637D01*
X8248425Y5619702D01*
X8249925Y5620000D01*
X8260940D01*
X8281155Y5628374D01*
X8296627Y5643845D01*
X8305000Y5664060D01*
Y5685940D01*
X8296627Y5706155D01*
X8281155Y5721627D01*
X8260940Y5730000D01*
X8244320D01*
X8237583Y5740083D01*
X8222863Y5749918D01*
X8205500Y5753372D01*
D02*
G37*
G36*
X7432501Y5585862D02*
X7394000D01*
X7376833Y5582447D01*
X7362278Y5572722D01*
X7352553Y5558168D01*
X7350427Y5547476D01*
X7346497D01*
X7326987Y5543595D01*
X7310449Y5532544D01*
X7303884Y5525980D01*
X7272883D01*
X7272447Y5528168D01*
X7262723Y5542723D01*
X7248168Y5552447D01*
X7231000Y5555862D01*
X7192500D01*
Y5475000D01*
Y5394139D01*
X7231000D01*
X7248168Y5397554D01*
X7262723Y5407278D01*
X7272447Y5421833D01*
X7272883Y5424021D01*
X7324999D01*
X7325000Y5424021D01*
X7344509Y5427901D01*
X7350565Y5431948D01*
X7362278Y5437278D01*
X7376833Y5427553D01*
X7394000Y5424138D01*
X7432501D01*
Y5505000D01*
Y5585862D01*
D02*
G37*
G36*
X7157501Y5555862D02*
X7119000D01*
X7101833Y5552447D01*
X7087278Y5542723D01*
X7077554Y5528168D01*
X7074139Y5511000D01*
Y5492500D01*
X7157501D01*
Y5555862D01*
D02*
G37*
G36*
Y5457501D02*
X7074139D01*
Y5439001D01*
X7077554Y5421833D01*
X7087278Y5407278D01*
X7101833Y5397554D01*
X7119000Y5394139D01*
X7157501D01*
Y5457501D01*
D02*
G37*
G36*
X7732500Y6648734D02*
X7726613Y6647563D01*
X7712720Y6638280D01*
X7703437Y6624388D01*
X7700178Y6608000D01*
Y6592500D01*
X7732500D01*
Y6648734D01*
D02*
G37*
G36*
X7293000Y6175872D02*
X7272500D01*
Y6092500D01*
X7338372D01*
Y6130500D01*
X7334918Y6147863D01*
X7325083Y6162583D01*
X7310363Y6172418D01*
X7293000Y6175872D01*
D02*
G37*
%LPD*%
D10*
X8420000Y6550000D02*
D03*
X8580000D02*
D03*
Y6300000D02*
D03*
X8420000D02*
D03*
X8145000Y5875000D02*
D03*
X8305000D02*
D03*
X8420000Y6675000D02*
D03*
X8580000D02*
D03*
X8420000Y6425000D02*
D03*
X8580000D02*
D03*
Y6800000D02*
D03*
X8420000D02*
D03*
X8345000Y6050000D02*
D03*
X8505000D02*
D03*
X7505000Y6450001D02*
D03*
X7345000D02*
D03*
X7430000Y5925001D02*
D03*
X7270000D02*
D03*
X8805000Y6050001D02*
D03*
X8645000D02*
D03*
X8805000Y5475001D02*
D03*
X8645000D02*
D03*
D11*
X7125000Y6630000D02*
D03*
Y6470000D02*
D03*
X7125001Y6255000D02*
D03*
Y6095000D02*
D03*
X8200001Y7095000D02*
D03*
Y7255000D02*
D03*
X8025000Y7030000D02*
D03*
Y6870000D02*
D03*
D12*
X8455000Y7575000D02*
D03*
X7255000Y6075000D02*
D03*
D13*
X8645000Y7575000D02*
D03*
X7445000Y6075000D02*
D03*
D14*
X8715001Y7310000D02*
D03*
X8620001D02*
D03*
X8525001D02*
D03*
Y7040000D02*
D03*
X8715001D02*
D03*
D15*
X7175000Y5665001D02*
D03*
X8150000Y5670000D02*
D03*
X7450000Y5695000D02*
D03*
D16*
X7175000Y5475000D02*
D03*
X8150000Y5480000D02*
D03*
X7450000Y5505000D02*
D03*
D17*
X8850001Y7100000D02*
D03*
Y7240001D02*
D03*
D18*
X7725001Y6941000D02*
D03*
Y6809000D02*
D03*
Y7166000D02*
D03*
Y7034000D02*
D03*
D19*
X7950000Y6300000D02*
D03*
D20*
X8225000Y6100000D02*
D03*
Y6150000D02*
D03*
Y6200000D02*
D03*
Y6250000D02*
D03*
Y6300000D02*
D03*
Y6350000D02*
D03*
Y6400000D02*
D03*
Y6450000D02*
D03*
Y6500000D02*
D03*
X7675000Y6500000D02*
D03*
Y6450000D02*
D03*
Y6400000D02*
D03*
Y6350000D02*
D03*
Y6100000D02*
D03*
Y6300000D02*
D03*
Y6250000D02*
D03*
Y6200000D02*
D03*
Y6150000D02*
D03*
D21*
X8150000Y6025000D02*
D03*
Y6575000D02*
D03*
X8100001Y6025000D02*
D03*
X8100000Y6575000D02*
D03*
X8050000D02*
D03*
Y6025000D02*
D03*
X8000001D02*
D03*
X8000000Y6575000D02*
D03*
X7950000D02*
D03*
X7800000D02*
D03*
X7850000D02*
D03*
X7900000D02*
D03*
X7750000D02*
D03*
X7950000Y6025000D02*
D03*
X7750001D02*
D03*
X7800000D02*
D03*
X7850001D02*
D03*
X7900000D02*
D03*
D22*
X7730000Y7655000D02*
D03*
X7970000D02*
D03*
X8245000D02*
D03*
X7455000D02*
D03*
D23*
X7980000Y7387500D02*
D03*
X7915000D02*
D03*
X7850000D02*
D03*
X7785000D02*
D03*
X7720000D02*
D03*
D24*
X7695000Y5670000D02*
D03*
Y5575000D02*
D03*
Y5480000D02*
D03*
X7965000D02*
D03*
Y5670000D02*
D03*
D25*
X8645000Y5640000D02*
D03*
X8805000D02*
D03*
Y5860000D02*
D03*
X8645000D02*
D03*
D26*
X7480001Y7010000D02*
D03*
Y6840000D02*
D03*
X7270000Y7010000D02*
D03*
Y6840000D02*
D03*
D27*
X7000000Y7800000D02*
X9000000D01*
Y5300000D02*
Y7800000D01*
X7000000Y5300000D02*
Y7800000D01*
Y5300000D02*
X9000000D01*
D28*
X8345000Y6050000D02*
X8355000Y6040000D01*
Y5979574D02*
Y6040000D01*
Y5979574D02*
X8375328Y5959247D01*
Y5957001D02*
Y5959247D01*
X7125000Y7015775D02*
Y7175000D01*
X7426001Y7166000D02*
X7725001D01*
X7125000Y7429000D02*
X7171000D01*
X7426001Y7174000D01*
X7582706Y6200000D02*
X7675000D01*
X7577706Y6195000D02*
X7582706Y6200000D01*
X7575000Y6195000D02*
X7577706D01*
X8677706Y6675000D02*
X8679706Y6677000D01*
X8825000D01*
X8675000Y6675000D02*
X8677706D01*
X8675000Y6550000D02*
X8677707D01*
X8680747Y6553041D01*
X8821960D01*
X8318797Y6146913D02*
X8472525D01*
X8474437Y6145000D01*
X8575000Y6125001D02*
X8730000D01*
X8555000Y6145000D02*
X8575000Y6125001D01*
X8225000Y6200000D02*
X8497219D01*
X8552219Y6145000D02*
X8555000D01*
X8497219Y6200000D02*
X8552219Y6145000D01*
X8730000Y6125001D02*
X8805000Y6050001D01*
X8821960Y6553041D02*
X8825000Y6550000D01*
X7750001Y5950032D02*
Y6025000D01*
X7748647Y5948678D02*
X7750001Y5950032D01*
X8420000Y6300000D02*
X8445000Y6325000D01*
Y6332426D01*
X8469811Y6350000D02*
X8505000Y6385189D01*
X8462574Y6350000D02*
X8469811D01*
X8505000Y6385189D02*
Y6882782D01*
X8445000Y6332426D02*
X8462574Y6350000D01*
X8552219Y6930000D02*
X8597782D01*
X8505000Y6882782D02*
X8552219Y6930000D01*
X8656391Y6862610D02*
Y6871391D01*
X8597782Y6930000D02*
X8656391Y6871391D01*
X8715000Y6804000D02*
X8825000D01*
X8656391Y6862610D02*
X8715000Y6804000D01*
X7125000Y6630000D02*
Y6775000D01*
X8300000Y6800000D02*
X8302706D01*
X8312915Y6789792D01*
X8432574D01*
Y6889721D01*
X8420000Y6550000D02*
Y6675000D01*
X7426001Y7166000D02*
Y7174000D01*
X7478349Y7008348D02*
X7480001Y7010000D01*
X7407574Y7008348D02*
X7478349D01*
X7324226Y6925000D02*
X7407574Y7008348D01*
X7215775Y6925000D02*
X7324226D01*
X7125000Y7015775D02*
X7215775Y6925000D01*
X7480001Y6835000D02*
Y6840000D01*
X7430000Y6785000D02*
X7480001Y6835000D01*
X7430000Y6400189D02*
Y6785000D01*
Y6400189D02*
X7480189Y6350000D01*
X7500000D01*
X7437929Y6300000D02*
X7475000D01*
X7242575Y6305000D02*
X7432930D01*
X7200001Y6347574D02*
X7242575Y6305000D01*
X7200001Y6347574D02*
Y6770000D01*
X7432930Y6305000D02*
X7437929Y6300000D01*
X7235000Y6805000D02*
X7240000D01*
X7200001Y6770000D02*
X7235000Y6805000D01*
X7270000Y6835000D02*
Y6840000D01*
X7240000Y6805000D02*
X7270000Y6835000D01*
X7475000Y6300000D02*
X7525000Y6250000D01*
X7550002Y6299999D02*
X7650000D01*
X7500000Y6350000D02*
X7550002Y6299999D01*
X7412219Y6255000D02*
X7467219Y6200000D01*
X7467519D01*
X7472519Y6195000D02*
X7475225D01*
X7467519Y6200000D02*
X7472519Y6195000D01*
X7125001Y6255000D02*
X7412219D01*
X8280000Y6695000D02*
X8325000Y6650000D01*
X8252219Y6695000D02*
X8280000D01*
X8105000Y6870000D02*
X8178610Y6796391D01*
Y6768610D02*
Y6796391D01*
Y6768610D02*
X8252219Y6695000D01*
X7938953Y6870000D02*
X8105000D01*
X8425000Y6897294D02*
Y6900000D01*
Y6897294D02*
X8432574Y6889721D01*
X8305000Y5875000D02*
Y5965188D01*
X8270189Y6000000D02*
X8305000Y5965188D01*
X8151000Y6000000D02*
X8270189D01*
X8100001Y5895000D02*
X8120000Y5875000D01*
X7445000Y5940001D02*
Y6075000D01*
X7430000Y5925001D02*
X7445000Y5940001D01*
Y6075000D02*
X7450000Y6070000D01*
X7628491Y6100000D02*
X7675000D01*
X7450000Y6070000D02*
X7598491D01*
X7628491Y6100000D01*
X8225000Y6300000D02*
X8300000D01*
X8322822Y6322822D01*
X8325000D01*
X8349397Y6425000D02*
X8420000D01*
X8420000Y6425000D01*
X8370000Y6250000D02*
X8420000Y6300000D01*
X8225000Y6250000D02*
X8370000D01*
X8275397Y6351000D02*
X8349397Y6425000D01*
X8420000Y6425000D02*
Y6550000D01*
X8315710Y6150000D02*
X8318797Y6146913D01*
X8225000Y6150000D02*
X8315710D01*
X8488023Y6033023D02*
X8505000Y6050000D01*
X8488023Y5988023D02*
Y6033023D01*
X8450000Y5950000D02*
X8488023Y5988023D01*
X8225000Y6100000D02*
X8295000D01*
X8345000Y6050000D01*
X7600000Y6500000D02*
X7675000D01*
X7566977Y6466977D02*
X7600000Y6500000D01*
X7521977Y6466977D02*
X7566977D01*
X7505000Y6450001D02*
X7521977Y6466977D01*
X8100001Y5895000D02*
Y6025000D01*
X8550000Y5447426D02*
Y5450000D01*
Y5447426D02*
X8570000Y5427427D01*
Y5425190D02*
Y5427427D01*
Y5425190D02*
X8595188Y5400002D01*
X8226000Y6351000D02*
X8275397D01*
X8225000Y6350000D02*
X8226000Y6351000D01*
X7923567Y5932254D02*
X7924147Y5931674D01*
X7999001Y5993899D02*
Y6000000D01*
X7924147Y5931674D02*
X7956071D01*
X7999000Y5974603D01*
X7936643Y6872310D02*
X7938953Y6870000D01*
X7933937Y6872310D02*
X7936643D01*
X7999000Y5993899D02*
X7999001Y5993899D01*
X7999000Y5974603D02*
Y5993899D01*
X8049000Y5947964D02*
Y6024000D01*
X7973610Y5876391D02*
X7975523Y5878304D01*
X7979340D02*
X8049000Y5947964D01*
X7975523Y5878304D02*
X7979340D01*
X8049000Y6024000D02*
X8050000Y6025000D01*
X8150000Y6001000D02*
Y6025000D01*
Y6001000D02*
X8151000Y6000000D01*
X8305000Y5875000D02*
X8395000D01*
X7607782Y6150000D02*
X7675000D01*
X7597782Y6140000D02*
X7607782Y6150000D01*
X7552707Y6140000D02*
X7597782D01*
X7537707Y6125000D02*
X7552707Y6140000D01*
X7535000Y6125000D02*
X7537707D01*
X8694811Y5400002D02*
X8719999Y5425190D01*
X8595188Y5400002D02*
X8694811D01*
X8719999Y5500002D02*
X8737573Y5517576D01*
X8719999Y5425190D02*
Y5500002D01*
X8737573Y5517576D02*
X8762425D01*
X8805000Y5475001D01*
X8645000Y5640000D02*
Y5860000D01*
X8805000Y5860001D02*
Y6050001D01*
X8805000Y5860000D02*
X8805000Y5860001D01*
X8645000Y5860000D02*
Y6050001D01*
X8805000Y5475001D02*
Y5640000D01*
X8805000Y5640000D02*
X8805000Y5640000D01*
X8645000Y5475001D02*
Y5640000D01*
X7525000Y6250000D02*
X7675000D01*
X7668707Y6809000D02*
X7725001D01*
X7652707Y6825000D02*
X7668707Y6809000D01*
X7650000Y6825000D02*
X7652707D01*
X7725001Y6809000D02*
X7781294D01*
X7797294Y6825000D01*
X7800000D01*
X7668707Y7034000D02*
X7725001D01*
X7652707Y7050000D02*
X7668707Y7034000D01*
X7650000Y7050000D02*
X7652707D01*
X7730001Y7043000D02*
X7766299D01*
X7785297Y7061998D01*
X7788003D01*
X7725001Y7038000D02*
X7730001Y7043000D01*
X7725001Y7034000D02*
Y7038000D01*
X7657633Y6941000D02*
X7725001D01*
X7588634Y7010000D02*
X7657633Y6941000D01*
X7725001D02*
X7727149Y6943148D01*
X7768149D01*
X7915000Y7090000D02*
Y7387500D01*
X7768149Y6943148D02*
X7915000Y7090000D01*
X7480001Y7010000D02*
X7588634D01*
X7270000D02*
Y7015000D01*
X7305001Y7045000D02*
X7426001Y7166000D01*
X7300001Y7045000D02*
X7305001D01*
X7270000Y7015000D02*
X7300001Y7045000D01*
X7850000Y7291000D02*
Y7387500D01*
X7734001Y7175000D02*
X7850000Y7291000D01*
X7730001Y7175000D02*
X7734001D01*
X7725001Y7170000D02*
X7730001Y7175000D01*
X7725001Y7166000D02*
Y7170000D01*
X7720000Y7387500D02*
Y7505000D01*
X7625000Y7425000D02*
X7662501Y7387500D01*
X7720000D01*
D29*
X8677000Y6423000D02*
X8825000D01*
X8675000Y6425000D02*
X8677000Y6423000D01*
X8679000Y6296000D02*
X8825000D01*
X8675000Y6300000D02*
X8679000Y6296000D01*
X8580000Y6205000D02*
Y6300000D01*
X8575000Y6200000D02*
X8580000Y6205000D01*
Y6675000D02*
Y6800000D01*
X8575000Y6805000D02*
X8580000Y6800000D01*
X7485000Y6530148D02*
Y6587416D01*
X7494990Y6460010D02*
X7505000Y6450001D01*
X7494990Y6460010D02*
Y6520158D01*
X7485000Y6530148D02*
X7494990Y6520158D01*
X7295000Y6400000D02*
X7345000Y6450001D01*
X7255000Y6400000D02*
X7295000D01*
X7125000Y6375000D02*
Y6470000D01*
X7125000Y6375000D02*
X7125000Y6375000D01*
X8590001Y6554917D02*
Y6560000D01*
Y6554917D02*
X8600001Y6544917D01*
X7430000Y5925001D02*
X7430001Y5925000D01*
X7575000D01*
X7125001Y5975001D02*
Y6095000D01*
X7125000Y5975000D02*
X7125001Y5975001D01*
X7145000Y6075000D02*
X7255000D01*
X7125001Y6095000D02*
X7145000Y6075000D01*
X8200000Y7095000D02*
X8200001Y7095000D01*
X8200000Y7025000D02*
Y7095000D01*
X8200001Y7095000D02*
X8295000D01*
X8300000Y7100000D01*
X8575000Y6805000D02*
Y6875000D01*
X8750590Y7325000D02*
X8800000D01*
X8845001Y7240001D02*
X8850001D01*
X8840001Y7245000D02*
X8845001Y7240001D01*
X8840001Y7245000D02*
Y7285000D01*
X8800000Y7325000D02*
X8840001Y7285000D01*
X8780000Y7030000D02*
X8850001Y7100000D01*
X8580000Y6425000D02*
Y6550000D01*
X8025000Y7030000D02*
Y7125000D01*
X8725001Y7030000D02*
X8780000D01*
D30*
X7450000Y5700148D02*
X7644853D01*
X8715001Y6945000D02*
Y7015000D01*
X7255000Y6075000D02*
X7261051Y6068949D01*
Y5933950D02*
Y6068949D01*
Y5933950D02*
X7270000Y5925001D01*
X8447893Y7547893D02*
X8464607D01*
X8447893D02*
X8447893D01*
X8300000Y7400000D02*
X8447893Y7547893D01*
X8267164Y7367163D02*
X8447893Y7547893D01*
X7450000Y5505000D02*
X7470000D01*
X7485001Y5490000D01*
Y5485148D02*
Y5490000D01*
Y5485148D02*
X7520148Y5450000D01*
X7543727D01*
X8464607Y7547893D02*
X8525001Y7487499D01*
Y7378137D02*
Y7487499D01*
X7990000Y7350000D02*
X8037501D01*
X8124954Y7262547D01*
X8192454D01*
X8200001Y7255000D01*
X8210001Y7265000D02*
X8232016D01*
X8267164Y7300148D01*
Y7367163D01*
X8200001Y7255000D02*
X8210001Y7265000D01*
X8150000Y5480000D02*
X8270000D01*
X8275000Y5475000D01*
X8150000Y5375000D02*
Y5480000D01*
X7965000Y5670000D02*
X8150000D01*
X8245000D01*
X8250000Y5675000D01*
X7325000Y5475000D02*
X7346497Y5496496D01*
X7441497D02*
X7450000Y5505000D01*
X7346497Y5496496D02*
X7441497D01*
X7325000Y5700148D02*
Y5750000D01*
X7330148Y5695000D02*
X7450000D01*
X7325000Y5700148D02*
X7330148Y5695000D01*
X7675000Y5670000D02*
X7695000D01*
X7644853Y5700148D02*
X7675000Y5670000D01*
X7695000Y5575000D02*
X7805000D01*
X7626863Y5670000D02*
X7675000D01*
X7580000Y5623137D02*
X7626863Y5670000D01*
X7580000Y5526863D02*
Y5623137D01*
Y5526863D02*
X7626863Y5480000D01*
X7695000D01*
X7675000Y5670000D02*
X7675000Y5670000D01*
X8645000Y7575000D02*
Y7720000D01*
X7168504Y5468504D02*
X7175000Y5475000D01*
X7325000D01*
X7325000Y5475000D01*
X7175000Y5665001D02*
X7289853D01*
X7325000Y5700148D01*
X8525001Y7310000D02*
Y7378137D01*
X8620001Y7180000D02*
Y7310000D01*
X8525001Y7378137D02*
X8571864Y7425000D01*
X8668138D01*
X8715001Y7378137D01*
Y7310000D02*
Y7378137D01*
D31*
X8800000Y6754000D02*
D03*
Y6627000D02*
D03*
Y6500000D02*
D03*
Y6373000D02*
D03*
D32*
Y6246000D02*
D03*
D33*
X7125000Y7683000D02*
D03*
Y7175000D02*
D03*
Y7429000D02*
D03*
D34*
X8375328Y5957001D02*
D03*
X7750000Y5775000D02*
D03*
X7575000Y6195000D02*
D03*
X8675000Y6675000D02*
D03*
X8675000Y6550000D02*
D03*
X8474437Y6145000D02*
D03*
X7748647Y5948678D02*
D03*
X8675000Y6425000D02*
D03*
X8675000Y6300000D02*
D03*
X8575000Y6200000D02*
D03*
X7485000Y6587416D02*
D03*
X7255000Y6400000D02*
D03*
X7125000Y6375000D02*
D03*
X8300000Y6800000D02*
D03*
X7475225Y6195000D02*
D03*
X7575000Y5925000D02*
D03*
X7125000Y5975000D02*
D03*
X8200000Y7025000D02*
D03*
X8300000Y7100000D02*
D03*
X8575000Y6875000D02*
D03*
X8425000Y6900000D02*
D03*
X8715001Y6945000D02*
D03*
X8645000Y7720000D02*
D03*
X8325000Y6322822D02*
D03*
X8450000Y5950000D02*
D03*
X8550000Y5450000D02*
D03*
X7543727Y5450000D02*
D03*
X8326391Y6573609D02*
D03*
X7923567Y5932254D02*
D03*
X7933937Y6872310D02*
D03*
X7973610Y5876391D02*
D03*
X8395000Y5875000D02*
D03*
X7125000Y6775000D02*
D03*
X7535000Y6125000D02*
D03*
X8025000Y7125000D02*
D03*
X8325000Y6650000D02*
D03*
X7550000Y6550000D02*
D03*
X7650000Y6825000D02*
D03*
X7800000D02*
D03*
X7650000Y7050000D02*
D03*
X7788003Y7061998D02*
D03*
X8275000Y5475000D02*
D03*
X8150000Y5375000D02*
D03*
X8250000Y5675000D02*
D03*
X7805000Y5575000D02*
D03*
X7325000Y5475000D02*
D03*
Y5750000D02*
D03*
X8620001Y7180000D02*
D03*
X7625000Y7425000D02*
D03*
X7720000Y7505000D02*
D03*
%TF.MD5,b591dacc68f1252d4c648515c82110e4*%
M02*
