%TF.GenerationSoftware,Altium Limited,Altium Designer,23.7.1 (13)*%
G04 Layer_Color=8388736*
%FSLAX45Y45*%
%MOMM*%
%TF.SameCoordinates,0A3F61FF-30B4-451A-A2EB-F0EB8CF3D454*%
%TF.FilePolarity,Negative*%
%TF.FileFunction,Soldermask,Top*%
%TF.Part,Single*%
G01*
G75*
%TA.AperFunction,SMDPad,CuDef*%
G04:AMPARAMS|DCode=42|XSize=0.9mm|YSize=0.9mm|CornerRadius=0.13mm|HoleSize=0mm|Usage=FLASHONLY|Rotation=270.000|XOffset=0mm|YOffset=0mm|HoleType=Round|Shape=RoundedRectangle|*
%AMROUNDEDRECTD42*
21,1,0.90000,0.64000,0,0,270.0*
21,1,0.64000,0.90000,0,0,270.0*
1,1,0.26000,-0.32000,-0.32000*
1,1,0.26000,-0.32000,0.32000*
1,1,0.26000,0.32000,0.32000*
1,1,0.26000,0.32000,-0.32000*
%
%ADD42ROUNDEDRECTD42*%
G04:AMPARAMS|DCode=43|XSize=0.9mm|YSize=0.9mm|CornerRadius=0.13mm|HoleSize=0mm|Usage=FLASHONLY|Rotation=180.000|XOffset=0mm|YOffset=0mm|HoleType=Round|Shape=RoundedRectangle|*
%AMROUNDEDRECTD43*
21,1,0.90000,0.64000,0,0,180.0*
21,1,0.64000,0.90000,0,0,180.0*
1,1,0.26000,-0.32000,0.32000*
1,1,0.26000,0.32000,0.32000*
1,1,0.26000,0.32000,-0.32000*
1,1,0.26000,-0.32000,-0.32000*
%
%ADD43ROUNDEDRECTD43*%
G04:AMPARAMS|DCode=44|XSize=1.4mm|YSize=1.05mm|CornerRadius=0.145mm|HoleSize=0mm|Usage=FLASHONLY|Rotation=90.000|XOffset=0mm|YOffset=0mm|HoleType=Round|Shape=RoundedRectangle|*
%AMROUNDEDRECTD44*
21,1,1.40000,0.76000,0,0,90.0*
21,1,1.11000,1.05000,0,0,90.0*
1,1,0.29000,0.38000,0.55500*
1,1,0.29000,0.38000,-0.55500*
1,1,0.29000,-0.38000,-0.55500*
1,1,0.29000,-0.38000,0.55500*
%
%ADD44ROUNDEDRECTD44*%
G04:AMPARAMS|DCode=45|XSize=1.4mm|YSize=1mm|CornerRadius=0.14mm|HoleSize=0mm|Usage=FLASHONLY|Rotation=90.000|XOffset=0mm|YOffset=0mm|HoleType=Round|Shape=RoundedRectangle|*
%AMROUNDEDRECTD45*
21,1,1.40000,0.72000,0,0,90.0*
21,1,1.12000,1.00000,0,0,90.0*
1,1,0.28000,0.36000,0.56000*
1,1,0.28000,0.36000,-0.56000*
1,1,0.28000,-0.36000,-0.56000*
1,1,0.28000,-0.36000,0.56000*
%
%ADD45ROUNDEDRECTD45*%
G04:AMPARAMS|DCode=46|XSize=0.7mm|YSize=1.1mm|CornerRadius=0.2mm|HoleSize=0mm|Usage=FLASHONLY|Rotation=0.000|XOffset=0mm|YOffset=0mm|HoleType=Round|Shape=RoundedRectangle|*
%AMROUNDEDRECTD46*
21,1,0.70000,0.70000,0,0,0.0*
21,1,0.30000,1.10000,0,0,0.0*
1,1,0.40000,0.15000,-0.35000*
1,1,0.40000,-0.15000,-0.35000*
1,1,0.40000,-0.15000,0.35000*
1,1,0.40000,0.15000,0.35000*
%
%ADD46ROUNDEDRECTD46*%
G04:AMPARAMS|DCode=47|XSize=1.4mm|YSize=1.05mm|CornerRadius=0.145mm|HoleSize=0mm|Usage=FLASHONLY|Rotation=0.000|XOffset=0mm|YOffset=0mm|HoleType=Round|Shape=RoundedRectangle|*
%AMROUNDEDRECTD47*
21,1,1.40000,0.76000,0,0,0.0*
21,1,1.11000,1.05000,0,0,0.0*
1,1,0.29000,0.55500,-0.38000*
1,1,0.29000,-0.55500,-0.38000*
1,1,0.29000,-0.55500,0.38000*
1,1,0.29000,0.55500,0.38000*
%
%ADD47ROUNDEDRECTD47*%
G04:AMPARAMS|DCode=48|XSize=1.4mm|YSize=1mm|CornerRadius=0.14mm|HoleSize=0mm|Usage=FLASHONLY|Rotation=0.000|XOffset=0mm|YOffset=0mm|HoleType=Round|Shape=RoundedRectangle|*
%AMROUNDEDRECTD48*
21,1,1.40000,0.72000,0,0,0.0*
21,1,1.12000,1.00000,0,0,0.0*
1,1,0.28000,0.56000,-0.36000*
1,1,0.28000,-0.56000,-0.36000*
1,1,0.28000,-0.56000,0.36000*
1,1,0.28000,0.56000,0.36000*
%
%ADD48ROUNDEDRECTD48*%
G04:AMPARAMS|DCode=49|XSize=0.7mm|YSize=0.6mm|CornerRadius=0.1mm|HoleSize=0mm|Usage=FLASHONLY|Rotation=0.000|XOffset=0mm|YOffset=0mm|HoleType=Round|Shape=RoundedRectangle|*
%AMROUNDEDRECTD49*
21,1,0.70000,0.40000,0,0,0.0*
21,1,0.50000,0.60000,0,0,0.0*
1,1,0.20000,0.25000,-0.20000*
1,1,0.20000,-0.25000,-0.20000*
1,1,0.20000,-0.25000,0.20000*
1,1,0.20000,0.25000,0.20000*
%
%ADD49ROUNDEDRECTD49*%
G04:AMPARAMS|DCode=50|XSize=0.5mm|YSize=0.58mm|CornerRadius=0.09mm|HoleSize=0mm|Usage=FLASHONLY|Rotation=0.000|XOffset=0mm|YOffset=0mm|HoleType=Round|Shape=RoundedRectangle|*
%AMROUNDEDRECTD50*
21,1,0.50000,0.40000,0,0,0.0*
21,1,0.32000,0.58000,0,0,0.0*
1,1,0.18000,0.16000,-0.20000*
1,1,0.18000,-0.16000,-0.20000*
1,1,0.18000,-0.16000,0.20000*
1,1,0.18000,0.16000,0.20000*
%
%ADD50ROUNDEDRECTD50*%
%ADD51R,4.20000X4.20000*%
G04:AMPARAMS|DCode=52|XSize=0.38mm|YSize=0.9mm|CornerRadius=0.12mm|HoleSize=0mm|Usage=FLASHONLY|Rotation=90.000|XOffset=0mm|YOffset=0mm|HoleType=Round|Shape=RoundedRectangle|*
%AMROUNDEDRECTD52*
21,1,0.38000,0.66000,0,0,90.0*
21,1,0.14000,0.90000,0,0,90.0*
1,1,0.24000,0.33000,0.07000*
1,1,0.24000,0.33000,-0.07000*
1,1,0.24000,-0.33000,-0.07000*
1,1,0.24000,-0.33000,0.07000*
%
%ADD52ROUNDEDRECTD52*%
G04:AMPARAMS|DCode=53|XSize=0.38mm|YSize=0.9mm|CornerRadius=0.12mm|HoleSize=0mm|Usage=FLASHONLY|Rotation=0.000|XOffset=0mm|YOffset=0mm|HoleType=Round|Shape=RoundedRectangle|*
%AMROUNDEDRECTD53*
21,1,0.38000,0.66000,0,0,0.0*
21,1,0.14000,0.90000,0,0,0.0*
1,1,0.24000,0.07000,-0.33000*
1,1,0.24000,-0.07000,-0.33000*
1,1,0.24000,-0.07000,0.33000*
1,1,0.24000,0.07000,0.33000*
%
%ADD53ROUNDEDRECTD53*%
G04:AMPARAMS|DCode=54|XSize=2mm|YSize=2mm|CornerRadius=0.24mm|HoleSize=0mm|Usage=FLASHONLY|Rotation=180.000|XOffset=0mm|YOffset=0mm|HoleType=Round|Shape=RoundedRectangle|*
%AMROUNDEDRECTD54*
21,1,2.00000,1.52000,0,0,180.0*
21,1,1.52000,2.00000,0,0,180.0*
1,1,0.48000,-0.76000,0.76000*
1,1,0.48000,0.76000,0.76000*
1,1,0.48000,0.76000,-0.76000*
1,1,0.48000,-0.76000,-0.76000*
%
%ADD54ROUNDEDRECTD54*%
%TA.AperFunction,ConnectorPad*%
G04:AMPARAMS|DCode=55|XSize=0.5mm|YSize=1.45mm|CornerRadius=0.09mm|HoleSize=0mm|Usage=FLASHONLY|Rotation=180.000|XOffset=0mm|YOffset=0mm|HoleType=Round|Shape=RoundedRectangle|*
%AMROUNDEDRECTD55*
21,1,0.50000,1.27000,0,0,180.0*
21,1,0.32000,1.45000,0,0,180.0*
1,1,0.18000,-0.16000,0.63500*
1,1,0.18000,0.16000,0.63500*
1,1,0.18000,0.16000,-0.63500*
1,1,0.18000,-0.16000,-0.63500*
%
%ADD55ROUNDEDRECTD55*%
%TA.AperFunction,SMDPad,CuDef*%
G04:AMPARAMS|DCode=56|XSize=0.7mm|YSize=1.1mm|CornerRadius=0.2mm|HoleSize=0mm|Usage=FLASHONLY|Rotation=90.000|XOffset=0mm|YOffset=0mm|HoleType=Round|Shape=RoundedRectangle|*
%AMROUNDEDRECTD56*
21,1,0.70000,0.70000,0,0,90.0*
21,1,0.30000,1.10000,0,0,90.0*
1,1,0.40000,0.35000,0.15000*
1,1,0.40000,0.35000,-0.15000*
1,1,0.40000,-0.35000,-0.15000*
1,1,0.40000,-0.35000,0.15000*
%
%ADD56ROUNDEDRECTD56*%
G04:AMPARAMS|DCode=57|XSize=1.2mm|YSize=1.3mm|CornerRadius=0.1875mm|HoleSize=0mm|Usage=FLASHONLY|Rotation=90.000|XOffset=0mm|YOffset=0mm|HoleType=Round|Shape=RoundedRectangle|*
%AMROUNDEDRECTD57*
21,1,1.20000,0.92500,0,0,90.0*
21,1,0.82500,1.30000,0,0,90.0*
1,1,0.37500,0.46250,0.41250*
1,1,0.37500,0.46250,-0.41250*
1,1,0.37500,-0.46250,-0.41250*
1,1,0.37500,-0.46250,0.41250*
%
%ADD57ROUNDEDRECTD57*%
G04:AMPARAMS|DCode=58|XSize=1.1mm|YSize=1mm|CornerRadius=0.14mm|HoleSize=0mm|Usage=FLASHONLY|Rotation=90.000|XOffset=0mm|YOffset=0mm|HoleType=Round|Shape=RoundedRectangle|*
%AMROUNDEDRECTD58*
21,1,1.10000,0.72000,0,0,90.0*
21,1,0.82000,1.00000,0,0,90.0*
1,1,0.28000,0.36000,0.41000*
1,1,0.28000,0.36000,-0.41000*
1,1,0.28000,-0.36000,-0.41000*
1,1,0.28000,-0.36000,0.41000*
%
%ADD58ROUNDEDRECTD58*%
%TA.AperFunction,ComponentPad*%
%ADD59O,1.40000X1.10000*%
G04:AMPARAMS|DCode=60|XSize=1.4mm|YSize=1.1mm|CornerRadius=0.3mm|HoleSize=0mm|Usage=FLASHONLY|Rotation=180.000|XOffset=0mm|YOffset=0mm|HoleType=Round|Shape=RoundedRectangle|*
%AMROUNDEDRECTD60*
21,1,1.40000,0.50000,0,0,180.0*
21,1,0.80000,1.10000,0,0,180.0*
1,1,0.60000,-0.40000,0.25000*
1,1,0.60000,0.40000,0.25000*
1,1,0.60000,0.40000,-0.25000*
1,1,0.60000,-0.40000,-0.25000*
%
%ADD60ROUNDEDRECTD60*%
%ADD61C,2.10000*%
%TA.AperFunction,ViaPad*%
%ADD62C,0.50000*%
D42*
X8420000Y6550000D02*
D03*
X8580000D02*
D03*
Y6300000D02*
D03*
X8420000D02*
D03*
X8145000Y5875000D02*
D03*
X8305000D02*
D03*
X8420000Y6675000D02*
D03*
X8580000D02*
D03*
X8420000Y6425000D02*
D03*
X8580000D02*
D03*
Y6800000D02*
D03*
X8420000D02*
D03*
X8345000Y6050000D02*
D03*
X8505000D02*
D03*
X7505000Y6450001D02*
D03*
X7345000D02*
D03*
X7430000Y5925001D02*
D03*
X7270000D02*
D03*
X8805000Y6050001D02*
D03*
X8645000D02*
D03*
X8805000Y5475001D02*
D03*
X8645000D02*
D03*
D43*
X7125000Y6630000D02*
D03*
Y6470000D02*
D03*
X7125001Y6255000D02*
D03*
Y6095000D02*
D03*
X8200001Y7095000D02*
D03*
Y7255000D02*
D03*
X8025000Y7030000D02*
D03*
Y6870000D02*
D03*
D44*
X8455000Y7575000D02*
D03*
X7255000Y6075000D02*
D03*
D45*
X8645000Y7575000D02*
D03*
X7445000Y6075000D02*
D03*
D46*
X8715001Y7310000D02*
D03*
X8620001D02*
D03*
X8525001D02*
D03*
Y7040000D02*
D03*
X8715001D02*
D03*
D47*
X7175000Y5665001D02*
D03*
X8150000Y5670000D02*
D03*
X7450000Y5695000D02*
D03*
D48*
X7175000Y5475000D02*
D03*
X8150000Y5480000D02*
D03*
X7450000Y5505000D02*
D03*
D49*
X8850001Y7100000D02*
D03*
Y7240001D02*
D03*
D50*
X7725001Y6941000D02*
D03*
Y6809000D02*
D03*
Y7166000D02*
D03*
Y7034000D02*
D03*
D51*
X7950000Y6300000D02*
D03*
D52*
X8225000Y6100000D02*
D03*
Y6150000D02*
D03*
Y6200000D02*
D03*
Y6250000D02*
D03*
Y6300000D02*
D03*
Y6350000D02*
D03*
Y6400000D02*
D03*
Y6450000D02*
D03*
Y6500000D02*
D03*
X7675000Y6500000D02*
D03*
Y6450000D02*
D03*
Y6400000D02*
D03*
Y6350000D02*
D03*
Y6100000D02*
D03*
Y6300000D02*
D03*
Y6250000D02*
D03*
Y6200000D02*
D03*
Y6150000D02*
D03*
D53*
X8150000Y6025000D02*
D03*
Y6575000D02*
D03*
X8100001Y6025000D02*
D03*
X8100000Y6575000D02*
D03*
X8050000D02*
D03*
Y6025000D02*
D03*
X8000001D02*
D03*
X8000000Y6575000D02*
D03*
X7950000D02*
D03*
X7800000D02*
D03*
X7850000D02*
D03*
X7900000D02*
D03*
X7750000D02*
D03*
X7950000Y6025000D02*
D03*
X7750001D02*
D03*
X7800000D02*
D03*
X7850001D02*
D03*
X7900000D02*
D03*
D54*
X7730000Y7655000D02*
D03*
X7970000D02*
D03*
X8245000D02*
D03*
X7455000D02*
D03*
D55*
X7980000Y7387500D02*
D03*
X7915000D02*
D03*
X7850000D02*
D03*
X7785000D02*
D03*
X7720000D02*
D03*
D56*
X7695000Y5670000D02*
D03*
Y5575000D02*
D03*
Y5480000D02*
D03*
X7965000D02*
D03*
Y5670000D02*
D03*
D57*
X8645000Y5640000D02*
D03*
X8805000D02*
D03*
Y5860000D02*
D03*
X8645000D02*
D03*
D58*
X7480001Y7010000D02*
D03*
Y6840000D02*
D03*
X7270000Y7010000D02*
D03*
Y6840000D02*
D03*
D59*
X8800000Y6754000D02*
D03*
Y6627000D02*
D03*
Y6500000D02*
D03*
Y6373000D02*
D03*
D60*
Y6246000D02*
D03*
D61*
X7125000Y7683000D02*
D03*
Y7175000D02*
D03*
Y7429000D02*
D03*
D62*
X8375328Y5957001D02*
D03*
X7750000Y5775000D02*
D03*
X7575000Y6195000D02*
D03*
X8675000Y6675000D02*
D03*
X8675000Y6550000D02*
D03*
X8474437Y6145000D02*
D03*
X7748647Y5948678D02*
D03*
X8675000Y6425000D02*
D03*
X8675000Y6300000D02*
D03*
X8575000Y6200000D02*
D03*
X7485000Y6587416D02*
D03*
X7255000Y6400000D02*
D03*
X7125000Y6375000D02*
D03*
X8300000Y6800000D02*
D03*
X7475225Y6195000D02*
D03*
X7575000Y5925000D02*
D03*
X7125000Y5975000D02*
D03*
X8200000Y7025000D02*
D03*
X8300000Y7100000D02*
D03*
X8575000Y6875000D02*
D03*
X8425000Y6900000D02*
D03*
X8715001Y6945000D02*
D03*
X8645000Y7720000D02*
D03*
X8325000Y6322822D02*
D03*
X8450000Y5950000D02*
D03*
X8550000Y5450000D02*
D03*
X7543727Y5450000D02*
D03*
X8326391Y6573609D02*
D03*
X7923567Y5932254D02*
D03*
X7933937Y6872310D02*
D03*
X7973610Y5876391D02*
D03*
X8395000Y5875000D02*
D03*
X7125000Y6775000D02*
D03*
X7535000Y6125000D02*
D03*
X8025000Y7125000D02*
D03*
X8325000Y6650000D02*
D03*
X7550000Y6550000D02*
D03*
X7650000Y6825000D02*
D03*
X7800000D02*
D03*
X7650000Y7050000D02*
D03*
X7788003Y7061998D02*
D03*
X8275000Y5475000D02*
D03*
X8150000Y5375000D02*
D03*
X8250000Y5675000D02*
D03*
X7805000Y5575000D02*
D03*
X7325000Y5475000D02*
D03*
Y5750000D02*
D03*
X8620001Y7180000D02*
D03*
X7625000Y7425000D02*
D03*
X7720000Y7505000D02*
D03*
%TF.MD5,a424e2aa3d23025ba9241427427ecb6d*%
M02*
