%TF.GenerationSoftware,KiCad,Pcbnew,8.0.5*%
%TF.CreationDate,2024-10-11T16:07:05+03:00*%
%TF.ProjectId,test,74657374-2e6b-4696-9361-645f70636258,rev?*%
%TF.SameCoordinates,Original*%
%TF.FileFunction,Paste,Top*%
%TF.FilePolarity,Positive*%
%FSLAX46Y46*%
G04 Gerber Fmt 4.6, Leading zero omitted, Abs format (unit mm)*
G04 Created by KiCad (PCBNEW 8.0.5) date 2024-10-11 16:07:05*
%MOMM*%
%LPD*%
G01*
G04 APERTURE LIST*
G04 Aperture macros list*
%AMRoundRect*
0 Rectangle with rounded corners*
0 $1 Rounding radius*
0 $2 $3 $4 $5 $6 $7 $8 $9 X,Y pos of 4 corners*
0 Add a 4 corners polygon primitive as box body*
4,1,4,$2,$3,$4,$5,$6,$7,$8,$9,$2,$3,0*
0 Add four circle primitives for the rounded corners*
1,1,$1+$1,$2,$3*
1,1,$1+$1,$4,$5*
1,1,$1+$1,$6,$7*
1,1,$1+$1,$8,$9*
0 Add four rect primitives between the rounded corners*
20,1,$1+$1,$2,$3,$4,$5,0*
20,1,$1+$1,$4,$5,$6,$7,0*
20,1,$1+$1,$6,$7,$8,$9,0*
20,1,$1+$1,$8,$9,$2,$3,0*%
G04 Aperture macros list end*
%ADD10RoundRect,0.079500X-0.100500X0.079500X-0.100500X-0.079500X0.100500X-0.079500X0.100500X0.079500X0*%
%ADD11RoundRect,0.079500X0.100500X-0.079500X0.100500X0.079500X-0.100500X0.079500X-0.100500X-0.079500X0*%
%ADD12R,1.981200X0.558800*%
%ADD13RoundRect,0.079500X-0.079500X-0.100500X0.079500X-0.100500X0.079500X0.100500X-0.079500X0.100500X0*%
%ADD14RoundRect,0.147500X-0.457500X-0.147500X0.457500X-0.147500X0.457500X0.147500X-0.457500X0.147500X0*%
%ADD15RoundRect,0.079500X0.079500X0.100500X-0.079500X0.100500X-0.079500X-0.100500X0.079500X-0.100500X0*%
%ADD16RoundRect,0.147500X0.457500X0.147500X-0.457500X0.147500X-0.457500X-0.147500X0.457500X-0.147500X0*%
%ADD17R,0.558800X1.981200*%
%ADD18RoundRect,0.150000X-0.825000X-0.150000X0.825000X-0.150000X0.825000X0.150000X-0.825000X0.150000X0*%
%ADD19RoundRect,0.060000X-0.675000X-0.180000X0.675000X-0.180000X0.675000X0.180000X-0.675000X0.180000X0*%
%ADD20RoundRect,0.098250X-1.521750X-0.556750X1.521750X-0.556750X1.521750X0.556750X-1.521750X0.556750X0*%
%ADD21RoundRect,0.069750X-0.395250X-0.585250X0.395250X-0.585250X0.395250X0.585250X-0.395250X0.585250X0*%
G04 APERTURE END LIST*
D10*
%TO.C,C3*%
X22800000Y-45745000D03*
X22800000Y-45055000D03*
%TD*%
D11*
%TO.C,R12*%
X33400000Y-52955000D03*
X33400000Y-53645000D03*
%TD*%
D12*
%TO.C,U5*%
X53063800Y-50095000D03*
X53063800Y-51365000D03*
X53063800Y-52635000D03*
X53063800Y-53905000D03*
X48136200Y-53905000D03*
X48136200Y-52635000D03*
X48136200Y-51365000D03*
X48136200Y-50095000D03*
%TD*%
D13*
%TO.C,C12*%
X30465000Y-47100000D03*
X29775000Y-47100000D03*
%TD*%
D14*
%TO.C,U4*%
X21155000Y-45050000D03*
X21155000Y-46950000D03*
X18645000Y-46950000D03*
X18645000Y-46000000D03*
X18645000Y-45050000D03*
%TD*%
D15*
%TO.C,C18*%
X56100000Y-43600000D03*
X56790000Y-43600000D03*
%TD*%
%TO.C,C19*%
X56100000Y-44600000D03*
X56790000Y-44600000D03*
%TD*%
D12*
%TO.C,U10*%
X61163800Y-5895000D03*
X61163800Y-7165000D03*
X61163800Y-8435000D03*
X61163800Y-9705000D03*
X56236200Y-9705000D03*
X56236200Y-8435000D03*
X56236200Y-7165000D03*
X56236200Y-5895000D03*
%TD*%
D13*
%TO.C,R11*%
X12945000Y-53500000D03*
X12255000Y-53500000D03*
%TD*%
%TO.C,C13*%
X35725000Y-45100000D03*
X35035000Y-45100000D03*
%TD*%
%TO.C,C20*%
X54245000Y-7200000D03*
X53555000Y-7200000D03*
%TD*%
%TO.C,C23*%
X46245000Y-53900000D03*
X45555000Y-53900000D03*
%TD*%
%TO.C,R13*%
X34245000Y-57400000D03*
X33555000Y-57400000D03*
%TD*%
D15*
%TO.C,R18*%
X33555000Y-27800000D03*
X34245000Y-27800000D03*
%TD*%
D10*
%TO.C,R10*%
X29100000Y-52945000D03*
X29100000Y-52255000D03*
%TD*%
D11*
%TO.C,C1*%
X57900000Y-40565000D03*
X57900000Y-39875000D03*
%TD*%
%TO.C,R16*%
X33500000Y-31155000D03*
X33500000Y-31845000D03*
%TD*%
D16*
%TO.C,U9*%
X51990000Y-44550000D03*
X51990000Y-42650000D03*
X54500000Y-42650000D03*
X54500000Y-43600000D03*
X54500000Y-44550000D03*
%TD*%
D12*
%TO.C,U7*%
X47627600Y-14160000D03*
X47627600Y-15430000D03*
X47627600Y-16700000D03*
X47627600Y-17970000D03*
X42700000Y-17970000D03*
X42700000Y-16700000D03*
X42700000Y-15430000D03*
X42700000Y-14160000D03*
%TD*%
D11*
%TO.C,R14*%
X33400000Y-48435000D03*
X33400000Y-49125000D03*
%TD*%
%TO.C,C2*%
X55600000Y-40545000D03*
X55600000Y-39855000D03*
%TD*%
D15*
%TO.C,C21*%
X22255000Y-58100000D03*
X22945000Y-58100000D03*
%TD*%
D13*
%TO.C,C30*%
X46245000Y-27800000D03*
X45555000Y-27800000D03*
%TD*%
D15*
%TO.C,C4*%
X16355000Y-46000000D03*
X17045000Y-46000000D03*
%TD*%
D17*
%TO.C,U6*%
X30895000Y-33836200D03*
X32165000Y-33836200D03*
X33435000Y-33836200D03*
X34705000Y-33836200D03*
X34705000Y-38763800D03*
X33435000Y-38763800D03*
X32165000Y-38763800D03*
X30895000Y-38763800D03*
%TD*%
D18*
%TO.C,U13*%
X61475000Y-17995000D03*
X61475000Y-19265000D03*
X61475000Y-20535000D03*
X61475000Y-21805000D03*
X56525000Y-21805000D03*
X56525000Y-20535000D03*
X56525000Y-19265000D03*
X56525000Y-17995000D03*
%TD*%
D19*
%TO.C,U3*%
X29250000Y-56125000D03*
X29250000Y-56775000D03*
X29250000Y-57425000D03*
X29250000Y-58075000D03*
X24950000Y-58075000D03*
X24950000Y-57425000D03*
X24950000Y-56775000D03*
X24950000Y-56125000D03*
%TD*%
D13*
%TO.C,R17*%
X33545000Y-29100000D03*
X32855000Y-29100000D03*
%TD*%
%TO.C,R8*%
X10045000Y-53500000D03*
X9355000Y-53500000D03*
%TD*%
%TO.C,C17*%
X50390000Y-44500000D03*
X49700000Y-44500000D03*
%TD*%
D12*
%TO.C,U12*%
X43463800Y-26495000D03*
X43463800Y-27765000D03*
X43463800Y-29035000D03*
X43463800Y-30305000D03*
X38536200Y-30305000D03*
X38536200Y-29035000D03*
X38536200Y-27765000D03*
X38536200Y-26495000D03*
%TD*%
D10*
%TO.C,R19*%
X39663800Y-20010000D03*
X39663800Y-19320000D03*
%TD*%
D15*
%TO.C,C14*%
X53555000Y-20600000D03*
X54245000Y-20600000D03*
%TD*%
D13*
%TO.C,C28*%
X40308800Y-17965000D03*
X39618800Y-17965000D03*
%TD*%
D20*
%TO.C,U1*%
X55600000Y-31355000D03*
D21*
X57890000Y-38045000D03*
X55600000Y-38045000D03*
X53310000Y-38045000D03*
%TD*%
D13*
%TO.C,C29*%
X36645000Y-30300000D03*
X35955000Y-30300000D03*
%TD*%
D15*
%TO.C,C11*%
X35255000Y-49100000D03*
X35945000Y-49100000D03*
%TD*%
D11*
%TO.C,C26*%
X32200000Y-31155000D03*
X32200000Y-31845000D03*
%TD*%
D13*
%TO.C,R20*%
X37308800Y-21765000D03*
X36618800Y-21765000D03*
%TD*%
%TO.C,C24*%
X55845000Y-51400000D03*
X55155000Y-51400000D03*
%TD*%
D11*
%TO.C,R15*%
X33400000Y-45155000D03*
X33400000Y-45845000D03*
%TD*%
D15*
%TO.C,C10*%
X50455000Y-56500000D03*
X51145000Y-56500000D03*
%TD*%
D10*
%TO.C,R9*%
X25100000Y-52945000D03*
X25100000Y-52255000D03*
%TD*%
D11*
%TO.C,C25*%
X34700000Y-41055000D03*
X34700000Y-41745000D03*
%TD*%
D13*
%TO.C,C27*%
X50308800Y-15365000D03*
X49618800Y-15365000D03*
%TD*%
%TO.C,C22*%
X32245000Y-56800000D03*
X31555000Y-56800000D03*
%TD*%
M02*
