%TF.GenerationSoftware,KiCad,Pcbnew,8.0.5*%
%TF.CreationDate,2024-10-11T16:07:05+03:00*%
%TF.ProjectId,test,74657374-2e6b-4696-9361-645f70636258,rev?*%
%TF.SameCoordinates,Original*%
%TF.FileFunction,Legend,Top*%
%TF.FilePolarity,Positive*%
%FSLAX46Y46*%
G04 Gerber Fmt 4.6, Leading zero omitted, Abs format (unit mm)*
G04 Created by KiCad (PCBNEW 8.0.5) date 2024-10-11 16:07:05*
%MOMM*%
%LPD*%
G01*
G04 APERTURE LIST*
%ADD10C,0.300000*%
%ADD11C,0.150000*%
%ADD12C,0.100000*%
%ADD13C,0.152400*%
%ADD14C,0.200000*%
%ADD15C,0.127000*%
%ADD16C,0.120000*%
G04 APERTURE END LIST*
D10*
X1304510Y-56700828D02*
X1304510Y-55200828D01*
X2018796Y-56700828D02*
X2018796Y-55200828D01*
X2018796Y-55200828D02*
X2875939Y-56700828D01*
X2875939Y-56700828D02*
X2875939Y-55200828D01*
X3590225Y-56129400D02*
X4733083Y-56129400D01*
X2111653Y-54150828D02*
X1611653Y-53436542D01*
X1254510Y-54150828D02*
X1254510Y-52650828D01*
X1254510Y-52650828D02*
X1825939Y-52650828D01*
X1825939Y-52650828D02*
X1968796Y-52722257D01*
X1968796Y-52722257D02*
X2040225Y-52793685D01*
X2040225Y-52793685D02*
X2111653Y-52936542D01*
X2111653Y-52936542D02*
X2111653Y-53150828D01*
X2111653Y-53150828D02*
X2040225Y-53293685D01*
X2040225Y-53293685D02*
X1968796Y-53365114D01*
X1968796Y-53365114D02*
X1825939Y-53436542D01*
X1825939Y-53436542D02*
X1254510Y-53436542D01*
X2754510Y-53365114D02*
X3254510Y-53365114D01*
X3468796Y-54150828D02*
X2754510Y-54150828D01*
X2754510Y-54150828D02*
X2754510Y-52650828D01*
X2754510Y-52650828D02*
X3468796Y-52650828D01*
X4611653Y-53365114D02*
X4111653Y-53365114D01*
X4111653Y-54150828D02*
X4111653Y-52650828D01*
X4111653Y-52650828D02*
X4825939Y-52650828D01*
X1304510Y-59450828D02*
X1304510Y-57950828D01*
X2018796Y-59450828D02*
X2018796Y-57950828D01*
X2018796Y-57950828D02*
X2875939Y-59450828D01*
X2875939Y-59450828D02*
X2875939Y-57950828D01*
X3590225Y-58879400D02*
X4733083Y-58879400D01*
X4161654Y-59450828D02*
X4161654Y-58307971D01*
X74611653Y-23657971D02*
X74540225Y-23729400D01*
X74540225Y-23729400D02*
X74325939Y-23800828D01*
X74325939Y-23800828D02*
X74183082Y-23800828D01*
X74183082Y-23800828D02*
X73968796Y-23729400D01*
X73968796Y-23729400D02*
X73825939Y-23586542D01*
X73825939Y-23586542D02*
X73754510Y-23443685D01*
X73754510Y-23443685D02*
X73683082Y-23157971D01*
X73683082Y-23157971D02*
X73683082Y-22943685D01*
X73683082Y-22943685D02*
X73754510Y-22657971D01*
X73754510Y-22657971D02*
X73825939Y-22515114D01*
X73825939Y-22515114D02*
X73968796Y-22372257D01*
X73968796Y-22372257D02*
X74183082Y-22300828D01*
X74183082Y-22300828D02*
X74325939Y-22300828D01*
X74325939Y-22300828D02*
X74540225Y-22372257D01*
X74540225Y-22372257D02*
X74611653Y-22443685D01*
X75968796Y-23800828D02*
X75254510Y-23800828D01*
X75254510Y-23800828D02*
X75254510Y-22300828D01*
X76468796Y-23800828D02*
X76468796Y-22300828D01*
X77325939Y-23800828D02*
X76683082Y-22943685D01*
X77325939Y-22300828D02*
X76468796Y-23157971D01*
X73604510Y-21400828D02*
X73604510Y-19900828D01*
X73604510Y-19900828D02*
X73961653Y-19900828D01*
X73961653Y-19900828D02*
X74175939Y-19972257D01*
X74175939Y-19972257D02*
X74318796Y-20115114D01*
X74318796Y-20115114D02*
X74390225Y-20257971D01*
X74390225Y-20257971D02*
X74461653Y-20543685D01*
X74461653Y-20543685D02*
X74461653Y-20757971D01*
X74461653Y-20757971D02*
X74390225Y-21043685D01*
X74390225Y-21043685D02*
X74318796Y-21186542D01*
X74318796Y-21186542D02*
X74175939Y-21329400D01*
X74175939Y-21329400D02*
X73961653Y-21400828D01*
X73961653Y-21400828D02*
X73604510Y-21400828D01*
X75390225Y-19900828D02*
X75675939Y-19900828D01*
X75675939Y-19900828D02*
X75818796Y-19972257D01*
X75818796Y-19972257D02*
X75961653Y-20115114D01*
X75961653Y-20115114D02*
X76033082Y-20400828D01*
X76033082Y-20400828D02*
X76033082Y-20900828D01*
X76033082Y-20900828D02*
X75961653Y-21186542D01*
X75961653Y-21186542D02*
X75818796Y-21329400D01*
X75818796Y-21329400D02*
X75675939Y-21400828D01*
X75675939Y-21400828D02*
X75390225Y-21400828D01*
X75390225Y-21400828D02*
X75247368Y-21329400D01*
X75247368Y-21329400D02*
X75104510Y-21186542D01*
X75104510Y-21186542D02*
X75033082Y-20900828D01*
X75033082Y-20900828D02*
X75033082Y-20400828D01*
X75033082Y-20400828D02*
X75104510Y-20115114D01*
X75104510Y-20115114D02*
X75247368Y-19972257D01*
X75247368Y-19972257D02*
X75390225Y-19900828D01*
X76675939Y-19900828D02*
X76675939Y-21115114D01*
X76675939Y-21115114D02*
X76747368Y-21257971D01*
X76747368Y-21257971D02*
X76818797Y-21329400D01*
X76818797Y-21329400D02*
X76961654Y-21400828D01*
X76961654Y-21400828D02*
X77247368Y-21400828D01*
X77247368Y-21400828D02*
X77390225Y-21329400D01*
X77390225Y-21329400D02*
X77461654Y-21257971D01*
X77461654Y-21257971D02*
X77533082Y-21115114D01*
X77533082Y-21115114D02*
X77533082Y-19900828D01*
X78033083Y-19900828D02*
X78890226Y-19900828D01*
X78461654Y-21400828D02*
X78461654Y-19900828D01*
X73633082Y-18479400D02*
X73847368Y-18550828D01*
X73847368Y-18550828D02*
X74204510Y-18550828D01*
X74204510Y-18550828D02*
X74347368Y-18479400D01*
X74347368Y-18479400D02*
X74418796Y-18407971D01*
X74418796Y-18407971D02*
X74490225Y-18265114D01*
X74490225Y-18265114D02*
X74490225Y-18122257D01*
X74490225Y-18122257D02*
X74418796Y-17979400D01*
X74418796Y-17979400D02*
X74347368Y-17907971D01*
X74347368Y-17907971D02*
X74204510Y-17836542D01*
X74204510Y-17836542D02*
X73918796Y-17765114D01*
X73918796Y-17765114D02*
X73775939Y-17693685D01*
X73775939Y-17693685D02*
X73704510Y-17622257D01*
X73704510Y-17622257D02*
X73633082Y-17479400D01*
X73633082Y-17479400D02*
X73633082Y-17336542D01*
X73633082Y-17336542D02*
X73704510Y-17193685D01*
X73704510Y-17193685D02*
X73775939Y-17122257D01*
X73775939Y-17122257D02*
X73918796Y-17050828D01*
X73918796Y-17050828D02*
X74275939Y-17050828D01*
X74275939Y-17050828D02*
X74490225Y-17122257D01*
X75990224Y-18407971D02*
X75918796Y-18479400D01*
X75918796Y-18479400D02*
X75704510Y-18550828D01*
X75704510Y-18550828D02*
X75561653Y-18550828D01*
X75561653Y-18550828D02*
X75347367Y-18479400D01*
X75347367Y-18479400D02*
X75204510Y-18336542D01*
X75204510Y-18336542D02*
X75133081Y-18193685D01*
X75133081Y-18193685D02*
X75061653Y-17907971D01*
X75061653Y-17907971D02*
X75061653Y-17693685D01*
X75061653Y-17693685D02*
X75133081Y-17407971D01*
X75133081Y-17407971D02*
X75204510Y-17265114D01*
X75204510Y-17265114D02*
X75347367Y-17122257D01*
X75347367Y-17122257D02*
X75561653Y-17050828D01*
X75561653Y-17050828D02*
X75704510Y-17050828D01*
X75704510Y-17050828D02*
X75918796Y-17122257D01*
X75918796Y-17122257D02*
X75990224Y-17193685D01*
X77347367Y-18550828D02*
X76633081Y-18550828D01*
X76633081Y-18550828D02*
X76633081Y-17050828D01*
X77847367Y-18550828D02*
X77847367Y-17050828D01*
X78704510Y-18550828D02*
X78061653Y-17693685D01*
X78704510Y-17050828D02*
X77847367Y-17907971D01*
X73604510Y-28950828D02*
X73604510Y-27450828D01*
X73604510Y-27450828D02*
X73961653Y-27450828D01*
X73961653Y-27450828D02*
X74175939Y-27522257D01*
X74175939Y-27522257D02*
X74318796Y-27665114D01*
X74318796Y-27665114D02*
X74390225Y-27807971D01*
X74390225Y-27807971D02*
X74461653Y-28093685D01*
X74461653Y-28093685D02*
X74461653Y-28307971D01*
X74461653Y-28307971D02*
X74390225Y-28593685D01*
X74390225Y-28593685D02*
X74318796Y-28736542D01*
X74318796Y-28736542D02*
X74175939Y-28879400D01*
X74175939Y-28879400D02*
X73961653Y-28950828D01*
X73961653Y-28950828D02*
X73604510Y-28950828D01*
X75890225Y-27522257D02*
X75747368Y-27450828D01*
X75747368Y-27450828D02*
X75533082Y-27450828D01*
X75533082Y-27450828D02*
X75318796Y-27522257D01*
X75318796Y-27522257D02*
X75175939Y-27665114D01*
X75175939Y-27665114D02*
X75104510Y-27807971D01*
X75104510Y-27807971D02*
X75033082Y-28093685D01*
X75033082Y-28093685D02*
X75033082Y-28307971D01*
X75033082Y-28307971D02*
X75104510Y-28593685D01*
X75104510Y-28593685D02*
X75175939Y-28736542D01*
X75175939Y-28736542D02*
X75318796Y-28879400D01*
X75318796Y-28879400D02*
X75533082Y-28950828D01*
X75533082Y-28950828D02*
X75675939Y-28950828D01*
X75675939Y-28950828D02*
X75890225Y-28879400D01*
X75890225Y-28879400D02*
X75961653Y-28807971D01*
X75961653Y-28807971D02*
X75961653Y-28307971D01*
X75961653Y-28307971D02*
X75675939Y-28307971D01*
X76604510Y-28950828D02*
X76604510Y-27450828D01*
X76604510Y-27450828D02*
X77461653Y-28950828D01*
X77461653Y-28950828D02*
X77461653Y-27450828D01*
X78175939Y-28950828D02*
X78175939Y-27450828D01*
X78175939Y-27450828D02*
X78533082Y-27450828D01*
X78533082Y-27450828D02*
X78747368Y-27522257D01*
X78747368Y-27522257D02*
X78890225Y-27665114D01*
X78890225Y-27665114D02*
X78961654Y-27807971D01*
X78961654Y-27807971D02*
X79033082Y-28093685D01*
X79033082Y-28093685D02*
X79033082Y-28307971D01*
X79033082Y-28307971D02*
X78961654Y-28593685D01*
X78961654Y-28593685D02*
X78890225Y-28736542D01*
X78890225Y-28736542D02*
X78747368Y-28879400D01*
X78747368Y-28879400D02*
X78533082Y-28950828D01*
X78533082Y-28950828D02*
X78175939Y-28950828D01*
X73554510Y-25779400D02*
X74697368Y-25779400D01*
X74125939Y-26350828D02*
X74125939Y-25207971D01*
X76125939Y-24850828D02*
X75411653Y-24850828D01*
X75411653Y-24850828D02*
X75340225Y-25565114D01*
X75340225Y-25565114D02*
X75411653Y-25493685D01*
X75411653Y-25493685D02*
X75554511Y-25422257D01*
X75554511Y-25422257D02*
X75911653Y-25422257D01*
X75911653Y-25422257D02*
X76054511Y-25493685D01*
X76054511Y-25493685D02*
X76125939Y-25565114D01*
X76125939Y-25565114D02*
X76197368Y-25707971D01*
X76197368Y-25707971D02*
X76197368Y-26065114D01*
X76197368Y-26065114D02*
X76125939Y-26207971D01*
X76125939Y-26207971D02*
X76054511Y-26279400D01*
X76054511Y-26279400D02*
X75911653Y-26350828D01*
X75911653Y-26350828D02*
X75554511Y-26350828D01*
X75554511Y-26350828D02*
X75411653Y-26279400D01*
X75411653Y-26279400D02*
X75340225Y-26207971D01*
X76625939Y-24850828D02*
X77125939Y-26350828D01*
X77125939Y-26350828D02*
X77625939Y-24850828D01*
X78125938Y-26350828D02*
X78125938Y-24850828D01*
X78125938Y-24850828D02*
X78483081Y-24850828D01*
X78483081Y-24850828D02*
X78697367Y-24922257D01*
X78697367Y-24922257D02*
X78840224Y-25065114D01*
X78840224Y-25065114D02*
X78911653Y-25207971D01*
X78911653Y-25207971D02*
X78983081Y-25493685D01*
X78983081Y-25493685D02*
X78983081Y-25707971D01*
X78983081Y-25707971D02*
X78911653Y-25993685D01*
X78911653Y-25993685D02*
X78840224Y-26136542D01*
X78840224Y-26136542D02*
X78697367Y-26279400D01*
X78697367Y-26279400D02*
X78483081Y-26350828D01*
X78483081Y-26350828D02*
X78125938Y-26350828D01*
G36*
X52855512Y-66814713D02*
G01*
X52855512Y-68245000D01*
X53077163Y-68245000D01*
X53068004Y-67251786D01*
X53087421Y-67278897D01*
X53145565Y-67324115D01*
X53159595Y-67334951D01*
X53221900Y-67381611D01*
X53282693Y-67411521D01*
X53342874Y-67364133D01*
X53382711Y-67332752D01*
X53448513Y-67294735D01*
X53477965Y-67286957D01*
X53477965Y-68245000D01*
X53699982Y-68245000D01*
X53699982Y-66830833D01*
X53633436Y-66868294D01*
X53577983Y-66906671D01*
X53516800Y-66954665D01*
X53457254Y-67003872D01*
X53448290Y-67011451D01*
X53390267Y-67058615D01*
X53331878Y-67103064D01*
X53328855Y-67105240D01*
X53267177Y-67145468D01*
X53266207Y-67145907D01*
X52886287Y-66814713D01*
X52855512Y-66814713D01*
G37*
G36*
X54715544Y-68221552D02*
G01*
X54498290Y-68221552D01*
X54498290Y-67730258D01*
X54082466Y-68093325D01*
X54082466Y-68245000D01*
X53860816Y-68245000D01*
X53860816Y-67346674D01*
X54082466Y-67346674D01*
X54082466Y-67815621D01*
X54498290Y-67412986D01*
X54498290Y-67145174D01*
X54433077Y-67170819D01*
X54364555Y-67201229D01*
X54299720Y-67232735D01*
X54230136Y-67266261D01*
X54164898Y-67299780D01*
X54100244Y-67335855D01*
X54082466Y-67346674D01*
X53860816Y-67346674D01*
X53860816Y-67206357D01*
X54715544Y-66783939D01*
X54715544Y-68221552D01*
G37*
G36*
X55902198Y-67545610D02*
G01*
X55902198Y-67576018D01*
X55037944Y-68268447D01*
X54876378Y-68268447D01*
X54876378Y-67961067D01*
X55077145Y-67961067D01*
X55555617Y-67555868D01*
X55077145Y-67168255D01*
X55077145Y-67961067D01*
X54876378Y-67961067D01*
X54876378Y-66861608D01*
X55069452Y-66861608D01*
X55902198Y-67545610D01*
G37*
G36*
X56901273Y-66791266D02*
G01*
X56871598Y-66791266D01*
X56011741Y-67270471D01*
X56073084Y-67313335D01*
X56097103Y-67327623D01*
X56162379Y-67363365D01*
X56225331Y-67396133D01*
X56295650Y-67434190D01*
X56361846Y-67474933D01*
X56414009Y-67519232D01*
X56020900Y-67751507D01*
X56020900Y-67779717D01*
X56871231Y-68268447D01*
X56901273Y-68268447D01*
X56901273Y-68020052D01*
X56667533Y-67902815D01*
X56598501Y-67869505D01*
X56557990Y-67844930D01*
X56495238Y-67806706D01*
X56489846Y-67803164D01*
X56455774Y-67779717D01*
X56889183Y-67500181D01*
X56673028Y-67385509D01*
X56604799Y-67354871D01*
X56554692Y-67330188D01*
X56489549Y-67296423D01*
X56456140Y-67278531D01*
X56490579Y-67256915D01*
X56556048Y-67219439D01*
X56563852Y-67215150D01*
X56626753Y-67176545D01*
X56637491Y-67169354D01*
X56674860Y-67140778D01*
X56901273Y-67020244D01*
X56901273Y-66791266D01*
G37*
G36*
X58668981Y-67247023D02*
G01*
X58645339Y-67264883D01*
X58583251Y-67304176D01*
X58522064Y-67337744D01*
X58455024Y-67372686D01*
X58392651Y-67406251D01*
X58324043Y-67447753D01*
X58266346Y-67495785D01*
X58659822Y-67728060D01*
X58659822Y-67756270D01*
X57809124Y-68245000D01*
X57779448Y-68245000D01*
X57779448Y-67903182D01*
X58013921Y-67903182D01*
X58065945Y-67873140D01*
X58093938Y-67856439D01*
X58157536Y-67818185D01*
X58183979Y-67802401D01*
X58248394Y-67764696D01*
X58292725Y-67739050D01*
X58013921Y-67610090D01*
X58013921Y-67903182D01*
X57779448Y-67903182D01*
X57779448Y-67098646D01*
X57999633Y-67098646D01*
X58013555Y-67365359D01*
X58065945Y-67343377D01*
X58081496Y-67336980D01*
X58149476Y-67307473D01*
X58162589Y-67301547D01*
X58231542Y-67270471D01*
X58285764Y-67248855D01*
X58239968Y-67229438D01*
X58208157Y-67213180D01*
X58141416Y-67179979D01*
X58108594Y-67163743D01*
X58040666Y-67129787D01*
X57999633Y-67098646D01*
X57779448Y-67098646D01*
X57779448Y-66767819D01*
X57808757Y-66767819D01*
X58668981Y-67247023D01*
G37*
G36*
X59238311Y-66791266D02*
G01*
X59238311Y-67216615D01*
X59227686Y-67216615D01*
X58940090Y-66914731D01*
X58887549Y-66966137D01*
X58867916Y-66984706D01*
X58810529Y-67031056D01*
X58793178Y-67042592D01*
X59238311Y-67544511D01*
X59238311Y-68245000D01*
X59447505Y-68245000D01*
X59447505Y-67540115D01*
X59493496Y-67478085D01*
X59536531Y-67430938D01*
X59589767Y-67374749D01*
X59642392Y-67320424D01*
X59700009Y-67261978D01*
X59754518Y-67207456D01*
X59807824Y-67151127D01*
X59862366Y-67098577D01*
X59886409Y-67084357D01*
X59855551Y-67017507D01*
X59835851Y-66998628D01*
X59792254Y-66961259D01*
X59746458Y-66929385D01*
X59446039Y-67201960D01*
X59447505Y-67201960D01*
X59447505Y-66791266D01*
X59238311Y-66791266D01*
G37*
G36*
X61644958Y-66791266D02*
G01*
X61615282Y-66791266D01*
X60755425Y-67270471D01*
X60816768Y-67313335D01*
X60840788Y-67327623D01*
X60906064Y-67363365D01*
X60969016Y-67396133D01*
X61039335Y-67434190D01*
X61105531Y-67474933D01*
X61157693Y-67519232D01*
X60764584Y-67751507D01*
X60764584Y-67779717D01*
X61614916Y-68268447D01*
X61644958Y-68268447D01*
X61644958Y-68020052D01*
X61411217Y-67902815D01*
X61342185Y-67869505D01*
X61301674Y-67844930D01*
X61238923Y-67806706D01*
X61233531Y-67803164D01*
X61199459Y-67779717D01*
X61632868Y-67500181D01*
X61416713Y-67385509D01*
X61348483Y-67354871D01*
X61298377Y-67330188D01*
X61233234Y-67296423D01*
X61199825Y-67278531D01*
X61234263Y-67256915D01*
X61299733Y-67219439D01*
X61307536Y-67215150D01*
X61370438Y-67176545D01*
X61381175Y-67169354D01*
X61418545Y-67140778D01*
X61644958Y-67020244D01*
X61644958Y-66791266D01*
G37*
G36*
X61805059Y-68245000D02*
G01*
X61805059Y-66814713D01*
X62014253Y-66814713D01*
X62014253Y-67955572D01*
X62014986Y-67955572D01*
X62523499Y-67771290D01*
X62591277Y-67771290D01*
X62615184Y-67840646D01*
X62626448Y-67871308D01*
X62653410Y-67940881D01*
X62655024Y-67944947D01*
X61833635Y-68245000D01*
X61805059Y-68245000D01*
G37*
G36*
X64053070Y-67546709D02*
G01*
X64053070Y-67574919D01*
X63403872Y-68297756D01*
X62761270Y-67578949D01*
X62761270Y-67552205D01*
X63071580Y-67552205D01*
X63403872Y-67934689D01*
X63742759Y-67547808D01*
X63408269Y-67189138D01*
X63071580Y-67552205D01*
X62761270Y-67552205D01*
X62761270Y-67551106D01*
X63418527Y-66832299D01*
X64053070Y-67546709D01*
G37*
G36*
X64211339Y-66838161D02*
G01*
X64426762Y-66838161D01*
X64426762Y-67030136D01*
X64829762Y-67683729D01*
X64829762Y-66838161D01*
X65042986Y-66838161D01*
X65042986Y-68245000D01*
X64827564Y-68245000D01*
X64827564Y-67990010D01*
X64422732Y-67385875D01*
X64422732Y-68245000D01*
X64211339Y-68245000D01*
X64211339Y-66838161D01*
G37*
G36*
X65921528Y-66814713D02*
G01*
X65921528Y-68245000D01*
X66143178Y-68245000D01*
X66134019Y-67251786D01*
X66153436Y-67278897D01*
X66211580Y-67324115D01*
X66225610Y-67334951D01*
X66287915Y-67381611D01*
X66348709Y-67411521D01*
X66408889Y-67364133D01*
X66448726Y-67332752D01*
X66514528Y-67294735D01*
X66543981Y-67286957D01*
X66543981Y-68245000D01*
X66765997Y-68245000D01*
X66765997Y-66830833D01*
X66699452Y-66868294D01*
X66643998Y-66906671D01*
X66582815Y-66954665D01*
X66523270Y-67003872D01*
X66514305Y-67011451D01*
X66456282Y-67058615D01*
X66397893Y-67103064D01*
X66394870Y-67105240D01*
X66333193Y-67145468D01*
X66332222Y-67145907D01*
X65952302Y-66814713D01*
X65921528Y-66814713D01*
G37*
G36*
X67781559Y-68221552D02*
G01*
X67564305Y-68221552D01*
X67564305Y-67730258D01*
X67148482Y-68093325D01*
X67148482Y-68245000D01*
X66926831Y-68245000D01*
X66926831Y-67346674D01*
X67148482Y-67346674D01*
X67148482Y-67815621D01*
X67564305Y-67412986D01*
X67564305Y-67145174D01*
X67499092Y-67170819D01*
X67430571Y-67201229D01*
X67365736Y-67232735D01*
X67296152Y-67266261D01*
X67230914Y-67299780D01*
X67166259Y-67335855D01*
X67148482Y-67346674D01*
X66926831Y-67346674D01*
X66926831Y-67206357D01*
X67781559Y-66783939D01*
X67781559Y-68221552D01*
G37*
G36*
X68158182Y-66789434D02*
G01*
X68087861Y-66816841D01*
X68049371Y-66837428D01*
X67998447Y-66868569D01*
X67953384Y-66899344D01*
X68295202Y-67488457D01*
X67940928Y-68117871D01*
X67982556Y-68180176D01*
X67999546Y-68192976D01*
X68066392Y-68226230D01*
X68117149Y-68247930D01*
X68416468Y-67747110D01*
X68430390Y-67747110D01*
X68700401Y-68245000D01*
X68756088Y-68245000D01*
X68794190Y-68217889D01*
X68835589Y-68194075D01*
X68873691Y-68172826D01*
X68908496Y-68150111D01*
X68550191Y-67507875D01*
X68896406Y-66921692D01*
X68718719Y-66810317D01*
X68430757Y-67282927D01*
X68429658Y-67282927D01*
X68158182Y-66789434D01*
G37*
D11*
X24133333Y-44859580D02*
X24085714Y-44907200D01*
X24085714Y-44907200D02*
X23942857Y-44954819D01*
X23942857Y-44954819D02*
X23847619Y-44954819D01*
X23847619Y-44954819D02*
X23704762Y-44907200D01*
X23704762Y-44907200D02*
X23609524Y-44811961D01*
X23609524Y-44811961D02*
X23561905Y-44716723D01*
X23561905Y-44716723D02*
X23514286Y-44526247D01*
X23514286Y-44526247D02*
X23514286Y-44383390D01*
X23514286Y-44383390D02*
X23561905Y-44192914D01*
X23561905Y-44192914D02*
X23609524Y-44097676D01*
X23609524Y-44097676D02*
X23704762Y-44002438D01*
X23704762Y-44002438D02*
X23847619Y-43954819D01*
X23847619Y-43954819D02*
X23942857Y-43954819D01*
X23942857Y-43954819D02*
X24085714Y-44002438D01*
X24085714Y-44002438D02*
X24133333Y-44050057D01*
X24466667Y-43954819D02*
X25085714Y-43954819D01*
X25085714Y-43954819D02*
X24752381Y-44335771D01*
X24752381Y-44335771D02*
X24895238Y-44335771D01*
X24895238Y-44335771D02*
X24990476Y-44383390D01*
X24990476Y-44383390D02*
X25038095Y-44431009D01*
X25038095Y-44431009D02*
X25085714Y-44526247D01*
X25085714Y-44526247D02*
X25085714Y-44764342D01*
X25085714Y-44764342D02*
X25038095Y-44859580D01*
X25038095Y-44859580D02*
X24990476Y-44907200D01*
X24990476Y-44907200D02*
X24895238Y-44954819D01*
X24895238Y-44954819D02*
X24609524Y-44954819D01*
X24609524Y-44954819D02*
X24514286Y-44907200D01*
X24514286Y-44907200D02*
X24466667Y-44859580D01*
X35254819Y-53842857D02*
X34778628Y-54176190D01*
X35254819Y-54414285D02*
X34254819Y-54414285D01*
X34254819Y-54414285D02*
X34254819Y-54033333D01*
X34254819Y-54033333D02*
X34302438Y-53938095D01*
X34302438Y-53938095D02*
X34350057Y-53890476D01*
X34350057Y-53890476D02*
X34445295Y-53842857D01*
X34445295Y-53842857D02*
X34588152Y-53842857D01*
X34588152Y-53842857D02*
X34683390Y-53890476D01*
X34683390Y-53890476D02*
X34731009Y-53938095D01*
X34731009Y-53938095D02*
X34778628Y-54033333D01*
X34778628Y-54033333D02*
X34778628Y-54414285D01*
X35254819Y-52890476D02*
X35254819Y-53461904D01*
X35254819Y-53176190D02*
X34254819Y-53176190D01*
X34254819Y-53176190D02*
X34397676Y-53271428D01*
X34397676Y-53271428D02*
X34492914Y-53366666D01*
X34492914Y-53366666D02*
X34540533Y-53461904D01*
X34350057Y-52509523D02*
X34302438Y-52461904D01*
X34302438Y-52461904D02*
X34254819Y-52366666D01*
X34254819Y-52366666D02*
X34254819Y-52128571D01*
X34254819Y-52128571D02*
X34302438Y-52033333D01*
X34302438Y-52033333D02*
X34350057Y-51985714D01*
X34350057Y-51985714D02*
X34445295Y-51938095D01*
X34445295Y-51938095D02*
X34540533Y-51938095D01*
X34540533Y-51938095D02*
X34683390Y-51985714D01*
X34683390Y-51985714D02*
X35254819Y-52557142D01*
X35254819Y-52557142D02*
X35254819Y-51938095D01*
X49349390Y-47010130D02*
X49349390Y-48338902D01*
X49349390Y-48338902D02*
X49427553Y-48495228D01*
X49427553Y-48495228D02*
X49505716Y-48573392D01*
X49505716Y-48573392D02*
X49662042Y-48651555D01*
X49662042Y-48651555D02*
X49974695Y-48651555D01*
X49974695Y-48651555D02*
X50131021Y-48573392D01*
X50131021Y-48573392D02*
X50209184Y-48495228D01*
X50209184Y-48495228D02*
X50287347Y-48338902D01*
X50287347Y-48338902D02*
X50287347Y-47010130D01*
X51850609Y-47010130D02*
X51068978Y-47010130D01*
X51068978Y-47010130D02*
X50990815Y-47791761D01*
X50990815Y-47791761D02*
X51068978Y-47713597D01*
X51068978Y-47713597D02*
X51225304Y-47635434D01*
X51225304Y-47635434D02*
X51616120Y-47635434D01*
X51616120Y-47635434D02*
X51772446Y-47713597D01*
X51772446Y-47713597D02*
X51850609Y-47791761D01*
X51850609Y-47791761D02*
X51928772Y-47948087D01*
X51928772Y-47948087D02*
X51928772Y-48338902D01*
X51928772Y-48338902D02*
X51850609Y-48495228D01*
X51850609Y-48495228D02*
X51772446Y-48573392D01*
X51772446Y-48573392D02*
X51616120Y-48651555D01*
X51616120Y-48651555D02*
X51225304Y-48651555D01*
X51225304Y-48651555D02*
X51068978Y-48573392D01*
X51068978Y-48573392D02*
X50990815Y-48495228D01*
X27557142Y-46459580D02*
X27509523Y-46507200D01*
X27509523Y-46507200D02*
X27366666Y-46554819D01*
X27366666Y-46554819D02*
X27271428Y-46554819D01*
X27271428Y-46554819D02*
X27128571Y-46507200D01*
X27128571Y-46507200D02*
X27033333Y-46411961D01*
X27033333Y-46411961D02*
X26985714Y-46316723D01*
X26985714Y-46316723D02*
X26938095Y-46126247D01*
X26938095Y-46126247D02*
X26938095Y-45983390D01*
X26938095Y-45983390D02*
X26985714Y-45792914D01*
X26985714Y-45792914D02*
X27033333Y-45697676D01*
X27033333Y-45697676D02*
X27128571Y-45602438D01*
X27128571Y-45602438D02*
X27271428Y-45554819D01*
X27271428Y-45554819D02*
X27366666Y-45554819D01*
X27366666Y-45554819D02*
X27509523Y-45602438D01*
X27509523Y-45602438D02*
X27557142Y-45650057D01*
X28509523Y-46554819D02*
X27938095Y-46554819D01*
X28223809Y-46554819D02*
X28223809Y-45554819D01*
X28223809Y-45554819D02*
X28128571Y-45697676D01*
X28128571Y-45697676D02*
X28033333Y-45792914D01*
X28033333Y-45792914D02*
X27938095Y-45840533D01*
X28890476Y-45650057D02*
X28938095Y-45602438D01*
X28938095Y-45602438D02*
X29033333Y-45554819D01*
X29033333Y-45554819D02*
X29271428Y-45554819D01*
X29271428Y-45554819D02*
X29366666Y-45602438D01*
X29366666Y-45602438D02*
X29414285Y-45650057D01*
X29414285Y-45650057D02*
X29461904Y-45745295D01*
X29461904Y-45745295D02*
X29461904Y-45840533D01*
X29461904Y-45840533D02*
X29414285Y-45983390D01*
X29414285Y-45983390D02*
X28842857Y-46554819D01*
X28842857Y-46554819D02*
X29461904Y-46554819D01*
X19230476Y-43054295D02*
X19230476Y-43701914D01*
X19230476Y-43701914D02*
X19268571Y-43778104D01*
X19268571Y-43778104D02*
X19306666Y-43816200D01*
X19306666Y-43816200D02*
X19382857Y-43854295D01*
X19382857Y-43854295D02*
X19535238Y-43854295D01*
X19535238Y-43854295D02*
X19611428Y-43816200D01*
X19611428Y-43816200D02*
X19649523Y-43778104D01*
X19649523Y-43778104D02*
X19687619Y-43701914D01*
X19687619Y-43701914D02*
X19687619Y-43054295D01*
X20411428Y-43320961D02*
X20411428Y-43854295D01*
X20220952Y-43016200D02*
X20030475Y-43587628D01*
X20030475Y-43587628D02*
X20525714Y-43587628D01*
X8216666Y-60554819D02*
X8216666Y-61269104D01*
X8216666Y-61269104D02*
X8169047Y-61411961D01*
X8169047Y-61411961D02*
X8073809Y-61507200D01*
X8073809Y-61507200D02*
X7930952Y-61554819D01*
X7930952Y-61554819D02*
X7835714Y-61554819D01*
X8740476Y-61554819D02*
X8930952Y-61554819D01*
X8930952Y-61554819D02*
X9026190Y-61507200D01*
X9026190Y-61507200D02*
X9073809Y-61459580D01*
X9073809Y-61459580D02*
X9169047Y-61316723D01*
X9169047Y-61316723D02*
X9216666Y-61126247D01*
X9216666Y-61126247D02*
X9216666Y-60745295D01*
X9216666Y-60745295D02*
X9169047Y-60650057D01*
X9169047Y-60650057D02*
X9121428Y-60602438D01*
X9121428Y-60602438D02*
X9026190Y-60554819D01*
X9026190Y-60554819D02*
X8835714Y-60554819D01*
X8835714Y-60554819D02*
X8740476Y-60602438D01*
X8740476Y-60602438D02*
X8692857Y-60650057D01*
X8692857Y-60650057D02*
X8645238Y-60745295D01*
X8645238Y-60745295D02*
X8645238Y-60983390D01*
X8645238Y-60983390D02*
X8692857Y-61078628D01*
X8692857Y-61078628D02*
X8740476Y-61126247D01*
X8740476Y-61126247D02*
X8835714Y-61173866D01*
X8835714Y-61173866D02*
X9026190Y-61173866D01*
X9026190Y-61173866D02*
X9121428Y-61126247D01*
X9121428Y-61126247D02*
X9169047Y-61078628D01*
X9169047Y-61078628D02*
X9216666Y-60983390D01*
X57557142Y-42959580D02*
X57509523Y-43007200D01*
X57509523Y-43007200D02*
X57366666Y-43054819D01*
X57366666Y-43054819D02*
X57271428Y-43054819D01*
X57271428Y-43054819D02*
X57128571Y-43007200D01*
X57128571Y-43007200D02*
X57033333Y-42911961D01*
X57033333Y-42911961D02*
X56985714Y-42816723D01*
X56985714Y-42816723D02*
X56938095Y-42626247D01*
X56938095Y-42626247D02*
X56938095Y-42483390D01*
X56938095Y-42483390D02*
X56985714Y-42292914D01*
X56985714Y-42292914D02*
X57033333Y-42197676D01*
X57033333Y-42197676D02*
X57128571Y-42102438D01*
X57128571Y-42102438D02*
X57271428Y-42054819D01*
X57271428Y-42054819D02*
X57366666Y-42054819D01*
X57366666Y-42054819D02*
X57509523Y-42102438D01*
X57509523Y-42102438D02*
X57557142Y-42150057D01*
X58509523Y-43054819D02*
X57938095Y-43054819D01*
X58223809Y-43054819D02*
X58223809Y-42054819D01*
X58223809Y-42054819D02*
X58128571Y-42197676D01*
X58128571Y-42197676D02*
X58033333Y-42292914D01*
X58033333Y-42292914D02*
X57938095Y-42340533D01*
X59080952Y-42483390D02*
X58985714Y-42435771D01*
X58985714Y-42435771D02*
X58938095Y-42388152D01*
X58938095Y-42388152D02*
X58890476Y-42292914D01*
X58890476Y-42292914D02*
X58890476Y-42245295D01*
X58890476Y-42245295D02*
X58938095Y-42150057D01*
X58938095Y-42150057D02*
X58985714Y-42102438D01*
X58985714Y-42102438D02*
X59080952Y-42054819D01*
X59080952Y-42054819D02*
X59271428Y-42054819D01*
X59271428Y-42054819D02*
X59366666Y-42102438D01*
X59366666Y-42102438D02*
X59414285Y-42150057D01*
X59414285Y-42150057D02*
X59461904Y-42245295D01*
X59461904Y-42245295D02*
X59461904Y-42292914D01*
X59461904Y-42292914D02*
X59414285Y-42388152D01*
X59414285Y-42388152D02*
X59366666Y-42435771D01*
X59366666Y-42435771D02*
X59271428Y-42483390D01*
X59271428Y-42483390D02*
X59080952Y-42483390D01*
X59080952Y-42483390D02*
X58985714Y-42531009D01*
X58985714Y-42531009D02*
X58938095Y-42578628D01*
X58938095Y-42578628D02*
X58890476Y-42673866D01*
X58890476Y-42673866D02*
X58890476Y-42864342D01*
X58890476Y-42864342D02*
X58938095Y-42959580D01*
X58938095Y-42959580D02*
X58985714Y-43007200D01*
X58985714Y-43007200D02*
X59080952Y-43054819D01*
X59080952Y-43054819D02*
X59271428Y-43054819D01*
X59271428Y-43054819D02*
X59366666Y-43007200D01*
X59366666Y-43007200D02*
X59414285Y-42959580D01*
X59414285Y-42959580D02*
X59461904Y-42864342D01*
X59461904Y-42864342D02*
X59461904Y-42673866D01*
X59461904Y-42673866D02*
X59414285Y-42578628D01*
X59414285Y-42578628D02*
X59366666Y-42531009D01*
X59366666Y-42531009D02*
X59271428Y-42483390D01*
X58157142Y-45959580D02*
X58109523Y-46007200D01*
X58109523Y-46007200D02*
X57966666Y-46054819D01*
X57966666Y-46054819D02*
X57871428Y-46054819D01*
X57871428Y-46054819D02*
X57728571Y-46007200D01*
X57728571Y-46007200D02*
X57633333Y-45911961D01*
X57633333Y-45911961D02*
X57585714Y-45816723D01*
X57585714Y-45816723D02*
X57538095Y-45626247D01*
X57538095Y-45626247D02*
X57538095Y-45483390D01*
X57538095Y-45483390D02*
X57585714Y-45292914D01*
X57585714Y-45292914D02*
X57633333Y-45197676D01*
X57633333Y-45197676D02*
X57728571Y-45102438D01*
X57728571Y-45102438D02*
X57871428Y-45054819D01*
X57871428Y-45054819D02*
X57966666Y-45054819D01*
X57966666Y-45054819D02*
X58109523Y-45102438D01*
X58109523Y-45102438D02*
X58157142Y-45150057D01*
X59109523Y-46054819D02*
X58538095Y-46054819D01*
X58823809Y-46054819D02*
X58823809Y-45054819D01*
X58823809Y-45054819D02*
X58728571Y-45197676D01*
X58728571Y-45197676D02*
X58633333Y-45292914D01*
X58633333Y-45292914D02*
X58538095Y-45340533D01*
X59585714Y-46054819D02*
X59776190Y-46054819D01*
X59776190Y-46054819D02*
X59871428Y-46007200D01*
X59871428Y-46007200D02*
X59919047Y-45959580D01*
X59919047Y-45959580D02*
X60014285Y-45816723D01*
X60014285Y-45816723D02*
X60061904Y-45626247D01*
X60061904Y-45626247D02*
X60061904Y-45245295D01*
X60061904Y-45245295D02*
X60014285Y-45150057D01*
X60014285Y-45150057D02*
X59966666Y-45102438D01*
X59966666Y-45102438D02*
X59871428Y-45054819D01*
X59871428Y-45054819D02*
X59680952Y-45054819D01*
X59680952Y-45054819D02*
X59585714Y-45102438D01*
X59585714Y-45102438D02*
X59538095Y-45150057D01*
X59538095Y-45150057D02*
X59490476Y-45245295D01*
X59490476Y-45245295D02*
X59490476Y-45483390D01*
X59490476Y-45483390D02*
X59538095Y-45578628D01*
X59538095Y-45578628D02*
X59585714Y-45626247D01*
X59585714Y-45626247D02*
X59680952Y-45673866D01*
X59680952Y-45673866D02*
X59871428Y-45673866D01*
X59871428Y-45673866D02*
X59966666Y-45626247D01*
X59966666Y-45626247D02*
X60014285Y-45578628D01*
X60014285Y-45578628D02*
X60061904Y-45483390D01*
X56669524Y-2110896D02*
X56669524Y-3438515D01*
X56669524Y-3438515D02*
X56747619Y-3594705D01*
X56747619Y-3594705D02*
X56825714Y-3672801D01*
X56825714Y-3672801D02*
X56981905Y-3750896D01*
X56981905Y-3750896D02*
X57294286Y-3750896D01*
X57294286Y-3750896D02*
X57450476Y-3672801D01*
X57450476Y-3672801D02*
X57528571Y-3594705D01*
X57528571Y-3594705D02*
X57606667Y-3438515D01*
X57606667Y-3438515D02*
X57606667Y-2110896D01*
X59246666Y-3750896D02*
X58309523Y-3750896D01*
X58778095Y-3750896D02*
X58778095Y-2110896D01*
X58778095Y-2110896D02*
X58621904Y-2345181D01*
X58621904Y-2345181D02*
X58465714Y-2501372D01*
X58465714Y-2501372D02*
X58309523Y-2579467D01*
X60261905Y-2110896D02*
X60418095Y-2110896D01*
X60418095Y-2110896D02*
X60574286Y-2188991D01*
X60574286Y-2188991D02*
X60652381Y-2267086D01*
X60652381Y-2267086D02*
X60730476Y-2423277D01*
X60730476Y-2423277D02*
X60808571Y-2735658D01*
X60808571Y-2735658D02*
X60808571Y-3126134D01*
X60808571Y-3126134D02*
X60730476Y-3438515D01*
X60730476Y-3438515D02*
X60652381Y-3594705D01*
X60652381Y-3594705D02*
X60574286Y-3672801D01*
X60574286Y-3672801D02*
X60418095Y-3750896D01*
X60418095Y-3750896D02*
X60261905Y-3750896D01*
X60261905Y-3750896D02*
X60105714Y-3672801D01*
X60105714Y-3672801D02*
X60027619Y-3594705D01*
X60027619Y-3594705D02*
X59949524Y-3438515D01*
X59949524Y-3438515D02*
X59871428Y-3126134D01*
X59871428Y-3126134D02*
X59871428Y-2735658D01*
X59871428Y-2735658D02*
X59949524Y-2423277D01*
X59949524Y-2423277D02*
X60027619Y-2267086D01*
X60027619Y-2267086D02*
X60105714Y-2188991D01*
X60105714Y-2188991D02*
X60261905Y-2110896D01*
X55398000Y-4918019D02*
X55398000Y-5156114D01*
X55159905Y-5060876D02*
X55398000Y-5156114D01*
X55398000Y-5156114D02*
X55636095Y-5060876D01*
X55255143Y-5346590D02*
X55398000Y-5156114D01*
X55398000Y-5156114D02*
X55540857Y-5346590D01*
X11957142Y-52904819D02*
X11623809Y-52428628D01*
X11385714Y-52904819D02*
X11385714Y-51904819D01*
X11385714Y-51904819D02*
X11766666Y-51904819D01*
X11766666Y-51904819D02*
X11861904Y-51952438D01*
X11861904Y-51952438D02*
X11909523Y-52000057D01*
X11909523Y-52000057D02*
X11957142Y-52095295D01*
X11957142Y-52095295D02*
X11957142Y-52238152D01*
X11957142Y-52238152D02*
X11909523Y-52333390D01*
X11909523Y-52333390D02*
X11861904Y-52381009D01*
X11861904Y-52381009D02*
X11766666Y-52428628D01*
X11766666Y-52428628D02*
X11385714Y-52428628D01*
X12909523Y-52904819D02*
X12338095Y-52904819D01*
X12623809Y-52904819D02*
X12623809Y-51904819D01*
X12623809Y-51904819D02*
X12528571Y-52047676D01*
X12528571Y-52047676D02*
X12433333Y-52142914D01*
X12433333Y-52142914D02*
X12338095Y-52190533D01*
X13861904Y-52904819D02*
X13290476Y-52904819D01*
X13576190Y-52904819D02*
X13576190Y-51904819D01*
X13576190Y-51904819D02*
X13480952Y-52047676D01*
X13480952Y-52047676D02*
X13385714Y-52142914D01*
X13385714Y-52142914D02*
X13290476Y-52190533D01*
X36957142Y-45459580D02*
X36909523Y-45507200D01*
X36909523Y-45507200D02*
X36766666Y-45554819D01*
X36766666Y-45554819D02*
X36671428Y-45554819D01*
X36671428Y-45554819D02*
X36528571Y-45507200D01*
X36528571Y-45507200D02*
X36433333Y-45411961D01*
X36433333Y-45411961D02*
X36385714Y-45316723D01*
X36385714Y-45316723D02*
X36338095Y-45126247D01*
X36338095Y-45126247D02*
X36338095Y-44983390D01*
X36338095Y-44983390D02*
X36385714Y-44792914D01*
X36385714Y-44792914D02*
X36433333Y-44697676D01*
X36433333Y-44697676D02*
X36528571Y-44602438D01*
X36528571Y-44602438D02*
X36671428Y-44554819D01*
X36671428Y-44554819D02*
X36766666Y-44554819D01*
X36766666Y-44554819D02*
X36909523Y-44602438D01*
X36909523Y-44602438D02*
X36957142Y-44650057D01*
X37909523Y-45554819D02*
X37338095Y-45554819D01*
X37623809Y-45554819D02*
X37623809Y-44554819D01*
X37623809Y-44554819D02*
X37528571Y-44697676D01*
X37528571Y-44697676D02*
X37433333Y-44792914D01*
X37433333Y-44792914D02*
X37338095Y-44840533D01*
X38242857Y-44554819D02*
X38861904Y-44554819D01*
X38861904Y-44554819D02*
X38528571Y-44935771D01*
X38528571Y-44935771D02*
X38671428Y-44935771D01*
X38671428Y-44935771D02*
X38766666Y-44983390D01*
X38766666Y-44983390D02*
X38814285Y-45031009D01*
X38814285Y-45031009D02*
X38861904Y-45126247D01*
X38861904Y-45126247D02*
X38861904Y-45364342D01*
X38861904Y-45364342D02*
X38814285Y-45459580D01*
X38814285Y-45459580D02*
X38766666Y-45507200D01*
X38766666Y-45507200D02*
X38671428Y-45554819D01*
X38671428Y-45554819D02*
X38385714Y-45554819D01*
X38385714Y-45554819D02*
X38290476Y-45507200D01*
X38290476Y-45507200D02*
X38242857Y-45459580D01*
X52957142Y-6359580D02*
X52909523Y-6407200D01*
X52909523Y-6407200D02*
X52766666Y-6454819D01*
X52766666Y-6454819D02*
X52671428Y-6454819D01*
X52671428Y-6454819D02*
X52528571Y-6407200D01*
X52528571Y-6407200D02*
X52433333Y-6311961D01*
X52433333Y-6311961D02*
X52385714Y-6216723D01*
X52385714Y-6216723D02*
X52338095Y-6026247D01*
X52338095Y-6026247D02*
X52338095Y-5883390D01*
X52338095Y-5883390D02*
X52385714Y-5692914D01*
X52385714Y-5692914D02*
X52433333Y-5597676D01*
X52433333Y-5597676D02*
X52528571Y-5502438D01*
X52528571Y-5502438D02*
X52671428Y-5454819D01*
X52671428Y-5454819D02*
X52766666Y-5454819D01*
X52766666Y-5454819D02*
X52909523Y-5502438D01*
X52909523Y-5502438D02*
X52957142Y-5550057D01*
X53338095Y-5550057D02*
X53385714Y-5502438D01*
X53385714Y-5502438D02*
X53480952Y-5454819D01*
X53480952Y-5454819D02*
X53719047Y-5454819D01*
X53719047Y-5454819D02*
X53814285Y-5502438D01*
X53814285Y-5502438D02*
X53861904Y-5550057D01*
X53861904Y-5550057D02*
X53909523Y-5645295D01*
X53909523Y-5645295D02*
X53909523Y-5740533D01*
X53909523Y-5740533D02*
X53861904Y-5883390D01*
X53861904Y-5883390D02*
X53290476Y-6454819D01*
X53290476Y-6454819D02*
X53909523Y-6454819D01*
X54528571Y-5454819D02*
X54623809Y-5454819D01*
X54623809Y-5454819D02*
X54719047Y-5502438D01*
X54719047Y-5502438D02*
X54766666Y-5550057D01*
X54766666Y-5550057D02*
X54814285Y-5645295D01*
X54814285Y-5645295D02*
X54861904Y-5835771D01*
X54861904Y-5835771D02*
X54861904Y-6073866D01*
X54861904Y-6073866D02*
X54814285Y-6264342D01*
X54814285Y-6264342D02*
X54766666Y-6359580D01*
X54766666Y-6359580D02*
X54719047Y-6407200D01*
X54719047Y-6407200D02*
X54623809Y-6454819D01*
X54623809Y-6454819D02*
X54528571Y-6454819D01*
X54528571Y-6454819D02*
X54433333Y-6407200D01*
X54433333Y-6407200D02*
X54385714Y-6359580D01*
X54385714Y-6359580D02*
X54338095Y-6264342D01*
X54338095Y-6264342D02*
X54290476Y-6073866D01*
X54290476Y-6073866D02*
X54290476Y-5835771D01*
X54290476Y-5835771D02*
X54338095Y-5645295D01*
X54338095Y-5645295D02*
X54385714Y-5550057D01*
X54385714Y-5550057D02*
X54433333Y-5502438D01*
X54433333Y-5502438D02*
X54528571Y-5454819D01*
X47157142Y-55559580D02*
X47109523Y-55607200D01*
X47109523Y-55607200D02*
X46966666Y-55654819D01*
X46966666Y-55654819D02*
X46871428Y-55654819D01*
X46871428Y-55654819D02*
X46728571Y-55607200D01*
X46728571Y-55607200D02*
X46633333Y-55511961D01*
X46633333Y-55511961D02*
X46585714Y-55416723D01*
X46585714Y-55416723D02*
X46538095Y-55226247D01*
X46538095Y-55226247D02*
X46538095Y-55083390D01*
X46538095Y-55083390D02*
X46585714Y-54892914D01*
X46585714Y-54892914D02*
X46633333Y-54797676D01*
X46633333Y-54797676D02*
X46728571Y-54702438D01*
X46728571Y-54702438D02*
X46871428Y-54654819D01*
X46871428Y-54654819D02*
X46966666Y-54654819D01*
X46966666Y-54654819D02*
X47109523Y-54702438D01*
X47109523Y-54702438D02*
X47157142Y-54750057D01*
X47538095Y-54750057D02*
X47585714Y-54702438D01*
X47585714Y-54702438D02*
X47680952Y-54654819D01*
X47680952Y-54654819D02*
X47919047Y-54654819D01*
X47919047Y-54654819D02*
X48014285Y-54702438D01*
X48014285Y-54702438D02*
X48061904Y-54750057D01*
X48061904Y-54750057D02*
X48109523Y-54845295D01*
X48109523Y-54845295D02*
X48109523Y-54940533D01*
X48109523Y-54940533D02*
X48061904Y-55083390D01*
X48061904Y-55083390D02*
X47490476Y-55654819D01*
X47490476Y-55654819D02*
X48109523Y-55654819D01*
X48442857Y-54654819D02*
X49061904Y-54654819D01*
X49061904Y-54654819D02*
X48728571Y-55035771D01*
X48728571Y-55035771D02*
X48871428Y-55035771D01*
X48871428Y-55035771D02*
X48966666Y-55083390D01*
X48966666Y-55083390D02*
X49014285Y-55131009D01*
X49014285Y-55131009D02*
X49061904Y-55226247D01*
X49061904Y-55226247D02*
X49061904Y-55464342D01*
X49061904Y-55464342D02*
X49014285Y-55559580D01*
X49014285Y-55559580D02*
X48966666Y-55607200D01*
X48966666Y-55607200D02*
X48871428Y-55654819D01*
X48871428Y-55654819D02*
X48585714Y-55654819D01*
X48585714Y-55654819D02*
X48490476Y-55607200D01*
X48490476Y-55607200D02*
X48442857Y-55559580D01*
X34457142Y-56854819D02*
X34123809Y-56378628D01*
X33885714Y-56854819D02*
X33885714Y-55854819D01*
X33885714Y-55854819D02*
X34266666Y-55854819D01*
X34266666Y-55854819D02*
X34361904Y-55902438D01*
X34361904Y-55902438D02*
X34409523Y-55950057D01*
X34409523Y-55950057D02*
X34457142Y-56045295D01*
X34457142Y-56045295D02*
X34457142Y-56188152D01*
X34457142Y-56188152D02*
X34409523Y-56283390D01*
X34409523Y-56283390D02*
X34361904Y-56331009D01*
X34361904Y-56331009D02*
X34266666Y-56378628D01*
X34266666Y-56378628D02*
X33885714Y-56378628D01*
X35409523Y-56854819D02*
X34838095Y-56854819D01*
X35123809Y-56854819D02*
X35123809Y-55854819D01*
X35123809Y-55854819D02*
X35028571Y-55997676D01*
X35028571Y-55997676D02*
X34933333Y-56092914D01*
X34933333Y-56092914D02*
X34838095Y-56140533D01*
X35742857Y-55854819D02*
X36361904Y-55854819D01*
X36361904Y-55854819D02*
X36028571Y-56235771D01*
X36028571Y-56235771D02*
X36171428Y-56235771D01*
X36171428Y-56235771D02*
X36266666Y-56283390D01*
X36266666Y-56283390D02*
X36314285Y-56331009D01*
X36314285Y-56331009D02*
X36361904Y-56426247D01*
X36361904Y-56426247D02*
X36361904Y-56664342D01*
X36361904Y-56664342D02*
X36314285Y-56759580D01*
X36314285Y-56759580D02*
X36266666Y-56807200D01*
X36266666Y-56807200D02*
X36171428Y-56854819D01*
X36171428Y-56854819D02*
X35885714Y-56854819D01*
X35885714Y-56854819D02*
X35790476Y-56807200D01*
X35790476Y-56807200D02*
X35742857Y-56759580D01*
X30257142Y-28054819D02*
X29923809Y-27578628D01*
X29685714Y-28054819D02*
X29685714Y-27054819D01*
X29685714Y-27054819D02*
X30066666Y-27054819D01*
X30066666Y-27054819D02*
X30161904Y-27102438D01*
X30161904Y-27102438D02*
X30209523Y-27150057D01*
X30209523Y-27150057D02*
X30257142Y-27245295D01*
X30257142Y-27245295D02*
X30257142Y-27388152D01*
X30257142Y-27388152D02*
X30209523Y-27483390D01*
X30209523Y-27483390D02*
X30161904Y-27531009D01*
X30161904Y-27531009D02*
X30066666Y-27578628D01*
X30066666Y-27578628D02*
X29685714Y-27578628D01*
X31209523Y-28054819D02*
X30638095Y-28054819D01*
X30923809Y-28054819D02*
X30923809Y-27054819D01*
X30923809Y-27054819D02*
X30828571Y-27197676D01*
X30828571Y-27197676D02*
X30733333Y-27292914D01*
X30733333Y-27292914D02*
X30638095Y-27340533D01*
X31780952Y-27483390D02*
X31685714Y-27435771D01*
X31685714Y-27435771D02*
X31638095Y-27388152D01*
X31638095Y-27388152D02*
X31590476Y-27292914D01*
X31590476Y-27292914D02*
X31590476Y-27245295D01*
X31590476Y-27245295D02*
X31638095Y-27150057D01*
X31638095Y-27150057D02*
X31685714Y-27102438D01*
X31685714Y-27102438D02*
X31780952Y-27054819D01*
X31780952Y-27054819D02*
X31971428Y-27054819D01*
X31971428Y-27054819D02*
X32066666Y-27102438D01*
X32066666Y-27102438D02*
X32114285Y-27150057D01*
X32114285Y-27150057D02*
X32161904Y-27245295D01*
X32161904Y-27245295D02*
X32161904Y-27292914D01*
X32161904Y-27292914D02*
X32114285Y-27388152D01*
X32114285Y-27388152D02*
X32066666Y-27435771D01*
X32066666Y-27435771D02*
X31971428Y-27483390D01*
X31971428Y-27483390D02*
X31780952Y-27483390D01*
X31780952Y-27483390D02*
X31685714Y-27531009D01*
X31685714Y-27531009D02*
X31638095Y-27578628D01*
X31638095Y-27578628D02*
X31590476Y-27673866D01*
X31590476Y-27673866D02*
X31590476Y-27864342D01*
X31590476Y-27864342D02*
X31638095Y-27959580D01*
X31638095Y-27959580D02*
X31685714Y-28007200D01*
X31685714Y-28007200D02*
X31780952Y-28054819D01*
X31780952Y-28054819D02*
X31971428Y-28054819D01*
X31971428Y-28054819D02*
X32066666Y-28007200D01*
X32066666Y-28007200D02*
X32114285Y-27959580D01*
X32114285Y-27959580D02*
X32161904Y-27864342D01*
X32161904Y-27864342D02*
X32161904Y-27673866D01*
X32161904Y-27673866D02*
X32114285Y-27578628D01*
X32114285Y-27578628D02*
X32066666Y-27531009D01*
X32066666Y-27531009D02*
X31971428Y-27483390D01*
X30604819Y-54342857D02*
X30128628Y-54676190D01*
X30604819Y-54914285D02*
X29604819Y-54914285D01*
X29604819Y-54914285D02*
X29604819Y-54533333D01*
X29604819Y-54533333D02*
X29652438Y-54438095D01*
X29652438Y-54438095D02*
X29700057Y-54390476D01*
X29700057Y-54390476D02*
X29795295Y-54342857D01*
X29795295Y-54342857D02*
X29938152Y-54342857D01*
X29938152Y-54342857D02*
X30033390Y-54390476D01*
X30033390Y-54390476D02*
X30081009Y-54438095D01*
X30081009Y-54438095D02*
X30128628Y-54533333D01*
X30128628Y-54533333D02*
X30128628Y-54914285D01*
X30604819Y-53390476D02*
X30604819Y-53961904D01*
X30604819Y-53676190D02*
X29604819Y-53676190D01*
X29604819Y-53676190D02*
X29747676Y-53771428D01*
X29747676Y-53771428D02*
X29842914Y-53866666D01*
X29842914Y-53866666D02*
X29890533Y-53961904D01*
X29604819Y-52771428D02*
X29604819Y-52676190D01*
X29604819Y-52676190D02*
X29652438Y-52580952D01*
X29652438Y-52580952D02*
X29700057Y-52533333D01*
X29700057Y-52533333D02*
X29795295Y-52485714D01*
X29795295Y-52485714D02*
X29985771Y-52438095D01*
X29985771Y-52438095D02*
X30223866Y-52438095D01*
X30223866Y-52438095D02*
X30414342Y-52485714D01*
X30414342Y-52485714D02*
X30509580Y-52533333D01*
X30509580Y-52533333D02*
X30557200Y-52580952D01*
X30557200Y-52580952D02*
X30604819Y-52676190D01*
X30604819Y-52676190D02*
X30604819Y-52771428D01*
X30604819Y-52771428D02*
X30557200Y-52866666D01*
X30557200Y-52866666D02*
X30509580Y-52914285D01*
X30509580Y-52914285D02*
X30414342Y-52961904D01*
X30414342Y-52961904D02*
X30223866Y-53009523D01*
X30223866Y-53009523D02*
X29985771Y-53009523D01*
X29985771Y-53009523D02*
X29795295Y-52961904D01*
X29795295Y-52961904D02*
X29700057Y-52914285D01*
X29700057Y-52914285D02*
X29652438Y-52866666D01*
X29652438Y-52866666D02*
X29604819Y-52771428D01*
X57209580Y-40386666D02*
X57257200Y-40434285D01*
X57257200Y-40434285D02*
X57304819Y-40577142D01*
X57304819Y-40577142D02*
X57304819Y-40672380D01*
X57304819Y-40672380D02*
X57257200Y-40815237D01*
X57257200Y-40815237D02*
X57161961Y-40910475D01*
X57161961Y-40910475D02*
X57066723Y-40958094D01*
X57066723Y-40958094D02*
X56876247Y-41005713D01*
X56876247Y-41005713D02*
X56733390Y-41005713D01*
X56733390Y-41005713D02*
X56542914Y-40958094D01*
X56542914Y-40958094D02*
X56447676Y-40910475D01*
X56447676Y-40910475D02*
X56352438Y-40815237D01*
X56352438Y-40815237D02*
X56304819Y-40672380D01*
X56304819Y-40672380D02*
X56304819Y-40577142D01*
X56304819Y-40577142D02*
X56352438Y-40434285D01*
X56352438Y-40434285D02*
X56400057Y-40386666D01*
X57304819Y-39434285D02*
X57304819Y-40005713D01*
X57304819Y-39719999D02*
X56304819Y-39719999D01*
X56304819Y-39719999D02*
X56447676Y-39815237D01*
X56447676Y-39815237D02*
X56542914Y-39910475D01*
X56542914Y-39910475D02*
X56590533Y-40005713D01*
X36354819Y-32742857D02*
X35878628Y-33076190D01*
X36354819Y-33314285D02*
X35354819Y-33314285D01*
X35354819Y-33314285D02*
X35354819Y-32933333D01*
X35354819Y-32933333D02*
X35402438Y-32838095D01*
X35402438Y-32838095D02*
X35450057Y-32790476D01*
X35450057Y-32790476D02*
X35545295Y-32742857D01*
X35545295Y-32742857D02*
X35688152Y-32742857D01*
X35688152Y-32742857D02*
X35783390Y-32790476D01*
X35783390Y-32790476D02*
X35831009Y-32838095D01*
X35831009Y-32838095D02*
X35878628Y-32933333D01*
X35878628Y-32933333D02*
X35878628Y-33314285D01*
X36354819Y-31790476D02*
X36354819Y-32361904D01*
X36354819Y-32076190D02*
X35354819Y-32076190D01*
X35354819Y-32076190D02*
X35497676Y-32171428D01*
X35497676Y-32171428D02*
X35592914Y-32266666D01*
X35592914Y-32266666D02*
X35640533Y-32361904D01*
X35354819Y-30933333D02*
X35354819Y-31123809D01*
X35354819Y-31123809D02*
X35402438Y-31219047D01*
X35402438Y-31219047D02*
X35450057Y-31266666D01*
X35450057Y-31266666D02*
X35592914Y-31361904D01*
X35592914Y-31361904D02*
X35783390Y-31409523D01*
X35783390Y-31409523D02*
X36164342Y-31409523D01*
X36164342Y-31409523D02*
X36259580Y-31361904D01*
X36259580Y-31361904D02*
X36307200Y-31314285D01*
X36307200Y-31314285D02*
X36354819Y-31219047D01*
X36354819Y-31219047D02*
X36354819Y-31028571D01*
X36354819Y-31028571D02*
X36307200Y-30933333D01*
X36307200Y-30933333D02*
X36259580Y-30885714D01*
X36259580Y-30885714D02*
X36164342Y-30838095D01*
X36164342Y-30838095D02*
X35926247Y-30838095D01*
X35926247Y-30838095D02*
X35831009Y-30885714D01*
X35831009Y-30885714D02*
X35783390Y-30933333D01*
X35783390Y-30933333D02*
X35735771Y-31028571D01*
X35735771Y-31028571D02*
X35735771Y-31219047D01*
X35735771Y-31219047D02*
X35783390Y-31314285D01*
X35783390Y-31314285D02*
X35831009Y-31361904D01*
X35831009Y-31361904D02*
X35926247Y-31409523D01*
X52690476Y-45562295D02*
X52690476Y-46209914D01*
X52690476Y-46209914D02*
X52728571Y-46286104D01*
X52728571Y-46286104D02*
X52766666Y-46324200D01*
X52766666Y-46324200D02*
X52842857Y-46362295D01*
X52842857Y-46362295D02*
X52995238Y-46362295D01*
X52995238Y-46362295D02*
X53071428Y-46324200D01*
X53071428Y-46324200D02*
X53109523Y-46286104D01*
X53109523Y-46286104D02*
X53147619Y-46209914D01*
X53147619Y-46209914D02*
X53147619Y-45562295D01*
X53566666Y-46362295D02*
X53719047Y-46362295D01*
X53719047Y-46362295D02*
X53795237Y-46324200D01*
X53795237Y-46324200D02*
X53833333Y-46286104D01*
X53833333Y-46286104D02*
X53909523Y-46171819D01*
X53909523Y-46171819D02*
X53947618Y-46019438D01*
X53947618Y-46019438D02*
X53947618Y-45714676D01*
X53947618Y-45714676D02*
X53909523Y-45638485D01*
X53909523Y-45638485D02*
X53871428Y-45600390D01*
X53871428Y-45600390D02*
X53795237Y-45562295D01*
X53795237Y-45562295D02*
X53642856Y-45562295D01*
X53642856Y-45562295D02*
X53566666Y-45600390D01*
X53566666Y-45600390D02*
X53528571Y-45638485D01*
X53528571Y-45638485D02*
X53490475Y-45714676D01*
X53490475Y-45714676D02*
X53490475Y-45905152D01*
X53490475Y-45905152D02*
X53528571Y-45981342D01*
X53528571Y-45981342D02*
X53566666Y-46019438D01*
X53566666Y-46019438D02*
X53642856Y-46057533D01*
X53642856Y-46057533D02*
X53795237Y-46057533D01*
X53795237Y-46057533D02*
X53871428Y-46019438D01*
X53871428Y-46019438D02*
X53909523Y-45981342D01*
X53909523Y-45981342D02*
X53947618Y-45905152D01*
X43849390Y-18910130D02*
X43849390Y-20238902D01*
X43849390Y-20238902D02*
X43927553Y-20395228D01*
X43927553Y-20395228D02*
X44005716Y-20473392D01*
X44005716Y-20473392D02*
X44162042Y-20551555D01*
X44162042Y-20551555D02*
X44474695Y-20551555D01*
X44474695Y-20551555D02*
X44631021Y-20473392D01*
X44631021Y-20473392D02*
X44709184Y-20395228D01*
X44709184Y-20395228D02*
X44787347Y-20238902D01*
X44787347Y-20238902D02*
X44787347Y-18910130D01*
X45412652Y-18910130D02*
X46506935Y-18910130D01*
X46506935Y-18910130D02*
X45803467Y-20551555D01*
X32804819Y-49422857D02*
X32328628Y-49756190D01*
X32804819Y-49994285D02*
X31804819Y-49994285D01*
X31804819Y-49994285D02*
X31804819Y-49613333D01*
X31804819Y-49613333D02*
X31852438Y-49518095D01*
X31852438Y-49518095D02*
X31900057Y-49470476D01*
X31900057Y-49470476D02*
X31995295Y-49422857D01*
X31995295Y-49422857D02*
X32138152Y-49422857D01*
X32138152Y-49422857D02*
X32233390Y-49470476D01*
X32233390Y-49470476D02*
X32281009Y-49518095D01*
X32281009Y-49518095D02*
X32328628Y-49613333D01*
X32328628Y-49613333D02*
X32328628Y-49994285D01*
X32804819Y-48470476D02*
X32804819Y-49041904D01*
X32804819Y-48756190D02*
X31804819Y-48756190D01*
X31804819Y-48756190D02*
X31947676Y-48851428D01*
X31947676Y-48851428D02*
X32042914Y-48946666D01*
X32042914Y-48946666D02*
X32090533Y-49041904D01*
X32138152Y-47613333D02*
X32804819Y-47613333D01*
X31757200Y-47851428D02*
X32471485Y-48089523D01*
X32471485Y-48089523D02*
X32471485Y-47470476D01*
X54559580Y-40366666D02*
X54607200Y-40414285D01*
X54607200Y-40414285D02*
X54654819Y-40557142D01*
X54654819Y-40557142D02*
X54654819Y-40652380D01*
X54654819Y-40652380D02*
X54607200Y-40795237D01*
X54607200Y-40795237D02*
X54511961Y-40890475D01*
X54511961Y-40890475D02*
X54416723Y-40938094D01*
X54416723Y-40938094D02*
X54226247Y-40985713D01*
X54226247Y-40985713D02*
X54083390Y-40985713D01*
X54083390Y-40985713D02*
X53892914Y-40938094D01*
X53892914Y-40938094D02*
X53797676Y-40890475D01*
X53797676Y-40890475D02*
X53702438Y-40795237D01*
X53702438Y-40795237D02*
X53654819Y-40652380D01*
X53654819Y-40652380D02*
X53654819Y-40557142D01*
X53654819Y-40557142D02*
X53702438Y-40414285D01*
X53702438Y-40414285D02*
X53750057Y-40366666D01*
X53750057Y-39985713D02*
X53702438Y-39938094D01*
X53702438Y-39938094D02*
X53654819Y-39842856D01*
X53654819Y-39842856D02*
X53654819Y-39604761D01*
X53654819Y-39604761D02*
X53702438Y-39509523D01*
X53702438Y-39509523D02*
X53750057Y-39461904D01*
X53750057Y-39461904D02*
X53845295Y-39414285D01*
X53845295Y-39414285D02*
X53940533Y-39414285D01*
X53940533Y-39414285D02*
X54083390Y-39461904D01*
X54083390Y-39461904D02*
X54654819Y-40033332D01*
X54654819Y-40033332D02*
X54654819Y-39414285D01*
X21857142Y-60659580D02*
X21809523Y-60707200D01*
X21809523Y-60707200D02*
X21666666Y-60754819D01*
X21666666Y-60754819D02*
X21571428Y-60754819D01*
X21571428Y-60754819D02*
X21428571Y-60707200D01*
X21428571Y-60707200D02*
X21333333Y-60611961D01*
X21333333Y-60611961D02*
X21285714Y-60516723D01*
X21285714Y-60516723D02*
X21238095Y-60326247D01*
X21238095Y-60326247D02*
X21238095Y-60183390D01*
X21238095Y-60183390D02*
X21285714Y-59992914D01*
X21285714Y-59992914D02*
X21333333Y-59897676D01*
X21333333Y-59897676D02*
X21428571Y-59802438D01*
X21428571Y-59802438D02*
X21571428Y-59754819D01*
X21571428Y-59754819D02*
X21666666Y-59754819D01*
X21666666Y-59754819D02*
X21809523Y-59802438D01*
X21809523Y-59802438D02*
X21857142Y-59850057D01*
X22238095Y-59850057D02*
X22285714Y-59802438D01*
X22285714Y-59802438D02*
X22380952Y-59754819D01*
X22380952Y-59754819D02*
X22619047Y-59754819D01*
X22619047Y-59754819D02*
X22714285Y-59802438D01*
X22714285Y-59802438D02*
X22761904Y-59850057D01*
X22761904Y-59850057D02*
X22809523Y-59945295D01*
X22809523Y-59945295D02*
X22809523Y-60040533D01*
X22809523Y-60040533D02*
X22761904Y-60183390D01*
X22761904Y-60183390D02*
X22190476Y-60754819D01*
X22190476Y-60754819D02*
X22809523Y-60754819D01*
X23761904Y-60754819D02*
X23190476Y-60754819D01*
X23476190Y-60754819D02*
X23476190Y-59754819D01*
X23476190Y-59754819D02*
X23380952Y-59897676D01*
X23380952Y-59897676D02*
X23285714Y-59992914D01*
X23285714Y-59992914D02*
X23190476Y-60040533D01*
X45457142Y-29459580D02*
X45409523Y-29507200D01*
X45409523Y-29507200D02*
X45266666Y-29554819D01*
X45266666Y-29554819D02*
X45171428Y-29554819D01*
X45171428Y-29554819D02*
X45028571Y-29507200D01*
X45028571Y-29507200D02*
X44933333Y-29411961D01*
X44933333Y-29411961D02*
X44885714Y-29316723D01*
X44885714Y-29316723D02*
X44838095Y-29126247D01*
X44838095Y-29126247D02*
X44838095Y-28983390D01*
X44838095Y-28983390D02*
X44885714Y-28792914D01*
X44885714Y-28792914D02*
X44933333Y-28697676D01*
X44933333Y-28697676D02*
X45028571Y-28602438D01*
X45028571Y-28602438D02*
X45171428Y-28554819D01*
X45171428Y-28554819D02*
X45266666Y-28554819D01*
X45266666Y-28554819D02*
X45409523Y-28602438D01*
X45409523Y-28602438D02*
X45457142Y-28650057D01*
X45790476Y-28554819D02*
X46409523Y-28554819D01*
X46409523Y-28554819D02*
X46076190Y-28935771D01*
X46076190Y-28935771D02*
X46219047Y-28935771D01*
X46219047Y-28935771D02*
X46314285Y-28983390D01*
X46314285Y-28983390D02*
X46361904Y-29031009D01*
X46361904Y-29031009D02*
X46409523Y-29126247D01*
X46409523Y-29126247D02*
X46409523Y-29364342D01*
X46409523Y-29364342D02*
X46361904Y-29459580D01*
X46361904Y-29459580D02*
X46314285Y-29507200D01*
X46314285Y-29507200D02*
X46219047Y-29554819D01*
X46219047Y-29554819D02*
X45933333Y-29554819D01*
X45933333Y-29554819D02*
X45838095Y-29507200D01*
X45838095Y-29507200D02*
X45790476Y-29459580D01*
X47028571Y-28554819D02*
X47123809Y-28554819D01*
X47123809Y-28554819D02*
X47219047Y-28602438D01*
X47219047Y-28602438D02*
X47266666Y-28650057D01*
X47266666Y-28650057D02*
X47314285Y-28745295D01*
X47314285Y-28745295D02*
X47361904Y-28935771D01*
X47361904Y-28935771D02*
X47361904Y-29173866D01*
X47361904Y-29173866D02*
X47314285Y-29364342D01*
X47314285Y-29364342D02*
X47266666Y-29459580D01*
X47266666Y-29459580D02*
X47219047Y-29507200D01*
X47219047Y-29507200D02*
X47123809Y-29554819D01*
X47123809Y-29554819D02*
X47028571Y-29554819D01*
X47028571Y-29554819D02*
X46933333Y-29507200D01*
X46933333Y-29507200D02*
X46885714Y-29459580D01*
X46885714Y-29459580D02*
X46838095Y-29364342D01*
X46838095Y-29364342D02*
X46790476Y-29173866D01*
X46790476Y-29173866D02*
X46790476Y-28935771D01*
X46790476Y-28935771D02*
X46838095Y-28745295D01*
X46838095Y-28745295D02*
X46885714Y-28650057D01*
X46885714Y-28650057D02*
X46933333Y-28602438D01*
X46933333Y-28602438D02*
X47028571Y-28554819D01*
X15833333Y-47859580D02*
X15785714Y-47907200D01*
X15785714Y-47907200D02*
X15642857Y-47954819D01*
X15642857Y-47954819D02*
X15547619Y-47954819D01*
X15547619Y-47954819D02*
X15404762Y-47907200D01*
X15404762Y-47907200D02*
X15309524Y-47811961D01*
X15309524Y-47811961D02*
X15261905Y-47716723D01*
X15261905Y-47716723D02*
X15214286Y-47526247D01*
X15214286Y-47526247D02*
X15214286Y-47383390D01*
X15214286Y-47383390D02*
X15261905Y-47192914D01*
X15261905Y-47192914D02*
X15309524Y-47097676D01*
X15309524Y-47097676D02*
X15404762Y-47002438D01*
X15404762Y-47002438D02*
X15547619Y-46954819D01*
X15547619Y-46954819D02*
X15642857Y-46954819D01*
X15642857Y-46954819D02*
X15785714Y-47002438D01*
X15785714Y-47002438D02*
X15833333Y-47050057D01*
X16690476Y-47288152D02*
X16690476Y-47954819D01*
X16452381Y-46907200D02*
X16214286Y-47621485D01*
X16214286Y-47621485D02*
X16833333Y-47621485D01*
X26749390Y-35110130D02*
X26749390Y-36438902D01*
X26749390Y-36438902D02*
X26827553Y-36595228D01*
X26827553Y-36595228D02*
X26905716Y-36673392D01*
X26905716Y-36673392D02*
X27062042Y-36751555D01*
X27062042Y-36751555D02*
X27374695Y-36751555D01*
X27374695Y-36751555D02*
X27531021Y-36673392D01*
X27531021Y-36673392D02*
X27609184Y-36595228D01*
X27609184Y-36595228D02*
X27687347Y-36438902D01*
X27687347Y-36438902D02*
X27687347Y-35110130D01*
X29172446Y-35110130D02*
X28859793Y-35110130D01*
X28859793Y-35110130D02*
X28703467Y-35188293D01*
X28703467Y-35188293D02*
X28625304Y-35266456D01*
X28625304Y-35266456D02*
X28468978Y-35500945D01*
X28468978Y-35500945D02*
X28390815Y-35813597D01*
X28390815Y-35813597D02*
X28390815Y-36438902D01*
X28390815Y-36438902D02*
X28468978Y-36595228D01*
X28468978Y-36595228D02*
X28547141Y-36673392D01*
X28547141Y-36673392D02*
X28703467Y-36751555D01*
X28703467Y-36751555D02*
X29016120Y-36751555D01*
X29016120Y-36751555D02*
X29172446Y-36673392D01*
X29172446Y-36673392D02*
X29250609Y-36595228D01*
X29250609Y-36595228D02*
X29328772Y-36438902D01*
X29328772Y-36438902D02*
X29328772Y-36048087D01*
X29328772Y-36048087D02*
X29250609Y-35891761D01*
X29250609Y-35891761D02*
X29172446Y-35813597D01*
X29172446Y-35813597D02*
X29016120Y-35735434D01*
X29016120Y-35735434D02*
X28703467Y-35735434D01*
X28703467Y-35735434D02*
X28547141Y-35813597D01*
X28547141Y-35813597D02*
X28468978Y-35891761D01*
X28468978Y-35891761D02*
X28390815Y-36048087D01*
X59161905Y-15654819D02*
X59161905Y-16464342D01*
X59161905Y-16464342D02*
X59209524Y-16559580D01*
X59209524Y-16559580D02*
X59257143Y-16607200D01*
X59257143Y-16607200D02*
X59352381Y-16654819D01*
X59352381Y-16654819D02*
X59542857Y-16654819D01*
X59542857Y-16654819D02*
X59638095Y-16607200D01*
X59638095Y-16607200D02*
X59685714Y-16559580D01*
X59685714Y-16559580D02*
X59733333Y-16464342D01*
X59733333Y-16464342D02*
X59733333Y-15654819D01*
X60733333Y-16654819D02*
X60161905Y-16654819D01*
X60447619Y-16654819D02*
X60447619Y-15654819D01*
X60447619Y-15654819D02*
X60352381Y-15797676D01*
X60352381Y-15797676D02*
X60257143Y-15892914D01*
X60257143Y-15892914D02*
X60161905Y-15940533D01*
X61066667Y-15654819D02*
X61685714Y-15654819D01*
X61685714Y-15654819D02*
X61352381Y-16035771D01*
X61352381Y-16035771D02*
X61495238Y-16035771D01*
X61495238Y-16035771D02*
X61590476Y-16083390D01*
X61590476Y-16083390D02*
X61638095Y-16131009D01*
X61638095Y-16131009D02*
X61685714Y-16226247D01*
X61685714Y-16226247D02*
X61685714Y-16464342D01*
X61685714Y-16464342D02*
X61638095Y-16559580D01*
X61638095Y-16559580D02*
X61590476Y-16607200D01*
X61590476Y-16607200D02*
X61495238Y-16654819D01*
X61495238Y-16654819D02*
X61209524Y-16654819D01*
X61209524Y-16654819D02*
X61114286Y-16607200D01*
X61114286Y-16607200D02*
X61066667Y-16559580D01*
X26513095Y-54019819D02*
X26513095Y-54829342D01*
X26513095Y-54829342D02*
X26560714Y-54924580D01*
X26560714Y-54924580D02*
X26608333Y-54972200D01*
X26608333Y-54972200D02*
X26703571Y-55019819D01*
X26703571Y-55019819D02*
X26894047Y-55019819D01*
X26894047Y-55019819D02*
X26989285Y-54972200D01*
X26989285Y-54972200D02*
X27036904Y-54924580D01*
X27036904Y-54924580D02*
X27084523Y-54829342D01*
X27084523Y-54829342D02*
X27084523Y-54019819D01*
X27465476Y-54019819D02*
X28084523Y-54019819D01*
X28084523Y-54019819D02*
X27751190Y-54400771D01*
X27751190Y-54400771D02*
X27894047Y-54400771D01*
X27894047Y-54400771D02*
X27989285Y-54448390D01*
X27989285Y-54448390D02*
X28036904Y-54496009D01*
X28036904Y-54496009D02*
X28084523Y-54591247D01*
X28084523Y-54591247D02*
X28084523Y-54829342D01*
X28084523Y-54829342D02*
X28036904Y-54924580D01*
X28036904Y-54924580D02*
X27989285Y-54972200D01*
X27989285Y-54972200D02*
X27894047Y-55019819D01*
X27894047Y-55019819D02*
X27608333Y-55019819D01*
X27608333Y-55019819D02*
X27513095Y-54972200D01*
X27513095Y-54972200D02*
X27465476Y-54924580D01*
X30057142Y-29554819D02*
X29723809Y-29078628D01*
X29485714Y-29554819D02*
X29485714Y-28554819D01*
X29485714Y-28554819D02*
X29866666Y-28554819D01*
X29866666Y-28554819D02*
X29961904Y-28602438D01*
X29961904Y-28602438D02*
X30009523Y-28650057D01*
X30009523Y-28650057D02*
X30057142Y-28745295D01*
X30057142Y-28745295D02*
X30057142Y-28888152D01*
X30057142Y-28888152D02*
X30009523Y-28983390D01*
X30009523Y-28983390D02*
X29961904Y-29031009D01*
X29961904Y-29031009D02*
X29866666Y-29078628D01*
X29866666Y-29078628D02*
X29485714Y-29078628D01*
X31009523Y-29554819D02*
X30438095Y-29554819D01*
X30723809Y-29554819D02*
X30723809Y-28554819D01*
X30723809Y-28554819D02*
X30628571Y-28697676D01*
X30628571Y-28697676D02*
X30533333Y-28792914D01*
X30533333Y-28792914D02*
X30438095Y-28840533D01*
X31342857Y-28554819D02*
X32009523Y-28554819D01*
X32009523Y-28554819D02*
X31580952Y-29554819D01*
X9533333Y-52904819D02*
X9200000Y-52428628D01*
X8961905Y-52904819D02*
X8961905Y-51904819D01*
X8961905Y-51904819D02*
X9342857Y-51904819D01*
X9342857Y-51904819D02*
X9438095Y-51952438D01*
X9438095Y-51952438D02*
X9485714Y-52000057D01*
X9485714Y-52000057D02*
X9533333Y-52095295D01*
X9533333Y-52095295D02*
X9533333Y-52238152D01*
X9533333Y-52238152D02*
X9485714Y-52333390D01*
X9485714Y-52333390D02*
X9438095Y-52381009D01*
X9438095Y-52381009D02*
X9342857Y-52428628D01*
X9342857Y-52428628D02*
X8961905Y-52428628D01*
X10104762Y-52333390D02*
X10009524Y-52285771D01*
X10009524Y-52285771D02*
X9961905Y-52238152D01*
X9961905Y-52238152D02*
X9914286Y-52142914D01*
X9914286Y-52142914D02*
X9914286Y-52095295D01*
X9914286Y-52095295D02*
X9961905Y-52000057D01*
X9961905Y-52000057D02*
X10009524Y-51952438D01*
X10009524Y-51952438D02*
X10104762Y-51904819D01*
X10104762Y-51904819D02*
X10295238Y-51904819D01*
X10295238Y-51904819D02*
X10390476Y-51952438D01*
X10390476Y-51952438D02*
X10438095Y-52000057D01*
X10438095Y-52000057D02*
X10485714Y-52095295D01*
X10485714Y-52095295D02*
X10485714Y-52142914D01*
X10485714Y-52142914D02*
X10438095Y-52238152D01*
X10438095Y-52238152D02*
X10390476Y-52285771D01*
X10390476Y-52285771D02*
X10295238Y-52333390D01*
X10295238Y-52333390D02*
X10104762Y-52333390D01*
X10104762Y-52333390D02*
X10009524Y-52381009D01*
X10009524Y-52381009D02*
X9961905Y-52428628D01*
X9961905Y-52428628D02*
X9914286Y-52523866D01*
X9914286Y-52523866D02*
X9914286Y-52714342D01*
X9914286Y-52714342D02*
X9961905Y-52809580D01*
X9961905Y-52809580D02*
X10009524Y-52857200D01*
X10009524Y-52857200D02*
X10104762Y-52904819D01*
X10104762Y-52904819D02*
X10295238Y-52904819D01*
X10295238Y-52904819D02*
X10390476Y-52857200D01*
X10390476Y-52857200D02*
X10438095Y-52809580D01*
X10438095Y-52809580D02*
X10485714Y-52714342D01*
X10485714Y-52714342D02*
X10485714Y-52523866D01*
X10485714Y-52523866D02*
X10438095Y-52428628D01*
X10438095Y-52428628D02*
X10390476Y-52381009D01*
X10390476Y-52381009D02*
X10295238Y-52333390D01*
X46357142Y-44859580D02*
X46309523Y-44907200D01*
X46309523Y-44907200D02*
X46166666Y-44954819D01*
X46166666Y-44954819D02*
X46071428Y-44954819D01*
X46071428Y-44954819D02*
X45928571Y-44907200D01*
X45928571Y-44907200D02*
X45833333Y-44811961D01*
X45833333Y-44811961D02*
X45785714Y-44716723D01*
X45785714Y-44716723D02*
X45738095Y-44526247D01*
X45738095Y-44526247D02*
X45738095Y-44383390D01*
X45738095Y-44383390D02*
X45785714Y-44192914D01*
X45785714Y-44192914D02*
X45833333Y-44097676D01*
X45833333Y-44097676D02*
X45928571Y-44002438D01*
X45928571Y-44002438D02*
X46071428Y-43954819D01*
X46071428Y-43954819D02*
X46166666Y-43954819D01*
X46166666Y-43954819D02*
X46309523Y-44002438D01*
X46309523Y-44002438D02*
X46357142Y-44050057D01*
X47309523Y-44954819D02*
X46738095Y-44954819D01*
X47023809Y-44954819D02*
X47023809Y-43954819D01*
X47023809Y-43954819D02*
X46928571Y-44097676D01*
X46928571Y-44097676D02*
X46833333Y-44192914D01*
X46833333Y-44192914D02*
X46738095Y-44240533D01*
X47642857Y-43954819D02*
X48309523Y-43954819D01*
X48309523Y-43954819D02*
X47880952Y-44954819D01*
X38867759Y-23510130D02*
X38867759Y-24838902D01*
X38867759Y-24838902D02*
X38945922Y-24995228D01*
X38945922Y-24995228D02*
X39024085Y-25073392D01*
X39024085Y-25073392D02*
X39180411Y-25151555D01*
X39180411Y-25151555D02*
X39493064Y-25151555D01*
X39493064Y-25151555D02*
X39649390Y-25073392D01*
X39649390Y-25073392D02*
X39727553Y-24995228D01*
X39727553Y-24995228D02*
X39805716Y-24838902D01*
X39805716Y-24838902D02*
X39805716Y-23510130D01*
X41447141Y-25151555D02*
X40509184Y-25151555D01*
X40978162Y-25151555D02*
X40978162Y-23510130D01*
X40978162Y-23510130D02*
X40821836Y-23744619D01*
X40821836Y-23744619D02*
X40665510Y-23900945D01*
X40665510Y-23900945D02*
X40509184Y-23979108D01*
X42072446Y-23666456D02*
X42150609Y-23588293D01*
X42150609Y-23588293D02*
X42306935Y-23510130D01*
X42306935Y-23510130D02*
X42697751Y-23510130D01*
X42697751Y-23510130D02*
X42854077Y-23588293D01*
X42854077Y-23588293D02*
X42932240Y-23666456D01*
X42932240Y-23666456D02*
X43010403Y-23822782D01*
X43010403Y-23822782D02*
X43010403Y-23979108D01*
X43010403Y-23979108D02*
X42932240Y-24213597D01*
X42932240Y-24213597D02*
X41994283Y-25151555D01*
X41994283Y-25151555D02*
X43010403Y-25151555D01*
X41254819Y-20842857D02*
X40778628Y-21176190D01*
X41254819Y-21414285D02*
X40254819Y-21414285D01*
X40254819Y-21414285D02*
X40254819Y-21033333D01*
X40254819Y-21033333D02*
X40302438Y-20938095D01*
X40302438Y-20938095D02*
X40350057Y-20890476D01*
X40350057Y-20890476D02*
X40445295Y-20842857D01*
X40445295Y-20842857D02*
X40588152Y-20842857D01*
X40588152Y-20842857D02*
X40683390Y-20890476D01*
X40683390Y-20890476D02*
X40731009Y-20938095D01*
X40731009Y-20938095D02*
X40778628Y-21033333D01*
X40778628Y-21033333D02*
X40778628Y-21414285D01*
X41254819Y-19890476D02*
X41254819Y-20461904D01*
X41254819Y-20176190D02*
X40254819Y-20176190D01*
X40254819Y-20176190D02*
X40397676Y-20271428D01*
X40397676Y-20271428D02*
X40492914Y-20366666D01*
X40492914Y-20366666D02*
X40540533Y-20461904D01*
X41254819Y-19414285D02*
X41254819Y-19223809D01*
X41254819Y-19223809D02*
X41207200Y-19128571D01*
X41207200Y-19128571D02*
X41159580Y-19080952D01*
X41159580Y-19080952D02*
X41016723Y-18985714D01*
X41016723Y-18985714D02*
X40826247Y-18938095D01*
X40826247Y-18938095D02*
X40445295Y-18938095D01*
X40445295Y-18938095D02*
X40350057Y-18985714D01*
X40350057Y-18985714D02*
X40302438Y-19033333D01*
X40302438Y-19033333D02*
X40254819Y-19128571D01*
X40254819Y-19128571D02*
X40254819Y-19319047D01*
X40254819Y-19319047D02*
X40302438Y-19414285D01*
X40302438Y-19414285D02*
X40350057Y-19461904D01*
X40350057Y-19461904D02*
X40445295Y-19509523D01*
X40445295Y-19509523D02*
X40683390Y-19509523D01*
X40683390Y-19509523D02*
X40778628Y-19461904D01*
X40778628Y-19461904D02*
X40826247Y-19414285D01*
X40826247Y-19414285D02*
X40873866Y-19319047D01*
X40873866Y-19319047D02*
X40873866Y-19128571D01*
X40873866Y-19128571D02*
X40826247Y-19033333D01*
X40826247Y-19033333D02*
X40778628Y-18985714D01*
X40778628Y-18985714D02*
X40683390Y-18938095D01*
X52957142Y-23659580D02*
X52909523Y-23707200D01*
X52909523Y-23707200D02*
X52766666Y-23754819D01*
X52766666Y-23754819D02*
X52671428Y-23754819D01*
X52671428Y-23754819D02*
X52528571Y-23707200D01*
X52528571Y-23707200D02*
X52433333Y-23611961D01*
X52433333Y-23611961D02*
X52385714Y-23516723D01*
X52385714Y-23516723D02*
X52338095Y-23326247D01*
X52338095Y-23326247D02*
X52338095Y-23183390D01*
X52338095Y-23183390D02*
X52385714Y-22992914D01*
X52385714Y-22992914D02*
X52433333Y-22897676D01*
X52433333Y-22897676D02*
X52528571Y-22802438D01*
X52528571Y-22802438D02*
X52671428Y-22754819D01*
X52671428Y-22754819D02*
X52766666Y-22754819D01*
X52766666Y-22754819D02*
X52909523Y-22802438D01*
X52909523Y-22802438D02*
X52957142Y-22850057D01*
X53909523Y-23754819D02*
X53338095Y-23754819D01*
X53623809Y-23754819D02*
X53623809Y-22754819D01*
X53623809Y-22754819D02*
X53528571Y-22897676D01*
X53528571Y-22897676D02*
X53433333Y-22992914D01*
X53433333Y-22992914D02*
X53338095Y-23040533D01*
X54766666Y-23088152D02*
X54766666Y-23754819D01*
X54528571Y-22707200D02*
X54290476Y-23421485D01*
X54290476Y-23421485D02*
X54909523Y-23421485D01*
X37257142Y-18959580D02*
X37209523Y-19007200D01*
X37209523Y-19007200D02*
X37066666Y-19054819D01*
X37066666Y-19054819D02*
X36971428Y-19054819D01*
X36971428Y-19054819D02*
X36828571Y-19007200D01*
X36828571Y-19007200D02*
X36733333Y-18911961D01*
X36733333Y-18911961D02*
X36685714Y-18816723D01*
X36685714Y-18816723D02*
X36638095Y-18626247D01*
X36638095Y-18626247D02*
X36638095Y-18483390D01*
X36638095Y-18483390D02*
X36685714Y-18292914D01*
X36685714Y-18292914D02*
X36733333Y-18197676D01*
X36733333Y-18197676D02*
X36828571Y-18102438D01*
X36828571Y-18102438D02*
X36971428Y-18054819D01*
X36971428Y-18054819D02*
X37066666Y-18054819D01*
X37066666Y-18054819D02*
X37209523Y-18102438D01*
X37209523Y-18102438D02*
X37257142Y-18150057D01*
X37638095Y-18150057D02*
X37685714Y-18102438D01*
X37685714Y-18102438D02*
X37780952Y-18054819D01*
X37780952Y-18054819D02*
X38019047Y-18054819D01*
X38019047Y-18054819D02*
X38114285Y-18102438D01*
X38114285Y-18102438D02*
X38161904Y-18150057D01*
X38161904Y-18150057D02*
X38209523Y-18245295D01*
X38209523Y-18245295D02*
X38209523Y-18340533D01*
X38209523Y-18340533D02*
X38161904Y-18483390D01*
X38161904Y-18483390D02*
X37590476Y-19054819D01*
X37590476Y-19054819D02*
X38209523Y-19054819D01*
X38780952Y-18483390D02*
X38685714Y-18435771D01*
X38685714Y-18435771D02*
X38638095Y-18388152D01*
X38638095Y-18388152D02*
X38590476Y-18292914D01*
X38590476Y-18292914D02*
X38590476Y-18245295D01*
X38590476Y-18245295D02*
X38638095Y-18150057D01*
X38638095Y-18150057D02*
X38685714Y-18102438D01*
X38685714Y-18102438D02*
X38780952Y-18054819D01*
X38780952Y-18054819D02*
X38971428Y-18054819D01*
X38971428Y-18054819D02*
X39066666Y-18102438D01*
X39066666Y-18102438D02*
X39114285Y-18150057D01*
X39114285Y-18150057D02*
X39161904Y-18245295D01*
X39161904Y-18245295D02*
X39161904Y-18292914D01*
X39161904Y-18292914D02*
X39114285Y-18388152D01*
X39114285Y-18388152D02*
X39066666Y-18435771D01*
X39066666Y-18435771D02*
X38971428Y-18483390D01*
X38971428Y-18483390D02*
X38780952Y-18483390D01*
X38780952Y-18483390D02*
X38685714Y-18531009D01*
X38685714Y-18531009D02*
X38638095Y-18578628D01*
X38638095Y-18578628D02*
X38590476Y-18673866D01*
X38590476Y-18673866D02*
X38590476Y-18864342D01*
X38590476Y-18864342D02*
X38638095Y-18959580D01*
X38638095Y-18959580D02*
X38685714Y-19007200D01*
X38685714Y-19007200D02*
X38780952Y-19054819D01*
X38780952Y-19054819D02*
X38971428Y-19054819D01*
X38971428Y-19054819D02*
X39066666Y-19007200D01*
X39066666Y-19007200D02*
X39114285Y-18959580D01*
X39114285Y-18959580D02*
X39161904Y-18864342D01*
X39161904Y-18864342D02*
X39161904Y-18673866D01*
X39161904Y-18673866D02*
X39114285Y-18578628D01*
X39114285Y-18578628D02*
X39066666Y-18531009D01*
X39066666Y-18531009D02*
X38971428Y-18483390D01*
X54738095Y-29154819D02*
X54738095Y-29964342D01*
X54738095Y-29964342D02*
X54785714Y-30059580D01*
X54785714Y-30059580D02*
X54833333Y-30107200D01*
X54833333Y-30107200D02*
X54928571Y-30154819D01*
X54928571Y-30154819D02*
X55119047Y-30154819D01*
X55119047Y-30154819D02*
X55214285Y-30107200D01*
X55214285Y-30107200D02*
X55261904Y-30059580D01*
X55261904Y-30059580D02*
X55309523Y-29964342D01*
X55309523Y-29964342D02*
X55309523Y-29154819D01*
X56309523Y-30154819D02*
X55738095Y-30154819D01*
X56023809Y-30154819D02*
X56023809Y-29154819D01*
X56023809Y-29154819D02*
X55928571Y-29297676D01*
X55928571Y-29297676D02*
X55833333Y-29392914D01*
X55833333Y-29392914D02*
X55738095Y-29440533D01*
X35057142Y-29459580D02*
X35009523Y-29507200D01*
X35009523Y-29507200D02*
X34866666Y-29554819D01*
X34866666Y-29554819D02*
X34771428Y-29554819D01*
X34771428Y-29554819D02*
X34628571Y-29507200D01*
X34628571Y-29507200D02*
X34533333Y-29411961D01*
X34533333Y-29411961D02*
X34485714Y-29316723D01*
X34485714Y-29316723D02*
X34438095Y-29126247D01*
X34438095Y-29126247D02*
X34438095Y-28983390D01*
X34438095Y-28983390D02*
X34485714Y-28792914D01*
X34485714Y-28792914D02*
X34533333Y-28697676D01*
X34533333Y-28697676D02*
X34628571Y-28602438D01*
X34628571Y-28602438D02*
X34771428Y-28554819D01*
X34771428Y-28554819D02*
X34866666Y-28554819D01*
X34866666Y-28554819D02*
X35009523Y-28602438D01*
X35009523Y-28602438D02*
X35057142Y-28650057D01*
X35438095Y-28650057D02*
X35485714Y-28602438D01*
X35485714Y-28602438D02*
X35580952Y-28554819D01*
X35580952Y-28554819D02*
X35819047Y-28554819D01*
X35819047Y-28554819D02*
X35914285Y-28602438D01*
X35914285Y-28602438D02*
X35961904Y-28650057D01*
X35961904Y-28650057D02*
X36009523Y-28745295D01*
X36009523Y-28745295D02*
X36009523Y-28840533D01*
X36009523Y-28840533D02*
X35961904Y-28983390D01*
X35961904Y-28983390D02*
X35390476Y-29554819D01*
X35390476Y-29554819D02*
X36009523Y-29554819D01*
X36485714Y-29554819D02*
X36676190Y-29554819D01*
X36676190Y-29554819D02*
X36771428Y-29507200D01*
X36771428Y-29507200D02*
X36819047Y-29459580D01*
X36819047Y-29459580D02*
X36914285Y-29316723D01*
X36914285Y-29316723D02*
X36961904Y-29126247D01*
X36961904Y-29126247D02*
X36961904Y-28745295D01*
X36961904Y-28745295D02*
X36914285Y-28650057D01*
X36914285Y-28650057D02*
X36866666Y-28602438D01*
X36866666Y-28602438D02*
X36771428Y-28554819D01*
X36771428Y-28554819D02*
X36580952Y-28554819D01*
X36580952Y-28554819D02*
X36485714Y-28602438D01*
X36485714Y-28602438D02*
X36438095Y-28650057D01*
X36438095Y-28650057D02*
X36390476Y-28745295D01*
X36390476Y-28745295D02*
X36390476Y-28983390D01*
X36390476Y-28983390D02*
X36438095Y-29078628D01*
X36438095Y-29078628D02*
X36485714Y-29126247D01*
X36485714Y-29126247D02*
X36580952Y-29173866D01*
X36580952Y-29173866D02*
X36771428Y-29173866D01*
X36771428Y-29173866D02*
X36866666Y-29126247D01*
X36866666Y-29126247D02*
X36914285Y-29078628D01*
X36914285Y-29078628D02*
X36961904Y-28983390D01*
X34957142Y-50509580D02*
X34909523Y-50557200D01*
X34909523Y-50557200D02*
X34766666Y-50604819D01*
X34766666Y-50604819D02*
X34671428Y-50604819D01*
X34671428Y-50604819D02*
X34528571Y-50557200D01*
X34528571Y-50557200D02*
X34433333Y-50461961D01*
X34433333Y-50461961D02*
X34385714Y-50366723D01*
X34385714Y-50366723D02*
X34338095Y-50176247D01*
X34338095Y-50176247D02*
X34338095Y-50033390D01*
X34338095Y-50033390D02*
X34385714Y-49842914D01*
X34385714Y-49842914D02*
X34433333Y-49747676D01*
X34433333Y-49747676D02*
X34528571Y-49652438D01*
X34528571Y-49652438D02*
X34671428Y-49604819D01*
X34671428Y-49604819D02*
X34766666Y-49604819D01*
X34766666Y-49604819D02*
X34909523Y-49652438D01*
X34909523Y-49652438D02*
X34957142Y-49700057D01*
X35909523Y-50604819D02*
X35338095Y-50604819D01*
X35623809Y-50604819D02*
X35623809Y-49604819D01*
X35623809Y-49604819D02*
X35528571Y-49747676D01*
X35528571Y-49747676D02*
X35433333Y-49842914D01*
X35433333Y-49842914D02*
X35338095Y-49890533D01*
X36861904Y-50604819D02*
X36290476Y-50604819D01*
X36576190Y-50604819D02*
X36576190Y-49604819D01*
X36576190Y-49604819D02*
X36480952Y-49747676D01*
X36480952Y-49747676D02*
X36385714Y-49842914D01*
X36385714Y-49842914D02*
X36290476Y-49890533D01*
X31459580Y-31942857D02*
X31507200Y-31990476D01*
X31507200Y-31990476D02*
X31554819Y-32133333D01*
X31554819Y-32133333D02*
X31554819Y-32228571D01*
X31554819Y-32228571D02*
X31507200Y-32371428D01*
X31507200Y-32371428D02*
X31411961Y-32466666D01*
X31411961Y-32466666D02*
X31316723Y-32514285D01*
X31316723Y-32514285D02*
X31126247Y-32561904D01*
X31126247Y-32561904D02*
X30983390Y-32561904D01*
X30983390Y-32561904D02*
X30792914Y-32514285D01*
X30792914Y-32514285D02*
X30697676Y-32466666D01*
X30697676Y-32466666D02*
X30602438Y-32371428D01*
X30602438Y-32371428D02*
X30554819Y-32228571D01*
X30554819Y-32228571D02*
X30554819Y-32133333D01*
X30554819Y-32133333D02*
X30602438Y-31990476D01*
X30602438Y-31990476D02*
X30650057Y-31942857D01*
X30650057Y-31561904D02*
X30602438Y-31514285D01*
X30602438Y-31514285D02*
X30554819Y-31419047D01*
X30554819Y-31419047D02*
X30554819Y-31180952D01*
X30554819Y-31180952D02*
X30602438Y-31085714D01*
X30602438Y-31085714D02*
X30650057Y-31038095D01*
X30650057Y-31038095D02*
X30745295Y-30990476D01*
X30745295Y-30990476D02*
X30840533Y-30990476D01*
X30840533Y-30990476D02*
X30983390Y-31038095D01*
X30983390Y-31038095D02*
X31554819Y-31609523D01*
X31554819Y-31609523D02*
X31554819Y-30990476D01*
X30554819Y-30133333D02*
X30554819Y-30323809D01*
X30554819Y-30323809D02*
X30602438Y-30419047D01*
X30602438Y-30419047D02*
X30650057Y-30466666D01*
X30650057Y-30466666D02*
X30792914Y-30561904D01*
X30792914Y-30561904D02*
X30983390Y-30609523D01*
X30983390Y-30609523D02*
X31364342Y-30609523D01*
X31364342Y-30609523D02*
X31459580Y-30561904D01*
X31459580Y-30561904D02*
X31507200Y-30514285D01*
X31507200Y-30514285D02*
X31554819Y-30419047D01*
X31554819Y-30419047D02*
X31554819Y-30228571D01*
X31554819Y-30228571D02*
X31507200Y-30133333D01*
X31507200Y-30133333D02*
X31459580Y-30085714D01*
X31459580Y-30085714D02*
X31364342Y-30038095D01*
X31364342Y-30038095D02*
X31126247Y-30038095D01*
X31126247Y-30038095D02*
X31031009Y-30085714D01*
X31031009Y-30085714D02*
X30983390Y-30133333D01*
X30983390Y-30133333D02*
X30935771Y-30228571D01*
X30935771Y-30228571D02*
X30935771Y-30419047D01*
X30935771Y-30419047D02*
X30983390Y-30514285D01*
X30983390Y-30514285D02*
X31031009Y-30561904D01*
X31031009Y-30561904D02*
X31126247Y-30609523D01*
X36257142Y-23554819D02*
X35923809Y-23078628D01*
X35685714Y-23554819D02*
X35685714Y-22554819D01*
X35685714Y-22554819D02*
X36066666Y-22554819D01*
X36066666Y-22554819D02*
X36161904Y-22602438D01*
X36161904Y-22602438D02*
X36209523Y-22650057D01*
X36209523Y-22650057D02*
X36257142Y-22745295D01*
X36257142Y-22745295D02*
X36257142Y-22888152D01*
X36257142Y-22888152D02*
X36209523Y-22983390D01*
X36209523Y-22983390D02*
X36161904Y-23031009D01*
X36161904Y-23031009D02*
X36066666Y-23078628D01*
X36066666Y-23078628D02*
X35685714Y-23078628D01*
X36638095Y-22650057D02*
X36685714Y-22602438D01*
X36685714Y-22602438D02*
X36780952Y-22554819D01*
X36780952Y-22554819D02*
X37019047Y-22554819D01*
X37019047Y-22554819D02*
X37114285Y-22602438D01*
X37114285Y-22602438D02*
X37161904Y-22650057D01*
X37161904Y-22650057D02*
X37209523Y-22745295D01*
X37209523Y-22745295D02*
X37209523Y-22840533D01*
X37209523Y-22840533D02*
X37161904Y-22983390D01*
X37161904Y-22983390D02*
X36590476Y-23554819D01*
X36590476Y-23554819D02*
X37209523Y-23554819D01*
X37828571Y-22554819D02*
X37923809Y-22554819D01*
X37923809Y-22554819D02*
X38019047Y-22602438D01*
X38019047Y-22602438D02*
X38066666Y-22650057D01*
X38066666Y-22650057D02*
X38114285Y-22745295D01*
X38114285Y-22745295D02*
X38161904Y-22935771D01*
X38161904Y-22935771D02*
X38161904Y-23173866D01*
X38161904Y-23173866D02*
X38114285Y-23364342D01*
X38114285Y-23364342D02*
X38066666Y-23459580D01*
X38066666Y-23459580D02*
X38019047Y-23507200D01*
X38019047Y-23507200D02*
X37923809Y-23554819D01*
X37923809Y-23554819D02*
X37828571Y-23554819D01*
X37828571Y-23554819D02*
X37733333Y-23507200D01*
X37733333Y-23507200D02*
X37685714Y-23459580D01*
X37685714Y-23459580D02*
X37638095Y-23364342D01*
X37638095Y-23364342D02*
X37590476Y-23173866D01*
X37590476Y-23173866D02*
X37590476Y-22935771D01*
X37590476Y-22935771D02*
X37638095Y-22745295D01*
X37638095Y-22745295D02*
X37685714Y-22650057D01*
X37685714Y-22650057D02*
X37733333Y-22602438D01*
X37733333Y-22602438D02*
X37828571Y-22554819D01*
X54857142Y-50709580D02*
X54809523Y-50757200D01*
X54809523Y-50757200D02*
X54666666Y-50804819D01*
X54666666Y-50804819D02*
X54571428Y-50804819D01*
X54571428Y-50804819D02*
X54428571Y-50757200D01*
X54428571Y-50757200D02*
X54333333Y-50661961D01*
X54333333Y-50661961D02*
X54285714Y-50566723D01*
X54285714Y-50566723D02*
X54238095Y-50376247D01*
X54238095Y-50376247D02*
X54238095Y-50233390D01*
X54238095Y-50233390D02*
X54285714Y-50042914D01*
X54285714Y-50042914D02*
X54333333Y-49947676D01*
X54333333Y-49947676D02*
X54428571Y-49852438D01*
X54428571Y-49852438D02*
X54571428Y-49804819D01*
X54571428Y-49804819D02*
X54666666Y-49804819D01*
X54666666Y-49804819D02*
X54809523Y-49852438D01*
X54809523Y-49852438D02*
X54857142Y-49900057D01*
X55238095Y-49900057D02*
X55285714Y-49852438D01*
X55285714Y-49852438D02*
X55380952Y-49804819D01*
X55380952Y-49804819D02*
X55619047Y-49804819D01*
X55619047Y-49804819D02*
X55714285Y-49852438D01*
X55714285Y-49852438D02*
X55761904Y-49900057D01*
X55761904Y-49900057D02*
X55809523Y-49995295D01*
X55809523Y-49995295D02*
X55809523Y-50090533D01*
X55809523Y-50090533D02*
X55761904Y-50233390D01*
X55761904Y-50233390D02*
X55190476Y-50804819D01*
X55190476Y-50804819D02*
X55809523Y-50804819D01*
X56666666Y-50138152D02*
X56666666Y-50804819D01*
X56428571Y-49757200D02*
X56190476Y-50471485D01*
X56190476Y-50471485D02*
X56809523Y-50471485D01*
X32654819Y-46042857D02*
X32178628Y-46376190D01*
X32654819Y-46614285D02*
X31654819Y-46614285D01*
X31654819Y-46614285D02*
X31654819Y-46233333D01*
X31654819Y-46233333D02*
X31702438Y-46138095D01*
X31702438Y-46138095D02*
X31750057Y-46090476D01*
X31750057Y-46090476D02*
X31845295Y-46042857D01*
X31845295Y-46042857D02*
X31988152Y-46042857D01*
X31988152Y-46042857D02*
X32083390Y-46090476D01*
X32083390Y-46090476D02*
X32131009Y-46138095D01*
X32131009Y-46138095D02*
X32178628Y-46233333D01*
X32178628Y-46233333D02*
X32178628Y-46614285D01*
X32654819Y-45090476D02*
X32654819Y-45661904D01*
X32654819Y-45376190D02*
X31654819Y-45376190D01*
X31654819Y-45376190D02*
X31797676Y-45471428D01*
X31797676Y-45471428D02*
X31892914Y-45566666D01*
X31892914Y-45566666D02*
X31940533Y-45661904D01*
X31654819Y-44185714D02*
X31654819Y-44661904D01*
X31654819Y-44661904D02*
X32131009Y-44709523D01*
X32131009Y-44709523D02*
X32083390Y-44661904D01*
X32083390Y-44661904D02*
X32035771Y-44566666D01*
X32035771Y-44566666D02*
X32035771Y-44328571D01*
X32035771Y-44328571D02*
X32083390Y-44233333D01*
X32083390Y-44233333D02*
X32131009Y-44185714D01*
X32131009Y-44185714D02*
X32226247Y-44138095D01*
X32226247Y-44138095D02*
X32464342Y-44138095D01*
X32464342Y-44138095D02*
X32559580Y-44185714D01*
X32559580Y-44185714D02*
X32607200Y-44233333D01*
X32607200Y-44233333D02*
X32654819Y-44328571D01*
X32654819Y-44328571D02*
X32654819Y-44566666D01*
X32654819Y-44566666D02*
X32607200Y-44661904D01*
X32607200Y-44661904D02*
X32559580Y-44709523D01*
X50257142Y-55759580D02*
X50209523Y-55807200D01*
X50209523Y-55807200D02*
X50066666Y-55854819D01*
X50066666Y-55854819D02*
X49971428Y-55854819D01*
X49971428Y-55854819D02*
X49828571Y-55807200D01*
X49828571Y-55807200D02*
X49733333Y-55711961D01*
X49733333Y-55711961D02*
X49685714Y-55616723D01*
X49685714Y-55616723D02*
X49638095Y-55426247D01*
X49638095Y-55426247D02*
X49638095Y-55283390D01*
X49638095Y-55283390D02*
X49685714Y-55092914D01*
X49685714Y-55092914D02*
X49733333Y-54997676D01*
X49733333Y-54997676D02*
X49828571Y-54902438D01*
X49828571Y-54902438D02*
X49971428Y-54854819D01*
X49971428Y-54854819D02*
X50066666Y-54854819D01*
X50066666Y-54854819D02*
X50209523Y-54902438D01*
X50209523Y-54902438D02*
X50257142Y-54950057D01*
X51209523Y-55854819D02*
X50638095Y-55854819D01*
X50923809Y-55854819D02*
X50923809Y-54854819D01*
X50923809Y-54854819D02*
X50828571Y-54997676D01*
X50828571Y-54997676D02*
X50733333Y-55092914D01*
X50733333Y-55092914D02*
X50638095Y-55140533D01*
X51828571Y-54854819D02*
X51923809Y-54854819D01*
X51923809Y-54854819D02*
X52019047Y-54902438D01*
X52019047Y-54902438D02*
X52066666Y-54950057D01*
X52066666Y-54950057D02*
X52114285Y-55045295D01*
X52114285Y-55045295D02*
X52161904Y-55235771D01*
X52161904Y-55235771D02*
X52161904Y-55473866D01*
X52161904Y-55473866D02*
X52114285Y-55664342D01*
X52114285Y-55664342D02*
X52066666Y-55759580D01*
X52066666Y-55759580D02*
X52019047Y-55807200D01*
X52019047Y-55807200D02*
X51923809Y-55854819D01*
X51923809Y-55854819D02*
X51828571Y-55854819D01*
X51828571Y-55854819D02*
X51733333Y-55807200D01*
X51733333Y-55807200D02*
X51685714Y-55759580D01*
X51685714Y-55759580D02*
X51638095Y-55664342D01*
X51638095Y-55664342D02*
X51590476Y-55473866D01*
X51590476Y-55473866D02*
X51590476Y-55235771D01*
X51590476Y-55235771D02*
X51638095Y-55045295D01*
X51638095Y-55045295D02*
X51685714Y-54950057D01*
X51685714Y-54950057D02*
X51733333Y-54902438D01*
X51733333Y-54902438D02*
X51828571Y-54854819D01*
X24454819Y-52766666D02*
X23978628Y-53099999D01*
X24454819Y-53338094D02*
X23454819Y-53338094D01*
X23454819Y-53338094D02*
X23454819Y-52957142D01*
X23454819Y-52957142D02*
X23502438Y-52861904D01*
X23502438Y-52861904D02*
X23550057Y-52814285D01*
X23550057Y-52814285D02*
X23645295Y-52766666D01*
X23645295Y-52766666D02*
X23788152Y-52766666D01*
X23788152Y-52766666D02*
X23883390Y-52814285D01*
X23883390Y-52814285D02*
X23931009Y-52861904D01*
X23931009Y-52861904D02*
X23978628Y-52957142D01*
X23978628Y-52957142D02*
X23978628Y-53338094D01*
X24454819Y-52290475D02*
X24454819Y-52099999D01*
X24454819Y-52099999D02*
X24407200Y-52004761D01*
X24407200Y-52004761D02*
X24359580Y-51957142D01*
X24359580Y-51957142D02*
X24216723Y-51861904D01*
X24216723Y-51861904D02*
X24026247Y-51814285D01*
X24026247Y-51814285D02*
X23645295Y-51814285D01*
X23645295Y-51814285D02*
X23550057Y-51861904D01*
X23550057Y-51861904D02*
X23502438Y-51909523D01*
X23502438Y-51909523D02*
X23454819Y-52004761D01*
X23454819Y-52004761D02*
X23454819Y-52195237D01*
X23454819Y-52195237D02*
X23502438Y-52290475D01*
X23502438Y-52290475D02*
X23550057Y-52338094D01*
X23550057Y-52338094D02*
X23645295Y-52385713D01*
X23645295Y-52385713D02*
X23883390Y-52385713D01*
X23883390Y-52385713D02*
X23978628Y-52338094D01*
X23978628Y-52338094D02*
X24026247Y-52290475D01*
X24026247Y-52290475D02*
X24073866Y-52195237D01*
X24073866Y-52195237D02*
X24073866Y-52004761D01*
X24073866Y-52004761D02*
X24026247Y-51909523D01*
X24026247Y-51909523D02*
X23978628Y-51861904D01*
X23978628Y-51861904D02*
X23883390Y-51814285D01*
X37559580Y-41942857D02*
X37607200Y-41990476D01*
X37607200Y-41990476D02*
X37654819Y-42133333D01*
X37654819Y-42133333D02*
X37654819Y-42228571D01*
X37654819Y-42228571D02*
X37607200Y-42371428D01*
X37607200Y-42371428D02*
X37511961Y-42466666D01*
X37511961Y-42466666D02*
X37416723Y-42514285D01*
X37416723Y-42514285D02*
X37226247Y-42561904D01*
X37226247Y-42561904D02*
X37083390Y-42561904D01*
X37083390Y-42561904D02*
X36892914Y-42514285D01*
X36892914Y-42514285D02*
X36797676Y-42466666D01*
X36797676Y-42466666D02*
X36702438Y-42371428D01*
X36702438Y-42371428D02*
X36654819Y-42228571D01*
X36654819Y-42228571D02*
X36654819Y-42133333D01*
X36654819Y-42133333D02*
X36702438Y-41990476D01*
X36702438Y-41990476D02*
X36750057Y-41942857D01*
X36750057Y-41561904D02*
X36702438Y-41514285D01*
X36702438Y-41514285D02*
X36654819Y-41419047D01*
X36654819Y-41419047D02*
X36654819Y-41180952D01*
X36654819Y-41180952D02*
X36702438Y-41085714D01*
X36702438Y-41085714D02*
X36750057Y-41038095D01*
X36750057Y-41038095D02*
X36845295Y-40990476D01*
X36845295Y-40990476D02*
X36940533Y-40990476D01*
X36940533Y-40990476D02*
X37083390Y-41038095D01*
X37083390Y-41038095D02*
X37654819Y-41609523D01*
X37654819Y-41609523D02*
X37654819Y-40990476D01*
X36654819Y-40085714D02*
X36654819Y-40561904D01*
X36654819Y-40561904D02*
X37131009Y-40609523D01*
X37131009Y-40609523D02*
X37083390Y-40561904D01*
X37083390Y-40561904D02*
X37035771Y-40466666D01*
X37035771Y-40466666D02*
X37035771Y-40228571D01*
X37035771Y-40228571D02*
X37083390Y-40133333D01*
X37083390Y-40133333D02*
X37131009Y-40085714D01*
X37131009Y-40085714D02*
X37226247Y-40038095D01*
X37226247Y-40038095D02*
X37464342Y-40038095D01*
X37464342Y-40038095D02*
X37559580Y-40085714D01*
X37559580Y-40085714D02*
X37607200Y-40133333D01*
X37607200Y-40133333D02*
X37654819Y-40228571D01*
X37654819Y-40228571D02*
X37654819Y-40466666D01*
X37654819Y-40466666D02*
X37607200Y-40561904D01*
X37607200Y-40561904D02*
X37559580Y-40609523D01*
X51257142Y-14659580D02*
X51209523Y-14707200D01*
X51209523Y-14707200D02*
X51066666Y-14754819D01*
X51066666Y-14754819D02*
X50971428Y-14754819D01*
X50971428Y-14754819D02*
X50828571Y-14707200D01*
X50828571Y-14707200D02*
X50733333Y-14611961D01*
X50733333Y-14611961D02*
X50685714Y-14516723D01*
X50685714Y-14516723D02*
X50638095Y-14326247D01*
X50638095Y-14326247D02*
X50638095Y-14183390D01*
X50638095Y-14183390D02*
X50685714Y-13992914D01*
X50685714Y-13992914D02*
X50733333Y-13897676D01*
X50733333Y-13897676D02*
X50828571Y-13802438D01*
X50828571Y-13802438D02*
X50971428Y-13754819D01*
X50971428Y-13754819D02*
X51066666Y-13754819D01*
X51066666Y-13754819D02*
X51209523Y-13802438D01*
X51209523Y-13802438D02*
X51257142Y-13850057D01*
X51638095Y-13850057D02*
X51685714Y-13802438D01*
X51685714Y-13802438D02*
X51780952Y-13754819D01*
X51780952Y-13754819D02*
X52019047Y-13754819D01*
X52019047Y-13754819D02*
X52114285Y-13802438D01*
X52114285Y-13802438D02*
X52161904Y-13850057D01*
X52161904Y-13850057D02*
X52209523Y-13945295D01*
X52209523Y-13945295D02*
X52209523Y-14040533D01*
X52209523Y-14040533D02*
X52161904Y-14183390D01*
X52161904Y-14183390D02*
X51590476Y-14754819D01*
X51590476Y-14754819D02*
X52209523Y-14754819D01*
X52542857Y-13754819D02*
X53209523Y-13754819D01*
X53209523Y-13754819D02*
X52780952Y-14754819D01*
X31257142Y-56109580D02*
X31209523Y-56157200D01*
X31209523Y-56157200D02*
X31066666Y-56204819D01*
X31066666Y-56204819D02*
X30971428Y-56204819D01*
X30971428Y-56204819D02*
X30828571Y-56157200D01*
X30828571Y-56157200D02*
X30733333Y-56061961D01*
X30733333Y-56061961D02*
X30685714Y-55966723D01*
X30685714Y-55966723D02*
X30638095Y-55776247D01*
X30638095Y-55776247D02*
X30638095Y-55633390D01*
X30638095Y-55633390D02*
X30685714Y-55442914D01*
X30685714Y-55442914D02*
X30733333Y-55347676D01*
X30733333Y-55347676D02*
X30828571Y-55252438D01*
X30828571Y-55252438D02*
X30971428Y-55204819D01*
X30971428Y-55204819D02*
X31066666Y-55204819D01*
X31066666Y-55204819D02*
X31209523Y-55252438D01*
X31209523Y-55252438D02*
X31257142Y-55300057D01*
X31638095Y-55300057D02*
X31685714Y-55252438D01*
X31685714Y-55252438D02*
X31780952Y-55204819D01*
X31780952Y-55204819D02*
X32019047Y-55204819D01*
X32019047Y-55204819D02*
X32114285Y-55252438D01*
X32114285Y-55252438D02*
X32161904Y-55300057D01*
X32161904Y-55300057D02*
X32209523Y-55395295D01*
X32209523Y-55395295D02*
X32209523Y-55490533D01*
X32209523Y-55490533D02*
X32161904Y-55633390D01*
X32161904Y-55633390D02*
X31590476Y-56204819D01*
X31590476Y-56204819D02*
X32209523Y-56204819D01*
X32590476Y-55300057D02*
X32638095Y-55252438D01*
X32638095Y-55252438D02*
X32733333Y-55204819D01*
X32733333Y-55204819D02*
X32971428Y-55204819D01*
X32971428Y-55204819D02*
X33066666Y-55252438D01*
X33066666Y-55252438D02*
X33114285Y-55300057D01*
X33114285Y-55300057D02*
X33161904Y-55395295D01*
X33161904Y-55395295D02*
X33161904Y-55490533D01*
X33161904Y-55490533D02*
X33114285Y-55633390D01*
X33114285Y-55633390D02*
X32542857Y-56204819D01*
X32542857Y-56204819D02*
X33161904Y-56204819D01*
X69290476Y-30354819D02*
X69290476Y-31069104D01*
X69290476Y-31069104D02*
X69242857Y-31211961D01*
X69242857Y-31211961D02*
X69147619Y-31307200D01*
X69147619Y-31307200D02*
X69004762Y-31354819D01*
X69004762Y-31354819D02*
X68909524Y-31354819D01*
X70290476Y-31354819D02*
X69719048Y-31354819D01*
X70004762Y-31354819D02*
X70004762Y-30354819D01*
X70004762Y-30354819D02*
X69909524Y-30497676D01*
X69909524Y-30497676D02*
X69814286Y-30592914D01*
X69814286Y-30592914D02*
X69719048Y-30640533D01*
X70909524Y-30354819D02*
X71004762Y-30354819D01*
X71004762Y-30354819D02*
X71100000Y-30402438D01*
X71100000Y-30402438D02*
X71147619Y-30450057D01*
X71147619Y-30450057D02*
X71195238Y-30545295D01*
X71195238Y-30545295D02*
X71242857Y-30735771D01*
X71242857Y-30735771D02*
X71242857Y-30973866D01*
X71242857Y-30973866D02*
X71195238Y-31164342D01*
X71195238Y-31164342D02*
X71147619Y-31259580D01*
X71147619Y-31259580D02*
X71100000Y-31307200D01*
X71100000Y-31307200D02*
X71004762Y-31354819D01*
X71004762Y-31354819D02*
X70909524Y-31354819D01*
X70909524Y-31354819D02*
X70814286Y-31307200D01*
X70814286Y-31307200D02*
X70766667Y-31259580D01*
X70766667Y-31259580D02*
X70719048Y-31164342D01*
X70719048Y-31164342D02*
X70671429Y-30973866D01*
X70671429Y-30973866D02*
X70671429Y-30735771D01*
X70671429Y-30735771D02*
X70719048Y-30545295D01*
X70719048Y-30545295D02*
X70766667Y-30450057D01*
X70766667Y-30450057D02*
X70814286Y-30402438D01*
X70814286Y-30402438D02*
X70909524Y-30354819D01*
D12*
%TO.C,U5*%
X50904800Y-49510800D02*
G75*
G02*
X50295200Y-49510800I-304800J0D01*
G01*
D13*
X51971600Y-49510800D02*
X50904800Y-49510800D01*
X50904800Y-49510800D02*
X50295200Y-49510800D01*
X50295200Y-49510800D02*
X49228400Y-49510800D01*
X49228400Y-54489200D02*
X51971600Y-54489200D01*
D14*
%TO.C,U4*%
X17590000Y-44950000D02*
G75*
G02*
X17390000Y-44950000I-100000J0D01*
G01*
X17390000Y-44950000D02*
G75*
G02*
X17590000Y-44950000I100000J0D01*
G01*
D15*
X20700000Y-45665000D02*
X20700000Y-46335000D01*
X20230000Y-47450000D02*
X19570000Y-47450000D01*
X19570000Y-44550000D02*
X20230000Y-44550000D01*
D14*
%TO.C,J9*%
X6900000Y-60370000D02*
G75*
G02*
X6700000Y-60370000I-100000J0D01*
G01*
X6700000Y-60370000D02*
G75*
G02*
X6900000Y-60370000I100000J0D01*
G01*
X8040000Y-59810000D02*
X8040000Y-52190000D01*
X8040000Y-52190000D02*
X5560000Y-52190000D01*
X5560000Y-59810000D02*
X8040000Y-59810000D01*
X5560000Y-52190000D02*
X5560000Y-59810000D01*
D13*
%TO.C,U10*%
X59004800Y-5310800D02*
G75*
G02*
X58395200Y-5310800I-304800J0D01*
G01*
X60071600Y-5310800D02*
X59004800Y-5310800D01*
X59004800Y-5310800D02*
X58395200Y-5310800D01*
X58395200Y-5310800D02*
X57328400Y-5310800D01*
X57328400Y-10289200D02*
X60071600Y-10289200D01*
D14*
%TO.C,U9*%
X55755000Y-44650000D02*
G75*
G02*
X55555000Y-44650000I-100000J0D01*
G01*
X55555000Y-44650000D02*
G75*
G02*
X55755000Y-44650000I100000J0D01*
G01*
D15*
X52445000Y-43935000D02*
X52445000Y-43265000D01*
X52915000Y-42150000D02*
X53575000Y-42150000D01*
X53575000Y-45050000D02*
X52915000Y-45050000D01*
D12*
%TO.C,U7*%
X45468600Y-13575800D02*
G75*
G02*
X44859000Y-13575800I-304800J0D01*
G01*
D13*
X46535400Y-13575800D02*
X45468600Y-13575800D01*
X45468600Y-13575800D02*
X44859000Y-13575800D01*
X44859000Y-13575800D02*
X43792200Y-13575800D01*
X43792200Y-18554200D02*
X46535400Y-18554200D01*
D12*
%TO.C,U6*%
X30310800Y-35995200D02*
G75*
G02*
X30310800Y-36604800I0J-304800D01*
G01*
D13*
X35289200Y-37671600D02*
X35289200Y-34928400D01*
X30310800Y-36604800D02*
X30310800Y-37671600D01*
X30310800Y-35995200D02*
X30310800Y-36604800D01*
X30310800Y-34928400D02*
X30310800Y-35995200D01*
D16*
%TO.C,U13*%
X56300000Y-17435000D02*
X56060000Y-17105000D01*
X56540000Y-17105000D01*
X56300000Y-17435000D01*
G36*
X56300000Y-17435000D02*
G01*
X56060000Y-17105000D01*
X56540000Y-17105000D01*
X56300000Y-17435000D01*
G37*
X59000000Y-22460000D02*
X60950000Y-22460000D01*
X59000000Y-22460000D02*
X57050000Y-22460000D01*
X59000000Y-17340000D02*
X60950000Y-17340000D01*
X59000000Y-17340000D02*
X57050000Y-17340000D01*
D14*
%TO.C,U3*%
X23680000Y-55845000D02*
G75*
G02*
X23480000Y-55845000I-100000J0D01*
G01*
X23480000Y-55845000D02*
G75*
G02*
X23680000Y-55845000I100000J0D01*
G01*
D15*
X25600000Y-58635000D02*
X28600000Y-58635000D01*
X25600000Y-55565000D02*
X28600000Y-55565000D01*
D12*
%TO.C,U12*%
X41304800Y-25910800D02*
G75*
G02*
X40695200Y-25910800I-304800J0D01*
G01*
D13*
X42371600Y-25910800D02*
X41304800Y-25910800D01*
X41304800Y-25910800D02*
X40695200Y-25910800D01*
X40695200Y-25910800D02*
X39628400Y-25910800D01*
X39628400Y-30889200D02*
X42371600Y-30889200D01*
D14*
%TO.C,U1*%
X51710000Y-38000000D02*
G75*
G02*
X51510000Y-38000000I-100000J0D01*
G01*
X51510000Y-38000000D02*
G75*
G02*
X51710000Y-38000000I100000J0D01*
G01*
D15*
X58852500Y-36452500D02*
X52347500Y-36452500D01*
X58852500Y-32947500D02*
X58852500Y-36452500D01*
X52347500Y-36452500D02*
X52347500Y-32947500D01*
X52347500Y-32947500D02*
X58852500Y-32947500D01*
%TD*%
M02*
