M48
; DRILL file {KiCad 8.0.5} date 2024-10-11T16:09:06+0300
; FORMAT={-:-/ absolute / metric / decimal}
; #@! TF.CreationDate,2024-10-11T16:09:06+03:00
; #@! TF.GenerationSoftware,Kicad,Pcbnew,8.0.5
; #@! TF.FileFunction,Plated,1,2,PTH
FMAT,2
METRIC
; #@! TA.AperFunction,Plated,PTH,ViaDrill
T1C0.300
; #@! TA.AperFunction,Plated,PTH,ComponentDrill
T2C0.500
; #@! TA.AperFunction,Plated,PTH,ComponentDrill
T3C1.020
; #@! TA.AperFunction,Plated,PTH,ComponentDrill
T4C3.200
%
G90
G05
T1
X17.0Y-51.8
X17.0Y-58.2
X20.0Y-49.3
X20.6Y-58.1
X30.5Y-50.0
X32.9Y-21.8
X34.7Y-30.3
X35.3Y-43.0
X36.1Y-41.1
X39.7Y-16.1
X40.4Y-10.7
X46.2Y-55.8
X46.2Y-59.8
X48.5Y-48.0
X48.8Y-20.45
X50.9Y-17.395
X50.9Y-18.7
X52.6Y-20.75
X54.4Y-46.7
X57.3Y-41.6
X58.7Y-29.0
X60.5Y-29.0
T2
X2.6Y-5.0
X2.6Y-65.0
X3.303Y-3.303
X3.303Y-6.697
X3.303Y-63.303
X3.303Y-66.697
X5.0Y-2.6
X5.0Y-7.4
X5.0Y-62.6
X5.0Y-67.4
X6.697Y-3.303
X6.697Y-6.697
X6.697Y-63.303
X6.697Y-66.697
X7.4Y-5.0
X7.4Y-65.0
X72.6Y-5.0
X72.6Y-65.0
X73.303Y-3.303
X73.303Y-6.697
X73.303Y-63.303
X73.303Y-66.697
X75.0Y-2.6
X75.0Y-7.4
X75.0Y-62.6
X75.0Y-67.4
X76.697Y-3.303
X76.697Y-6.697
X76.697Y-63.303
X76.697Y-66.697
X77.4Y-5.0
X77.4Y-65.0
T3
X6.8Y-53.46
X6.8Y-56.0
X6.8Y-58.54
X70.142Y-18.133
X70.142Y-20.672
X70.142Y-23.212
X70.142Y-25.752
X70.142Y-28.293
T4
X5.0Y-5.0
X5.0Y-65.0
X75.0Y-5.0
X75.0Y-65.0
M30
