%TF.GenerationSoftware,KiCad,Pcbnew,8.0.5*%
%TF.CreationDate,2024-10-11T16:07:05+03:00*%
%TF.ProjectId,test,74657374-2e6b-4696-9361-645f70636258,rev?*%
%TF.SameCoordinates,Original*%
%TF.FileFunction,Copper,L2,Bot*%
%TF.FilePolarity,Positive*%
%FSLAX46Y46*%
G04 Gerber Fmt 4.6, Leading zero omitted, Abs format (unit mm)*
G04 Created by KiCad (PCBNEW 8.0.5) date 2024-10-11 16:07:05*
%MOMM*%
%LPD*%
G01*
G04 APERTURE LIST*
%TA.AperFunction,EtchedComponent*%
%ADD10C,0.010000*%
%TD*%
%TA.AperFunction,ComponentPad*%
%ADD11C,0.800000*%
%TD*%
%TA.AperFunction,ComponentPad*%
%ADD12C,6.400000*%
%TD*%
%TA.AperFunction,ComponentPad*%
%ADD13C,1.530000*%
%TD*%
%TA.AperFunction,ComponentPad*%
%ADD14R,1.530000X1.530000*%
%TD*%
%TA.AperFunction,ComponentPad*%
%ADD15C,1.520000*%
%TD*%
%TA.AperFunction,ViaPad*%
%ADD16C,0.600000*%
%TD*%
%TA.AperFunction,Conductor*%
%ADD17C,0.500000*%
%TD*%
%TA.AperFunction,Conductor*%
%ADD18C,0.200000*%
%TD*%
G04 APERTURE END LIST*
D10*
%TO.C,J10*%
X70221500Y-17376500D02*
X70300500Y-17389500D01*
X70377500Y-17409500D01*
X70451500Y-17438500D01*
X70522500Y-17474500D01*
X70589500Y-17517500D01*
X70651500Y-17567500D01*
X70707500Y-17623500D01*
X70757500Y-17685500D01*
X70800500Y-17752500D01*
X70836500Y-17823500D01*
X70865500Y-17897500D01*
X70885500Y-17974500D01*
X70898500Y-18053500D01*
X70902500Y-18132500D01*
X70898500Y-18211500D01*
X70885500Y-18290500D01*
X70865500Y-18367500D01*
X70836500Y-18441500D01*
X70800500Y-18512500D01*
X70757500Y-18579500D01*
X70707500Y-18641500D01*
X70651500Y-18697500D01*
X70589500Y-18747500D01*
X70522500Y-18790500D01*
X70451500Y-18826500D01*
X70377500Y-18855500D01*
X70300500Y-18875500D01*
X70221500Y-18888500D01*
X70142500Y-18892500D01*
X70104500Y-18891500D01*
X70066500Y-18888500D01*
X70029500Y-18884500D01*
X69991500Y-18877500D01*
X69955500Y-18869500D01*
X69918500Y-18859500D01*
X69883500Y-18847500D01*
X69848500Y-18833500D01*
X69813500Y-18818500D01*
X69779500Y-18801500D01*
X69747500Y-18782500D01*
X69715500Y-18762500D01*
X69684500Y-18740500D01*
X69655500Y-18717500D01*
X69626500Y-18692500D01*
X69599500Y-18666500D01*
X69573500Y-18638500D01*
X69549500Y-18609500D01*
X69526500Y-18580500D01*
X69504500Y-18549500D01*
X69484500Y-18517500D01*
X69466500Y-18484500D01*
X69450500Y-18450500D01*
X69435500Y-18415500D01*
X69421500Y-18380500D01*
X69410500Y-18344500D01*
X69400500Y-18308500D01*
X69392500Y-18271500D01*
X69386500Y-18234500D01*
X69382500Y-18197500D01*
X68612500Y-18197500D01*
X68612500Y-18067500D01*
X69382500Y-18067500D01*
X69386500Y-18030500D01*
X69392500Y-17993500D01*
X69400500Y-17956500D01*
X69410500Y-17920500D01*
X69421500Y-17884500D01*
X69435500Y-17849500D01*
X69450500Y-17814500D01*
X69466500Y-17780500D01*
X69484500Y-17747500D01*
X69504500Y-17715500D01*
X69526500Y-17684500D01*
X69549500Y-17655500D01*
X69573500Y-17626500D01*
X69599500Y-17598500D01*
X69626500Y-17572500D01*
X69655500Y-17547500D01*
X69684500Y-17524500D01*
X69715500Y-17502500D01*
X69747500Y-17482500D01*
X69779500Y-17463500D01*
X69813500Y-17446500D01*
X69848500Y-17431500D01*
X69883500Y-17417500D01*
X69918500Y-17405500D01*
X69955500Y-17395500D01*
X69991500Y-17387500D01*
X70029500Y-17380500D01*
X70066500Y-17376500D01*
X70104500Y-17373500D01*
X70142500Y-17372500D01*
X70221500Y-17376500D01*
%TA.AperFunction,EtchedComponent*%
G36*
X70221500Y-17376500D02*
G01*
X70300500Y-17389500D01*
X70377500Y-17409500D01*
X70451500Y-17438500D01*
X70522500Y-17474500D01*
X70589500Y-17517500D01*
X70651500Y-17567500D01*
X70707500Y-17623500D01*
X70757500Y-17685500D01*
X70800500Y-17752500D01*
X70836500Y-17823500D01*
X70865500Y-17897500D01*
X70885500Y-17974500D01*
X70898500Y-18053500D01*
X70902500Y-18132500D01*
X70898500Y-18211500D01*
X70885500Y-18290500D01*
X70865500Y-18367500D01*
X70836500Y-18441500D01*
X70800500Y-18512500D01*
X70757500Y-18579500D01*
X70707500Y-18641500D01*
X70651500Y-18697500D01*
X70589500Y-18747500D01*
X70522500Y-18790500D01*
X70451500Y-18826500D01*
X70377500Y-18855500D01*
X70300500Y-18875500D01*
X70221500Y-18888500D01*
X70142500Y-18892500D01*
X70104500Y-18891500D01*
X70066500Y-18888500D01*
X70029500Y-18884500D01*
X69991500Y-18877500D01*
X69955500Y-18869500D01*
X69918500Y-18859500D01*
X69883500Y-18847500D01*
X69848500Y-18833500D01*
X69813500Y-18818500D01*
X69779500Y-18801500D01*
X69747500Y-18782500D01*
X69715500Y-18762500D01*
X69684500Y-18740500D01*
X69655500Y-18717500D01*
X69626500Y-18692500D01*
X69599500Y-18666500D01*
X69573500Y-18638500D01*
X69549500Y-18609500D01*
X69526500Y-18580500D01*
X69504500Y-18549500D01*
X69484500Y-18517500D01*
X69466500Y-18484500D01*
X69450500Y-18450500D01*
X69435500Y-18415500D01*
X69421500Y-18380500D01*
X69410500Y-18344500D01*
X69400500Y-18308500D01*
X69392500Y-18271500D01*
X69386500Y-18234500D01*
X69382500Y-18197500D01*
X68612500Y-18197500D01*
X68612500Y-18067500D01*
X69382500Y-18067500D01*
X69386500Y-18030500D01*
X69392500Y-17993500D01*
X69400500Y-17956500D01*
X69410500Y-17920500D01*
X69421500Y-17884500D01*
X69435500Y-17849500D01*
X69450500Y-17814500D01*
X69466500Y-17780500D01*
X69484500Y-17747500D01*
X69504500Y-17715500D01*
X69526500Y-17684500D01*
X69549500Y-17655500D01*
X69573500Y-17626500D01*
X69599500Y-17598500D01*
X69626500Y-17572500D01*
X69655500Y-17547500D01*
X69684500Y-17524500D01*
X69715500Y-17502500D01*
X69747500Y-17482500D01*
X69779500Y-17463500D01*
X69813500Y-17446500D01*
X69848500Y-17431500D01*
X69883500Y-17417500D01*
X69918500Y-17405500D01*
X69955500Y-17395500D01*
X69991500Y-17387500D01*
X70029500Y-17380500D01*
X70066500Y-17376500D01*
X70104500Y-17373500D01*
X70142500Y-17372500D01*
X70221500Y-17376500D01*
G37*
%TD.AperFunction*%
X70221500Y-19916500D02*
X70300500Y-19929500D01*
X70377500Y-19949500D01*
X70451500Y-19978500D01*
X70522500Y-20014500D01*
X70589500Y-20057500D01*
X70651500Y-20107500D01*
X70707500Y-20163500D01*
X70757500Y-20225500D01*
X70800500Y-20292500D01*
X70836500Y-20363500D01*
X70865500Y-20437500D01*
X70885500Y-20514500D01*
X70898500Y-20593500D01*
X70902500Y-20672500D01*
X70898500Y-20751500D01*
X70885500Y-20830500D01*
X70865500Y-20907500D01*
X70836500Y-20981500D01*
X70800500Y-21052500D01*
X70757500Y-21119500D01*
X70707500Y-21181500D01*
X70651500Y-21237500D01*
X70589500Y-21287500D01*
X70522500Y-21330500D01*
X70451500Y-21366500D01*
X70377500Y-21395500D01*
X70300500Y-21415500D01*
X70221500Y-21428500D01*
X70142500Y-21432500D01*
X70104500Y-21431500D01*
X70066500Y-21428500D01*
X70029500Y-21424500D01*
X69991500Y-21417500D01*
X69955500Y-21409500D01*
X69918500Y-21399500D01*
X69883500Y-21387500D01*
X69848500Y-21373500D01*
X69813500Y-21358500D01*
X69779500Y-21341500D01*
X69747500Y-21322500D01*
X69715500Y-21302500D01*
X69684500Y-21280500D01*
X69655500Y-21257500D01*
X69626500Y-21232500D01*
X69599500Y-21206500D01*
X69573500Y-21178500D01*
X69549500Y-21149500D01*
X69526500Y-21120500D01*
X69504500Y-21089500D01*
X69484500Y-21057500D01*
X69466500Y-21024500D01*
X69450500Y-20990500D01*
X69435500Y-20955500D01*
X69421500Y-20920500D01*
X69410500Y-20884500D01*
X69400500Y-20848500D01*
X69392500Y-20811500D01*
X69386500Y-20774500D01*
X69382500Y-20737500D01*
X68612500Y-20737500D01*
X68612500Y-20607500D01*
X69382500Y-20607500D01*
X69386500Y-20570500D01*
X69392500Y-20533500D01*
X69400500Y-20496500D01*
X69410500Y-20460500D01*
X69421500Y-20424500D01*
X69435500Y-20389500D01*
X69450500Y-20354500D01*
X69466500Y-20320500D01*
X69484500Y-20287500D01*
X69504500Y-20255500D01*
X69526500Y-20224500D01*
X69549500Y-20195500D01*
X69573500Y-20166500D01*
X69599500Y-20138500D01*
X69626500Y-20112500D01*
X69655500Y-20087500D01*
X69684500Y-20064500D01*
X69715500Y-20042500D01*
X69747500Y-20022500D01*
X69779500Y-20003500D01*
X69813500Y-19986500D01*
X69848500Y-19971500D01*
X69883500Y-19957500D01*
X69918500Y-19945500D01*
X69955500Y-19935500D01*
X69991500Y-19927500D01*
X70029500Y-19920500D01*
X70066500Y-19916500D01*
X70104500Y-19913500D01*
X70142500Y-19912500D01*
X70221500Y-19916500D01*
%TA.AperFunction,EtchedComponent*%
G36*
X70221500Y-19916500D02*
G01*
X70300500Y-19929500D01*
X70377500Y-19949500D01*
X70451500Y-19978500D01*
X70522500Y-20014500D01*
X70589500Y-20057500D01*
X70651500Y-20107500D01*
X70707500Y-20163500D01*
X70757500Y-20225500D01*
X70800500Y-20292500D01*
X70836500Y-20363500D01*
X70865500Y-20437500D01*
X70885500Y-20514500D01*
X70898500Y-20593500D01*
X70902500Y-20672500D01*
X70898500Y-20751500D01*
X70885500Y-20830500D01*
X70865500Y-20907500D01*
X70836500Y-20981500D01*
X70800500Y-21052500D01*
X70757500Y-21119500D01*
X70707500Y-21181500D01*
X70651500Y-21237500D01*
X70589500Y-21287500D01*
X70522500Y-21330500D01*
X70451500Y-21366500D01*
X70377500Y-21395500D01*
X70300500Y-21415500D01*
X70221500Y-21428500D01*
X70142500Y-21432500D01*
X70104500Y-21431500D01*
X70066500Y-21428500D01*
X70029500Y-21424500D01*
X69991500Y-21417500D01*
X69955500Y-21409500D01*
X69918500Y-21399500D01*
X69883500Y-21387500D01*
X69848500Y-21373500D01*
X69813500Y-21358500D01*
X69779500Y-21341500D01*
X69747500Y-21322500D01*
X69715500Y-21302500D01*
X69684500Y-21280500D01*
X69655500Y-21257500D01*
X69626500Y-21232500D01*
X69599500Y-21206500D01*
X69573500Y-21178500D01*
X69549500Y-21149500D01*
X69526500Y-21120500D01*
X69504500Y-21089500D01*
X69484500Y-21057500D01*
X69466500Y-21024500D01*
X69450500Y-20990500D01*
X69435500Y-20955500D01*
X69421500Y-20920500D01*
X69410500Y-20884500D01*
X69400500Y-20848500D01*
X69392500Y-20811500D01*
X69386500Y-20774500D01*
X69382500Y-20737500D01*
X68612500Y-20737500D01*
X68612500Y-20607500D01*
X69382500Y-20607500D01*
X69386500Y-20570500D01*
X69392500Y-20533500D01*
X69400500Y-20496500D01*
X69410500Y-20460500D01*
X69421500Y-20424500D01*
X69435500Y-20389500D01*
X69450500Y-20354500D01*
X69466500Y-20320500D01*
X69484500Y-20287500D01*
X69504500Y-20255500D01*
X69526500Y-20224500D01*
X69549500Y-20195500D01*
X69573500Y-20166500D01*
X69599500Y-20138500D01*
X69626500Y-20112500D01*
X69655500Y-20087500D01*
X69684500Y-20064500D01*
X69715500Y-20042500D01*
X69747500Y-20022500D01*
X69779500Y-20003500D01*
X69813500Y-19986500D01*
X69848500Y-19971500D01*
X69883500Y-19957500D01*
X69918500Y-19945500D01*
X69955500Y-19935500D01*
X69991500Y-19927500D01*
X70029500Y-19920500D01*
X70066500Y-19916500D01*
X70104500Y-19913500D01*
X70142500Y-19912500D01*
X70221500Y-19916500D01*
G37*
%TD.AperFunction*%
X70221500Y-22456500D02*
X70300500Y-22469500D01*
X70377500Y-22489500D01*
X70451500Y-22518500D01*
X70522500Y-22554500D01*
X70589500Y-22597500D01*
X70651500Y-22647500D01*
X70707500Y-22703500D01*
X70757500Y-22765500D01*
X70800500Y-22832500D01*
X70836500Y-22903500D01*
X70865500Y-22977500D01*
X70885500Y-23054500D01*
X70898500Y-23133500D01*
X70902500Y-23212500D01*
X70898500Y-23291500D01*
X70885500Y-23370500D01*
X70865500Y-23447500D01*
X70836500Y-23521500D01*
X70800500Y-23592500D01*
X70757500Y-23659500D01*
X70707500Y-23721500D01*
X70651500Y-23777500D01*
X70589500Y-23827500D01*
X70522500Y-23870500D01*
X70451500Y-23906500D01*
X70377500Y-23935500D01*
X70300500Y-23955500D01*
X70221500Y-23968500D01*
X70142500Y-23972500D01*
X70104500Y-23971500D01*
X70066500Y-23968500D01*
X70029500Y-23964500D01*
X69991500Y-23957500D01*
X69955500Y-23949500D01*
X69918500Y-23939500D01*
X69883500Y-23927500D01*
X69848500Y-23913500D01*
X69813500Y-23898500D01*
X69779500Y-23881500D01*
X69747500Y-23862500D01*
X69715500Y-23842500D01*
X69684500Y-23820500D01*
X69655500Y-23797500D01*
X69626500Y-23772500D01*
X69599500Y-23746500D01*
X69573500Y-23718500D01*
X69549500Y-23689500D01*
X69526500Y-23660500D01*
X69504500Y-23629500D01*
X69484500Y-23597500D01*
X69466500Y-23564500D01*
X69450500Y-23530500D01*
X69435500Y-23495500D01*
X69421500Y-23460500D01*
X69410500Y-23424500D01*
X69400500Y-23388500D01*
X69392500Y-23351500D01*
X69386500Y-23314500D01*
X69382500Y-23277500D01*
X68612500Y-23277500D01*
X68612500Y-23147500D01*
X69382500Y-23147500D01*
X69386500Y-23110500D01*
X69392500Y-23073500D01*
X69400500Y-23036500D01*
X69410500Y-23000500D01*
X69421500Y-22964500D01*
X69435500Y-22929500D01*
X69450500Y-22894500D01*
X69466500Y-22860500D01*
X69484500Y-22827500D01*
X69504500Y-22795500D01*
X69526500Y-22764500D01*
X69549500Y-22735500D01*
X69573500Y-22706500D01*
X69599500Y-22678500D01*
X69626500Y-22652500D01*
X69655500Y-22627500D01*
X69684500Y-22604500D01*
X69715500Y-22582500D01*
X69747500Y-22562500D01*
X69779500Y-22543500D01*
X69813500Y-22526500D01*
X69848500Y-22511500D01*
X69883500Y-22497500D01*
X69918500Y-22485500D01*
X69955500Y-22475500D01*
X69991500Y-22467500D01*
X70029500Y-22460500D01*
X70066500Y-22456500D01*
X70104500Y-22453500D01*
X70142500Y-22452500D01*
X70221500Y-22456500D01*
%TA.AperFunction,EtchedComponent*%
G36*
X70221500Y-22456500D02*
G01*
X70300500Y-22469500D01*
X70377500Y-22489500D01*
X70451500Y-22518500D01*
X70522500Y-22554500D01*
X70589500Y-22597500D01*
X70651500Y-22647500D01*
X70707500Y-22703500D01*
X70757500Y-22765500D01*
X70800500Y-22832500D01*
X70836500Y-22903500D01*
X70865500Y-22977500D01*
X70885500Y-23054500D01*
X70898500Y-23133500D01*
X70902500Y-23212500D01*
X70898500Y-23291500D01*
X70885500Y-23370500D01*
X70865500Y-23447500D01*
X70836500Y-23521500D01*
X70800500Y-23592500D01*
X70757500Y-23659500D01*
X70707500Y-23721500D01*
X70651500Y-23777500D01*
X70589500Y-23827500D01*
X70522500Y-23870500D01*
X70451500Y-23906500D01*
X70377500Y-23935500D01*
X70300500Y-23955500D01*
X70221500Y-23968500D01*
X70142500Y-23972500D01*
X70104500Y-23971500D01*
X70066500Y-23968500D01*
X70029500Y-23964500D01*
X69991500Y-23957500D01*
X69955500Y-23949500D01*
X69918500Y-23939500D01*
X69883500Y-23927500D01*
X69848500Y-23913500D01*
X69813500Y-23898500D01*
X69779500Y-23881500D01*
X69747500Y-23862500D01*
X69715500Y-23842500D01*
X69684500Y-23820500D01*
X69655500Y-23797500D01*
X69626500Y-23772500D01*
X69599500Y-23746500D01*
X69573500Y-23718500D01*
X69549500Y-23689500D01*
X69526500Y-23660500D01*
X69504500Y-23629500D01*
X69484500Y-23597500D01*
X69466500Y-23564500D01*
X69450500Y-23530500D01*
X69435500Y-23495500D01*
X69421500Y-23460500D01*
X69410500Y-23424500D01*
X69400500Y-23388500D01*
X69392500Y-23351500D01*
X69386500Y-23314500D01*
X69382500Y-23277500D01*
X68612500Y-23277500D01*
X68612500Y-23147500D01*
X69382500Y-23147500D01*
X69386500Y-23110500D01*
X69392500Y-23073500D01*
X69400500Y-23036500D01*
X69410500Y-23000500D01*
X69421500Y-22964500D01*
X69435500Y-22929500D01*
X69450500Y-22894500D01*
X69466500Y-22860500D01*
X69484500Y-22827500D01*
X69504500Y-22795500D01*
X69526500Y-22764500D01*
X69549500Y-22735500D01*
X69573500Y-22706500D01*
X69599500Y-22678500D01*
X69626500Y-22652500D01*
X69655500Y-22627500D01*
X69684500Y-22604500D01*
X69715500Y-22582500D01*
X69747500Y-22562500D01*
X69779500Y-22543500D01*
X69813500Y-22526500D01*
X69848500Y-22511500D01*
X69883500Y-22497500D01*
X69918500Y-22485500D01*
X69955500Y-22475500D01*
X69991500Y-22467500D01*
X70029500Y-22460500D01*
X70066500Y-22456500D01*
X70104500Y-22453500D01*
X70142500Y-22452500D01*
X70221500Y-22456500D01*
G37*
%TD.AperFunction*%
X70221500Y-24996500D02*
X70300500Y-25009500D01*
X70377500Y-25029500D01*
X70451500Y-25058500D01*
X70522500Y-25094500D01*
X70589500Y-25137500D01*
X70651500Y-25187500D01*
X70707500Y-25243500D01*
X70757500Y-25305500D01*
X70800500Y-25372500D01*
X70836500Y-25443500D01*
X70865500Y-25517500D01*
X70885500Y-25594500D01*
X70898500Y-25673500D01*
X70902500Y-25752500D01*
X70898500Y-25831500D01*
X70885500Y-25910500D01*
X70865500Y-25987500D01*
X70836500Y-26061500D01*
X70800500Y-26132500D01*
X70757500Y-26199500D01*
X70707500Y-26261500D01*
X70651500Y-26317500D01*
X70589500Y-26367500D01*
X70522500Y-26410500D01*
X70451500Y-26446500D01*
X70377500Y-26475500D01*
X70300500Y-26495500D01*
X70221500Y-26508500D01*
X70142500Y-26512500D01*
X70104500Y-26511500D01*
X70066500Y-26508500D01*
X70029500Y-26504500D01*
X69991500Y-26497500D01*
X69955500Y-26489500D01*
X69918500Y-26479500D01*
X69883500Y-26467500D01*
X69848500Y-26453500D01*
X69813500Y-26438500D01*
X69779500Y-26421500D01*
X69747500Y-26402500D01*
X69715500Y-26382500D01*
X69684500Y-26360500D01*
X69655500Y-26337500D01*
X69626500Y-26312500D01*
X69599500Y-26286500D01*
X69573500Y-26258500D01*
X69549500Y-26229500D01*
X69526500Y-26200500D01*
X69504500Y-26169500D01*
X69484500Y-26137500D01*
X69466500Y-26104500D01*
X69450500Y-26070500D01*
X69435500Y-26035500D01*
X69421500Y-26000500D01*
X69410500Y-25964500D01*
X69400500Y-25928500D01*
X69392500Y-25891500D01*
X69386500Y-25854500D01*
X69382500Y-25817500D01*
X68612500Y-25817500D01*
X68612500Y-25687500D01*
X69382500Y-25687500D01*
X69386500Y-25650500D01*
X69392500Y-25613500D01*
X69400500Y-25576500D01*
X69410500Y-25540500D01*
X69421500Y-25504500D01*
X69435500Y-25469500D01*
X69450500Y-25434500D01*
X69466500Y-25400500D01*
X69484500Y-25367500D01*
X69504500Y-25335500D01*
X69526500Y-25304500D01*
X69549500Y-25275500D01*
X69573500Y-25246500D01*
X69599500Y-25218500D01*
X69626500Y-25192500D01*
X69655500Y-25167500D01*
X69684500Y-25144500D01*
X69715500Y-25122500D01*
X69747500Y-25102500D01*
X69779500Y-25083500D01*
X69813500Y-25066500D01*
X69848500Y-25051500D01*
X69883500Y-25037500D01*
X69918500Y-25025500D01*
X69955500Y-25015500D01*
X69991500Y-25007500D01*
X70029500Y-25000500D01*
X70066500Y-24996500D01*
X70104500Y-24993500D01*
X70142500Y-24992500D01*
X70221500Y-24996500D01*
%TA.AperFunction,EtchedComponent*%
G36*
X70221500Y-24996500D02*
G01*
X70300500Y-25009500D01*
X70377500Y-25029500D01*
X70451500Y-25058500D01*
X70522500Y-25094500D01*
X70589500Y-25137500D01*
X70651500Y-25187500D01*
X70707500Y-25243500D01*
X70757500Y-25305500D01*
X70800500Y-25372500D01*
X70836500Y-25443500D01*
X70865500Y-25517500D01*
X70885500Y-25594500D01*
X70898500Y-25673500D01*
X70902500Y-25752500D01*
X70898500Y-25831500D01*
X70885500Y-25910500D01*
X70865500Y-25987500D01*
X70836500Y-26061500D01*
X70800500Y-26132500D01*
X70757500Y-26199500D01*
X70707500Y-26261500D01*
X70651500Y-26317500D01*
X70589500Y-26367500D01*
X70522500Y-26410500D01*
X70451500Y-26446500D01*
X70377500Y-26475500D01*
X70300500Y-26495500D01*
X70221500Y-26508500D01*
X70142500Y-26512500D01*
X70104500Y-26511500D01*
X70066500Y-26508500D01*
X70029500Y-26504500D01*
X69991500Y-26497500D01*
X69955500Y-26489500D01*
X69918500Y-26479500D01*
X69883500Y-26467500D01*
X69848500Y-26453500D01*
X69813500Y-26438500D01*
X69779500Y-26421500D01*
X69747500Y-26402500D01*
X69715500Y-26382500D01*
X69684500Y-26360500D01*
X69655500Y-26337500D01*
X69626500Y-26312500D01*
X69599500Y-26286500D01*
X69573500Y-26258500D01*
X69549500Y-26229500D01*
X69526500Y-26200500D01*
X69504500Y-26169500D01*
X69484500Y-26137500D01*
X69466500Y-26104500D01*
X69450500Y-26070500D01*
X69435500Y-26035500D01*
X69421500Y-26000500D01*
X69410500Y-25964500D01*
X69400500Y-25928500D01*
X69392500Y-25891500D01*
X69386500Y-25854500D01*
X69382500Y-25817500D01*
X68612500Y-25817500D01*
X68612500Y-25687500D01*
X69382500Y-25687500D01*
X69386500Y-25650500D01*
X69392500Y-25613500D01*
X69400500Y-25576500D01*
X69410500Y-25540500D01*
X69421500Y-25504500D01*
X69435500Y-25469500D01*
X69450500Y-25434500D01*
X69466500Y-25400500D01*
X69484500Y-25367500D01*
X69504500Y-25335500D01*
X69526500Y-25304500D01*
X69549500Y-25275500D01*
X69573500Y-25246500D01*
X69599500Y-25218500D01*
X69626500Y-25192500D01*
X69655500Y-25167500D01*
X69684500Y-25144500D01*
X69715500Y-25122500D01*
X69747500Y-25102500D01*
X69779500Y-25083500D01*
X69813500Y-25066500D01*
X69848500Y-25051500D01*
X69883500Y-25037500D01*
X69918500Y-25025500D01*
X69955500Y-25015500D01*
X69991500Y-25007500D01*
X70029500Y-25000500D01*
X70066500Y-24996500D01*
X70104500Y-24993500D01*
X70142500Y-24992500D01*
X70221500Y-24996500D01*
G37*
%TD.AperFunction*%
X70221500Y-27536500D02*
X70300500Y-27549500D01*
X70377500Y-27569500D01*
X70451500Y-27598500D01*
X70522500Y-27634500D01*
X70589500Y-27677500D01*
X70651500Y-27727500D01*
X70707500Y-27783500D01*
X70757500Y-27845500D01*
X70800500Y-27912500D01*
X70836500Y-27983500D01*
X70865500Y-28057500D01*
X70885500Y-28134500D01*
X70898500Y-28213500D01*
X70902500Y-28292500D01*
X70898500Y-28371500D01*
X70885500Y-28450500D01*
X70865500Y-28527500D01*
X70836500Y-28601500D01*
X70800500Y-28672500D01*
X70757500Y-28739500D01*
X70707500Y-28801500D01*
X70651500Y-28857500D01*
X70589500Y-28907500D01*
X70522500Y-28950500D01*
X70451500Y-28986500D01*
X70377500Y-29015500D01*
X70300500Y-29035500D01*
X70221500Y-29048500D01*
X70142500Y-29052500D01*
X70104500Y-29051500D01*
X70066500Y-29048500D01*
X70029500Y-29044500D01*
X69991500Y-29037500D01*
X69955500Y-29029500D01*
X69918500Y-29019500D01*
X69883500Y-29007500D01*
X69848500Y-28993500D01*
X69813500Y-28978500D01*
X69779500Y-28961500D01*
X69747500Y-28942500D01*
X69715500Y-28922500D01*
X69684500Y-28900500D01*
X69655500Y-28877500D01*
X69626500Y-28852500D01*
X69599500Y-28826500D01*
X69573500Y-28798500D01*
X69549500Y-28769500D01*
X69526500Y-28740500D01*
X69504500Y-28709500D01*
X69484500Y-28677500D01*
X69466500Y-28644500D01*
X69450500Y-28610500D01*
X69435500Y-28575500D01*
X69421500Y-28540500D01*
X69410500Y-28504500D01*
X69400500Y-28468500D01*
X69392500Y-28431500D01*
X69386500Y-28394500D01*
X69382500Y-28357500D01*
X68612500Y-28357500D01*
X68612500Y-28227500D01*
X69382500Y-28227500D01*
X69386500Y-28190500D01*
X69392500Y-28153500D01*
X69400500Y-28116500D01*
X69410500Y-28080500D01*
X69421500Y-28044500D01*
X69435500Y-28009500D01*
X69450500Y-27974500D01*
X69466500Y-27940500D01*
X69484500Y-27907500D01*
X69504500Y-27875500D01*
X69526500Y-27844500D01*
X69549500Y-27815500D01*
X69573500Y-27786500D01*
X69599500Y-27758500D01*
X69626500Y-27732500D01*
X69655500Y-27707500D01*
X69684500Y-27684500D01*
X69715500Y-27662500D01*
X69747500Y-27642500D01*
X69779500Y-27623500D01*
X69813500Y-27606500D01*
X69848500Y-27591500D01*
X69883500Y-27577500D01*
X69918500Y-27565500D01*
X69955500Y-27555500D01*
X69991500Y-27547500D01*
X70029500Y-27540500D01*
X70066500Y-27536500D01*
X70104500Y-27533500D01*
X70142500Y-27532500D01*
X70221500Y-27536500D01*
%TA.AperFunction,EtchedComponent*%
G36*
X70221500Y-27536500D02*
G01*
X70300500Y-27549500D01*
X70377500Y-27569500D01*
X70451500Y-27598500D01*
X70522500Y-27634500D01*
X70589500Y-27677500D01*
X70651500Y-27727500D01*
X70707500Y-27783500D01*
X70757500Y-27845500D01*
X70800500Y-27912500D01*
X70836500Y-27983500D01*
X70865500Y-28057500D01*
X70885500Y-28134500D01*
X70898500Y-28213500D01*
X70902500Y-28292500D01*
X70898500Y-28371500D01*
X70885500Y-28450500D01*
X70865500Y-28527500D01*
X70836500Y-28601500D01*
X70800500Y-28672500D01*
X70757500Y-28739500D01*
X70707500Y-28801500D01*
X70651500Y-28857500D01*
X70589500Y-28907500D01*
X70522500Y-28950500D01*
X70451500Y-28986500D01*
X70377500Y-29015500D01*
X70300500Y-29035500D01*
X70221500Y-29048500D01*
X70142500Y-29052500D01*
X70104500Y-29051500D01*
X70066500Y-29048500D01*
X70029500Y-29044500D01*
X69991500Y-29037500D01*
X69955500Y-29029500D01*
X69918500Y-29019500D01*
X69883500Y-29007500D01*
X69848500Y-28993500D01*
X69813500Y-28978500D01*
X69779500Y-28961500D01*
X69747500Y-28942500D01*
X69715500Y-28922500D01*
X69684500Y-28900500D01*
X69655500Y-28877500D01*
X69626500Y-28852500D01*
X69599500Y-28826500D01*
X69573500Y-28798500D01*
X69549500Y-28769500D01*
X69526500Y-28740500D01*
X69504500Y-28709500D01*
X69484500Y-28677500D01*
X69466500Y-28644500D01*
X69450500Y-28610500D01*
X69435500Y-28575500D01*
X69421500Y-28540500D01*
X69410500Y-28504500D01*
X69400500Y-28468500D01*
X69392500Y-28431500D01*
X69386500Y-28394500D01*
X69382500Y-28357500D01*
X68612500Y-28357500D01*
X68612500Y-28227500D01*
X69382500Y-28227500D01*
X69386500Y-28190500D01*
X69392500Y-28153500D01*
X69400500Y-28116500D01*
X69410500Y-28080500D01*
X69421500Y-28044500D01*
X69435500Y-28009500D01*
X69450500Y-27974500D01*
X69466500Y-27940500D01*
X69484500Y-27907500D01*
X69504500Y-27875500D01*
X69526500Y-27844500D01*
X69549500Y-27815500D01*
X69573500Y-27786500D01*
X69599500Y-27758500D01*
X69626500Y-27732500D01*
X69655500Y-27707500D01*
X69684500Y-27684500D01*
X69715500Y-27662500D01*
X69747500Y-27642500D01*
X69779500Y-27623500D01*
X69813500Y-27606500D01*
X69848500Y-27591500D01*
X69883500Y-27577500D01*
X69918500Y-27565500D01*
X69955500Y-27555500D01*
X69991500Y-27547500D01*
X70029500Y-27540500D01*
X70066500Y-27536500D01*
X70104500Y-27533500D01*
X70142500Y-27532500D01*
X70221500Y-27536500D01*
G37*
%TD.AperFunction*%
%TD*%
D11*
%TO.P,J14,1,Pin_1*%
%TO.N,GND*%
X72600000Y-65000000D03*
X73302944Y-63302944D03*
X73302944Y-66697056D03*
X75000000Y-62600000D03*
D12*
X75000000Y-65000000D03*
D11*
X75000000Y-67400000D03*
X76697056Y-63302944D03*
X76697056Y-66697056D03*
X77400000Y-65000000D03*
%TD*%
%TO.P,J13,1,Pin_1*%
%TO.N,GND*%
X72600000Y-5000000D03*
X73302944Y-3302944D03*
X73302944Y-6697056D03*
X75000000Y-2600000D03*
D12*
X75000000Y-5000000D03*
D11*
X75000000Y-7400000D03*
X76697056Y-3302944D03*
X76697056Y-6697056D03*
X77400000Y-5000000D03*
%TD*%
%TO.P,J12,1,Pin_1*%
%TO.N,GND*%
X2600000Y-65000000D03*
X3302944Y-63302944D03*
X3302944Y-66697056D03*
X5000000Y-62600000D03*
D12*
X5000000Y-65000000D03*
D11*
X5000000Y-67400000D03*
X6697056Y-63302944D03*
X6697056Y-66697056D03*
X7400000Y-65000000D03*
%TD*%
%TO.P,J11,1,Pin_1*%
%TO.N,GND*%
X2600000Y-5000000D03*
X3302944Y-3302944D03*
X3302944Y-6697056D03*
X5000000Y-2600000D03*
D12*
X5000000Y-5000000D03*
D11*
X5000000Y-7400000D03*
X6697056Y-3302944D03*
X6697056Y-6697056D03*
X7400000Y-5000000D03*
%TD*%
D13*
%TO.P,J9,03,03*%
%TO.N,Net-(J9-Pad03)*%
X6800000Y-53460000D03*
%TO.P,J9,02,02*%
%TO.N,Net-(U3-VIN-)*%
X6800000Y-56000000D03*
D14*
%TO.P,J9,01,01*%
%TO.N,Net-(U3-VIN+)*%
X6800000Y-58540000D03*
%TD*%
D15*
%TO.P,J10,01,01*%
%TO.N,Net-(U13-SCLK)*%
X70142500Y-18132500D03*
%TO.P,J10,02,02*%
%TO.N,Net-(U13-DOUT{slash}nDRDY)*%
X70142500Y-20672500D03*
%TO.P,J10,03,03*%
%TO.N,Net-(U13-CLK)*%
X70142500Y-23212500D03*
%TO.P,J10,04,04*%
%TO.N,+5VD*%
X70142500Y-25752500D03*
%TO.P,J10,05,05*%
%TO.N,Earth*%
X70142500Y-28292500D03*
%TD*%
D16*
%TO.N,GND*%
X48500000Y-48000000D03*
X54400000Y-46700000D03*
X57300000Y-41600000D03*
X30500000Y-50000000D03*
X20600000Y-58100000D03*
X20000000Y-49300000D03*
X35300000Y-43000000D03*
X34700000Y-30300000D03*
X32900000Y-21800000D03*
X39700000Y-16100000D03*
X40400000Y-10700000D03*
%TO.N,Earth*%
X58700000Y-29000000D03*
X60500000Y-29000000D03*
%TO.N,-2.5VA*%
X52600000Y-20750000D03*
X36100000Y-41100000D03*
X46200000Y-55800000D03*
X46200000Y-59800000D03*
X17000000Y-51800000D03*
X17000000Y-58200000D03*
%TO.N,+2.5VA*%
X50900000Y-17395000D03*
X50900000Y-18700000D03*
%TO.N,-2.5VA*%
X48800000Y-20450000D03*
%TD*%
D17*
%TO.N,-2.5VA*%
X52300000Y-20450000D02*
X47800000Y-20450000D01*
X52350000Y-20500000D02*
X52300000Y-20450000D01*
X52600000Y-20750000D02*
X52350000Y-20500000D01*
D18*
%TO.N,GND*%
X40400000Y-10700000D02*
X40400000Y-14100000D01*
X49800000Y-46700000D02*
X48500000Y-48000000D01*
X54400000Y-46700000D02*
X49800000Y-46700000D01*
X57300000Y-44000000D02*
X54600000Y-46700000D01*
X54600000Y-46700000D02*
X54400000Y-46700000D01*
X57300000Y-41600000D02*
X57300000Y-44000000D01*
X29550000Y-49050000D02*
X29550000Y-48750000D01*
X29550000Y-48750000D02*
X35300000Y-43000000D01*
X30500000Y-50000000D02*
X29550000Y-49050000D01*
X29000000Y-49300000D02*
X29550000Y-48750000D01*
X20600000Y-49300000D02*
X20600000Y-58100000D01*
X20600000Y-49300000D02*
X29000000Y-49300000D01*
X20000000Y-49300000D02*
X20600000Y-49300000D01*
X35500000Y-42800000D02*
X35300000Y-43000000D01*
X35500000Y-32300000D02*
X35500000Y-42800000D01*
X34650000Y-31450000D02*
X35500000Y-32300000D01*
X34650000Y-29700000D02*
X34650000Y-31450000D01*
X34650000Y-29700000D02*
X34650000Y-30250000D01*
X34650000Y-19850000D02*
X34650000Y-29700000D01*
X34650000Y-30250000D02*
X34700000Y-30300000D01*
X34700000Y-19800000D02*
X34650000Y-19850000D01*
X34700000Y-19800000D02*
X32900000Y-21600000D01*
X40400000Y-14100000D02*
X34700000Y-19800000D01*
X32900000Y-21600000D02*
X32900000Y-21800000D01*
X40400000Y-14100000D02*
X40400000Y-15400000D01*
X40400000Y-15400000D02*
X39700000Y-16100000D01*
%TO.N,Earth*%
X60500000Y-29000000D02*
X58700000Y-29000000D01*
D17*
%TO.N,-2.5VA*%
X36100000Y-41100000D02*
X36100000Y-45700000D01*
X36100000Y-45700000D02*
X46200000Y-55800000D01*
X46200000Y-59800000D02*
X46200000Y-55800000D01*
X17000000Y-51800000D02*
X17000000Y-58200000D01*
%TO.N,+2.5VA*%
X50900000Y-18700000D02*
X50900000Y-17395000D01*
%TD*%
%TA.AperFunction,Conductor*%
%TO.N,GND*%
G36*
X79943039Y-19685D02*
G01*
X79988794Y-72489D01*
X80000000Y-124000D01*
X80000000Y-69876000D01*
X79980315Y-69943039D01*
X79927511Y-69988794D01*
X79876000Y-70000000D01*
X124000Y-70000000D01*
X56961Y-69980315D01*
X11206Y-69927511D01*
X0Y-69876000D01*
X0Y-64999999D01*
X1294922Y-64999999D01*
X1294922Y-65000000D01*
X1315219Y-65387287D01*
X1375886Y-65770323D01*
X1375887Y-65770330D01*
X1476262Y-66144936D01*
X1615244Y-66506994D01*
X1791310Y-66852543D01*
X2002523Y-67177783D01*
X2002525Y-67177785D01*
X2246586Y-67479176D01*
X2246593Y-67479184D01*
X2295316Y-67527907D01*
X3780240Y-66042982D01*
X3957017Y-66219759D01*
X2472093Y-67704684D01*
X2520815Y-67753406D01*
X2520823Y-67753413D01*
X2822214Y-67997474D01*
X2822216Y-67997476D01*
X3147456Y-68208689D01*
X3493005Y-68384755D01*
X3855063Y-68523737D01*
X4229669Y-68624112D01*
X4229676Y-68624113D01*
X4612712Y-68684780D01*
X4999999Y-68705078D01*
X5000001Y-68705078D01*
X5387287Y-68684780D01*
X5770323Y-68624113D01*
X5770330Y-68624112D01*
X6144936Y-68523737D01*
X6506994Y-68384755D01*
X6852543Y-68208689D01*
X7177783Y-67997476D01*
X7177785Y-67997474D01*
X7479176Y-67753413D01*
X7479184Y-67753406D01*
X7527907Y-67704684D01*
X6042982Y-66219759D01*
X6219759Y-66042982D01*
X7704684Y-67527907D01*
X7753406Y-67479184D01*
X7753413Y-67479176D01*
X7997474Y-67177785D01*
X7997476Y-67177783D01*
X8208689Y-66852543D01*
X8384755Y-66506994D01*
X8523737Y-66144936D01*
X8624112Y-65770330D01*
X8624113Y-65770323D01*
X8684780Y-65387287D01*
X8705078Y-65000000D01*
X8705078Y-64999999D01*
X71294922Y-64999999D01*
X71294922Y-65000000D01*
X71315219Y-65387287D01*
X71375886Y-65770323D01*
X71375887Y-65770330D01*
X71476262Y-66144936D01*
X71615244Y-66506994D01*
X71791310Y-66852543D01*
X72002523Y-67177783D01*
X72002525Y-67177785D01*
X72246586Y-67479176D01*
X72246593Y-67479184D01*
X72295316Y-67527907D01*
X73780240Y-66042982D01*
X73957017Y-66219759D01*
X72472093Y-67704684D01*
X72520815Y-67753406D01*
X72520823Y-67753413D01*
X72822214Y-67997474D01*
X72822216Y-67997476D01*
X73147456Y-68208689D01*
X73493005Y-68384755D01*
X73855063Y-68523737D01*
X74229669Y-68624112D01*
X74229676Y-68624113D01*
X74612712Y-68684780D01*
X74999999Y-68705078D01*
X75000001Y-68705078D01*
X75387287Y-68684780D01*
X75770323Y-68624113D01*
X75770330Y-68624112D01*
X76144936Y-68523737D01*
X76506994Y-68384755D01*
X76852543Y-68208689D01*
X77177783Y-67997476D01*
X77177785Y-67997474D01*
X77479176Y-67753413D01*
X77479184Y-67753406D01*
X77527907Y-67704684D01*
X76042982Y-66219759D01*
X76219759Y-66042982D01*
X77704684Y-67527907D01*
X77753406Y-67479184D01*
X77753413Y-67479176D01*
X77997474Y-67177785D01*
X77997476Y-67177783D01*
X78208689Y-66852543D01*
X78384755Y-66506994D01*
X78523737Y-66144936D01*
X78624112Y-65770330D01*
X78624113Y-65770323D01*
X78684780Y-65387287D01*
X78705078Y-65000000D01*
X78705078Y-64999999D01*
X78684780Y-64612712D01*
X78624113Y-64229676D01*
X78624112Y-64229669D01*
X78523737Y-63855063D01*
X78384755Y-63493005D01*
X78208689Y-63147456D01*
X77997476Y-62822216D01*
X77997474Y-62822214D01*
X77753413Y-62520823D01*
X77753406Y-62520815D01*
X77704684Y-62472093D01*
X76219759Y-63957017D01*
X76042982Y-63780240D01*
X77527907Y-62295316D01*
X77479184Y-62246593D01*
X77479176Y-62246586D01*
X77177785Y-62002525D01*
X77177783Y-62002523D01*
X76852543Y-61791310D01*
X76506994Y-61615244D01*
X76144936Y-61476262D01*
X75770330Y-61375887D01*
X75770323Y-61375886D01*
X75387287Y-61315219D01*
X75000001Y-61294922D01*
X74999999Y-61294922D01*
X74612712Y-61315219D01*
X74229676Y-61375886D01*
X74229669Y-61375887D01*
X73855063Y-61476262D01*
X73493005Y-61615244D01*
X73147456Y-61791310D01*
X72822216Y-62002523D01*
X72822214Y-62002525D01*
X72520823Y-62246586D01*
X72520815Y-62246593D01*
X72472093Y-62295316D01*
X73957017Y-63780240D01*
X73780240Y-63957017D01*
X72295316Y-62472093D01*
X72246593Y-62520815D01*
X72246586Y-62520823D01*
X72002525Y-62822214D01*
X72002523Y-62822216D01*
X71791310Y-63147456D01*
X71615244Y-63493005D01*
X71476262Y-63855063D01*
X71375887Y-64229669D01*
X71375886Y-64229676D01*
X71315219Y-64612712D01*
X71294922Y-64999999D01*
X8705078Y-64999999D01*
X8684780Y-64612712D01*
X8624113Y-64229676D01*
X8624112Y-64229669D01*
X8523737Y-63855063D01*
X8384755Y-63493005D01*
X8208689Y-63147456D01*
X7997476Y-62822216D01*
X7997474Y-62822214D01*
X7753413Y-62520823D01*
X7753406Y-62520815D01*
X7704684Y-62472093D01*
X6219759Y-63957017D01*
X6042982Y-63780240D01*
X7527907Y-62295316D01*
X7479184Y-62246593D01*
X7479176Y-62246586D01*
X7177785Y-62002525D01*
X7177783Y-62002523D01*
X6852543Y-61791310D01*
X6506994Y-61615244D01*
X6144936Y-61476262D01*
X5770330Y-61375887D01*
X5770323Y-61375886D01*
X5387287Y-61315219D01*
X5000001Y-61294922D01*
X4999999Y-61294922D01*
X4612712Y-61315219D01*
X4229676Y-61375886D01*
X4229669Y-61375887D01*
X3855063Y-61476262D01*
X3493005Y-61615244D01*
X3147456Y-61791310D01*
X2822216Y-62002523D01*
X2822214Y-62002525D01*
X2520823Y-62246586D01*
X2520815Y-62246593D01*
X2472093Y-62295316D01*
X3957017Y-63780240D01*
X3780240Y-63957017D01*
X2295316Y-62472093D01*
X2246593Y-62520815D01*
X2246586Y-62520823D01*
X2002525Y-62822214D01*
X2002523Y-62822216D01*
X1791310Y-63147456D01*
X1615244Y-63493005D01*
X1476262Y-63855063D01*
X1375887Y-64229669D01*
X1375886Y-64229676D01*
X1315219Y-64612712D01*
X1294922Y-64999999D01*
X0Y-64999999D01*
X0Y-53459998D01*
X5529666Y-53459998D01*
X5529666Y-53460001D01*
X5548964Y-53680585D01*
X5548965Y-53680592D01*
X5606275Y-53894475D01*
X5606279Y-53894486D01*
X5699856Y-54095163D01*
X5699858Y-54095167D01*
X5826868Y-54276555D01*
X5983445Y-54433132D01*
X6164833Y-54560142D01*
X6226828Y-54589050D01*
X6288091Y-54617618D01*
X6340531Y-54663790D01*
X6359683Y-54730983D01*
X6339467Y-54797865D01*
X6288091Y-54842382D01*
X6164836Y-54899856D01*
X6164834Y-54899857D01*
X5983444Y-55026868D01*
X5826868Y-55183444D01*
X5699857Y-55364834D01*
X5699856Y-55364836D01*
X5606279Y-55565513D01*
X5606275Y-55565524D01*
X5548965Y-55779407D01*
X5548964Y-55779414D01*
X5529666Y-55999998D01*
X5529666Y-56000001D01*
X5548964Y-56220585D01*
X5548965Y-56220592D01*
X5606275Y-56434475D01*
X5606279Y-56434486D01*
X5624734Y-56474062D01*
X5699858Y-56635167D01*
X5826868Y-56816555D01*
X5983445Y-56973132D01*
X6091690Y-57048926D01*
X6135314Y-57103502D01*
X6142508Y-57173000D01*
X6110985Y-57235355D01*
X6050755Y-57270769D01*
X6020569Y-57274500D01*
X5987131Y-57274500D01*
X5987123Y-57274501D01*
X5927516Y-57280908D01*
X5792671Y-57331202D01*
X5792664Y-57331206D01*
X5677455Y-57417452D01*
X5677452Y-57417455D01*
X5591206Y-57532664D01*
X5591202Y-57532671D01*
X5540908Y-57667517D01*
X5534501Y-57727116D01*
X5534501Y-57727123D01*
X5534500Y-57727135D01*
X5534500Y-59352870D01*
X5534501Y-59352876D01*
X5540908Y-59412483D01*
X5591202Y-59547328D01*
X5591206Y-59547335D01*
X5677452Y-59662544D01*
X5677455Y-59662547D01*
X5792664Y-59748793D01*
X5792671Y-59748797D01*
X5927517Y-59799091D01*
X5927516Y-59799091D01*
X5934444Y-59799835D01*
X5987127Y-59805500D01*
X7612872Y-59805499D01*
X7672483Y-59799091D01*
X7807331Y-59748796D01*
X7922546Y-59662546D01*
X8008796Y-59547331D01*
X8059091Y-59412483D01*
X8065500Y-59352873D01*
X8065499Y-57727128D01*
X8059091Y-57667517D01*
X8020633Y-57564407D01*
X8008797Y-57532671D01*
X8008793Y-57532664D01*
X7922547Y-57417455D01*
X7922544Y-57417452D01*
X7807335Y-57331206D01*
X7807328Y-57331202D01*
X7672482Y-57280908D01*
X7672483Y-57280908D01*
X7612883Y-57274501D01*
X7612881Y-57274500D01*
X7612873Y-57274500D01*
X7612865Y-57274500D01*
X7579435Y-57274500D01*
X7512396Y-57254815D01*
X7466641Y-57202011D01*
X7456697Y-57132853D01*
X7485722Y-57069297D01*
X7508307Y-57048928D01*
X7616555Y-56973132D01*
X7773132Y-56816555D01*
X7900142Y-56635167D01*
X7993723Y-56434480D01*
X8051035Y-56220591D01*
X8070334Y-56000000D01*
X8051035Y-55779409D01*
X7993723Y-55565520D01*
X7900142Y-55364833D01*
X7773132Y-55183445D01*
X7616555Y-55026868D01*
X7435167Y-54899858D01*
X7311907Y-54842381D01*
X7259468Y-54796210D01*
X7240316Y-54729017D01*
X7260531Y-54662136D01*
X7311908Y-54617618D01*
X7435167Y-54560142D01*
X7616555Y-54433132D01*
X7773132Y-54276555D01*
X7900142Y-54095167D01*
X7993723Y-53894480D01*
X8051035Y-53680591D01*
X8070334Y-53460000D01*
X8051035Y-53239409D01*
X7993723Y-53025520D01*
X7900142Y-52824833D01*
X7773132Y-52643445D01*
X7616555Y-52486868D01*
X7435167Y-52359858D01*
X7435163Y-52359856D01*
X7234486Y-52266279D01*
X7234475Y-52266275D01*
X7020592Y-52208965D01*
X7020585Y-52208964D01*
X6800002Y-52189666D01*
X6799998Y-52189666D01*
X6579414Y-52208964D01*
X6579407Y-52208965D01*
X6365524Y-52266275D01*
X6365513Y-52266279D01*
X6164836Y-52359856D01*
X6164834Y-52359857D01*
X5983444Y-52486868D01*
X5826868Y-52643444D01*
X5699857Y-52824834D01*
X5699856Y-52824836D01*
X5606279Y-53025513D01*
X5606275Y-53025524D01*
X5548965Y-53239407D01*
X5548964Y-53239414D01*
X5529666Y-53459998D01*
X0Y-53459998D01*
X0Y-51799996D01*
X16194435Y-51799996D01*
X16194435Y-51800000D01*
X16196448Y-51817869D01*
X16197242Y-51824918D01*
X16197801Y-51846181D01*
X16197298Y-51854606D01*
X16245353Y-52431268D01*
X16248667Y-52459715D01*
X16249500Y-52474062D01*
X16249500Y-57536632D01*
X16246349Y-57564407D01*
X16245353Y-57568738D01*
X16245352Y-57568743D01*
X16197297Y-58145403D01*
X16196015Y-58165720D01*
X16195975Y-58166658D01*
X16196177Y-58173301D01*
X16195456Y-58190928D01*
X16194435Y-58199998D01*
X16194435Y-58200003D01*
X16197370Y-58226054D01*
X16198092Y-58236157D01*
X16198228Y-58240631D01*
X16198801Y-58244744D01*
X16200583Y-58254573D01*
X16214630Y-58379249D01*
X16274210Y-58549521D01*
X16370184Y-58702262D01*
X16497738Y-58829816D01*
X16650478Y-58925789D01*
X16820745Y-58985368D01*
X16820750Y-58985369D01*
X16999996Y-59005565D01*
X17000000Y-59005565D01*
X17000004Y-59005565D01*
X17179249Y-58985369D01*
X17179252Y-58985368D01*
X17179255Y-58985368D01*
X17349522Y-58925789D01*
X17502262Y-58829816D01*
X17629816Y-58702262D01*
X17725789Y-58549522D01*
X17785368Y-58379255D01*
X17802630Y-58226054D01*
X17805565Y-58200002D01*
X17805565Y-58199999D01*
X17802757Y-58175083D01*
X17802198Y-58153804D01*
X17802701Y-58145391D01*
X17754648Y-57568749D01*
X17754646Y-57568728D01*
X17751333Y-57540282D01*
X17750500Y-57525936D01*
X17750500Y-52463362D01*
X17753651Y-52435586D01*
X17754648Y-52431251D01*
X17802701Y-51854608D01*
X17803983Y-51834281D01*
X17804023Y-51833348D01*
X17803821Y-51826734D01*
X17804544Y-51809058D01*
X17805565Y-51800000D01*
X17802625Y-51773917D01*
X17801906Y-51763834D01*
X17801770Y-51759359D01*
X17801769Y-51759355D01*
X17801769Y-51759349D01*
X17801199Y-51755263D01*
X17799416Y-51745432D01*
X17785368Y-51620745D01*
X17725789Y-51450478D01*
X17629816Y-51297738D01*
X17502262Y-51170184D01*
X17349523Y-51074211D01*
X17179254Y-51014631D01*
X17179249Y-51014630D01*
X17000004Y-50994435D01*
X16999996Y-50994435D01*
X16820750Y-51014630D01*
X16820745Y-51014631D01*
X16650476Y-51074211D01*
X16497737Y-51170184D01*
X16370184Y-51297737D01*
X16274211Y-51450476D01*
X16214631Y-51620745D01*
X16214630Y-51620750D01*
X16194435Y-51799996D01*
X0Y-51799996D01*
X0Y-41099996D01*
X35294435Y-41099996D01*
X35294435Y-41100000D01*
X35296448Y-41117869D01*
X35297242Y-41124918D01*
X35297801Y-41146181D01*
X35297298Y-41154606D01*
X35345353Y-41731268D01*
X35348667Y-41759715D01*
X35349500Y-41774062D01*
X35349500Y-45773918D01*
X35349500Y-45773920D01*
X35349499Y-45773920D01*
X35378340Y-45918907D01*
X35378343Y-45918917D01*
X35434914Y-46055492D01*
X35467812Y-46104727D01*
X35467813Y-46104730D01*
X35517046Y-46178414D01*
X35517052Y-46178421D01*
X45200246Y-55861614D01*
X45217662Y-55883487D01*
X45220020Y-55887254D01*
X45394063Y-56092940D01*
X45422340Y-56156832D01*
X45422975Y-56162739D01*
X45445353Y-56431268D01*
X45448667Y-56459715D01*
X45449500Y-56474062D01*
X45449500Y-59136632D01*
X45446349Y-59164407D01*
X45445353Y-59168738D01*
X45445352Y-59168743D01*
X45397297Y-59745403D01*
X45396015Y-59765720D01*
X45395975Y-59766658D01*
X45396177Y-59773301D01*
X45395456Y-59790928D01*
X45394435Y-59799998D01*
X45394435Y-59800003D01*
X45397370Y-59826054D01*
X45398092Y-59836157D01*
X45398228Y-59840631D01*
X45398801Y-59844744D01*
X45400583Y-59854573D01*
X45414630Y-59979249D01*
X45474210Y-60149521D01*
X45570184Y-60302262D01*
X45697738Y-60429816D01*
X45850478Y-60525789D01*
X46020745Y-60585368D01*
X46020750Y-60585369D01*
X46199996Y-60605565D01*
X46200000Y-60605565D01*
X46200004Y-60605565D01*
X46379249Y-60585369D01*
X46379252Y-60585368D01*
X46379255Y-60585368D01*
X46549522Y-60525789D01*
X46702262Y-60429816D01*
X46829816Y-60302262D01*
X46925789Y-60149522D01*
X46985368Y-59979255D01*
X47002630Y-59826054D01*
X47005565Y-59800002D01*
X47005565Y-59799999D01*
X47002757Y-59775083D01*
X47002198Y-59753804D01*
X47002701Y-59745391D01*
X46954648Y-59168749D01*
X46954646Y-59168728D01*
X46951333Y-59140282D01*
X46950500Y-59125936D01*
X46950500Y-56463362D01*
X46953651Y-56435586D01*
X46954648Y-56431251D01*
X47002701Y-55854608D01*
X47003983Y-55834281D01*
X47004023Y-55833348D01*
X47003821Y-55826734D01*
X47004544Y-55809058D01*
X47005565Y-55800000D01*
X47002625Y-55773917D01*
X47001906Y-55763834D01*
X47001770Y-55759359D01*
X47001769Y-55759355D01*
X47001769Y-55759349D01*
X47001199Y-55755263D01*
X46999416Y-55745432D01*
X46985368Y-55620745D01*
X46925789Y-55450478D01*
X46829816Y-55297738D01*
X46756107Y-55224029D01*
X46751036Y-55218646D01*
X46728983Y-55193791D01*
X46712679Y-55179996D01*
X46705101Y-55173023D01*
X46702262Y-55170184D01*
X46702259Y-55170182D01*
X46702258Y-55170181D01*
X46697800Y-55166626D01*
X46690987Y-55161641D01*
X46287246Y-54820015D01*
X46264787Y-54802242D01*
X46254055Y-54792687D01*
X36886819Y-45425451D01*
X36853334Y-45364128D01*
X36850500Y-45337770D01*
X36850500Y-41763362D01*
X36853651Y-41735586D01*
X36854648Y-41731251D01*
X36902701Y-41154608D01*
X36903983Y-41134281D01*
X36904023Y-41133348D01*
X36903821Y-41126734D01*
X36904544Y-41109058D01*
X36905565Y-41100000D01*
X36902625Y-41073917D01*
X36901906Y-41063834D01*
X36901770Y-41059359D01*
X36901769Y-41059355D01*
X36901769Y-41059349D01*
X36901199Y-41055263D01*
X36899416Y-41045432D01*
X36885368Y-40920745D01*
X36825789Y-40750478D01*
X36729816Y-40597738D01*
X36602262Y-40470184D01*
X36449523Y-40374211D01*
X36279254Y-40314631D01*
X36279249Y-40314630D01*
X36100004Y-40294435D01*
X36099996Y-40294435D01*
X35920750Y-40314630D01*
X35920745Y-40314631D01*
X35750476Y-40374211D01*
X35597737Y-40470184D01*
X35470184Y-40597737D01*
X35374211Y-40750476D01*
X35314631Y-40920745D01*
X35314630Y-40920750D01*
X35294435Y-41099996D01*
X0Y-41099996D01*
X0Y-28999996D01*
X57894435Y-28999996D01*
X57894435Y-29000003D01*
X57914630Y-29179249D01*
X57914631Y-29179254D01*
X57974211Y-29349523D01*
X58048321Y-29467468D01*
X58070184Y-29502262D01*
X58197738Y-29629816D01*
X58288080Y-29686582D01*
X58314306Y-29703061D01*
X58350478Y-29725789D01*
X58434187Y-29755080D01*
X58520745Y-29785368D01*
X58520750Y-29785369D01*
X58699996Y-29805565D01*
X58700000Y-29805565D01*
X58700004Y-29805565D01*
X58879249Y-29785369D01*
X58879250Y-29785368D01*
X58879255Y-29785368D01*
X58958251Y-29757725D01*
X58973651Y-29753431D01*
X58998687Y-29748166D01*
X59382495Y-29608022D01*
X59425026Y-29600500D01*
X59774974Y-29600500D01*
X59817505Y-29608022D01*
X60067565Y-29699329D01*
X60067567Y-29699329D01*
X60201314Y-29748165D01*
X60241824Y-29761054D01*
X60243226Y-29761227D01*
X60268956Y-29767246D01*
X60320745Y-29785368D01*
X60320749Y-29785368D01*
X60320751Y-29785369D01*
X60499996Y-29805565D01*
X60500000Y-29805565D01*
X60500004Y-29805565D01*
X60679249Y-29785369D01*
X60679252Y-29785368D01*
X60679255Y-29785368D01*
X60849522Y-29725789D01*
X61002262Y-29629816D01*
X61129816Y-29502262D01*
X61225789Y-29349522D01*
X61285368Y-29179255D01*
X61287257Y-29162491D01*
X61305565Y-29000003D01*
X61305565Y-28999996D01*
X61285369Y-28820750D01*
X61285368Y-28820745D01*
X61240250Y-28691806D01*
X61225789Y-28650478D01*
X61129816Y-28497738D01*
X61002262Y-28370184D01*
X60982076Y-28357500D01*
X60849523Y-28274211D01*
X60679254Y-28214631D01*
X60679249Y-28214630D01*
X60500004Y-28194435D01*
X60499996Y-28194435D01*
X60320746Y-28214631D01*
X60320745Y-28214631D01*
X60241764Y-28242267D01*
X60226338Y-28246569D01*
X60201314Y-28251833D01*
X59817503Y-28391978D01*
X59774972Y-28399500D01*
X59425027Y-28399500D01*
X59382496Y-28391978D01*
X58998687Y-28251834D01*
X58987104Y-28248150D01*
X58958111Y-28238927D01*
X58958104Y-28238926D01*
X58958095Y-28238924D01*
X58956718Y-28238754D01*
X58930992Y-28232735D01*
X58879252Y-28214631D01*
X58700004Y-28194435D01*
X58699996Y-28194435D01*
X58520750Y-28214630D01*
X58520745Y-28214631D01*
X58350476Y-28274211D01*
X58197737Y-28370184D01*
X58070184Y-28497737D01*
X57974211Y-28650476D01*
X57914631Y-28820745D01*
X57914630Y-28820750D01*
X57894435Y-28999996D01*
X0Y-28999996D01*
X0Y-20523920D01*
X47049499Y-20523920D01*
X47078340Y-20668907D01*
X47078343Y-20668917D01*
X47134912Y-20805488D01*
X47134919Y-20805501D01*
X47217048Y-20928415D01*
X47217051Y-20928419D01*
X47321580Y-21032948D01*
X47321584Y-21032951D01*
X47444498Y-21115080D01*
X47444511Y-21115087D01*
X47571698Y-21167769D01*
X47581087Y-21171658D01*
X47581091Y-21171658D01*
X47581092Y-21171659D01*
X47726079Y-21200500D01*
X47726082Y-21200500D01*
X48500028Y-21200500D01*
X48540982Y-21207457D01*
X48597742Y-21227319D01*
X48620745Y-21235368D01*
X48620750Y-21235369D01*
X48799996Y-21255565D01*
X48800000Y-21255565D01*
X48800004Y-21255565D01*
X48979249Y-21235369D01*
X48979252Y-21235368D01*
X48979255Y-21235368D01*
X49059017Y-21207457D01*
X49099972Y-21200500D01*
X51869189Y-21200500D01*
X51936228Y-21220185D01*
X51966130Y-21247180D01*
X51970181Y-21252259D01*
X51979087Y-21261165D01*
X51986526Y-21269296D01*
X52001341Y-21287011D01*
X52002225Y-21288009D01*
X52062152Y-21345395D01*
X52064477Y-21347621D01*
X52072943Y-21355021D01*
X52097738Y-21379816D01*
X52250478Y-21475789D01*
X52331012Y-21503969D01*
X52420745Y-21535368D01*
X52420750Y-21535369D01*
X52599996Y-21555565D01*
X52600000Y-21555565D01*
X52600004Y-21555565D01*
X52779249Y-21535369D01*
X52779252Y-21535368D01*
X52779255Y-21535368D01*
X52949522Y-21475789D01*
X53102262Y-21379816D01*
X53229816Y-21252262D01*
X53325789Y-21099522D01*
X53385368Y-20929255D01*
X53385369Y-20929249D01*
X53405565Y-20750003D01*
X53405565Y-20749996D01*
X53385369Y-20570750D01*
X53385368Y-20570745D01*
X53368983Y-20523920D01*
X53325789Y-20400478D01*
X53316804Y-20386179D01*
X53282449Y-20331503D01*
X53229816Y-20247738D01*
X53102262Y-20120184D01*
X53091107Y-20113174D01*
X53080275Y-20105529D01*
X52798081Y-19882837D01*
X52789579Y-19876456D01*
X52783157Y-19870884D01*
X52783131Y-19870917D01*
X52778420Y-19867051D01*
X52742472Y-19843032D01*
X52681844Y-19802522D01*
X52655495Y-19784916D01*
X52655493Y-19784915D01*
X52655490Y-19784913D01*
X52518917Y-19728343D01*
X52518907Y-19728340D01*
X52373920Y-19699500D01*
X52373918Y-19699500D01*
X51197114Y-19699500D01*
X51130075Y-19679815D01*
X51084320Y-19627011D01*
X51074376Y-19557853D01*
X51103401Y-19494297D01*
X51156160Y-19458458D01*
X51192531Y-19445730D01*
X51249522Y-19425789D01*
X51402262Y-19329816D01*
X51529816Y-19202262D01*
X51625789Y-19049522D01*
X51685368Y-18879255D01*
X51685741Y-18875951D01*
X51705565Y-18700002D01*
X51705565Y-18699999D01*
X51702757Y-18675083D01*
X51702198Y-18653804D01*
X51702701Y-18645391D01*
X51654648Y-18068749D01*
X51654646Y-18068728D01*
X51654503Y-18067500D01*
X68102000Y-18067500D01*
X68102000Y-18197502D01*
X68107195Y-18270152D01*
X68148133Y-18409568D01*
X68148136Y-18409575D01*
X68226686Y-18531801D01*
X68226688Y-18531804D01*
X68226689Y-18531805D01*
X68226690Y-18531806D01*
X68336503Y-18626960D01*
X68336504Y-18626960D01*
X68336506Y-18626962D01*
X68468669Y-18687319D01*
X68468676Y-18687321D01*
X68612500Y-18708000D01*
X68933648Y-18708000D01*
X69000687Y-18727685D01*
X69040699Y-18769422D01*
X69051596Y-18788063D01*
X69071588Y-18820051D01*
X69088185Y-18844952D01*
X69101185Y-18863269D01*
X69110184Y-18875950D01*
X69118260Y-18886711D01*
X69126532Y-18897733D01*
X69149499Y-18926692D01*
X69156226Y-18934993D01*
X69180206Y-18963969D01*
X69180214Y-18963978D01*
X69199409Y-18985870D01*
X69225409Y-19013870D01*
X69245396Y-19034223D01*
X69267001Y-19055028D01*
X69272407Y-19060234D01*
X69293163Y-19079148D01*
X69293174Y-19079158D01*
X69322174Y-19104158D01*
X69338278Y-19117476D01*
X69367278Y-19140476D01*
X69389050Y-19156816D01*
X69414410Y-19174814D01*
X69420047Y-19178814D01*
X69444948Y-19195411D01*
X69455910Y-19202262D01*
X69476936Y-19215403D01*
X69486870Y-19221456D01*
X69518870Y-19240456D01*
X69551197Y-19258105D01*
X69585197Y-19275105D01*
X69612404Y-19287724D01*
X69614283Y-19288529D01*
X69668145Y-19333034D01*
X69689395Y-19399594D01*
X69671287Y-19467076D01*
X69619570Y-19514056D01*
X69614293Y-19516466D01*
X69613522Y-19516796D01*
X69612382Y-19517285D01*
X69585203Y-19529891D01*
X69551202Y-19546892D01*
X69518871Y-19564543D01*
X69486869Y-19583544D01*
X69476904Y-19589616D01*
X69444948Y-19609588D01*
X69420047Y-19626185D01*
X69389048Y-19648185D01*
X69367285Y-19664518D01*
X69338262Y-19687537D01*
X69322195Y-19700824D01*
X69293163Y-19725851D01*
X69272407Y-19744765D01*
X69253733Y-19762748D01*
X69245396Y-19770777D01*
X69245384Y-19770788D01*
X69245379Y-19770794D01*
X69225407Y-19791131D01*
X69199418Y-19819119D01*
X69180206Y-19841030D01*
X69156226Y-19870006D01*
X69149499Y-19878307D01*
X69126532Y-19907266D01*
X69110185Y-19929048D01*
X69088185Y-19960047D01*
X69071588Y-19984948D01*
X69051596Y-20016936D01*
X69040699Y-20035578D01*
X68989873Y-20083520D01*
X68933648Y-20097000D01*
X68612497Y-20097000D01*
X68539847Y-20102195D01*
X68400431Y-20143133D01*
X68400424Y-20143136D01*
X68278198Y-20221686D01*
X68278195Y-20221688D01*
X68183040Y-20331503D01*
X68183037Y-20331506D01*
X68122680Y-20463669D01*
X68122678Y-20463676D01*
X68102000Y-20607500D01*
X68102000Y-20737502D01*
X68107195Y-20810152D01*
X68137506Y-20913377D01*
X68142166Y-20929249D01*
X68148133Y-20949568D01*
X68148136Y-20949575D01*
X68226686Y-21071801D01*
X68226688Y-21071804D01*
X68226689Y-21071805D01*
X68226690Y-21071806D01*
X68336503Y-21166960D01*
X68336504Y-21166960D01*
X68336506Y-21166962D01*
X68468669Y-21227319D01*
X68468676Y-21227321D01*
X68612500Y-21248000D01*
X68933648Y-21248000D01*
X69000687Y-21267685D01*
X69040699Y-21309422D01*
X69051596Y-21328063D01*
X69071588Y-21360051D01*
X69088185Y-21384952D01*
X69110185Y-21415951D01*
X69126532Y-21437733D01*
X69149499Y-21466692D01*
X69156226Y-21474993D01*
X69180206Y-21503969D01*
X69199418Y-21525880D01*
X69208229Y-21535369D01*
X69225409Y-21553870D01*
X69245396Y-21574223D01*
X69267001Y-21595028D01*
X69272407Y-21600234D01*
X69293163Y-21619148D01*
X69293174Y-21619158D01*
X69322174Y-21644158D01*
X69338278Y-21657476D01*
X69367278Y-21680476D01*
X69389050Y-21696816D01*
X69414410Y-21714814D01*
X69420047Y-21718814D01*
X69444948Y-21735411D01*
X69476904Y-21755383D01*
X69476936Y-21755403D01*
X69486870Y-21761456D01*
X69518870Y-21780456D01*
X69551197Y-21798105D01*
X69585197Y-21815105D01*
X69612404Y-21827724D01*
X69614283Y-21828529D01*
X69668145Y-21873034D01*
X69689395Y-21939594D01*
X69671287Y-22007076D01*
X69619570Y-22054056D01*
X69614293Y-22056466D01*
X69613522Y-22056796D01*
X69612382Y-22057285D01*
X69585203Y-22069891D01*
X69551202Y-22086892D01*
X69518871Y-22104543D01*
X69486869Y-22123544D01*
X69476904Y-22129616D01*
X69444948Y-22149588D01*
X69420047Y-22166185D01*
X69389048Y-22188185D01*
X69367285Y-22204518D01*
X69338262Y-22227537D01*
X69322195Y-22240824D01*
X69293163Y-22265851D01*
X69272407Y-22284765D01*
X69253733Y-22302748D01*
X69245396Y-22310777D01*
X69245384Y-22310788D01*
X69245379Y-22310794D01*
X69225407Y-22331131D01*
X69199418Y-22359119D01*
X69180206Y-22381030D01*
X69156226Y-22410006D01*
X69149499Y-22418307D01*
X69126532Y-22447266D01*
X69110185Y-22469048D01*
X69088185Y-22500047D01*
X69071588Y-22524948D01*
X69051596Y-22556936D01*
X69040699Y-22575578D01*
X68989873Y-22623520D01*
X68933648Y-22637000D01*
X68612497Y-22637000D01*
X68539847Y-22642195D01*
X68400431Y-22683133D01*
X68400424Y-22683136D01*
X68278198Y-22761686D01*
X68278195Y-22761688D01*
X68183040Y-22871503D01*
X68183037Y-22871506D01*
X68122680Y-23003669D01*
X68122678Y-23003676D01*
X68102000Y-23147500D01*
X68102000Y-23277502D01*
X68107195Y-23350152D01*
X68148133Y-23489568D01*
X68148136Y-23489575D01*
X68226686Y-23611801D01*
X68226688Y-23611804D01*
X68226689Y-23611805D01*
X68226690Y-23611806D01*
X68336503Y-23706960D01*
X68336504Y-23706960D01*
X68336506Y-23706962D01*
X68468669Y-23767319D01*
X68468676Y-23767321D01*
X68612500Y-23788000D01*
X68933648Y-23788000D01*
X69000687Y-23807685D01*
X69040699Y-23849422D01*
X69051596Y-23868063D01*
X69071588Y-23900051D01*
X69088185Y-23924952D01*
X69110185Y-23955951D01*
X69126532Y-23977733D01*
X69149499Y-24006692D01*
X69156226Y-24014993D01*
X69180206Y-24043969D01*
X69180214Y-24043978D01*
X69199409Y-24065870D01*
X69225409Y-24093870D01*
X69245396Y-24114223D01*
X69267001Y-24135028D01*
X69272407Y-24140234D01*
X69293163Y-24159148D01*
X69293174Y-24159158D01*
X69322174Y-24184158D01*
X69338278Y-24197476D01*
X69367278Y-24220476D01*
X69389050Y-24236816D01*
X69414410Y-24254814D01*
X69420047Y-24258814D01*
X69444948Y-24275411D01*
X69476904Y-24295383D01*
X69476936Y-24295403D01*
X69486870Y-24301456D01*
X69518870Y-24320456D01*
X69551197Y-24338105D01*
X69585197Y-24355105D01*
X69612404Y-24367724D01*
X69614283Y-24368529D01*
X69668145Y-24413034D01*
X69689395Y-24479594D01*
X69671287Y-24547076D01*
X69619570Y-24594056D01*
X69614293Y-24596466D01*
X69613522Y-24596796D01*
X69612382Y-24597285D01*
X69585203Y-24609891D01*
X69551202Y-24626892D01*
X69518871Y-24644543D01*
X69486869Y-24663544D01*
X69476904Y-24669616D01*
X69444948Y-24689588D01*
X69420047Y-24706185D01*
X69389048Y-24728185D01*
X69367285Y-24744518D01*
X69338262Y-24767537D01*
X69322195Y-24780824D01*
X69293163Y-24805851D01*
X69272407Y-24824765D01*
X69253733Y-24842748D01*
X69245396Y-24850777D01*
X69245384Y-24850788D01*
X69245379Y-24850794D01*
X69225407Y-24871131D01*
X69199418Y-24899119D01*
X69180206Y-24921030D01*
X69156226Y-24950006D01*
X69149499Y-24958307D01*
X69126532Y-24987266D01*
X69110185Y-25009048D01*
X69088185Y-25040047D01*
X69071588Y-25064948D01*
X69051596Y-25096936D01*
X69040699Y-25115578D01*
X68989873Y-25163520D01*
X68933648Y-25177000D01*
X68612497Y-25177000D01*
X68539847Y-25182195D01*
X68400431Y-25223133D01*
X68400424Y-25223136D01*
X68278198Y-25301686D01*
X68278195Y-25301688D01*
X68183040Y-25411503D01*
X68183037Y-25411506D01*
X68122680Y-25543669D01*
X68122678Y-25543676D01*
X68102000Y-25687500D01*
X68102000Y-25817502D01*
X68107195Y-25890152D01*
X68148133Y-26029568D01*
X68148136Y-26029575D01*
X68226686Y-26151801D01*
X68226688Y-26151804D01*
X68226689Y-26151805D01*
X68226690Y-26151806D01*
X68336503Y-26246960D01*
X68336504Y-26246960D01*
X68336506Y-26246962D01*
X68468669Y-26307319D01*
X68468676Y-26307321D01*
X68612500Y-26328000D01*
X68933648Y-26328000D01*
X69000687Y-26347685D01*
X69040699Y-26389422D01*
X69051596Y-26408063D01*
X69071588Y-26440051D01*
X69088185Y-26464952D01*
X69110185Y-26495951D01*
X69126532Y-26517733D01*
X69149499Y-26546692D01*
X69156226Y-26554993D01*
X69180206Y-26583969D01*
X69180214Y-26583978D01*
X69199409Y-26605870D01*
X69225409Y-26633870D01*
X69245396Y-26654223D01*
X69267001Y-26675028D01*
X69272407Y-26680234D01*
X69293163Y-26699148D01*
X69293174Y-26699158D01*
X69322174Y-26724158D01*
X69338278Y-26737476D01*
X69367278Y-26760476D01*
X69389050Y-26776816D01*
X69414410Y-26794814D01*
X69420047Y-26798814D01*
X69444948Y-26815411D01*
X69476904Y-26835383D01*
X69476936Y-26835403D01*
X69486870Y-26841456D01*
X69518870Y-26860456D01*
X69551197Y-26878105D01*
X69585197Y-26895105D01*
X69612404Y-26907724D01*
X69614283Y-26908529D01*
X69668145Y-26953034D01*
X69689395Y-27019594D01*
X69671287Y-27087076D01*
X69619570Y-27134056D01*
X69614293Y-27136466D01*
X69613522Y-27136796D01*
X69612382Y-27137285D01*
X69585203Y-27149891D01*
X69551202Y-27166892D01*
X69518871Y-27184543D01*
X69486869Y-27203544D01*
X69476904Y-27209616D01*
X69444948Y-27229588D01*
X69420047Y-27246185D01*
X69389048Y-27268185D01*
X69367285Y-27284518D01*
X69338262Y-27307537D01*
X69322195Y-27320824D01*
X69293163Y-27345851D01*
X69272407Y-27364765D01*
X69253733Y-27382748D01*
X69245396Y-27390777D01*
X69245384Y-27390788D01*
X69245379Y-27390794D01*
X69225407Y-27411131D01*
X69199418Y-27439119D01*
X69180206Y-27461030D01*
X69156226Y-27490006D01*
X69149499Y-27498307D01*
X69126532Y-27527266D01*
X69110185Y-27549048D01*
X69088185Y-27580047D01*
X69071588Y-27604948D01*
X69051596Y-27636936D01*
X69040699Y-27655578D01*
X68989873Y-27703520D01*
X68933648Y-27717000D01*
X68612497Y-27717000D01*
X68539847Y-27722195D01*
X68400431Y-27763133D01*
X68400424Y-27763136D01*
X68278198Y-27841686D01*
X68278195Y-27841688D01*
X68183040Y-27951503D01*
X68183037Y-27951506D01*
X68122680Y-28083669D01*
X68122678Y-28083676D01*
X68102000Y-28227500D01*
X68102000Y-28357502D01*
X68107195Y-28430152D01*
X68148133Y-28569568D01*
X68148136Y-28569575D01*
X68226686Y-28691801D01*
X68226688Y-28691804D01*
X68226689Y-28691805D01*
X68226690Y-28691806D01*
X68336503Y-28786960D01*
X68336504Y-28786960D01*
X68336506Y-28786962D01*
X68468669Y-28847319D01*
X68468676Y-28847321D01*
X68612500Y-28868000D01*
X68933648Y-28868000D01*
X69000687Y-28887685D01*
X69040699Y-28929422D01*
X69051596Y-28948063D01*
X69071588Y-28980051D01*
X69088185Y-29004952D01*
X69110185Y-29035951D01*
X69126532Y-29057733D01*
X69149499Y-29086692D01*
X69156226Y-29094993D01*
X69180206Y-29123969D01*
X69180214Y-29123978D01*
X69199409Y-29145870D01*
X69225409Y-29173870D01*
X69245396Y-29194223D01*
X69267001Y-29215028D01*
X69272407Y-29220234D01*
X69293163Y-29239148D01*
X69293174Y-29239158D01*
X69322174Y-29264158D01*
X69338278Y-29277476D01*
X69367278Y-29300476D01*
X69389050Y-29316816D01*
X69414410Y-29334814D01*
X69420047Y-29338814D01*
X69444948Y-29355411D01*
X69476904Y-29375383D01*
X69476936Y-29375403D01*
X69486870Y-29381456D01*
X69518870Y-29400456D01*
X69551197Y-29418105D01*
X69585197Y-29435105D01*
X69612404Y-29447724D01*
X69647404Y-29462724D01*
X69658905Y-29467487D01*
X69693905Y-29481487D01*
X69717932Y-29490405D01*
X69752932Y-29502405D01*
X69785306Y-29512318D01*
X69800633Y-29516460D01*
X69822274Y-29522310D01*
X69822300Y-29522316D01*
X69822306Y-29522318D01*
X69844757Y-29527843D01*
X69844772Y-29527846D01*
X69844791Y-29527851D01*
X69880724Y-29535836D01*
X69880741Y-29535839D01*
X69880757Y-29535843D01*
X69899017Y-29539553D01*
X69937017Y-29546553D01*
X69974631Y-29552043D01*
X69974643Y-29552044D01*
X69974648Y-29552045D01*
X70011602Y-29556040D01*
X70011611Y-29556040D01*
X70011631Y-29556043D01*
X70026322Y-29557417D01*
X70026335Y-29557418D01*
X70064317Y-29560417D01*
X70072172Y-29560829D01*
X70091070Y-29561823D01*
X70124722Y-29562708D01*
X70129066Y-29562823D01*
X70129068Y-29562822D01*
X70129070Y-29562823D01*
X70168315Y-29562347D01*
X70247315Y-29558347D01*
X70304392Y-29552225D01*
X70304406Y-29552222D01*
X70304413Y-29552222D01*
X70343354Y-29545813D01*
X70383392Y-29539225D01*
X70428839Y-29529605D01*
X70505839Y-29509605D01*
X70563768Y-29490805D01*
X70637768Y-29461805D01*
X70682364Y-29441815D01*
X70753364Y-29405815D01*
X70798233Y-29380130D01*
X70865233Y-29337130D01*
X70909968Y-29304880D01*
X70971968Y-29254880D01*
X71012478Y-29218478D01*
X71068478Y-29162478D01*
X71104880Y-29121968D01*
X71154880Y-29059968D01*
X71187130Y-29015233D01*
X71230130Y-28948233D01*
X71255815Y-28903364D01*
X71291815Y-28832364D01*
X71311805Y-28787768D01*
X71340805Y-28713768D01*
X71359605Y-28655839D01*
X71379605Y-28578839D01*
X71389225Y-28533392D01*
X71402225Y-28454392D01*
X71408347Y-28397315D01*
X71410363Y-28357500D01*
X71412346Y-28318347D01*
X71412347Y-28318308D01*
X71412347Y-28266691D01*
X71412346Y-28266652D01*
X71408347Y-28187692D01*
X71408347Y-28187685D01*
X71402225Y-28130608D01*
X71402222Y-28130594D01*
X71402222Y-28130586D01*
X71389227Y-28051622D01*
X71389225Y-28051608D01*
X71379605Y-28006161D01*
X71359605Y-27929161D01*
X71340805Y-27871232D01*
X71311805Y-27797232D01*
X71291815Y-27752636D01*
X71266911Y-27703520D01*
X71255823Y-27681651D01*
X71255819Y-27681644D01*
X71255815Y-27681636D01*
X71230130Y-27636767D01*
X71187130Y-27569767D01*
X71154880Y-27525032D01*
X71104880Y-27463032D01*
X71068478Y-27422522D01*
X71012478Y-27366522D01*
X70971968Y-27330120D01*
X70909968Y-27280120D01*
X70865233Y-27247870D01*
X70865224Y-27247864D01*
X70865220Y-27247861D01*
X70829273Y-27224791D01*
X70798233Y-27204870D01*
X70753364Y-27179185D01*
X70753361Y-27179183D01*
X70753348Y-27179176D01*
X70682396Y-27143201D01*
X70682389Y-27143197D01*
X70682364Y-27143185D01*
X70665557Y-27135651D01*
X70612435Y-27090269D01*
X70592281Y-27023369D01*
X70611495Y-26956194D01*
X70663977Y-26910070D01*
X70665469Y-26909387D01*
X70682364Y-26901815D01*
X70753364Y-26865815D01*
X70798233Y-26840130D01*
X70865233Y-26797130D01*
X70909968Y-26764880D01*
X70971968Y-26714880D01*
X71012478Y-26678478D01*
X71068478Y-26622478D01*
X71104880Y-26581968D01*
X71154880Y-26519968D01*
X71187130Y-26475233D01*
X71230130Y-26408233D01*
X71255815Y-26363364D01*
X71291815Y-26292364D01*
X71311805Y-26247768D01*
X71340805Y-26173768D01*
X71359605Y-26115839D01*
X71379605Y-26038839D01*
X71389225Y-25993392D01*
X71402225Y-25914392D01*
X71408347Y-25857315D01*
X71410363Y-25817500D01*
X71412346Y-25778347D01*
X71412347Y-25778308D01*
X71412347Y-25726691D01*
X71412346Y-25726652D01*
X71408347Y-25647692D01*
X71408347Y-25647685D01*
X71402225Y-25590608D01*
X71402222Y-25590594D01*
X71402222Y-25590586D01*
X71389227Y-25511622D01*
X71389225Y-25511608D01*
X71379605Y-25466161D01*
X71359605Y-25389161D01*
X71340805Y-25331232D01*
X71311805Y-25257232D01*
X71291815Y-25212636D01*
X71266911Y-25163520D01*
X71255823Y-25141651D01*
X71255819Y-25141644D01*
X71255815Y-25141636D01*
X71230130Y-25096767D01*
X71187130Y-25029767D01*
X71154880Y-24985032D01*
X71104880Y-24923032D01*
X71068478Y-24882522D01*
X71012478Y-24826522D01*
X70971968Y-24790120D01*
X70909968Y-24740120D01*
X70865233Y-24707870D01*
X70865224Y-24707864D01*
X70865220Y-24707861D01*
X70829273Y-24684791D01*
X70798233Y-24664870D01*
X70753364Y-24639185D01*
X70753361Y-24639183D01*
X70753348Y-24639176D01*
X70682396Y-24603201D01*
X70682389Y-24603197D01*
X70682364Y-24603185D01*
X70665557Y-24595651D01*
X70612435Y-24550269D01*
X70592281Y-24483369D01*
X70611495Y-24416194D01*
X70663977Y-24370070D01*
X70665469Y-24369387D01*
X70682364Y-24361815D01*
X70753364Y-24325815D01*
X70798233Y-24300130D01*
X70865233Y-24257130D01*
X70909968Y-24224880D01*
X70971968Y-24174880D01*
X71012478Y-24138478D01*
X71068478Y-24082478D01*
X71104880Y-24041968D01*
X71154880Y-23979968D01*
X71187130Y-23935233D01*
X71230130Y-23868233D01*
X71255815Y-23823364D01*
X71291815Y-23752364D01*
X71311805Y-23707768D01*
X71340805Y-23633768D01*
X71359605Y-23575839D01*
X71379605Y-23498839D01*
X71389225Y-23453392D01*
X71402225Y-23374392D01*
X71408347Y-23317315D01*
X71410363Y-23277500D01*
X71412346Y-23238347D01*
X71412347Y-23238308D01*
X71412347Y-23186691D01*
X71412346Y-23186652D01*
X71408347Y-23107692D01*
X71408347Y-23107685D01*
X71402225Y-23050608D01*
X71402222Y-23050594D01*
X71402222Y-23050586D01*
X71389227Y-22971622D01*
X71389225Y-22971608D01*
X71379605Y-22926161D01*
X71359605Y-22849161D01*
X71340805Y-22791232D01*
X71311805Y-22717232D01*
X71291815Y-22672636D01*
X71266911Y-22623520D01*
X71255823Y-22601651D01*
X71255819Y-22601644D01*
X71255815Y-22601636D01*
X71230130Y-22556767D01*
X71187130Y-22489767D01*
X71154880Y-22445032D01*
X71104880Y-22383032D01*
X71068478Y-22342522D01*
X71012478Y-22286522D01*
X70971968Y-22250120D01*
X70909968Y-22200120D01*
X70865233Y-22167870D01*
X70865224Y-22167864D01*
X70865220Y-22167861D01*
X70829273Y-22144791D01*
X70798233Y-22124870D01*
X70753364Y-22099185D01*
X70753361Y-22099183D01*
X70753348Y-22099176D01*
X70682396Y-22063201D01*
X70682389Y-22063197D01*
X70682364Y-22063185D01*
X70665557Y-22055651D01*
X70612435Y-22010269D01*
X70592281Y-21943369D01*
X70611495Y-21876194D01*
X70663977Y-21830070D01*
X70665469Y-21829387D01*
X70682364Y-21821815D01*
X70753364Y-21785815D01*
X70798233Y-21760130D01*
X70865233Y-21717130D01*
X70909968Y-21684880D01*
X70971968Y-21634880D01*
X71012478Y-21598478D01*
X71068478Y-21542478D01*
X71104880Y-21501968D01*
X71154880Y-21439968D01*
X71187130Y-21395233D01*
X71230130Y-21328233D01*
X71255815Y-21283364D01*
X71291815Y-21212364D01*
X71311805Y-21167768D01*
X71340805Y-21093768D01*
X71359605Y-21035839D01*
X71379605Y-20958839D01*
X71389225Y-20913392D01*
X71402225Y-20834392D01*
X71408347Y-20777315D01*
X71410363Y-20737500D01*
X71412346Y-20698347D01*
X71412347Y-20698308D01*
X71412347Y-20646691D01*
X71412346Y-20646652D01*
X71408347Y-20567692D01*
X71408347Y-20567685D01*
X71402225Y-20510608D01*
X71402222Y-20510594D01*
X71402222Y-20510586D01*
X71389227Y-20431622D01*
X71389225Y-20431608D01*
X71379605Y-20386161D01*
X71359605Y-20309161D01*
X71340805Y-20251232D01*
X71311805Y-20177232D01*
X71291815Y-20132636D01*
X71272481Y-20094505D01*
X71255823Y-20061651D01*
X71255819Y-20061644D01*
X71255815Y-20061636D01*
X71230130Y-20016767D01*
X71187130Y-19949767D01*
X71154880Y-19905032D01*
X71104880Y-19843032D01*
X71068478Y-19802522D01*
X71012478Y-19746522D01*
X70971968Y-19710120D01*
X70909968Y-19660120D01*
X70865233Y-19627870D01*
X70865224Y-19627864D01*
X70865220Y-19627861D01*
X70829273Y-19604791D01*
X70798233Y-19584870D01*
X70753364Y-19559185D01*
X70753361Y-19559183D01*
X70753348Y-19559176D01*
X70682396Y-19523201D01*
X70682389Y-19523197D01*
X70682364Y-19523185D01*
X70665557Y-19515651D01*
X70612435Y-19470269D01*
X70592281Y-19403369D01*
X70611495Y-19336194D01*
X70663977Y-19290070D01*
X70665469Y-19289387D01*
X70682364Y-19281815D01*
X70753364Y-19245815D01*
X70798233Y-19220130D01*
X70865233Y-19177130D01*
X70909968Y-19144880D01*
X70971968Y-19094880D01*
X71012478Y-19058478D01*
X71068478Y-19002478D01*
X71104880Y-18961968D01*
X71154880Y-18899968D01*
X71187130Y-18855233D01*
X71230130Y-18788233D01*
X71255815Y-18743364D01*
X71291815Y-18672364D01*
X71311805Y-18627768D01*
X71340805Y-18553768D01*
X71359605Y-18495839D01*
X71379605Y-18418839D01*
X71389225Y-18373392D01*
X71402225Y-18294392D01*
X71408347Y-18237315D01*
X71410363Y-18197500D01*
X71412346Y-18158347D01*
X71412347Y-18158308D01*
X71412347Y-18106691D01*
X71412346Y-18106652D01*
X71408347Y-18027692D01*
X71408347Y-18027685D01*
X71402225Y-17970608D01*
X71402222Y-17970594D01*
X71402222Y-17970586D01*
X71389227Y-17891622D01*
X71389225Y-17891608D01*
X71379605Y-17846161D01*
X71359605Y-17769161D01*
X71340805Y-17711232D01*
X71311805Y-17637232D01*
X71291815Y-17592636D01*
X71266911Y-17543520D01*
X71255823Y-17521651D01*
X71255819Y-17521644D01*
X71255815Y-17521636D01*
X71230130Y-17476767D01*
X71197624Y-17426118D01*
X71187138Y-17409779D01*
X71187136Y-17409776D01*
X71187130Y-17409767D01*
X71154880Y-17365032D01*
X71104880Y-17303032D01*
X71068478Y-17262522D01*
X71012478Y-17206522D01*
X70971968Y-17170120D01*
X70909968Y-17120120D01*
X70865233Y-17087870D01*
X70865224Y-17087864D01*
X70865220Y-17087861D01*
X70829273Y-17064791D01*
X70798233Y-17044870D01*
X70753364Y-17019185D01*
X70753361Y-17019183D01*
X70753348Y-17019176D01*
X70682396Y-16983201D01*
X70682387Y-16983196D01*
X70682364Y-16983185D01*
X70637768Y-16963195D01*
X70563768Y-16934195D01*
X70563764Y-16934193D01*
X70505865Y-16915403D01*
X70505851Y-16915399D01*
X70505852Y-16915399D01*
X70505839Y-16915395D01*
X70428839Y-16895395D01*
X70428819Y-16895390D01*
X70428801Y-16895386D01*
X70383421Y-16885781D01*
X70383377Y-16885772D01*
X70304413Y-16872777D01*
X70304392Y-16872775D01*
X70247317Y-16866653D01*
X70247307Y-16866652D01*
X70168326Y-16862653D01*
X70129066Y-16862176D01*
X70091063Y-16863177D01*
X70064317Y-16864582D01*
X70026335Y-16867581D01*
X70011602Y-16868959D01*
X69974648Y-16872954D01*
X69938534Y-16878225D01*
X69937017Y-16878447D01*
X69910882Y-16883261D01*
X69899000Y-16885450D01*
X69880724Y-16889163D01*
X69844791Y-16897148D01*
X69822274Y-16902689D01*
X69785304Y-16912682D01*
X69752945Y-16922590D01*
X69717939Y-16934592D01*
X69693908Y-16943512D01*
X69658859Y-16957531D01*
X69647404Y-16962275D01*
X69612402Y-16977276D01*
X69585203Y-16989891D01*
X69551202Y-17006892D01*
X69518871Y-17024543D01*
X69486869Y-17043544D01*
X69476904Y-17049616D01*
X69444948Y-17069588D01*
X69420047Y-17086185D01*
X69389048Y-17108185D01*
X69367285Y-17124518D01*
X69338262Y-17147537D01*
X69322195Y-17160824D01*
X69293163Y-17185851D01*
X69272407Y-17204765D01*
X69253733Y-17222748D01*
X69245396Y-17230777D01*
X69245384Y-17230788D01*
X69245379Y-17230794D01*
X69225407Y-17251131D01*
X69199418Y-17279119D01*
X69180206Y-17301030D01*
X69156226Y-17330006D01*
X69149499Y-17338307D01*
X69126532Y-17367266D01*
X69110185Y-17389048D01*
X69088185Y-17420047D01*
X69071588Y-17444948D01*
X69051596Y-17476936D01*
X69040699Y-17495578D01*
X68989873Y-17543520D01*
X68933648Y-17557000D01*
X68612497Y-17557000D01*
X68539847Y-17562195D01*
X68400431Y-17603133D01*
X68400424Y-17603136D01*
X68278198Y-17681686D01*
X68278195Y-17681688D01*
X68183040Y-17791503D01*
X68183037Y-17791506D01*
X68122680Y-17923669D01*
X68122678Y-17923676D01*
X68102000Y-18067500D01*
X51654503Y-18067500D01*
X51653769Y-18061200D01*
X51654357Y-18030672D01*
X51654280Y-18030666D01*
X51654381Y-18029452D01*
X51654414Y-18027748D01*
X51654645Y-18026262D01*
X51654648Y-18026251D01*
X51702701Y-17449608D01*
X51703983Y-17429281D01*
X51704023Y-17428348D01*
X51703821Y-17421734D01*
X51704544Y-17404058D01*
X51705565Y-17395000D01*
X51702625Y-17368917D01*
X51701906Y-17358834D01*
X51701770Y-17354359D01*
X51701769Y-17354355D01*
X51701769Y-17354349D01*
X51701199Y-17350263D01*
X51699416Y-17340432D01*
X51685368Y-17215745D01*
X51625789Y-17045478D01*
X51529816Y-16892738D01*
X51402262Y-16765184D01*
X51249523Y-16669211D01*
X51079254Y-16609631D01*
X51079249Y-16609630D01*
X50900004Y-16589435D01*
X50899996Y-16589435D01*
X50720750Y-16609630D01*
X50720745Y-16609631D01*
X50550476Y-16669211D01*
X50397737Y-16765184D01*
X50270184Y-16892737D01*
X50174211Y-17045476D01*
X50114631Y-17215745D01*
X50114630Y-17215750D01*
X50095105Y-17389050D01*
X50094435Y-17395000D01*
X50096099Y-17409767D01*
X50097242Y-17419918D01*
X50097801Y-17441181D01*
X50097299Y-17449598D01*
X50097298Y-17449609D01*
X50099575Y-17476936D01*
X50145352Y-18026262D01*
X50146232Y-18033812D01*
X50145643Y-18064328D01*
X50145720Y-18064335D01*
X50145620Y-18065525D01*
X50145588Y-18067227D01*
X50145353Y-18068733D01*
X50131304Y-18237317D01*
X50098767Y-18627769D01*
X50097297Y-18645403D01*
X50096015Y-18665720D01*
X50095975Y-18666658D01*
X50096177Y-18673301D01*
X50095456Y-18690928D01*
X50094435Y-18699998D01*
X50094435Y-18700003D01*
X50097370Y-18726054D01*
X50098092Y-18736157D01*
X50098228Y-18740631D01*
X50098800Y-18744734D01*
X50100583Y-18754573D01*
X50114630Y-18879249D01*
X50174210Y-19049521D01*
X50255451Y-19178814D01*
X50270184Y-19202262D01*
X50397738Y-19329816D01*
X50513170Y-19402347D01*
X50550478Y-19425789D01*
X50643840Y-19458458D01*
X50700617Y-19499180D01*
X50726364Y-19564133D01*
X50712908Y-19632694D01*
X50664521Y-19683097D01*
X50602886Y-19699500D01*
X49099972Y-19699500D01*
X49059017Y-19692542D01*
X48979254Y-19664631D01*
X48979249Y-19664630D01*
X48800004Y-19644435D01*
X48799996Y-19644435D01*
X48620750Y-19664630D01*
X48620745Y-19664631D01*
X48540983Y-19692542D01*
X48500028Y-19699500D01*
X47726080Y-19699500D01*
X47581092Y-19728340D01*
X47581082Y-19728343D01*
X47444511Y-19784912D01*
X47444498Y-19784919D01*
X47321584Y-19867048D01*
X47321580Y-19867051D01*
X47217051Y-19971580D01*
X47217048Y-19971584D01*
X47134919Y-20094498D01*
X47134912Y-20094511D01*
X47078343Y-20231082D01*
X47078340Y-20231092D01*
X47049500Y-20376079D01*
X47049500Y-20376082D01*
X47049500Y-20523918D01*
X47049500Y-20523920D01*
X47049499Y-20523920D01*
X0Y-20523920D01*
X0Y-4999999D01*
X1294922Y-4999999D01*
X1294922Y-5000000D01*
X1315219Y-5387287D01*
X1375886Y-5770323D01*
X1375887Y-5770330D01*
X1476262Y-6144936D01*
X1615244Y-6506994D01*
X1791310Y-6852543D01*
X2002523Y-7177783D01*
X2002525Y-7177785D01*
X2246586Y-7479176D01*
X2246593Y-7479184D01*
X2295316Y-7527907D01*
X3780240Y-6042982D01*
X3957017Y-6219759D01*
X2472093Y-7704684D01*
X2520815Y-7753406D01*
X2520823Y-7753413D01*
X2822214Y-7997474D01*
X2822216Y-7997476D01*
X3147456Y-8208689D01*
X3493005Y-8384755D01*
X3855063Y-8523737D01*
X4229669Y-8624112D01*
X4229676Y-8624113D01*
X4612712Y-8684780D01*
X4999999Y-8705078D01*
X5000001Y-8705078D01*
X5387287Y-8684780D01*
X5770323Y-8624113D01*
X5770330Y-8624112D01*
X6144936Y-8523737D01*
X6506994Y-8384755D01*
X6852543Y-8208689D01*
X7177783Y-7997476D01*
X7177785Y-7997474D01*
X7479176Y-7753413D01*
X7479184Y-7753406D01*
X7527907Y-7704684D01*
X6042982Y-6219759D01*
X6219759Y-6042982D01*
X7704684Y-7527907D01*
X7753406Y-7479184D01*
X7753413Y-7479176D01*
X7997474Y-7177785D01*
X7997476Y-7177783D01*
X8208689Y-6852543D01*
X8384755Y-6506994D01*
X8523737Y-6144936D01*
X8624112Y-5770330D01*
X8624113Y-5770323D01*
X8684780Y-5387287D01*
X8705078Y-5000000D01*
X8705078Y-4999999D01*
X71294922Y-4999999D01*
X71294922Y-5000000D01*
X71315219Y-5387287D01*
X71375886Y-5770323D01*
X71375887Y-5770330D01*
X71476262Y-6144936D01*
X71615244Y-6506994D01*
X71791310Y-6852543D01*
X72002523Y-7177783D01*
X72002525Y-7177785D01*
X72246586Y-7479176D01*
X72246593Y-7479184D01*
X72295316Y-7527907D01*
X73780240Y-6042982D01*
X73957017Y-6219759D01*
X72472093Y-7704684D01*
X72520815Y-7753406D01*
X72520823Y-7753413D01*
X72822214Y-7997474D01*
X72822216Y-7997476D01*
X73147456Y-8208689D01*
X73493005Y-8384755D01*
X73855063Y-8523737D01*
X74229669Y-8624112D01*
X74229676Y-8624113D01*
X74612712Y-8684780D01*
X74999999Y-8705078D01*
X75000001Y-8705078D01*
X75387287Y-8684780D01*
X75770323Y-8624113D01*
X75770330Y-8624112D01*
X76144936Y-8523737D01*
X76506994Y-8384755D01*
X76852543Y-8208689D01*
X77177783Y-7997476D01*
X77177785Y-7997474D01*
X77479176Y-7753413D01*
X77479184Y-7753406D01*
X77527907Y-7704684D01*
X76042982Y-6219759D01*
X76219759Y-6042982D01*
X77704684Y-7527907D01*
X77753406Y-7479184D01*
X77753413Y-7479176D01*
X77997474Y-7177785D01*
X77997476Y-7177783D01*
X78208689Y-6852543D01*
X78384755Y-6506994D01*
X78523737Y-6144936D01*
X78624112Y-5770330D01*
X78624113Y-5770323D01*
X78684780Y-5387287D01*
X78705078Y-5000000D01*
X78705078Y-4999999D01*
X78684780Y-4612712D01*
X78624113Y-4229676D01*
X78624112Y-4229669D01*
X78523737Y-3855063D01*
X78384755Y-3493005D01*
X78208689Y-3147456D01*
X77997476Y-2822216D01*
X77997474Y-2822214D01*
X77753413Y-2520823D01*
X77753406Y-2520815D01*
X77704684Y-2472093D01*
X76219759Y-3957017D01*
X76042982Y-3780240D01*
X77527907Y-2295316D01*
X77479184Y-2246593D01*
X77479176Y-2246586D01*
X77177785Y-2002525D01*
X77177783Y-2002523D01*
X76852543Y-1791310D01*
X76506994Y-1615244D01*
X76144936Y-1476262D01*
X75770330Y-1375887D01*
X75770323Y-1375886D01*
X75387287Y-1315219D01*
X75000001Y-1294922D01*
X74999999Y-1294922D01*
X74612712Y-1315219D01*
X74229676Y-1375886D01*
X74229669Y-1375887D01*
X73855063Y-1476262D01*
X73493005Y-1615244D01*
X73147456Y-1791310D01*
X72822216Y-2002523D01*
X72822214Y-2002525D01*
X72520823Y-2246586D01*
X72520815Y-2246593D01*
X72472093Y-2295316D01*
X73957017Y-3780240D01*
X73780240Y-3957017D01*
X72295316Y-2472093D01*
X72246593Y-2520815D01*
X72246586Y-2520823D01*
X72002525Y-2822214D01*
X72002523Y-2822216D01*
X71791310Y-3147456D01*
X71615244Y-3493005D01*
X71476262Y-3855063D01*
X71375887Y-4229669D01*
X71375886Y-4229676D01*
X71315219Y-4612712D01*
X71294922Y-4999999D01*
X8705078Y-4999999D01*
X8684780Y-4612712D01*
X8624113Y-4229676D01*
X8624112Y-4229669D01*
X8523737Y-3855063D01*
X8384755Y-3493005D01*
X8208689Y-3147456D01*
X7997476Y-2822216D01*
X7997474Y-2822214D01*
X7753413Y-2520823D01*
X7753406Y-2520815D01*
X7704684Y-2472093D01*
X6219759Y-3957017D01*
X6042982Y-3780240D01*
X7527907Y-2295316D01*
X7479184Y-2246593D01*
X7479176Y-2246586D01*
X7177785Y-2002525D01*
X7177783Y-2002523D01*
X6852543Y-1791310D01*
X6506994Y-1615244D01*
X6144936Y-1476262D01*
X5770330Y-1375887D01*
X5770323Y-1375886D01*
X5387287Y-1315219D01*
X5000001Y-1294922D01*
X4999999Y-1294922D01*
X4612712Y-1315219D01*
X4229676Y-1375886D01*
X4229669Y-1375887D01*
X3855063Y-1476262D01*
X3493005Y-1615244D01*
X3147456Y-1791310D01*
X2822216Y-2002523D01*
X2822214Y-2002525D01*
X2520823Y-2246586D01*
X2520815Y-2246593D01*
X2472093Y-2295316D01*
X3957017Y-3780240D01*
X3780240Y-3957017D01*
X2295316Y-2472093D01*
X2246593Y-2520815D01*
X2246586Y-2520823D01*
X2002525Y-2822214D01*
X2002523Y-2822216D01*
X1791310Y-3147456D01*
X1615244Y-3493005D01*
X1476262Y-3855063D01*
X1375887Y-4229669D01*
X1375886Y-4229676D01*
X1315219Y-4612712D01*
X1294922Y-4999999D01*
X0Y-4999999D01*
X0Y-124000D01*
X19685Y-56961D01*
X72489Y-11206D01*
X124000Y0D01*
X79876000Y0D01*
X79943039Y-19685D01*
G37*
%TD.AperFunction*%
%TD*%
%TA.AperFunction,Conductor*%
%TO.N,-2.5VA*%
G36*
X48795378Y-20225423D02*
G01*
X48799892Y-20233156D01*
X48800000Y-20234739D01*
X48800000Y-20681275D01*
X48796573Y-20689548D01*
X48788300Y-20692975D01*
X48783171Y-20691791D01*
X48535643Y-20571052D01*
X48529709Y-20564345D01*
X48530256Y-20555407D01*
X48531451Y-20553464D01*
X48778984Y-20227660D01*
X48786717Y-20223147D01*
X48795378Y-20225423D01*
G37*
%TD.AperFunction*%
%TD*%
%TA.AperFunction,Conductor*%
%TO.N,-2.5VA*%
G36*
X52484941Y-20279666D02*
G01*
X52801835Y-20529742D01*
X52806207Y-20537558D01*
X52803772Y-20546175D01*
X52802888Y-20547173D01*
X52600762Y-20750652D01*
X52600707Y-20750707D01*
X52397173Y-20952888D01*
X52388888Y-20956287D01*
X52380626Y-20952833D01*
X52379742Y-20951835D01*
X52129667Y-20634942D01*
X52127232Y-20626325D01*
X52130578Y-20619422D01*
X52469422Y-20280578D01*
X52477694Y-20277152D01*
X52484941Y-20279666D01*
G37*
%TD.AperFunction*%
%TD*%
%TA.AperFunction,Conductor*%
%TO.N,GND*%
G36*
X40677164Y-10814805D02*
G01*
X40500000Y-11300000D01*
X40300000Y-11300000D01*
X40122836Y-10814805D01*
X40400000Y-10699000D01*
X40677164Y-10814805D01*
G37*
%TD.AperFunction*%
%TD*%
%TA.AperFunction,Conductor*%
%TO.N,GND*%
G36*
X48994974Y-47646447D02*
G01*
X48777164Y-48114805D01*
X48499293Y-48000707D01*
X48385195Y-47722836D01*
X48853553Y-47505026D01*
X48994974Y-47646447D01*
G37*
%TD.AperFunction*%
%TD*%
%TA.AperFunction,Conductor*%
%TO.N,GND*%
G36*
X54401000Y-46700000D02*
G01*
X54285195Y-46977164D01*
X53800000Y-46800000D01*
X53800000Y-46600000D01*
X54285195Y-46422836D01*
X54401000Y-46700000D01*
G37*
%TD.AperFunction*%
%TD*%
%TA.AperFunction,Conductor*%
%TO.N,GND*%
G36*
X54966251Y-46475170D02*
G01*
X54612132Y-46912132D01*
X54399293Y-46700707D01*
X54400000Y-46400000D01*
X54824830Y-46333749D01*
X54966251Y-46475170D01*
G37*
%TD.AperFunction*%
%TD*%
%TA.AperFunction,Conductor*%
%TO.N,GND*%
G36*
X57577164Y-41714805D02*
G01*
X57400000Y-42200000D01*
X57200000Y-42200000D01*
X57022836Y-41714805D01*
X57300000Y-41599000D01*
X57577164Y-41714805D01*
G37*
%TD.AperFunction*%
%TD*%
%TA.AperFunction,Conductor*%
%TO.N,GND*%
G36*
X35300707Y-42999293D02*
G01*
X35414805Y-43277164D01*
X34946447Y-43494974D01*
X34805026Y-43353553D01*
X35022836Y-42885195D01*
X35300707Y-42999293D01*
G37*
%TD.AperFunction*%
%TD*%
%TA.AperFunction,Conductor*%
%TO.N,GND*%
G36*
X30614805Y-49722836D02*
G01*
X30500707Y-50000707D01*
X30222836Y-50114805D01*
X30005026Y-49646447D01*
X30146447Y-49505026D01*
X30614805Y-49722836D01*
G37*
%TD.AperFunction*%
%TD*%
%TA.AperFunction,Conductor*%
%TO.N,GND*%
G36*
X20877164Y-57985195D02*
G01*
X20600000Y-58101000D01*
X20322836Y-57985195D01*
X20500000Y-57500000D01*
X20700000Y-57500000D01*
X20877164Y-57985195D01*
G37*
%TD.AperFunction*%
%TD*%
%TA.AperFunction,Conductor*%
%TO.N,GND*%
G36*
X20600000Y-49200000D02*
G01*
X20600000Y-49400000D01*
X20114805Y-49577164D01*
X19999000Y-49300000D01*
X20114805Y-49022836D01*
X20600000Y-49200000D01*
G37*
%TD.AperFunction*%
%TD*%
%TA.AperFunction,Conductor*%
%TO.N,GND*%
G36*
X35600000Y-43000000D02*
G01*
X35300000Y-43001000D01*
X35087868Y-42787868D01*
X35400000Y-42479762D01*
X35600000Y-42479762D01*
X35600000Y-43000000D01*
G37*
%TD.AperFunction*%
%TD*%
%TA.AperFunction,Conductor*%
%TO.N,GND*%
G36*
X34422836Y-30414805D02*
G01*
X34550000Y-30290054D01*
X34750000Y-30290054D01*
X34422836Y-30414805D01*
G37*
%TD.AperFunction*%
%TD*%
%TA.AperFunction,Conductor*%
%TO.N,GND*%
G36*
X34977164Y-30185195D02*
G01*
X34700000Y-30301000D01*
X34422836Y-30185195D01*
X34550000Y-29709946D01*
X34750000Y-29709946D01*
X34977164Y-30185195D01*
G37*
%TD.AperFunction*%
%TD*%
%TA.AperFunction,Conductor*%
%TO.N,GND*%
G36*
X33266251Y-21375170D02*
G01*
X33200000Y-21800000D01*
X32899293Y-21800707D01*
X32687868Y-21587868D01*
X33124830Y-21233749D01*
X33266251Y-21375170D01*
G37*
%TD.AperFunction*%
%TD*%
%TA.AperFunction,Conductor*%
%TO.N,GND*%
G36*
X40194974Y-15746447D02*
G01*
X39977164Y-16214805D01*
X39699293Y-16100707D01*
X39585195Y-15822836D01*
X40053553Y-15605026D01*
X40194974Y-15746447D01*
G37*
%TD.AperFunction*%
%TD*%
%TA.AperFunction,Conductor*%
%TO.N,Earth*%
G36*
X60383641Y-28727050D02*
G01*
X60389503Y-28733148D01*
X60499115Y-28995489D01*
X60499142Y-29004444D01*
X60499115Y-29004511D01*
X60389503Y-29266851D01*
X60383151Y-29273163D01*
X60374694Y-29273329D01*
X60240947Y-29224493D01*
X59907687Y-29102806D01*
X59901091Y-29096750D01*
X59900000Y-29091816D01*
X59900000Y-28908183D01*
X59903427Y-28899910D01*
X59907687Y-28897193D01*
X60374697Y-28726669D01*
X60383641Y-28727050D01*
G37*
%TD.AperFunction*%
%TD*%
%TA.AperFunction,Conductor*%
%TO.N,Earth*%
G36*
X59292313Y-28897193D02*
G01*
X59298909Y-28903249D01*
X59300000Y-28908183D01*
X59300000Y-29091816D01*
X59296573Y-29100089D01*
X59292313Y-29102806D01*
X58825305Y-29273330D01*
X58816358Y-29272949D01*
X58810496Y-29266851D01*
X58700883Y-29004509D01*
X58700857Y-28995556D01*
X58700862Y-28995542D01*
X58810496Y-28733147D01*
X58816848Y-28726836D01*
X58825302Y-28726669D01*
X59292313Y-28897193D01*
G37*
%TD.AperFunction*%
%TD*%
%TA.AperFunction,Conductor*%
%TO.N,-2.5VA*%
G36*
X36387327Y-41099957D02*
G01*
X36395588Y-41103411D01*
X36398987Y-41111696D01*
X36398947Y-41112629D01*
X36350894Y-41689272D01*
X36346792Y-41697232D01*
X36339234Y-41700000D01*
X35860766Y-41700000D01*
X35852493Y-41696573D01*
X35849106Y-41689272D01*
X35801052Y-41112629D01*
X35803780Y-41104099D01*
X35811740Y-41099997D01*
X35812653Y-41099957D01*
X36100000Y-41099000D01*
X36387327Y-41099957D01*
G37*
%TD.AperFunction*%
%TD*%
%TA.AperFunction,Conductor*%
%TO.N,-2.5VA*%
G36*
X45960729Y-55205912D02*
G01*
X46402457Y-55579681D01*
X46406559Y-55587641D01*
X46403831Y-55596171D01*
X46403200Y-55596859D01*
X46200762Y-55800652D01*
X46200707Y-55800707D01*
X45996859Y-56003200D01*
X45988574Y-56006599D01*
X45980312Y-56003145D01*
X45979681Y-56002457D01*
X45808970Y-55800707D01*
X45605912Y-55560729D01*
X45603185Y-55552201D01*
X45606571Y-55544901D01*
X45944901Y-55206571D01*
X45953173Y-55203145D01*
X45960729Y-55205912D01*
G37*
%TD.AperFunction*%
%TD*%
%TA.AperFunction,Conductor*%
%TO.N,-2.5VA*%
G36*
X46487327Y-55799957D02*
G01*
X46495588Y-55803411D01*
X46498987Y-55811696D01*
X46498947Y-55812629D01*
X46450894Y-56389272D01*
X46446792Y-56397232D01*
X46439234Y-56400000D01*
X45960766Y-56400000D01*
X45952493Y-56396573D01*
X45949106Y-56389272D01*
X45901052Y-55812629D01*
X45903780Y-55804099D01*
X45911740Y-55799997D01*
X45912653Y-55799957D01*
X46200000Y-55799000D01*
X46487327Y-55799957D01*
G37*
%TD.AperFunction*%
%TD*%
%TA.AperFunction,Conductor*%
%TO.N,-2.5VA*%
G36*
X46447507Y-59203427D02*
G01*
X46450894Y-59210728D01*
X46498947Y-59787370D01*
X46496219Y-59795900D01*
X46488259Y-59800002D01*
X46487326Y-59800042D01*
X46200039Y-59800999D01*
X46199961Y-59800999D01*
X45912673Y-59800042D01*
X45904411Y-59796588D01*
X45901012Y-59788303D01*
X45901052Y-59787370D01*
X45949106Y-59210728D01*
X45953208Y-59202768D01*
X45960766Y-59200000D01*
X46439234Y-59200000D01*
X46447507Y-59203427D01*
G37*
%TD.AperFunction*%
%TD*%
%TA.AperFunction,Conductor*%
%TO.N,-2.5VA*%
G36*
X17247507Y-57603427D02*
G01*
X17250894Y-57610728D01*
X17298947Y-58187370D01*
X17296219Y-58195900D01*
X17288259Y-58200002D01*
X17287326Y-58200042D01*
X17000039Y-58200999D01*
X16999961Y-58200999D01*
X16712673Y-58200042D01*
X16704411Y-58196588D01*
X16701012Y-58188303D01*
X16701052Y-58187370D01*
X16749106Y-57610728D01*
X16753208Y-57602768D01*
X16760766Y-57600000D01*
X17239234Y-57600000D01*
X17247507Y-57603427D01*
G37*
%TD.AperFunction*%
%TD*%
%TA.AperFunction,Conductor*%
%TO.N,-2.5VA*%
G36*
X17287327Y-51799957D02*
G01*
X17295588Y-51803411D01*
X17298987Y-51811696D01*
X17298947Y-51812629D01*
X17250894Y-52389272D01*
X17246792Y-52397232D01*
X17239234Y-52400000D01*
X16760766Y-52400000D01*
X16752493Y-52396573D01*
X16749106Y-52389272D01*
X16701052Y-51812629D01*
X16703780Y-51804099D01*
X16711740Y-51799997D01*
X16712653Y-51799957D01*
X17000000Y-51799000D01*
X17287327Y-51799957D01*
G37*
%TD.AperFunction*%
%TD*%
%TA.AperFunction,Conductor*%
%TO.N,+2.5VA*%
G36*
X51187327Y-17394957D02*
G01*
X51195588Y-17398411D01*
X51198987Y-17406696D01*
X51198947Y-17407629D01*
X51150894Y-17984272D01*
X51146792Y-17992232D01*
X51139234Y-17995000D01*
X50660766Y-17995000D01*
X50652493Y-17991573D01*
X50649106Y-17984272D01*
X50601052Y-17407629D01*
X50603780Y-17399099D01*
X50611740Y-17394997D01*
X50612653Y-17394957D01*
X50900000Y-17394000D01*
X51187327Y-17394957D01*
G37*
%TD.AperFunction*%
%TD*%
%TA.AperFunction,Conductor*%
%TO.N,+2.5VA*%
G36*
X51147507Y-18103427D02*
G01*
X51150894Y-18110728D01*
X51198947Y-18687370D01*
X51196219Y-18695900D01*
X51188259Y-18700002D01*
X51187326Y-18700042D01*
X50900039Y-18700999D01*
X50899961Y-18700999D01*
X50612673Y-18700042D01*
X50604411Y-18696588D01*
X50601012Y-18688303D01*
X50601052Y-18687370D01*
X50649106Y-18110728D01*
X50653208Y-18102768D01*
X50660766Y-18100000D01*
X51139234Y-18100000D01*
X51147507Y-18103427D01*
G37*
%TD.AperFunction*%
%TD*%
M02*
