%TF.GenerationSoftware,KiCad,Pcbnew,8.0.5*%
%TF.CreationDate,2024-10-11T16:07:05+03:00*%
%TF.ProjectId,test,74657374-2e6b-4696-9361-645f70636258,rev?*%
%TF.SameCoordinates,Original*%
%TF.FileFunction,Soldermask,Top*%
%TF.FilePolarity,Negative*%
%FSLAX46Y46*%
G04 Gerber Fmt 4.6, Leading zero omitted, Abs format (unit mm)*
G04 Created by KiCad (PCBNEW 8.0.5) date 2024-10-11 16:07:05*
%MOMM*%
%LPD*%
G01*
G04 APERTURE LIST*
G04 Aperture macros list*
%AMRoundRect*
0 Rectangle with rounded corners*
0 $1 Rounding radius*
0 $2 $3 $4 $5 $6 $7 $8 $9 X,Y pos of 4 corners*
0 Add a 4 corners polygon primitive as box body*
4,1,4,$2,$3,$4,$5,$6,$7,$8,$9,$2,$3,0*
0 Add four circle primitives for the rounded corners*
1,1,$1+$1,$2,$3*
1,1,$1+$1,$4,$5*
1,1,$1+$1,$6,$7*
1,1,$1+$1,$8,$9*
0 Add four rect primitives between the rounded corners*
20,1,$1+$1,$2,$3,$4,$5,0*
20,1,$1+$1,$4,$5,$6,$7,0*
20,1,$1+$1,$6,$7,$8,$9,0*
20,1,$1+$1,$8,$9,$2,$3,0*%
G04 Aperture macros list end*
%ADD10C,0.800000*%
%ADD11C,6.400000*%
%ADD12RoundRect,0.100000X-0.100000X0.130000X-0.100000X-0.130000X0.100000X-0.130000X0.100000X0.130000X0*%
%ADD13RoundRect,0.100000X0.100000X-0.130000X0.100000X0.130000X-0.100000X0.130000X-0.100000X-0.130000X0*%
%ADD14RoundRect,0.102000X-0.990600X-0.279400X0.990600X-0.279400X0.990600X0.279400X-0.990600X0.279400X0*%
%ADD15RoundRect,0.100000X-0.130000X-0.100000X0.130000X-0.100000X0.130000X0.100000X-0.130000X0.100000X0*%
%ADD16RoundRect,0.198500X-0.508500X-0.198500X0.508500X-0.198500X0.508500X0.198500X-0.508500X0.198500X0*%
%ADD17C,1.734000*%
%ADD18RoundRect,0.102000X-0.765000X0.765000X-0.765000X-0.765000X0.765000X-0.765000X0.765000X0.765000X0*%
%ADD19RoundRect,0.100000X0.130000X0.100000X-0.130000X0.100000X-0.130000X-0.100000X0.130000X-0.100000X0*%
%ADD20RoundRect,0.198500X0.508500X0.198500X-0.508500X0.198500X-0.508500X-0.198500X0.508500X-0.198500X0*%
%ADD21RoundRect,0.102000X0.279400X-0.990600X0.279400X0.990600X-0.279400X0.990600X-0.279400X-0.990600X0*%
%ADD22RoundRect,0.150000X-0.825000X-0.150000X0.825000X-0.150000X0.825000X0.150000X-0.825000X0.150000X0*%
%ADD23RoundRect,0.085500X-0.751500X-0.256500X0.751500X-0.256500X0.751500X0.256500X-0.751500X0.256500X0*%
%ADD24RoundRect,0.113550X-1.608450X-0.643450X1.608450X-0.643450X1.608450X0.643450X-1.608450X0.643450X0*%
%ADD25RoundRect,0.085050X-0.481950X-0.671950X0.481950X-0.671950X0.481950X0.671950X-0.481950X0.671950X0*%
%ADD26C,1.724000*%
G04 APERTURE END LIST*
D10*
%TO.C,J14*%
X72600000Y-65000000D03*
X73302944Y-63302944D03*
X73302944Y-66697056D03*
X75000000Y-62600000D03*
D11*
X75000000Y-65000000D03*
D10*
X75000000Y-67400000D03*
X76697056Y-63302944D03*
X76697056Y-66697056D03*
X77400000Y-65000000D03*
%TD*%
%TO.C,J13*%
X72600000Y-5000000D03*
X73302944Y-3302944D03*
X73302944Y-6697056D03*
X75000000Y-2600000D03*
D11*
X75000000Y-5000000D03*
D10*
X75000000Y-7400000D03*
X76697056Y-3302944D03*
X76697056Y-6697056D03*
X77400000Y-5000000D03*
%TD*%
%TO.C,J12*%
X2600000Y-65000000D03*
X3302944Y-63302944D03*
X3302944Y-66697056D03*
X5000000Y-62600000D03*
D11*
X5000000Y-65000000D03*
D10*
X5000000Y-67400000D03*
X6697056Y-63302944D03*
X6697056Y-66697056D03*
X7400000Y-65000000D03*
%TD*%
%TO.C,J11*%
X2600000Y-5000000D03*
X3302944Y-3302944D03*
X3302944Y-6697056D03*
X5000000Y-2600000D03*
D11*
X5000000Y-5000000D03*
D10*
X5000000Y-7400000D03*
X6697056Y-3302944D03*
X6697056Y-6697056D03*
X7400000Y-5000000D03*
%TD*%
D12*
%TO.C,C3*%
X22800000Y-45720000D03*
X22800000Y-45080000D03*
%TD*%
D13*
%TO.C,R12*%
X33400000Y-52980000D03*
X33400000Y-53620000D03*
%TD*%
D14*
%TO.C,U5*%
X53063800Y-50095000D03*
X53063800Y-51365000D03*
X53063800Y-52635000D03*
X53063800Y-53905000D03*
X48136200Y-53905000D03*
X48136200Y-52635000D03*
X48136200Y-51365000D03*
X48136200Y-50095000D03*
%TD*%
D15*
%TO.C,C12*%
X30440000Y-47100000D03*
X29800000Y-47100000D03*
%TD*%
D16*
%TO.C,U4*%
X21155000Y-45050000D03*
X21155000Y-46950000D03*
X18645000Y-46950000D03*
X18645000Y-46000000D03*
X18645000Y-45050000D03*
%TD*%
D17*
%TO.C,J9*%
X6800000Y-53460000D03*
X6800000Y-56000000D03*
D18*
X6800000Y-58540000D03*
%TD*%
D19*
%TO.C,C18*%
X56125000Y-43600000D03*
X56765000Y-43600000D03*
%TD*%
%TO.C,C19*%
X56125000Y-44600000D03*
X56765000Y-44600000D03*
%TD*%
D14*
%TO.C,U10*%
X61163800Y-5895000D03*
X61163800Y-7165000D03*
X61163800Y-8435000D03*
X61163800Y-9705000D03*
X56236200Y-9705000D03*
X56236200Y-8435000D03*
X56236200Y-7165000D03*
X56236200Y-5895000D03*
%TD*%
D15*
%TO.C,R11*%
X12920000Y-53500000D03*
X12280000Y-53500000D03*
%TD*%
%TO.C,C13*%
X35700000Y-45100000D03*
X35060000Y-45100000D03*
%TD*%
%TO.C,C20*%
X54220000Y-7200000D03*
X53580000Y-7200000D03*
%TD*%
%TO.C,C23*%
X46220000Y-53900000D03*
X45580000Y-53900000D03*
%TD*%
%TO.C,R13*%
X34220000Y-57400000D03*
X33580000Y-57400000D03*
%TD*%
D19*
%TO.C,R18*%
X33580000Y-27800000D03*
X34220000Y-27800000D03*
%TD*%
D12*
%TO.C,R10*%
X29100000Y-52920000D03*
X29100000Y-52280000D03*
%TD*%
D13*
%TO.C,C1*%
X57900000Y-40540000D03*
X57900000Y-39900000D03*
%TD*%
%TO.C,R16*%
X33500000Y-31180000D03*
X33500000Y-31820000D03*
%TD*%
D20*
%TO.C,U9*%
X51990000Y-44550000D03*
X51990000Y-42650000D03*
X54500000Y-42650000D03*
X54500000Y-43600000D03*
X54500000Y-44550000D03*
%TD*%
D14*
%TO.C,U7*%
X47627600Y-14160000D03*
X47627600Y-15430000D03*
X47627600Y-16700000D03*
X47627600Y-17970000D03*
X42700000Y-17970000D03*
X42700000Y-16700000D03*
X42700000Y-15430000D03*
X42700000Y-14160000D03*
%TD*%
D13*
%TO.C,R14*%
X33400000Y-48460000D03*
X33400000Y-49100000D03*
%TD*%
%TO.C,C2*%
X55600000Y-40520000D03*
X55600000Y-39880000D03*
%TD*%
D19*
%TO.C,C21*%
X22280000Y-58100000D03*
X22920000Y-58100000D03*
%TD*%
D15*
%TO.C,C30*%
X46220000Y-27800000D03*
X45580000Y-27800000D03*
%TD*%
D19*
%TO.C,C4*%
X16380000Y-46000000D03*
X17020000Y-46000000D03*
%TD*%
D21*
%TO.C,U6*%
X30895000Y-33836200D03*
X32165000Y-33836200D03*
X33435000Y-33836200D03*
X34705000Y-33836200D03*
X34705000Y-38763800D03*
X33435000Y-38763800D03*
X32165000Y-38763800D03*
X30895000Y-38763800D03*
%TD*%
D22*
%TO.C,U13*%
X61475000Y-17995000D03*
X61475000Y-19265000D03*
X61475000Y-20535000D03*
X61475000Y-21805000D03*
X56525000Y-21805000D03*
X56525000Y-20535000D03*
X56525000Y-19265000D03*
X56525000Y-17995000D03*
%TD*%
D23*
%TO.C,U3*%
X29250000Y-56125000D03*
X29250000Y-56775000D03*
X29250000Y-57425000D03*
X29250000Y-58075000D03*
X24950000Y-58075000D03*
X24950000Y-57425000D03*
X24950000Y-56775000D03*
X24950000Y-56125000D03*
%TD*%
D15*
%TO.C,R17*%
X33520000Y-29100000D03*
X32880000Y-29100000D03*
%TD*%
%TO.C,R8*%
X10020000Y-53500000D03*
X9380000Y-53500000D03*
%TD*%
%TO.C,C17*%
X50365000Y-44500000D03*
X49725000Y-44500000D03*
%TD*%
D14*
%TO.C,U12*%
X43463800Y-26495000D03*
X43463800Y-27765000D03*
X43463800Y-29035000D03*
X43463800Y-30305000D03*
X38536200Y-30305000D03*
X38536200Y-29035000D03*
X38536200Y-27765000D03*
X38536200Y-26495000D03*
%TD*%
D12*
%TO.C,R19*%
X39663800Y-19985000D03*
X39663800Y-19345000D03*
%TD*%
D19*
%TO.C,C14*%
X53580000Y-20600000D03*
X54220000Y-20600000D03*
%TD*%
D15*
%TO.C,C28*%
X40283800Y-17965000D03*
X39643800Y-17965000D03*
%TD*%
D24*
%TO.C,U1*%
X55600000Y-31355000D03*
D25*
X57890000Y-38045000D03*
X55600000Y-38045000D03*
X53310000Y-38045000D03*
%TD*%
D15*
%TO.C,C29*%
X36620000Y-30300000D03*
X35980000Y-30300000D03*
%TD*%
D19*
%TO.C,C11*%
X35280000Y-49100000D03*
X35920000Y-49100000D03*
%TD*%
D13*
%TO.C,C26*%
X32200000Y-31180000D03*
X32200000Y-31820000D03*
%TD*%
D15*
%TO.C,R20*%
X37283800Y-21765000D03*
X36643800Y-21765000D03*
%TD*%
%TO.C,C24*%
X55820000Y-51400000D03*
X55180000Y-51400000D03*
%TD*%
D13*
%TO.C,R15*%
X33400000Y-45180000D03*
X33400000Y-45820000D03*
%TD*%
D19*
%TO.C,C10*%
X50480000Y-56500000D03*
X51120000Y-56500000D03*
%TD*%
D12*
%TO.C,R9*%
X25100000Y-52920000D03*
X25100000Y-52280000D03*
%TD*%
D13*
%TO.C,C25*%
X34700000Y-41080000D03*
X34700000Y-41720000D03*
%TD*%
D15*
%TO.C,C27*%
X50283800Y-15365000D03*
X49643800Y-15365000D03*
%TD*%
%TO.C,C22*%
X32220000Y-56800000D03*
X31580000Y-56800000D03*
%TD*%
D26*
%TO.C,J10*%
X70142500Y-18132500D03*
X70142500Y-20672500D03*
X70142500Y-23212500D03*
X70142500Y-25752500D03*
X70142500Y-28292500D03*
%TD*%
M02*
