%TF.GenerationSoftware,KiCad,Pcbnew,8.0.5*%
%TF.CreationDate,2024-10-11T16:07:05+03:00*%
%TF.ProjectId,test,74657374-2e6b-4696-9361-645f70636258,rev?*%
%TF.SameCoordinates,Original*%
%TF.FileFunction,Paste,Bot*%
%TF.FilePolarity,Positive*%
%FSLAX46Y46*%
G04 Gerber Fmt 4.6, Leading zero omitted, Abs format (unit mm)*
G04 Created by KiCad (PCBNEW 8.0.5) date 2024-10-11 16:07:05*
%MOMM*%
%LPD*%
G01*
G04 APERTURE LIST*
%ADD10C,0.010000*%
G04 APERTURE END LIST*
D10*
%TO.C,J10*%
X71227500Y-19212500D02*
X69687500Y-19212500D01*
X69687500Y-18752500D01*
X69372500Y-18387500D01*
X68612500Y-18387500D01*
X68612500Y-17877500D01*
X69372500Y-17877500D01*
X69687500Y-17512500D01*
X69687500Y-17052500D01*
X71227500Y-17052500D01*
X71227500Y-19212500D01*
G36*
X71227500Y-19212500D02*
G01*
X69687500Y-19212500D01*
X69687500Y-18752500D01*
X69372500Y-18387500D01*
X68612500Y-18387500D01*
X68612500Y-17877500D01*
X69372500Y-17877500D01*
X69687500Y-17512500D01*
X69687500Y-17052500D01*
X71227500Y-17052500D01*
X71227500Y-19212500D01*
G37*
X71227500Y-21752500D02*
X69687500Y-21752500D01*
X69687500Y-21292500D01*
X69372500Y-20927500D01*
X68612500Y-20927500D01*
X68612500Y-20417500D01*
X69372500Y-20417500D01*
X69687500Y-20052500D01*
X69687500Y-19592500D01*
X71227500Y-19592500D01*
X71227500Y-21752500D01*
G36*
X71227500Y-21752500D02*
G01*
X69687500Y-21752500D01*
X69687500Y-21292500D01*
X69372500Y-20927500D01*
X68612500Y-20927500D01*
X68612500Y-20417500D01*
X69372500Y-20417500D01*
X69687500Y-20052500D01*
X69687500Y-19592500D01*
X71227500Y-19592500D01*
X71227500Y-21752500D01*
G37*
X71227500Y-24292500D02*
X69687500Y-24292500D01*
X69687500Y-23832500D01*
X69372500Y-23467500D01*
X68612500Y-23467500D01*
X68612500Y-22957500D01*
X69372500Y-22957500D01*
X69687500Y-22592500D01*
X69687500Y-22132500D01*
X71227500Y-22132500D01*
X71227500Y-24292500D01*
G36*
X71227500Y-24292500D02*
G01*
X69687500Y-24292500D01*
X69687500Y-23832500D01*
X69372500Y-23467500D01*
X68612500Y-23467500D01*
X68612500Y-22957500D01*
X69372500Y-22957500D01*
X69687500Y-22592500D01*
X69687500Y-22132500D01*
X71227500Y-22132500D01*
X71227500Y-24292500D01*
G37*
X71227500Y-26832500D02*
X69687500Y-26832500D01*
X69687500Y-26372500D01*
X69372500Y-26007500D01*
X68612500Y-26007500D01*
X68612500Y-25497500D01*
X69372500Y-25497500D01*
X69687500Y-25132500D01*
X69687500Y-24672500D01*
X71227500Y-24672500D01*
X71227500Y-26832500D01*
G36*
X71227500Y-26832500D02*
G01*
X69687500Y-26832500D01*
X69687500Y-26372500D01*
X69372500Y-26007500D01*
X68612500Y-26007500D01*
X68612500Y-25497500D01*
X69372500Y-25497500D01*
X69687500Y-25132500D01*
X69687500Y-24672500D01*
X71227500Y-24672500D01*
X71227500Y-26832500D01*
G37*
X71227500Y-29372500D02*
X69687500Y-29372500D01*
X69687500Y-28912500D01*
X69372500Y-28547500D01*
X68612500Y-28547500D01*
X68612500Y-28037500D01*
X69372500Y-28037500D01*
X69687500Y-27672500D01*
X69687500Y-27212500D01*
X71227500Y-27212500D01*
X71227500Y-29372500D01*
G36*
X71227500Y-29372500D02*
G01*
X69687500Y-29372500D01*
X69687500Y-28912500D01*
X69372500Y-28547500D01*
X68612500Y-28547500D01*
X68612500Y-28037500D01*
X69372500Y-28037500D01*
X69687500Y-27672500D01*
X69687500Y-27212500D01*
X71227500Y-27212500D01*
X71227500Y-29372500D01*
G37*
%TD*%
M02*
