%TF.GenerationSoftware,KiCad,Pcbnew,8.0.5*%
%TF.CreationDate,2024-10-10T13:47:41+03:00*%
%TF.ProjectId,kek,6b656b2e-6b69-4636-9164-5f7063625858,rev?*%
%TF.SameCoordinates,Original*%
%TF.FileFunction,Other,User*%
%FSLAX46Y46*%
G04 Gerber Fmt 4.6, Leading zero omitted, Abs format (unit mm)*
G04 Created by KiCad (PCBNEW 8.0.5) date 2024-10-10 13:47:41*
%MOMM*%
%LPD*%
G01*
G04 APERTURE LIST*
%ADD10C,0.050000*%
%ADD11C,0.127000*%
G04 APERTURE END LIST*
D10*
%TO.C,DA1*%
X118950000Y-99800000D02*
X118950000Y-103200000D01*
X118950000Y-103200000D02*
X123050000Y-103200000D01*
X123050000Y-99800000D02*
X118950000Y-99800000D01*
X123050000Y-103200000D02*
X123050000Y-99800000D01*
%TO.C,R8*%
X159270000Y-109695000D02*
X160730000Y-109695000D01*
X159270000Y-112655000D02*
X159270000Y-109695000D01*
X160730000Y-109695000D02*
X160730000Y-112655000D01*
X160730000Y-112655000D02*
X159270000Y-112655000D01*
%TO.C,R2*%
X153675000Y-83750000D02*
X156635000Y-83750000D01*
X153675000Y-85210000D02*
X153675000Y-83750000D01*
X156635000Y-83750000D02*
X156635000Y-85210000D01*
X156635000Y-85210000D02*
X153675000Y-85210000D01*
%TO.C,R5*%
X149845000Y-96270000D02*
X152805000Y-96270000D01*
X149845000Y-97730000D02*
X149845000Y-96270000D01*
X152805000Y-96270000D02*
X152805000Y-97730000D01*
X152805000Y-97730000D02*
X149845000Y-97730000D01*
%TO.C,DA2*%
X141150000Y-105100000D02*
X141150000Y-115900000D01*
X141150000Y-115900000D02*
X151850000Y-115900000D01*
X151850000Y-105100000D02*
X141150000Y-105100000D01*
X151850000Y-115900000D02*
X151850000Y-105100000D01*
%TO.C,C4*%
X134850000Y-93520000D02*
X138250000Y-93520000D01*
X134850000Y-95480000D02*
X134850000Y-93520000D01*
X138250000Y-93520000D02*
X138250000Y-95480000D01*
X138250000Y-95480000D02*
X134850000Y-95480000D01*
%TO.C,R1*%
X153675000Y-81240000D02*
X156635000Y-81240000D01*
X153675000Y-82700000D02*
X153675000Y-81240000D01*
X156635000Y-81240000D02*
X156635000Y-82700000D01*
X156635000Y-82700000D02*
X153675000Y-82700000D01*
%TO.C,VD1*%
X105250000Y-94410000D02*
X105250000Y-99250000D01*
X105250000Y-99250000D02*
X107750000Y-99250000D01*
X107750000Y-94410000D02*
X105250000Y-94410000D01*
X107750000Y-99250000D02*
X107750000Y-94410000D01*
%TO.C,R7*%
X153695000Y-87270000D02*
X156655000Y-87270000D01*
X153695000Y-88730000D02*
X153695000Y-87270000D01*
X156655000Y-87270000D02*
X156655000Y-88730000D01*
X156655000Y-88730000D02*
X153695000Y-88730000D01*
%TO.C,R14*%
X140020000Y-136770000D02*
X142980000Y-136770000D01*
X140020000Y-138230000D02*
X140020000Y-136770000D01*
X142980000Y-136770000D02*
X142980000Y-138230000D01*
X142980000Y-138230000D02*
X140020000Y-138230000D01*
%TO.C,VD2*%
X113750000Y-94250000D02*
X113750000Y-99090000D01*
X113750000Y-99090000D02*
X116250000Y-99090000D01*
X116250000Y-94250000D02*
X113750000Y-94250000D01*
X116250000Y-99090000D02*
X116250000Y-94250000D01*
%TO.C,DA3*%
X141150000Y-119600000D02*
X141150000Y-130400000D01*
X141150000Y-130400000D02*
X151850000Y-130400000D01*
X151850000Y-119600000D02*
X141150000Y-119600000D01*
X151850000Y-130400000D02*
X151850000Y-119600000D01*
%TO.C,C2*%
X116850000Y-91520000D02*
X120250000Y-91520000D01*
X116850000Y-93480000D02*
X116850000Y-91520000D01*
X120250000Y-91520000D02*
X120250000Y-93480000D01*
X120250000Y-93480000D02*
X116850000Y-93480000D01*
D11*
%TO.C,X1*%
X127687750Y-64937500D02*
X127687750Y-74062500D01*
X127687750Y-64937500D02*
X140187750Y-64937500D01*
X127687750Y-74062500D02*
X140187750Y-74062500D01*
X140187750Y-64937500D02*
X140187750Y-74062500D01*
D10*
%TO.C,C5*%
X125350000Y-108520000D02*
X128750000Y-108520000D01*
X125350000Y-110480000D02*
X125350000Y-108520000D01*
X128750000Y-108520000D02*
X128750000Y-110480000D01*
X128750000Y-110480000D02*
X125350000Y-110480000D01*
%TO.C,R15*%
X114270000Y-102845000D02*
X115730000Y-102845000D01*
X114270000Y-105805000D02*
X114270000Y-102845000D01*
X115730000Y-102845000D02*
X115730000Y-105805000D01*
X115730000Y-105805000D02*
X114270000Y-105805000D01*
%TO.C,C1*%
X130250000Y-87020000D02*
X133650000Y-87020000D01*
X130250000Y-88980000D02*
X130250000Y-87020000D01*
X133650000Y-87020000D02*
X133650000Y-88980000D01*
X133650000Y-88980000D02*
X130250000Y-88980000D01*
%TO.C,R13*%
X145695000Y-136770000D02*
X148655000Y-136770000D01*
X145695000Y-138230000D02*
X145695000Y-136770000D01*
X148655000Y-136770000D02*
X148655000Y-138230000D01*
X148655000Y-138230000D02*
X145695000Y-138230000D01*
%TO.C,R12*%
X135270000Y-121695000D02*
X136730000Y-121695000D01*
X135270000Y-124655000D02*
X135270000Y-121695000D01*
X136730000Y-121695000D02*
X136730000Y-124655000D01*
X136730000Y-124655000D02*
X135270000Y-124655000D01*
%TO.C,R4*%
X153695000Y-96270000D02*
X156655000Y-96270000D01*
X153695000Y-97730000D02*
X153695000Y-96270000D01*
X156655000Y-96270000D02*
X156655000Y-97730000D01*
X156655000Y-97730000D02*
X153695000Y-97730000D01*
%TO.C,R10*%
X129695000Y-136770000D02*
X132655000Y-136770000D01*
X129695000Y-138230000D02*
X129695000Y-136770000D01*
X132655000Y-136770000D02*
X132655000Y-138230000D01*
X132655000Y-138230000D02*
X129695000Y-138230000D01*
%TO.C,R11*%
X133695000Y-136770000D02*
X136655000Y-136770000D01*
X133695000Y-138230000D02*
X133695000Y-136770000D01*
X136655000Y-136770000D02*
X136655000Y-138230000D01*
X136655000Y-138230000D02*
X133695000Y-138230000D01*
%TO.C,C3*%
X134725000Y-87260000D02*
X138125000Y-87260000D01*
X134725000Y-89220000D02*
X134725000Y-87260000D01*
X138125000Y-87260000D02*
X138125000Y-89220000D01*
X138125000Y-89220000D02*
X134725000Y-89220000D01*
%TO.C,R9*%
X135270000Y-117545000D02*
X136730000Y-117545000D01*
X135270000Y-120505000D02*
X135270000Y-117545000D01*
X136730000Y-117545000D02*
X136730000Y-120505000D01*
X136730000Y-120505000D02*
X135270000Y-120505000D01*
%TO.C,R6*%
X114270000Y-87195000D02*
X115730000Y-87195000D01*
X114270000Y-90155000D02*
X114270000Y-87195000D01*
X115730000Y-87195000D02*
X115730000Y-90155000D01*
X115730000Y-90155000D02*
X114270000Y-90155000D01*
%TO.C,R3*%
X153695000Y-91770000D02*
X156655000Y-91770000D01*
X153695000Y-93230000D02*
X153695000Y-91770000D01*
X156655000Y-91770000D02*
X156655000Y-93230000D01*
X156655000Y-93230000D02*
X153695000Y-93230000D01*
%TD*%
M02*
