%TF.GenerationSoftware,KiCad,Pcbnew,8.0.5*%
%TF.CreationDate,2024-10-10T13:47:41+03:00*%
%TF.ProjectId,kek,6b656b2e-6b69-4636-9164-5f7063625858,rev?*%
%TF.SameCoordinates,Original*%
%TF.FileFunction,Copper,L2,Bot*%
%TF.FilePolarity,Positive*%
%FSLAX46Y46*%
G04 Gerber Fmt 4.6, Leading zero omitted, Abs format (unit mm)*
G04 Created by KiCad (PCBNEW 8.0.5) date 2024-10-10 13:47:41*
%MOMM*%
%LPD*%
G01*
G04 APERTURE LIST*
%TA.AperFunction,ComponentPad*%
%ADD10R,1.600000X1.600000*%
%TD*%
%TA.AperFunction,ComponentPad*%
%ADD11O,1.600000X1.600000*%
%TD*%
%TA.AperFunction,ComponentPad*%
%ADD12R,2.550000X2.550000*%
%TD*%
%TA.AperFunction,ComponentPad*%
%ADD13C,2.550000*%
%TD*%
%TA.AperFunction,ViaPad*%
%ADD14C,0.600000*%
%TD*%
%TA.AperFunction,Conductor*%
%ADD15C,0.200000*%
%TD*%
G04 APERTURE END LIST*
D10*
%TO.P,VD1,1*%
%TO.N,/OUT1*%
X106500000Y-98000000D03*
D11*
%TO.P,VD1,2*%
%TO.N,Net-(R6-Pad2)*%
X106500000Y-95460000D03*
%TD*%
D10*
%TO.P,VD2,1*%
%TO.N,Net-(R6-Pad2)*%
X115000000Y-95500000D03*
D11*
%TO.P,VD2,2*%
%TO.N,/OUT1*%
X115000000Y-98040000D03*
%TD*%
D12*
%TO.P,X1,1*%
%TO.N,/OUT3*%
X129977750Y-68937500D03*
D13*
%TO.P,X1,2*%
%TO.N,+5V*%
X133937750Y-68937500D03*
%TO.P,X1,3*%
%TO.N,Earth*%
X137897750Y-68937500D03*
%TD*%
D14*
%TO.N,Net-(DA1-IN-)*%
X140000000Y-100000000D03*
X125000000Y-106500000D03*
%TO.N,Net-(DA1-IN+)*%
X149000000Y-91000000D03*
X119500000Y-104000000D03*
X131000000Y-95000000D03*
%TO.N,Earth*%
X143500000Y-102500000D03*
X145500000Y-139500000D03*
X117500000Y-109500000D03*
X124000000Y-125000000D03*
X139500000Y-127500000D03*
X117500000Y-102000000D03*
X146500000Y-132500000D03*
X144000000Y-89500000D03*
X126000000Y-102000000D03*
X144000000Y-89500000D03*
X117500000Y-109500000D03*
X143500000Y-102500000D03*
X117500000Y-102000000D03*
X124000000Y-125000000D03*
X146500000Y-132500000D03*
X145500000Y-139500000D03*
X149000000Y-80000000D03*
X139500000Y-127500000D03*
X149000000Y-80000000D03*
X126000000Y-102000000D03*
%TO.N,Net-(DA2-IN-)*%
X153500000Y-110500000D03*
X139000000Y-112000000D03*
%TO.N,Net-(R2-Pad2)*%
X152000000Y-87000000D03*
X152000000Y-87000000D03*
X152000000Y-93400000D03*
%TO.N,Net-(R5-Pad2)*%
X150500000Y-94000000D03*
X150500000Y-87000000D03*
%TD*%
D15*
%TO.N,*%
X142000000Y-132000000D02*
X142000000Y-131500000D01*
%TO.N,Net-(DA1-IN-)*%
X125000000Y-106500000D02*
X125250000Y-106250000D01*
X131500000Y-100000000D02*
X125000000Y-106500000D01*
X140000000Y-100000000D02*
X131500000Y-100000000D01*
%TO.N,Net-(DA1-IN+)*%
X125000000Y-104500000D02*
X131000000Y-98500000D01*
X119500000Y-104000000D02*
X120000000Y-104500000D01*
X131000000Y-98500000D02*
X131000000Y-95000000D01*
X149000000Y-91000000D02*
X135000000Y-91000000D01*
X135000000Y-91000000D02*
X131000000Y-95000000D01*
X120000000Y-104500000D02*
X125000000Y-104500000D01*
%TO.N,Earth*%
X117500000Y-109500000D02*
X117500000Y-102000000D01*
%TO.N,Net-(DA2-IN-)*%
X141000000Y-117000000D02*
X139000000Y-115000000D01*
X153000000Y-117000000D02*
X141000000Y-117000000D01*
X153500000Y-110500000D02*
X153000000Y-111000000D01*
X153000000Y-111000000D02*
X153000000Y-117000000D01*
X139000000Y-115000000D02*
X139000000Y-112000000D01*
%TO.N,Net-(R2-Pad2)*%
X152000000Y-87000000D02*
X152000000Y-93400000D01*
%TO.N,Net-(R5-Pad2)*%
X150500000Y-87000000D02*
X150500000Y-94000000D01*
%TD*%
%TA.AperFunction,Conductor*%
%TO.N,Earth*%
G36*
X157943039Y-62519685D02*
G01*
X157988794Y-62572489D01*
X158000000Y-62624000D01*
X158000000Y-141876000D01*
X157980315Y-141943039D01*
X157927511Y-141988794D01*
X157876000Y-142000000D01*
X116624000Y-142000000D01*
X116556961Y-141980315D01*
X116511206Y-141927511D01*
X116500000Y-141876000D01*
X116500000Y-140876000D01*
X119864641Y-140876000D01*
X121459046Y-140876000D01*
X123400175Y-140876000D01*
X124994580Y-140876000D01*
X126935709Y-140876000D01*
X128530114Y-140876000D01*
X130471243Y-140876000D01*
X132065648Y-140876000D01*
X134006777Y-140876000D01*
X135601182Y-140876000D01*
X137542311Y-140876000D01*
X139136716Y-140876000D01*
X141077845Y-140876000D01*
X142672250Y-140876000D01*
X148148913Y-140876000D01*
X149743318Y-140876000D01*
X151684446Y-140876000D01*
X153278851Y-140876000D01*
X155219980Y-140876000D01*
X156814385Y-140876000D01*
X156194430Y-140256045D01*
X156017183Y-140182627D01*
X155839935Y-140256045D01*
X155219980Y-140876000D01*
X153278851Y-140876000D01*
X152658896Y-140256045D01*
X152481649Y-140182627D01*
X152304401Y-140256045D01*
X151684446Y-140876000D01*
X149743318Y-140876000D01*
X149123362Y-140256045D01*
X148946115Y-140182627D01*
X148768867Y-140256045D01*
X148148913Y-140876000D01*
X142672250Y-140876000D01*
X142052294Y-140256044D01*
X141875047Y-140182627D01*
X141697799Y-140256045D01*
X141077845Y-140876000D01*
X139136716Y-140876000D01*
X138516760Y-140256044D01*
X138339513Y-140182627D01*
X138162265Y-140256045D01*
X137542311Y-140876000D01*
X135601182Y-140876000D01*
X134981226Y-140256044D01*
X134803979Y-140182627D01*
X134626731Y-140256045D01*
X134006777Y-140876000D01*
X132065648Y-140876000D01*
X131445693Y-140256045D01*
X131268445Y-140182627D01*
X131091198Y-140256044D01*
X130471243Y-140876000D01*
X128530114Y-140876000D01*
X127910159Y-140256045D01*
X127732911Y-140182627D01*
X127555664Y-140256044D01*
X126935709Y-140876000D01*
X124994580Y-140876000D01*
X124374625Y-140256045D01*
X124197377Y-140182627D01*
X124020130Y-140256044D01*
X123400175Y-140876000D01*
X121459046Y-140876000D01*
X120839091Y-140256045D01*
X120661843Y-140182627D01*
X120484596Y-140256044D01*
X119864641Y-140876000D01*
X116500000Y-140876000D01*
X116500000Y-139373105D01*
X117935831Y-139373105D01*
X118009248Y-139550352D01*
X118716829Y-140257933D01*
X118894076Y-140331350D01*
X119071324Y-140257932D01*
X119778904Y-139550352D01*
X119852321Y-139373105D01*
X121471365Y-139373105D01*
X121544782Y-139550352D01*
X122252363Y-140257933D01*
X122429610Y-140331350D01*
X122606858Y-140257932D01*
X123314438Y-139550352D01*
X123387855Y-139373105D01*
X125006899Y-139373105D01*
X125080316Y-139550352D01*
X125787897Y-140257933D01*
X125965144Y-140331350D01*
X126142392Y-140257932D01*
X126849972Y-139550352D01*
X126923389Y-139373105D01*
X128542433Y-139373105D01*
X128615850Y-139550352D01*
X129323431Y-140257933D01*
X129500678Y-140331350D01*
X129677926Y-140257932D01*
X130385506Y-139550352D01*
X130458923Y-139373105D01*
X132077967Y-139373105D01*
X132151384Y-139550352D01*
X132858964Y-140257932D01*
X133036212Y-140331350D01*
X133213459Y-140257933D01*
X133921040Y-139550352D01*
X133994457Y-139373105D01*
X135613501Y-139373105D01*
X135686918Y-139550352D01*
X136394498Y-140257932D01*
X136571746Y-140331350D01*
X136748993Y-140257933D01*
X137456574Y-139550352D01*
X137529991Y-139373105D01*
X139149035Y-139373105D01*
X139222452Y-139550352D01*
X139930032Y-140257932D01*
X140107280Y-140331350D01*
X140284527Y-140257933D01*
X140992108Y-139550352D01*
X141065525Y-139373105D01*
X142684569Y-139373105D01*
X142757986Y-139550352D01*
X143465566Y-140257932D01*
X143642814Y-140331350D01*
X143820061Y-140257933D01*
X144262054Y-139815939D01*
X144210143Y-139521532D01*
X144210143Y-139478468D01*
X144280566Y-139079077D01*
X144295294Y-139038610D01*
X144322782Y-138990998D01*
X144209403Y-138877619D01*
X146611758Y-138877619D01*
X146704705Y-139038609D01*
X146719434Y-139079077D01*
X146789857Y-139478468D01*
X146789857Y-139521532D01*
X146719434Y-139920923D01*
X146704705Y-139961392D01*
X146704651Y-139961483D01*
X147001100Y-140257932D01*
X147178348Y-140331350D01*
X147355595Y-140257932D01*
X148063176Y-139550352D01*
X148136593Y-139373105D01*
X149755636Y-139373105D01*
X149829055Y-139550353D01*
X150536634Y-140257932D01*
X150713882Y-140331350D01*
X150891129Y-140257932D01*
X151598710Y-139550352D01*
X151672127Y-139373105D01*
X153291170Y-139373105D01*
X153364587Y-139550352D01*
X154072168Y-140257932D01*
X154249416Y-140331350D01*
X154426663Y-140257932D01*
X155134242Y-139550353D01*
X155207661Y-139373105D01*
X155134242Y-139195857D01*
X154426663Y-138488278D01*
X154249416Y-138414860D01*
X154072168Y-138488278D01*
X153364588Y-139195857D01*
X153291170Y-139373105D01*
X151672127Y-139373105D01*
X151598709Y-139195857D01*
X150891129Y-138488278D01*
X150713882Y-138414860D01*
X150536634Y-138488278D01*
X149829055Y-139195857D01*
X149755636Y-139373105D01*
X148136593Y-139373105D01*
X148063175Y-139195857D01*
X147355595Y-138488278D01*
X147178348Y-138414860D01*
X147001100Y-138488278D01*
X146611758Y-138877619D01*
X144209403Y-138877619D01*
X143820061Y-138488277D01*
X143642814Y-138414860D01*
X143465566Y-138488278D01*
X142757987Y-139195857D01*
X142684569Y-139373105D01*
X141065525Y-139373105D01*
X140992107Y-139195857D01*
X140284527Y-138488277D01*
X140107280Y-138414860D01*
X139930032Y-138488278D01*
X139222453Y-139195857D01*
X139149035Y-139373105D01*
X137529991Y-139373105D01*
X137456573Y-139195857D01*
X136748993Y-138488277D01*
X136571746Y-138414860D01*
X136394498Y-138488278D01*
X135686919Y-139195857D01*
X135613501Y-139373105D01*
X133994457Y-139373105D01*
X133921039Y-139195857D01*
X133213459Y-138488277D01*
X133036212Y-138414860D01*
X132858964Y-138488278D01*
X132151385Y-139195857D01*
X132077967Y-139373105D01*
X130458923Y-139373105D01*
X130385505Y-139195857D01*
X129677926Y-138488278D01*
X129500678Y-138414860D01*
X129323431Y-138488277D01*
X128615851Y-139195857D01*
X128542433Y-139373105D01*
X126923389Y-139373105D01*
X126849971Y-139195857D01*
X126142392Y-138488278D01*
X125965144Y-138414860D01*
X125787897Y-138488277D01*
X125080317Y-139195857D01*
X125006899Y-139373105D01*
X123387855Y-139373105D01*
X123314437Y-139195857D01*
X122606858Y-138488278D01*
X122429610Y-138414860D01*
X122252363Y-138488277D01*
X121544783Y-139195857D01*
X121471365Y-139373105D01*
X119852321Y-139373105D01*
X119778903Y-139195857D01*
X119071324Y-138488278D01*
X118894076Y-138414860D01*
X118716829Y-138488277D01*
X118009249Y-139195857D01*
X117935831Y-139373105D01*
X116500000Y-139373105D01*
X116500000Y-137605338D01*
X119703598Y-137605338D01*
X119777016Y-137782586D01*
X120484596Y-138490166D01*
X120661843Y-138563583D01*
X120839091Y-138490165D01*
X121546670Y-137782586D01*
X121620088Y-137605338D01*
X123239132Y-137605338D01*
X123312550Y-137782586D01*
X124020130Y-138490166D01*
X124197377Y-138563583D01*
X124374625Y-138490165D01*
X125082204Y-137782586D01*
X125155622Y-137605338D01*
X126774666Y-137605338D01*
X126848084Y-137782586D01*
X127555664Y-138490166D01*
X127732911Y-138563583D01*
X127910159Y-138490165D01*
X128617738Y-137782586D01*
X128691156Y-137605338D01*
X130310200Y-137605338D01*
X130383618Y-137782586D01*
X131091198Y-138490166D01*
X131268445Y-138563583D01*
X131445693Y-138490165D01*
X132153272Y-137782586D01*
X132226690Y-137605338D01*
X133845734Y-137605338D01*
X133919152Y-137782586D01*
X134626731Y-138490165D01*
X134803979Y-138563583D01*
X134981226Y-138490166D01*
X135688806Y-137782586D01*
X135762224Y-137605338D01*
X137381268Y-137605338D01*
X137454686Y-137782586D01*
X138162265Y-138490165D01*
X138339513Y-138563583D01*
X138516760Y-138490166D01*
X139224340Y-137782586D01*
X139297758Y-137605338D01*
X140916802Y-137605338D01*
X140990220Y-137782586D01*
X141697799Y-138490165D01*
X141875047Y-138563583D01*
X142052294Y-138490166D01*
X142759874Y-137782586D01*
X142833292Y-137605338D01*
X144452336Y-137605338D01*
X144525754Y-137782586D01*
X145050873Y-138307705D01*
X145254814Y-138233478D01*
X145297224Y-138226000D01*
X145702776Y-138226000D01*
X145745186Y-138233478D01*
X145818010Y-138259983D01*
X146295408Y-137782586D01*
X146368826Y-137605338D01*
X147987869Y-137605338D01*
X148061288Y-137782586D01*
X148768867Y-138490165D01*
X148946115Y-138563583D01*
X149123362Y-138490165D01*
X149830942Y-137782586D01*
X149904360Y-137605338D01*
X151523403Y-137605338D01*
X151596821Y-137782586D01*
X152304401Y-138490165D01*
X152481649Y-138563583D01*
X152658896Y-138490165D01*
X153366475Y-137782586D01*
X153439894Y-137605338D01*
X155058937Y-137605338D01*
X155132355Y-137782586D01*
X155839935Y-138490165D01*
X156017183Y-138563583D01*
X156194430Y-138490165D01*
X156876000Y-137808596D01*
X156876000Y-137402081D01*
X156194430Y-136720511D01*
X156017183Y-136647093D01*
X155839935Y-136720511D01*
X155132354Y-137428091D01*
X155058937Y-137605338D01*
X153439894Y-137605338D01*
X153366475Y-137428090D01*
X152658896Y-136720511D01*
X152481649Y-136647093D01*
X152304401Y-136720511D01*
X151596820Y-137428091D01*
X151523403Y-137605338D01*
X149904360Y-137605338D01*
X149830943Y-137428091D01*
X149123362Y-136720511D01*
X148946115Y-136647093D01*
X148768867Y-136720511D01*
X148061288Y-137428090D01*
X147987869Y-137605338D01*
X146368826Y-137605338D01*
X146295409Y-137428091D01*
X145587828Y-136720510D01*
X145410581Y-136647093D01*
X145233333Y-136720511D01*
X144525753Y-137428091D01*
X144452336Y-137605338D01*
X142833292Y-137605338D01*
X142759875Y-137428091D01*
X142052294Y-136720510D01*
X141875047Y-136647093D01*
X141697799Y-136720511D01*
X140990219Y-137428091D01*
X140916802Y-137605338D01*
X139297758Y-137605338D01*
X139224341Y-137428091D01*
X138516760Y-136720510D01*
X138339513Y-136647093D01*
X138162265Y-136720511D01*
X137454685Y-137428091D01*
X137381268Y-137605338D01*
X135762224Y-137605338D01*
X135688807Y-137428091D01*
X134981226Y-136720510D01*
X134803979Y-136647093D01*
X134626731Y-136720511D01*
X133919151Y-137428091D01*
X133845734Y-137605338D01*
X132226690Y-137605338D01*
X132153273Y-137428091D01*
X131445693Y-136720511D01*
X131268445Y-136647093D01*
X131091198Y-136720510D01*
X130383617Y-137428091D01*
X130310200Y-137605338D01*
X128691156Y-137605338D01*
X128617739Y-137428091D01*
X127910159Y-136720511D01*
X127732911Y-136647093D01*
X127555664Y-136720510D01*
X126848083Y-137428091D01*
X126774666Y-137605338D01*
X125155622Y-137605338D01*
X125082205Y-137428091D01*
X124374625Y-136720511D01*
X124197377Y-136647093D01*
X124020130Y-136720510D01*
X123312549Y-137428091D01*
X123239132Y-137605338D01*
X121620088Y-137605338D01*
X121546671Y-137428091D01*
X120839091Y-136720511D01*
X120661843Y-136647093D01*
X120484596Y-136720510D01*
X119777015Y-137428091D01*
X119703598Y-137605338D01*
X116500000Y-137605338D01*
X116500000Y-135837571D01*
X117935831Y-135837571D01*
X118009249Y-136014819D01*
X118716829Y-136722399D01*
X118894076Y-136795816D01*
X119071324Y-136722398D01*
X119778903Y-136014819D01*
X119852321Y-135837571D01*
X121471365Y-135837571D01*
X121544783Y-136014819D01*
X122252363Y-136722399D01*
X122429610Y-136795816D01*
X122606858Y-136722398D01*
X123314437Y-136014819D01*
X123387855Y-135837571D01*
X125006899Y-135837571D01*
X125080317Y-136014819D01*
X125787897Y-136722399D01*
X125965144Y-136795816D01*
X126142392Y-136722398D01*
X126849971Y-136014819D01*
X126923389Y-135837571D01*
X128542433Y-135837571D01*
X128615851Y-136014819D01*
X129323431Y-136722399D01*
X129500678Y-136795816D01*
X129677926Y-136722398D01*
X130385505Y-136014819D01*
X130458923Y-135837571D01*
X132077967Y-135837571D01*
X132151385Y-136014819D01*
X132858964Y-136722398D01*
X133036212Y-136795816D01*
X133213459Y-136722399D01*
X133921039Y-136014819D01*
X133994457Y-135837571D01*
X135613501Y-135837571D01*
X135686919Y-136014819D01*
X136394498Y-136722398D01*
X136571746Y-136795816D01*
X136748993Y-136722399D01*
X137456573Y-136014819D01*
X137529991Y-135837571D01*
X139149035Y-135837571D01*
X139222453Y-136014819D01*
X139930032Y-136722398D01*
X140107280Y-136795816D01*
X140284527Y-136722399D01*
X140992107Y-136014819D01*
X141065525Y-135837571D01*
X142684569Y-135837571D01*
X142757987Y-136014819D01*
X143465566Y-136722398D01*
X143642814Y-136795816D01*
X143820061Y-136722399D01*
X144527641Y-136014819D01*
X144601059Y-135837571D01*
X146220103Y-135837571D01*
X146293521Y-136014819D01*
X147001100Y-136722398D01*
X147178348Y-136795816D01*
X147355595Y-136722398D01*
X148063175Y-136014819D01*
X148136593Y-135837571D01*
X149755636Y-135837571D01*
X149829055Y-136014819D01*
X150536634Y-136722398D01*
X150713882Y-136795816D01*
X150891129Y-136722398D01*
X151598709Y-136014819D01*
X151672127Y-135837571D01*
X153291170Y-135837571D01*
X153364588Y-136014819D01*
X154072168Y-136722398D01*
X154249416Y-136795816D01*
X154426663Y-136722398D01*
X155134242Y-136014819D01*
X155207661Y-135837571D01*
X155134242Y-135660323D01*
X154426663Y-134952744D01*
X154249416Y-134879326D01*
X154072168Y-134952744D01*
X153364587Y-135660324D01*
X153291170Y-135837571D01*
X151672127Y-135837571D01*
X151598710Y-135660324D01*
X150891129Y-134952744D01*
X150713882Y-134879326D01*
X150536634Y-134952744D01*
X149829055Y-135660323D01*
X149755636Y-135837571D01*
X148136593Y-135837571D01*
X148063176Y-135660324D01*
X147355595Y-134952744D01*
X147178348Y-134879326D01*
X147001100Y-134952744D01*
X146293520Y-135660324D01*
X146220103Y-135837571D01*
X144601059Y-135837571D01*
X144527642Y-135660324D01*
X143820061Y-134952743D01*
X143642814Y-134879326D01*
X143465566Y-134952744D01*
X142757986Y-135660324D01*
X142684569Y-135837571D01*
X141065525Y-135837571D01*
X140992108Y-135660324D01*
X140284527Y-134952743D01*
X140107280Y-134879326D01*
X139930032Y-134952744D01*
X139222452Y-135660324D01*
X139149035Y-135837571D01*
X137529991Y-135837571D01*
X137456574Y-135660324D01*
X136748993Y-134952743D01*
X136571746Y-134879326D01*
X136394498Y-134952744D01*
X135686918Y-135660324D01*
X135613501Y-135837571D01*
X133994457Y-135837571D01*
X133921040Y-135660324D01*
X133213459Y-134952743D01*
X133036212Y-134879326D01*
X132858964Y-134952744D01*
X132151384Y-135660324D01*
X132077967Y-135837571D01*
X130458923Y-135837571D01*
X130385506Y-135660324D01*
X129677926Y-134952744D01*
X129500678Y-134879326D01*
X129323431Y-134952743D01*
X128615850Y-135660324D01*
X128542433Y-135837571D01*
X126923389Y-135837571D01*
X126849972Y-135660324D01*
X126142392Y-134952744D01*
X125965144Y-134879326D01*
X125787897Y-134952743D01*
X125080316Y-135660324D01*
X125006899Y-135837571D01*
X123387855Y-135837571D01*
X123314438Y-135660324D01*
X122606858Y-134952744D01*
X122429610Y-134879326D01*
X122252363Y-134952743D01*
X121544782Y-135660324D01*
X121471365Y-135837571D01*
X119852321Y-135837571D01*
X119778904Y-135660324D01*
X119071324Y-134952744D01*
X118894076Y-134879326D01*
X118716829Y-134952743D01*
X118009248Y-135660324D01*
X117935831Y-135837571D01*
X116500000Y-135837571D01*
X116500000Y-134069804D01*
X119703598Y-134069804D01*
X119777016Y-134247052D01*
X120484596Y-134954632D01*
X120661843Y-135028049D01*
X120839091Y-134954631D01*
X121546670Y-134247052D01*
X121620088Y-134069804D01*
X123239132Y-134069804D01*
X123312550Y-134247052D01*
X124020130Y-134954632D01*
X124197377Y-135028049D01*
X124374625Y-134954631D01*
X125082204Y-134247052D01*
X125155622Y-134069804D01*
X126774666Y-134069804D01*
X126848084Y-134247052D01*
X127555664Y-134954632D01*
X127732911Y-135028049D01*
X127910159Y-134954631D01*
X128617738Y-134247052D01*
X128691156Y-134069804D01*
X130310200Y-134069804D01*
X130383618Y-134247052D01*
X131091198Y-134954632D01*
X131268445Y-135028049D01*
X131445693Y-134954631D01*
X132153272Y-134247052D01*
X132226690Y-134069804D01*
X133845734Y-134069804D01*
X133919152Y-134247052D01*
X134626731Y-134954631D01*
X134803979Y-135028049D01*
X134981226Y-134954632D01*
X135688806Y-134247052D01*
X135762224Y-134069804D01*
X137381268Y-134069804D01*
X137454686Y-134247052D01*
X138162265Y-134954631D01*
X138339513Y-135028049D01*
X138516760Y-134954632D01*
X139224340Y-134247052D01*
X139297758Y-134069804D01*
X140916802Y-134069804D01*
X140990220Y-134247052D01*
X141697799Y-134954631D01*
X141875047Y-135028049D01*
X142052294Y-134954632D01*
X142759874Y-134247052D01*
X142833292Y-134069804D01*
X144452336Y-134069804D01*
X144525754Y-134247052D01*
X145233333Y-134954631D01*
X145410581Y-135028049D01*
X145587828Y-134954632D01*
X146295408Y-134247052D01*
X146368826Y-134069804D01*
X147987869Y-134069804D01*
X148061288Y-134247052D01*
X148768867Y-134954631D01*
X148946115Y-135028049D01*
X149123362Y-134954631D01*
X149830942Y-134247052D01*
X149904360Y-134069804D01*
X151523403Y-134069804D01*
X151596821Y-134247052D01*
X152304401Y-134954631D01*
X152481649Y-135028049D01*
X152658896Y-134954631D01*
X153366475Y-134247052D01*
X153439894Y-134069804D01*
X155058937Y-134069804D01*
X155132355Y-134247052D01*
X155839935Y-134954631D01*
X156017183Y-135028049D01*
X156194430Y-134954631D01*
X156876000Y-134273062D01*
X156876000Y-133866547D01*
X156194430Y-133184977D01*
X156017183Y-133111559D01*
X155839935Y-133184977D01*
X155132354Y-133892557D01*
X155058937Y-134069804D01*
X153439894Y-134069804D01*
X153366475Y-133892556D01*
X152658896Y-133184977D01*
X152481649Y-133111559D01*
X152304401Y-133184977D01*
X151596820Y-133892557D01*
X151523403Y-134069804D01*
X149904360Y-134069804D01*
X149830943Y-133892557D01*
X149123362Y-133184977D01*
X148946115Y-133111559D01*
X148768867Y-133184977D01*
X148061288Y-133892556D01*
X147987869Y-134069804D01*
X146368826Y-134069804D01*
X146295409Y-133892557D01*
X146120479Y-133717627D01*
X145873719Y-133627815D01*
X145836423Y-133606282D01*
X145525752Y-133345598D01*
X145498071Y-133312609D01*
X145387511Y-133121115D01*
X145233333Y-133184977D01*
X144525753Y-133892557D01*
X144452336Y-134069804D01*
X142833292Y-134069804D01*
X142759875Y-133892557D01*
X142411851Y-133544533D01*
X142305795Y-133572951D01*
X142297894Y-133574793D01*
X142249740Y-133584372D01*
X142241736Y-133585694D01*
X142176935Y-133594227D01*
X142168856Y-133595023D01*
X142119850Y-133598235D01*
X142111740Y-133598500D01*
X141888260Y-133598500D01*
X141880150Y-133598235D01*
X141831144Y-133595023D01*
X141823065Y-133594227D01*
X141758264Y-133585694D01*
X141750260Y-133584372D01*
X141702106Y-133574793D01*
X141694206Y-133572951D01*
X141478352Y-133515114D01*
X141470586Y-133512758D01*
X141424091Y-133496975D01*
X141416500Y-133494118D01*
X141396812Y-133485963D01*
X140990219Y-133892556D01*
X140916802Y-134069804D01*
X139297758Y-134069804D01*
X139224341Y-133892557D01*
X138516760Y-133184976D01*
X138339513Y-133111559D01*
X138162265Y-133184977D01*
X137454685Y-133892557D01*
X137381268Y-134069804D01*
X135762224Y-134069804D01*
X135688807Y-133892557D01*
X134981226Y-133184976D01*
X134803979Y-133111559D01*
X134626731Y-133184977D01*
X133919151Y-133892557D01*
X133845734Y-134069804D01*
X132226690Y-134069804D01*
X132153273Y-133892557D01*
X131445693Y-133184977D01*
X131268445Y-133111559D01*
X131091198Y-133184976D01*
X130383617Y-133892557D01*
X130310200Y-134069804D01*
X128691156Y-134069804D01*
X128617739Y-133892557D01*
X127910159Y-133184977D01*
X127732911Y-133111559D01*
X127555664Y-133184976D01*
X126848083Y-133892557D01*
X126774666Y-134069804D01*
X125155622Y-134069804D01*
X125082205Y-133892557D01*
X124374625Y-133184977D01*
X124197377Y-133111559D01*
X124020130Y-133184976D01*
X123312549Y-133892557D01*
X123239132Y-134069804D01*
X121620088Y-134069804D01*
X121546671Y-133892557D01*
X120839091Y-133184977D01*
X120661843Y-133111559D01*
X120484596Y-133184976D01*
X119777015Y-133892557D01*
X119703598Y-134069804D01*
X116500000Y-134069804D01*
X116500000Y-132302037D01*
X117935831Y-132302037D01*
X118009249Y-132479285D01*
X118716829Y-133186865D01*
X118894076Y-133260282D01*
X119071324Y-133186864D01*
X119778903Y-132479285D01*
X119852321Y-132302037D01*
X121471365Y-132302037D01*
X121544783Y-132479285D01*
X122252363Y-133186865D01*
X122429610Y-133260282D01*
X122606858Y-133186864D01*
X123314437Y-132479285D01*
X123387855Y-132302037D01*
X125006899Y-132302037D01*
X125080317Y-132479285D01*
X125787897Y-133186865D01*
X125965144Y-133260282D01*
X126142392Y-133186864D01*
X126849971Y-132479285D01*
X126923389Y-132302037D01*
X128542433Y-132302037D01*
X128615851Y-132479285D01*
X129323431Y-133186865D01*
X129500678Y-133260282D01*
X129677926Y-133186864D01*
X130385505Y-132479285D01*
X130458923Y-132302037D01*
X132077967Y-132302037D01*
X132151385Y-132479285D01*
X132858964Y-133186864D01*
X133036212Y-133260282D01*
X133213459Y-133186865D01*
X133921039Y-132479285D01*
X133994457Y-132302037D01*
X135613501Y-132302037D01*
X135686919Y-132479285D01*
X136394498Y-133186864D01*
X136571746Y-133260282D01*
X136748993Y-133186865D01*
X137456573Y-132479285D01*
X137529991Y-132302037D01*
X139149035Y-132302037D01*
X139222453Y-132479285D01*
X139930032Y-133186864D01*
X140107280Y-133260282D01*
X140284527Y-133186865D01*
X140485329Y-132986062D01*
X143264764Y-132986062D01*
X143465566Y-133186864D01*
X143642814Y-133260282D01*
X143820061Y-133186865D01*
X144527641Y-132479285D01*
X144601059Y-132302037D01*
X149755636Y-132302037D01*
X149829055Y-132479285D01*
X150536634Y-133186864D01*
X150713882Y-133260282D01*
X150891129Y-133186864D01*
X151598709Y-132479285D01*
X151672127Y-132302037D01*
X153291170Y-132302037D01*
X153364588Y-132479285D01*
X154072168Y-133186864D01*
X154249416Y-133260282D01*
X154426663Y-133186864D01*
X155134242Y-132479285D01*
X155207661Y-132302037D01*
X155134242Y-132124789D01*
X154426663Y-131417210D01*
X154249416Y-131343792D01*
X154072168Y-131417210D01*
X153364587Y-132124790D01*
X153291170Y-132302037D01*
X151672127Y-132302037D01*
X151598710Y-132124790D01*
X150891129Y-131417210D01*
X150713882Y-131343792D01*
X150536634Y-131417210D01*
X149829055Y-132124789D01*
X149755636Y-132302037D01*
X144601059Y-132302037D01*
X144527642Y-132124790D01*
X143820061Y-131417209D01*
X143642813Y-131343792D01*
X143597093Y-131362729D01*
X143598235Y-131380150D01*
X143598500Y-131388260D01*
X143598500Y-132111740D01*
X143598235Y-132119850D01*
X143595023Y-132168856D01*
X143594227Y-132176935D01*
X143585694Y-132241736D01*
X143584372Y-132249740D01*
X143574793Y-132297894D01*
X143572951Y-132305794D01*
X143515114Y-132521648D01*
X143512758Y-132529414D01*
X143496975Y-132575909D01*
X143494118Y-132583500D01*
X143469108Y-132643883D01*
X143465758Y-132651277D01*
X143444038Y-132695321D01*
X143440214Y-132702476D01*
X143328474Y-132896018D01*
X143324188Y-132902910D01*
X143296900Y-132943749D01*
X143292171Y-132950348D01*
X143264764Y-132986062D01*
X140485329Y-132986062D01*
X140636332Y-132835059D01*
X140559786Y-132702476D01*
X140555962Y-132695321D01*
X140534242Y-132651277D01*
X140530892Y-132643883D01*
X140505882Y-132583500D01*
X140503025Y-132575909D01*
X140487242Y-132529414D01*
X140484886Y-132521648D01*
X140427049Y-132305794D01*
X140425207Y-132297894D01*
X140415628Y-132249740D01*
X140414306Y-132241736D01*
X140405773Y-132176935D01*
X140404977Y-132168856D01*
X140401765Y-132119850D01*
X140401500Y-132111740D01*
X140401500Y-131534182D01*
X140288261Y-131420943D01*
X141399500Y-131420943D01*
X141399500Y-132079057D01*
X141425727Y-132176935D01*
X141440423Y-132231783D01*
X141440426Y-132231790D01*
X141519475Y-132368709D01*
X141519479Y-132368714D01*
X141519480Y-132368716D01*
X141631284Y-132480520D01*
X141631286Y-132480521D01*
X141631290Y-132480524D01*
X141768209Y-132559573D01*
X141768216Y-132559577D01*
X141920943Y-132600500D01*
X141920945Y-132600500D01*
X142079055Y-132600500D01*
X142079057Y-132600500D01*
X142231784Y-132559577D01*
X142368716Y-132480520D01*
X142480520Y-132368716D01*
X142559577Y-132231784D01*
X142600500Y-132079057D01*
X142600500Y-131420943D01*
X142559577Y-131268216D01*
X142559573Y-131268209D01*
X142480524Y-131131290D01*
X142480518Y-131131282D01*
X142368717Y-131019481D01*
X142368709Y-131019475D01*
X142231790Y-130940426D01*
X142231786Y-130940424D01*
X142231784Y-130940423D01*
X142079057Y-130899500D01*
X141920943Y-130899500D01*
X141768216Y-130940423D01*
X141768209Y-130940426D01*
X141631290Y-131019475D01*
X141631282Y-131019481D01*
X141519481Y-131131282D01*
X141519475Y-131131290D01*
X141440426Y-131268209D01*
X141440423Y-131268216D01*
X141399500Y-131420943D01*
X140288261Y-131420943D01*
X140284527Y-131417209D01*
X140107280Y-131343792D01*
X139930032Y-131417210D01*
X139222452Y-132124790D01*
X139149035Y-132302037D01*
X137529991Y-132302037D01*
X137456574Y-132124790D01*
X136748993Y-131417209D01*
X136571746Y-131343792D01*
X136394498Y-131417210D01*
X135686918Y-132124790D01*
X135613501Y-132302037D01*
X133994457Y-132302037D01*
X133921040Y-132124790D01*
X133213459Y-131417209D01*
X133036212Y-131343792D01*
X132858964Y-131417210D01*
X132151384Y-132124790D01*
X132077967Y-132302037D01*
X130458923Y-132302037D01*
X130385506Y-132124790D01*
X129677926Y-131417210D01*
X129500678Y-131343792D01*
X129323431Y-131417209D01*
X128615850Y-132124790D01*
X128542433Y-132302037D01*
X126923389Y-132302037D01*
X126849972Y-132124790D01*
X126142392Y-131417210D01*
X125965144Y-131343792D01*
X125787897Y-131417209D01*
X125080316Y-132124790D01*
X125006899Y-132302037D01*
X123387855Y-132302037D01*
X123314438Y-132124790D01*
X122606858Y-131417210D01*
X122429610Y-131343792D01*
X122252363Y-131417209D01*
X121544782Y-132124790D01*
X121471365Y-132302037D01*
X119852321Y-132302037D01*
X119778904Y-132124790D01*
X119071324Y-131417210D01*
X118894076Y-131343792D01*
X118716829Y-131417209D01*
X118009248Y-132124790D01*
X117935831Y-132302037D01*
X116500000Y-132302037D01*
X116500000Y-130534270D01*
X119703598Y-130534270D01*
X119777016Y-130711518D01*
X120484596Y-131419098D01*
X120661843Y-131492515D01*
X120839091Y-131419097D01*
X121546670Y-130711518D01*
X121620088Y-130534270D01*
X123239132Y-130534270D01*
X123312550Y-130711518D01*
X124020130Y-131419098D01*
X124197377Y-131492515D01*
X124374625Y-131419097D01*
X125082204Y-130711518D01*
X125155622Y-130534270D01*
X126774666Y-130534270D01*
X126848084Y-130711518D01*
X127555664Y-131419098D01*
X127732911Y-131492515D01*
X127910159Y-131419097D01*
X128617738Y-130711518D01*
X128691156Y-130534270D01*
X130310200Y-130534270D01*
X130383618Y-130711518D01*
X131091198Y-131419098D01*
X131268445Y-131492515D01*
X131445693Y-131419097D01*
X132153272Y-130711518D01*
X132226690Y-130534270D01*
X133845734Y-130534270D01*
X133919152Y-130711518D01*
X134626731Y-131419097D01*
X134803979Y-131492515D01*
X134981226Y-131419098D01*
X135688806Y-130711518D01*
X135762224Y-130534270D01*
X137381268Y-130534270D01*
X137454686Y-130711518D01*
X138162265Y-131419097D01*
X138339513Y-131492515D01*
X138516760Y-131419098D01*
X139224340Y-130711518D01*
X139297758Y-130534270D01*
X144452336Y-130534270D01*
X144525754Y-130711518D01*
X145233333Y-131419097D01*
X145410581Y-131492515D01*
X145587828Y-131419098D01*
X146295408Y-130711518D01*
X146368826Y-130534270D01*
X147987869Y-130534270D01*
X148061288Y-130711518D01*
X148768867Y-131419097D01*
X148946115Y-131492515D01*
X149123362Y-131419097D01*
X149830942Y-130711518D01*
X149904360Y-130534270D01*
X151523403Y-130534270D01*
X151596821Y-130711518D01*
X152304401Y-131419097D01*
X152481649Y-131492515D01*
X152658896Y-131419097D01*
X153366475Y-130711518D01*
X153439894Y-130534270D01*
X155058937Y-130534270D01*
X155132355Y-130711518D01*
X155839935Y-131419097D01*
X156017183Y-131492515D01*
X156194430Y-131419097D01*
X156876000Y-130737528D01*
X156876000Y-130331013D01*
X156194430Y-129649443D01*
X156017183Y-129576025D01*
X155839935Y-129649443D01*
X155132354Y-130357023D01*
X155058937Y-130534270D01*
X153439894Y-130534270D01*
X153366475Y-130357022D01*
X152658896Y-129649443D01*
X152481649Y-129576025D01*
X152304401Y-129649443D01*
X151596820Y-130357023D01*
X151523403Y-130534270D01*
X149904360Y-130534270D01*
X149830943Y-130357023D01*
X149123362Y-129649443D01*
X148946115Y-129576025D01*
X148768867Y-129649443D01*
X148061288Y-130357022D01*
X147987869Y-130534270D01*
X146368826Y-130534270D01*
X146295409Y-130357023D01*
X145587828Y-129649442D01*
X145410581Y-129576025D01*
X145233333Y-129649443D01*
X144525753Y-130357023D01*
X144452336Y-130534270D01*
X139297758Y-130534270D01*
X139224341Y-130357023D01*
X138516760Y-129649442D01*
X138339513Y-129576025D01*
X138162265Y-129649443D01*
X137454685Y-130357023D01*
X137381268Y-130534270D01*
X135762224Y-130534270D01*
X135688807Y-130357023D01*
X134981226Y-129649442D01*
X134803979Y-129576025D01*
X134626731Y-129649443D01*
X133919151Y-130357023D01*
X133845734Y-130534270D01*
X132226690Y-130534270D01*
X132153273Y-130357023D01*
X131445693Y-129649443D01*
X131268445Y-129576025D01*
X131091198Y-129649442D01*
X130383617Y-130357023D01*
X130310200Y-130534270D01*
X128691156Y-130534270D01*
X128617739Y-130357023D01*
X127910159Y-129649443D01*
X127732911Y-129576025D01*
X127555664Y-129649442D01*
X126848083Y-130357023D01*
X126774666Y-130534270D01*
X125155622Y-130534270D01*
X125082205Y-130357023D01*
X124374625Y-129649443D01*
X124197377Y-129576025D01*
X124020130Y-129649442D01*
X123312549Y-130357023D01*
X123239132Y-130534270D01*
X121620088Y-130534270D01*
X121546671Y-130357023D01*
X120839091Y-129649443D01*
X120661843Y-129576025D01*
X120484596Y-129649442D01*
X119777015Y-130357023D01*
X119703598Y-130534270D01*
X116500000Y-130534270D01*
X116500000Y-128766503D01*
X117935831Y-128766503D01*
X118009249Y-128943751D01*
X118716829Y-129651331D01*
X118894076Y-129724748D01*
X119071324Y-129651330D01*
X119778903Y-128943751D01*
X119852321Y-128766503D01*
X121471365Y-128766503D01*
X121544783Y-128943751D01*
X122252363Y-129651331D01*
X122429610Y-129724748D01*
X122606858Y-129651330D01*
X123314437Y-128943751D01*
X123387855Y-128766503D01*
X125006899Y-128766503D01*
X125080317Y-128943751D01*
X125787897Y-129651331D01*
X125965144Y-129724748D01*
X126142392Y-129651330D01*
X126849971Y-128943751D01*
X126923389Y-128766503D01*
X128542433Y-128766503D01*
X128615851Y-128943751D01*
X129323431Y-129651331D01*
X129500678Y-129724748D01*
X129677926Y-129651330D01*
X130385505Y-128943751D01*
X130458923Y-128766503D01*
X132077967Y-128766503D01*
X132151385Y-128943751D01*
X132858964Y-129651330D01*
X133036212Y-129724748D01*
X133213459Y-129651331D01*
X133921039Y-128943751D01*
X133994457Y-128766503D01*
X135613501Y-128766503D01*
X135686919Y-128943751D01*
X136394498Y-129651330D01*
X136571746Y-129724748D01*
X136748993Y-129651331D01*
X137456573Y-128943751D01*
X137529991Y-128766503D01*
X139149035Y-128766503D01*
X139222453Y-128943751D01*
X139930032Y-129651330D01*
X140107280Y-129724748D01*
X140284527Y-129651331D01*
X140992107Y-128943751D01*
X141065525Y-128766503D01*
X142684569Y-128766503D01*
X142757987Y-128943751D01*
X143465566Y-129651330D01*
X143642814Y-129724748D01*
X143820061Y-129651331D01*
X144527641Y-128943751D01*
X144601059Y-128766503D01*
X146220103Y-128766503D01*
X146293521Y-128943751D01*
X147001100Y-129651330D01*
X147178348Y-129724748D01*
X147355595Y-129651330D01*
X148063175Y-128943751D01*
X148136593Y-128766503D01*
X149755636Y-128766503D01*
X149829055Y-128943751D01*
X150536634Y-129651330D01*
X150713882Y-129724748D01*
X150891129Y-129651330D01*
X151598709Y-128943751D01*
X151672127Y-128766503D01*
X153291170Y-128766503D01*
X153364588Y-128943751D01*
X154072168Y-129651330D01*
X154249416Y-129724748D01*
X154426663Y-129651330D01*
X155134242Y-128943751D01*
X155207661Y-128766503D01*
X155134242Y-128589255D01*
X154426663Y-127881676D01*
X154249416Y-127808258D01*
X154072168Y-127881676D01*
X153364587Y-128589256D01*
X153291170Y-128766503D01*
X151672127Y-128766503D01*
X151598710Y-128589256D01*
X150891129Y-127881676D01*
X150713882Y-127808258D01*
X150536634Y-127881676D01*
X149829055Y-128589255D01*
X149755636Y-128766503D01*
X148136593Y-128766503D01*
X148063176Y-128589256D01*
X147355595Y-127881676D01*
X147178348Y-127808258D01*
X147001100Y-127881676D01*
X146293520Y-128589256D01*
X146220103Y-128766503D01*
X144601059Y-128766503D01*
X144527642Y-128589256D01*
X143820061Y-127881675D01*
X143642814Y-127808258D01*
X143465566Y-127881676D01*
X142757986Y-128589256D01*
X142684569Y-128766503D01*
X141065525Y-128766503D01*
X140992108Y-128589256D01*
X140580086Y-128177234D01*
X140501929Y-128312609D01*
X140474248Y-128345598D01*
X140163577Y-128606282D01*
X140126281Y-128627815D01*
X139745186Y-128766522D01*
X139702776Y-128774000D01*
X139297224Y-128774000D01*
X139254814Y-128766522D01*
X139162886Y-128733063D01*
X139149035Y-128766503D01*
X137529991Y-128766503D01*
X137456574Y-128589256D01*
X136748993Y-127881675D01*
X136571746Y-127808258D01*
X136394498Y-127881676D01*
X135686918Y-128589256D01*
X135613501Y-128766503D01*
X133994457Y-128766503D01*
X133921040Y-128589256D01*
X133213459Y-127881675D01*
X133036212Y-127808258D01*
X132858964Y-127881676D01*
X132151384Y-128589256D01*
X132077967Y-128766503D01*
X130458923Y-128766503D01*
X130385506Y-128589256D01*
X129677926Y-127881676D01*
X129500678Y-127808258D01*
X129323431Y-127881675D01*
X128615850Y-128589256D01*
X128542433Y-128766503D01*
X126923389Y-128766503D01*
X126849972Y-128589256D01*
X126142392Y-127881676D01*
X125965144Y-127808258D01*
X125787897Y-127881675D01*
X125080316Y-128589256D01*
X125006899Y-128766503D01*
X123387855Y-128766503D01*
X123314438Y-128589256D01*
X122606858Y-127881676D01*
X122429610Y-127808258D01*
X122252363Y-127881675D01*
X121544782Y-128589256D01*
X121471365Y-128766503D01*
X119852321Y-128766503D01*
X119778904Y-128589256D01*
X119071324Y-127881676D01*
X118894076Y-127808258D01*
X118716829Y-127881675D01*
X118009248Y-128589256D01*
X117935831Y-128766503D01*
X116500000Y-128766503D01*
X116500000Y-126998736D01*
X119703598Y-126998736D01*
X119777016Y-127175984D01*
X120484596Y-127883564D01*
X120661843Y-127956981D01*
X120839091Y-127883563D01*
X121546670Y-127175984D01*
X121620088Y-126998736D01*
X123239132Y-126998736D01*
X123312550Y-127175984D01*
X124020130Y-127883564D01*
X124197377Y-127956981D01*
X124374625Y-127883563D01*
X125082204Y-127175984D01*
X125155622Y-126998736D01*
X126774666Y-126998736D01*
X126848084Y-127175984D01*
X127555664Y-127883564D01*
X127732911Y-127956981D01*
X127910159Y-127883563D01*
X128617738Y-127175984D01*
X128691156Y-126998736D01*
X130310200Y-126998736D01*
X130383618Y-127175984D01*
X131091198Y-127883564D01*
X131268445Y-127956981D01*
X131445693Y-127883563D01*
X132153272Y-127175984D01*
X132226690Y-126998736D01*
X133845734Y-126998736D01*
X133919152Y-127175984D01*
X134626731Y-127883563D01*
X134803979Y-127956981D01*
X134981226Y-127883564D01*
X135688806Y-127175984D01*
X135762224Y-126998736D01*
X137381268Y-126998736D01*
X137454686Y-127175984D01*
X138162265Y-127883563D01*
X138285555Y-127934631D01*
X138280566Y-127920923D01*
X138210143Y-127521532D01*
X138210143Y-127478468D01*
X138280566Y-127079077D01*
X138295295Y-127038609D01*
X138318316Y-126998736D01*
X140916802Y-126998736D01*
X140990220Y-127175984D01*
X141697799Y-127883563D01*
X141875047Y-127956981D01*
X142052294Y-127883564D01*
X142759874Y-127175984D01*
X142833292Y-126998736D01*
X144452336Y-126998736D01*
X144525754Y-127175984D01*
X145233333Y-127883563D01*
X145410581Y-127956981D01*
X145587828Y-127883564D01*
X146295408Y-127175984D01*
X146368826Y-126998736D01*
X147987869Y-126998736D01*
X148061288Y-127175984D01*
X148768867Y-127883563D01*
X148946115Y-127956981D01*
X149123362Y-127883563D01*
X149830942Y-127175984D01*
X149904360Y-126998736D01*
X151523403Y-126998736D01*
X151596821Y-127175984D01*
X152304401Y-127883563D01*
X152481649Y-127956981D01*
X152658896Y-127883563D01*
X153366475Y-127175984D01*
X153439894Y-126998736D01*
X155058937Y-126998736D01*
X155132355Y-127175984D01*
X155839935Y-127883563D01*
X156017183Y-127956981D01*
X156194430Y-127883563D01*
X156876000Y-127201994D01*
X156876000Y-126795479D01*
X156194430Y-126113909D01*
X156017183Y-126040491D01*
X155839935Y-126113909D01*
X155132354Y-126821489D01*
X155058937Y-126998736D01*
X153439894Y-126998736D01*
X153366475Y-126821488D01*
X152658896Y-126113909D01*
X152481649Y-126040491D01*
X152304401Y-126113909D01*
X151596820Y-126821489D01*
X151523403Y-126998736D01*
X149904360Y-126998736D01*
X149830943Y-126821489D01*
X149123362Y-126113909D01*
X148946115Y-126040491D01*
X148768867Y-126113909D01*
X148061288Y-126821488D01*
X147987869Y-126998736D01*
X146368826Y-126998736D01*
X146295409Y-126821489D01*
X145587828Y-126113908D01*
X145410581Y-126040491D01*
X145233333Y-126113909D01*
X144525753Y-126821489D01*
X144452336Y-126998736D01*
X142833292Y-126998736D01*
X142759875Y-126821489D01*
X142052294Y-126113908D01*
X141875047Y-126040491D01*
X141697799Y-126113909D01*
X140990219Y-126821489D01*
X140916802Y-126998736D01*
X138318316Y-126998736D01*
X138498071Y-126687391D01*
X138525752Y-126654401D01*
X138814753Y-126411901D01*
X138516760Y-126113908D01*
X138339513Y-126040491D01*
X138162265Y-126113909D01*
X137454685Y-126821489D01*
X137381268Y-126998736D01*
X135762224Y-126998736D01*
X135688807Y-126821489D01*
X134981226Y-126113908D01*
X134803979Y-126040491D01*
X134626731Y-126113909D01*
X133919151Y-126821489D01*
X133845734Y-126998736D01*
X132226690Y-126998736D01*
X132153273Y-126821489D01*
X131445693Y-126113909D01*
X131268445Y-126040491D01*
X131091198Y-126113908D01*
X130383617Y-126821489D01*
X130310200Y-126998736D01*
X128691156Y-126998736D01*
X128617739Y-126821489D01*
X127910159Y-126113909D01*
X127732911Y-126040491D01*
X127555664Y-126113908D01*
X126848083Y-126821489D01*
X126774666Y-126998736D01*
X125155622Y-126998736D01*
X125082205Y-126821489D01*
X124451973Y-126191257D01*
X124245187Y-126266522D01*
X124202776Y-126274000D01*
X123860039Y-126274000D01*
X123312549Y-126821489D01*
X123239132Y-126998736D01*
X121620088Y-126998736D01*
X121546671Y-126821489D01*
X120839091Y-126113909D01*
X120661843Y-126040491D01*
X120484596Y-126113908D01*
X119777015Y-126821489D01*
X119703598Y-126998736D01*
X116500000Y-126998736D01*
X116500000Y-125230969D01*
X117935831Y-125230969D01*
X118009249Y-125408217D01*
X118716829Y-126115797D01*
X118894076Y-126189214D01*
X119071324Y-126115796D01*
X119778903Y-125408217D01*
X119852321Y-125230969D01*
X121471365Y-125230969D01*
X121544783Y-125408217D01*
X122252363Y-126115797D01*
X122429610Y-126189214D01*
X122606858Y-126115796D01*
X122965851Y-125756802D01*
X122821361Y-125506538D01*
X125178638Y-125506538D01*
X125787897Y-126115797D01*
X125965144Y-126189214D01*
X126142392Y-126115796D01*
X126849971Y-125408217D01*
X126923389Y-125230969D01*
X128542433Y-125230969D01*
X128615851Y-125408217D01*
X129323431Y-126115797D01*
X129500678Y-126189214D01*
X129677926Y-126115796D01*
X130385505Y-125408217D01*
X130458923Y-125230969D01*
X132077967Y-125230969D01*
X132151385Y-125408217D01*
X132858964Y-126115796D01*
X133036212Y-126189214D01*
X133213459Y-126115797D01*
X133921039Y-125408217D01*
X133994457Y-125230969D01*
X135613501Y-125230969D01*
X135686919Y-125408217D01*
X136394498Y-126115796D01*
X136571746Y-126189214D01*
X136748993Y-126115797D01*
X137456573Y-125408217D01*
X137529991Y-125230969D01*
X139149035Y-125230969D01*
X139222453Y-125408217D01*
X139930032Y-126115796D01*
X140107280Y-126189214D01*
X140284527Y-126115797D01*
X140992107Y-125408217D01*
X141065525Y-125230969D01*
X142684569Y-125230969D01*
X142757987Y-125408217D01*
X143465566Y-126115796D01*
X143642814Y-126189214D01*
X143820061Y-126115797D01*
X144527641Y-125408217D01*
X144601059Y-125230969D01*
X146220103Y-125230969D01*
X146293521Y-125408217D01*
X147001100Y-126115796D01*
X147178348Y-126189214D01*
X147355595Y-126115796D01*
X148063175Y-125408217D01*
X148136593Y-125230969D01*
X149755636Y-125230969D01*
X149829055Y-125408217D01*
X150536634Y-126115796D01*
X150713882Y-126189214D01*
X150891129Y-126115796D01*
X151598709Y-125408217D01*
X151672127Y-125230969D01*
X153291170Y-125230969D01*
X153364588Y-125408217D01*
X154072168Y-126115796D01*
X154249416Y-126189214D01*
X154426663Y-126115796D01*
X155134242Y-125408217D01*
X155207661Y-125230969D01*
X155134242Y-125053721D01*
X154426663Y-124346142D01*
X154249416Y-124272724D01*
X154072168Y-124346142D01*
X153364587Y-125053722D01*
X153291170Y-125230969D01*
X151672127Y-125230969D01*
X151598710Y-125053722D01*
X150891129Y-124346142D01*
X150713882Y-124272724D01*
X150536634Y-124346142D01*
X149829055Y-125053721D01*
X149755636Y-125230969D01*
X148136593Y-125230969D01*
X148063176Y-125053722D01*
X147355595Y-124346142D01*
X147178348Y-124272724D01*
X147001100Y-124346142D01*
X146293520Y-125053722D01*
X146220103Y-125230969D01*
X144601059Y-125230969D01*
X144527642Y-125053722D01*
X143820061Y-124346141D01*
X143642814Y-124272724D01*
X143465566Y-124346142D01*
X142757986Y-125053722D01*
X142684569Y-125230969D01*
X141065525Y-125230969D01*
X140992108Y-125053722D01*
X140284527Y-124346141D01*
X140107280Y-124272724D01*
X139930032Y-124346142D01*
X139222452Y-125053722D01*
X139149035Y-125230969D01*
X137529991Y-125230969D01*
X137456574Y-125053722D01*
X136748993Y-124346141D01*
X136571746Y-124272724D01*
X136394498Y-124346142D01*
X135686918Y-125053722D01*
X135613501Y-125230969D01*
X133994457Y-125230969D01*
X133921040Y-125053722D01*
X133213459Y-124346141D01*
X133036212Y-124272724D01*
X132858964Y-124346142D01*
X132151384Y-125053722D01*
X132077967Y-125230969D01*
X130458923Y-125230969D01*
X130385506Y-125053722D01*
X129677926Y-124346142D01*
X129500678Y-124272724D01*
X129323431Y-124346141D01*
X128615850Y-125053722D01*
X128542433Y-125230969D01*
X126923389Y-125230969D01*
X126849972Y-125053722D01*
X126142392Y-124346142D01*
X125965144Y-124272724D01*
X125787896Y-124346141D01*
X125269727Y-124864310D01*
X125289857Y-124978468D01*
X125289857Y-125021532D01*
X125219434Y-125420923D01*
X125204705Y-125461392D01*
X125178638Y-125506538D01*
X122821361Y-125506538D01*
X122795295Y-125461391D01*
X122780566Y-125420923D01*
X122710143Y-125021532D01*
X122710143Y-124978468D01*
X122780566Y-124579077D01*
X122795295Y-124538609D01*
X122796770Y-124536054D01*
X122606858Y-124346142D01*
X122429610Y-124272724D01*
X122252363Y-124346141D01*
X121544782Y-125053722D01*
X121471365Y-125230969D01*
X119852321Y-125230969D01*
X119778904Y-125053722D01*
X119071324Y-124346142D01*
X118894076Y-124272724D01*
X118716829Y-124346141D01*
X118009248Y-125053722D01*
X117935831Y-125230969D01*
X116500000Y-125230969D01*
X116500000Y-123463203D01*
X119703598Y-123463203D01*
X119777016Y-123640450D01*
X120484596Y-124348030D01*
X120661843Y-124421447D01*
X120839091Y-124348029D01*
X121546670Y-123640450D01*
X121620088Y-123463203D01*
X123239132Y-123463203D01*
X123312550Y-123640450D01*
X123498769Y-123826669D01*
X123754814Y-123733478D01*
X123797224Y-123726000D01*
X124202776Y-123726000D01*
X124245186Y-123733478D01*
X124626281Y-123872185D01*
X124663577Y-123893718D01*
X124753490Y-123969164D01*
X125082204Y-123640450D01*
X125155622Y-123463203D01*
X126774666Y-123463203D01*
X126848084Y-123640450D01*
X127555664Y-124348030D01*
X127732911Y-124421447D01*
X127910159Y-124348029D01*
X128617738Y-123640450D01*
X128691156Y-123463203D01*
X130310200Y-123463203D01*
X130383618Y-123640450D01*
X131091198Y-124348030D01*
X131268445Y-124421447D01*
X131445693Y-124348029D01*
X132153272Y-123640450D01*
X132226690Y-123463203D01*
X133845734Y-123463203D01*
X133919152Y-123640450D01*
X134626731Y-124348029D01*
X134803979Y-124421447D01*
X134981226Y-124348030D01*
X135688806Y-123640450D01*
X135762224Y-123463203D01*
X137381268Y-123463203D01*
X137454686Y-123640450D01*
X138162265Y-124348029D01*
X138339513Y-124421447D01*
X138516760Y-124348030D01*
X139224340Y-123640450D01*
X139297758Y-123463203D01*
X140916802Y-123463203D01*
X140990220Y-123640450D01*
X141697799Y-124348029D01*
X141875047Y-124421447D01*
X142052294Y-124348030D01*
X142759874Y-123640450D01*
X142833292Y-123463203D01*
X144452336Y-123463203D01*
X144525754Y-123640450D01*
X145233333Y-124348029D01*
X145410581Y-124421447D01*
X145587828Y-124348030D01*
X146295408Y-123640450D01*
X146368826Y-123463203D01*
X147987869Y-123463203D01*
X148061288Y-123640450D01*
X148768867Y-124348029D01*
X148946115Y-124421447D01*
X149123362Y-124348029D01*
X149830942Y-123640450D01*
X149904360Y-123463203D01*
X151523403Y-123463203D01*
X151596821Y-123640450D01*
X152304401Y-124348029D01*
X152481649Y-124421447D01*
X152658896Y-124348029D01*
X153366475Y-123640450D01*
X153439894Y-123463203D01*
X155058937Y-123463203D01*
X155132355Y-123640450D01*
X155839935Y-124348029D01*
X156017183Y-124421447D01*
X156194430Y-124348029D01*
X156876000Y-123666460D01*
X156876000Y-123259945D01*
X156194430Y-122578375D01*
X156017183Y-122504957D01*
X155839935Y-122578375D01*
X155132355Y-123285955D01*
X155058937Y-123463203D01*
X153439894Y-123463203D01*
X153366475Y-123285955D01*
X152658896Y-122578375D01*
X152481649Y-122504957D01*
X152304401Y-122578375D01*
X151596821Y-123285955D01*
X151523403Y-123463203D01*
X149904360Y-123463203D01*
X149830942Y-123285955D01*
X149123362Y-122578375D01*
X148946115Y-122504957D01*
X148768867Y-122578375D01*
X148061288Y-123285955D01*
X147987869Y-123463203D01*
X146368826Y-123463203D01*
X146295408Y-123285955D01*
X145587828Y-122578374D01*
X145410581Y-122504957D01*
X145233333Y-122578375D01*
X144525754Y-123285955D01*
X144452336Y-123463203D01*
X142833292Y-123463203D01*
X142759874Y-123285955D01*
X142052294Y-122578374D01*
X141875047Y-122504957D01*
X141697799Y-122578375D01*
X140990220Y-123285955D01*
X140916802Y-123463203D01*
X139297758Y-123463203D01*
X139224340Y-123285955D01*
X138516760Y-122578374D01*
X138339513Y-122504957D01*
X138162265Y-122578375D01*
X137454686Y-123285955D01*
X137381268Y-123463203D01*
X135762224Y-123463203D01*
X135688806Y-123285955D01*
X134981226Y-122578374D01*
X134803979Y-122504957D01*
X134626731Y-122578375D01*
X133919152Y-123285955D01*
X133845734Y-123463203D01*
X132226690Y-123463203D01*
X132153272Y-123285955D01*
X131445693Y-122578375D01*
X131268445Y-122504957D01*
X131091198Y-122578374D01*
X130383618Y-123285955D01*
X130310200Y-123463203D01*
X128691156Y-123463203D01*
X128617738Y-123285955D01*
X127910159Y-122578375D01*
X127732911Y-122504957D01*
X127555664Y-122578374D01*
X126848084Y-123285955D01*
X126774666Y-123463203D01*
X125155622Y-123463203D01*
X125082204Y-123285955D01*
X124374625Y-122578375D01*
X124197377Y-122504957D01*
X124020130Y-122578374D01*
X123312550Y-123285955D01*
X123239132Y-123463203D01*
X121620088Y-123463203D01*
X121546670Y-123285955D01*
X120839091Y-122578375D01*
X120661843Y-122504957D01*
X120484596Y-122578374D01*
X119777016Y-123285955D01*
X119703598Y-123463203D01*
X116500000Y-123463203D01*
X116500000Y-121695436D01*
X117935831Y-121695436D01*
X118009249Y-121872683D01*
X118716828Y-122580262D01*
X118894076Y-122653681D01*
X119071324Y-122580262D01*
X119778903Y-121872683D01*
X119852321Y-121695436D01*
X121471365Y-121695436D01*
X121544783Y-121872683D01*
X122252362Y-122580262D01*
X122429610Y-122653681D01*
X122606858Y-122580262D01*
X123314437Y-121872683D01*
X123387855Y-121695436D01*
X125006899Y-121695436D01*
X125080317Y-121872683D01*
X125787896Y-122580262D01*
X125965144Y-122653681D01*
X126142392Y-122580262D01*
X126849971Y-121872683D01*
X126923389Y-121695436D01*
X128542433Y-121695436D01*
X128615851Y-121872683D01*
X129323430Y-122580262D01*
X129500678Y-122653681D01*
X129677926Y-122580262D01*
X130385505Y-121872683D01*
X130458923Y-121695436D01*
X132077967Y-121695436D01*
X132151385Y-121872683D01*
X132858964Y-122580262D01*
X133036212Y-122653681D01*
X133213460Y-122580262D01*
X133921039Y-121872683D01*
X133994457Y-121695436D01*
X135613501Y-121695436D01*
X135686919Y-121872683D01*
X136394498Y-122580262D01*
X136571746Y-122653681D01*
X136748994Y-122580262D01*
X137456573Y-121872683D01*
X137529991Y-121695436D01*
X139149035Y-121695436D01*
X139222453Y-121872683D01*
X139930032Y-122580262D01*
X140107280Y-122653681D01*
X140284528Y-122580262D01*
X140992107Y-121872683D01*
X141065525Y-121695436D01*
X142684569Y-121695436D01*
X142757987Y-121872683D01*
X143465566Y-122580262D01*
X143642814Y-122653681D01*
X143820062Y-122580262D01*
X144527641Y-121872683D01*
X144601059Y-121695436D01*
X146220103Y-121695436D01*
X146293521Y-121872683D01*
X147001100Y-122580262D01*
X147178348Y-122653681D01*
X147355595Y-122580262D01*
X148063175Y-121872683D01*
X148136593Y-121695436D01*
X149755636Y-121695436D01*
X149829055Y-121872683D01*
X150536634Y-122580262D01*
X150713882Y-122653681D01*
X150891129Y-122580262D01*
X151598709Y-121872683D01*
X151672127Y-121695436D01*
X153291170Y-121695436D01*
X153364588Y-121872683D01*
X154072168Y-122580262D01*
X154249416Y-122653681D01*
X154426663Y-122580262D01*
X155134242Y-121872683D01*
X155207661Y-121695436D01*
X155134242Y-121518188D01*
X154426663Y-120810608D01*
X154249416Y-120737190D01*
X154072168Y-120810608D01*
X153364588Y-121518188D01*
X153291170Y-121695436D01*
X151672127Y-121695436D01*
X151598709Y-121518188D01*
X150891129Y-120810608D01*
X150713882Y-120737190D01*
X150536634Y-120810608D01*
X149829055Y-121518188D01*
X149755636Y-121695436D01*
X148136593Y-121695436D01*
X148063175Y-121518188D01*
X147355595Y-120810608D01*
X147178348Y-120737190D01*
X147001100Y-120810608D01*
X146293521Y-121518188D01*
X146220103Y-121695436D01*
X144601059Y-121695436D01*
X144527641Y-121518188D01*
X143820061Y-120810607D01*
X143642814Y-120737190D01*
X143465566Y-120810608D01*
X142757987Y-121518188D01*
X142684569Y-121695436D01*
X141065525Y-121695436D01*
X140992107Y-121518188D01*
X140284527Y-120810607D01*
X140107280Y-120737190D01*
X139930032Y-120810608D01*
X139222453Y-121518188D01*
X139149035Y-121695436D01*
X137529991Y-121695436D01*
X137456573Y-121518188D01*
X136748993Y-120810607D01*
X136571746Y-120737190D01*
X136394498Y-120810608D01*
X135686919Y-121518188D01*
X135613501Y-121695436D01*
X133994457Y-121695436D01*
X133921039Y-121518188D01*
X133213459Y-120810607D01*
X133036212Y-120737190D01*
X132858964Y-120810608D01*
X132151385Y-121518188D01*
X132077967Y-121695436D01*
X130458923Y-121695436D01*
X130385505Y-121518188D01*
X129677926Y-120810608D01*
X129500678Y-120737190D01*
X129323431Y-120810607D01*
X128615851Y-121518188D01*
X128542433Y-121695436D01*
X126923389Y-121695436D01*
X126849971Y-121518188D01*
X126142392Y-120810608D01*
X125965144Y-120737190D01*
X125787897Y-120810607D01*
X125080317Y-121518188D01*
X125006899Y-121695436D01*
X123387855Y-121695436D01*
X123314437Y-121518188D01*
X122606858Y-120810608D01*
X122429610Y-120737190D01*
X122252363Y-120810607D01*
X121544783Y-121518188D01*
X121471365Y-121695436D01*
X119852321Y-121695436D01*
X119778903Y-121518188D01*
X119071324Y-120810608D01*
X118894076Y-120737190D01*
X118716829Y-120810607D01*
X118009249Y-121518188D01*
X117935831Y-121695436D01*
X116500000Y-121695436D01*
X116500000Y-119927669D01*
X119703598Y-119927669D01*
X119777016Y-120104916D01*
X120484595Y-120812495D01*
X120661843Y-120885914D01*
X120839091Y-120812495D01*
X121546670Y-120104916D01*
X121620088Y-119927669D01*
X123239132Y-119927669D01*
X123312550Y-120104916D01*
X124020129Y-120812495D01*
X124197377Y-120885914D01*
X124374625Y-120812495D01*
X125082204Y-120104916D01*
X125155622Y-119927669D01*
X126774666Y-119927669D01*
X126848084Y-120104916D01*
X127555663Y-120812495D01*
X127732911Y-120885914D01*
X127910159Y-120812495D01*
X128617738Y-120104916D01*
X128691156Y-119927669D01*
X130310200Y-119927669D01*
X130383618Y-120104916D01*
X131091197Y-120812495D01*
X131268445Y-120885914D01*
X131445693Y-120812495D01*
X132153272Y-120104916D01*
X132226690Y-119927669D01*
X133845734Y-119927669D01*
X133919152Y-120104916D01*
X134626731Y-120812495D01*
X134803979Y-120885914D01*
X134981227Y-120812495D01*
X135688806Y-120104916D01*
X135762224Y-119927669D01*
X137381268Y-119927669D01*
X137454686Y-120104916D01*
X138162265Y-120812495D01*
X138339513Y-120885914D01*
X138516761Y-120812495D01*
X139224340Y-120104916D01*
X139297758Y-119927669D01*
X140916802Y-119927669D01*
X140990220Y-120104916D01*
X141697799Y-120812495D01*
X141875047Y-120885914D01*
X142052295Y-120812495D01*
X142759874Y-120104916D01*
X142833292Y-119927669D01*
X144452336Y-119927669D01*
X144525754Y-120104916D01*
X145233333Y-120812495D01*
X145410581Y-120885914D01*
X145587829Y-120812495D01*
X146295408Y-120104916D01*
X146368826Y-119927669D01*
X147987869Y-119927669D01*
X148061288Y-120104916D01*
X148768867Y-120812495D01*
X148946115Y-120885914D01*
X149123362Y-120812495D01*
X149830942Y-120104916D01*
X149904360Y-119927669D01*
X151523403Y-119927669D01*
X151596821Y-120104916D01*
X152304401Y-120812495D01*
X152481649Y-120885914D01*
X152658896Y-120812495D01*
X153366475Y-120104916D01*
X153439894Y-119927669D01*
X155058937Y-119927669D01*
X155132355Y-120104916D01*
X155839935Y-120812495D01*
X156017183Y-120885914D01*
X156194430Y-120812495D01*
X156876000Y-120130926D01*
X156876000Y-119724412D01*
X156194430Y-119042842D01*
X156017183Y-118969423D01*
X155839935Y-119042842D01*
X155132355Y-119750421D01*
X155058937Y-119927669D01*
X153439894Y-119927669D01*
X153366475Y-119750421D01*
X152658896Y-119042842D01*
X152481649Y-118969423D01*
X152304401Y-119042842D01*
X151596821Y-119750421D01*
X151523403Y-119927669D01*
X149904360Y-119927669D01*
X149830942Y-119750421D01*
X149123362Y-119042842D01*
X148946115Y-118969423D01*
X148768867Y-119042842D01*
X148061288Y-119750421D01*
X147987869Y-119927669D01*
X146368826Y-119927669D01*
X146295408Y-119750421D01*
X145587829Y-119042842D01*
X145410581Y-118969423D01*
X145233333Y-119042842D01*
X144525754Y-119750421D01*
X144452336Y-119927669D01*
X142833292Y-119927669D01*
X142759874Y-119750421D01*
X142052295Y-119042842D01*
X141875047Y-118969423D01*
X141697799Y-119042842D01*
X140990220Y-119750421D01*
X140916802Y-119927669D01*
X139297758Y-119927669D01*
X139224340Y-119750421D01*
X138516761Y-119042842D01*
X138339513Y-118969423D01*
X138162265Y-119042842D01*
X137454686Y-119750421D01*
X137381268Y-119927669D01*
X135762224Y-119927669D01*
X135688806Y-119750421D01*
X134981227Y-119042842D01*
X134803979Y-118969423D01*
X134626731Y-119042842D01*
X133919152Y-119750421D01*
X133845734Y-119927669D01*
X132226690Y-119927669D01*
X132153272Y-119750421D01*
X131445693Y-119042842D01*
X131268445Y-118969423D01*
X131091197Y-119042842D01*
X130383618Y-119750421D01*
X130310200Y-119927669D01*
X128691156Y-119927669D01*
X128617738Y-119750421D01*
X127910159Y-119042842D01*
X127732911Y-118969423D01*
X127555663Y-119042842D01*
X126848084Y-119750421D01*
X126774666Y-119927669D01*
X125155622Y-119927669D01*
X125082204Y-119750421D01*
X124374625Y-119042842D01*
X124197377Y-118969423D01*
X124020129Y-119042842D01*
X123312550Y-119750421D01*
X123239132Y-119927669D01*
X121620088Y-119927669D01*
X121546670Y-119750421D01*
X120839091Y-119042842D01*
X120661843Y-118969423D01*
X120484595Y-119042842D01*
X119777016Y-119750421D01*
X119703598Y-119927669D01*
X116500000Y-119927669D01*
X116500000Y-118159902D01*
X117935831Y-118159902D01*
X118009249Y-118337149D01*
X118716829Y-119044730D01*
X118894076Y-119118147D01*
X119071324Y-119044729D01*
X119778903Y-118337149D01*
X119852321Y-118159902D01*
X121471365Y-118159902D01*
X121544783Y-118337149D01*
X122252363Y-119044730D01*
X122429610Y-119118147D01*
X122606858Y-119044729D01*
X123314437Y-118337149D01*
X123387855Y-118159902D01*
X125006899Y-118159902D01*
X125080317Y-118337149D01*
X125787897Y-119044730D01*
X125965144Y-119118147D01*
X126142392Y-119044729D01*
X126849971Y-118337149D01*
X126923389Y-118159902D01*
X128542433Y-118159902D01*
X128615851Y-118337149D01*
X129323431Y-119044730D01*
X129500678Y-119118147D01*
X129677926Y-119044729D01*
X130385505Y-118337149D01*
X130458923Y-118159902D01*
X132077967Y-118159902D01*
X132151385Y-118337149D01*
X132858964Y-119044729D01*
X133036212Y-119118147D01*
X133213459Y-119044730D01*
X133921039Y-118337149D01*
X133994457Y-118159902D01*
X135613501Y-118159902D01*
X135686919Y-118337149D01*
X136394498Y-119044729D01*
X136571746Y-119118147D01*
X136748993Y-119044730D01*
X137456573Y-118337149D01*
X137529991Y-118159902D01*
X139149035Y-118159902D01*
X139222453Y-118337149D01*
X139930032Y-119044729D01*
X140107280Y-119118147D01*
X140284527Y-119044730D01*
X140745777Y-118583480D01*
X140702107Y-118574793D01*
X140694207Y-118572951D01*
X140478350Y-118515113D01*
X140470584Y-118512757D01*
X140462536Y-118510025D01*
X153537464Y-118510025D01*
X154072168Y-119044729D01*
X154249416Y-119118147D01*
X154426663Y-119044729D01*
X155134242Y-118337149D01*
X155207661Y-118159902D01*
X155134242Y-117982654D01*
X154548528Y-117396940D01*
X154515114Y-117521648D01*
X154512758Y-117529414D01*
X154496975Y-117575909D01*
X154494118Y-117583500D01*
X154469108Y-117643883D01*
X154465758Y-117651277D01*
X154444038Y-117695321D01*
X154440214Y-117702476D01*
X154328474Y-117896018D01*
X154324188Y-117902910D01*
X154296900Y-117943749D01*
X154292171Y-117950348D01*
X154252380Y-118002201D01*
X154247234Y-118008471D01*
X154214863Y-118045382D01*
X154209317Y-118051303D01*
X154051303Y-118209317D01*
X154045382Y-118214863D01*
X154008471Y-118247234D01*
X154002201Y-118252380D01*
X153950348Y-118292171D01*
X153943749Y-118296900D01*
X153902910Y-118324188D01*
X153896018Y-118328474D01*
X153702476Y-118440214D01*
X153695321Y-118444038D01*
X153651277Y-118465758D01*
X153643883Y-118469108D01*
X153583500Y-118494118D01*
X153575909Y-118496975D01*
X153537464Y-118510025D01*
X140462536Y-118510025D01*
X140424086Y-118496973D01*
X140416494Y-118494116D01*
X140356105Y-118469103D01*
X140348711Y-118465753D01*
X140304664Y-118444031D01*
X140297507Y-118440205D01*
X140219109Y-118394939D01*
X140219104Y-118394938D01*
X140103985Y-118328475D01*
X140097093Y-118324189D01*
X140056252Y-118296900D01*
X140049654Y-118292172D01*
X139997800Y-118252381D01*
X139991529Y-118247234D01*
X139954619Y-118214864D01*
X139948698Y-118209319D01*
X139797437Y-118058059D01*
X139797369Y-118057988D01*
X139472244Y-117732863D01*
X139222453Y-117982654D01*
X139149035Y-118159902D01*
X137529991Y-118159902D01*
X137456573Y-117982654D01*
X136748994Y-117275075D01*
X136571746Y-117201656D01*
X136394498Y-117275075D01*
X135686919Y-117982654D01*
X135613501Y-118159902D01*
X133994457Y-118159902D01*
X133921039Y-117982654D01*
X133213460Y-117275075D01*
X133036212Y-117201656D01*
X132858964Y-117275075D01*
X132151385Y-117982654D01*
X132077967Y-118159902D01*
X130458923Y-118159902D01*
X130385505Y-117982654D01*
X129677926Y-117275075D01*
X129500678Y-117201656D01*
X129323430Y-117275075D01*
X128615851Y-117982654D01*
X128542433Y-118159902D01*
X126923389Y-118159902D01*
X126849971Y-117982654D01*
X126142392Y-117275075D01*
X125965144Y-117201656D01*
X125787896Y-117275075D01*
X125080317Y-117982654D01*
X125006899Y-118159902D01*
X123387855Y-118159902D01*
X123314437Y-117982654D01*
X122606858Y-117275075D01*
X122429610Y-117201656D01*
X122252362Y-117275075D01*
X121544783Y-117982654D01*
X121471365Y-118159902D01*
X119852321Y-118159902D01*
X119778903Y-117982654D01*
X119071324Y-117275075D01*
X118894076Y-117201656D01*
X118716828Y-117275075D01*
X118009249Y-117982654D01*
X117935831Y-118159902D01*
X116500000Y-118159902D01*
X116500000Y-116392135D01*
X119703598Y-116392135D01*
X119777016Y-116569382D01*
X120484596Y-117276963D01*
X120661843Y-117350380D01*
X120839091Y-117276962D01*
X121546670Y-116569382D01*
X121620088Y-116392135D01*
X123239132Y-116392135D01*
X123312550Y-116569382D01*
X124020130Y-117276963D01*
X124197377Y-117350380D01*
X124374625Y-117276962D01*
X125082204Y-116569382D01*
X125155622Y-116392135D01*
X126774666Y-116392135D01*
X126848084Y-116569382D01*
X127555664Y-117276963D01*
X127732911Y-117350380D01*
X127910159Y-117276962D01*
X128617738Y-116569382D01*
X128691156Y-116392135D01*
X130310200Y-116392135D01*
X130383618Y-116569382D01*
X131091198Y-117276963D01*
X131268445Y-117350380D01*
X131445693Y-117276962D01*
X132153272Y-116569382D01*
X132226690Y-116392135D01*
X133845734Y-116392135D01*
X133919152Y-116569382D01*
X134626731Y-117276962D01*
X134803979Y-117350380D01*
X134981226Y-117276963D01*
X135688806Y-116569382D01*
X135762224Y-116392135D01*
X137381268Y-116392135D01*
X137454686Y-116569382D01*
X138162265Y-117276962D01*
X138339513Y-117350380D01*
X138516760Y-117276963D01*
X138766552Y-117027171D01*
X137958882Y-116219501D01*
X137958851Y-116219473D01*
X137790682Y-116051303D01*
X137785137Y-116045382D01*
X137752766Y-116008471D01*
X137747620Y-116002201D01*
X137712777Y-115956796D01*
X137454686Y-116214887D01*
X137381268Y-116392135D01*
X135762224Y-116392135D01*
X135688806Y-116214887D01*
X134981227Y-115507308D01*
X134803979Y-115433889D01*
X134626731Y-115507308D01*
X133919152Y-116214887D01*
X133845734Y-116392135D01*
X132226690Y-116392135D01*
X132153272Y-116214887D01*
X131445693Y-115507308D01*
X131268445Y-115433889D01*
X131091197Y-115507308D01*
X130383618Y-116214887D01*
X130310200Y-116392135D01*
X128691156Y-116392135D01*
X128617738Y-116214887D01*
X127910159Y-115507308D01*
X127732911Y-115433889D01*
X127555663Y-115507308D01*
X126848084Y-116214887D01*
X126774666Y-116392135D01*
X125155622Y-116392135D01*
X125082204Y-116214887D01*
X124374625Y-115507308D01*
X124197377Y-115433889D01*
X124020129Y-115507308D01*
X123312550Y-116214887D01*
X123239132Y-116392135D01*
X121620088Y-116392135D01*
X121546670Y-116214887D01*
X120839091Y-115507308D01*
X120661843Y-115433889D01*
X120484595Y-115507308D01*
X119777016Y-116214887D01*
X119703598Y-116392135D01*
X116500000Y-116392135D01*
X116500000Y-114624368D01*
X117935831Y-114624368D01*
X118009248Y-114801615D01*
X118716829Y-115509196D01*
X118894076Y-115582613D01*
X119071324Y-115509195D01*
X119778904Y-114801615D01*
X119852321Y-114624368D01*
X121471365Y-114624368D01*
X121544782Y-114801615D01*
X122252363Y-115509196D01*
X122429610Y-115582613D01*
X122606858Y-115509195D01*
X123314438Y-114801615D01*
X123387855Y-114624368D01*
X125006899Y-114624368D01*
X125080316Y-114801615D01*
X125787897Y-115509196D01*
X125965144Y-115582613D01*
X126142392Y-115509195D01*
X126849972Y-114801615D01*
X126923389Y-114624368D01*
X128542433Y-114624368D01*
X128615850Y-114801615D01*
X129323431Y-115509196D01*
X129500678Y-115582613D01*
X129677926Y-115509195D01*
X130385506Y-114801615D01*
X130458923Y-114624368D01*
X132077967Y-114624368D01*
X132151384Y-114801615D01*
X132858964Y-115509195D01*
X133036212Y-115582613D01*
X133213459Y-115509196D01*
X133921040Y-114801615D01*
X133994457Y-114624368D01*
X135613501Y-114624368D01*
X135686918Y-114801615D01*
X136394498Y-115509195D01*
X136571746Y-115582613D01*
X136748993Y-115509196D01*
X137401500Y-114856690D01*
X137401500Y-114392047D01*
X136748993Y-113739540D01*
X136571746Y-113666123D01*
X136394498Y-113739541D01*
X135686919Y-114447120D01*
X135613501Y-114624368D01*
X133994457Y-114624368D01*
X133921039Y-114447120D01*
X133213459Y-113739540D01*
X133036212Y-113666123D01*
X132858964Y-113739541D01*
X132151385Y-114447120D01*
X132077967Y-114624368D01*
X130458923Y-114624368D01*
X130385505Y-114447120D01*
X129677926Y-113739541D01*
X129500678Y-113666123D01*
X129323431Y-113739540D01*
X128615851Y-114447120D01*
X128542433Y-114624368D01*
X126923389Y-114624368D01*
X126849971Y-114447120D01*
X126142392Y-113739541D01*
X125965144Y-113666123D01*
X125787897Y-113739540D01*
X125080317Y-114447120D01*
X125006899Y-114624368D01*
X123387855Y-114624368D01*
X123314437Y-114447120D01*
X122606858Y-113739541D01*
X122429610Y-113666123D01*
X122252363Y-113739540D01*
X121544783Y-114447120D01*
X121471365Y-114624368D01*
X119852321Y-114624368D01*
X119778903Y-114447120D01*
X119071324Y-113739541D01*
X118894076Y-113666123D01*
X118716829Y-113739540D01*
X118009249Y-114447120D01*
X117935831Y-114624368D01*
X116500000Y-114624368D01*
X116500000Y-112856601D01*
X119703598Y-112856601D01*
X119777015Y-113033848D01*
X120484596Y-113741429D01*
X120661843Y-113814846D01*
X120839091Y-113741428D01*
X121546671Y-113033848D01*
X121620088Y-112856601D01*
X123239132Y-112856601D01*
X123312549Y-113033848D01*
X124020130Y-113741429D01*
X124197377Y-113814846D01*
X124374625Y-113741428D01*
X125082205Y-113033848D01*
X125155622Y-112856601D01*
X126774666Y-112856601D01*
X126848083Y-113033848D01*
X127555664Y-113741429D01*
X127732911Y-113814846D01*
X127910159Y-113741428D01*
X128617739Y-113033848D01*
X128691156Y-112856601D01*
X130310200Y-112856601D01*
X130383617Y-113033848D01*
X131091198Y-113741429D01*
X131268445Y-113814846D01*
X131445693Y-113741428D01*
X132153273Y-113033848D01*
X132226690Y-112856601D01*
X133845734Y-112856601D01*
X133919151Y-113033848D01*
X134626731Y-113741428D01*
X134803979Y-113814846D01*
X134981226Y-113741429D01*
X135688807Y-113033848D01*
X135762224Y-112856601D01*
X135688806Y-112679353D01*
X134981226Y-111971773D01*
X134803979Y-111898356D01*
X134626731Y-111971774D01*
X133919152Y-112679353D01*
X133845734Y-112856601D01*
X132226690Y-112856601D01*
X132153272Y-112679353D01*
X131445693Y-111971774D01*
X131268445Y-111898356D01*
X131091198Y-111971773D01*
X130383618Y-112679353D01*
X130310200Y-112856601D01*
X128691156Y-112856601D01*
X128617738Y-112679353D01*
X127910159Y-111971774D01*
X127732911Y-111898356D01*
X127555664Y-111971773D01*
X126848084Y-112679353D01*
X126774666Y-112856601D01*
X125155622Y-112856601D01*
X125082204Y-112679353D01*
X124374625Y-111971774D01*
X124197377Y-111898356D01*
X124020130Y-111971773D01*
X123312550Y-112679353D01*
X123239132Y-112856601D01*
X121620088Y-112856601D01*
X121546670Y-112679353D01*
X120839091Y-111971774D01*
X120661843Y-111898356D01*
X120484596Y-111971773D01*
X119777016Y-112679353D01*
X119703598Y-112856601D01*
X116500000Y-112856601D01*
X116500000Y-111088834D01*
X117935831Y-111088834D01*
X118009248Y-111266081D01*
X118716829Y-111973662D01*
X118894076Y-112047079D01*
X119071324Y-111973661D01*
X119778904Y-111266081D01*
X119852321Y-111088834D01*
X121471365Y-111088834D01*
X121544782Y-111266081D01*
X122252363Y-111973662D01*
X122429610Y-112047079D01*
X122606858Y-111973661D01*
X123314438Y-111266081D01*
X123387855Y-111088834D01*
X125006899Y-111088834D01*
X125080316Y-111266081D01*
X125787897Y-111973662D01*
X125965144Y-112047079D01*
X126142392Y-111973661D01*
X126849972Y-111266081D01*
X126923389Y-111088834D01*
X128542433Y-111088834D01*
X128615850Y-111266081D01*
X129323431Y-111973662D01*
X129500678Y-112047079D01*
X129677926Y-111973661D01*
X130385506Y-111266081D01*
X130458923Y-111088834D01*
X132077967Y-111088834D01*
X132151384Y-111266081D01*
X132858964Y-111973661D01*
X133036212Y-112047079D01*
X133213459Y-111973662D01*
X133921040Y-111266081D01*
X133994457Y-111088834D01*
X135613501Y-111088834D01*
X135686918Y-111266081D01*
X136394498Y-111973661D01*
X136571746Y-112047079D01*
X136685416Y-111999996D01*
X138194435Y-111999996D01*
X138194435Y-112000003D01*
X138214630Y-112179249D01*
X138214631Y-112179254D01*
X138274211Y-112349523D01*
X138370185Y-112502263D01*
X138372445Y-112505097D01*
X138373334Y-112507275D01*
X138373889Y-112508158D01*
X138373734Y-112508255D01*
X138398855Y-112569783D01*
X138399500Y-112582412D01*
X138399500Y-114913330D01*
X138399499Y-114913348D01*
X138399499Y-115079054D01*
X138399498Y-115079054D01*
X138440423Y-115231785D01*
X138469358Y-115281900D01*
X138469359Y-115281904D01*
X138469360Y-115281904D01*
X138519479Y-115368714D01*
X138519481Y-115368717D01*
X138638349Y-115487585D01*
X138638355Y-115487590D01*
X140515139Y-117364374D01*
X140515149Y-117364385D01*
X140519479Y-117368715D01*
X140519480Y-117368716D01*
X140631284Y-117480520D01*
X140702522Y-117521648D01*
X140718095Y-117530639D01*
X140718097Y-117530641D01*
X140756151Y-117552611D01*
X140768215Y-117559577D01*
X140920943Y-117600500D01*
X140920945Y-117600500D01*
X153079055Y-117600500D01*
X153079057Y-117600500D01*
X153231784Y-117559577D01*
X153368716Y-117480520D01*
X153480520Y-117368716D01*
X153559577Y-117231784D01*
X153600500Y-117079057D01*
X153600500Y-116392135D01*
X155058937Y-116392135D01*
X155132355Y-116569382D01*
X155839935Y-117276962D01*
X156017183Y-117350380D01*
X156194430Y-117276962D01*
X156876000Y-116595392D01*
X156876000Y-116188878D01*
X156194430Y-115507308D01*
X156017183Y-115433889D01*
X155839935Y-115507308D01*
X155132355Y-116214887D01*
X155058937Y-116392135D01*
X153600500Y-116392135D01*
X153600500Y-115337359D01*
X154598500Y-115337359D01*
X155134242Y-114801616D01*
X155207661Y-114624368D01*
X155134242Y-114447120D01*
X154598500Y-113911378D01*
X154598500Y-115337359D01*
X153600500Y-115337359D01*
X153600500Y-112856601D01*
X155058937Y-112856601D01*
X155132354Y-113033848D01*
X155839935Y-113741428D01*
X156017183Y-113814846D01*
X156194430Y-113741428D01*
X156876000Y-113059859D01*
X156876000Y-112653344D01*
X156194430Y-111971774D01*
X156017183Y-111898356D01*
X155839935Y-111971774D01*
X155132355Y-112679353D01*
X155058937Y-112856601D01*
X153600500Y-112856601D01*
X153600500Y-111400908D01*
X153620185Y-111333869D01*
X153672989Y-111288114D01*
X153683536Y-111283869D01*
X153849522Y-111225789D01*
X154002262Y-111129816D01*
X154129816Y-111002262D01*
X154225789Y-110849522D01*
X154285368Y-110679255D01*
X154285369Y-110679249D01*
X154305565Y-110500003D01*
X154305565Y-110499996D01*
X154285369Y-110320750D01*
X154285368Y-110320745D01*
X154245180Y-110205894D01*
X154225789Y-110150478D01*
X154129816Y-109997738D01*
X154002262Y-109870184D01*
X153849523Y-109774211D01*
X153679254Y-109714631D01*
X153679249Y-109714630D01*
X153500004Y-109694435D01*
X153499996Y-109694435D01*
X153320750Y-109714630D01*
X153320745Y-109714631D01*
X153150476Y-109774211D01*
X152997737Y-109870184D01*
X152870184Y-109997737D01*
X152774210Y-110150478D01*
X152714630Y-110320750D01*
X152704837Y-110407666D01*
X152677770Y-110472080D01*
X152669299Y-110481462D01*
X152624237Y-110526524D01*
X152624212Y-110526552D01*
X152519478Y-110631286D01*
X152469361Y-110718094D01*
X152469359Y-110718096D01*
X152440425Y-110768209D01*
X152440424Y-110768210D01*
X152440423Y-110768215D01*
X152399499Y-110920943D01*
X152399499Y-110920945D01*
X152399499Y-111089046D01*
X152399500Y-111089059D01*
X152399500Y-116275500D01*
X152379815Y-116342539D01*
X152327011Y-116388294D01*
X152275500Y-116399500D01*
X141300097Y-116399500D01*
X141233058Y-116379815D01*
X141212416Y-116363181D01*
X139636819Y-114787584D01*
X139603334Y-114726261D01*
X139600500Y-114699903D01*
X139600500Y-114624368D01*
X142684569Y-114624368D01*
X142757986Y-114801615D01*
X143357871Y-115401500D01*
X143927758Y-115401500D01*
X144527642Y-114801615D01*
X144601059Y-114624368D01*
X146220103Y-114624368D01*
X146293520Y-114801615D01*
X146893405Y-115401500D01*
X147463291Y-115401500D01*
X148063176Y-114801615D01*
X148136593Y-114624368D01*
X149755636Y-114624368D01*
X149829055Y-114801616D01*
X150428939Y-115401500D01*
X150998825Y-115401500D01*
X151401500Y-114998825D01*
X151401500Y-114249911D01*
X150891129Y-113739541D01*
X150713882Y-113666123D01*
X150536634Y-113739541D01*
X149829055Y-114447120D01*
X149755636Y-114624368D01*
X148136593Y-114624368D01*
X148063175Y-114447120D01*
X147355595Y-113739541D01*
X147178348Y-113666123D01*
X147001100Y-113739541D01*
X146293521Y-114447120D01*
X146220103Y-114624368D01*
X144601059Y-114624368D01*
X144527641Y-114447120D01*
X143820061Y-113739540D01*
X143642814Y-113666123D01*
X143465566Y-113739541D01*
X142757987Y-114447120D01*
X142684569Y-114624368D01*
X139600500Y-114624368D01*
X139600500Y-112856601D01*
X140916802Y-112856601D01*
X140990219Y-113033848D01*
X141697799Y-113741428D01*
X141875047Y-113814846D01*
X142052294Y-113741429D01*
X142759875Y-113033848D01*
X142833292Y-112856601D01*
X144452336Y-112856601D01*
X144525753Y-113033848D01*
X145233333Y-113741428D01*
X145410581Y-113814846D01*
X145587828Y-113741429D01*
X146295409Y-113033848D01*
X146368826Y-112856601D01*
X147987869Y-112856601D01*
X148061288Y-113033849D01*
X148768867Y-113741428D01*
X148946115Y-113814846D01*
X149123362Y-113741428D01*
X149830943Y-113033848D01*
X149904360Y-112856601D01*
X149830942Y-112679353D01*
X149123362Y-111971774D01*
X148946115Y-111898356D01*
X148768867Y-111971774D01*
X148061288Y-112679353D01*
X147987869Y-112856601D01*
X146368826Y-112856601D01*
X146295408Y-112679353D01*
X145587828Y-111971773D01*
X145410581Y-111898356D01*
X145233333Y-111971774D01*
X144525754Y-112679353D01*
X144452336Y-112856601D01*
X142833292Y-112856601D01*
X142759874Y-112679353D01*
X142052294Y-111971773D01*
X141875047Y-111898356D01*
X141697799Y-111971774D01*
X140990220Y-112679353D01*
X140916802Y-112856601D01*
X139600500Y-112856601D01*
X139600500Y-112582412D01*
X139620185Y-112515373D01*
X139627555Y-112505097D01*
X139629810Y-112502267D01*
X139629816Y-112502262D01*
X139725789Y-112349522D01*
X139785368Y-112179255D01*
X139805565Y-112000000D01*
X139802597Y-111973662D01*
X139785369Y-111820750D01*
X139785368Y-111820745D01*
X139725788Y-111650476D01*
X139686582Y-111588080D01*
X139629816Y-111497738D01*
X139502262Y-111370184D01*
X139381688Y-111294422D01*
X139349523Y-111274211D01*
X139179254Y-111214631D01*
X139179249Y-111214630D01*
X139000004Y-111194435D01*
X138999996Y-111194435D01*
X138820750Y-111214630D01*
X138820745Y-111214631D01*
X138650476Y-111274211D01*
X138497737Y-111370184D01*
X138370184Y-111497737D01*
X138274211Y-111650476D01*
X138214631Y-111820745D01*
X138214630Y-111820750D01*
X138194435Y-111999996D01*
X136685416Y-111999996D01*
X136748993Y-111973662D01*
X137294761Y-111427893D01*
X137341466Y-111294421D01*
X137343947Y-111287921D01*
X137360055Y-111249035D01*
X137362895Y-111242688D01*
X137387199Y-111192221D01*
X137390392Y-111186041D01*
X137410748Y-111149210D01*
X137414281Y-111143220D01*
X137497596Y-111010624D01*
X137456573Y-110911586D01*
X136912378Y-110367391D01*
X139766648Y-110367391D01*
X139807779Y-110387199D01*
X139813959Y-110390392D01*
X139850790Y-110410748D01*
X139856780Y-110414281D01*
X140056948Y-110540056D01*
X140062733Y-110543922D01*
X140097061Y-110568280D01*
X140102618Y-110572462D01*
X140146410Y-110607386D01*
X140151724Y-110611873D01*
X140183100Y-110639913D01*
X140188153Y-110644691D01*
X140355309Y-110811847D01*
X140360087Y-110816900D01*
X140388127Y-110848276D01*
X140392614Y-110853590D01*
X140427538Y-110897382D01*
X140431720Y-110902939D01*
X140456078Y-110937267D01*
X140459944Y-110943052D01*
X140585719Y-111143220D01*
X140589252Y-111149210D01*
X140609608Y-111186041D01*
X140612801Y-111192221D01*
X140637105Y-111242688D01*
X140639945Y-111249035D01*
X140656053Y-111287921D01*
X140658535Y-111294422D01*
X140736616Y-111517566D01*
X140737584Y-111520604D01*
X140992108Y-111266081D01*
X141065525Y-111088834D01*
X142684569Y-111088834D01*
X142757986Y-111266081D01*
X143465566Y-111973661D01*
X143642814Y-112047079D01*
X143820061Y-111973662D01*
X144527642Y-111266081D01*
X144601059Y-111088834D01*
X146220103Y-111088834D01*
X146293520Y-111266081D01*
X147001100Y-111973661D01*
X147178348Y-112047079D01*
X147355595Y-111973661D01*
X148063176Y-111266081D01*
X148136593Y-111088834D01*
X149755636Y-111088834D01*
X149829055Y-111266082D01*
X150536634Y-111973661D01*
X150713882Y-112047079D01*
X150891129Y-111973661D01*
X151401500Y-111463291D01*
X151401500Y-111120060D01*
X151401499Y-111120036D01*
X151401499Y-110888258D01*
X151401765Y-110880146D01*
X151404978Y-110831136D01*
X151405773Y-110823059D01*
X151414306Y-110758259D01*
X151415628Y-110750255D01*
X151419236Y-110732113D01*
X150891129Y-110204007D01*
X150713882Y-110130589D01*
X150536634Y-110204007D01*
X149829055Y-110911586D01*
X149755636Y-111088834D01*
X148136593Y-111088834D01*
X148063175Y-110911586D01*
X147355595Y-110204007D01*
X147178348Y-110130589D01*
X147001100Y-110204007D01*
X146293521Y-110911586D01*
X146220103Y-111088834D01*
X144601059Y-111088834D01*
X144527641Y-110911586D01*
X143820061Y-110204006D01*
X143642814Y-110130589D01*
X143465566Y-110204007D01*
X142757987Y-110911586D01*
X142684569Y-111088834D01*
X141065525Y-111088834D01*
X140992107Y-110911586D01*
X140284527Y-110204006D01*
X140107280Y-110130589D01*
X139930032Y-110204007D01*
X139766648Y-110367391D01*
X136912378Y-110367391D01*
X136748993Y-110204006D01*
X136571746Y-110130589D01*
X136394498Y-110204007D01*
X135686919Y-110911586D01*
X135613501Y-111088834D01*
X133994457Y-111088834D01*
X133921039Y-110911586D01*
X133213459Y-110204006D01*
X133036212Y-110130589D01*
X132858964Y-110204007D01*
X132151385Y-110911586D01*
X132077967Y-111088834D01*
X130458923Y-111088834D01*
X130385505Y-110911586D01*
X129677926Y-110204007D01*
X129500678Y-110130589D01*
X129323431Y-110204006D01*
X128615851Y-110911586D01*
X128542433Y-111088834D01*
X126923389Y-111088834D01*
X126849971Y-110911586D01*
X126142392Y-110204007D01*
X125965144Y-110130589D01*
X125787897Y-110204006D01*
X125080317Y-110911586D01*
X125006899Y-111088834D01*
X123387855Y-111088834D01*
X123314437Y-110911586D01*
X122606858Y-110204007D01*
X122429610Y-110130589D01*
X122252363Y-110204006D01*
X121544783Y-110911586D01*
X121471365Y-111088834D01*
X119852321Y-111088834D01*
X119778903Y-110911586D01*
X119071324Y-110204007D01*
X118894076Y-110130589D01*
X118716829Y-110204006D01*
X118009249Y-110911586D01*
X117935831Y-111088834D01*
X116500000Y-111088834D01*
X116500000Y-109321067D01*
X119703598Y-109321067D01*
X119777015Y-109498314D01*
X120484596Y-110205895D01*
X120661843Y-110279312D01*
X120839091Y-110205894D01*
X121546671Y-109498314D01*
X121620088Y-109321067D01*
X123239132Y-109321067D01*
X123312549Y-109498314D01*
X124020130Y-110205895D01*
X124197377Y-110279312D01*
X124374625Y-110205894D01*
X125082205Y-109498314D01*
X125155622Y-109321067D01*
X126774666Y-109321067D01*
X126848083Y-109498314D01*
X127555664Y-110205895D01*
X127732911Y-110279312D01*
X127910159Y-110205894D01*
X128617739Y-109498314D01*
X128691156Y-109321067D01*
X130310200Y-109321067D01*
X130383617Y-109498314D01*
X131091198Y-110205895D01*
X131268445Y-110279312D01*
X131445693Y-110205894D01*
X132153273Y-109498314D01*
X132226690Y-109321067D01*
X133845734Y-109321067D01*
X133919151Y-109498314D01*
X134626731Y-110205894D01*
X134803979Y-110279312D01*
X134981226Y-110205895D01*
X135688807Y-109498314D01*
X135762224Y-109321067D01*
X137381268Y-109321067D01*
X137454685Y-109498314D01*
X138162265Y-110205894D01*
X138339513Y-110279312D01*
X138516760Y-110205895D01*
X139224341Y-109498314D01*
X139297758Y-109321067D01*
X140916802Y-109321067D01*
X140990219Y-109498314D01*
X141697799Y-110205894D01*
X141875047Y-110279312D01*
X142052294Y-110205895D01*
X142759875Y-109498314D01*
X142833292Y-109321067D01*
X144452336Y-109321067D01*
X144525753Y-109498314D01*
X145233333Y-110205894D01*
X145410581Y-110279312D01*
X145587828Y-110205895D01*
X146295409Y-109498314D01*
X146368826Y-109321067D01*
X147987869Y-109321067D01*
X148061288Y-109498315D01*
X148768867Y-110205894D01*
X148946115Y-110279312D01*
X149123362Y-110205894D01*
X149830943Y-109498314D01*
X149904360Y-109321067D01*
X151523403Y-109321067D01*
X151596820Y-109498314D01*
X151856390Y-109757883D01*
X151860055Y-109749036D01*
X151862895Y-109742688D01*
X151887199Y-109692221D01*
X151890392Y-109686041D01*
X151910748Y-109649210D01*
X151914281Y-109643220D01*
X152040056Y-109443052D01*
X152043922Y-109437267D01*
X152068280Y-109402939D01*
X152072462Y-109397382D01*
X152107386Y-109353590D01*
X152111873Y-109348276D01*
X152136189Y-109321067D01*
X155058937Y-109321067D01*
X155132354Y-109498314D01*
X155839935Y-110205894D01*
X156017183Y-110279312D01*
X156194430Y-110205894D01*
X156876000Y-109524325D01*
X156876000Y-109117810D01*
X156194430Y-108436240D01*
X156017183Y-108362822D01*
X155839935Y-108436240D01*
X155132355Y-109143819D01*
X155058937Y-109321067D01*
X152136189Y-109321067D01*
X152139913Y-109316900D01*
X152144691Y-109311847D01*
X152311847Y-109144691D01*
X152316900Y-109139913D01*
X152348276Y-109111873D01*
X152353590Y-109107386D01*
X152397382Y-109072462D01*
X152402939Y-109068280D01*
X152437267Y-109043922D01*
X152443052Y-109040056D01*
X152643220Y-108914281D01*
X152649210Y-108910748D01*
X152686041Y-108890392D01*
X152692221Y-108887199D01*
X152742688Y-108862895D01*
X152749035Y-108860055D01*
X152787921Y-108843947D01*
X152794422Y-108841465D01*
X152994211Y-108771555D01*
X152658896Y-108436240D01*
X152481649Y-108362822D01*
X152304401Y-108436240D01*
X151596821Y-109143819D01*
X151523403Y-109321067D01*
X149904360Y-109321067D01*
X149830942Y-109143819D01*
X149123362Y-108436240D01*
X148946115Y-108362822D01*
X148768867Y-108436240D01*
X148061288Y-109143819D01*
X147987869Y-109321067D01*
X146368826Y-109321067D01*
X146295408Y-109143819D01*
X145587828Y-108436239D01*
X145410581Y-108362822D01*
X145233333Y-108436240D01*
X144525754Y-109143819D01*
X144452336Y-109321067D01*
X142833292Y-109321067D01*
X142759874Y-109143819D01*
X142052294Y-108436239D01*
X141875047Y-108362822D01*
X141697799Y-108436240D01*
X140990220Y-109143819D01*
X140916802Y-109321067D01*
X139297758Y-109321067D01*
X139224340Y-109143819D01*
X138516760Y-108436239D01*
X138339513Y-108362822D01*
X138162265Y-108436240D01*
X137454686Y-109143819D01*
X137381268Y-109321067D01*
X135762224Y-109321067D01*
X135688806Y-109143819D01*
X134981226Y-108436239D01*
X134803979Y-108362822D01*
X134626731Y-108436240D01*
X133919152Y-109143819D01*
X133845734Y-109321067D01*
X132226690Y-109321067D01*
X132153272Y-109143819D01*
X131445693Y-108436240D01*
X131268445Y-108362822D01*
X131091198Y-108436239D01*
X130383618Y-109143819D01*
X130310200Y-109321067D01*
X128691156Y-109321067D01*
X128617738Y-109143819D01*
X127910159Y-108436240D01*
X127732911Y-108362822D01*
X127555664Y-108436239D01*
X126848084Y-109143819D01*
X126774666Y-109321067D01*
X125155622Y-109321067D01*
X125082204Y-109143819D01*
X124374625Y-108436240D01*
X124197377Y-108362822D01*
X124020130Y-108436239D01*
X123312550Y-109143819D01*
X123239132Y-109321067D01*
X121620088Y-109321067D01*
X121546670Y-109143819D01*
X120839091Y-108436240D01*
X120661843Y-108362822D01*
X120484596Y-108436239D01*
X119777016Y-109143819D01*
X119703598Y-109321067D01*
X116500000Y-109321067D01*
X116500000Y-107553300D01*
X117935831Y-107553300D01*
X118009248Y-107730547D01*
X118716829Y-108438128D01*
X118894076Y-108511545D01*
X119071324Y-108438127D01*
X119778904Y-107730547D01*
X119852321Y-107553300D01*
X121471365Y-107553300D01*
X121544782Y-107730547D01*
X122252363Y-108438128D01*
X122429610Y-108511545D01*
X122606858Y-108438127D01*
X122835315Y-108209670D01*
X125559439Y-108209670D01*
X125787897Y-108438128D01*
X125965144Y-108511545D01*
X126142392Y-108438127D01*
X126849972Y-107730547D01*
X126923389Y-107553300D01*
X128542433Y-107553300D01*
X128615850Y-107730547D01*
X129323431Y-108438128D01*
X129500678Y-108511545D01*
X129677926Y-108438127D01*
X130385506Y-107730547D01*
X130458923Y-107553300D01*
X132077967Y-107553300D01*
X132151384Y-107730547D01*
X132858964Y-108438127D01*
X133036212Y-108511545D01*
X133213459Y-108438128D01*
X133921040Y-107730547D01*
X133994457Y-107553300D01*
X135613501Y-107553300D01*
X135686918Y-107730547D01*
X136394498Y-108438127D01*
X136571746Y-108511545D01*
X136748993Y-108438128D01*
X137456574Y-107730547D01*
X137529991Y-107553300D01*
X139149035Y-107553300D01*
X139222452Y-107730547D01*
X139930032Y-108438127D01*
X140107280Y-108511545D01*
X140284527Y-108438128D01*
X140992108Y-107730547D01*
X141065525Y-107553300D01*
X142684569Y-107553300D01*
X142757986Y-107730547D01*
X143465566Y-108438127D01*
X143642814Y-108511545D01*
X143820061Y-108438128D01*
X144527642Y-107730547D01*
X144601059Y-107553300D01*
X146220103Y-107553300D01*
X146293520Y-107730547D01*
X147001100Y-108438127D01*
X147178348Y-108511545D01*
X147355595Y-108438127D01*
X148063176Y-107730547D01*
X148136593Y-107553300D01*
X149755636Y-107553300D01*
X149829055Y-107730548D01*
X150536634Y-108438127D01*
X150713882Y-108511545D01*
X150891129Y-108438127D01*
X151598710Y-107730547D01*
X151672127Y-107553300D01*
X153291170Y-107553300D01*
X153364587Y-107730547D01*
X154072168Y-108438127D01*
X154249416Y-108511545D01*
X154426663Y-108438127D01*
X155134242Y-107730548D01*
X155207661Y-107553300D01*
X155134242Y-107376052D01*
X154426663Y-106668473D01*
X154249416Y-106595055D01*
X154072168Y-106668473D01*
X153364588Y-107376052D01*
X153291170Y-107553300D01*
X151672127Y-107553300D01*
X151598709Y-107376052D01*
X150891129Y-106668473D01*
X150713882Y-106595055D01*
X150536634Y-106668473D01*
X149829055Y-107376052D01*
X149755636Y-107553300D01*
X148136593Y-107553300D01*
X148063175Y-107376052D01*
X147355595Y-106668473D01*
X147178348Y-106595055D01*
X147001100Y-106668473D01*
X146293521Y-107376052D01*
X146220103Y-107553300D01*
X144601059Y-107553300D01*
X144527641Y-107376052D01*
X143820061Y-106668472D01*
X143642814Y-106595055D01*
X143465566Y-106668473D01*
X142757987Y-107376052D01*
X142684569Y-107553300D01*
X141065525Y-107553300D01*
X140992107Y-107376052D01*
X140284527Y-106668472D01*
X140107280Y-106595055D01*
X139930032Y-106668473D01*
X139222453Y-107376052D01*
X139149035Y-107553300D01*
X137529991Y-107553300D01*
X137456573Y-107376052D01*
X136748993Y-106668472D01*
X136571746Y-106595055D01*
X136394498Y-106668473D01*
X135686919Y-107376052D01*
X135613501Y-107553300D01*
X133994457Y-107553300D01*
X133921039Y-107376052D01*
X133213459Y-106668472D01*
X133036212Y-106595055D01*
X132858964Y-106668473D01*
X132151385Y-107376052D01*
X132077967Y-107553300D01*
X130458923Y-107553300D01*
X130385505Y-107376052D01*
X129677926Y-106668473D01*
X129500678Y-106595055D01*
X129323431Y-106668472D01*
X128615851Y-107376052D01*
X128542433Y-107553300D01*
X126923389Y-107553300D01*
X126849971Y-107376052D01*
X126663968Y-107190049D01*
X126658535Y-107205577D01*
X126656054Y-107212077D01*
X126639946Y-107250964D01*
X126637105Y-107257312D01*
X126612801Y-107307779D01*
X126609608Y-107313959D01*
X126589252Y-107350790D01*
X126585719Y-107356780D01*
X126459944Y-107556948D01*
X126456078Y-107562733D01*
X126431720Y-107597061D01*
X126427538Y-107602618D01*
X126392614Y-107646410D01*
X126388127Y-107651724D01*
X126360087Y-107683100D01*
X126355309Y-107688153D01*
X126188153Y-107855309D01*
X126183100Y-107860087D01*
X126151724Y-107888127D01*
X126146410Y-107892614D01*
X126102618Y-107927538D01*
X126097061Y-107931720D01*
X126062733Y-107956078D01*
X126056948Y-107959944D01*
X125856780Y-108085719D01*
X125850790Y-108089252D01*
X125813959Y-108109608D01*
X125807779Y-108112801D01*
X125757312Y-108137105D01*
X125750965Y-108139945D01*
X125712079Y-108156053D01*
X125705578Y-108158535D01*
X125559439Y-108209670D01*
X122835315Y-108209670D01*
X123314438Y-107730547D01*
X123387855Y-107553300D01*
X123314437Y-107376052D01*
X122606858Y-106668473D01*
X122429610Y-106595055D01*
X122252363Y-106668472D01*
X121544783Y-107376052D01*
X121471365Y-107553300D01*
X119852321Y-107553300D01*
X119778903Y-107376052D01*
X119071324Y-106668473D01*
X118894076Y-106595055D01*
X118716829Y-106668472D01*
X118009249Y-107376052D01*
X117935831Y-107553300D01*
X116500000Y-107553300D01*
X116500000Y-106098501D01*
X119912736Y-106098501D01*
X120484596Y-106670361D01*
X120661843Y-106743778D01*
X120839091Y-106670360D01*
X121410952Y-106098500D01*
X120110018Y-106098500D01*
X120109986Y-106098501D01*
X119912736Y-106098501D01*
X116500000Y-106098501D01*
X116500000Y-103999996D01*
X118694435Y-103999996D01*
X118694435Y-104000003D01*
X118714630Y-104179249D01*
X118714631Y-104179254D01*
X118774211Y-104349523D01*
X118870184Y-104502262D01*
X118997738Y-104629816D01*
X119150478Y-104725789D01*
X119320745Y-104785368D01*
X119407669Y-104795161D01*
X119472080Y-104822226D01*
X119481453Y-104830689D01*
X119631284Y-104980520D01*
X119631286Y-104980521D01*
X119631287Y-104980522D01*
X119631290Y-104980524D01*
X119768209Y-105059573D01*
X119768216Y-105059577D01*
X119920943Y-105100501D01*
X119920945Y-105100501D01*
X120086654Y-105100501D01*
X120086670Y-105100500D01*
X124913331Y-105100500D01*
X124913347Y-105100501D01*
X124920943Y-105100501D01*
X125079054Y-105100501D01*
X125079057Y-105100501D01*
X125231785Y-105059577D01*
X125266455Y-105039559D01*
X125334351Y-105023084D01*
X125400379Y-105045933D01*
X125443572Y-105100852D01*
X125450217Y-105170405D01*
X125418204Y-105232509D01*
X125416138Y-105234625D01*
X124981465Y-105669298D01*
X124920142Y-105702783D01*
X124907668Y-105704837D01*
X124820750Y-105714630D01*
X124650478Y-105774210D01*
X124497737Y-105870184D01*
X124370184Y-105997737D01*
X124274211Y-106150476D01*
X124214631Y-106320745D01*
X124214630Y-106320750D01*
X124194435Y-106499996D01*
X124194435Y-106500003D01*
X124214630Y-106679249D01*
X124214631Y-106679254D01*
X124274211Y-106849523D01*
X124370184Y-107002262D01*
X124497738Y-107129816D01*
X124650478Y-107225789D01*
X124740566Y-107257312D01*
X124820745Y-107285368D01*
X124820750Y-107285369D01*
X124999996Y-107305565D01*
X125000000Y-107305565D01*
X125000004Y-107305565D01*
X125179249Y-107285369D01*
X125179252Y-107285368D01*
X125179255Y-107285368D01*
X125349522Y-107225789D01*
X125502262Y-107129816D01*
X125629816Y-107002262D01*
X125725789Y-106849522D01*
X125785368Y-106679255D01*
X125795161Y-106592329D01*
X125822226Y-106527918D01*
X125830690Y-106518543D01*
X125911577Y-106437656D01*
X127322959Y-106437656D01*
X127555664Y-106670361D01*
X127732911Y-106743778D01*
X127910159Y-106670360D01*
X128617739Y-105962780D01*
X128691156Y-105785533D01*
X130310200Y-105785533D01*
X130383617Y-105962780D01*
X131091198Y-106670361D01*
X131268445Y-106743778D01*
X131445693Y-106670360D01*
X132153273Y-105962780D01*
X132226690Y-105785533D01*
X133845734Y-105785533D01*
X133919151Y-105962780D01*
X134626731Y-106670360D01*
X134803979Y-106743778D01*
X134981226Y-106670361D01*
X135688807Y-105962780D01*
X135762224Y-105785533D01*
X137381268Y-105785533D01*
X137454685Y-105962780D01*
X138162265Y-106670360D01*
X138339513Y-106743778D01*
X138516760Y-106670361D01*
X139224341Y-105962780D01*
X139297758Y-105785533D01*
X140916802Y-105785533D01*
X140990219Y-105962780D01*
X141697799Y-106670360D01*
X141875047Y-106743778D01*
X142052294Y-106670361D01*
X142759875Y-105962780D01*
X142833292Y-105785533D01*
X144452336Y-105785533D01*
X144525753Y-105962780D01*
X145233333Y-106670360D01*
X145410581Y-106743778D01*
X145587828Y-106670361D01*
X146295409Y-105962780D01*
X146368826Y-105785533D01*
X147987869Y-105785533D01*
X148061288Y-105962781D01*
X148768867Y-106670360D01*
X148946115Y-106743778D01*
X149123362Y-106670360D01*
X149830943Y-105962780D01*
X149904360Y-105785533D01*
X151523403Y-105785533D01*
X151596820Y-105962780D01*
X152304401Y-106670360D01*
X152481649Y-106743778D01*
X152658896Y-106670360D01*
X153366475Y-105962781D01*
X153439894Y-105785533D01*
X155058937Y-105785533D01*
X155132354Y-105962780D01*
X155839935Y-106670360D01*
X156017183Y-106743778D01*
X156194430Y-106670360D01*
X156876000Y-105988791D01*
X156876000Y-105582276D01*
X156194430Y-104900706D01*
X156017183Y-104827288D01*
X155839935Y-104900706D01*
X155132355Y-105608285D01*
X155058937Y-105785533D01*
X153439894Y-105785533D01*
X153366475Y-105608285D01*
X152658896Y-104900706D01*
X152481649Y-104827288D01*
X152304401Y-104900706D01*
X151596821Y-105608285D01*
X151523403Y-105785533D01*
X149904360Y-105785533D01*
X149830942Y-105608285D01*
X149123362Y-104900706D01*
X148946115Y-104827288D01*
X148768867Y-104900706D01*
X148061288Y-105608285D01*
X147987869Y-105785533D01*
X146368826Y-105785533D01*
X146295408Y-105608285D01*
X145587828Y-104900705D01*
X145410581Y-104827288D01*
X145233333Y-104900706D01*
X144525754Y-105608285D01*
X144452336Y-105785533D01*
X142833292Y-105785533D01*
X142759874Y-105608285D01*
X142052294Y-104900705D01*
X141875047Y-104827288D01*
X141697799Y-104900706D01*
X140990220Y-105608285D01*
X140916802Y-105785533D01*
X139297758Y-105785533D01*
X139224340Y-105608285D01*
X138516760Y-104900705D01*
X138339513Y-104827288D01*
X138162265Y-104900706D01*
X137454686Y-105608285D01*
X137381268Y-105785533D01*
X135762224Y-105785533D01*
X135688806Y-105608285D01*
X134981226Y-104900705D01*
X134803979Y-104827288D01*
X134626731Y-104900706D01*
X133919152Y-105608285D01*
X133845734Y-105785533D01*
X132226690Y-105785533D01*
X132153272Y-105608285D01*
X131445693Y-104900706D01*
X131268445Y-104827288D01*
X131091198Y-104900705D01*
X130383618Y-105608285D01*
X130310200Y-105785533D01*
X128691156Y-105785533D01*
X128617738Y-105608285D01*
X128385034Y-105375581D01*
X127322959Y-106437656D01*
X125911577Y-106437656D01*
X127679344Y-104669890D01*
X129090727Y-104669890D01*
X129323431Y-104902594D01*
X129500678Y-104976011D01*
X129677926Y-104902593D01*
X130385506Y-104195013D01*
X130458923Y-104017766D01*
X132077967Y-104017766D01*
X132151384Y-104195013D01*
X132858964Y-104902593D01*
X133036212Y-104976011D01*
X133213459Y-104902594D01*
X133921040Y-104195013D01*
X133994457Y-104017766D01*
X135613501Y-104017766D01*
X135686918Y-104195013D01*
X136394498Y-104902593D01*
X136571746Y-104976011D01*
X136748993Y-104902594D01*
X137456574Y-104195013D01*
X137529991Y-104017766D01*
X139149035Y-104017766D01*
X139222452Y-104195013D01*
X139930032Y-104902593D01*
X140107280Y-104976011D01*
X140284527Y-104902594D01*
X140992108Y-104195013D01*
X141065525Y-104017766D01*
X142684569Y-104017766D01*
X142757986Y-104195013D01*
X143465566Y-104902593D01*
X143642814Y-104976011D01*
X143820061Y-104902594D01*
X144527642Y-104195013D01*
X144601059Y-104017766D01*
X146220103Y-104017766D01*
X146293520Y-104195013D01*
X147001100Y-104902593D01*
X147178348Y-104976011D01*
X147355595Y-104902593D01*
X148063176Y-104195013D01*
X148136593Y-104017766D01*
X149755636Y-104017766D01*
X149829055Y-104195014D01*
X150536634Y-104902593D01*
X150713882Y-104976011D01*
X150891129Y-104902593D01*
X151598710Y-104195013D01*
X151672127Y-104017766D01*
X153291170Y-104017766D01*
X153364587Y-104195013D01*
X154072168Y-104902593D01*
X154249416Y-104976011D01*
X154426663Y-104902593D01*
X155134242Y-104195014D01*
X155207661Y-104017766D01*
X155134242Y-103840518D01*
X154426663Y-103132939D01*
X154249416Y-103059521D01*
X154072168Y-103132939D01*
X153364588Y-103840518D01*
X153291170Y-104017766D01*
X151672127Y-104017766D01*
X151598709Y-103840518D01*
X150891129Y-103132939D01*
X150713882Y-103059521D01*
X150536634Y-103132939D01*
X149829055Y-103840518D01*
X149755636Y-104017766D01*
X148136593Y-104017766D01*
X148063175Y-103840518D01*
X147355595Y-103132939D01*
X147178348Y-103059521D01*
X147001100Y-103132939D01*
X146293521Y-103840518D01*
X146220103Y-104017766D01*
X144601059Y-104017766D01*
X144527641Y-103840518D01*
X144234170Y-103547047D01*
X144163577Y-103606282D01*
X144126281Y-103627815D01*
X143745186Y-103766522D01*
X143702776Y-103774000D01*
X143297224Y-103774000D01*
X143254814Y-103766522D01*
X142944813Y-103653691D01*
X142757987Y-103840518D01*
X142684569Y-104017766D01*
X141065525Y-104017766D01*
X140992107Y-103840518D01*
X140284527Y-103132938D01*
X140107280Y-103059521D01*
X139930032Y-103132939D01*
X139222453Y-103840518D01*
X139149035Y-104017766D01*
X137529991Y-104017766D01*
X137456573Y-103840518D01*
X136748993Y-103132938D01*
X136571746Y-103059521D01*
X136394498Y-103132939D01*
X135686919Y-103840518D01*
X135613501Y-104017766D01*
X133994457Y-104017766D01*
X133921039Y-103840518D01*
X133213459Y-103132938D01*
X133036212Y-103059521D01*
X132858964Y-103132939D01*
X132151385Y-103840518D01*
X132077967Y-104017766D01*
X130458923Y-104017766D01*
X130385505Y-103840518D01*
X130152802Y-103607815D01*
X129090727Y-104669890D01*
X127679344Y-104669890D01*
X129447111Y-102902123D01*
X130858494Y-102902123D01*
X131091198Y-103134827D01*
X131268445Y-103208244D01*
X131445693Y-103134826D01*
X132153273Y-102427246D01*
X132226690Y-102249999D01*
X133845734Y-102249999D01*
X133919151Y-102427246D01*
X134626731Y-103134826D01*
X134803979Y-103208244D01*
X134981226Y-103134827D01*
X135688807Y-102427246D01*
X135762224Y-102249999D01*
X137381268Y-102249999D01*
X137454685Y-102427246D01*
X138162265Y-103134826D01*
X138339513Y-103208244D01*
X138516760Y-103134827D01*
X139224341Y-102427246D01*
X139297758Y-102249999D01*
X140916802Y-102249999D01*
X140990219Y-102427246D01*
X141697799Y-103134826D01*
X141875047Y-103208244D01*
X142052294Y-103134827D01*
X142278412Y-102908708D01*
X142210143Y-102521532D01*
X142210143Y-102478468D01*
X142280566Y-102079077D01*
X142295295Y-102038609D01*
X142348299Y-101946803D01*
X144651701Y-101946803D01*
X144704705Y-102038609D01*
X144719434Y-102079077D01*
X144789857Y-102478468D01*
X144789857Y-102521532D01*
X144764401Y-102665894D01*
X145233333Y-103134826D01*
X145410581Y-103208244D01*
X145587828Y-103134827D01*
X146295409Y-102427246D01*
X146368826Y-102249999D01*
X147987869Y-102249999D01*
X148061288Y-102427247D01*
X148768867Y-103134826D01*
X148946115Y-103208244D01*
X149123362Y-103134826D01*
X149830943Y-102427246D01*
X149904360Y-102249999D01*
X151523403Y-102249999D01*
X151596820Y-102427246D01*
X152304401Y-103134826D01*
X152481649Y-103208244D01*
X152658896Y-103134826D01*
X153366475Y-102427247D01*
X153439894Y-102249999D01*
X155058937Y-102249999D01*
X155132354Y-102427246D01*
X155839935Y-103134826D01*
X156017183Y-103208244D01*
X156194430Y-103134826D01*
X156876000Y-102453257D01*
X156876000Y-102046742D01*
X156194430Y-101365172D01*
X156017183Y-101291754D01*
X155839935Y-101365172D01*
X155132355Y-102072751D01*
X155058937Y-102249999D01*
X153439894Y-102249999D01*
X153366475Y-102072751D01*
X152658896Y-101365172D01*
X152481649Y-101291754D01*
X152304401Y-101365172D01*
X151596821Y-102072751D01*
X151523403Y-102249999D01*
X149904360Y-102249999D01*
X149830942Y-102072751D01*
X149123362Y-101365172D01*
X148946115Y-101291754D01*
X148768867Y-101365172D01*
X148061288Y-102072751D01*
X147987869Y-102249999D01*
X146368826Y-102249999D01*
X146295408Y-102072751D01*
X145587828Y-101365171D01*
X145410581Y-101291754D01*
X145233333Y-101365172D01*
X144651701Y-101946803D01*
X142348299Y-101946803D01*
X142452845Y-101765722D01*
X142052294Y-101365171D01*
X141875047Y-101291754D01*
X141697799Y-101365172D01*
X140990220Y-102072751D01*
X140916802Y-102249999D01*
X139297758Y-102249999D01*
X139224340Y-102072751D01*
X138750089Y-101598500D01*
X137928938Y-101598500D01*
X137454686Y-102072751D01*
X137381268Y-102249999D01*
X135762224Y-102249999D01*
X135688806Y-102072751D01*
X135214555Y-101598500D01*
X134393404Y-101598500D01*
X133919152Y-102072751D01*
X133845734Y-102249999D01*
X132226690Y-102249999D01*
X132153272Y-102072751D01*
X131920569Y-101840048D01*
X130858494Y-102902123D01*
X129447111Y-102902123D01*
X131712416Y-100636819D01*
X131773739Y-100603334D01*
X131800097Y-100600500D01*
X139417588Y-100600500D01*
X139484627Y-100620185D01*
X139494903Y-100627555D01*
X139497736Y-100629814D01*
X139497738Y-100629816D01*
X139650478Y-100725789D01*
X139820745Y-100785368D01*
X139820750Y-100785369D01*
X139999996Y-100805565D01*
X140000000Y-100805565D01*
X140000004Y-100805565D01*
X140179249Y-100785369D01*
X140179252Y-100785368D01*
X140179255Y-100785368D01*
X140349522Y-100725789D01*
X140502262Y-100629816D01*
X140629816Y-100502262D01*
X140642402Y-100482232D01*
X142684569Y-100482232D01*
X142757987Y-100659480D01*
X143324507Y-101226000D01*
X143702776Y-101226000D01*
X143745186Y-101233478D01*
X143898017Y-101289103D01*
X144527641Y-100659480D01*
X144601059Y-100482232D01*
X146220103Y-100482232D01*
X146293521Y-100659480D01*
X147001100Y-101367059D01*
X147178348Y-101440477D01*
X147355595Y-101367059D01*
X148063175Y-100659480D01*
X148136593Y-100482232D01*
X149755636Y-100482232D01*
X149829055Y-100659480D01*
X150536634Y-101367059D01*
X150713882Y-101440477D01*
X150891129Y-101367059D01*
X151598709Y-100659480D01*
X151672127Y-100482232D01*
X153291170Y-100482232D01*
X153364588Y-100659480D01*
X154072168Y-101367059D01*
X154249416Y-101440477D01*
X154426663Y-101367059D01*
X155134242Y-100659480D01*
X155207661Y-100482232D01*
X155134242Y-100304984D01*
X154426663Y-99597405D01*
X154249416Y-99523987D01*
X154072168Y-99597405D01*
X153364587Y-100304985D01*
X153291170Y-100482232D01*
X151672127Y-100482232D01*
X151598710Y-100304985D01*
X150891129Y-99597405D01*
X150713882Y-99523987D01*
X150536634Y-99597405D01*
X149829055Y-100304984D01*
X149755636Y-100482232D01*
X148136593Y-100482232D01*
X148063176Y-100304985D01*
X147355595Y-99597405D01*
X147178348Y-99523987D01*
X147001100Y-99597405D01*
X146293520Y-100304985D01*
X146220103Y-100482232D01*
X144601059Y-100482232D01*
X144527642Y-100304985D01*
X143820061Y-99597404D01*
X143642814Y-99523987D01*
X143465566Y-99597405D01*
X142757986Y-100304985D01*
X142684569Y-100482232D01*
X140642402Y-100482232D01*
X140725789Y-100349522D01*
X140785368Y-100179255D01*
X140805565Y-100000000D01*
X140785368Y-99820745D01*
X140725789Y-99650478D01*
X140629816Y-99497738D01*
X140502262Y-99370184D01*
X140381688Y-99294422D01*
X140349523Y-99274211D01*
X140179254Y-99214631D01*
X140179249Y-99214630D01*
X140000004Y-99194435D01*
X139999996Y-99194435D01*
X139820750Y-99214630D01*
X139820745Y-99214631D01*
X139650476Y-99274211D01*
X139497736Y-99370185D01*
X139494903Y-99372445D01*
X139492724Y-99373334D01*
X139491842Y-99373889D01*
X139491744Y-99373734D01*
X139430217Y-99398855D01*
X139417588Y-99399500D01*
X131579057Y-99399500D01*
X131420943Y-99399500D01*
X131268215Y-99440423D01*
X131268214Y-99440423D01*
X131268212Y-99440424D01*
X131268211Y-99440424D01*
X131233540Y-99460442D01*
X131165640Y-99476915D01*
X131099613Y-99454062D01*
X131056422Y-99399141D01*
X131049781Y-99329588D01*
X131081797Y-99267485D01*
X131083816Y-99265417D01*
X131358506Y-98990728D01*
X131358511Y-98990724D01*
X131368714Y-98980520D01*
X131368716Y-98980520D01*
X131480520Y-98868716D01*
X131559577Y-98731784D01*
X131600500Y-98579057D01*
X131600500Y-98513211D01*
X141014226Y-98513211D01*
X141056948Y-98540056D01*
X141062733Y-98543922D01*
X141097061Y-98568280D01*
X141102618Y-98572462D01*
X141146410Y-98607386D01*
X141151724Y-98611873D01*
X141183100Y-98639913D01*
X141188153Y-98644691D01*
X141355309Y-98811847D01*
X141360087Y-98816900D01*
X141388127Y-98848276D01*
X141392614Y-98853590D01*
X141427538Y-98897382D01*
X141431720Y-98902939D01*
X141456078Y-98937267D01*
X141459944Y-98943052D01*
X141585719Y-99143220D01*
X141589252Y-99149210D01*
X141609608Y-99186041D01*
X141612801Y-99192221D01*
X141637105Y-99242688D01*
X141639945Y-99249035D01*
X141656053Y-99287921D01*
X141658535Y-99294422D01*
X141736616Y-99517566D01*
X141738728Y-99524193D01*
X141750381Y-99564642D01*
X141752119Y-99571379D01*
X141764582Y-99625989D01*
X141764791Y-99627041D01*
X141875047Y-99672710D01*
X142052294Y-99599293D01*
X142759874Y-98891713D01*
X142833292Y-98714465D01*
X144452336Y-98714465D01*
X144525754Y-98891713D01*
X145233333Y-99599292D01*
X145410581Y-99672710D01*
X145587828Y-99599293D01*
X146295408Y-98891713D01*
X146368826Y-98714465D01*
X147987869Y-98714465D01*
X148061288Y-98891713D01*
X148768867Y-99599292D01*
X148946115Y-99672710D01*
X149123362Y-99599292D01*
X149830942Y-98891713D01*
X149904360Y-98714465D01*
X151523403Y-98714465D01*
X151596821Y-98891713D01*
X152304401Y-99599292D01*
X152481649Y-99672710D01*
X152658896Y-99599292D01*
X153366475Y-98891713D01*
X153439894Y-98714465D01*
X155058937Y-98714465D01*
X155132355Y-98891713D01*
X155839935Y-99599292D01*
X156017183Y-99672710D01*
X156194430Y-99599292D01*
X156876000Y-98917723D01*
X156876000Y-98511208D01*
X156194430Y-97829638D01*
X156017183Y-97756220D01*
X155839935Y-97829638D01*
X155132354Y-98537218D01*
X155058937Y-98714465D01*
X153439894Y-98714465D01*
X153366475Y-98537217D01*
X152658896Y-97829638D01*
X152481649Y-97756220D01*
X152304401Y-97829638D01*
X151596820Y-98537218D01*
X151523403Y-98714465D01*
X149904360Y-98714465D01*
X149830943Y-98537218D01*
X149123362Y-97829638D01*
X148946115Y-97756220D01*
X148768867Y-97829638D01*
X148061288Y-98537217D01*
X147987869Y-98714465D01*
X146368826Y-98714465D01*
X146295409Y-98537218D01*
X145587828Y-97829637D01*
X145410581Y-97756220D01*
X145233333Y-97829638D01*
X144525753Y-98537218D01*
X144452336Y-98714465D01*
X142833292Y-98714465D01*
X142759875Y-98537218D01*
X142052294Y-97829637D01*
X141875047Y-97756220D01*
X141697799Y-97829638D01*
X141014226Y-98513211D01*
X131600500Y-98513211D01*
X131600500Y-98401500D01*
X134054870Y-98401500D01*
X135553089Y-98401500D01*
X137590404Y-98401500D01*
X139088623Y-98401500D01*
X138516760Y-97829637D01*
X138339513Y-97756220D01*
X138162265Y-97829638D01*
X137590404Y-98401500D01*
X135553089Y-98401500D01*
X134981226Y-97829637D01*
X134803979Y-97756220D01*
X134626731Y-97829638D01*
X134054870Y-98401500D01*
X131600500Y-98401500D01*
X131600500Y-96322336D01*
X132598500Y-96322336D01*
X132598500Y-97571061D01*
X132858964Y-97831525D01*
X133036212Y-97904943D01*
X133213459Y-97831526D01*
X133921039Y-97123946D01*
X133994457Y-96946698D01*
X135613501Y-96946698D01*
X135686919Y-97123946D01*
X136394498Y-97831525D01*
X136571746Y-97904943D01*
X136748993Y-97831526D01*
X137456573Y-97123946D01*
X137529991Y-96946698D01*
X139149035Y-96946698D01*
X139222453Y-97123946D01*
X139930032Y-97831525D01*
X140107280Y-97904943D01*
X140284527Y-97831526D01*
X140992107Y-97123946D01*
X141065525Y-96946698D01*
X142684569Y-96946698D01*
X142757987Y-97123946D01*
X143465566Y-97831525D01*
X143642814Y-97904943D01*
X143820061Y-97831526D01*
X144527641Y-97123946D01*
X144601059Y-96946698D01*
X146220103Y-96946698D01*
X146293521Y-97123946D01*
X147001100Y-97831525D01*
X147178348Y-97904943D01*
X147355595Y-97831525D01*
X148063175Y-97123946D01*
X148136593Y-96946698D01*
X149755636Y-96946698D01*
X149829055Y-97123946D01*
X150536634Y-97831525D01*
X150713882Y-97904943D01*
X150891129Y-97831525D01*
X151598709Y-97123946D01*
X151672127Y-96946698D01*
X153291170Y-96946698D01*
X153364588Y-97123946D01*
X154072168Y-97831525D01*
X154249416Y-97904943D01*
X154426663Y-97831525D01*
X155134242Y-97123946D01*
X155207661Y-96946698D01*
X155134242Y-96769450D01*
X154426663Y-96061871D01*
X154249416Y-95988453D01*
X154072168Y-96061871D01*
X153364587Y-96769451D01*
X153291170Y-96946698D01*
X151672127Y-96946698D01*
X151598710Y-96769451D01*
X150891129Y-96061871D01*
X150713882Y-95988453D01*
X150536634Y-96061871D01*
X149829055Y-96769450D01*
X149755636Y-96946698D01*
X148136593Y-96946698D01*
X148063176Y-96769451D01*
X147355595Y-96061871D01*
X147178348Y-95988453D01*
X147001100Y-96061871D01*
X146293520Y-96769451D01*
X146220103Y-96946698D01*
X144601059Y-96946698D01*
X144527642Y-96769451D01*
X143820061Y-96061870D01*
X143642814Y-95988453D01*
X143465566Y-96061871D01*
X142757986Y-96769451D01*
X142684569Y-96946698D01*
X141065525Y-96946698D01*
X140992108Y-96769451D01*
X140284527Y-96061870D01*
X140107280Y-95988453D01*
X139930032Y-96061871D01*
X139222452Y-96769451D01*
X139149035Y-96946698D01*
X137529991Y-96946698D01*
X137456574Y-96769451D01*
X136748993Y-96061870D01*
X136571746Y-95988453D01*
X136394498Y-96061871D01*
X135686918Y-96769451D01*
X135613501Y-96946698D01*
X133994457Y-96946698D01*
X133921040Y-96769451D01*
X133213459Y-96061870D01*
X133036212Y-95988453D01*
X132858964Y-96061871D01*
X132598500Y-96322336D01*
X131600500Y-96322336D01*
X131600500Y-95582412D01*
X131620185Y-95515373D01*
X131627555Y-95505097D01*
X131629810Y-95502267D01*
X131629816Y-95502262D01*
X131725789Y-95349522D01*
X131785368Y-95179255D01*
X131785405Y-95178931D01*
X133845734Y-95178931D01*
X133919152Y-95356179D01*
X134626731Y-96063758D01*
X134803979Y-96137176D01*
X134981226Y-96063759D01*
X135688806Y-95356179D01*
X135762224Y-95178931D01*
X137381268Y-95178931D01*
X137454686Y-95356179D01*
X138162265Y-96063758D01*
X138339513Y-96137176D01*
X138516760Y-96063759D01*
X139224340Y-95356179D01*
X139297758Y-95178931D01*
X140916802Y-95178931D01*
X140990220Y-95356179D01*
X141697799Y-96063758D01*
X141875047Y-96137176D01*
X142052294Y-96063759D01*
X142759874Y-95356179D01*
X142833292Y-95178931D01*
X144452336Y-95178931D01*
X144525754Y-95356179D01*
X145233333Y-96063758D01*
X145410581Y-96137176D01*
X145587828Y-96063759D01*
X146295408Y-95356179D01*
X146368826Y-95178931D01*
X147987869Y-95178931D01*
X148061288Y-95356179D01*
X148768867Y-96063758D01*
X148946115Y-96137176D01*
X149123362Y-96063758D01*
X149617538Y-95569582D01*
X149443052Y-95459944D01*
X149437267Y-95456078D01*
X149402939Y-95431720D01*
X149397382Y-95427538D01*
X149360908Y-95398450D01*
X151639092Y-95398450D01*
X152304401Y-96063758D01*
X152481649Y-96137176D01*
X152658896Y-96063758D01*
X153366475Y-95356179D01*
X153439894Y-95178931D01*
X155058937Y-95178931D01*
X155132355Y-95356179D01*
X155839935Y-96063758D01*
X156017183Y-96137176D01*
X156194430Y-96063758D01*
X156876000Y-95382189D01*
X156876000Y-94975674D01*
X156194430Y-94294104D01*
X156017183Y-94220686D01*
X155839935Y-94294104D01*
X155132354Y-95001684D01*
X155058937Y-95178931D01*
X153439894Y-95178931D01*
X153366475Y-95001683D01*
X153152355Y-94787563D01*
X153151724Y-94788127D01*
X153146410Y-94792614D01*
X153102618Y-94827538D01*
X153097061Y-94831720D01*
X153062733Y-94856078D01*
X153056948Y-94859944D01*
X152856780Y-94985719D01*
X152850790Y-94989252D01*
X152813959Y-95009608D01*
X152807779Y-95012801D01*
X152757312Y-95037105D01*
X152750965Y-95039945D01*
X152712079Y-95056053D01*
X152705578Y-95058535D01*
X152482434Y-95136616D01*
X152475807Y-95138728D01*
X152435358Y-95150381D01*
X152428621Y-95152119D01*
X152374011Y-95164582D01*
X152367191Y-95165938D01*
X152325707Y-95172986D01*
X152318820Y-95173958D01*
X152083908Y-95200425D01*
X152076979Y-95201010D01*
X152034961Y-95203370D01*
X152028007Y-95203565D01*
X151971993Y-95203565D01*
X151965039Y-95203370D01*
X151923021Y-95201010D01*
X151916091Y-95200425D01*
X151850434Y-95193027D01*
X151688153Y-95355309D01*
X151683100Y-95360087D01*
X151651724Y-95388127D01*
X151646410Y-95392614D01*
X151639092Y-95398450D01*
X149360908Y-95398450D01*
X149353590Y-95392614D01*
X149348276Y-95388127D01*
X149316900Y-95360087D01*
X149311847Y-95355309D01*
X149144691Y-95188153D01*
X149139913Y-95183100D01*
X149111873Y-95151724D01*
X149107386Y-95146410D01*
X149072462Y-95102618D01*
X149068280Y-95097061D01*
X149043922Y-95062733D01*
X149040056Y-95056948D01*
X148914281Y-94856780D01*
X148910748Y-94850790D01*
X148890392Y-94813959D01*
X148887199Y-94807779D01*
X148862895Y-94757312D01*
X148860055Y-94750965D01*
X148843947Y-94712079D01*
X148841465Y-94705578D01*
X148763384Y-94482434D01*
X148761272Y-94475807D01*
X148749619Y-94435358D01*
X148747881Y-94428621D01*
X148735418Y-94374011D01*
X148734062Y-94367191D01*
X148728502Y-94334469D01*
X148061288Y-95001683D01*
X147987869Y-95178931D01*
X146368826Y-95178931D01*
X146295409Y-95001684D01*
X145587828Y-94294103D01*
X145410581Y-94220686D01*
X145233333Y-94294104D01*
X144525753Y-95001684D01*
X144452336Y-95178931D01*
X142833292Y-95178931D01*
X142759875Y-95001684D01*
X142052294Y-94294103D01*
X141875047Y-94220686D01*
X141697799Y-94294104D01*
X140990219Y-95001684D01*
X140916802Y-95178931D01*
X139297758Y-95178931D01*
X139224341Y-95001684D01*
X138516760Y-94294103D01*
X138339513Y-94220686D01*
X138162265Y-94294104D01*
X137454685Y-95001684D01*
X137381268Y-95178931D01*
X135762224Y-95178931D01*
X135688807Y-95001684D01*
X134981226Y-94294103D01*
X134803979Y-94220686D01*
X134626731Y-94294104D01*
X133919151Y-95001684D01*
X133845734Y-95178931D01*
X131785405Y-95178931D01*
X131795161Y-95092329D01*
X131822226Y-95027918D01*
X131830690Y-95018543D01*
X133438070Y-93411164D01*
X135613501Y-93411164D01*
X135686919Y-93588412D01*
X136394498Y-94295991D01*
X136571746Y-94369409D01*
X136748993Y-94295992D01*
X137456573Y-93588412D01*
X137529991Y-93411164D01*
X139149035Y-93411164D01*
X139222453Y-93588412D01*
X139930032Y-94295991D01*
X140107280Y-94369409D01*
X140284527Y-94295992D01*
X140992107Y-93588412D01*
X141065525Y-93411164D01*
X142684569Y-93411164D01*
X142757987Y-93588412D01*
X143465566Y-94295991D01*
X143642814Y-94369409D01*
X143820061Y-94295992D01*
X144527641Y-93588412D01*
X144601059Y-93411164D01*
X146220103Y-93411164D01*
X146293521Y-93588412D01*
X147001100Y-94295991D01*
X147178348Y-94369409D01*
X147355595Y-94295991D01*
X148063175Y-93588412D01*
X148136593Y-93411164D01*
X148063176Y-93233917D01*
X147427758Y-92598500D01*
X146928938Y-92598500D01*
X146293520Y-93233917D01*
X146220103Y-93411164D01*
X144601059Y-93411164D01*
X144527642Y-93233917D01*
X143892225Y-92598500D01*
X143393404Y-92598500D01*
X142757986Y-93233917D01*
X142684569Y-93411164D01*
X141065525Y-93411164D01*
X140992108Y-93233917D01*
X140356691Y-92598500D01*
X139857870Y-92598500D01*
X139222452Y-93233917D01*
X139149035Y-93411164D01*
X137529991Y-93411164D01*
X137456574Y-93233917D01*
X136821157Y-92598500D01*
X136322336Y-92598500D01*
X135686918Y-93233917D01*
X135613501Y-93411164D01*
X133438070Y-93411164D01*
X135212416Y-91636819D01*
X135273739Y-91603334D01*
X135300097Y-91600500D01*
X148417588Y-91600500D01*
X148484627Y-91620185D01*
X148494903Y-91627555D01*
X148497736Y-91629814D01*
X148497738Y-91629816D01*
X148650478Y-91725789D01*
X148820745Y-91785368D01*
X148820750Y-91785369D01*
X148999996Y-91805565D01*
X149000000Y-91805565D01*
X149000004Y-91805565D01*
X149179249Y-91785369D01*
X149179252Y-91785368D01*
X149179255Y-91785368D01*
X149349522Y-91725789D01*
X149502262Y-91629816D01*
X149629816Y-91502262D01*
X149670506Y-91437503D01*
X149722841Y-91391213D01*
X149791894Y-91380565D01*
X149855743Y-91408940D01*
X149894115Y-91467330D01*
X149899500Y-91503476D01*
X149899500Y-93417587D01*
X149879815Y-93484626D01*
X149872450Y-93494896D01*
X149870186Y-93497734D01*
X149774211Y-93650476D01*
X149714631Y-93820745D01*
X149714630Y-93820750D01*
X149694435Y-93999996D01*
X149694435Y-94000003D01*
X149714630Y-94179249D01*
X149714631Y-94179254D01*
X149774211Y-94349523D01*
X149789598Y-94374011D01*
X149870184Y-94502262D01*
X149997738Y-94629816D01*
X150088080Y-94686582D01*
X150128658Y-94712079D01*
X150150478Y-94725789D01*
X150222427Y-94750965D01*
X150320745Y-94785368D01*
X150320750Y-94785369D01*
X150499996Y-94805565D01*
X150500000Y-94805565D01*
X150500004Y-94805565D01*
X150679249Y-94785369D01*
X150679252Y-94785368D01*
X150679255Y-94785368D01*
X150849522Y-94725789D01*
X151002262Y-94629816D01*
X151129816Y-94502262D01*
X151225789Y-94349522D01*
X151285368Y-94179255D01*
X151293206Y-94109691D01*
X151320272Y-94045276D01*
X151377866Y-94005721D01*
X151447703Y-94003582D01*
X151493743Y-94026629D01*
X151497731Y-94029809D01*
X151497738Y-94029816D01*
X151650478Y-94125789D01*
X151774820Y-94169298D01*
X151820745Y-94185368D01*
X151820750Y-94185369D01*
X151999996Y-94205565D01*
X152000000Y-94205565D01*
X152000004Y-94205565D01*
X152179249Y-94185369D01*
X152179252Y-94185368D01*
X152179255Y-94185368D01*
X152349522Y-94125789D01*
X152502262Y-94029816D01*
X152591859Y-93940219D01*
X153716396Y-93940219D01*
X154072168Y-94295991D01*
X154249416Y-94369409D01*
X154426663Y-94295991D01*
X155134242Y-93588412D01*
X155207661Y-93411164D01*
X155134242Y-93233916D01*
X154426663Y-92526337D01*
X154249416Y-92452919D01*
X154072168Y-92526337D01*
X153722183Y-92876321D01*
X153736616Y-92917566D01*
X153738728Y-92924193D01*
X153750381Y-92964642D01*
X153752119Y-92971379D01*
X153764582Y-93025989D01*
X153765938Y-93032809D01*
X153772986Y-93074293D01*
X153773958Y-93081180D01*
X153800425Y-93316092D01*
X153801010Y-93323021D01*
X153803370Y-93365039D01*
X153803565Y-93371993D01*
X153803565Y-93428007D01*
X153803370Y-93434961D01*
X153801010Y-93476979D01*
X153800425Y-93483908D01*
X153773958Y-93718820D01*
X153772986Y-93725707D01*
X153765938Y-93767191D01*
X153764582Y-93774011D01*
X153752119Y-93828621D01*
X153750381Y-93835358D01*
X153738728Y-93875807D01*
X153736616Y-93882435D01*
X153716396Y-93940219D01*
X152591859Y-93940219D01*
X152629816Y-93902262D01*
X152725789Y-93749522D01*
X152785368Y-93579255D01*
X152785369Y-93579249D01*
X152805565Y-93400003D01*
X152805565Y-93399996D01*
X152785369Y-93220750D01*
X152785368Y-93220745D01*
X152725788Y-93050476D01*
X152692645Y-92997730D01*
X152629816Y-92897738D01*
X152629814Y-92897736D01*
X152629813Y-92897734D01*
X152627550Y-92894896D01*
X152626659Y-92892715D01*
X152626111Y-92891842D01*
X152626264Y-92891745D01*
X152601144Y-92830209D01*
X152600500Y-92817587D01*
X152600500Y-91643397D01*
X155058937Y-91643397D01*
X155132355Y-91820645D01*
X155839935Y-92528224D01*
X156017183Y-92601642D01*
X156194430Y-92528224D01*
X156876000Y-91846655D01*
X156876000Y-91440140D01*
X156194430Y-90758570D01*
X156017183Y-90685152D01*
X155839935Y-90758570D01*
X155132354Y-91466150D01*
X155058937Y-91643397D01*
X152600500Y-91643397D01*
X152600500Y-89464471D01*
X153598500Y-89464471D01*
X153598500Y-90286789D01*
X154072168Y-90760457D01*
X154249416Y-90833875D01*
X154426663Y-90760457D01*
X155134242Y-90052878D01*
X155207661Y-89875630D01*
X155134242Y-89698382D01*
X154426663Y-88990803D01*
X154249416Y-88917385D01*
X154072168Y-88990803D01*
X153598500Y-89464471D01*
X152600500Y-89464471D01*
X152600500Y-88107863D01*
X155058937Y-88107863D01*
X155132355Y-88285111D01*
X155839935Y-88992690D01*
X156017183Y-89066108D01*
X156194430Y-88992690D01*
X156876000Y-88311121D01*
X156876000Y-87904606D01*
X156194430Y-87223036D01*
X156017183Y-87149618D01*
X155839935Y-87223036D01*
X155132354Y-87930616D01*
X155058937Y-88107863D01*
X152600500Y-88107863D01*
X152600500Y-87582412D01*
X152620185Y-87515373D01*
X152627555Y-87505097D01*
X152629812Y-87502266D01*
X152629816Y-87502262D01*
X152725789Y-87349522D01*
X152785368Y-87179255D01*
X152785369Y-87179249D01*
X152805565Y-87000003D01*
X152805565Y-86999996D01*
X152785369Y-86820750D01*
X152785368Y-86820745D01*
X152725788Y-86650476D01*
X152645006Y-86521913D01*
X152629816Y-86497738D01*
X152502262Y-86370184D01*
X152381688Y-86294422D01*
X152349523Y-86274211D01*
X152179254Y-86214631D01*
X152179249Y-86214630D01*
X152000004Y-86194435D01*
X151999996Y-86194435D01*
X151820750Y-86214630D01*
X151820745Y-86214631D01*
X151650476Y-86274211D01*
X151497737Y-86370184D01*
X151370184Y-86497737D01*
X151354994Y-86521913D01*
X151302659Y-86568204D01*
X151233605Y-86578852D01*
X151169757Y-86550477D01*
X151145006Y-86521913D01*
X151129815Y-86497737D01*
X151002262Y-86370184D01*
X150849523Y-86274211D01*
X150679254Y-86214631D01*
X150679249Y-86214630D01*
X150500004Y-86194435D01*
X150499996Y-86194435D01*
X150320750Y-86214630D01*
X150320745Y-86214631D01*
X150150476Y-86274211D01*
X149997737Y-86370184D01*
X149870184Y-86497737D01*
X149774211Y-86650476D01*
X149714631Y-86820745D01*
X149714630Y-86820750D01*
X149694435Y-86999996D01*
X149694435Y-87000003D01*
X149714630Y-87179249D01*
X149714631Y-87179254D01*
X149774211Y-87349523D01*
X149870185Y-87502263D01*
X149872445Y-87505097D01*
X149873334Y-87507275D01*
X149873889Y-87508158D01*
X149873734Y-87508255D01*
X149898855Y-87569783D01*
X149899500Y-87582412D01*
X149899500Y-90496523D01*
X149879815Y-90563562D01*
X149827011Y-90609317D01*
X149757853Y-90619261D01*
X149694297Y-90590236D01*
X149670507Y-90562496D01*
X149629817Y-90497739D01*
X149502262Y-90370184D01*
X149349523Y-90274211D01*
X149179254Y-90214631D01*
X149179249Y-90214630D01*
X149000004Y-90194435D01*
X148999996Y-90194435D01*
X148820750Y-90214630D01*
X148820745Y-90214631D01*
X148650476Y-90274211D01*
X148497736Y-90370185D01*
X148494903Y-90372445D01*
X148492724Y-90373334D01*
X148491842Y-90373889D01*
X148491744Y-90373734D01*
X148430217Y-90398855D01*
X148417588Y-90399500D01*
X135079057Y-90399500D01*
X134920942Y-90399500D01*
X134768215Y-90440423D01*
X134768214Y-90440423D01*
X134768212Y-90440424D01*
X134768209Y-90440425D01*
X134733066Y-90460716D01*
X134733064Y-90460717D01*
X134631290Y-90519475D01*
X134631282Y-90519481D01*
X134519478Y-90631286D01*
X130981465Y-94169298D01*
X130920142Y-94202783D01*
X130907668Y-94204837D01*
X130820750Y-94214630D01*
X130650478Y-94274210D01*
X130497737Y-94370184D01*
X130370184Y-94497737D01*
X130274211Y-94650476D01*
X130214631Y-94820745D01*
X130214630Y-94820750D01*
X130194435Y-94999996D01*
X130194435Y-95000003D01*
X130214630Y-95179249D01*
X130214631Y-95179254D01*
X130274211Y-95349523D01*
X130370185Y-95502263D01*
X130372445Y-95505097D01*
X130373334Y-95507275D01*
X130373889Y-95508158D01*
X130373734Y-95508255D01*
X130398855Y-95569783D01*
X130399500Y-95582412D01*
X130399500Y-98199903D01*
X130379815Y-98266942D01*
X130363181Y-98287584D01*
X124787584Y-103863181D01*
X124726261Y-103896666D01*
X124699903Y-103899500D01*
X120400909Y-103899500D01*
X120333870Y-103879815D01*
X120288115Y-103827011D01*
X120283867Y-103816455D01*
X120269011Y-103774000D01*
X120225789Y-103650478D01*
X120129816Y-103497738D01*
X120002262Y-103370184D01*
X119849523Y-103274211D01*
X119679254Y-103214631D01*
X119679249Y-103214630D01*
X119500004Y-103194435D01*
X119499996Y-103194435D01*
X119320750Y-103214630D01*
X119320745Y-103214631D01*
X119150476Y-103274211D01*
X118997737Y-103370184D01*
X118870184Y-103497737D01*
X118774211Y-103650476D01*
X118714631Y-103820745D01*
X118714630Y-103820750D01*
X118694435Y-103999996D01*
X116500000Y-103999996D01*
X116500000Y-102214707D01*
X119718216Y-102214707D01*
X119818820Y-102226042D01*
X119825707Y-102227014D01*
X119867191Y-102234062D01*
X119874011Y-102235418D01*
X119928621Y-102247881D01*
X119935358Y-102249619D01*
X119975807Y-102261272D01*
X119982434Y-102263384D01*
X120205578Y-102341465D01*
X120212079Y-102343947D01*
X120250965Y-102360055D01*
X120257312Y-102362895D01*
X120307779Y-102387199D01*
X120313959Y-102390392D01*
X120350790Y-102410748D01*
X120356780Y-102414281D01*
X120556948Y-102540056D01*
X120562733Y-102543922D01*
X120597061Y-102568280D01*
X120602618Y-102572462D01*
X120646410Y-102607386D01*
X120651724Y-102611873D01*
X120683100Y-102639913D01*
X120688153Y-102644691D01*
X120855309Y-102811847D01*
X120860087Y-102816900D01*
X120888127Y-102848276D01*
X120892614Y-102853590D01*
X120927538Y-102897382D01*
X120930637Y-102901500D01*
X121072418Y-102901500D01*
X121546671Y-102427246D01*
X121620088Y-102249999D01*
X123239132Y-102249999D01*
X123312549Y-102427246D01*
X123786803Y-102901500D01*
X124337881Y-102901500D01*
X124790676Y-102448702D01*
X124780566Y-102420923D01*
X124710143Y-102021532D01*
X124710143Y-101978468D01*
X124751780Y-101742327D01*
X124374625Y-101365172D01*
X124197377Y-101291754D01*
X124020130Y-101365171D01*
X123312550Y-102072751D01*
X123239132Y-102249999D01*
X121620088Y-102249999D01*
X121546670Y-102072751D01*
X120839091Y-101365172D01*
X120661843Y-101291754D01*
X120484596Y-101365171D01*
X119777016Y-102072751D01*
X119718216Y-102214707D01*
X116500000Y-102214707D01*
X116500000Y-100482232D01*
X117935831Y-100482232D01*
X118009249Y-100659480D01*
X118716829Y-101367060D01*
X118894076Y-101440477D01*
X119071324Y-101367059D01*
X119778903Y-100659480D01*
X119852321Y-100482232D01*
X121471365Y-100482232D01*
X121544783Y-100659480D01*
X122252363Y-101367060D01*
X122429610Y-101440477D01*
X122606858Y-101367059D01*
X123314437Y-100659480D01*
X123387855Y-100482232D01*
X125006899Y-100482232D01*
X125080317Y-100659480D01*
X125324532Y-100903695D01*
X125336425Y-100893717D01*
X125373719Y-100872185D01*
X125754813Y-100733478D01*
X125797224Y-100726000D01*
X126202776Y-100726000D01*
X126245187Y-100733478D01*
X126436330Y-100803048D01*
X126874698Y-100364681D01*
X126849971Y-100304984D01*
X126142392Y-99597405D01*
X125965144Y-99523987D01*
X125787897Y-99597404D01*
X125080316Y-100304985D01*
X125006899Y-100482232D01*
X123387855Y-100482232D01*
X123314438Y-100304985D01*
X122606858Y-99597405D01*
X122429610Y-99523987D01*
X122252363Y-99597404D01*
X121544782Y-100304985D01*
X121471365Y-100482232D01*
X119852321Y-100482232D01*
X119778904Y-100304985D01*
X119071324Y-99597405D01*
X118894076Y-99523987D01*
X118716829Y-99597404D01*
X118009248Y-100304985D01*
X117935831Y-100482232D01*
X116500000Y-100482232D01*
X116500000Y-98714465D01*
X119703598Y-98714465D01*
X119777016Y-98891713D01*
X120484596Y-99599293D01*
X120661843Y-99672710D01*
X120839091Y-99599292D01*
X121546670Y-98891713D01*
X121620088Y-98714465D01*
X123239132Y-98714465D01*
X123312550Y-98891713D01*
X124020130Y-99599293D01*
X124197377Y-99672710D01*
X124374625Y-99599292D01*
X125082204Y-98891713D01*
X125155622Y-98714465D01*
X126774666Y-98714465D01*
X126848084Y-98891713D01*
X127555663Y-99599292D01*
X127615360Y-99624019D01*
X128642465Y-98596914D01*
X128617738Y-98537217D01*
X127910159Y-97829638D01*
X127732911Y-97756220D01*
X127555664Y-97829637D01*
X126848083Y-98537218D01*
X126774666Y-98714465D01*
X125155622Y-98714465D01*
X125082205Y-98537218D01*
X124374625Y-97829638D01*
X124197377Y-97756220D01*
X124020130Y-97829637D01*
X123312549Y-98537218D01*
X123239132Y-98714465D01*
X121620088Y-98714465D01*
X121546671Y-98537218D01*
X120839091Y-97829638D01*
X120661843Y-97756220D01*
X120484596Y-97829637D01*
X119777015Y-98537218D01*
X119703598Y-98714465D01*
X116500000Y-98714465D01*
X116500000Y-96946698D01*
X117935831Y-96946698D01*
X118009249Y-97123946D01*
X118716829Y-97831526D01*
X118894076Y-97904943D01*
X119071324Y-97831525D01*
X119778903Y-97123946D01*
X119852321Y-96946698D01*
X121471365Y-96946698D01*
X121544783Y-97123946D01*
X122252363Y-97831526D01*
X122429610Y-97904943D01*
X122606858Y-97831525D01*
X123314437Y-97123946D01*
X123387855Y-96946698D01*
X125006899Y-96946698D01*
X125080317Y-97123946D01*
X125787897Y-97831526D01*
X125965144Y-97904943D01*
X126142392Y-97831525D01*
X126849971Y-97123946D01*
X126923389Y-96946698D01*
X128542433Y-96946698D01*
X128615851Y-97123946D01*
X129323430Y-97831525D01*
X129383126Y-97856252D01*
X129401500Y-97837879D01*
X129401500Y-96029534D01*
X129323431Y-96061870D01*
X128615850Y-96769451D01*
X128542433Y-96946698D01*
X126923389Y-96946698D01*
X126849972Y-96769451D01*
X126142392Y-96061871D01*
X125965144Y-95988453D01*
X125787897Y-96061870D01*
X125080316Y-96769451D01*
X125006899Y-96946698D01*
X123387855Y-96946698D01*
X123314438Y-96769451D01*
X122606858Y-96061871D01*
X122429610Y-95988453D01*
X122252363Y-96061870D01*
X121544782Y-96769451D01*
X121471365Y-96946698D01*
X119852321Y-96946698D01*
X119778904Y-96769451D01*
X119071324Y-96061871D01*
X118894076Y-95988453D01*
X118716829Y-96061870D01*
X118009248Y-96769451D01*
X117935831Y-96946698D01*
X116500000Y-96946698D01*
X116500000Y-95178931D01*
X119703598Y-95178931D01*
X119777016Y-95356179D01*
X120484596Y-96063759D01*
X120661843Y-96137176D01*
X120839091Y-96063758D01*
X121546670Y-95356179D01*
X121620088Y-95178931D01*
X123239132Y-95178931D01*
X123312550Y-95356179D01*
X124020130Y-96063759D01*
X124197377Y-96137176D01*
X124374625Y-96063758D01*
X125082204Y-95356179D01*
X125155622Y-95178931D01*
X126774666Y-95178931D01*
X126848084Y-95356179D01*
X127555664Y-96063759D01*
X127732911Y-96137176D01*
X127910159Y-96063758D01*
X128617738Y-95356179D01*
X128691156Y-95178931D01*
X128617739Y-95001684D01*
X127910159Y-94294104D01*
X127732911Y-94220686D01*
X127555664Y-94294103D01*
X126848083Y-95001684D01*
X126774666Y-95178931D01*
X125155622Y-95178931D01*
X125082205Y-95001684D01*
X124374625Y-94294104D01*
X124197377Y-94220686D01*
X124020130Y-94294103D01*
X123312549Y-95001684D01*
X123239132Y-95178931D01*
X121620088Y-95178931D01*
X121546671Y-95001684D01*
X120839091Y-94294104D01*
X120661843Y-94220686D01*
X120484596Y-94294103D01*
X119777015Y-95001684D01*
X119703598Y-95178931D01*
X116500000Y-95178931D01*
X116500000Y-93411164D01*
X117935831Y-93411164D01*
X118009249Y-93588412D01*
X118716829Y-94295992D01*
X118894076Y-94369409D01*
X119071324Y-94295991D01*
X119778903Y-93588412D01*
X119852321Y-93411164D01*
X121471365Y-93411164D01*
X121544783Y-93588412D01*
X122252363Y-94295992D01*
X122429610Y-94369409D01*
X122606858Y-94295991D01*
X123314437Y-93588412D01*
X123387855Y-93411164D01*
X125006899Y-93411164D01*
X125080317Y-93588412D01*
X125787897Y-94295992D01*
X125965144Y-94369409D01*
X126142392Y-94295991D01*
X126849971Y-93588412D01*
X126923389Y-93411164D01*
X128542433Y-93411164D01*
X128615851Y-93588412D01*
X129323430Y-94295991D01*
X129338702Y-94302317D01*
X129341466Y-94294421D01*
X129343947Y-94287921D01*
X129360055Y-94249035D01*
X129362895Y-94242688D01*
X129387199Y-94192221D01*
X129390392Y-94186041D01*
X129410748Y-94149210D01*
X129414281Y-94143220D01*
X129540056Y-93943052D01*
X129543922Y-93937267D01*
X129568280Y-93902939D01*
X129572462Y-93897382D01*
X129607386Y-93853590D01*
X129611873Y-93848276D01*
X129639913Y-93816900D01*
X129644691Y-93811847D01*
X129811847Y-93644691D01*
X129816900Y-93639913D01*
X129848276Y-93611873D01*
X129853590Y-93607386D01*
X129897382Y-93572462D01*
X129902939Y-93568280D01*
X129937267Y-93543922D01*
X129943052Y-93540056D01*
X130143220Y-93414281D01*
X130149210Y-93410748D01*
X130186041Y-93390392D01*
X130192221Y-93387199D01*
X130242688Y-93362895D01*
X130249036Y-93360055D01*
X130287925Y-93343946D01*
X130294425Y-93341464D01*
X130412884Y-93300013D01*
X130385506Y-93233917D01*
X129677926Y-92526337D01*
X129500678Y-92452919D01*
X129323431Y-92526336D01*
X128615850Y-93233917D01*
X128542433Y-93411164D01*
X126923389Y-93411164D01*
X126849972Y-93233917D01*
X126142392Y-92526337D01*
X125965144Y-92452919D01*
X125787897Y-92526336D01*
X125080316Y-93233917D01*
X125006899Y-93411164D01*
X123387855Y-93411164D01*
X123314438Y-93233917D01*
X122606858Y-92526337D01*
X122429610Y-92452919D01*
X122252363Y-92526336D01*
X121544782Y-93233917D01*
X121471365Y-93411164D01*
X119852321Y-93411164D01*
X119778904Y-93233917D01*
X119071324Y-92526337D01*
X118894076Y-92452919D01*
X118716829Y-92526336D01*
X118009248Y-93233917D01*
X117935831Y-93411164D01*
X116500000Y-93411164D01*
X116500000Y-91643397D01*
X119703598Y-91643397D01*
X119777016Y-91820645D01*
X120484596Y-92528225D01*
X120661843Y-92601642D01*
X120839091Y-92528224D01*
X121546670Y-91820645D01*
X121620088Y-91643397D01*
X123239132Y-91643397D01*
X123312550Y-91820645D01*
X124020130Y-92528225D01*
X124197377Y-92601642D01*
X124374625Y-92528224D01*
X125082204Y-91820645D01*
X125155622Y-91643397D01*
X126774666Y-91643397D01*
X126848084Y-91820645D01*
X127555664Y-92528225D01*
X127732911Y-92601642D01*
X127910159Y-92528224D01*
X128617738Y-91820645D01*
X128691156Y-91643397D01*
X130310200Y-91643397D01*
X130383618Y-91820645D01*
X131091197Y-92528224D01*
X131176019Y-92563358D01*
X132188406Y-91550971D01*
X132153272Y-91466149D01*
X131445693Y-90758570D01*
X131268445Y-90685152D01*
X131091198Y-90758569D01*
X130383617Y-91466150D01*
X130310200Y-91643397D01*
X128691156Y-91643397D01*
X128617739Y-91466150D01*
X127910159Y-90758570D01*
X127732911Y-90685152D01*
X127555664Y-90758569D01*
X126848083Y-91466150D01*
X126774666Y-91643397D01*
X125155622Y-91643397D01*
X125082205Y-91466150D01*
X124374625Y-90758570D01*
X124197377Y-90685152D01*
X124020130Y-90758569D01*
X123312549Y-91466150D01*
X123239132Y-91643397D01*
X121620088Y-91643397D01*
X121546671Y-91466150D01*
X120839091Y-90758570D01*
X120661843Y-90685152D01*
X120484596Y-90758569D01*
X119777015Y-91466150D01*
X119703598Y-91643397D01*
X116500000Y-91643397D01*
X116500000Y-89875630D01*
X117935831Y-89875630D01*
X118009249Y-90052878D01*
X118716829Y-90760458D01*
X118894076Y-90833875D01*
X119071324Y-90760457D01*
X119778903Y-90052878D01*
X119852321Y-89875630D01*
X121471365Y-89875630D01*
X121544783Y-90052878D01*
X122252363Y-90760458D01*
X122429610Y-90833875D01*
X122606858Y-90760457D01*
X123314437Y-90052878D01*
X123387855Y-89875630D01*
X125006899Y-89875630D01*
X125080317Y-90052878D01*
X125787897Y-90760458D01*
X125965144Y-90833875D01*
X126142392Y-90760457D01*
X126849971Y-90052878D01*
X126923389Y-89875630D01*
X128542433Y-89875630D01*
X128615851Y-90052878D01*
X129323431Y-90760458D01*
X129500678Y-90833875D01*
X129677926Y-90760457D01*
X130385505Y-90052878D01*
X130458923Y-89875630D01*
X132077967Y-89875630D01*
X132151385Y-90052878D01*
X132858964Y-90760457D01*
X132943786Y-90795591D01*
X133813786Y-89925594D01*
X133948697Y-89790683D01*
X133954618Y-89785137D01*
X133956346Y-89783621D01*
X133921039Y-89698382D01*
X133213459Y-88990802D01*
X133036212Y-88917385D01*
X132858964Y-88990803D01*
X132151384Y-89698383D01*
X132077967Y-89875630D01*
X130458923Y-89875630D01*
X130385506Y-89698383D01*
X129677926Y-88990803D01*
X129500678Y-88917385D01*
X129323431Y-88990802D01*
X128615850Y-89698383D01*
X128542433Y-89875630D01*
X126923389Y-89875630D01*
X126849972Y-89698383D01*
X126142392Y-88990803D01*
X125965144Y-88917385D01*
X125787897Y-88990802D01*
X125080316Y-89698383D01*
X125006899Y-89875630D01*
X123387855Y-89875630D01*
X123314438Y-89698383D01*
X122606858Y-88990803D01*
X122429610Y-88917385D01*
X122252363Y-88990802D01*
X121544782Y-89698383D01*
X121471365Y-89875630D01*
X119852321Y-89875630D01*
X119778904Y-89698383D01*
X119071324Y-88990803D01*
X118894076Y-88917385D01*
X118716829Y-88990802D01*
X118009248Y-89698383D01*
X117935831Y-89875630D01*
X116500000Y-89875630D01*
X116500000Y-88107863D01*
X119703598Y-88107863D01*
X119777016Y-88285111D01*
X120484596Y-88992691D01*
X120661843Y-89066108D01*
X120839091Y-88992690D01*
X121546670Y-88285111D01*
X121620088Y-88107863D01*
X123239132Y-88107863D01*
X123312550Y-88285111D01*
X124020130Y-88992691D01*
X124197377Y-89066108D01*
X124374625Y-88992690D01*
X125082204Y-88285111D01*
X125155622Y-88107863D01*
X126774666Y-88107863D01*
X126848084Y-88285111D01*
X127555664Y-88992691D01*
X127732911Y-89066108D01*
X127910159Y-88992690D01*
X128617738Y-88285111D01*
X128691156Y-88107863D01*
X130310200Y-88107863D01*
X130383618Y-88285111D01*
X131091198Y-88992691D01*
X131268445Y-89066108D01*
X131445693Y-88992690D01*
X132153272Y-88285111D01*
X132226690Y-88107863D01*
X133845734Y-88107863D01*
X133919152Y-88285111D01*
X134626731Y-88992690D01*
X134803979Y-89066108D01*
X134981226Y-88992691D01*
X135688806Y-88285111D01*
X135762224Y-88107863D01*
X137381268Y-88107863D01*
X137454686Y-88285111D01*
X138162265Y-88992690D01*
X138339513Y-89066108D01*
X138516760Y-88992691D01*
X139224340Y-88285111D01*
X139297758Y-88107863D01*
X140916802Y-88107863D01*
X140990220Y-88285111D01*
X141697799Y-88992690D01*
X141875047Y-89066108D01*
X142052294Y-88992691D01*
X142759874Y-88285111D01*
X142833292Y-88107863D01*
X144452336Y-88107863D01*
X144525754Y-88285111D01*
X144605128Y-88364485D01*
X144626282Y-88372185D01*
X144663577Y-88393718D01*
X144974248Y-88654402D01*
X145001929Y-88687391D01*
X145102871Y-88862228D01*
X145233333Y-88992690D01*
X145410581Y-89066108D01*
X145587828Y-88992691D01*
X146295408Y-88285111D01*
X146368826Y-88107863D01*
X147987869Y-88107863D01*
X148061288Y-88285111D01*
X148768867Y-88992690D01*
X148901500Y-89047628D01*
X148901500Y-87834057D01*
X148890392Y-87813959D01*
X148887199Y-87807779D01*
X148862895Y-87757312D01*
X148860055Y-87750965D01*
X148843947Y-87712079D01*
X148841465Y-87705578D01*
X148763384Y-87482434D01*
X148761272Y-87475807D01*
X148749619Y-87435358D01*
X148747881Y-87428621D01*
X148735418Y-87374011D01*
X148734062Y-87367191D01*
X148727014Y-87325707D01*
X148726042Y-87318820D01*
X148720679Y-87271224D01*
X148061288Y-87930615D01*
X147987869Y-88107863D01*
X146368826Y-88107863D01*
X146295409Y-87930616D01*
X145587828Y-87223035D01*
X145410581Y-87149618D01*
X145233333Y-87223036D01*
X144525753Y-87930616D01*
X144452336Y-88107863D01*
X142833292Y-88107863D01*
X142759875Y-87930616D01*
X142052294Y-87223035D01*
X141875047Y-87149618D01*
X141697799Y-87223036D01*
X140990219Y-87930616D01*
X140916802Y-88107863D01*
X139297758Y-88107863D01*
X139224341Y-87930616D01*
X138516760Y-87223035D01*
X138339513Y-87149618D01*
X138162265Y-87223036D01*
X137454685Y-87930616D01*
X137381268Y-88107863D01*
X135762224Y-88107863D01*
X135688807Y-87930616D01*
X134981226Y-87223035D01*
X134803979Y-87149618D01*
X134626731Y-87223036D01*
X133919151Y-87930616D01*
X133845734Y-88107863D01*
X132226690Y-88107863D01*
X132153273Y-87930616D01*
X131445693Y-87223036D01*
X131268445Y-87149618D01*
X131091198Y-87223035D01*
X130383617Y-87930616D01*
X130310200Y-88107863D01*
X128691156Y-88107863D01*
X128617739Y-87930616D01*
X127910159Y-87223036D01*
X127732911Y-87149618D01*
X127555664Y-87223035D01*
X126848083Y-87930616D01*
X126774666Y-88107863D01*
X125155622Y-88107863D01*
X125082205Y-87930616D01*
X124374625Y-87223036D01*
X124197377Y-87149618D01*
X124020130Y-87223035D01*
X123312549Y-87930616D01*
X123239132Y-88107863D01*
X121620088Y-88107863D01*
X121546671Y-87930616D01*
X120839091Y-87223036D01*
X120661843Y-87149618D01*
X120484596Y-87223035D01*
X119777015Y-87930616D01*
X119703598Y-88107863D01*
X116500000Y-88107863D01*
X116500000Y-86340097D01*
X117935831Y-86340097D01*
X118009249Y-86517344D01*
X118716829Y-87224924D01*
X118894076Y-87298341D01*
X119071324Y-87224923D01*
X119778903Y-86517344D01*
X119852321Y-86340097D01*
X121471365Y-86340097D01*
X121544783Y-86517344D01*
X122252363Y-87224924D01*
X122429610Y-87298341D01*
X122606858Y-87224923D01*
X123314437Y-86517344D01*
X123387855Y-86340097D01*
X125006899Y-86340097D01*
X125080317Y-86517344D01*
X125787897Y-87224924D01*
X125965144Y-87298341D01*
X126142392Y-87224923D01*
X126849971Y-86517344D01*
X126923389Y-86340097D01*
X128542433Y-86340097D01*
X128615851Y-86517344D01*
X129323431Y-87224924D01*
X129500678Y-87298341D01*
X129677926Y-87224923D01*
X130385505Y-86517344D01*
X130458923Y-86340097D01*
X132077967Y-86340097D01*
X132151385Y-86517344D01*
X132858964Y-87224923D01*
X133036212Y-87298341D01*
X133213459Y-87224924D01*
X133921039Y-86517344D01*
X133994457Y-86340097D01*
X135613501Y-86340097D01*
X135686919Y-86517344D01*
X136394498Y-87224923D01*
X136571746Y-87298341D01*
X136748993Y-87224924D01*
X137456573Y-86517344D01*
X137529991Y-86340097D01*
X139149035Y-86340097D01*
X139222453Y-86517344D01*
X139930032Y-87224923D01*
X140107280Y-87298341D01*
X140284527Y-87224924D01*
X140992107Y-86517344D01*
X141065525Y-86340097D01*
X142684569Y-86340097D01*
X142757987Y-86517344D01*
X143465566Y-87224923D01*
X143642814Y-87298341D01*
X143820061Y-87224924D01*
X144527641Y-86517344D01*
X144601059Y-86340097D01*
X146220103Y-86340097D01*
X146293521Y-86517344D01*
X147001100Y-87224923D01*
X147178348Y-87298341D01*
X147355595Y-87224923D01*
X148063175Y-86517344D01*
X148136593Y-86340097D01*
X148063175Y-86162849D01*
X147919799Y-86019473D01*
X153507963Y-86019473D01*
X153585719Y-86143220D01*
X153589252Y-86149210D01*
X153609608Y-86186041D01*
X153612801Y-86192221D01*
X153637105Y-86242688D01*
X153639945Y-86249035D01*
X153656053Y-86287921D01*
X153658535Y-86294422D01*
X153736616Y-86517566D01*
X153738728Y-86524193D01*
X153750381Y-86564642D01*
X153752119Y-86571379D01*
X153764582Y-86625989D01*
X153765938Y-86632809D01*
X153772986Y-86674293D01*
X153773958Y-86681180D01*
X153800425Y-86916092D01*
X153801010Y-86923021D01*
X153802839Y-86955594D01*
X154072168Y-87224923D01*
X154249416Y-87298341D01*
X154426663Y-87224923D01*
X155134242Y-86517344D01*
X155207661Y-86340097D01*
X155134242Y-86162849D01*
X154426663Y-85455269D01*
X154249416Y-85381851D01*
X154072168Y-85455269D01*
X153507963Y-86019473D01*
X147919799Y-86019473D01*
X147355595Y-85455269D01*
X147178348Y-85381851D01*
X147001100Y-85455269D01*
X146293521Y-86162849D01*
X146220103Y-86340097D01*
X144601059Y-86340097D01*
X144527641Y-86162849D01*
X143820061Y-85455268D01*
X143642814Y-85381851D01*
X143465566Y-85455269D01*
X142757987Y-86162849D01*
X142684569Y-86340097D01*
X141065525Y-86340097D01*
X140992107Y-86162849D01*
X140284527Y-85455268D01*
X140107280Y-85381851D01*
X139930032Y-85455269D01*
X139222453Y-86162849D01*
X139149035Y-86340097D01*
X137529991Y-86340097D01*
X137456573Y-86162849D01*
X136748993Y-85455268D01*
X136571746Y-85381851D01*
X136394498Y-85455269D01*
X135686919Y-86162849D01*
X135613501Y-86340097D01*
X133994457Y-86340097D01*
X133921039Y-86162849D01*
X133213459Y-85455268D01*
X133036212Y-85381851D01*
X132858964Y-85455269D01*
X132151385Y-86162849D01*
X132077967Y-86340097D01*
X130458923Y-86340097D01*
X130385505Y-86162849D01*
X129677926Y-85455269D01*
X129500678Y-85381851D01*
X129323431Y-85455268D01*
X128615851Y-86162849D01*
X128542433Y-86340097D01*
X126923389Y-86340097D01*
X126849971Y-86162849D01*
X126142392Y-85455269D01*
X125965144Y-85381851D01*
X125787897Y-85455268D01*
X125080317Y-86162849D01*
X125006899Y-86340097D01*
X123387855Y-86340097D01*
X123314437Y-86162849D01*
X122606858Y-85455269D01*
X122429610Y-85381851D01*
X122252363Y-85455268D01*
X121544783Y-86162849D01*
X121471365Y-86340097D01*
X119852321Y-86340097D01*
X119778903Y-86162849D01*
X119071324Y-85455269D01*
X118894076Y-85381851D01*
X118716829Y-85455268D01*
X118009249Y-86162849D01*
X117935831Y-86340097D01*
X116500000Y-86340097D01*
X116500000Y-84572330D01*
X119703598Y-84572330D01*
X119777016Y-84749577D01*
X120484595Y-85457156D01*
X120661843Y-85530575D01*
X120839091Y-85457156D01*
X121546670Y-84749577D01*
X121620088Y-84572330D01*
X123239132Y-84572330D01*
X123312550Y-84749577D01*
X124020129Y-85457156D01*
X124197377Y-85530575D01*
X124374625Y-85457156D01*
X125082204Y-84749577D01*
X125155622Y-84572330D01*
X126774666Y-84572330D01*
X126848084Y-84749577D01*
X127555663Y-85457156D01*
X127732911Y-85530575D01*
X127910159Y-85457156D01*
X128617738Y-84749577D01*
X128691156Y-84572330D01*
X130310200Y-84572330D01*
X130383618Y-84749577D01*
X131091197Y-85457156D01*
X131268445Y-85530575D01*
X131445693Y-85457156D01*
X132153272Y-84749577D01*
X132226690Y-84572330D01*
X133845734Y-84572330D01*
X133919152Y-84749577D01*
X134626731Y-85457156D01*
X134803979Y-85530575D01*
X134981227Y-85457156D01*
X135688806Y-84749577D01*
X135762224Y-84572330D01*
X137381268Y-84572330D01*
X137454686Y-84749577D01*
X138162265Y-85457156D01*
X138339513Y-85530575D01*
X138516761Y-85457156D01*
X139224340Y-84749577D01*
X139297758Y-84572330D01*
X140916802Y-84572330D01*
X140990220Y-84749577D01*
X141697799Y-85457156D01*
X141875047Y-85530575D01*
X142052295Y-85457156D01*
X142759874Y-84749577D01*
X142833292Y-84572330D01*
X144452336Y-84572330D01*
X144525754Y-84749577D01*
X145233333Y-85457156D01*
X145410581Y-85530575D01*
X145587829Y-85457156D01*
X146295408Y-84749577D01*
X146368826Y-84572330D01*
X147987869Y-84572330D01*
X148061288Y-84749577D01*
X148768867Y-85457156D01*
X148946115Y-85530575D01*
X149123362Y-85457156D01*
X149830942Y-84749577D01*
X149904360Y-84572330D01*
X151523403Y-84572330D01*
X151596821Y-84749577D01*
X152044405Y-85197160D01*
X152076979Y-85198990D01*
X152083908Y-85199575D01*
X152318820Y-85226042D01*
X152325707Y-85227014D01*
X152367191Y-85234062D01*
X152374011Y-85235418D01*
X152428621Y-85247881D01*
X152435358Y-85249619D01*
X152475807Y-85261272D01*
X152482434Y-85263384D01*
X152705578Y-85341465D01*
X152712079Y-85343947D01*
X152750965Y-85360055D01*
X152754441Y-85361610D01*
X153366475Y-84749577D01*
X153439894Y-84572330D01*
X155058937Y-84572330D01*
X155132355Y-84749577D01*
X155839935Y-85457156D01*
X156017183Y-85530575D01*
X156194430Y-85457156D01*
X156876000Y-84775587D01*
X156876000Y-84369072D01*
X156194430Y-83687502D01*
X156017183Y-83614084D01*
X155839935Y-83687502D01*
X155132355Y-84395082D01*
X155058937Y-84572330D01*
X153439894Y-84572330D01*
X153366475Y-84395082D01*
X152658896Y-83687502D01*
X152481649Y-83614084D01*
X152304401Y-83687502D01*
X151596821Y-84395082D01*
X151523403Y-84572330D01*
X149904360Y-84572330D01*
X149830942Y-84395082D01*
X149123362Y-83687502D01*
X148946115Y-83614084D01*
X148768867Y-83687502D01*
X148061288Y-84395082D01*
X147987869Y-84572330D01*
X146368826Y-84572330D01*
X146295408Y-84395082D01*
X145587828Y-83687501D01*
X145410581Y-83614084D01*
X145233333Y-83687502D01*
X144525754Y-84395082D01*
X144452336Y-84572330D01*
X142833292Y-84572330D01*
X142759874Y-84395082D01*
X142052294Y-83687501D01*
X141875047Y-83614084D01*
X141697799Y-83687502D01*
X140990220Y-84395082D01*
X140916802Y-84572330D01*
X139297758Y-84572330D01*
X139224340Y-84395082D01*
X138516760Y-83687501D01*
X138339513Y-83614084D01*
X138162265Y-83687502D01*
X137454686Y-84395082D01*
X137381268Y-84572330D01*
X135762224Y-84572330D01*
X135688806Y-84395082D01*
X134981226Y-83687501D01*
X134803979Y-83614084D01*
X134626731Y-83687502D01*
X133919152Y-84395082D01*
X133845734Y-84572330D01*
X132226690Y-84572330D01*
X132153272Y-84395082D01*
X131445693Y-83687502D01*
X131268445Y-83614084D01*
X131091198Y-83687501D01*
X130383618Y-84395082D01*
X130310200Y-84572330D01*
X128691156Y-84572330D01*
X128617738Y-84395082D01*
X127910159Y-83687502D01*
X127732911Y-83614084D01*
X127555664Y-83687501D01*
X126848084Y-84395082D01*
X126774666Y-84572330D01*
X125155622Y-84572330D01*
X125082204Y-84395082D01*
X124374625Y-83687502D01*
X124197377Y-83614084D01*
X124020130Y-83687501D01*
X123312550Y-84395082D01*
X123239132Y-84572330D01*
X121620088Y-84572330D01*
X121546670Y-84395082D01*
X120839091Y-83687502D01*
X120661843Y-83614084D01*
X120484596Y-83687501D01*
X119777016Y-84395082D01*
X119703598Y-84572330D01*
X116500000Y-84572330D01*
X116500000Y-82804563D01*
X117935831Y-82804563D01*
X118009249Y-82981810D01*
X118716828Y-83689389D01*
X118894076Y-83762808D01*
X119071324Y-83689389D01*
X119778903Y-82981810D01*
X119852321Y-82804563D01*
X121471365Y-82804563D01*
X121544783Y-82981810D01*
X122252362Y-83689389D01*
X122429610Y-83762808D01*
X122606858Y-83689389D01*
X123314437Y-82981810D01*
X123387855Y-82804563D01*
X125006899Y-82804563D01*
X125080317Y-82981810D01*
X125787896Y-83689389D01*
X125965144Y-83762808D01*
X126142392Y-83689389D01*
X126849971Y-82981810D01*
X126923389Y-82804563D01*
X128542433Y-82804563D01*
X128615851Y-82981810D01*
X129323430Y-83689389D01*
X129500678Y-83762808D01*
X129677926Y-83689389D01*
X130385505Y-82981810D01*
X130458923Y-82804563D01*
X132077967Y-82804563D01*
X132151385Y-82981810D01*
X132858964Y-83689389D01*
X133036212Y-83762808D01*
X133213460Y-83689389D01*
X133921039Y-82981810D01*
X133994457Y-82804563D01*
X135613501Y-82804563D01*
X135686919Y-82981810D01*
X136394498Y-83689389D01*
X136571746Y-83762808D01*
X136748994Y-83689389D01*
X137456573Y-82981810D01*
X137529991Y-82804563D01*
X139149035Y-82804563D01*
X139222453Y-82981810D01*
X139930032Y-83689389D01*
X140107280Y-83762808D01*
X140284528Y-83689389D01*
X140992107Y-82981810D01*
X141065525Y-82804563D01*
X142684569Y-82804563D01*
X142757987Y-82981810D01*
X143465566Y-83689389D01*
X143642814Y-83762808D01*
X143820062Y-83689389D01*
X144527641Y-82981810D01*
X144601059Y-82804563D01*
X146220103Y-82804563D01*
X146293521Y-82981810D01*
X147001100Y-83689389D01*
X147178348Y-83762808D01*
X147355595Y-83689389D01*
X148063175Y-82981810D01*
X148136593Y-82804563D01*
X149755636Y-82804563D01*
X149829055Y-82981810D01*
X150536634Y-83689389D01*
X150713882Y-83762808D01*
X150891129Y-83689389D01*
X151598709Y-82981810D01*
X151672127Y-82804563D01*
X153291170Y-82804563D01*
X153364588Y-82981810D01*
X154072168Y-83689389D01*
X154249416Y-83762808D01*
X154426663Y-83689389D01*
X155134242Y-82981810D01*
X155207661Y-82804563D01*
X155134242Y-82627315D01*
X154426663Y-81919735D01*
X154249416Y-81846317D01*
X154072168Y-81919735D01*
X153364588Y-82627315D01*
X153291170Y-82804563D01*
X151672127Y-82804563D01*
X151598709Y-82627315D01*
X150891129Y-81919735D01*
X150713882Y-81846317D01*
X150536634Y-81919735D01*
X149829055Y-82627315D01*
X149755636Y-82804563D01*
X148136593Y-82804563D01*
X148063175Y-82627315D01*
X147355595Y-81919735D01*
X147178348Y-81846317D01*
X147001100Y-81919735D01*
X146293521Y-82627315D01*
X146220103Y-82804563D01*
X144601059Y-82804563D01*
X144527641Y-82627315D01*
X143820061Y-81919734D01*
X143642814Y-81846317D01*
X143465566Y-81919735D01*
X142757987Y-82627315D01*
X142684569Y-82804563D01*
X141065525Y-82804563D01*
X140992107Y-82627315D01*
X140284527Y-81919734D01*
X140107280Y-81846317D01*
X139930032Y-81919735D01*
X139222453Y-82627315D01*
X139149035Y-82804563D01*
X137529991Y-82804563D01*
X137456573Y-82627315D01*
X136748993Y-81919734D01*
X136571746Y-81846317D01*
X136394498Y-81919735D01*
X135686919Y-82627315D01*
X135613501Y-82804563D01*
X133994457Y-82804563D01*
X133921039Y-82627315D01*
X133213459Y-81919734D01*
X133036212Y-81846317D01*
X132858964Y-81919735D01*
X132151385Y-82627315D01*
X132077967Y-82804563D01*
X130458923Y-82804563D01*
X130385505Y-82627315D01*
X129677926Y-81919735D01*
X129500678Y-81846317D01*
X129323431Y-81919734D01*
X128615851Y-82627315D01*
X128542433Y-82804563D01*
X126923389Y-82804563D01*
X126849971Y-82627315D01*
X126142392Y-81919735D01*
X125965144Y-81846317D01*
X125787897Y-81919734D01*
X125080317Y-82627315D01*
X125006899Y-82804563D01*
X123387855Y-82804563D01*
X123314437Y-82627315D01*
X122606858Y-81919735D01*
X122429610Y-81846317D01*
X122252363Y-81919734D01*
X121544783Y-82627315D01*
X121471365Y-82804563D01*
X119852321Y-82804563D01*
X119778903Y-82627315D01*
X119071324Y-81919735D01*
X118894076Y-81846317D01*
X118716829Y-81919734D01*
X118009249Y-82627315D01*
X117935831Y-82804563D01*
X116500000Y-82804563D01*
X116500000Y-81036796D01*
X119703598Y-81036796D01*
X119777016Y-81214043D01*
X120484596Y-81921624D01*
X120661843Y-81995041D01*
X120839091Y-81921623D01*
X121546670Y-81214043D01*
X121620088Y-81036796D01*
X123239132Y-81036796D01*
X123312550Y-81214043D01*
X124020130Y-81921624D01*
X124197377Y-81995041D01*
X124374625Y-81921623D01*
X125082204Y-81214043D01*
X125155622Y-81036796D01*
X126774666Y-81036796D01*
X126848084Y-81214043D01*
X127555664Y-81921624D01*
X127732911Y-81995041D01*
X127910159Y-81921623D01*
X128617738Y-81214043D01*
X128691156Y-81036796D01*
X130310200Y-81036796D01*
X130383618Y-81214043D01*
X131091198Y-81921624D01*
X131268445Y-81995041D01*
X131445693Y-81921623D01*
X132153272Y-81214043D01*
X132226690Y-81036796D01*
X133845734Y-81036796D01*
X133919152Y-81214043D01*
X134626731Y-81921623D01*
X134803979Y-81995041D01*
X134981226Y-81921624D01*
X135688806Y-81214043D01*
X135762224Y-81036796D01*
X137381268Y-81036796D01*
X137454686Y-81214043D01*
X138162265Y-81921623D01*
X138339513Y-81995041D01*
X138516760Y-81921624D01*
X139224340Y-81214043D01*
X139297758Y-81036796D01*
X140916802Y-81036796D01*
X140990220Y-81214043D01*
X141697799Y-81921623D01*
X141875047Y-81995041D01*
X142052294Y-81921624D01*
X142759874Y-81214043D01*
X142833292Y-81036796D01*
X144452336Y-81036796D01*
X144525754Y-81214043D01*
X145233333Y-81921623D01*
X145410581Y-81995041D01*
X145587828Y-81921624D01*
X146295408Y-81214043D01*
X146368826Y-81036796D01*
X147987869Y-81036796D01*
X148061288Y-81214043D01*
X148768867Y-81921623D01*
X148946115Y-81995041D01*
X149123362Y-81921623D01*
X149830942Y-81214043D01*
X149904360Y-81036796D01*
X151523403Y-81036796D01*
X151596821Y-81214043D01*
X152304401Y-81921623D01*
X152481649Y-81995041D01*
X152658896Y-81921623D01*
X153366475Y-81214043D01*
X153439894Y-81036796D01*
X155058937Y-81036796D01*
X155132355Y-81214043D01*
X155839935Y-81921623D01*
X156017183Y-81995041D01*
X156194430Y-81921623D01*
X156876000Y-81240053D01*
X156876000Y-80833539D01*
X156194430Y-80151969D01*
X156017183Y-80078550D01*
X155839935Y-80151969D01*
X155132355Y-80859548D01*
X155058937Y-81036796D01*
X153439894Y-81036796D01*
X153366475Y-80859548D01*
X152658896Y-80151969D01*
X152481649Y-80078550D01*
X152304401Y-80151969D01*
X151596821Y-80859548D01*
X151523403Y-81036796D01*
X149904360Y-81036796D01*
X149863615Y-80938429D01*
X149663577Y-81106282D01*
X149626281Y-81127815D01*
X149245186Y-81266522D01*
X149202776Y-81274000D01*
X148797224Y-81274000D01*
X148754814Y-81266522D01*
X148373719Y-81127815D01*
X148336423Y-81106282D01*
X148056410Y-80871323D01*
X147987869Y-81036796D01*
X146368826Y-81036796D01*
X146295408Y-80859548D01*
X145587829Y-80151969D01*
X145410581Y-80078550D01*
X145233333Y-80151969D01*
X144525754Y-80859548D01*
X144452336Y-81036796D01*
X142833292Y-81036796D01*
X142759874Y-80859548D01*
X142052295Y-80151969D01*
X141875047Y-80078550D01*
X141697799Y-80151969D01*
X140990220Y-80859548D01*
X140916802Y-81036796D01*
X139297758Y-81036796D01*
X139224340Y-80859548D01*
X138516761Y-80151969D01*
X138339513Y-80078550D01*
X138162265Y-80151969D01*
X137454686Y-80859548D01*
X137381268Y-81036796D01*
X135762224Y-81036796D01*
X135688806Y-80859548D01*
X134981227Y-80151969D01*
X134803979Y-80078550D01*
X134626731Y-80151969D01*
X133919152Y-80859548D01*
X133845734Y-81036796D01*
X132226690Y-81036796D01*
X132153272Y-80859548D01*
X131445693Y-80151969D01*
X131268445Y-80078550D01*
X131091197Y-80151969D01*
X130383618Y-80859548D01*
X130310200Y-81036796D01*
X128691156Y-81036796D01*
X128617738Y-80859548D01*
X127910159Y-80151969D01*
X127732911Y-80078550D01*
X127555663Y-80151969D01*
X126848084Y-80859548D01*
X126774666Y-81036796D01*
X125155622Y-81036796D01*
X125082204Y-80859548D01*
X124374625Y-80151969D01*
X124197377Y-80078550D01*
X124020129Y-80151969D01*
X123312550Y-80859548D01*
X123239132Y-81036796D01*
X121620088Y-81036796D01*
X121546670Y-80859548D01*
X120839091Y-80151969D01*
X120661843Y-80078550D01*
X120484595Y-80151969D01*
X119777016Y-80859548D01*
X119703598Y-81036796D01*
X116500000Y-81036796D01*
X116500000Y-79269029D01*
X117935831Y-79269029D01*
X118009249Y-79446276D01*
X118716829Y-80153857D01*
X118894076Y-80227274D01*
X119071324Y-80153856D01*
X119778903Y-79446276D01*
X119852321Y-79269029D01*
X121471365Y-79269029D01*
X121544783Y-79446276D01*
X122252363Y-80153857D01*
X122429610Y-80227274D01*
X122606858Y-80153856D01*
X123314437Y-79446276D01*
X123387855Y-79269029D01*
X125006899Y-79269029D01*
X125080317Y-79446276D01*
X125787897Y-80153857D01*
X125965144Y-80227274D01*
X126142392Y-80153856D01*
X126849971Y-79446276D01*
X126923389Y-79269029D01*
X128542433Y-79269029D01*
X128615851Y-79446276D01*
X129323431Y-80153857D01*
X129500678Y-80227274D01*
X129677926Y-80153856D01*
X130385505Y-79446276D01*
X130458923Y-79269029D01*
X132077967Y-79269029D01*
X132151385Y-79446276D01*
X132858964Y-80153856D01*
X133036212Y-80227274D01*
X133213459Y-80153857D01*
X133921039Y-79446276D01*
X133994457Y-79269029D01*
X135613501Y-79269029D01*
X135686919Y-79446276D01*
X136394498Y-80153856D01*
X136571746Y-80227274D01*
X136748993Y-80153857D01*
X137456573Y-79446276D01*
X137529991Y-79269029D01*
X139149035Y-79269029D01*
X139222453Y-79446276D01*
X139930032Y-80153856D01*
X140107280Y-80227274D01*
X140284527Y-80153857D01*
X140992107Y-79446276D01*
X141065525Y-79269029D01*
X142684569Y-79269029D01*
X142757987Y-79446276D01*
X143465566Y-80153856D01*
X143642814Y-80227274D01*
X143820061Y-80153857D01*
X144527641Y-79446276D01*
X144601059Y-79269029D01*
X146220103Y-79269029D01*
X146293521Y-79446276D01*
X147001100Y-80153856D01*
X147178348Y-80227274D01*
X147355595Y-80153856D01*
X147748495Y-79760955D01*
X147780566Y-79579076D01*
X147795295Y-79538609D01*
X147998071Y-79187391D01*
X148025752Y-79154401D01*
X148072771Y-79114947D01*
X148063175Y-79091781D01*
X148030979Y-79059585D01*
X149861251Y-79059585D01*
X149974248Y-79154401D01*
X150001929Y-79187391D01*
X150204705Y-79538609D01*
X150219434Y-79579077D01*
X150274573Y-79891795D01*
X150536634Y-80153856D01*
X150713882Y-80227274D01*
X150891129Y-80153856D01*
X151598709Y-79446276D01*
X151672127Y-79269029D01*
X153291170Y-79269029D01*
X153364588Y-79446276D01*
X154072168Y-80153856D01*
X154249416Y-80227274D01*
X154426663Y-80153856D01*
X155134242Y-79446276D01*
X155207661Y-79269029D01*
X155134242Y-79091781D01*
X154426663Y-78384202D01*
X154249416Y-78310783D01*
X154072168Y-78384202D01*
X153364588Y-79091781D01*
X153291170Y-79269029D01*
X151672127Y-79269029D01*
X151598709Y-79091781D01*
X150891129Y-78384202D01*
X150713882Y-78310783D01*
X150536634Y-78384202D01*
X149861251Y-79059585D01*
X148030979Y-79059585D01*
X147355595Y-78384202D01*
X147178348Y-78310783D01*
X147001100Y-78384202D01*
X146293521Y-79091781D01*
X146220103Y-79269029D01*
X144601059Y-79269029D01*
X144527641Y-79091781D01*
X143820062Y-78384202D01*
X143642814Y-78310783D01*
X143465566Y-78384202D01*
X142757987Y-79091781D01*
X142684569Y-79269029D01*
X141065525Y-79269029D01*
X140992107Y-79091781D01*
X140284528Y-78384202D01*
X140107280Y-78310783D01*
X139930032Y-78384202D01*
X139222453Y-79091781D01*
X139149035Y-79269029D01*
X137529991Y-79269029D01*
X137456573Y-79091781D01*
X136748994Y-78384202D01*
X136571746Y-78310783D01*
X136394498Y-78384202D01*
X135686919Y-79091781D01*
X135613501Y-79269029D01*
X133994457Y-79269029D01*
X133921039Y-79091781D01*
X133213460Y-78384202D01*
X133036212Y-78310783D01*
X132858964Y-78384202D01*
X132151385Y-79091781D01*
X132077967Y-79269029D01*
X130458923Y-79269029D01*
X130385505Y-79091781D01*
X129677926Y-78384202D01*
X129500678Y-78310783D01*
X129323430Y-78384202D01*
X128615851Y-79091781D01*
X128542433Y-79269029D01*
X126923389Y-79269029D01*
X126849971Y-79091781D01*
X126142392Y-78384202D01*
X125965144Y-78310783D01*
X125787896Y-78384202D01*
X125080317Y-79091781D01*
X125006899Y-79269029D01*
X123387855Y-79269029D01*
X123314437Y-79091781D01*
X122606858Y-78384202D01*
X122429610Y-78310783D01*
X122252362Y-78384202D01*
X121544783Y-79091781D01*
X121471365Y-79269029D01*
X119852321Y-79269029D01*
X119778903Y-79091781D01*
X119071324Y-78384202D01*
X118894076Y-78310783D01*
X118716828Y-78384202D01*
X118009249Y-79091781D01*
X117935831Y-79269029D01*
X116500000Y-79269029D01*
X116500000Y-77501262D01*
X119703598Y-77501262D01*
X119777016Y-77678509D01*
X120484596Y-78386090D01*
X120661843Y-78459507D01*
X120839091Y-78386089D01*
X121546670Y-77678509D01*
X121620088Y-77501262D01*
X123239132Y-77501262D01*
X123312550Y-77678509D01*
X124020130Y-78386090D01*
X124197377Y-78459507D01*
X124374625Y-78386089D01*
X125082204Y-77678509D01*
X125155622Y-77501262D01*
X126774666Y-77501262D01*
X126848084Y-77678509D01*
X127555664Y-78386090D01*
X127732911Y-78459507D01*
X127910159Y-78386089D01*
X128617738Y-77678509D01*
X128691156Y-77501262D01*
X130310200Y-77501262D01*
X130383618Y-77678509D01*
X131091198Y-78386090D01*
X131268445Y-78459507D01*
X131445693Y-78386089D01*
X132153272Y-77678509D01*
X132226690Y-77501262D01*
X133845734Y-77501262D01*
X133919152Y-77678509D01*
X134626731Y-78386089D01*
X134803979Y-78459507D01*
X134981226Y-78386090D01*
X135688806Y-77678509D01*
X135762224Y-77501262D01*
X137381268Y-77501262D01*
X137454686Y-77678509D01*
X138162265Y-78386089D01*
X138339513Y-78459507D01*
X138516760Y-78386090D01*
X139224340Y-77678509D01*
X139297758Y-77501262D01*
X140916802Y-77501262D01*
X140990220Y-77678509D01*
X141697799Y-78386089D01*
X141875047Y-78459507D01*
X142052294Y-78386090D01*
X142759874Y-77678509D01*
X142833292Y-77501262D01*
X144452336Y-77501262D01*
X144525754Y-77678509D01*
X145233333Y-78386089D01*
X145410581Y-78459507D01*
X145587828Y-78386090D01*
X146295408Y-77678509D01*
X146368826Y-77501262D01*
X147987869Y-77501262D01*
X148061288Y-77678509D01*
X148768867Y-78386089D01*
X148946115Y-78459507D01*
X149123362Y-78386089D01*
X149830942Y-77678509D01*
X149904360Y-77501262D01*
X151523403Y-77501262D01*
X151596821Y-77678509D01*
X152304401Y-78386089D01*
X152481649Y-78459507D01*
X152658896Y-78386089D01*
X153366475Y-77678509D01*
X153439894Y-77501262D01*
X155058937Y-77501262D01*
X155132355Y-77678509D01*
X155839935Y-78386089D01*
X156017183Y-78459507D01*
X156194430Y-78386089D01*
X156876000Y-77704519D01*
X156876000Y-77298005D01*
X156194430Y-76616435D01*
X156017183Y-76543017D01*
X155839935Y-76616435D01*
X155132355Y-77324014D01*
X155058937Y-77501262D01*
X153439894Y-77501262D01*
X153366475Y-77324014D01*
X152658896Y-76616435D01*
X152481649Y-76543017D01*
X152304401Y-76616435D01*
X151596821Y-77324014D01*
X151523403Y-77501262D01*
X149904360Y-77501262D01*
X149830942Y-77324014D01*
X149123362Y-76616435D01*
X148946115Y-76543017D01*
X148768867Y-76616435D01*
X148061288Y-77324014D01*
X147987869Y-77501262D01*
X146368826Y-77501262D01*
X146295408Y-77324014D01*
X145587828Y-76616434D01*
X145410581Y-76543017D01*
X145233333Y-76616435D01*
X144525754Y-77324014D01*
X144452336Y-77501262D01*
X142833292Y-77501262D01*
X142759874Y-77324014D01*
X142052294Y-76616434D01*
X141875047Y-76543017D01*
X141697799Y-76616435D01*
X140990220Y-77324014D01*
X140916802Y-77501262D01*
X139297758Y-77501262D01*
X139224340Y-77324014D01*
X138516760Y-76616434D01*
X138339513Y-76543017D01*
X138162265Y-76616435D01*
X137454686Y-77324014D01*
X137381268Y-77501262D01*
X135762224Y-77501262D01*
X135688806Y-77324014D01*
X134981226Y-76616434D01*
X134803979Y-76543017D01*
X134626731Y-76616435D01*
X133919152Y-77324014D01*
X133845734Y-77501262D01*
X132226690Y-77501262D01*
X132153272Y-77324014D01*
X131445693Y-76616435D01*
X131268445Y-76543017D01*
X131091198Y-76616434D01*
X130383618Y-77324014D01*
X130310200Y-77501262D01*
X128691156Y-77501262D01*
X128617738Y-77324014D01*
X127910159Y-76616435D01*
X127732911Y-76543017D01*
X127555664Y-76616434D01*
X126848084Y-77324014D01*
X126774666Y-77501262D01*
X125155622Y-77501262D01*
X125082204Y-77324014D01*
X124374625Y-76616435D01*
X124197377Y-76543017D01*
X124020130Y-76616434D01*
X123312550Y-77324014D01*
X123239132Y-77501262D01*
X121620088Y-77501262D01*
X121546670Y-77324014D01*
X120839091Y-76616435D01*
X120661843Y-76543017D01*
X120484596Y-76616434D01*
X119777016Y-77324014D01*
X119703598Y-77501262D01*
X116500000Y-77501262D01*
X116500000Y-75733495D01*
X117935831Y-75733495D01*
X118009248Y-75910742D01*
X118716829Y-76618323D01*
X118894076Y-76691740D01*
X119071324Y-76618322D01*
X119778904Y-75910742D01*
X119852321Y-75733495D01*
X121471365Y-75733495D01*
X121544782Y-75910742D01*
X122252363Y-76618323D01*
X122429610Y-76691740D01*
X122606858Y-76618322D01*
X123314438Y-75910742D01*
X123387855Y-75733495D01*
X125006899Y-75733495D01*
X125080316Y-75910742D01*
X125787897Y-76618323D01*
X125965144Y-76691740D01*
X126142392Y-76618322D01*
X126849972Y-75910742D01*
X126923389Y-75733495D01*
X128542433Y-75733495D01*
X128615850Y-75910742D01*
X129323431Y-76618323D01*
X129500678Y-76691740D01*
X129677926Y-76618322D01*
X130385506Y-75910742D01*
X130458923Y-75733495D01*
X132077967Y-75733495D01*
X132151384Y-75910742D01*
X132858964Y-76618322D01*
X133036212Y-76691740D01*
X133213459Y-76618323D01*
X133921040Y-75910742D01*
X133994457Y-75733495D01*
X135613501Y-75733495D01*
X135686918Y-75910742D01*
X136394498Y-76618322D01*
X136571746Y-76691740D01*
X136748993Y-76618323D01*
X137456574Y-75910742D01*
X137529991Y-75733495D01*
X139149035Y-75733495D01*
X139222452Y-75910742D01*
X139930032Y-76618322D01*
X140107280Y-76691740D01*
X140284527Y-76618323D01*
X140992108Y-75910742D01*
X141065525Y-75733495D01*
X142684569Y-75733495D01*
X142757986Y-75910742D01*
X143465566Y-76618322D01*
X143642814Y-76691740D01*
X143820061Y-76618323D01*
X144527642Y-75910742D01*
X144601059Y-75733495D01*
X146220103Y-75733495D01*
X146293520Y-75910742D01*
X147001100Y-76618322D01*
X147178348Y-76691740D01*
X147355595Y-76618322D01*
X148063176Y-75910742D01*
X148136593Y-75733495D01*
X149755636Y-75733495D01*
X149829055Y-75910743D01*
X150536634Y-76618322D01*
X150713882Y-76691740D01*
X150891129Y-76618322D01*
X151598710Y-75910742D01*
X151672127Y-75733495D01*
X153291170Y-75733495D01*
X153364587Y-75910742D01*
X154072168Y-76618322D01*
X154249416Y-76691740D01*
X154426663Y-76618322D01*
X155134242Y-75910743D01*
X155207661Y-75733495D01*
X155134242Y-75556247D01*
X154426663Y-74848668D01*
X154249416Y-74775250D01*
X154072168Y-74848668D01*
X153364588Y-75556247D01*
X153291170Y-75733495D01*
X151672127Y-75733495D01*
X151598709Y-75556247D01*
X150891129Y-74848668D01*
X150713882Y-74775250D01*
X150536634Y-74848668D01*
X149829055Y-75556247D01*
X149755636Y-75733495D01*
X148136593Y-75733495D01*
X148063175Y-75556247D01*
X147355595Y-74848668D01*
X147178348Y-74775250D01*
X147001100Y-74848668D01*
X146293521Y-75556247D01*
X146220103Y-75733495D01*
X144601059Y-75733495D01*
X144527641Y-75556247D01*
X143820061Y-74848667D01*
X143642814Y-74775250D01*
X143465566Y-74848668D01*
X142757987Y-75556247D01*
X142684569Y-75733495D01*
X141065525Y-75733495D01*
X140992107Y-75556247D01*
X140284527Y-74848667D01*
X140107280Y-74775250D01*
X139930032Y-74848668D01*
X139222453Y-75556247D01*
X139149035Y-75733495D01*
X137529991Y-75733495D01*
X137456573Y-75556247D01*
X136748993Y-74848667D01*
X136571746Y-74775250D01*
X136394498Y-74848668D01*
X135686919Y-75556247D01*
X135613501Y-75733495D01*
X133994457Y-75733495D01*
X133921039Y-75556247D01*
X133213459Y-74848667D01*
X133036212Y-74775250D01*
X132858964Y-74848668D01*
X132151385Y-75556247D01*
X132077967Y-75733495D01*
X130458923Y-75733495D01*
X130385505Y-75556247D01*
X129677926Y-74848668D01*
X129500678Y-74775250D01*
X129323431Y-74848667D01*
X128615851Y-75556247D01*
X128542433Y-75733495D01*
X126923389Y-75733495D01*
X126849971Y-75556247D01*
X126142392Y-74848668D01*
X125965144Y-74775250D01*
X125787897Y-74848667D01*
X125080317Y-75556247D01*
X125006899Y-75733495D01*
X123387855Y-75733495D01*
X123314437Y-75556247D01*
X122606858Y-74848668D01*
X122429610Y-74775250D01*
X122252363Y-74848667D01*
X121544783Y-75556247D01*
X121471365Y-75733495D01*
X119852321Y-75733495D01*
X119778903Y-75556247D01*
X119071324Y-74848668D01*
X118894076Y-74775250D01*
X118716829Y-74848667D01*
X118009249Y-75556247D01*
X117935831Y-75733495D01*
X116500000Y-75733495D01*
X116500000Y-73965728D01*
X119703598Y-73965728D01*
X119777015Y-74142975D01*
X120484596Y-74850556D01*
X120661843Y-74923973D01*
X120839091Y-74850555D01*
X121546671Y-74142975D01*
X121620088Y-73965728D01*
X123239132Y-73965728D01*
X123312549Y-74142975D01*
X124020130Y-74850556D01*
X124197377Y-74923973D01*
X124374625Y-74850555D01*
X125082205Y-74142975D01*
X125155622Y-73965728D01*
X126774666Y-73965728D01*
X126848083Y-74142975D01*
X127555664Y-74850556D01*
X127732911Y-74923973D01*
X127910159Y-74850555D01*
X128617739Y-74142975D01*
X128691156Y-73965728D01*
X130310200Y-73965728D01*
X130383617Y-74142975D01*
X131091198Y-74850556D01*
X131268445Y-74923973D01*
X131445693Y-74850555D01*
X132153273Y-74142975D01*
X132226690Y-73965728D01*
X133845734Y-73965728D01*
X133919151Y-74142975D01*
X134626731Y-74850555D01*
X134803979Y-74923973D01*
X134981226Y-74850556D01*
X135688807Y-74142975D01*
X135762224Y-73965728D01*
X137381268Y-73965728D01*
X137454685Y-74142975D01*
X138162265Y-74850555D01*
X138339513Y-74923973D01*
X138516760Y-74850556D01*
X139224341Y-74142975D01*
X139297758Y-73965728D01*
X140916802Y-73965728D01*
X140990219Y-74142975D01*
X141697799Y-74850555D01*
X141875047Y-74923973D01*
X142052294Y-74850556D01*
X142759875Y-74142975D01*
X142833292Y-73965728D01*
X144452336Y-73965728D01*
X144525753Y-74142975D01*
X145233333Y-74850555D01*
X145410581Y-74923973D01*
X145587828Y-74850556D01*
X146295409Y-74142975D01*
X146368826Y-73965728D01*
X147987869Y-73965728D01*
X148061288Y-74142976D01*
X148768867Y-74850555D01*
X148946115Y-74923973D01*
X149123362Y-74850555D01*
X149830943Y-74142975D01*
X149904360Y-73965728D01*
X151523403Y-73965728D01*
X151596820Y-74142975D01*
X152304401Y-74850555D01*
X152481649Y-74923973D01*
X152658896Y-74850555D01*
X153366475Y-74142976D01*
X153439894Y-73965728D01*
X155058937Y-73965728D01*
X155132354Y-74142975D01*
X155839935Y-74850555D01*
X156017183Y-74923973D01*
X156194430Y-74850555D01*
X156876000Y-74168986D01*
X156876000Y-73762471D01*
X156194430Y-73080901D01*
X156017183Y-73007483D01*
X155839935Y-73080901D01*
X155132355Y-73788480D01*
X155058937Y-73965728D01*
X153439894Y-73965728D01*
X153366475Y-73788480D01*
X152658896Y-73080901D01*
X152481649Y-73007483D01*
X152304401Y-73080901D01*
X151596821Y-73788480D01*
X151523403Y-73965728D01*
X149904360Y-73965728D01*
X149830942Y-73788480D01*
X149123362Y-73080901D01*
X148946115Y-73007483D01*
X148768867Y-73080901D01*
X148061288Y-73788480D01*
X147987869Y-73965728D01*
X146368826Y-73965728D01*
X146295408Y-73788480D01*
X145587828Y-73080900D01*
X145410581Y-73007483D01*
X145233333Y-73080901D01*
X144525754Y-73788480D01*
X144452336Y-73965728D01*
X142833292Y-73965728D01*
X142759874Y-73788480D01*
X142052294Y-73080900D01*
X141875047Y-73007483D01*
X141697799Y-73080901D01*
X140990220Y-73788480D01*
X140916802Y-73965728D01*
X139297758Y-73965728D01*
X139224340Y-73788480D01*
X138516760Y-73080900D01*
X138339513Y-73007483D01*
X138162265Y-73080901D01*
X137454686Y-73788480D01*
X137381268Y-73965728D01*
X135762224Y-73965728D01*
X135688806Y-73788480D01*
X134981226Y-73080900D01*
X134803979Y-73007483D01*
X134626731Y-73080901D01*
X133919152Y-73788480D01*
X133845734Y-73965728D01*
X132226690Y-73965728D01*
X132153272Y-73788480D01*
X131445693Y-73080901D01*
X131268445Y-73007483D01*
X131091198Y-73080900D01*
X130383618Y-73788480D01*
X130310200Y-73965728D01*
X128691156Y-73965728D01*
X128617738Y-73788480D01*
X127910159Y-73080901D01*
X127732911Y-73007483D01*
X127555664Y-73080900D01*
X126848084Y-73788480D01*
X126774666Y-73965728D01*
X125155622Y-73965728D01*
X125082204Y-73788480D01*
X124374625Y-73080901D01*
X124197377Y-73007483D01*
X124020130Y-73080900D01*
X123312550Y-73788480D01*
X123239132Y-73965728D01*
X121620088Y-73965728D01*
X121546670Y-73788480D01*
X120839091Y-73080901D01*
X120661843Y-73007483D01*
X120484596Y-73080900D01*
X119777016Y-73788480D01*
X119703598Y-73965728D01*
X116500000Y-73965728D01*
X116500000Y-72197961D01*
X117935831Y-72197961D01*
X118009248Y-72375208D01*
X118716829Y-73082789D01*
X118894076Y-73156206D01*
X119071324Y-73082788D01*
X119778904Y-72375208D01*
X119852321Y-72197961D01*
X121471365Y-72197961D01*
X121544782Y-72375208D01*
X122252363Y-73082789D01*
X122429610Y-73156206D01*
X122606858Y-73082788D01*
X123314438Y-72375208D01*
X123387855Y-72197961D01*
X125006899Y-72197961D01*
X125080316Y-72375208D01*
X125787897Y-73082789D01*
X125965144Y-73156206D01*
X126142392Y-73082788D01*
X126849972Y-72375208D01*
X126923389Y-72197961D01*
X128542433Y-72197961D01*
X128615850Y-72375208D01*
X129323431Y-73082789D01*
X129500678Y-73156206D01*
X129677926Y-73082788D01*
X130385506Y-72375208D01*
X130458923Y-72197961D01*
X132077967Y-72197961D01*
X132151384Y-72375208D01*
X132858964Y-73082788D01*
X133036212Y-73156206D01*
X133213459Y-73082789D01*
X133921040Y-72375208D01*
X133994457Y-72197961D01*
X135613501Y-72197961D01*
X135686918Y-72375208D01*
X136394498Y-73082788D01*
X136571746Y-73156206D01*
X136748993Y-73082789D01*
X137456574Y-72375208D01*
X137529991Y-72197961D01*
X139149035Y-72197961D01*
X139222452Y-72375208D01*
X139930032Y-73082788D01*
X140107280Y-73156206D01*
X140284527Y-73082789D01*
X140992108Y-72375208D01*
X141065525Y-72197961D01*
X142684569Y-72197961D01*
X142757986Y-72375208D01*
X143465566Y-73082788D01*
X143642814Y-73156206D01*
X143820061Y-73082789D01*
X144527642Y-72375208D01*
X144601059Y-72197961D01*
X146220103Y-72197961D01*
X146293520Y-72375208D01*
X147001100Y-73082788D01*
X147178348Y-73156206D01*
X147355595Y-73082788D01*
X148063176Y-72375208D01*
X148136593Y-72197961D01*
X149755636Y-72197961D01*
X149829055Y-72375209D01*
X150536634Y-73082788D01*
X150713882Y-73156206D01*
X150891129Y-73082788D01*
X151598710Y-72375208D01*
X151672127Y-72197961D01*
X153291170Y-72197961D01*
X153364587Y-72375208D01*
X154072168Y-73082788D01*
X154249416Y-73156206D01*
X154426663Y-73082788D01*
X155134242Y-72375209D01*
X155207661Y-72197961D01*
X155134242Y-72020713D01*
X154426663Y-71313134D01*
X154249416Y-71239716D01*
X154072168Y-71313134D01*
X153364588Y-72020713D01*
X153291170Y-72197961D01*
X151672127Y-72197961D01*
X151598709Y-72020713D01*
X150891129Y-71313134D01*
X150713882Y-71239716D01*
X150536634Y-71313134D01*
X149829055Y-72020713D01*
X149755636Y-72197961D01*
X148136593Y-72197961D01*
X148063175Y-72020713D01*
X147355595Y-71313134D01*
X147178348Y-71239716D01*
X147001100Y-71313134D01*
X146293521Y-72020713D01*
X146220103Y-72197961D01*
X144601059Y-72197961D01*
X144527641Y-72020713D01*
X143820061Y-71313133D01*
X143642814Y-71239716D01*
X143465566Y-71313134D01*
X142757987Y-72020713D01*
X142684569Y-72197961D01*
X141065525Y-72197961D01*
X140992107Y-72020713D01*
X140284527Y-71313133D01*
X140107280Y-71239716D01*
X139930032Y-71313134D01*
X139222453Y-72020713D01*
X139149035Y-72197961D01*
X137529991Y-72197961D01*
X137456573Y-72020713D01*
X136997634Y-71561774D01*
X136935459Y-71542596D01*
X136931055Y-71541147D01*
X136904596Y-71531889D01*
X136900255Y-71530279D01*
X136865501Y-71516642D01*
X136861209Y-71514864D01*
X136835476Y-71503637D01*
X136831260Y-71501703D01*
X136557920Y-71370069D01*
X136553779Y-71367979D01*
X136528965Y-71354864D01*
X136524905Y-71352619D01*
X136492575Y-71333952D01*
X136488602Y-71331558D01*
X136464862Y-71316640D01*
X136460986Y-71314103D01*
X136434974Y-71296368D01*
X136394498Y-71313134D01*
X135686919Y-72020713D01*
X135613501Y-72197961D01*
X133994457Y-72197961D01*
X133921039Y-72020713D01*
X133590280Y-71689954D01*
X133374356Y-71657411D01*
X133369780Y-71656634D01*
X133342211Y-71651417D01*
X133337673Y-71650470D01*
X133301275Y-71642162D01*
X133296777Y-71641046D01*
X133269681Y-71633786D01*
X133265223Y-71632502D01*
X132975265Y-71543060D01*
X132970863Y-71541611D01*
X132944392Y-71532349D01*
X132940044Y-71530736D01*
X132905293Y-71517098D01*
X132901005Y-71515322D01*
X132875287Y-71504101D01*
X132871074Y-71502168D01*
X132735310Y-71436787D01*
X132151385Y-72020713D01*
X132077967Y-72197961D01*
X130458923Y-72197961D01*
X130385505Y-72020713D01*
X130075791Y-71710999D01*
X128925565Y-71710999D01*
X128615851Y-72020713D01*
X128542433Y-72197961D01*
X126923389Y-72197961D01*
X126849971Y-72020713D01*
X126142392Y-71313134D01*
X125965144Y-71239716D01*
X125787897Y-71313133D01*
X125080317Y-72020713D01*
X125006899Y-72197961D01*
X123387855Y-72197961D01*
X123314437Y-72020713D01*
X122606858Y-71313134D01*
X122429610Y-71239716D01*
X122252363Y-71313133D01*
X121544783Y-72020713D01*
X121471365Y-72197961D01*
X119852321Y-72197961D01*
X119778903Y-72020713D01*
X119071324Y-71313134D01*
X118894076Y-71239716D01*
X118716829Y-71313133D01*
X118009249Y-72020713D01*
X117935831Y-72197961D01*
X116500000Y-72197961D01*
X116500000Y-70430194D01*
X119703598Y-70430194D01*
X119777015Y-70607441D01*
X120484596Y-71315022D01*
X120661843Y-71388439D01*
X120839091Y-71315021D01*
X121546671Y-70607441D01*
X121620088Y-70430194D01*
X123239132Y-70430194D01*
X123312549Y-70607441D01*
X124020130Y-71315022D01*
X124197377Y-71388439D01*
X124374625Y-71315021D01*
X125082205Y-70607441D01*
X125155622Y-70430194D01*
X125082204Y-70252946D01*
X124374625Y-69545367D01*
X124197377Y-69471949D01*
X124020130Y-69545366D01*
X123312550Y-70252946D01*
X123239132Y-70430194D01*
X121620088Y-70430194D01*
X121546670Y-70252946D01*
X120839091Y-69545367D01*
X120661843Y-69471949D01*
X120484596Y-69545366D01*
X119777016Y-70252946D01*
X119703598Y-70430194D01*
X116500000Y-70430194D01*
X116500000Y-68662427D01*
X117935831Y-68662427D01*
X118009248Y-68839674D01*
X118716829Y-69547255D01*
X118894076Y-69620672D01*
X119071324Y-69547254D01*
X119778904Y-68839674D01*
X119852321Y-68662427D01*
X121471365Y-68662427D01*
X121544782Y-68839674D01*
X122252363Y-69547255D01*
X122429610Y-69620672D01*
X122606858Y-69547254D01*
X123314438Y-68839674D01*
X123387855Y-68662427D01*
X125006899Y-68662427D01*
X125080316Y-68839674D01*
X125787897Y-69547255D01*
X125965144Y-69620672D01*
X126142392Y-69547254D01*
X126849972Y-68839674D01*
X126923389Y-68662427D01*
X126849971Y-68485179D01*
X126142392Y-67777600D01*
X125965144Y-67704182D01*
X125787897Y-67777599D01*
X125080317Y-68485179D01*
X125006899Y-68662427D01*
X123387855Y-68662427D01*
X123314437Y-68485179D01*
X122606858Y-67777600D01*
X122429610Y-67704182D01*
X122252363Y-67777599D01*
X121544783Y-68485179D01*
X121471365Y-68662427D01*
X119852321Y-68662427D01*
X119778903Y-68485179D01*
X119071324Y-67777600D01*
X118894076Y-67704182D01*
X118716829Y-67777599D01*
X118009249Y-68485179D01*
X117935831Y-68662427D01*
X116500000Y-68662427D01*
X116500000Y-66894660D01*
X119703598Y-66894660D01*
X119777015Y-67071907D01*
X120484596Y-67779488D01*
X120661843Y-67852905D01*
X120839091Y-67779487D01*
X121546671Y-67071907D01*
X121620088Y-66894660D01*
X123239132Y-66894660D01*
X123312549Y-67071907D01*
X124020130Y-67779488D01*
X124197377Y-67852905D01*
X124374625Y-67779487D01*
X124539477Y-67614635D01*
X128202250Y-67614635D01*
X128202250Y-70260370D01*
X128202251Y-70260376D01*
X128208658Y-70319983D01*
X128258952Y-70454828D01*
X128258956Y-70454835D01*
X128345202Y-70570044D01*
X128345205Y-70570047D01*
X128460414Y-70656293D01*
X128460421Y-70656297D01*
X128595267Y-70706591D01*
X128595266Y-70706591D01*
X128602194Y-70707335D01*
X128654877Y-70713000D01*
X131300622Y-70712999D01*
X131360233Y-70706591D01*
X131495081Y-70656296D01*
X131610296Y-70570046D01*
X131696546Y-70454831D01*
X131746841Y-70319983D01*
X131753250Y-70260373D01*
X131753249Y-68937495D01*
X132157271Y-68937495D01*
X132157271Y-68937504D01*
X132177155Y-69202857D01*
X132177155Y-69202859D01*
X132177157Y-69202867D01*
X132236373Y-69462305D01*
X132333594Y-69710021D01*
X132466649Y-69940480D01*
X132600656Y-70108518D01*
X132632570Y-70148537D01*
X132717066Y-70226937D01*
X132827640Y-70329535D01*
X133047511Y-70479440D01*
X133287264Y-70594899D01*
X133287265Y-70594899D01*
X133287268Y-70594901D01*
X133541556Y-70673339D01*
X133541557Y-70673339D01*
X133541560Y-70673340D01*
X133804687Y-70712999D01*
X133804692Y-70712999D01*
X133804695Y-70713000D01*
X133804696Y-70713000D01*
X134070804Y-70713000D01*
X134070805Y-70713000D01*
X134070812Y-70712999D01*
X134333939Y-70673340D01*
X134333940Y-70673339D01*
X134333944Y-70673339D01*
X134588232Y-70594901D01*
X134827990Y-70479440D01*
X135047860Y-70329535D01*
X135242933Y-70148533D01*
X135408851Y-69940480D01*
X135541906Y-69710021D01*
X135639127Y-69462305D01*
X135698343Y-69202867D01*
X135699649Y-69185436D01*
X135718229Y-68937504D01*
X135718229Y-68937495D01*
X136117773Y-68937495D01*
X136117773Y-68937504D01*
X136137653Y-69202790D01*
X136137653Y-69202792D01*
X136196848Y-69462143D01*
X136196854Y-69462162D01*
X136294046Y-69709803D01*
X136427066Y-69940200D01*
X136477833Y-70003861D01*
X136477834Y-70003861D01*
X137143634Y-69338060D01*
X137144490Y-69340126D01*
X137237512Y-69479344D01*
X137355906Y-69597738D01*
X137495124Y-69690760D01*
X137497187Y-69691614D01*
X136830590Y-70358211D01*
X137007761Y-70479004D01*
X137007765Y-70479006D01*
X137247445Y-70594431D01*
X137247449Y-70594432D01*
X137501659Y-70672846D01*
X137501665Y-70672847D01*
X137764726Y-70712499D01*
X137764733Y-70712500D01*
X138030767Y-70712500D01*
X138030773Y-70712499D01*
X138293834Y-70672847D01*
X138293840Y-70672846D01*
X138548049Y-70594433D01*
X138787742Y-70479003D01*
X138859330Y-70430194D01*
X140916802Y-70430194D01*
X140990219Y-70607441D01*
X141697799Y-71315021D01*
X141875047Y-71388439D01*
X142052294Y-71315022D01*
X142759875Y-70607441D01*
X142833292Y-70430194D01*
X144452336Y-70430194D01*
X144525753Y-70607441D01*
X145233333Y-71315021D01*
X145410581Y-71388439D01*
X145587828Y-71315022D01*
X146295409Y-70607441D01*
X146368826Y-70430194D01*
X147987869Y-70430194D01*
X148061288Y-70607442D01*
X148768867Y-71315021D01*
X148946115Y-71388439D01*
X149123362Y-71315021D01*
X149830943Y-70607441D01*
X149904360Y-70430194D01*
X151523403Y-70430194D01*
X151596820Y-70607441D01*
X152304401Y-71315021D01*
X152481649Y-71388439D01*
X152658896Y-71315021D01*
X153366475Y-70607442D01*
X153439894Y-70430194D01*
X155058937Y-70430194D01*
X155132354Y-70607441D01*
X155839935Y-71315021D01*
X156017183Y-71388439D01*
X156194430Y-71315021D01*
X156876000Y-70633452D01*
X156876000Y-70226937D01*
X156194430Y-69545367D01*
X156017183Y-69471949D01*
X155839935Y-69545367D01*
X155132355Y-70252946D01*
X155058937Y-70430194D01*
X153439894Y-70430194D01*
X153366475Y-70252946D01*
X152658896Y-69545367D01*
X152481649Y-69471949D01*
X152304401Y-69545367D01*
X151596821Y-70252946D01*
X151523403Y-70430194D01*
X149904360Y-70430194D01*
X149830942Y-70252946D01*
X149123362Y-69545367D01*
X148946115Y-69471949D01*
X148768867Y-69545367D01*
X148061288Y-70252946D01*
X147987869Y-70430194D01*
X146368826Y-70430194D01*
X146295408Y-70252946D01*
X145587828Y-69545366D01*
X145410581Y-69471949D01*
X145233333Y-69545367D01*
X144525754Y-70252946D01*
X144452336Y-70430194D01*
X142833292Y-70430194D01*
X142759874Y-70252946D01*
X142052294Y-69545366D01*
X141875047Y-69471949D01*
X141697799Y-69545367D01*
X140990220Y-70252946D01*
X140916802Y-70430194D01*
X138859330Y-70430194D01*
X138964908Y-70358211D01*
X138298312Y-69691614D01*
X138300376Y-69690760D01*
X138439594Y-69597738D01*
X138557988Y-69479344D01*
X138651010Y-69340126D01*
X138651864Y-69338061D01*
X139317664Y-70003861D01*
X139317665Y-70003860D01*
X139368429Y-69940206D01*
X139368436Y-69940195D01*
X139501453Y-69709803D01*
X139598645Y-69462162D01*
X139598651Y-69462143D01*
X139657846Y-69202792D01*
X139657846Y-69202790D01*
X139677727Y-68937504D01*
X139677727Y-68937495D01*
X139657846Y-68672209D01*
X139657846Y-68672207D01*
X139655614Y-68662427D01*
X142684569Y-68662427D01*
X142757986Y-68839674D01*
X143465566Y-69547254D01*
X143642814Y-69620672D01*
X143820061Y-69547255D01*
X144527642Y-68839674D01*
X144601059Y-68662427D01*
X146220103Y-68662427D01*
X146293520Y-68839674D01*
X147001100Y-69547254D01*
X147178348Y-69620672D01*
X147355595Y-69547254D01*
X148063176Y-68839674D01*
X148136593Y-68662427D01*
X149755636Y-68662427D01*
X149829055Y-68839675D01*
X150536634Y-69547254D01*
X150713882Y-69620672D01*
X150891129Y-69547254D01*
X151598710Y-68839674D01*
X151672127Y-68662427D01*
X153291170Y-68662427D01*
X153364587Y-68839674D01*
X154072168Y-69547254D01*
X154249416Y-69620672D01*
X154426663Y-69547254D01*
X155134242Y-68839675D01*
X155207661Y-68662427D01*
X155134242Y-68485179D01*
X154426663Y-67777600D01*
X154249416Y-67704182D01*
X154072168Y-67777600D01*
X153364588Y-68485179D01*
X153291170Y-68662427D01*
X151672127Y-68662427D01*
X151598709Y-68485179D01*
X150891129Y-67777600D01*
X150713882Y-67704182D01*
X150536634Y-67777600D01*
X149829055Y-68485179D01*
X149755636Y-68662427D01*
X148136593Y-68662427D01*
X148063175Y-68485179D01*
X147355595Y-67777600D01*
X147178348Y-67704182D01*
X147001100Y-67777600D01*
X146293521Y-68485179D01*
X146220103Y-68662427D01*
X144601059Y-68662427D01*
X144527641Y-68485179D01*
X143820061Y-67777599D01*
X143642814Y-67704182D01*
X143465566Y-67777600D01*
X142757987Y-68485179D01*
X142684569Y-68662427D01*
X139655614Y-68662427D01*
X139598651Y-68412856D01*
X139598645Y-68412837D01*
X139501453Y-68165196D01*
X139368433Y-67934799D01*
X139317665Y-67871137D01*
X138651864Y-68536937D01*
X138651010Y-68534874D01*
X138557988Y-68395656D01*
X138439594Y-68277262D01*
X138300376Y-68184240D01*
X138298311Y-68183384D01*
X138964908Y-67516787D01*
X138787734Y-67395992D01*
X138548049Y-67280566D01*
X138293840Y-67202153D01*
X138293834Y-67202152D01*
X138030773Y-67162500D01*
X137764726Y-67162500D01*
X137501665Y-67202152D01*
X137501659Y-67202153D01*
X137247449Y-67280567D01*
X137247445Y-67280568D01*
X137007765Y-67395993D01*
X137007761Y-67395995D01*
X136830590Y-67516787D01*
X137497188Y-68183384D01*
X137495124Y-68184240D01*
X137355906Y-68277262D01*
X137237512Y-68395656D01*
X137144490Y-68534874D01*
X137143634Y-68536938D01*
X136477834Y-67871138D01*
X136427064Y-67934802D01*
X136294046Y-68165196D01*
X136196854Y-68412837D01*
X136196848Y-68412856D01*
X136137653Y-68672207D01*
X136137653Y-68672209D01*
X136117773Y-68937495D01*
X135718229Y-68937495D01*
X135698344Y-68672142D01*
X135698344Y-68672140D01*
X135698343Y-68672136D01*
X135698343Y-68672133D01*
X135639127Y-68412695D01*
X135541906Y-68164979D01*
X135408851Y-67934520D01*
X135242933Y-67726467D01*
X135242932Y-67726466D01*
X135242929Y-67726462D01*
X135047860Y-67545465D01*
X135005797Y-67516787D01*
X134827990Y-67395560D01*
X134827986Y-67395558D01*
X134827983Y-67395556D01*
X134827982Y-67395555D01*
X134588234Y-67280100D01*
X134588236Y-67280100D01*
X134333945Y-67201661D01*
X134333939Y-67201659D01*
X134070812Y-67162000D01*
X134070805Y-67162000D01*
X133804695Y-67162000D01*
X133804687Y-67162000D01*
X133541560Y-67201659D01*
X133541554Y-67201661D01*
X133287264Y-67280100D01*
X133047519Y-67395555D01*
X133047510Y-67395560D01*
X132827642Y-67545463D01*
X132632570Y-67726462D01*
X132466649Y-67934520D01*
X132333594Y-68164978D01*
X132236375Y-68412689D01*
X132236370Y-68412706D01*
X132177155Y-68672140D01*
X132177155Y-68672142D01*
X132157271Y-68937495D01*
X131753249Y-68937495D01*
X131753249Y-67614628D01*
X131746841Y-67555017D01*
X131743278Y-67545465D01*
X131696547Y-67420171D01*
X131696543Y-67420164D01*
X131610297Y-67304955D01*
X131610294Y-67304952D01*
X131495085Y-67218706D01*
X131495078Y-67218702D01*
X131360232Y-67168408D01*
X131360233Y-67168408D01*
X131300633Y-67162001D01*
X131300631Y-67162000D01*
X131300623Y-67162000D01*
X131300614Y-67162000D01*
X128654879Y-67162000D01*
X128654873Y-67162001D01*
X128595266Y-67168408D01*
X128460421Y-67218702D01*
X128460414Y-67218706D01*
X128345205Y-67304952D01*
X128345202Y-67304955D01*
X128258956Y-67420164D01*
X128258952Y-67420171D01*
X128208658Y-67555017D01*
X128202251Y-67614616D01*
X128202251Y-67614623D01*
X128202250Y-67614635D01*
X124539477Y-67614635D01*
X125082205Y-67071907D01*
X125155622Y-66894660D01*
X126774666Y-66894660D01*
X126848083Y-67071907D01*
X127217167Y-67440991D01*
X127219712Y-67417325D01*
X127220779Y-67409657D01*
X127228686Y-67363471D01*
X127230231Y-67355881D01*
X127244576Y-67295170D01*
X127246592Y-67287691D01*
X127260200Y-67242828D01*
X127262679Y-67235488D01*
X127336337Y-67037998D01*
X127339725Y-67029818D01*
X127361983Y-66981081D01*
X127365945Y-66973167D01*
X127400122Y-66910577D01*
X127404640Y-66902963D01*
X127409976Y-66894660D01*
X140916802Y-66894660D01*
X140990219Y-67071907D01*
X141697799Y-67779487D01*
X141875047Y-67852905D01*
X142052294Y-67779488D01*
X142759875Y-67071907D01*
X142833292Y-66894660D01*
X144452336Y-66894660D01*
X144525753Y-67071907D01*
X145233333Y-67779487D01*
X145410581Y-67852905D01*
X145587828Y-67779488D01*
X146295409Y-67071907D01*
X146368826Y-66894660D01*
X147987869Y-66894660D01*
X148061288Y-67071908D01*
X148768867Y-67779487D01*
X148946115Y-67852905D01*
X149123362Y-67779487D01*
X149830943Y-67071907D01*
X149904360Y-66894660D01*
X151523403Y-66894660D01*
X151596820Y-67071907D01*
X152304401Y-67779487D01*
X152481649Y-67852905D01*
X152658896Y-67779487D01*
X153366475Y-67071908D01*
X153439894Y-66894660D01*
X155058937Y-66894660D01*
X155132354Y-67071907D01*
X155839935Y-67779487D01*
X156017183Y-67852905D01*
X156194430Y-67779487D01*
X156876000Y-67097918D01*
X156876000Y-66691403D01*
X156194430Y-66009833D01*
X156017183Y-65936415D01*
X155839935Y-66009833D01*
X155132355Y-66717412D01*
X155058937Y-66894660D01*
X153439894Y-66894660D01*
X153366475Y-66717412D01*
X152658896Y-66009833D01*
X152481649Y-65936415D01*
X152304401Y-66009833D01*
X151596821Y-66717412D01*
X151523403Y-66894660D01*
X149904360Y-66894660D01*
X149830942Y-66717412D01*
X149123362Y-66009833D01*
X148946115Y-65936415D01*
X148768867Y-66009833D01*
X148061288Y-66717412D01*
X147987869Y-66894660D01*
X146368826Y-66894660D01*
X146295408Y-66717412D01*
X145587828Y-66009832D01*
X145410581Y-65936415D01*
X145233333Y-66009833D01*
X144525754Y-66717412D01*
X144452336Y-66894660D01*
X142833292Y-66894660D01*
X142759874Y-66717412D01*
X142052294Y-66009832D01*
X141875047Y-65936415D01*
X141697799Y-66009833D01*
X140990220Y-66717412D01*
X140916802Y-66894660D01*
X127409976Y-66894660D01*
X127433604Y-66857896D01*
X127438652Y-66850626D01*
X127567636Y-66678327D01*
X127573189Y-66671436D01*
X127608269Y-66630951D01*
X127614301Y-66624472D01*
X127664722Y-66574051D01*
X127671201Y-66568019D01*
X127711686Y-66532939D01*
X127718577Y-66527386D01*
X127890876Y-66398402D01*
X127898146Y-66393354D01*
X127943213Y-66364390D01*
X127950827Y-66359872D01*
X128013417Y-66325695D01*
X128021331Y-66321733D01*
X128070068Y-66299475D01*
X128078248Y-66296087D01*
X128164313Y-66263987D01*
X127910159Y-66009833D01*
X127732911Y-65936415D01*
X127555664Y-66009832D01*
X126848084Y-66717412D01*
X126774666Y-66894660D01*
X125155622Y-66894660D01*
X125082204Y-66717412D01*
X124374625Y-66009833D01*
X124197377Y-65936415D01*
X124020130Y-66009832D01*
X123312550Y-66717412D01*
X123239132Y-66894660D01*
X121620088Y-66894660D01*
X121546670Y-66717412D01*
X120839091Y-66009833D01*
X120661843Y-65936415D01*
X120484596Y-66009832D01*
X119777016Y-66717412D01*
X119703598Y-66894660D01*
X116500000Y-66894660D01*
X116500000Y-65126893D01*
X117935831Y-65126893D01*
X118009248Y-65304140D01*
X118716829Y-66011721D01*
X118894076Y-66085138D01*
X119071324Y-66011720D01*
X119778904Y-65304140D01*
X119852321Y-65126893D01*
X121471365Y-65126893D01*
X121544782Y-65304140D01*
X122252363Y-66011721D01*
X122429610Y-66085138D01*
X122606858Y-66011720D01*
X123314438Y-65304140D01*
X123387855Y-65126893D01*
X125006899Y-65126893D01*
X125080316Y-65304140D01*
X125787897Y-66011721D01*
X125965144Y-66085138D01*
X126142392Y-66011720D01*
X126849972Y-65304140D01*
X126923389Y-65126893D01*
X128542433Y-65126893D01*
X128615850Y-65304140D01*
X129323431Y-66011721D01*
X129500678Y-66085138D01*
X129677926Y-66011720D01*
X130385506Y-65304140D01*
X130458923Y-65126893D01*
X132077967Y-65126893D01*
X132151384Y-65304140D01*
X132858964Y-66011720D01*
X133036212Y-66085138D01*
X133213459Y-66011721D01*
X133921040Y-65304140D01*
X133994457Y-65126893D01*
X135613501Y-65126893D01*
X135686918Y-65304140D01*
X136394498Y-66011720D01*
X136571746Y-66085138D01*
X136748993Y-66011721D01*
X137456574Y-65304140D01*
X137529991Y-65126893D01*
X139149035Y-65126893D01*
X139222452Y-65304140D01*
X139930032Y-66011720D01*
X140107280Y-66085138D01*
X140284527Y-66011721D01*
X140992108Y-65304140D01*
X141065525Y-65126893D01*
X142684569Y-65126893D01*
X142757986Y-65304140D01*
X143465566Y-66011720D01*
X143642814Y-66085138D01*
X143820061Y-66011721D01*
X144527642Y-65304140D01*
X144601059Y-65126893D01*
X146220103Y-65126893D01*
X146293520Y-65304140D01*
X147001100Y-66011720D01*
X147178348Y-66085138D01*
X147355595Y-66011720D01*
X148063176Y-65304140D01*
X148136593Y-65126893D01*
X149755636Y-65126893D01*
X149829055Y-65304141D01*
X150536634Y-66011720D01*
X150713882Y-66085138D01*
X150891129Y-66011720D01*
X151598710Y-65304140D01*
X151672127Y-65126893D01*
X153291170Y-65126893D01*
X153364587Y-65304140D01*
X154072168Y-66011720D01*
X154249416Y-66085138D01*
X154426663Y-66011720D01*
X155134242Y-65304141D01*
X155207661Y-65126893D01*
X155134242Y-64949645D01*
X154426663Y-64242066D01*
X154249416Y-64168648D01*
X154072168Y-64242066D01*
X153364588Y-64949645D01*
X153291170Y-65126893D01*
X151672127Y-65126893D01*
X151598709Y-64949645D01*
X150891129Y-64242066D01*
X150713882Y-64168648D01*
X150536634Y-64242066D01*
X149829055Y-64949645D01*
X149755636Y-65126893D01*
X148136593Y-65126893D01*
X148063175Y-64949645D01*
X147355595Y-64242066D01*
X147178348Y-64168648D01*
X147001100Y-64242066D01*
X146293521Y-64949645D01*
X146220103Y-65126893D01*
X144601059Y-65126893D01*
X144527641Y-64949645D01*
X143820061Y-64242065D01*
X143642814Y-64168648D01*
X143465566Y-64242066D01*
X142757987Y-64949645D01*
X142684569Y-65126893D01*
X141065525Y-65126893D01*
X140992107Y-64949645D01*
X140284527Y-64242065D01*
X140107280Y-64168648D01*
X139930032Y-64242066D01*
X139222453Y-64949645D01*
X139149035Y-65126893D01*
X137529991Y-65126893D01*
X137456573Y-64949645D01*
X136748993Y-64242065D01*
X136571746Y-64168648D01*
X136394498Y-64242066D01*
X135686919Y-64949645D01*
X135613501Y-65126893D01*
X133994457Y-65126893D01*
X133921039Y-64949645D01*
X133213459Y-64242065D01*
X133036212Y-64168648D01*
X132858964Y-64242066D01*
X132151385Y-64949645D01*
X132077967Y-65126893D01*
X130458923Y-65126893D01*
X130385505Y-64949645D01*
X129677926Y-64242066D01*
X129500678Y-64168648D01*
X129323431Y-64242065D01*
X128615851Y-64949645D01*
X128542433Y-65126893D01*
X126923389Y-65126893D01*
X126849971Y-64949645D01*
X126142392Y-64242066D01*
X125965144Y-64168648D01*
X125787897Y-64242065D01*
X125080317Y-64949645D01*
X125006899Y-65126893D01*
X123387855Y-65126893D01*
X123314437Y-64949645D01*
X122606858Y-64242066D01*
X122429610Y-64168648D01*
X122252363Y-64242065D01*
X121544783Y-64949645D01*
X121471365Y-65126893D01*
X119852321Y-65126893D01*
X119778903Y-64949645D01*
X119071324Y-64242066D01*
X118894076Y-64168648D01*
X118716829Y-64242065D01*
X118009249Y-64949645D01*
X117935831Y-65126893D01*
X116500000Y-65126893D01*
X116500000Y-63624000D01*
X119864642Y-63624000D01*
X120484596Y-64243954D01*
X120661843Y-64317371D01*
X120839091Y-64243953D01*
X121459045Y-63624000D01*
X123400176Y-63624000D01*
X124020130Y-64243954D01*
X124197377Y-64317371D01*
X124374625Y-64243953D01*
X124994579Y-63624000D01*
X126935710Y-63624000D01*
X127555664Y-64243954D01*
X127732911Y-64317371D01*
X127910159Y-64243953D01*
X128530113Y-63624000D01*
X130471244Y-63624000D01*
X131091198Y-64243954D01*
X131268445Y-64317371D01*
X131445693Y-64243953D01*
X132065647Y-63624000D01*
X134006778Y-63624000D01*
X134626731Y-64243953D01*
X134803979Y-64317371D01*
X134981226Y-64243954D01*
X135601181Y-63624000D01*
X137542312Y-63624000D01*
X138162265Y-64243953D01*
X138339513Y-64317371D01*
X138516760Y-64243954D01*
X139136715Y-63624000D01*
X141077846Y-63624000D01*
X141697799Y-64243953D01*
X141875047Y-64317371D01*
X142052294Y-64243954D01*
X142672249Y-63624000D01*
X144613380Y-63624000D01*
X145233333Y-64243953D01*
X145410581Y-64317371D01*
X145587828Y-64243954D01*
X146207783Y-63624000D01*
X148148914Y-63624000D01*
X148768867Y-64243953D01*
X148946115Y-64317371D01*
X149123362Y-64243953D01*
X149743317Y-63624000D01*
X151684447Y-63624000D01*
X152304401Y-64243953D01*
X152481649Y-64317371D01*
X152658896Y-64243953D01*
X153278850Y-63624000D01*
X155219981Y-63624000D01*
X155839935Y-64243953D01*
X156017183Y-64317371D01*
X156194430Y-64243953D01*
X156814384Y-63624000D01*
X155219981Y-63624000D01*
X153278850Y-63624000D01*
X151684447Y-63624000D01*
X149743317Y-63624000D01*
X148148914Y-63624000D01*
X146207783Y-63624000D01*
X144613380Y-63624000D01*
X142672249Y-63624000D01*
X141077846Y-63624000D01*
X139136715Y-63624000D01*
X137542312Y-63624000D01*
X135601181Y-63624000D01*
X134006778Y-63624000D01*
X132065647Y-63624000D01*
X130471244Y-63624000D01*
X128530113Y-63624000D01*
X126935710Y-63624000D01*
X124994579Y-63624000D01*
X123400176Y-63624000D01*
X121459045Y-63624000D01*
X119864642Y-63624000D01*
X116500000Y-63624000D01*
X116500000Y-62624000D01*
X116519685Y-62556961D01*
X116572489Y-62511206D01*
X116624000Y-62500000D01*
X157876000Y-62500000D01*
X157943039Y-62519685D01*
G37*
%TD.AperFunction*%
%TD*%
M02*
