%TF.GenerationSoftware,KiCad,Pcbnew,8.0.5*%
%TF.CreationDate,2024-10-10T13:47:41+03:00*%
%TF.ProjectId,kek,6b656b2e-6b69-4636-9164-5f7063625858,rev?*%
%TF.SameCoordinates,Original*%
%TF.FileFunction,Legend,Top*%
%TF.FilePolarity,Positive*%
%FSLAX46Y46*%
G04 Gerber Fmt 4.6, Leading zero omitted, Abs format (unit mm)*
G04 Created by KiCad (PCBNEW 8.0.5) date 2024-10-10 13:47:41*
%MOMM*%
%LPD*%
G01*
G04 APERTURE LIST*
%ADD10C,0.150000*%
%ADD11C,0.100000*%
%ADD12C,0.120000*%
%ADD13C,0.127000*%
%ADD14C,0.203200*%
%ADD15C,0.254000*%
G04 APERTURE END LIST*
D10*
X119833333Y-99554819D02*
X119833333Y-98554819D01*
X119833333Y-98554819D02*
X120071428Y-98554819D01*
X120071428Y-98554819D02*
X120214285Y-98602438D01*
X120214285Y-98602438D02*
X120309523Y-98697676D01*
X120309523Y-98697676D02*
X120357142Y-98792914D01*
X120357142Y-98792914D02*
X120404761Y-98983390D01*
X120404761Y-98983390D02*
X120404761Y-99126247D01*
X120404761Y-99126247D02*
X120357142Y-99316723D01*
X120357142Y-99316723D02*
X120309523Y-99411961D01*
X120309523Y-99411961D02*
X120214285Y-99507200D01*
X120214285Y-99507200D02*
X120071428Y-99554819D01*
X120071428Y-99554819D02*
X119833333Y-99554819D01*
X120785714Y-99269104D02*
X121261904Y-99269104D01*
X120690476Y-99554819D02*
X121023809Y-98554819D01*
X121023809Y-98554819D02*
X121357142Y-99554819D01*
X122214285Y-99554819D02*
X121642857Y-99554819D01*
X121928571Y-99554819D02*
X121928571Y-98554819D01*
X121928571Y-98554819D02*
X121833333Y-98697676D01*
X121833333Y-98697676D02*
X121738095Y-98792914D01*
X121738095Y-98792914D02*
X121642857Y-98840533D01*
X161884819Y-111341666D02*
X161408628Y-111674999D01*
X161884819Y-111913094D02*
X160884819Y-111913094D01*
X160884819Y-111913094D02*
X160884819Y-111532142D01*
X160884819Y-111532142D02*
X160932438Y-111436904D01*
X160932438Y-111436904D02*
X160980057Y-111389285D01*
X160980057Y-111389285D02*
X161075295Y-111341666D01*
X161075295Y-111341666D02*
X161218152Y-111341666D01*
X161218152Y-111341666D02*
X161313390Y-111389285D01*
X161313390Y-111389285D02*
X161361009Y-111436904D01*
X161361009Y-111436904D02*
X161408628Y-111532142D01*
X161408628Y-111532142D02*
X161408628Y-111913094D01*
X161313390Y-110770237D02*
X161265771Y-110865475D01*
X161265771Y-110865475D02*
X161218152Y-110913094D01*
X161218152Y-110913094D02*
X161122914Y-110960713D01*
X161122914Y-110960713D02*
X161075295Y-110960713D01*
X161075295Y-110960713D02*
X160980057Y-110913094D01*
X160980057Y-110913094D02*
X160932438Y-110865475D01*
X160932438Y-110865475D02*
X160884819Y-110770237D01*
X160884819Y-110770237D02*
X160884819Y-110579761D01*
X160884819Y-110579761D02*
X160932438Y-110484523D01*
X160932438Y-110484523D02*
X160980057Y-110436904D01*
X160980057Y-110436904D02*
X161075295Y-110389285D01*
X161075295Y-110389285D02*
X161122914Y-110389285D01*
X161122914Y-110389285D02*
X161218152Y-110436904D01*
X161218152Y-110436904D02*
X161265771Y-110484523D01*
X161265771Y-110484523D02*
X161313390Y-110579761D01*
X161313390Y-110579761D02*
X161313390Y-110770237D01*
X161313390Y-110770237D02*
X161361009Y-110865475D01*
X161361009Y-110865475D02*
X161408628Y-110913094D01*
X161408628Y-110913094D02*
X161503866Y-110960713D01*
X161503866Y-110960713D02*
X161694342Y-110960713D01*
X161694342Y-110960713D02*
X161789580Y-110913094D01*
X161789580Y-110913094D02*
X161837200Y-110865475D01*
X161837200Y-110865475D02*
X161884819Y-110770237D01*
X161884819Y-110770237D02*
X161884819Y-110579761D01*
X161884819Y-110579761D02*
X161837200Y-110484523D01*
X161837200Y-110484523D02*
X161789580Y-110436904D01*
X161789580Y-110436904D02*
X161694342Y-110389285D01*
X161694342Y-110389285D02*
X161503866Y-110389285D01*
X161503866Y-110389285D02*
X161408628Y-110436904D01*
X161408628Y-110436904D02*
X161361009Y-110484523D01*
X161361009Y-110484523D02*
X161313390Y-110579761D01*
X154988333Y-83504819D02*
X154655000Y-83028628D01*
X154416905Y-83504819D02*
X154416905Y-82504819D01*
X154416905Y-82504819D02*
X154797857Y-82504819D01*
X154797857Y-82504819D02*
X154893095Y-82552438D01*
X154893095Y-82552438D02*
X154940714Y-82600057D01*
X154940714Y-82600057D02*
X154988333Y-82695295D01*
X154988333Y-82695295D02*
X154988333Y-82838152D01*
X154988333Y-82838152D02*
X154940714Y-82933390D01*
X154940714Y-82933390D02*
X154893095Y-82981009D01*
X154893095Y-82981009D02*
X154797857Y-83028628D01*
X154797857Y-83028628D02*
X154416905Y-83028628D01*
X155369286Y-82600057D02*
X155416905Y-82552438D01*
X155416905Y-82552438D02*
X155512143Y-82504819D01*
X155512143Y-82504819D02*
X155750238Y-82504819D01*
X155750238Y-82504819D02*
X155845476Y-82552438D01*
X155845476Y-82552438D02*
X155893095Y-82600057D01*
X155893095Y-82600057D02*
X155940714Y-82695295D01*
X155940714Y-82695295D02*
X155940714Y-82790533D01*
X155940714Y-82790533D02*
X155893095Y-82933390D01*
X155893095Y-82933390D02*
X155321667Y-83504819D01*
X155321667Y-83504819D02*
X155940714Y-83504819D01*
X151158333Y-98884819D02*
X150825000Y-98408628D01*
X150586905Y-98884819D02*
X150586905Y-97884819D01*
X150586905Y-97884819D02*
X150967857Y-97884819D01*
X150967857Y-97884819D02*
X151063095Y-97932438D01*
X151063095Y-97932438D02*
X151110714Y-97980057D01*
X151110714Y-97980057D02*
X151158333Y-98075295D01*
X151158333Y-98075295D02*
X151158333Y-98218152D01*
X151158333Y-98218152D02*
X151110714Y-98313390D01*
X151110714Y-98313390D02*
X151063095Y-98361009D01*
X151063095Y-98361009D02*
X150967857Y-98408628D01*
X150967857Y-98408628D02*
X150586905Y-98408628D01*
X152063095Y-97884819D02*
X151586905Y-97884819D01*
X151586905Y-97884819D02*
X151539286Y-98361009D01*
X151539286Y-98361009D02*
X151586905Y-98313390D01*
X151586905Y-98313390D02*
X151682143Y-98265771D01*
X151682143Y-98265771D02*
X151920238Y-98265771D01*
X151920238Y-98265771D02*
X152015476Y-98313390D01*
X152015476Y-98313390D02*
X152063095Y-98361009D01*
X152063095Y-98361009D02*
X152110714Y-98456247D01*
X152110714Y-98456247D02*
X152110714Y-98694342D01*
X152110714Y-98694342D02*
X152063095Y-98789580D01*
X152063095Y-98789580D02*
X152015476Y-98837200D01*
X152015476Y-98837200D02*
X151920238Y-98884819D01*
X151920238Y-98884819D02*
X151682143Y-98884819D01*
X151682143Y-98884819D02*
X151586905Y-98837200D01*
X151586905Y-98837200D02*
X151539286Y-98789580D01*
X145333333Y-104814819D02*
X145333333Y-103814819D01*
X145333333Y-103814819D02*
X145571428Y-103814819D01*
X145571428Y-103814819D02*
X145714285Y-103862438D01*
X145714285Y-103862438D02*
X145809523Y-103957676D01*
X145809523Y-103957676D02*
X145857142Y-104052914D01*
X145857142Y-104052914D02*
X145904761Y-104243390D01*
X145904761Y-104243390D02*
X145904761Y-104386247D01*
X145904761Y-104386247D02*
X145857142Y-104576723D01*
X145857142Y-104576723D02*
X145809523Y-104671961D01*
X145809523Y-104671961D02*
X145714285Y-104767200D01*
X145714285Y-104767200D02*
X145571428Y-104814819D01*
X145571428Y-104814819D02*
X145333333Y-104814819D01*
X146285714Y-104529104D02*
X146761904Y-104529104D01*
X146190476Y-104814819D02*
X146523809Y-103814819D01*
X146523809Y-103814819D02*
X146857142Y-104814819D01*
X147142857Y-103910057D02*
X147190476Y-103862438D01*
X147190476Y-103862438D02*
X147285714Y-103814819D01*
X147285714Y-103814819D02*
X147523809Y-103814819D01*
X147523809Y-103814819D02*
X147619047Y-103862438D01*
X147619047Y-103862438D02*
X147666666Y-103910057D01*
X147666666Y-103910057D02*
X147714285Y-104005295D01*
X147714285Y-104005295D02*
X147714285Y-104100533D01*
X147714285Y-104100533D02*
X147666666Y-104243390D01*
X147666666Y-104243390D02*
X147095238Y-104814819D01*
X147095238Y-104814819D02*
X147714285Y-104814819D01*
X136383333Y-93179580D02*
X136335714Y-93227200D01*
X136335714Y-93227200D02*
X136192857Y-93274819D01*
X136192857Y-93274819D02*
X136097619Y-93274819D01*
X136097619Y-93274819D02*
X135954762Y-93227200D01*
X135954762Y-93227200D02*
X135859524Y-93131961D01*
X135859524Y-93131961D02*
X135811905Y-93036723D01*
X135811905Y-93036723D02*
X135764286Y-92846247D01*
X135764286Y-92846247D02*
X135764286Y-92703390D01*
X135764286Y-92703390D02*
X135811905Y-92512914D01*
X135811905Y-92512914D02*
X135859524Y-92417676D01*
X135859524Y-92417676D02*
X135954762Y-92322438D01*
X135954762Y-92322438D02*
X136097619Y-92274819D01*
X136097619Y-92274819D02*
X136192857Y-92274819D01*
X136192857Y-92274819D02*
X136335714Y-92322438D01*
X136335714Y-92322438D02*
X136383333Y-92370057D01*
X137240476Y-92608152D02*
X137240476Y-93274819D01*
X137002381Y-92227200D02*
X136764286Y-92941485D01*
X136764286Y-92941485D02*
X137383333Y-92941485D01*
X154988333Y-80994819D02*
X154655000Y-80518628D01*
X154416905Y-80994819D02*
X154416905Y-79994819D01*
X154416905Y-79994819D02*
X154797857Y-79994819D01*
X154797857Y-79994819D02*
X154893095Y-80042438D01*
X154893095Y-80042438D02*
X154940714Y-80090057D01*
X154940714Y-80090057D02*
X154988333Y-80185295D01*
X154988333Y-80185295D02*
X154988333Y-80328152D01*
X154988333Y-80328152D02*
X154940714Y-80423390D01*
X154940714Y-80423390D02*
X154893095Y-80471009D01*
X154893095Y-80471009D02*
X154797857Y-80518628D01*
X154797857Y-80518628D02*
X154416905Y-80518628D01*
X155940714Y-80994819D02*
X155369286Y-80994819D01*
X155655000Y-80994819D02*
X155655000Y-79994819D01*
X155655000Y-79994819D02*
X155559762Y-80137676D01*
X155559762Y-80137676D02*
X155464524Y-80232914D01*
X155464524Y-80232914D02*
X155369286Y-80280533D01*
X103628448Y-98039523D02*
X104628448Y-97706190D01*
X104628448Y-97706190D02*
X103628448Y-97372857D01*
X104628448Y-97039523D02*
X103628448Y-97039523D01*
X103628448Y-97039523D02*
X103628448Y-96801428D01*
X103628448Y-96801428D02*
X103676067Y-96658571D01*
X103676067Y-96658571D02*
X103771305Y-96563333D01*
X103771305Y-96563333D02*
X103866543Y-96515714D01*
X103866543Y-96515714D02*
X104057019Y-96468095D01*
X104057019Y-96468095D02*
X104199876Y-96468095D01*
X104199876Y-96468095D02*
X104390352Y-96515714D01*
X104390352Y-96515714D02*
X104485590Y-96563333D01*
X104485590Y-96563333D02*
X104580829Y-96658571D01*
X104580829Y-96658571D02*
X104628448Y-96801428D01*
X104628448Y-96801428D02*
X104628448Y-97039523D01*
X104628448Y-95515714D02*
X104628448Y-96087142D01*
X104628448Y-95801428D02*
X103628448Y-95801428D01*
X103628448Y-95801428D02*
X103771305Y-95896666D01*
X103771305Y-95896666D02*
X103866543Y-95991904D01*
X103866543Y-95991904D02*
X103914162Y-96087142D01*
X106669104Y-93898094D02*
X106669104Y-93421904D01*
X106954819Y-93993332D02*
X105954819Y-93659999D01*
X105954819Y-93659999D02*
X106954819Y-93326666D01*
X155008333Y-89884819D02*
X154675000Y-89408628D01*
X154436905Y-89884819D02*
X154436905Y-88884819D01*
X154436905Y-88884819D02*
X154817857Y-88884819D01*
X154817857Y-88884819D02*
X154913095Y-88932438D01*
X154913095Y-88932438D02*
X154960714Y-88980057D01*
X154960714Y-88980057D02*
X155008333Y-89075295D01*
X155008333Y-89075295D02*
X155008333Y-89218152D01*
X155008333Y-89218152D02*
X154960714Y-89313390D01*
X154960714Y-89313390D02*
X154913095Y-89361009D01*
X154913095Y-89361009D02*
X154817857Y-89408628D01*
X154817857Y-89408628D02*
X154436905Y-89408628D01*
X155341667Y-88884819D02*
X156008333Y-88884819D01*
X156008333Y-88884819D02*
X155579762Y-89884819D01*
X140857142Y-136524819D02*
X140523809Y-136048628D01*
X140285714Y-136524819D02*
X140285714Y-135524819D01*
X140285714Y-135524819D02*
X140666666Y-135524819D01*
X140666666Y-135524819D02*
X140761904Y-135572438D01*
X140761904Y-135572438D02*
X140809523Y-135620057D01*
X140809523Y-135620057D02*
X140857142Y-135715295D01*
X140857142Y-135715295D02*
X140857142Y-135858152D01*
X140857142Y-135858152D02*
X140809523Y-135953390D01*
X140809523Y-135953390D02*
X140761904Y-136001009D01*
X140761904Y-136001009D02*
X140666666Y-136048628D01*
X140666666Y-136048628D02*
X140285714Y-136048628D01*
X141809523Y-136524819D02*
X141238095Y-136524819D01*
X141523809Y-136524819D02*
X141523809Y-135524819D01*
X141523809Y-135524819D02*
X141428571Y-135667676D01*
X141428571Y-135667676D02*
X141333333Y-135762914D01*
X141333333Y-135762914D02*
X141238095Y-135810533D01*
X142666666Y-135858152D02*
X142666666Y-136524819D01*
X142428571Y-135477200D02*
X142190476Y-136191485D01*
X142190476Y-136191485D02*
X142809523Y-136191485D01*
X116781190Y-98079523D02*
X117781190Y-97746190D01*
X117781190Y-97746190D02*
X116781190Y-97412857D01*
X117781190Y-97079523D02*
X116781190Y-97079523D01*
X116781190Y-97079523D02*
X116781190Y-96841428D01*
X116781190Y-96841428D02*
X116828809Y-96698571D01*
X116828809Y-96698571D02*
X116924047Y-96603333D01*
X116924047Y-96603333D02*
X117019285Y-96555714D01*
X117019285Y-96555714D02*
X117209761Y-96508095D01*
X117209761Y-96508095D02*
X117352618Y-96508095D01*
X117352618Y-96508095D02*
X117543094Y-96555714D01*
X117543094Y-96555714D02*
X117638332Y-96603333D01*
X117638332Y-96603333D02*
X117733571Y-96698571D01*
X117733571Y-96698571D02*
X117781190Y-96841428D01*
X117781190Y-96841428D02*
X117781190Y-97079523D01*
X116876428Y-96127142D02*
X116828809Y-96079523D01*
X116828809Y-96079523D02*
X116781190Y-95984285D01*
X116781190Y-95984285D02*
X116781190Y-95746190D01*
X116781190Y-95746190D02*
X116828809Y-95650952D01*
X116828809Y-95650952D02*
X116876428Y-95603333D01*
X116876428Y-95603333D02*
X116971666Y-95555714D01*
X116971666Y-95555714D02*
X117066904Y-95555714D01*
X117066904Y-95555714D02*
X117209761Y-95603333D01*
X117209761Y-95603333D02*
X117781190Y-96174761D01*
X117781190Y-96174761D02*
X117781190Y-95555714D01*
X115169104Y-100078094D02*
X115169104Y-99601904D01*
X115454819Y-100173332D02*
X114454819Y-99839999D01*
X114454819Y-99839999D02*
X115454819Y-99506666D01*
X145333333Y-119314819D02*
X145333333Y-118314819D01*
X145333333Y-118314819D02*
X145571428Y-118314819D01*
X145571428Y-118314819D02*
X145714285Y-118362438D01*
X145714285Y-118362438D02*
X145809523Y-118457676D01*
X145809523Y-118457676D02*
X145857142Y-118552914D01*
X145857142Y-118552914D02*
X145904761Y-118743390D01*
X145904761Y-118743390D02*
X145904761Y-118886247D01*
X145904761Y-118886247D02*
X145857142Y-119076723D01*
X145857142Y-119076723D02*
X145809523Y-119171961D01*
X145809523Y-119171961D02*
X145714285Y-119267200D01*
X145714285Y-119267200D02*
X145571428Y-119314819D01*
X145571428Y-119314819D02*
X145333333Y-119314819D01*
X146285714Y-119029104D02*
X146761904Y-119029104D01*
X146190476Y-119314819D02*
X146523809Y-118314819D01*
X146523809Y-118314819D02*
X146857142Y-119314819D01*
X147095238Y-118314819D02*
X147714285Y-118314819D01*
X147714285Y-118314819D02*
X147380952Y-118695771D01*
X147380952Y-118695771D02*
X147523809Y-118695771D01*
X147523809Y-118695771D02*
X147619047Y-118743390D01*
X147619047Y-118743390D02*
X147666666Y-118791009D01*
X147666666Y-118791009D02*
X147714285Y-118886247D01*
X147714285Y-118886247D02*
X147714285Y-119124342D01*
X147714285Y-119124342D02*
X147666666Y-119219580D01*
X147666666Y-119219580D02*
X147619047Y-119267200D01*
X147619047Y-119267200D02*
X147523809Y-119314819D01*
X147523809Y-119314819D02*
X147238095Y-119314819D01*
X147238095Y-119314819D02*
X147142857Y-119267200D01*
X147142857Y-119267200D02*
X147095238Y-119219580D01*
X118383333Y-91179580D02*
X118335714Y-91227200D01*
X118335714Y-91227200D02*
X118192857Y-91274819D01*
X118192857Y-91274819D02*
X118097619Y-91274819D01*
X118097619Y-91274819D02*
X117954762Y-91227200D01*
X117954762Y-91227200D02*
X117859524Y-91131961D01*
X117859524Y-91131961D02*
X117811905Y-91036723D01*
X117811905Y-91036723D02*
X117764286Y-90846247D01*
X117764286Y-90846247D02*
X117764286Y-90703390D01*
X117764286Y-90703390D02*
X117811905Y-90512914D01*
X117811905Y-90512914D02*
X117859524Y-90417676D01*
X117859524Y-90417676D02*
X117954762Y-90322438D01*
X117954762Y-90322438D02*
X118097619Y-90274819D01*
X118097619Y-90274819D02*
X118192857Y-90274819D01*
X118192857Y-90274819D02*
X118335714Y-90322438D01*
X118335714Y-90322438D02*
X118383333Y-90370057D01*
X118764286Y-90370057D02*
X118811905Y-90322438D01*
X118811905Y-90322438D02*
X118907143Y-90274819D01*
X118907143Y-90274819D02*
X119145238Y-90274819D01*
X119145238Y-90274819D02*
X119240476Y-90322438D01*
X119240476Y-90322438D02*
X119288095Y-90370057D01*
X119288095Y-90370057D02*
X119335714Y-90465295D01*
X119335714Y-90465295D02*
X119335714Y-90560533D01*
X119335714Y-90560533D02*
X119288095Y-90703390D01*
X119288095Y-90703390D02*
X118716667Y-91274819D01*
X118716667Y-91274819D02*
X119335714Y-91274819D01*
D11*
X133128226Y-61894919D02*
X133794892Y-62894919D01*
X133794892Y-61894919D02*
X133128226Y-62894919D01*
X134699654Y-62894919D02*
X134128226Y-62894919D01*
X134413940Y-62894919D02*
X134413940Y-61894919D01*
X134413940Y-61894919D02*
X134318702Y-62037776D01*
X134318702Y-62037776D02*
X134223464Y-62133014D01*
X134223464Y-62133014D02*
X134128226Y-62180633D01*
D10*
X126883333Y-108179580D02*
X126835714Y-108227200D01*
X126835714Y-108227200D02*
X126692857Y-108274819D01*
X126692857Y-108274819D02*
X126597619Y-108274819D01*
X126597619Y-108274819D02*
X126454762Y-108227200D01*
X126454762Y-108227200D02*
X126359524Y-108131961D01*
X126359524Y-108131961D02*
X126311905Y-108036723D01*
X126311905Y-108036723D02*
X126264286Y-107846247D01*
X126264286Y-107846247D02*
X126264286Y-107703390D01*
X126264286Y-107703390D02*
X126311905Y-107512914D01*
X126311905Y-107512914D02*
X126359524Y-107417676D01*
X126359524Y-107417676D02*
X126454762Y-107322438D01*
X126454762Y-107322438D02*
X126597619Y-107274819D01*
X126597619Y-107274819D02*
X126692857Y-107274819D01*
X126692857Y-107274819D02*
X126835714Y-107322438D01*
X126835714Y-107322438D02*
X126883333Y-107370057D01*
X127788095Y-107274819D02*
X127311905Y-107274819D01*
X127311905Y-107274819D02*
X127264286Y-107751009D01*
X127264286Y-107751009D02*
X127311905Y-107703390D01*
X127311905Y-107703390D02*
X127407143Y-107655771D01*
X127407143Y-107655771D02*
X127645238Y-107655771D01*
X127645238Y-107655771D02*
X127740476Y-107703390D01*
X127740476Y-107703390D02*
X127788095Y-107751009D01*
X127788095Y-107751009D02*
X127835714Y-107846247D01*
X127835714Y-107846247D02*
X127835714Y-108084342D01*
X127835714Y-108084342D02*
X127788095Y-108179580D01*
X127788095Y-108179580D02*
X127740476Y-108227200D01*
X127740476Y-108227200D02*
X127645238Y-108274819D01*
X127645238Y-108274819D02*
X127407143Y-108274819D01*
X127407143Y-108274819D02*
X127311905Y-108227200D01*
X127311905Y-108227200D02*
X127264286Y-108179580D01*
X114024819Y-104967857D02*
X113548628Y-105301190D01*
X114024819Y-105539285D02*
X113024819Y-105539285D01*
X113024819Y-105539285D02*
X113024819Y-105158333D01*
X113024819Y-105158333D02*
X113072438Y-105063095D01*
X113072438Y-105063095D02*
X113120057Y-105015476D01*
X113120057Y-105015476D02*
X113215295Y-104967857D01*
X113215295Y-104967857D02*
X113358152Y-104967857D01*
X113358152Y-104967857D02*
X113453390Y-105015476D01*
X113453390Y-105015476D02*
X113501009Y-105063095D01*
X113501009Y-105063095D02*
X113548628Y-105158333D01*
X113548628Y-105158333D02*
X113548628Y-105539285D01*
X114024819Y-104015476D02*
X114024819Y-104586904D01*
X114024819Y-104301190D02*
X113024819Y-104301190D01*
X113024819Y-104301190D02*
X113167676Y-104396428D01*
X113167676Y-104396428D02*
X113262914Y-104491666D01*
X113262914Y-104491666D02*
X113310533Y-104586904D01*
X113024819Y-103110714D02*
X113024819Y-103586904D01*
X113024819Y-103586904D02*
X113501009Y-103634523D01*
X113501009Y-103634523D02*
X113453390Y-103586904D01*
X113453390Y-103586904D02*
X113405771Y-103491666D01*
X113405771Y-103491666D02*
X113405771Y-103253571D01*
X113405771Y-103253571D02*
X113453390Y-103158333D01*
X113453390Y-103158333D02*
X113501009Y-103110714D01*
X113501009Y-103110714D02*
X113596247Y-103063095D01*
X113596247Y-103063095D02*
X113834342Y-103063095D01*
X113834342Y-103063095D02*
X113929580Y-103110714D01*
X113929580Y-103110714D02*
X113977200Y-103158333D01*
X113977200Y-103158333D02*
X114024819Y-103253571D01*
X114024819Y-103253571D02*
X114024819Y-103491666D01*
X114024819Y-103491666D02*
X113977200Y-103586904D01*
X113977200Y-103586904D02*
X113929580Y-103634523D01*
X131783333Y-90039580D02*
X131735714Y-90087200D01*
X131735714Y-90087200D02*
X131592857Y-90134819D01*
X131592857Y-90134819D02*
X131497619Y-90134819D01*
X131497619Y-90134819D02*
X131354762Y-90087200D01*
X131354762Y-90087200D02*
X131259524Y-89991961D01*
X131259524Y-89991961D02*
X131211905Y-89896723D01*
X131211905Y-89896723D02*
X131164286Y-89706247D01*
X131164286Y-89706247D02*
X131164286Y-89563390D01*
X131164286Y-89563390D02*
X131211905Y-89372914D01*
X131211905Y-89372914D02*
X131259524Y-89277676D01*
X131259524Y-89277676D02*
X131354762Y-89182438D01*
X131354762Y-89182438D02*
X131497619Y-89134819D01*
X131497619Y-89134819D02*
X131592857Y-89134819D01*
X131592857Y-89134819D02*
X131735714Y-89182438D01*
X131735714Y-89182438D02*
X131783333Y-89230057D01*
X132735714Y-90134819D02*
X132164286Y-90134819D01*
X132450000Y-90134819D02*
X132450000Y-89134819D01*
X132450000Y-89134819D02*
X132354762Y-89277676D01*
X132354762Y-89277676D02*
X132259524Y-89372914D01*
X132259524Y-89372914D02*
X132164286Y-89420533D01*
X146532142Y-136524819D02*
X146198809Y-136048628D01*
X145960714Y-136524819D02*
X145960714Y-135524819D01*
X145960714Y-135524819D02*
X146341666Y-135524819D01*
X146341666Y-135524819D02*
X146436904Y-135572438D01*
X146436904Y-135572438D02*
X146484523Y-135620057D01*
X146484523Y-135620057D02*
X146532142Y-135715295D01*
X146532142Y-135715295D02*
X146532142Y-135858152D01*
X146532142Y-135858152D02*
X146484523Y-135953390D01*
X146484523Y-135953390D02*
X146436904Y-136001009D01*
X146436904Y-136001009D02*
X146341666Y-136048628D01*
X146341666Y-136048628D02*
X145960714Y-136048628D01*
X147484523Y-136524819D02*
X146913095Y-136524819D01*
X147198809Y-136524819D02*
X147198809Y-135524819D01*
X147198809Y-135524819D02*
X147103571Y-135667676D01*
X147103571Y-135667676D02*
X147008333Y-135762914D01*
X147008333Y-135762914D02*
X146913095Y-135810533D01*
X147817857Y-135524819D02*
X148436904Y-135524819D01*
X148436904Y-135524819D02*
X148103571Y-135905771D01*
X148103571Y-135905771D02*
X148246428Y-135905771D01*
X148246428Y-135905771D02*
X148341666Y-135953390D01*
X148341666Y-135953390D02*
X148389285Y-136001009D01*
X148389285Y-136001009D02*
X148436904Y-136096247D01*
X148436904Y-136096247D02*
X148436904Y-136334342D01*
X148436904Y-136334342D02*
X148389285Y-136429580D01*
X148389285Y-136429580D02*
X148341666Y-136477200D01*
X148341666Y-136477200D02*
X148246428Y-136524819D01*
X148246428Y-136524819D02*
X147960714Y-136524819D01*
X147960714Y-136524819D02*
X147865476Y-136477200D01*
X147865476Y-136477200D02*
X147817857Y-136429580D01*
X137884819Y-123817857D02*
X137408628Y-124151190D01*
X137884819Y-124389285D02*
X136884819Y-124389285D01*
X136884819Y-124389285D02*
X136884819Y-124008333D01*
X136884819Y-124008333D02*
X136932438Y-123913095D01*
X136932438Y-123913095D02*
X136980057Y-123865476D01*
X136980057Y-123865476D02*
X137075295Y-123817857D01*
X137075295Y-123817857D02*
X137218152Y-123817857D01*
X137218152Y-123817857D02*
X137313390Y-123865476D01*
X137313390Y-123865476D02*
X137361009Y-123913095D01*
X137361009Y-123913095D02*
X137408628Y-124008333D01*
X137408628Y-124008333D02*
X137408628Y-124389285D01*
X137884819Y-122865476D02*
X137884819Y-123436904D01*
X137884819Y-123151190D02*
X136884819Y-123151190D01*
X136884819Y-123151190D02*
X137027676Y-123246428D01*
X137027676Y-123246428D02*
X137122914Y-123341666D01*
X137122914Y-123341666D02*
X137170533Y-123436904D01*
X136980057Y-122484523D02*
X136932438Y-122436904D01*
X136932438Y-122436904D02*
X136884819Y-122341666D01*
X136884819Y-122341666D02*
X136884819Y-122103571D01*
X136884819Y-122103571D02*
X136932438Y-122008333D01*
X136932438Y-122008333D02*
X136980057Y-121960714D01*
X136980057Y-121960714D02*
X137075295Y-121913095D01*
X137075295Y-121913095D02*
X137170533Y-121913095D01*
X137170533Y-121913095D02*
X137313390Y-121960714D01*
X137313390Y-121960714D02*
X137884819Y-122532142D01*
X137884819Y-122532142D02*
X137884819Y-121913095D01*
X155008333Y-96024819D02*
X154675000Y-95548628D01*
X154436905Y-96024819D02*
X154436905Y-95024819D01*
X154436905Y-95024819D02*
X154817857Y-95024819D01*
X154817857Y-95024819D02*
X154913095Y-95072438D01*
X154913095Y-95072438D02*
X154960714Y-95120057D01*
X154960714Y-95120057D02*
X155008333Y-95215295D01*
X155008333Y-95215295D02*
X155008333Y-95358152D01*
X155008333Y-95358152D02*
X154960714Y-95453390D01*
X154960714Y-95453390D02*
X154913095Y-95501009D01*
X154913095Y-95501009D02*
X154817857Y-95548628D01*
X154817857Y-95548628D02*
X154436905Y-95548628D01*
X155865476Y-95358152D02*
X155865476Y-96024819D01*
X155627381Y-94977200D02*
X155389286Y-95691485D01*
X155389286Y-95691485D02*
X156008333Y-95691485D01*
X130532142Y-136524819D02*
X130198809Y-136048628D01*
X129960714Y-136524819D02*
X129960714Y-135524819D01*
X129960714Y-135524819D02*
X130341666Y-135524819D01*
X130341666Y-135524819D02*
X130436904Y-135572438D01*
X130436904Y-135572438D02*
X130484523Y-135620057D01*
X130484523Y-135620057D02*
X130532142Y-135715295D01*
X130532142Y-135715295D02*
X130532142Y-135858152D01*
X130532142Y-135858152D02*
X130484523Y-135953390D01*
X130484523Y-135953390D02*
X130436904Y-136001009D01*
X130436904Y-136001009D02*
X130341666Y-136048628D01*
X130341666Y-136048628D02*
X129960714Y-136048628D01*
X131484523Y-136524819D02*
X130913095Y-136524819D01*
X131198809Y-136524819D02*
X131198809Y-135524819D01*
X131198809Y-135524819D02*
X131103571Y-135667676D01*
X131103571Y-135667676D02*
X131008333Y-135762914D01*
X131008333Y-135762914D02*
X130913095Y-135810533D01*
X132103571Y-135524819D02*
X132198809Y-135524819D01*
X132198809Y-135524819D02*
X132294047Y-135572438D01*
X132294047Y-135572438D02*
X132341666Y-135620057D01*
X132341666Y-135620057D02*
X132389285Y-135715295D01*
X132389285Y-135715295D02*
X132436904Y-135905771D01*
X132436904Y-135905771D02*
X132436904Y-136143866D01*
X132436904Y-136143866D02*
X132389285Y-136334342D01*
X132389285Y-136334342D02*
X132341666Y-136429580D01*
X132341666Y-136429580D02*
X132294047Y-136477200D01*
X132294047Y-136477200D02*
X132198809Y-136524819D01*
X132198809Y-136524819D02*
X132103571Y-136524819D01*
X132103571Y-136524819D02*
X132008333Y-136477200D01*
X132008333Y-136477200D02*
X131960714Y-136429580D01*
X131960714Y-136429580D02*
X131913095Y-136334342D01*
X131913095Y-136334342D02*
X131865476Y-136143866D01*
X131865476Y-136143866D02*
X131865476Y-135905771D01*
X131865476Y-135905771D02*
X131913095Y-135715295D01*
X131913095Y-135715295D02*
X131960714Y-135620057D01*
X131960714Y-135620057D02*
X132008333Y-135572438D01*
X132008333Y-135572438D02*
X132103571Y-135524819D01*
X134532142Y-136524819D02*
X134198809Y-136048628D01*
X133960714Y-136524819D02*
X133960714Y-135524819D01*
X133960714Y-135524819D02*
X134341666Y-135524819D01*
X134341666Y-135524819D02*
X134436904Y-135572438D01*
X134436904Y-135572438D02*
X134484523Y-135620057D01*
X134484523Y-135620057D02*
X134532142Y-135715295D01*
X134532142Y-135715295D02*
X134532142Y-135858152D01*
X134532142Y-135858152D02*
X134484523Y-135953390D01*
X134484523Y-135953390D02*
X134436904Y-136001009D01*
X134436904Y-136001009D02*
X134341666Y-136048628D01*
X134341666Y-136048628D02*
X133960714Y-136048628D01*
X135484523Y-136524819D02*
X134913095Y-136524819D01*
X135198809Y-136524819D02*
X135198809Y-135524819D01*
X135198809Y-135524819D02*
X135103571Y-135667676D01*
X135103571Y-135667676D02*
X135008333Y-135762914D01*
X135008333Y-135762914D02*
X134913095Y-135810533D01*
X136436904Y-136524819D02*
X135865476Y-136524819D01*
X136151190Y-136524819D02*
X136151190Y-135524819D01*
X136151190Y-135524819D02*
X136055952Y-135667676D01*
X136055952Y-135667676D02*
X135960714Y-135762914D01*
X135960714Y-135762914D02*
X135865476Y-135810533D01*
X136258333Y-86919580D02*
X136210714Y-86967200D01*
X136210714Y-86967200D02*
X136067857Y-87014819D01*
X136067857Y-87014819D02*
X135972619Y-87014819D01*
X135972619Y-87014819D02*
X135829762Y-86967200D01*
X135829762Y-86967200D02*
X135734524Y-86871961D01*
X135734524Y-86871961D02*
X135686905Y-86776723D01*
X135686905Y-86776723D02*
X135639286Y-86586247D01*
X135639286Y-86586247D02*
X135639286Y-86443390D01*
X135639286Y-86443390D02*
X135686905Y-86252914D01*
X135686905Y-86252914D02*
X135734524Y-86157676D01*
X135734524Y-86157676D02*
X135829762Y-86062438D01*
X135829762Y-86062438D02*
X135972619Y-86014819D01*
X135972619Y-86014819D02*
X136067857Y-86014819D01*
X136067857Y-86014819D02*
X136210714Y-86062438D01*
X136210714Y-86062438D02*
X136258333Y-86110057D01*
X136591667Y-86014819D02*
X137210714Y-86014819D01*
X137210714Y-86014819D02*
X136877381Y-86395771D01*
X136877381Y-86395771D02*
X137020238Y-86395771D01*
X137020238Y-86395771D02*
X137115476Y-86443390D01*
X137115476Y-86443390D02*
X137163095Y-86491009D01*
X137163095Y-86491009D02*
X137210714Y-86586247D01*
X137210714Y-86586247D02*
X137210714Y-86824342D01*
X137210714Y-86824342D02*
X137163095Y-86919580D01*
X137163095Y-86919580D02*
X137115476Y-86967200D01*
X137115476Y-86967200D02*
X137020238Y-87014819D01*
X137020238Y-87014819D02*
X136734524Y-87014819D01*
X136734524Y-87014819D02*
X136639286Y-86967200D01*
X136639286Y-86967200D02*
X136591667Y-86919580D01*
X137884819Y-119191666D02*
X137408628Y-119524999D01*
X137884819Y-119763094D02*
X136884819Y-119763094D01*
X136884819Y-119763094D02*
X136884819Y-119382142D01*
X136884819Y-119382142D02*
X136932438Y-119286904D01*
X136932438Y-119286904D02*
X136980057Y-119239285D01*
X136980057Y-119239285D02*
X137075295Y-119191666D01*
X137075295Y-119191666D02*
X137218152Y-119191666D01*
X137218152Y-119191666D02*
X137313390Y-119239285D01*
X137313390Y-119239285D02*
X137361009Y-119286904D01*
X137361009Y-119286904D02*
X137408628Y-119382142D01*
X137408628Y-119382142D02*
X137408628Y-119763094D01*
X137884819Y-118715475D02*
X137884819Y-118524999D01*
X137884819Y-118524999D02*
X137837200Y-118429761D01*
X137837200Y-118429761D02*
X137789580Y-118382142D01*
X137789580Y-118382142D02*
X137646723Y-118286904D01*
X137646723Y-118286904D02*
X137456247Y-118239285D01*
X137456247Y-118239285D02*
X137075295Y-118239285D01*
X137075295Y-118239285D02*
X136980057Y-118286904D01*
X136980057Y-118286904D02*
X136932438Y-118334523D01*
X136932438Y-118334523D02*
X136884819Y-118429761D01*
X136884819Y-118429761D02*
X136884819Y-118620237D01*
X136884819Y-118620237D02*
X136932438Y-118715475D01*
X136932438Y-118715475D02*
X136980057Y-118763094D01*
X136980057Y-118763094D02*
X137075295Y-118810713D01*
X137075295Y-118810713D02*
X137313390Y-118810713D01*
X137313390Y-118810713D02*
X137408628Y-118763094D01*
X137408628Y-118763094D02*
X137456247Y-118715475D01*
X137456247Y-118715475D02*
X137503866Y-118620237D01*
X137503866Y-118620237D02*
X137503866Y-118429761D01*
X137503866Y-118429761D02*
X137456247Y-118334523D01*
X137456247Y-118334523D02*
X137408628Y-118286904D01*
X137408628Y-118286904D02*
X137313390Y-118239285D01*
X116884819Y-88841666D02*
X116408628Y-89174999D01*
X116884819Y-89413094D02*
X115884819Y-89413094D01*
X115884819Y-89413094D02*
X115884819Y-89032142D01*
X115884819Y-89032142D02*
X115932438Y-88936904D01*
X115932438Y-88936904D02*
X115980057Y-88889285D01*
X115980057Y-88889285D02*
X116075295Y-88841666D01*
X116075295Y-88841666D02*
X116218152Y-88841666D01*
X116218152Y-88841666D02*
X116313390Y-88889285D01*
X116313390Y-88889285D02*
X116361009Y-88936904D01*
X116361009Y-88936904D02*
X116408628Y-89032142D01*
X116408628Y-89032142D02*
X116408628Y-89413094D01*
X115884819Y-87984523D02*
X115884819Y-88174999D01*
X115884819Y-88174999D02*
X115932438Y-88270237D01*
X115932438Y-88270237D02*
X115980057Y-88317856D01*
X115980057Y-88317856D02*
X116122914Y-88413094D01*
X116122914Y-88413094D02*
X116313390Y-88460713D01*
X116313390Y-88460713D02*
X116694342Y-88460713D01*
X116694342Y-88460713D02*
X116789580Y-88413094D01*
X116789580Y-88413094D02*
X116837200Y-88365475D01*
X116837200Y-88365475D02*
X116884819Y-88270237D01*
X116884819Y-88270237D02*
X116884819Y-88079761D01*
X116884819Y-88079761D02*
X116837200Y-87984523D01*
X116837200Y-87984523D02*
X116789580Y-87936904D01*
X116789580Y-87936904D02*
X116694342Y-87889285D01*
X116694342Y-87889285D02*
X116456247Y-87889285D01*
X116456247Y-87889285D02*
X116361009Y-87936904D01*
X116361009Y-87936904D02*
X116313390Y-87984523D01*
X116313390Y-87984523D02*
X116265771Y-88079761D01*
X116265771Y-88079761D02*
X116265771Y-88270237D01*
X116265771Y-88270237D02*
X116313390Y-88365475D01*
X116313390Y-88365475D02*
X116361009Y-88413094D01*
X116361009Y-88413094D02*
X116456247Y-88460713D01*
X155008333Y-91524819D02*
X154675000Y-91048628D01*
X154436905Y-91524819D02*
X154436905Y-90524819D01*
X154436905Y-90524819D02*
X154817857Y-90524819D01*
X154817857Y-90524819D02*
X154913095Y-90572438D01*
X154913095Y-90572438D02*
X154960714Y-90620057D01*
X154960714Y-90620057D02*
X155008333Y-90715295D01*
X155008333Y-90715295D02*
X155008333Y-90858152D01*
X155008333Y-90858152D02*
X154960714Y-90953390D01*
X154960714Y-90953390D02*
X154913095Y-91001009D01*
X154913095Y-91001009D02*
X154817857Y-91048628D01*
X154817857Y-91048628D02*
X154436905Y-91048628D01*
X155341667Y-90524819D02*
X155960714Y-90524819D01*
X155960714Y-90524819D02*
X155627381Y-90905771D01*
X155627381Y-90905771D02*
X155770238Y-90905771D01*
X155770238Y-90905771D02*
X155865476Y-90953390D01*
X155865476Y-90953390D02*
X155913095Y-91001009D01*
X155913095Y-91001009D02*
X155960714Y-91096247D01*
X155960714Y-91096247D02*
X155960714Y-91334342D01*
X155960714Y-91334342D02*
X155913095Y-91429580D01*
X155913095Y-91429580D02*
X155865476Y-91477200D01*
X155865476Y-91477200D02*
X155770238Y-91524819D01*
X155770238Y-91524819D02*
X155484524Y-91524819D01*
X155484524Y-91524819D02*
X155389286Y-91477200D01*
X155389286Y-91477200D02*
X155341667Y-91429580D01*
D12*
%TO.C,DA1*%
X121000000Y-99940000D02*
X120200000Y-99940000D01*
X121000000Y-99940000D02*
X121800000Y-99940000D01*
X121000000Y-103060000D02*
X120200000Y-103060000D01*
X121000000Y-103060000D02*
X121800000Y-103060000D01*
X119700000Y-99990000D02*
X119460000Y-99660000D01*
X119940000Y-99660000D01*
X119700000Y-99990000D01*
G36*
X119700000Y-99990000D02*
G01*
X119460000Y-99660000D01*
X119940000Y-99660000D01*
X119700000Y-99990000D01*
G37*
%TO.C,R8*%
X159477500Y-110937742D02*
X159477500Y-111412258D01*
X160522500Y-110937742D02*
X160522500Y-111412258D01*
%TO.C,R2*%
X154917742Y-83957500D02*
X155392258Y-83957500D01*
X154917742Y-85002500D02*
X155392258Y-85002500D01*
%TO.C,R5*%
X151562258Y-96477500D02*
X151087742Y-96477500D01*
X151562258Y-97522500D02*
X151087742Y-97522500D01*
%TO.C,DA2*%
X141360000Y-105300000D02*
X141360000Y-115700000D01*
X141360000Y-115700000D02*
X151640000Y-115700000D01*
X143850000Y-105360000D02*
X143850000Y-115640000D01*
X143850000Y-115640000D02*
X149150000Y-115640000D01*
X145500000Y-105360000D02*
X143850000Y-105360000D01*
X149150000Y-105360000D02*
X147500000Y-105360000D01*
X149150000Y-115640000D02*
X149150000Y-105360000D01*
X151640000Y-105300000D02*
X141360000Y-105300000D01*
X151640000Y-115700000D02*
X151640000Y-105300000D01*
X147500000Y-105360000D02*
G75*
G02*
X145500000Y-105360000I-1000000J0D01*
G01*
%TO.C,C4*%
X136288748Y-93765000D02*
X136811252Y-93765000D01*
X136288748Y-95235000D02*
X136811252Y-95235000D01*
%TO.C,R1*%
X154917742Y-81447500D02*
X155392258Y-81447500D01*
X154917742Y-82492500D02*
X155392258Y-82492500D01*
%TO.C,VD1*%
X106500000Y-96673629D02*
X106500000Y-96560000D01*
X107826371Y-98000000D02*
G75*
G02*
X105173629Y-98000000I-1326371J0D01*
G01*
X105173629Y-98000000D02*
G75*
G02*
X107826371Y-98000000I1326371J0D01*
G01*
%TO.C,R7*%
X155412258Y-87477500D02*
X154937742Y-87477500D01*
X155412258Y-88522500D02*
X154937742Y-88522500D01*
%TO.C,R14*%
X141262742Y-136977500D02*
X141737258Y-136977500D01*
X141262742Y-138022500D02*
X141737258Y-138022500D01*
%TO.C,VD2*%
X115000000Y-96826371D02*
X115000000Y-96940000D01*
X116326371Y-95500000D02*
G75*
G02*
X113673629Y-95500000I-1326371J0D01*
G01*
X113673629Y-95500000D02*
G75*
G02*
X116326371Y-95500000I1326371J0D01*
G01*
%TO.C,DA3*%
X141360000Y-119800000D02*
X141360000Y-130200000D01*
X141360000Y-130200000D02*
X151640000Y-130200000D01*
X143850000Y-119860000D02*
X143850000Y-130140000D01*
X143850000Y-130140000D02*
X149150000Y-130140000D01*
X145500000Y-119860000D02*
X143850000Y-119860000D01*
X149150000Y-119860000D02*
X147500000Y-119860000D01*
X149150000Y-130140000D02*
X149150000Y-119860000D01*
X151640000Y-119800000D02*
X141360000Y-119800000D01*
X151640000Y-130200000D02*
X151640000Y-119800000D01*
X147500000Y-119860000D02*
G75*
G02*
X145500000Y-119860000I-1000000J0D01*
G01*
%TO.C,C2*%
X118288748Y-91765000D02*
X118811252Y-91765000D01*
X118288748Y-93235000D02*
X118811252Y-93235000D01*
D13*
%TO.C,X1*%
X128027750Y-65237500D02*
X139847750Y-65237500D01*
X128027750Y-66937500D02*
X128027750Y-65237500D01*
D14*
X128027750Y-73737500D02*
X128027750Y-66937500D01*
X139847750Y-66937500D02*
X128027750Y-66937500D01*
D13*
X139847750Y-66937500D02*
X139847750Y-65237500D01*
D14*
X139847750Y-66937500D02*
X139847750Y-73737500D01*
X139847750Y-73737500D02*
X128027750Y-73737500D01*
D15*
X127129750Y-67607500D02*
G75*
G02*
X126875750Y-67607500I-127000J0D01*
G01*
X126875750Y-67607500D02*
G75*
G02*
X127129750Y-67607500I127000J0D01*
G01*
D12*
%TO.C,C5*%
X126788748Y-108765000D02*
X127311252Y-108765000D01*
X126788748Y-110235000D02*
X127311252Y-110235000D01*
%TO.C,R15*%
X114477500Y-104562258D02*
X114477500Y-104087742D01*
X115522500Y-104562258D02*
X115522500Y-104087742D01*
%TO.C,C1*%
X132211252Y-87265000D02*
X131688748Y-87265000D01*
X132211252Y-88735000D02*
X131688748Y-88735000D01*
%TO.C,R13*%
X146937742Y-136977500D02*
X147412258Y-136977500D01*
X146937742Y-138022500D02*
X147412258Y-138022500D01*
%TO.C,R12*%
X135477500Y-122937742D02*
X135477500Y-123412258D01*
X136522500Y-122937742D02*
X136522500Y-123412258D01*
%TO.C,R4*%
X154937742Y-96477500D02*
X155412258Y-96477500D01*
X154937742Y-97522500D02*
X155412258Y-97522500D01*
%TO.C,R10*%
X130937742Y-136977500D02*
X131412258Y-136977500D01*
X130937742Y-138022500D02*
X131412258Y-138022500D01*
%TO.C,R11*%
X134937742Y-136977500D02*
X135412258Y-136977500D01*
X134937742Y-138022500D02*
X135412258Y-138022500D01*
%TO.C,C3*%
X136163748Y-87505000D02*
X136686252Y-87505000D01*
X136163748Y-88975000D02*
X136686252Y-88975000D01*
%TO.C,R9*%
X135477500Y-118787742D02*
X135477500Y-119262258D01*
X136522500Y-118787742D02*
X136522500Y-119262258D01*
%TO.C,R6*%
X114477500Y-88437742D02*
X114477500Y-88912258D01*
X115522500Y-88437742D02*
X115522500Y-88912258D01*
%TO.C,R3*%
X154937742Y-91977500D02*
X155412258Y-91977500D01*
X154937742Y-93022500D02*
X155412258Y-93022500D01*
%TD*%
M02*
