%TF.GenerationSoftware,KiCad,Pcbnew,8.0.5*%
%TF.CreationDate,2024-10-10T13:47:41+03:00*%
%TF.ProjectId,kek,6b656b2e-6b69-4636-9164-5f7063625858,rev?*%
%TF.SameCoordinates,Original*%
%TF.FileFunction,Soldermask,Top*%
%TF.FilePolarity,Negative*%
%FSLAX46Y46*%
G04 Gerber Fmt 4.6, Leading zero omitted, Abs format (unit mm)*
G04 Created by KiCad (PCBNEW 8.0.5) date 2024-10-10 13:47:41*
%MOMM*%
%LPD*%
G01*
G04 APERTURE LIST*
G04 Aperture macros list*
%AMRoundRect*
0 Rectangle with rounded corners*
0 $1 Rounding radius*
0 $2 $3 $4 $5 $6 $7 $8 $9 X,Y pos of 4 corners*
0 Add a 4 corners polygon primitive as box body*
4,1,4,$2,$3,$4,$5,$6,$7,$8,$9,$2,$3,0*
0 Add four circle primitives for the rounded corners*
1,1,$1+$1,$2,$3*
1,1,$1+$1,$4,$5*
1,1,$1+$1,$6,$7*
1,1,$1+$1,$8,$9*
0 Add four rect primitives between the rounded corners*
20,1,$1+$1,$2,$3,$4,$5,0*
20,1,$1+$1,$4,$5,$6,$7,0*
20,1,$1+$1,$6,$7,$8,$9,0*
20,1,$1+$1,$8,$9,$2,$3,0*%
G04 Aperture macros list end*
%ADD10RoundRect,0.150000X-0.512500X-0.150000X0.512500X-0.150000X0.512500X0.150000X-0.512500X0.150000X0*%
%ADD11RoundRect,0.200000X-0.275000X0.200000X-0.275000X-0.200000X0.275000X-0.200000X0.275000X0.200000X0*%
%ADD12RoundRect,0.200000X-0.200000X-0.275000X0.200000X-0.275000X0.200000X0.275000X-0.200000X0.275000X0*%
%ADD13RoundRect,0.200000X0.200000X0.275000X-0.200000X0.275000X-0.200000X-0.275000X0.200000X-0.275000X0*%
%ADD14R,1.600000X1.600000*%
%ADD15RoundRect,0.250000X-0.250000X-0.475000X0.250000X-0.475000X0.250000X0.475000X-0.250000X0.475000X0*%
%ADD16O,1.600000X1.600000*%
%ADD17RoundRect,0.102000X-1.275000X-1.275000X1.275000X-1.275000X1.275000X1.275000X-1.275000X1.275000X0*%
%ADD18C,2.754000*%
%ADD19RoundRect,0.200000X0.275000X-0.200000X0.275000X0.200000X-0.275000X0.200000X-0.275000X-0.200000X0*%
%ADD20RoundRect,0.250000X0.250000X0.475000X-0.250000X0.475000X-0.250000X-0.475000X0.250000X-0.475000X0*%
G04 APERTURE END LIST*
D10*
%TO.C,DA1*%
X119862500Y-100550000D03*
X119862500Y-101500000D03*
X119862500Y-102450000D03*
X122137500Y-102450000D03*
X122137500Y-100550000D03*
%TD*%
D11*
%TO.C,R8*%
X160000000Y-110350000D03*
X160000000Y-112000000D03*
%TD*%
D12*
%TO.C,R2*%
X154330000Y-84480000D03*
X155980000Y-84480000D03*
%TD*%
D13*
%TO.C,R5*%
X152150000Y-97000000D03*
X150500000Y-97000000D03*
%TD*%
D14*
%TO.C,DA2*%
X142690000Y-106690000D03*
X142690000Y-109230000D03*
X142690000Y-111770000D03*
X142690000Y-114310000D03*
X150310000Y-114310000D03*
X150310000Y-111770000D03*
X150310000Y-109230000D03*
X150310000Y-106690000D03*
%TD*%
D15*
%TO.C,C4*%
X135600000Y-94500000D03*
X137500000Y-94500000D03*
%TD*%
D12*
%TO.C,R1*%
X154330000Y-81970000D03*
X155980000Y-81970000D03*
%TD*%
D14*
%TO.C,VD1*%
X106500000Y-98000000D03*
D16*
X106500000Y-95460000D03*
%TD*%
D13*
%TO.C,R7*%
X156000000Y-88000000D03*
X154350000Y-88000000D03*
%TD*%
D12*
%TO.C,R14*%
X140675000Y-137500000D03*
X142325000Y-137500000D03*
%TD*%
D14*
%TO.C,VD2*%
X115000000Y-95500000D03*
D16*
X115000000Y-98040000D03*
%TD*%
D14*
%TO.C,DA3*%
X142690000Y-121190000D03*
X142690000Y-123730000D03*
X142690000Y-126270000D03*
X142690000Y-128810000D03*
X150310000Y-128810000D03*
X150310000Y-126270000D03*
X150310000Y-123730000D03*
X150310000Y-121190000D03*
%TD*%
D15*
%TO.C,C2*%
X117600000Y-92500000D03*
X119500000Y-92500000D03*
%TD*%
D17*
%TO.C,X1*%
X129977750Y-68937500D03*
D18*
X133937750Y-68937500D03*
X137897750Y-68937500D03*
%TD*%
D15*
%TO.C,C5*%
X126100000Y-109500000D03*
X128000000Y-109500000D03*
%TD*%
D19*
%TO.C,R15*%
X115000000Y-105150000D03*
X115000000Y-103500000D03*
%TD*%
D20*
%TO.C,C1*%
X132900000Y-88000000D03*
X131000000Y-88000000D03*
%TD*%
D12*
%TO.C,R13*%
X146350000Y-137500000D03*
X148000000Y-137500000D03*
%TD*%
D11*
%TO.C,R12*%
X136000000Y-122350000D03*
X136000000Y-124000000D03*
%TD*%
D12*
%TO.C,R4*%
X154350000Y-97000000D03*
X156000000Y-97000000D03*
%TD*%
%TO.C,R10*%
X130350000Y-137500000D03*
X132000000Y-137500000D03*
%TD*%
%TO.C,R11*%
X134350000Y-137500000D03*
X136000000Y-137500000D03*
%TD*%
D15*
%TO.C,C3*%
X135475000Y-88240000D03*
X137375000Y-88240000D03*
%TD*%
D11*
%TO.C,R9*%
X136000000Y-118200000D03*
X136000000Y-119850000D03*
%TD*%
%TO.C,R6*%
X115000000Y-87850000D03*
X115000000Y-89500000D03*
%TD*%
D12*
%TO.C,R3*%
X154350000Y-92500000D03*
X156000000Y-92500000D03*
%TD*%
M02*
