M48
; DRILL file {KiCad 8.0.5} date 2024-10-10T13:48:35+0300
; FORMAT={-:-/ absolute / inch / decimal}
; #@! TF.CreationDate,2024-10-10T13:48:35+03:00
; #@! TF.GenerationSoftware,Kicad,Pcbnew,8.0.5
; #@! TF.FileFunction,MixedPlating,1,2
FMAT,2
INCH
; #@! TA.AperFunction,Plated,PTH,ViaDrill
T1C0.0118
; #@! TA.AperFunction,Plated,PTH,ComponentDrill
T2C0.0315
; #@! TA.AperFunction,Plated,PTH,ComponentDrill
T3C0.0669
%
G90
G05
T1
X4.626Y-4.0157
X4.626Y-4.0157
X4.626Y-4.311
X4.626Y-4.311
X4.7047Y-4.0945
X4.8819Y-4.9213
X4.8819Y-4.9213
X4.9213Y-4.1929
X4.9606Y-4.0157
X4.9606Y-4.0157
X5.1575Y-3.7402
X5.4724Y-4.4094
X5.4921Y-5.0197
X5.4921Y-5.0197
X5.5118Y-3.937
X5.6496Y-4.0354
X5.6496Y-4.0354
X5.6693Y-3.5236
X5.6693Y-3.5236
X5.7283Y-5.4921
X5.7283Y-5.4921
X5.7677Y-5.2165
X5.7677Y-5.2165
X5.8661Y-3.1496
X5.8661Y-3.1496
X5.8661Y-3.5827
X5.9252Y-3.4252
X5.9252Y-3.7008
X5.9843Y-3.4252
X5.9843Y-3.4252
X5.9843Y-3.6772
X6.0433Y-4.3504
T2
X4.1929Y-3.7583
X4.1929Y-3.8583
X4.5276Y-3.7598
X4.5276Y-3.8598
T3
X5.1172Y-2.7141
X5.2731Y-2.7141
X5.429Y-2.7141
M30
