%TF.GenerationSoftware,KiCad,Pcbnew,8.0.5*%
%TF.CreationDate,2024-10-18T13:20:14+03:00*%
%TF.ProjectId,ghghgh,67686768-6768-42e6-9b69-6361645f7063,rev?*%
%TF.SameCoordinates,Original*%
%TF.FileFunction,Paste,Top*%
%TF.FilePolarity,Positive*%
%FSLAX46Y46*%
G04 Gerber Fmt 4.6, Leading zero omitted, Abs format (unit mm)*
G04 Created by KiCad (PCBNEW 8.0.5) date 2024-10-18 13:20:14*
%MOMM*%
%LPD*%
G01*
G04 APERTURE LIST*
G04 Aperture macros list*
%AMRoundRect*
0 Rectangle with rounded corners*
0 $1 Rounding radius*
0 $2 $3 $4 $5 $6 $7 $8 $9 X,Y pos of 4 corners*
0 Add a 4 corners polygon primitive as box body*
4,1,4,$2,$3,$4,$5,$6,$7,$8,$9,$2,$3,0*
0 Add four circle primitives for the rounded corners*
1,1,$1+$1,$2,$3*
1,1,$1+$1,$4,$5*
1,1,$1+$1,$6,$7*
1,1,$1+$1,$8,$9*
0 Add four rect primitives between the rounded corners*
20,1,$1+$1,$2,$3,$4,$5,0*
20,1,$1+$1,$4,$5,$6,$7,0*
20,1,$1+$1,$6,$7,$8,$9,0*
20,1,$1+$1,$8,$9,$2,$3,0*%
G04 Aperture macros list end*
%ADD10RoundRect,0.079500X-0.100500X0.079500X-0.100500X-0.079500X0.100500X-0.079500X0.100500X0.079500X0*%
%ADD11RoundRect,0.079500X0.079500X0.100500X-0.079500X0.100500X-0.079500X-0.100500X0.079500X-0.100500X0*%
%ADD12R,1.219200X0.660400*%
%ADD13RoundRect,0.079500X-0.079500X-0.100500X0.079500X-0.100500X0.079500X0.100500X-0.079500X0.100500X0*%
%ADD14R,1.550000X0.600000*%
%ADD15R,1.800000X1.200000*%
%ADD16R,1.524000X0.609600*%
%ADD17RoundRect,0.079500X0.100500X-0.079500X0.100500X0.079500X-0.100500X0.079500X-0.100500X-0.079500X0*%
%ADD18R,1.425000X0.450000*%
%ADD19R,1.680000X1.880000*%
G04 APERTURE END LIST*
D10*
%TO.C,C6*%
X27100000Y-15410000D03*
X27100000Y-16100000D03*
%TD*%
D11*
%TO.C,R2*%
X17325000Y-5955000D03*
X16635000Y-5955000D03*
%TD*%
D12*
%TO.C,U1*%
X15857000Y-10705000D03*
X15857000Y-11655000D03*
X15857000Y-12605000D03*
X18143000Y-12605000D03*
X18143000Y-11655000D03*
X18143000Y-10705000D03*
%TD*%
D11*
%TO.C,C1*%
X13165000Y-17455000D03*
X12475000Y-17455000D03*
%TD*%
D12*
%TO.C,U2*%
X15857000Y-16505000D03*
X15857000Y-17455000D03*
X15857000Y-18405000D03*
X18143000Y-18405000D03*
X18143000Y-17455000D03*
X18143000Y-16505000D03*
%TD*%
D13*
%TO.C,C2*%
X19755000Y-10655000D03*
X20445000Y-10655000D03*
%TD*%
D14*
%TO.C,J2*%
X50700000Y-14055000D03*
X50700000Y-15055000D03*
X50700000Y-16055000D03*
X50700000Y-17055000D03*
D15*
X53225000Y-12755000D03*
X53225000Y-18355000D03*
%TD*%
D16*
%TO.C,U5*%
X35456800Y-20285000D03*
X35456800Y-21555000D03*
X35456800Y-22825000D03*
X35456800Y-24095000D03*
X40943200Y-24095000D03*
X40943200Y-22825000D03*
X40943200Y-21555000D03*
X40943200Y-20285000D03*
%TD*%
D13*
%TO.C,C7*%
X36155000Y-14055000D03*
X36845000Y-14055000D03*
%TD*%
D14*
%TO.C,J1*%
X6475000Y-14655000D03*
X6475000Y-13655000D03*
X6475000Y-12655000D03*
D15*
X3950000Y-11055000D03*
X3950000Y-16255000D03*
%TD*%
D12*
%TO.C,U4*%
X40643000Y-14005000D03*
X40643000Y-13055000D03*
X40643000Y-12105000D03*
X38357000Y-12105000D03*
X38357000Y-13055000D03*
X38357000Y-14005000D03*
%TD*%
D11*
%TO.C,C5*%
X43345000Y-21555000D03*
X42655000Y-21555000D03*
%TD*%
D17*
%TO.C,R3*%
X22300000Y-17700000D03*
X22300000Y-17010000D03*
%TD*%
D18*
%TO.C,U3*%
X29188000Y-12180000D03*
X29188000Y-12830000D03*
X29188000Y-13480000D03*
X29188000Y-14130000D03*
X33612000Y-14130000D03*
X33612000Y-13480000D03*
X33612000Y-12830000D03*
X33612000Y-12180000D03*
D19*
X31400000Y-13155000D03*
%TD*%
D13*
%TO.C,C4*%
X33155000Y-24155000D03*
X33845000Y-24155000D03*
%TD*%
D17*
%TO.C,R1*%
X24600000Y-13880000D03*
X24600000Y-13190000D03*
%TD*%
D13*
%TO.C,C3*%
X42055000Y-13055000D03*
X42745000Y-13055000D03*
%TD*%
D17*
%TO.C,R4*%
X31200000Y-18500000D03*
X31200000Y-17810000D03*
%TD*%
M02*
