M48
; DRILL file {KiCad 8.0.5} date 2024-10-18T13:20:19+0300
; FORMAT={-:-/ absolute / inch / decimal}
; #@! TF.CreationDate,2024-10-18T13:20:19+03:00
; #@! TF.GenerationSoftware,Kicad,Pcbnew,8.0.5
; #@! TF.FileFunction,Plated,1,2,PTH
FMAT,2
INCH
; #@! TA.AperFunction,Plated,PTH,ViaDrill
T1C0.0118
; #@! TA.AperFunction,Plated,PTH,ComponentDrill
T2C0.0197
; #@! TA.AperFunction,Plated,PTH,ComponentDrill
T3C0.1181
%
G90
G05
T1
X0.4252Y-0.689
X0.5197Y-0.64
X0.7756Y-0.4707
X0.8622Y-0.4173
X0.9252Y-0.6006
X0.9961Y-0.6006
X1.2126Y-0.9567
X1.3937Y-0.451
X1.3937Y-0.5297
X1.4567Y-0.5157
X1.4685Y-0.64
X1.5512Y-0.6557
X1.6063Y-1.01
X1.6535Y-0.4667
X1.7165Y-0.815
X1.752Y-0.9707
X1.7717Y-0.5118
X1.8031Y-0.8228
T2
X0.1083Y-0.1969
X0.1083Y-0.9843
X0.1342Y-0.1342
X0.1342Y-0.2595
X0.1342Y-0.9216
X0.1342Y-1.0469
X0.1969Y-0.1083
X0.1969Y-0.2854
X0.1969Y-0.8957
X0.1969Y-1.0728
X0.2595Y-0.1342
X0.2595Y-0.2595
X0.2595Y-0.9216
X0.2595Y-1.0469
X0.2854Y-0.1969
X0.2854Y-0.9843
X2.0768Y-0.1969
X2.0768Y-0.9843
X2.1027Y-0.1342
X2.1027Y-0.2595
X2.1027Y-0.9216
X2.1027Y-1.0469
X2.1654Y-0.1083
X2.1654Y-0.2854
X2.1654Y-0.8957
X2.1654Y-1.0728
X2.228Y-0.1342
X2.228Y-0.2595
X2.228Y-0.9216
X2.228Y-1.0469
X2.2539Y-0.1969
X2.2539Y-0.9843
T3
X0.1969Y-0.1969
X0.1969Y-0.9843
X2.1654Y-0.1969
X2.1654Y-0.9843
M30
