%TF.GenerationSoftware,KiCad,Pcbnew,8.0.5*%
%TF.CreationDate,2024-10-18T13:20:14+03:00*%
%TF.ProjectId,ghghgh,67686768-6768-42e6-9b69-6361645f7063,rev?*%
%TF.SameCoordinates,Original*%
%TF.FileFunction,Legend,Top*%
%TF.FilePolarity,Positive*%
%FSLAX46Y46*%
G04 Gerber Fmt 4.6, Leading zero omitted, Abs format (unit mm)*
G04 Created by KiCad (PCBNEW 8.0.5) date 2024-10-18 13:20:14*
%MOMM*%
%LPD*%
G01*
G04 APERTURE LIST*
%ADD10C,0.250000*%
%ADD11C,0.150000*%
%ADD12C,0.254000*%
%ADD13C,0.152400*%
%ADD14C,0.100000*%
%ADD15C,0.200000*%
%ADD16C,0.127000*%
%ADD17C,0.050800*%
G04 APERTURE END LIST*
D10*
X9802568Y-12164619D02*
X9802568Y-11164619D01*
X10278758Y-12164619D02*
X10278758Y-11164619D01*
X10278758Y-11164619D02*
X10850186Y-12164619D01*
X10850186Y-12164619D02*
X10850186Y-11164619D01*
X11326377Y-11783666D02*
X12088282Y-11783666D01*
X11707329Y-12164619D02*
X11707329Y-11402714D01*
X48126377Y-17912238D02*
X48031139Y-17864619D01*
X48031139Y-17864619D02*
X47888282Y-17864619D01*
X47888282Y-17864619D02*
X47745425Y-17912238D01*
X47745425Y-17912238D02*
X47650187Y-18007476D01*
X47650187Y-18007476D02*
X47602568Y-18102714D01*
X47602568Y-18102714D02*
X47554949Y-18293190D01*
X47554949Y-18293190D02*
X47554949Y-18436047D01*
X47554949Y-18436047D02*
X47602568Y-18626523D01*
X47602568Y-18626523D02*
X47650187Y-18721761D01*
X47650187Y-18721761D02*
X47745425Y-18817000D01*
X47745425Y-18817000D02*
X47888282Y-18864619D01*
X47888282Y-18864619D02*
X47983520Y-18864619D01*
X47983520Y-18864619D02*
X48126377Y-18817000D01*
X48126377Y-18817000D02*
X48173996Y-18769380D01*
X48173996Y-18769380D02*
X48173996Y-18436047D01*
X48173996Y-18436047D02*
X47983520Y-18436047D01*
X48602568Y-18864619D02*
X48602568Y-17864619D01*
X48602568Y-17864619D02*
X49173996Y-18864619D01*
X49173996Y-18864619D02*
X49173996Y-17864619D01*
X49650187Y-18864619D02*
X49650187Y-17864619D01*
X49650187Y-17864619D02*
X49888282Y-17864619D01*
X49888282Y-17864619D02*
X50031139Y-17912238D01*
X50031139Y-17912238D02*
X50126377Y-18007476D01*
X50126377Y-18007476D02*
X50173996Y-18102714D01*
X50173996Y-18102714D02*
X50221615Y-18293190D01*
X50221615Y-18293190D02*
X50221615Y-18436047D01*
X50221615Y-18436047D02*
X50173996Y-18626523D01*
X50173996Y-18626523D02*
X50126377Y-18721761D01*
X50126377Y-18721761D02*
X50031139Y-18817000D01*
X50031139Y-18817000D02*
X49888282Y-18864619D01*
X49888282Y-18864619D02*
X49650187Y-18864619D01*
X48093044Y-11864619D02*
X48283520Y-11864619D01*
X48283520Y-11864619D02*
X48378758Y-11912238D01*
X48378758Y-11912238D02*
X48473996Y-12007476D01*
X48473996Y-12007476D02*
X48521615Y-12197952D01*
X48521615Y-12197952D02*
X48521615Y-12531285D01*
X48521615Y-12531285D02*
X48473996Y-12721761D01*
X48473996Y-12721761D02*
X48378758Y-12817000D01*
X48378758Y-12817000D02*
X48283520Y-12864619D01*
X48283520Y-12864619D02*
X48093044Y-12864619D01*
X48093044Y-12864619D02*
X47997806Y-12817000D01*
X47997806Y-12817000D02*
X47902568Y-12721761D01*
X47902568Y-12721761D02*
X47854949Y-12531285D01*
X47854949Y-12531285D02*
X47854949Y-12197952D01*
X47854949Y-12197952D02*
X47902568Y-12007476D01*
X47902568Y-12007476D02*
X47997806Y-11912238D01*
X47997806Y-11912238D02*
X48093044Y-11864619D01*
X48950187Y-11864619D02*
X48950187Y-12674142D01*
X48950187Y-12674142D02*
X48997806Y-12769380D01*
X48997806Y-12769380D02*
X49045425Y-12817000D01*
X49045425Y-12817000D02*
X49140663Y-12864619D01*
X49140663Y-12864619D02*
X49331139Y-12864619D01*
X49331139Y-12864619D02*
X49426377Y-12817000D01*
X49426377Y-12817000D02*
X49473996Y-12769380D01*
X49473996Y-12769380D02*
X49521615Y-12674142D01*
X49521615Y-12674142D02*
X49521615Y-11864619D01*
X49854949Y-11864619D02*
X50426377Y-11864619D01*
X50140663Y-12864619D02*
X50140663Y-11864619D01*
G36*
X27813956Y-2884424D02*
G01*
X27820307Y-2827271D01*
X27816399Y-2807243D01*
X27819027Y-2708606D01*
X27820307Y-2693914D01*
X27836915Y-2665582D01*
X27842288Y-2653370D01*
X27827145Y-2632365D01*
X27819818Y-2607452D01*
X27832235Y-2509963D01*
X27840334Y-2447229D01*
X27867201Y-2393007D01*
X27932658Y-2333412D01*
X27996650Y-2287983D01*
X28056734Y-2257697D01*
X28097766Y-2237180D01*
X28121214Y-2227899D01*
X28167131Y-2255743D01*
X28182274Y-2331458D01*
X28170551Y-2397892D01*
X28158827Y-2456022D01*
X28160781Y-2519036D01*
X28164622Y-2617121D01*
X28167131Y-2676817D01*
X28176839Y-2776124D01*
X28188136Y-2831667D01*
X28213828Y-2926859D01*
X28238939Y-3004103D01*
X28278938Y-3098871D01*
X28326866Y-3174096D01*
X28412191Y-3227470D01*
X28425052Y-3228318D01*
X28518071Y-3187282D01*
X28540334Y-3170676D01*
X28616384Y-3102763D01*
X28686497Y-3029112D01*
X28718143Y-2993356D01*
X28784114Y-2914576D01*
X28847533Y-2835565D01*
X28859316Y-2820432D01*
X28918475Y-2739312D01*
X28959455Y-2674375D01*
X29018879Y-2592009D01*
X29045429Y-2563489D01*
X29120194Y-2499806D01*
X29158757Y-2473607D01*
X29191974Y-2454556D01*
X29217376Y-2446741D01*
X29268667Y-2490216D01*
X29283440Y-2586880D01*
X29283810Y-2609895D01*
X29273002Y-2710187D01*
X29270132Y-2743251D01*
X29256000Y-2842163D01*
X29236501Y-2944723D01*
X29233496Y-2958674D01*
X29209413Y-3057809D01*
X29182195Y-3152878D01*
X29170481Y-3190216D01*
X29140364Y-3286280D01*
X29137752Y-3294752D01*
X29119190Y-3369490D01*
X29111374Y-3414431D01*
X29100628Y-3477934D01*
X29069364Y-3549253D01*
X29047871Y-3612267D01*
X29032728Y-3698241D01*
X29031263Y-3723154D01*
X29028332Y-3755882D01*
X29006329Y-3851563D01*
X28981932Y-3953573D01*
X28963363Y-4028457D01*
X28947243Y-4069002D01*
X28904745Y-4091960D01*
X28859804Y-4138855D01*
X28814863Y-4182330D01*
X28782135Y-4197473D01*
X28752826Y-4186238D01*
X28741591Y-4150579D01*
X28746964Y-4128108D01*
X28773284Y-4032081D01*
X28779692Y-3996217D01*
X28793492Y-3899497D01*
X28804966Y-3798037D01*
X28806559Y-3782260D01*
X28820012Y-3681808D01*
X28828053Y-3633272D01*
X28846417Y-3529065D01*
X28865708Y-3422390D01*
X28883751Y-3324067D01*
X28888625Y-3297683D01*
X28903279Y-3212686D01*
X28922887Y-3113043D01*
X28926238Y-3096915D01*
X28941870Y-3040739D01*
X28947732Y-3008988D01*
X28946755Y-2999218D01*
X28944312Y-2998241D01*
X28922819Y-3016803D01*
X28871039Y-3077376D01*
X28831960Y-3127201D01*
X28789462Y-3178981D01*
X28720586Y-3251765D01*
X28617027Y-3354836D01*
X28581856Y-3376329D01*
X28537404Y-3403684D01*
X28461593Y-3470918D01*
X28450453Y-3476957D01*
X28354497Y-3507457D01*
X28338101Y-3508220D01*
X28240689Y-3482744D01*
X28219399Y-3469630D01*
X28148203Y-3401509D01*
X28112421Y-3352393D01*
X28068946Y-3278143D01*
X28031821Y-3206824D01*
X28038171Y-3211221D01*
X28019120Y-3313314D01*
X28002662Y-3411440D01*
X27987587Y-3509195D01*
X27972226Y-3613733D01*
X27957296Y-3711247D01*
X27941296Y-3817512D01*
X27927113Y-3914347D01*
X27923866Y-3937110D01*
X27910906Y-4037718D01*
X27907257Y-4087564D01*
X27886741Y-4169141D01*
X27832030Y-4205289D01*
X27790020Y-4212616D01*
X27722121Y-4229225D01*
X27698185Y-4219944D01*
X27687927Y-4196496D01*
X27695743Y-4148136D01*
X27682065Y-4095380D01*
X27699162Y-4010383D01*
X27705306Y-3911656D01*
X27708443Y-3855533D01*
X27718702Y-3803265D01*
X27727983Y-3751974D01*
X27723586Y-3725596D01*
X27719678Y-3695799D01*
X27726434Y-3593666D01*
X27740716Y-3488402D01*
X27743614Y-3470118D01*
X27758200Y-3368818D01*
X27767176Y-3266236D01*
X27767550Y-3246392D01*
X27757780Y-3182889D01*
X27774847Y-3082970D01*
X27780251Y-3055882D01*
X27799439Y-2959381D01*
X27813956Y-2884424D01*
G37*
G36*
X29259385Y-3765163D02*
G01*
X29386392Y-3678702D01*
X29400069Y-3663070D01*
X29421074Y-3631807D01*
X29449406Y-3598590D01*
X29486531Y-3576120D01*
X29516817Y-3543879D01*
X29571528Y-3495031D01*
X29609630Y-3472072D01*
X29658478Y-3432505D01*
X29734594Y-3364909D01*
X29811490Y-3303666D01*
X29881228Y-3256161D01*
X29971109Y-3211831D01*
X30047313Y-3197055D01*
X30110816Y-3216106D01*
X30132798Y-3268862D01*
X30120586Y-3325526D01*
X30083461Y-3367048D01*
X30011653Y-3418827D01*
X29957431Y-3478422D01*
X29883182Y-3540460D01*
X29860711Y-3570258D01*
X29833356Y-3596147D01*
X29784508Y-3634249D01*
X29724424Y-3710453D01*
X29649611Y-3781068D01*
X29600348Y-3824270D01*
X29567131Y-3866280D01*
X29510467Y-3946880D01*
X29506071Y-3941507D01*
X29554919Y-3914152D01*
X29625750Y-3855045D01*
X29699137Y-3790502D01*
X29702930Y-3787145D01*
X29746406Y-3751486D01*
X29765945Y-3740739D01*
X29785484Y-3729016D01*
X29855071Y-3657471D01*
X29906629Y-3617641D01*
X29999507Y-3580946D01*
X30015561Y-3580027D01*
X30071249Y-3607383D01*
X30093230Y-3684075D01*
X30090483Y-3782352D01*
X30090300Y-3813524D01*
X30110327Y-3879958D01*
X30165526Y-3908778D01*
X30183112Y-3903893D01*
X30202651Y-3890704D01*
X30220237Y-3870676D01*
X30241242Y-3848206D01*
X30257850Y-3839902D01*
X30291556Y-3812058D01*
X30331750Y-3901423D01*
X30332588Y-3903405D01*
X30356524Y-3968374D01*
X30286182Y-4030900D01*
X30220237Y-4085610D01*
X30136217Y-4131528D01*
X30054152Y-4147159D01*
X29955375Y-4127700D01*
X29905652Y-4091960D01*
X29857490Y-4001781D01*
X29845080Y-3927341D01*
X29842149Y-3905847D01*
X29841660Y-3887773D01*
X29838241Y-3899986D01*
X29819190Y-3920502D01*
X29772784Y-3955673D01*
X29711723Y-4004521D01*
X29641849Y-4074782D01*
X29631123Y-4085122D01*
X29584228Y-4131039D01*
X29517794Y-4178422D01*
X29435240Y-4225806D01*
X29382972Y-4250718D01*
X29347801Y-4260000D01*
X29251536Y-4235309D01*
X29239357Y-4225317D01*
X29203527Y-4132283D01*
X29203210Y-4119316D01*
X29220795Y-4045554D01*
X29267201Y-3982540D01*
X29269155Y-3963000D01*
X29266224Y-3954207D01*
X29258408Y-3938576D01*
X29239846Y-3895589D01*
X29212491Y-3835017D01*
X29234473Y-3807173D01*
X29259385Y-3765163D01*
G37*
G36*
X31490300Y-2409127D02*
G01*
X31505443Y-2475073D01*
X31499183Y-2572858D01*
X31496650Y-2590355D01*
X31469563Y-2684386D01*
X31465387Y-2693426D01*
X31460013Y-2718827D01*
X31454640Y-2763768D01*
X31442916Y-2805778D01*
X31421423Y-2838506D01*
X31418492Y-2856580D01*
X31412630Y-2891751D01*
X31392602Y-2917152D01*
X31391625Y-2931318D01*
X31391625Y-2953789D01*
X31380879Y-2990425D01*
X31351570Y-3059790D01*
X31316887Y-3133551D01*
X31302721Y-3168722D01*
X31286113Y-3192658D01*
X31268527Y-3220990D01*
X31272435Y-3248834D01*
X31184019Y-3564396D01*
X31185484Y-3652812D01*
X31193300Y-3710453D01*
X31214794Y-3767606D01*
X31254361Y-3839902D01*
X31284647Y-3871653D01*
X31320795Y-3881423D01*
X31367201Y-3868722D01*
X31432170Y-3810104D01*
X31473203Y-3898520D01*
X31502023Y-3969839D01*
X31463921Y-4002079D01*
X31405792Y-4069002D01*
X31345219Y-4111500D01*
X31260223Y-4124200D01*
X31161304Y-4109912D01*
X31082414Y-4067048D01*
X31021470Y-3990055D01*
X30987159Y-3895101D01*
X30976901Y-3855045D01*
X30969085Y-3824270D01*
X30951500Y-3780795D01*
X30947103Y-3792519D01*
X30910467Y-3822805D01*
X30873342Y-3869699D01*
X30858199Y-3903893D01*
X30825959Y-3953230D01*
X30758731Y-4029709D01*
X30736078Y-4055324D01*
X30668392Y-4130429D01*
X30645708Y-4154975D01*
X30573225Y-4224775D01*
X30527006Y-4258046D01*
X30434671Y-4291133D01*
X30429309Y-4291263D01*
X30331896Y-4268044D01*
X30316468Y-4256092D01*
X30279186Y-4161854D01*
X30278855Y-4148625D01*
X30302302Y-4061186D01*
X30325750Y-3986936D01*
X30318422Y-3968862D01*
X30318148Y-3968233D01*
X30565701Y-3968233D01*
X30642033Y-3912312D01*
X30649127Y-3905359D01*
X30717645Y-3831156D01*
X30784217Y-3750586D01*
X30789323Y-3744159D01*
X30850333Y-3660501D01*
X30902697Y-3577997D01*
X30913398Y-3558534D01*
X30950285Y-3466349D01*
X30952856Y-3444436D01*
X30923168Y-3478422D01*
X30854291Y-3535575D01*
X30810327Y-3603475D01*
X30745890Y-3683196D01*
X30713119Y-3720711D01*
X30666224Y-3789099D01*
X30613834Y-3875012D01*
X30592951Y-3909267D01*
X30565701Y-3968233D01*
X30318148Y-3968233D01*
X30260293Y-3835505D01*
X30272505Y-3820362D01*
X30276413Y-3805708D01*
X30321842Y-3752463D01*
X30349685Y-3723642D01*
X30382903Y-3702149D01*
X30446894Y-3672840D01*
X30460572Y-3663558D01*
X30493789Y-3621549D01*
X30553384Y-3556092D01*
X30575366Y-3537041D01*
X30604187Y-3513105D01*
X30669644Y-3449113D01*
X30731193Y-3383656D01*
X30782484Y-3338715D01*
X30860241Y-3273135D01*
X30887997Y-3249323D01*
X30924633Y-3228318D01*
X30990090Y-3197055D01*
X31009630Y-3177027D01*
X31016468Y-3132575D01*
X31038939Y-3088122D01*
X31058478Y-3029504D01*
X31079972Y-2960139D01*
X31091695Y-2922526D01*
X31129843Y-2831845D01*
X31155198Y-2776957D01*
X31199040Y-2687564D01*
X31243612Y-2599728D01*
X31250453Y-2586448D01*
X31295525Y-2498431D01*
X31315910Y-2460418D01*
X31373551Y-2403265D01*
X31441939Y-2384214D01*
X31490300Y-2409127D01*
G37*
G36*
X32001744Y-3111081D02*
G01*
X32042777Y-3138925D01*
X32063782Y-3176050D01*
X32081856Y-3233203D01*
X32076482Y-3297683D01*
X32078925Y-3306964D01*
X32072575Y-3357766D01*
X32059874Y-3402219D01*
X32018870Y-3491478D01*
X31970969Y-3560488D01*
X31907826Y-3636437D01*
X31836087Y-3713843D01*
X31788276Y-3762233D01*
X31774598Y-3781772D01*
X31769225Y-3806685D01*
X31777529Y-3850648D01*
X31802442Y-3878004D01*
X31834193Y-3893147D01*
X31886461Y-3907313D01*
X31978297Y-3889727D01*
X32053524Y-3856999D01*
X32075017Y-3845275D01*
X32119469Y-3812547D01*
X32159525Y-3902916D01*
X32185415Y-3966908D01*
X32113500Y-4035149D01*
X32032030Y-4097334D01*
X31939523Y-4136718D01*
X31911863Y-4139344D01*
X31861549Y-4159371D01*
X31790718Y-4166210D01*
X31694487Y-4149602D01*
X31623656Y-4100265D01*
X31594347Y-4055324D01*
X31564549Y-3987424D01*
X31545010Y-3947857D01*
X31531332Y-3937110D01*
X31514724Y-3945415D01*
X31468806Y-3997194D01*
X31442916Y-3919036D01*
X31403838Y-3837459D01*
X31452686Y-3769560D01*
X31515212Y-3710942D01*
X31522051Y-3662581D01*
X31527913Y-3607871D01*
X31537624Y-3573189D01*
X31743824Y-3573189D01*
X31747243Y-3572212D01*
X31760432Y-3560000D01*
X31777529Y-3530690D01*
X31807327Y-3499427D01*
X31835659Y-3467676D01*
X31857152Y-3432505D01*
X31864480Y-3397822D01*
X31863014Y-3387076D01*
X31861060Y-3384633D01*
X31792184Y-3461325D01*
X31748549Y-3549616D01*
X31744801Y-3572212D01*
X31743824Y-3573189D01*
X31537624Y-3573189D01*
X31541591Y-3559023D01*
X31562107Y-3501870D01*
X31596301Y-3424200D01*
X31642308Y-3337196D01*
X31652965Y-3319176D01*
X31714026Y-3248346D01*
X31776003Y-3172689D01*
X31778018Y-3170188D01*
X31813189Y-3145275D01*
X31850802Y-3118408D01*
X31892323Y-3107662D01*
X31940683Y-3103265D01*
X32001744Y-3111081D01*
G37*
G36*
X33652337Y-2332435D02*
G01*
X33675689Y-2428017D01*
X33676273Y-2451137D01*
X33664354Y-2551164D01*
X33663572Y-2554696D01*
X33636484Y-2652903D01*
X33628401Y-2677306D01*
X33596219Y-2770214D01*
X33577599Y-2825806D01*
X33556106Y-2893705D01*
X33529727Y-2968443D01*
X33484197Y-3057148D01*
X33473551Y-3076399D01*
X33427680Y-3162838D01*
X33407117Y-3200963D01*
X33378297Y-3254696D01*
X33356315Y-3276678D01*
X33339706Y-3292798D01*
X33339706Y-3321618D01*
X33322609Y-3350928D01*
X33275280Y-3436905D01*
X33261060Y-3461325D01*
X33207530Y-3548092D01*
X33163363Y-3615198D01*
X33115980Y-3691891D01*
X33100348Y-3744647D01*
X33100348Y-3863349D01*
X33115003Y-3931737D01*
X33131612Y-4000125D01*
X33153593Y-4058255D01*
X33186322Y-4076329D01*
X33268876Y-4053859D01*
X33312351Y-3997194D01*
X33262526Y-3964466D01*
X33239567Y-3910244D01*
X33251779Y-3879958D01*
X33262037Y-3849183D01*
X33266922Y-3830621D01*
X33271807Y-3805219D01*
X33323217Y-3721140D01*
X33385094Y-3638924D01*
X33391974Y-3631318D01*
X33474049Y-3575040D01*
X33495533Y-3572212D01*
X33527773Y-3575631D01*
X33560013Y-3579050D01*
X33580530Y-3564396D01*
X33612281Y-3549741D01*
X33657711Y-3572212D01*
X33670411Y-3626922D01*
X33652494Y-3724297D01*
X33635729Y-3764187D01*
X33601535Y-3841856D01*
X33600558Y-3842833D01*
X33605931Y-3838436D01*
X33638660Y-3808639D01*
X33662595Y-3872630D01*
X33687997Y-3923433D01*
X33698743Y-3943461D01*
X33702163Y-3969351D01*
X33629882Y-4036098D01*
X33592742Y-4064605D01*
X33511165Y-4099288D01*
X33486252Y-4098799D01*
X33461339Y-4097334D01*
X33419818Y-4143251D01*
X33359246Y-4213105D01*
X33323586Y-4238506D01*
X33278157Y-4275631D01*
X33196763Y-4333527D01*
X33194138Y-4334738D01*
X33109630Y-4353789D01*
X33070062Y-4348415D01*
X33028053Y-4329364D01*
X32990928Y-4306894D01*
X32946475Y-4270746D01*
X32917526Y-4173928D01*
X32904466Y-4114431D01*
X32892770Y-4016595D01*
X32891765Y-3980097D01*
X32890300Y-3966908D01*
X32889811Y-3962023D01*
X32887369Y-3961535D01*
X32885903Y-3962023D01*
X32857083Y-3991821D01*
X32824842Y-3908290D01*
X32790160Y-3835994D01*
X32836566Y-3776399D01*
X32893719Y-3705568D01*
X32917166Y-3615198D01*
X32933397Y-3515200D01*
X32937194Y-3482819D01*
X32951551Y-3384587D01*
X32958688Y-3346043D01*
X32965100Y-3317626D01*
X33180711Y-3317626D01*
X33185345Y-3304521D01*
X33228837Y-3216001D01*
X33250802Y-3168722D01*
X33293726Y-3076746D01*
X33306978Y-3045624D01*
X33329448Y-2986517D01*
X33355338Y-2900544D01*
X33362172Y-2878807D01*
X33336246Y-2924736D01*
X33334333Y-2927899D01*
X33288611Y-3014237D01*
X33284019Y-3024131D01*
X33244652Y-3117103D01*
X33235659Y-3140390D01*
X33200082Y-3232367D01*
X33189253Y-3268374D01*
X33180711Y-3317626D01*
X32965100Y-3317626D01*
X32980181Y-3250788D01*
X33013072Y-3148894D01*
X33044270Y-3051903D01*
X33074278Y-2958057D01*
X33076413Y-2951346D01*
X33107202Y-2856123D01*
X33116957Y-2826294D01*
X33152173Y-2735662D01*
X33421589Y-2735662D01*
X33425680Y-2728597D01*
X33429099Y-2713454D01*
X33428695Y-2709409D01*
X33426168Y-2720781D01*
X33421589Y-2735662D01*
X33152173Y-2735662D01*
X33154991Y-2728410D01*
X33197573Y-2633094D01*
X33213189Y-2601591D01*
X33261031Y-2514558D01*
X33315771Y-2429155D01*
X33342637Y-2398869D01*
X33376343Y-2362721D01*
X33465227Y-2320458D01*
X33473551Y-2316315D01*
X33526796Y-2297752D01*
X33581018Y-2290425D01*
X33652337Y-2332435D01*
G37*
G36*
X33601535Y-3839902D02*
G01*
X33676933Y-3774400D01*
X33711933Y-3749043D01*
X33792743Y-3688794D01*
X33807676Y-3675771D01*
X33860921Y-3617152D01*
X33928774Y-3545986D01*
X33940055Y-3534110D01*
X33998185Y-3493077D01*
X34056803Y-3478422D01*
X34118841Y-3499427D01*
X34142288Y-3561953D01*
X34124617Y-3661330D01*
X34101256Y-3734877D01*
X34071803Y-3832257D01*
X34060223Y-3911221D01*
X34061200Y-3919036D01*
X34063642Y-3920013D01*
X34066085Y-3919525D01*
X34123726Y-3879958D01*
X34201884Y-3818408D01*
X34273754Y-3749050D01*
X34289811Y-3732923D01*
X34359583Y-3663840D01*
X34414863Y-3609825D01*
X34476901Y-3554138D01*
X34546583Y-3482214D01*
X34554570Y-3473538D01*
X34609769Y-3431039D01*
X34695743Y-3415896D01*
X34752896Y-3431528D01*
X34774389Y-3477934D01*
X34771946Y-3498450D01*
X34768527Y-3516524D01*
X34741622Y-3610749D01*
X34739218Y-3618129D01*
X34707092Y-3714703D01*
X34692323Y-3758813D01*
X34654494Y-3849355D01*
X34643475Y-3878981D01*
X34609925Y-3973398D01*
X34592184Y-4025038D01*
X34588764Y-4020642D01*
X34660572Y-3963000D01*
X34733356Y-3894928D01*
X34806688Y-3823152D01*
X34819330Y-3810593D01*
X34887229Y-3966908D01*
X34852058Y-4001591D01*
X34808583Y-4036273D01*
X34729985Y-4094332D01*
X34650358Y-4158388D01*
X34572135Y-4228299D01*
X34558967Y-4240949D01*
X34487045Y-4316442D01*
X34422928Y-4397452D01*
X34394347Y-4440739D01*
X34339698Y-4529592D01*
X34286636Y-4614658D01*
X34240963Y-4686448D01*
X34185460Y-4771801D01*
X34152058Y-4820781D01*
X34086822Y-4900479D01*
X34017763Y-4970042D01*
X33967411Y-5010314D01*
X33879605Y-5057208D01*
X33793021Y-5072840D01*
X33738311Y-5056231D01*
X33719748Y-5006406D01*
X33727076Y-4967327D01*
X33753942Y-4918967D01*
X33802791Y-4841786D01*
X33842358Y-4807103D01*
X33845778Y-4785610D01*
X33866294Y-4763628D01*
X33888276Y-4743600D01*
X33940055Y-4662512D01*
X34002405Y-4582697D01*
X34058757Y-4514989D01*
X34125352Y-4438510D01*
X34161828Y-4397752D01*
X34227712Y-4325542D01*
X34239986Y-4312267D01*
X34250244Y-4289309D01*
X34260502Y-4259511D01*
X34300069Y-4172561D01*
X34338721Y-4082746D01*
X34351360Y-4053859D01*
X34373831Y-3965443D01*
X34389945Y-3866324D01*
X34390928Y-3859441D01*
X34387997Y-3846252D01*
X34388485Y-3838925D01*
X34352826Y-3866280D01*
X34291277Y-3920990D01*
X34224008Y-3996115D01*
X34196999Y-4020153D01*
X34114562Y-4075904D01*
X34106629Y-4079748D01*
X34044019Y-4155357D01*
X34025540Y-4167676D01*
X33928683Y-4196746D01*
X33908304Y-4197473D01*
X33828681Y-4172072D01*
X33800837Y-4095868D01*
X33802791Y-4073398D01*
X33808164Y-4047508D01*
X33794487Y-4008429D01*
X33804745Y-3955184D01*
X33800348Y-3903405D01*
X33797418Y-3889239D01*
X33796441Y-3889727D01*
X33755896Y-3921479D01*
X33680133Y-3983303D01*
X33673342Y-3988890D01*
X33648429Y-3926852D01*
X33627424Y-3868722D01*
X33622051Y-3857487D01*
X33601535Y-3839902D01*
G37*
G36*
X36665806Y-2290425D02*
G01*
X36721493Y-2314849D01*
X36739078Y-2380795D01*
X36735506Y-2481545D01*
X36732728Y-2512686D01*
X36714509Y-2609445D01*
X36710746Y-2621618D01*
X36678697Y-2715583D01*
X36671667Y-2736901D01*
X36640213Y-2831734D01*
X36632588Y-2854626D01*
X36606699Y-2886866D01*
X36600348Y-2940111D01*
X36587159Y-2967466D01*
X36565666Y-2988960D01*
X36555408Y-3017292D01*
X36538311Y-3061744D01*
X36490071Y-3149465D01*
X36442079Y-3228806D01*
X36389708Y-3311348D01*
X36334352Y-3395268D01*
X36298953Y-3447648D01*
X36297976Y-3486238D01*
X36219818Y-3652812D01*
X36180673Y-3744167D01*
X36150942Y-3821339D01*
X36120030Y-3918235D01*
X36106978Y-3973258D01*
X36093789Y-4040181D01*
X36089392Y-4075352D01*
X36106001Y-4112477D01*
X36122609Y-4151556D01*
X36056412Y-4229294D01*
X36036147Y-4241926D01*
X35946564Y-4287284D01*
X35924773Y-4291263D01*
X35880809Y-4283447D01*
X35838311Y-4275631D01*
X35786531Y-4253649D01*
X35766992Y-4213105D01*
X35777250Y-4156441D01*
X35802727Y-4060704D01*
X35808513Y-4044577D01*
X35852820Y-3954417D01*
X35856385Y-3948834D01*
X35862735Y-3952742D01*
X35852477Y-3945415D01*
X35844173Y-3922944D01*
X35865177Y-3856022D01*
X35899371Y-3772002D01*
X35925750Y-3716315D01*
X35947732Y-3644996D01*
X35879294Y-3573308D01*
X35872993Y-3564884D01*
X35828743Y-3476270D01*
X35827076Y-3470118D01*
X35798255Y-3412477D01*
X35759665Y-3324549D01*
X35657083Y-2974794D01*
X35644870Y-2877096D01*
X35627757Y-2776800D01*
X35620935Y-2744228D01*
X35631681Y-2716873D01*
X35610188Y-2690006D01*
X35608234Y-2655324D01*
X35601884Y-2607941D01*
X35596999Y-2559581D01*
X35596510Y-2525387D01*
X35614096Y-2438925D01*
X35670760Y-2397892D01*
X35693230Y-2397404D01*
X35719120Y-2396427D01*
X35810659Y-2355626D01*
X35815840Y-2352951D01*
X35891067Y-2376399D01*
X35928192Y-2441367D01*
X35934054Y-2497543D01*
X35935519Y-2580586D01*
X35930635Y-2656301D01*
X35925750Y-2727620D01*
X35927704Y-2743740D01*
X35932588Y-2772072D01*
X35941776Y-2873080D01*
X35942847Y-2881004D01*
X35957686Y-2977997D01*
X35965806Y-3028039D01*
X35984907Y-3127034D01*
X35989741Y-3149183D01*
X36012219Y-3247567D01*
X36027355Y-3314291D01*
X36049337Y-3345066D01*
X36070830Y-3383656D01*
X36072295Y-3384633D01*
X36097697Y-3328457D01*
X36141973Y-3235944D01*
X36183182Y-3146252D01*
X36202233Y-3104242D01*
X36229588Y-3039762D01*
X36244731Y-3018269D01*
X36262316Y-2987494D01*
X36282833Y-2929364D01*
X36318004Y-2842903D01*
X36358548Y-2766210D01*
X36400863Y-2675489D01*
X36407397Y-2660697D01*
X36457026Y-2573921D01*
X36460153Y-2568862D01*
X36513020Y-2483871D01*
X36566365Y-2398596D01*
X36605722Y-2335854D01*
X36633565Y-2303614D01*
X36665806Y-2290425D01*
G37*
G36*
X36569085Y-3765163D02*
G01*
X36696092Y-3678702D01*
X36709769Y-3663070D01*
X36730774Y-3631807D01*
X36759106Y-3598590D01*
X36796231Y-3576120D01*
X36826517Y-3543879D01*
X36881228Y-3495031D01*
X36919330Y-3472072D01*
X36968178Y-3432505D01*
X37044294Y-3364909D01*
X37121190Y-3303666D01*
X37190928Y-3256161D01*
X37280809Y-3211831D01*
X37357013Y-3197055D01*
X37420516Y-3216106D01*
X37442498Y-3268862D01*
X37430286Y-3325526D01*
X37393161Y-3367048D01*
X37321353Y-3418827D01*
X37267131Y-3478422D01*
X37192882Y-3540460D01*
X37170411Y-3570258D01*
X37143056Y-3596147D01*
X37094207Y-3634249D01*
X37034124Y-3710453D01*
X36959311Y-3781068D01*
X36910048Y-3824270D01*
X36876831Y-3866280D01*
X36820167Y-3946880D01*
X36815771Y-3941507D01*
X36864619Y-3914152D01*
X36935450Y-3855045D01*
X37008837Y-3790502D01*
X37012630Y-3787145D01*
X37056106Y-3751486D01*
X37075645Y-3740739D01*
X37095184Y-3729016D01*
X37164771Y-3657471D01*
X37216329Y-3617641D01*
X37309207Y-3580946D01*
X37325261Y-3580027D01*
X37380949Y-3607383D01*
X37402930Y-3684075D01*
X37400183Y-3782352D01*
X37400000Y-3813524D01*
X37420027Y-3879958D01*
X37475226Y-3908778D01*
X37492812Y-3903893D01*
X37512351Y-3890704D01*
X37529937Y-3870676D01*
X37550942Y-3848206D01*
X37567550Y-3839902D01*
X37601256Y-3812058D01*
X37641450Y-3901423D01*
X37642288Y-3903405D01*
X37666224Y-3968374D01*
X37595882Y-4030900D01*
X37529937Y-4085610D01*
X37445917Y-4131528D01*
X37363852Y-4147159D01*
X37265075Y-4127700D01*
X37215352Y-4091960D01*
X37167190Y-4001781D01*
X37154780Y-3927341D01*
X37151849Y-3905847D01*
X37151360Y-3887773D01*
X37147941Y-3899986D01*
X37128890Y-3920502D01*
X37082484Y-3955673D01*
X37021423Y-4004521D01*
X36951549Y-4074782D01*
X36940823Y-4085122D01*
X36893928Y-4131039D01*
X36827494Y-4178422D01*
X36744940Y-4225806D01*
X36692672Y-4250718D01*
X36657501Y-4260000D01*
X36561236Y-4235309D01*
X36549057Y-4225317D01*
X36513227Y-4132283D01*
X36512909Y-4119316D01*
X36530495Y-4045554D01*
X36576901Y-3982540D01*
X36578855Y-3963000D01*
X36575924Y-3954207D01*
X36568108Y-3938576D01*
X36549546Y-3895589D01*
X36522191Y-3835017D01*
X36544173Y-3807173D01*
X36569085Y-3765163D01*
G37*
G36*
X37561688Y-3837948D02*
G01*
X37586601Y-3816943D01*
X37597348Y-3795450D01*
X37623237Y-3762721D01*
X37660362Y-3726085D01*
X37725415Y-3652735D01*
X37727285Y-3649881D01*
X37777568Y-3561962D01*
X37786880Y-3543391D01*
X37829934Y-3454158D01*
X37860642Y-3395868D01*
X37913642Y-3312467D01*
X37920237Y-3304521D01*
X37950937Y-3211090D01*
X37952477Y-3206824D01*
X37987744Y-3110740D01*
X38018422Y-3028527D01*
X38055303Y-2933394D01*
X38085833Y-2858046D01*
X38127403Y-2768355D01*
X38128332Y-2766699D01*
X38142009Y-2743251D01*
X38155687Y-2708569D01*
X38188843Y-2615604D01*
X38201605Y-2586936D01*
X38245585Y-2499371D01*
X38255826Y-2480446D01*
X38278297Y-2456022D01*
X38308094Y-2446741D01*
X38397968Y-2489245D01*
X38401884Y-2495101D01*
X38430277Y-2588615D01*
X38432170Y-2629434D01*
X38418968Y-2733519D01*
X38392505Y-2829221D01*
X38372086Y-2888332D01*
X38333618Y-2986026D01*
X38291120Y-3081884D01*
X38247522Y-3172722D01*
X38197941Y-3270058D01*
X38190369Y-3284494D01*
X38150802Y-3374619D01*
X38136636Y-3410523D01*
X38102991Y-3507024D01*
X38079972Y-3581981D01*
X38051235Y-3677160D01*
X38034542Y-3735366D01*
X38006493Y-3831918D01*
X37989113Y-3888750D01*
X37961624Y-3982798D01*
X37956385Y-4002079D01*
X37945638Y-4054347D01*
X37944661Y-4058255D01*
X37943684Y-4056789D01*
X37958339Y-4051416D01*
X37970062Y-4033342D01*
X38020981Y-3949594D01*
X38024284Y-3943461D01*
X38068797Y-3854640D01*
X38077041Y-3836971D01*
X38080460Y-3799357D01*
X38102824Y-3701813D01*
X38125401Y-3664535D01*
X38214344Y-3613743D01*
X38251430Y-3603475D01*
X38299302Y-3534598D01*
X38350104Y-3449724D01*
X38398464Y-3363147D01*
X38416538Y-3329923D01*
X38468320Y-3245104D01*
X38488346Y-3217083D01*
X38540125Y-3177027D01*
X38597278Y-3202916D01*
X38614863Y-3274724D01*
X38595354Y-3372961D01*
X38548368Y-3468805D01*
X38496650Y-3545833D01*
X38439506Y-3626879D01*
X38389981Y-3711882D01*
X38378436Y-3751486D01*
X38426980Y-3837589D01*
X38437543Y-3850160D01*
X38511915Y-3914274D01*
X38530355Y-3918548D01*
X38554780Y-3910732D01*
X38591905Y-3884842D01*
X38626587Y-3855533D01*
X38681297Y-3814501D01*
X38748709Y-3966908D01*
X38676581Y-4034170D01*
X38672505Y-4038227D01*
X38603628Y-4100265D01*
X38522752Y-4159077D01*
X38520097Y-4160348D01*
X38434124Y-4179888D01*
X38340216Y-4136483D01*
X38289043Y-4095868D01*
X38213810Y-4029929D01*
X38195743Y-4011360D01*
X38127080Y-4081735D01*
X38112700Y-4098799D01*
X38063363Y-4157418D01*
X38015491Y-4214570D01*
X37992044Y-4239972D01*
X37958339Y-4270258D01*
X37912909Y-4325457D01*
X37843545Y-4353789D01*
X37751769Y-4319406D01*
X37749755Y-4317152D01*
X37718283Y-4223150D01*
X37718004Y-4210174D01*
X37724060Y-4109485D01*
X37729727Y-4068025D01*
X37749763Y-3971129D01*
X37766364Y-3910244D01*
X37781507Y-3844298D01*
X37786880Y-3799846D01*
X37792254Y-3802288D01*
X37759036Y-3843810D01*
X37693579Y-3919036D01*
X37683321Y-3932226D01*
X37638381Y-3995240D01*
X37611025Y-3926852D01*
X37590020Y-3868722D01*
X37584647Y-3857487D01*
X37561688Y-3837948D01*
G37*
G36*
X38644173Y-3840879D02*
G01*
X38660781Y-3820362D01*
X38664689Y-3806685D01*
X38730618Y-3729816D01*
X38797557Y-3665512D01*
X38868216Y-3597258D01*
X38925540Y-3528736D01*
X38962665Y-3490635D01*
X39005652Y-3478422D01*
X39096510Y-3505778D01*
X39145847Y-3587355D01*
X39163921Y-3674305D01*
X39177599Y-3762233D01*
X39200558Y-3851625D01*
X39219609Y-3915617D01*
X39234263Y-3930272D01*
X39261130Y-3934668D01*
X39307048Y-3926852D01*
X39355408Y-3899009D01*
X39398883Y-3862372D01*
X39459455Y-3813035D01*
X39527355Y-3966908D01*
X39459944Y-4023572D01*
X39378370Y-4081676D01*
X39372016Y-4086099D01*
X39288668Y-4137968D01*
X39272365Y-4146182D01*
X39206420Y-4166210D01*
X39103788Y-4159126D01*
X39034961Y-4133970D01*
X38981526Y-4048108D01*
X38953872Y-3968374D01*
X38934333Y-3954696D01*
X38906978Y-3915617D01*
X38881088Y-3872630D01*
X38870830Y-3860418D01*
X38820027Y-3887773D01*
X38748678Y-3956833D01*
X38715980Y-3992309D01*
X38689602Y-3926852D01*
X38668597Y-3868722D01*
X38663224Y-3857487D01*
X38644173Y-3840879D01*
G37*
G36*
X39240614Y-2728108D02*
G01*
X39301674Y-2746182D01*
X39322191Y-2798450D01*
X39308025Y-2865861D01*
X39283600Y-2947927D01*
X39267969Y-2993845D01*
X39230844Y-3051486D01*
X39176133Y-3094961D01*
X39119469Y-3127690D01*
X39083321Y-3135505D01*
X39039846Y-3131109D01*
X38994905Y-3128667D01*
X38956803Y-3083237D01*
X38945080Y-3002149D01*
X38983333Y-2908756D01*
X38998813Y-2888332D01*
X39073827Y-2821761D01*
X39091625Y-2817013D01*
X39143405Y-2753998D01*
X39185415Y-2734947D01*
X39240614Y-2728108D01*
G37*
G36*
X39429658Y-3835505D02*
G01*
X39455059Y-3803265D01*
X39479483Y-3768094D01*
X39543638Y-3691296D01*
X39598185Y-3631318D01*
X39667565Y-3561366D01*
X39706629Y-3524340D01*
X39769644Y-3460837D01*
X39839646Y-3387982D01*
X39858548Y-3368513D01*
X39949933Y-3331627D01*
X39972854Y-3322107D01*
X40042219Y-3351416D01*
X40064200Y-3431528D01*
X40057850Y-3517013D01*
X40040265Y-3611290D01*
X40020237Y-3680655D01*
X40020237Y-3682609D01*
X40019260Y-3682609D01*
X40092044Y-3616175D01*
X40159455Y-3544612D01*
X40227895Y-3468843D01*
X40245429Y-3449113D01*
X40314872Y-3375596D01*
X40389391Y-3310460D01*
X40393440Y-3307452D01*
X40480773Y-3261872D01*
X40500418Y-3259581D01*
X40571249Y-3295240D01*
X40593230Y-3393426D01*
X40588753Y-3494033D01*
X40580530Y-3560488D01*
X40557594Y-3658147D01*
X40537055Y-3714361D01*
X40530704Y-3734389D01*
X40529727Y-3750020D01*
X40528262Y-3749532D01*
X40543893Y-3730481D01*
X40578087Y-3683586D01*
X40643056Y-3629364D01*
X40711933Y-3575143D01*
X40794487Y-3525806D01*
X40878506Y-3508709D01*
X40899023Y-3514570D01*
X40916120Y-3526294D01*
X40969853Y-3579539D01*
X41001116Y-3622037D01*
X41047219Y-3712197D01*
X41092463Y-3783237D01*
X41155966Y-3834528D01*
X41163293Y-3832575D01*
X41189183Y-3813524D01*
X41229918Y-3904113D01*
X41255617Y-3968374D01*
X41173829Y-4024449D01*
X41154989Y-4034808D01*
X41081716Y-4055812D01*
X40986218Y-4028872D01*
X40903801Y-3961939D01*
X40878506Y-3933203D01*
X40810431Y-3858487D01*
X40731472Y-3810593D01*
X40641468Y-3862861D01*
X40568409Y-3938200D01*
X40500418Y-4019665D01*
X40433389Y-4101129D01*
X40363764Y-4176468D01*
X40285973Y-4228736D01*
X40228332Y-4225317D01*
X40201465Y-4204312D01*
X40193649Y-4168164D01*
X40201953Y-4111011D01*
X40223935Y-4030411D01*
X40252756Y-3938576D01*
X40264968Y-3892170D01*
X40276692Y-3822316D01*
X40290888Y-3725505D01*
X40296720Y-3685052D01*
X40292812Y-3673817D01*
X40284508Y-3669909D01*
X40269853Y-3674794D01*
X40247871Y-3691891D01*
X40210258Y-3728039D01*
X40147243Y-3778841D01*
X40080706Y-3853900D01*
X40049546Y-3889239D01*
X39983098Y-3964462D01*
X39947452Y-4004033D01*
X39881202Y-4079407D01*
X39813607Y-4149113D01*
X39742288Y-4197473D01*
X39669993Y-4185261D01*
X39642637Y-4143251D01*
X39661719Y-4045821D01*
X39691486Y-3951277D01*
X39721253Y-3855426D01*
X39740144Y-3757504D01*
X39740334Y-3750020D01*
X39738381Y-3745624D01*
X39733984Y-3743670D01*
X39702721Y-3759790D01*
X39655338Y-3814501D01*
X39607955Y-3866280D01*
X39542498Y-3930760D01*
X39531263Y-3951277D01*
X39495603Y-3996217D01*
X39469713Y-3919036D01*
X39429658Y-3835505D01*
G37*
G36*
X42120725Y-2884424D02*
G01*
X42127076Y-2827271D01*
X42123168Y-2807243D01*
X42125796Y-2708606D01*
X42127076Y-2693914D01*
X42143684Y-2665582D01*
X42149057Y-2653370D01*
X42133914Y-2632365D01*
X42126587Y-2607452D01*
X42139004Y-2509963D01*
X42147103Y-2447229D01*
X42173970Y-2393007D01*
X42239427Y-2333412D01*
X42303419Y-2287983D01*
X42363503Y-2257697D01*
X42404535Y-2237180D01*
X42427983Y-2227899D01*
X42473900Y-2255743D01*
X42489043Y-2331458D01*
X42477320Y-2397892D01*
X42465596Y-2456022D01*
X42467550Y-2519036D01*
X42471391Y-2617121D01*
X42473900Y-2676817D01*
X42483608Y-2776124D01*
X42494905Y-2831667D01*
X42520597Y-2926859D01*
X42545708Y-3004103D01*
X42585707Y-3098871D01*
X42633635Y-3174096D01*
X42718960Y-3227470D01*
X42731821Y-3228318D01*
X42824840Y-3187282D01*
X42847103Y-3170676D01*
X42923153Y-3102763D01*
X42993266Y-3029112D01*
X43024912Y-2993356D01*
X43090883Y-2914576D01*
X43154302Y-2835565D01*
X43166085Y-2820432D01*
X43225244Y-2739312D01*
X43266224Y-2674375D01*
X43325648Y-2592009D01*
X43352198Y-2563489D01*
X43426963Y-2499806D01*
X43465526Y-2473607D01*
X43498743Y-2454556D01*
X43524145Y-2446741D01*
X43575436Y-2490216D01*
X43590209Y-2586880D01*
X43590579Y-2609895D01*
X43579771Y-2710187D01*
X43576901Y-2743251D01*
X43562769Y-2842163D01*
X43543270Y-2944723D01*
X43540265Y-2958674D01*
X43516182Y-3057809D01*
X43488964Y-3152878D01*
X43477250Y-3190216D01*
X43447133Y-3286280D01*
X43444521Y-3294752D01*
X43425959Y-3369490D01*
X43418143Y-3414431D01*
X43407397Y-3477934D01*
X43376133Y-3549253D01*
X43354640Y-3612267D01*
X43339497Y-3698241D01*
X43338032Y-3723154D01*
X43335101Y-3755882D01*
X43313098Y-3851563D01*
X43288701Y-3953573D01*
X43270132Y-4028457D01*
X43254012Y-4069002D01*
X43211514Y-4091960D01*
X43166573Y-4138855D01*
X43121632Y-4182330D01*
X43088904Y-4197473D01*
X43059595Y-4186238D01*
X43048360Y-4150579D01*
X43053733Y-4128108D01*
X43080053Y-4032081D01*
X43086461Y-3996217D01*
X43100261Y-3899497D01*
X43111735Y-3798037D01*
X43113328Y-3782260D01*
X43126781Y-3681808D01*
X43134822Y-3633272D01*
X43153186Y-3529065D01*
X43172477Y-3422390D01*
X43190520Y-3324067D01*
X43195394Y-3297683D01*
X43210048Y-3212686D01*
X43229656Y-3113043D01*
X43233007Y-3096915D01*
X43248639Y-3040739D01*
X43254501Y-3008988D01*
X43253524Y-2999218D01*
X43251081Y-2998241D01*
X43229588Y-3016803D01*
X43177808Y-3077376D01*
X43138729Y-3127201D01*
X43096231Y-3178981D01*
X43027355Y-3251765D01*
X42923796Y-3354836D01*
X42888625Y-3376329D01*
X42844173Y-3403684D01*
X42768362Y-3470918D01*
X42757222Y-3476957D01*
X42661266Y-3507457D01*
X42644870Y-3508220D01*
X42547458Y-3482744D01*
X42526168Y-3469630D01*
X42454972Y-3401509D01*
X42419190Y-3352393D01*
X42375715Y-3278143D01*
X42338590Y-3206824D01*
X42344940Y-3211221D01*
X42325889Y-3313314D01*
X42309431Y-3411440D01*
X42294356Y-3509195D01*
X42278995Y-3613733D01*
X42264065Y-3711247D01*
X42248065Y-3817512D01*
X42233882Y-3914347D01*
X42230635Y-3937110D01*
X42217675Y-4037718D01*
X42214026Y-4087564D01*
X42193510Y-4169141D01*
X42138799Y-4205289D01*
X42096789Y-4212616D01*
X42028890Y-4229225D01*
X42004954Y-4219944D01*
X41994696Y-4196496D01*
X42002512Y-4148136D01*
X41988834Y-4095380D01*
X42005931Y-4010383D01*
X42012075Y-3911656D01*
X42015212Y-3855533D01*
X42025471Y-3803265D01*
X42034752Y-3751974D01*
X42030355Y-3725596D01*
X42026448Y-3695799D01*
X42033203Y-3593666D01*
X42047485Y-3488402D01*
X42050383Y-3470118D01*
X42064969Y-3368818D01*
X42073945Y-3266236D01*
X42074319Y-3246392D01*
X42064549Y-3182889D01*
X42081616Y-3082970D01*
X42087020Y-3055882D01*
X42106208Y-2959381D01*
X42120725Y-2884424D01*
G37*
G36*
X43566154Y-3765163D02*
G01*
X43693161Y-3678702D01*
X43706838Y-3663070D01*
X43727843Y-3631807D01*
X43756175Y-3598590D01*
X43793300Y-3576120D01*
X43823586Y-3543879D01*
X43878297Y-3495031D01*
X43916399Y-3472072D01*
X43965247Y-3432505D01*
X44041363Y-3364909D01*
X44118259Y-3303666D01*
X44187997Y-3256161D01*
X44277878Y-3211831D01*
X44354082Y-3197055D01*
X44417585Y-3216106D01*
X44439567Y-3268862D01*
X44427355Y-3325526D01*
X44390230Y-3367048D01*
X44318422Y-3418827D01*
X44264200Y-3478422D01*
X44189951Y-3540460D01*
X44167480Y-3570258D01*
X44140125Y-3596147D01*
X44091277Y-3634249D01*
X44031193Y-3710453D01*
X43956380Y-3781068D01*
X43907117Y-3824270D01*
X43873900Y-3866280D01*
X43817236Y-3946880D01*
X43812840Y-3941507D01*
X43861688Y-3914152D01*
X43932519Y-3855045D01*
X44005906Y-3790502D01*
X44009699Y-3787145D01*
X44053175Y-3751486D01*
X44072714Y-3740739D01*
X44092254Y-3729016D01*
X44161840Y-3657471D01*
X44213398Y-3617641D01*
X44306276Y-3580946D01*
X44322330Y-3580027D01*
X44378018Y-3607383D01*
X44400000Y-3684075D01*
X44397252Y-3782352D01*
X44397069Y-3813524D01*
X44417096Y-3879958D01*
X44472295Y-3908778D01*
X44489881Y-3903893D01*
X44509420Y-3890704D01*
X44527006Y-3870676D01*
X44548011Y-3848206D01*
X44564619Y-3839902D01*
X44598325Y-3812058D01*
X44638519Y-3901423D01*
X44639357Y-3903405D01*
X44663293Y-3968374D01*
X44592951Y-4030900D01*
X44527006Y-4085610D01*
X44442986Y-4131528D01*
X44360921Y-4147159D01*
X44262144Y-4127700D01*
X44212421Y-4091960D01*
X44164259Y-4001781D01*
X44151849Y-3927341D01*
X44148918Y-3905847D01*
X44148429Y-3887773D01*
X44145010Y-3899986D01*
X44125959Y-3920502D01*
X44079553Y-3955673D01*
X44018492Y-4004521D01*
X43948618Y-4074782D01*
X43937892Y-4085122D01*
X43890997Y-4131039D01*
X43824563Y-4178422D01*
X43742009Y-4225806D01*
X43689741Y-4250718D01*
X43654570Y-4260000D01*
X43558305Y-4235309D01*
X43546127Y-4225317D01*
X43510296Y-4132283D01*
X43509979Y-4119316D01*
X43527564Y-4045554D01*
X43573970Y-3982540D01*
X43575924Y-3963000D01*
X43572993Y-3954207D01*
X43565177Y-3938576D01*
X43546615Y-3895589D01*
X43519260Y-3835017D01*
X43541242Y-3807173D01*
X43566154Y-3765163D01*
G37*
G36*
X44566573Y-3829644D02*
G01*
X44617376Y-3759790D01*
X44692928Y-3693689D01*
X44764677Y-3620824D01*
X44781018Y-3602009D01*
X44840163Y-3522875D01*
X44869923Y-3468164D01*
X44855757Y-3401730D01*
X44925982Y-3327213D01*
X44951988Y-3308918D01*
X45042517Y-3264399D01*
X45075575Y-3259581D01*
X45163014Y-3289378D01*
X45227006Y-3348485D01*
X45248988Y-3363628D01*
X45315063Y-3439548D01*
X45335938Y-3484284D01*
X45359242Y-3579905D01*
X45364759Y-3667955D01*
X45344441Y-3769125D01*
X45321772Y-3829155D01*
X45288612Y-3923121D01*
X45279274Y-3981074D01*
X45278785Y-3981074D01*
X45281716Y-3980586D01*
X45317376Y-3966420D01*
X45367201Y-3925875D01*
X45439409Y-3857895D01*
X45457083Y-3844787D01*
X45509839Y-3807173D01*
X45543056Y-3885331D01*
X45576273Y-3963489D01*
X45540125Y-3996706D01*
X45501535Y-4031877D01*
X45418588Y-4089753D01*
X45378436Y-4116385D01*
X45290617Y-4172422D01*
X45205666Y-4224782D01*
X45199162Y-4228736D01*
X45129797Y-4260000D01*
X45032831Y-4240745D01*
X45030635Y-4239483D01*
X44996441Y-4171095D01*
X45002791Y-4132016D01*
X45021353Y-4085610D01*
X45038939Y-4049951D01*
X45055059Y-4012826D01*
X45085449Y-3915382D01*
X45100488Y-3854068D01*
X45114883Y-3756813D01*
X45116120Y-3723154D01*
X45098517Y-3625352D01*
X45096092Y-3621060D01*
X45044312Y-3583447D01*
X44985205Y-3626434D01*
X44914863Y-3699218D01*
X44849895Y-3773697D01*
X44841591Y-3782260D01*
X44789811Y-3824759D01*
X44749755Y-3870676D01*
X44677948Y-3926852D01*
X44671109Y-3940530D01*
X44633984Y-3988401D01*
X44601256Y-3901451D01*
X44566573Y-3829644D01*
G37*
G36*
X45473203Y-3840879D02*
G01*
X45489811Y-3820362D01*
X45493719Y-3806685D01*
X45559648Y-3729816D01*
X45626587Y-3665512D01*
X45697246Y-3597258D01*
X45754570Y-3528736D01*
X45791695Y-3490635D01*
X45834682Y-3478422D01*
X45925540Y-3505778D01*
X45974877Y-3587355D01*
X45992951Y-3674305D01*
X46006629Y-3762233D01*
X46029588Y-3851625D01*
X46048639Y-3915617D01*
X46063293Y-3930272D01*
X46090160Y-3934668D01*
X46136078Y-3926852D01*
X46184438Y-3899009D01*
X46227913Y-3862372D01*
X46288485Y-3813035D01*
X46356385Y-3966908D01*
X46288974Y-4023572D01*
X46207400Y-4081676D01*
X46201046Y-4086099D01*
X46117698Y-4137968D01*
X46101395Y-4146182D01*
X46035450Y-4166210D01*
X45932818Y-4159126D01*
X45863991Y-4133970D01*
X45810556Y-4048108D01*
X45782903Y-3968374D01*
X45763363Y-3954696D01*
X45736008Y-3915617D01*
X45710118Y-3872630D01*
X45699860Y-3860418D01*
X45649057Y-3887773D01*
X45577708Y-3956833D01*
X45545010Y-3992309D01*
X45518632Y-3926852D01*
X45497627Y-3868722D01*
X45492254Y-3857487D01*
X45473203Y-3840879D01*
G37*
G36*
X46069644Y-2728108D02*
G01*
X46130704Y-2746182D01*
X46151221Y-2798450D01*
X46137055Y-2865861D01*
X46112630Y-2947927D01*
X46096999Y-2993845D01*
X46059874Y-3051486D01*
X46005163Y-3094961D01*
X45948499Y-3127690D01*
X45912351Y-3135505D01*
X45868876Y-3131109D01*
X45823935Y-3128667D01*
X45785833Y-3083237D01*
X45774110Y-3002149D01*
X45812363Y-2908756D01*
X45827843Y-2888332D01*
X45902857Y-2821761D01*
X45920655Y-2817013D01*
X45972435Y-2753998D01*
X46014445Y-2734947D01*
X46069644Y-2728108D01*
G37*
G36*
X46309490Y-3765163D02*
G01*
X46436496Y-3678702D01*
X46450174Y-3663070D01*
X46471179Y-3631807D01*
X46499511Y-3598590D01*
X46536636Y-3576120D01*
X46566922Y-3543879D01*
X46621632Y-3495031D01*
X46659734Y-3472072D01*
X46708583Y-3432505D01*
X46784699Y-3364909D01*
X46861594Y-3303666D01*
X46931332Y-3256161D01*
X47021214Y-3211831D01*
X47097418Y-3197055D01*
X47160921Y-3216106D01*
X47182903Y-3268862D01*
X47170690Y-3325526D01*
X47133565Y-3367048D01*
X47061758Y-3418827D01*
X47007536Y-3478422D01*
X46933286Y-3540460D01*
X46910816Y-3570258D01*
X46883461Y-3596147D01*
X46834612Y-3634249D01*
X46774528Y-3710453D01*
X46699716Y-3781068D01*
X46650453Y-3824270D01*
X46617236Y-3866280D01*
X46560572Y-3946880D01*
X46556175Y-3941507D01*
X46605024Y-3914152D01*
X46675854Y-3855045D01*
X46749242Y-3790502D01*
X46753035Y-3787145D01*
X46796510Y-3751486D01*
X46816050Y-3740739D01*
X46835589Y-3729016D01*
X46905175Y-3657471D01*
X46956734Y-3617641D01*
X47049611Y-3580946D01*
X47065666Y-3580027D01*
X47121353Y-3607383D01*
X47143335Y-3684075D01*
X47140587Y-3782352D01*
X47140404Y-3813524D01*
X47160432Y-3879958D01*
X47215631Y-3908778D01*
X47233217Y-3903893D01*
X47252756Y-3890704D01*
X47270341Y-3870676D01*
X47291346Y-3848206D01*
X47307955Y-3839902D01*
X47341660Y-3812058D01*
X47381855Y-3901423D01*
X47382693Y-3903405D01*
X47406629Y-3968374D01*
X47336287Y-4030900D01*
X47270341Y-4085610D01*
X47186322Y-4131528D01*
X47104256Y-4147159D01*
X47005480Y-4127700D01*
X46955757Y-4091960D01*
X46907595Y-4001781D01*
X46895184Y-3927341D01*
X46892254Y-3905847D01*
X46891765Y-3887773D01*
X46888346Y-3899986D01*
X46869295Y-3920502D01*
X46822889Y-3955673D01*
X46761828Y-4004521D01*
X46691954Y-4074782D01*
X46681228Y-4085122D01*
X46634333Y-4131039D01*
X46567899Y-4178422D01*
X46485345Y-4225806D01*
X46433077Y-4250718D01*
X46397906Y-4260000D01*
X46301641Y-4235309D01*
X46289462Y-4225317D01*
X46253632Y-4132283D01*
X46253314Y-4119316D01*
X46270900Y-4045554D01*
X46317306Y-3982540D01*
X46319260Y-3963000D01*
X46316329Y-3954207D01*
X46308513Y-3938576D01*
X46289951Y-3895589D01*
X46262595Y-3835017D01*
X46284577Y-3807173D01*
X46309490Y-3765163D01*
G37*
X9802568Y-13964619D02*
X9802568Y-12964619D01*
X10278758Y-13964619D02*
X10278758Y-12964619D01*
X10278758Y-12964619D02*
X10850186Y-13964619D01*
X10850186Y-13964619D02*
X10850186Y-12964619D01*
X11326377Y-13583666D02*
X12088282Y-13583666D01*
X10226377Y-14512238D02*
X10131139Y-14464619D01*
X10131139Y-14464619D02*
X9988282Y-14464619D01*
X9988282Y-14464619D02*
X9845425Y-14512238D01*
X9845425Y-14512238D02*
X9750187Y-14607476D01*
X9750187Y-14607476D02*
X9702568Y-14702714D01*
X9702568Y-14702714D02*
X9654949Y-14893190D01*
X9654949Y-14893190D02*
X9654949Y-15036047D01*
X9654949Y-15036047D02*
X9702568Y-15226523D01*
X9702568Y-15226523D02*
X9750187Y-15321761D01*
X9750187Y-15321761D02*
X9845425Y-15417000D01*
X9845425Y-15417000D02*
X9988282Y-15464619D01*
X9988282Y-15464619D02*
X10083520Y-15464619D01*
X10083520Y-15464619D02*
X10226377Y-15417000D01*
X10226377Y-15417000D02*
X10273996Y-15369380D01*
X10273996Y-15369380D02*
X10273996Y-15036047D01*
X10273996Y-15036047D02*
X10083520Y-15036047D01*
X10702568Y-15464619D02*
X10702568Y-14464619D01*
X10702568Y-14464619D02*
X11273996Y-15464619D01*
X11273996Y-15464619D02*
X11273996Y-14464619D01*
X11750187Y-15464619D02*
X11750187Y-14464619D01*
X11750187Y-14464619D02*
X11988282Y-14464619D01*
X11988282Y-14464619D02*
X12131139Y-14512238D01*
X12131139Y-14512238D02*
X12226377Y-14607476D01*
X12226377Y-14607476D02*
X12273996Y-14702714D01*
X12273996Y-14702714D02*
X12321615Y-14893190D01*
X12321615Y-14893190D02*
X12321615Y-15036047D01*
X12321615Y-15036047D02*
X12273996Y-15226523D01*
X12273996Y-15226523D02*
X12226377Y-15321761D01*
X12226377Y-15321761D02*
X12131139Y-15417000D01*
X12131139Y-15417000D02*
X11988282Y-15464619D01*
X11988282Y-15464619D02*
X11750187Y-15464619D01*
D11*
X28533333Y-16214580D02*
X28485714Y-16262200D01*
X28485714Y-16262200D02*
X28342857Y-16309819D01*
X28342857Y-16309819D02*
X28247619Y-16309819D01*
X28247619Y-16309819D02*
X28104762Y-16262200D01*
X28104762Y-16262200D02*
X28009524Y-16166961D01*
X28009524Y-16166961D02*
X27961905Y-16071723D01*
X27961905Y-16071723D02*
X27914286Y-15881247D01*
X27914286Y-15881247D02*
X27914286Y-15738390D01*
X27914286Y-15738390D02*
X27961905Y-15547914D01*
X27961905Y-15547914D02*
X28009524Y-15452676D01*
X28009524Y-15452676D02*
X28104762Y-15357438D01*
X28104762Y-15357438D02*
X28247619Y-15309819D01*
X28247619Y-15309819D02*
X28342857Y-15309819D01*
X28342857Y-15309819D02*
X28485714Y-15357438D01*
X28485714Y-15357438D02*
X28533333Y-15405057D01*
X29390476Y-15309819D02*
X29200000Y-15309819D01*
X29200000Y-15309819D02*
X29104762Y-15357438D01*
X29104762Y-15357438D02*
X29057143Y-15405057D01*
X29057143Y-15405057D02*
X28961905Y-15547914D01*
X28961905Y-15547914D02*
X28914286Y-15738390D01*
X28914286Y-15738390D02*
X28914286Y-16119342D01*
X28914286Y-16119342D02*
X28961905Y-16214580D01*
X28961905Y-16214580D02*
X29009524Y-16262200D01*
X29009524Y-16262200D02*
X29104762Y-16309819D01*
X29104762Y-16309819D02*
X29295238Y-16309819D01*
X29295238Y-16309819D02*
X29390476Y-16262200D01*
X29390476Y-16262200D02*
X29438095Y-16214580D01*
X29438095Y-16214580D02*
X29485714Y-16119342D01*
X29485714Y-16119342D02*
X29485714Y-15881247D01*
X29485714Y-15881247D02*
X29438095Y-15786009D01*
X29438095Y-15786009D02*
X29390476Y-15738390D01*
X29390476Y-15738390D02*
X29295238Y-15690771D01*
X29295238Y-15690771D02*
X29104762Y-15690771D01*
X29104762Y-15690771D02*
X29009524Y-15738390D01*
X29009524Y-15738390D02*
X28961905Y-15786009D01*
X28961905Y-15786009D02*
X28914286Y-15881247D01*
X16813333Y-7459819D02*
X16480000Y-6983628D01*
X16241905Y-7459819D02*
X16241905Y-6459819D01*
X16241905Y-6459819D02*
X16622857Y-6459819D01*
X16622857Y-6459819D02*
X16718095Y-6507438D01*
X16718095Y-6507438D02*
X16765714Y-6555057D01*
X16765714Y-6555057D02*
X16813333Y-6650295D01*
X16813333Y-6650295D02*
X16813333Y-6793152D01*
X16813333Y-6793152D02*
X16765714Y-6888390D01*
X16765714Y-6888390D02*
X16718095Y-6936009D01*
X16718095Y-6936009D02*
X16622857Y-6983628D01*
X16622857Y-6983628D02*
X16241905Y-6983628D01*
X17194286Y-6555057D02*
X17241905Y-6507438D01*
X17241905Y-6507438D02*
X17337143Y-6459819D01*
X17337143Y-6459819D02*
X17575238Y-6459819D01*
X17575238Y-6459819D02*
X17670476Y-6507438D01*
X17670476Y-6507438D02*
X17718095Y-6555057D01*
X17718095Y-6555057D02*
X17765714Y-6650295D01*
X17765714Y-6650295D02*
X17765714Y-6745533D01*
X17765714Y-6745533D02*
X17718095Y-6888390D01*
X17718095Y-6888390D02*
X17146667Y-7459819D01*
X17146667Y-7459819D02*
X17765714Y-7459819D01*
X16400074Y-8669065D02*
X16400074Y-9306486D01*
X16400074Y-9306486D02*
X16437570Y-9381476D01*
X16437570Y-9381476D02*
X16475065Y-9418972D01*
X16475065Y-9418972D02*
X16550056Y-9456467D01*
X16550056Y-9456467D02*
X16700037Y-9456467D01*
X16700037Y-9456467D02*
X16775028Y-9418972D01*
X16775028Y-9418972D02*
X16812523Y-9381476D01*
X16812523Y-9381476D02*
X16850018Y-9306486D01*
X16850018Y-9306486D02*
X16850018Y-8669065D01*
X17637420Y-9456467D02*
X17187476Y-9456467D01*
X17412448Y-9456467D02*
X17412448Y-8669065D01*
X17412448Y-8669065D02*
X17337457Y-8781551D01*
X17337457Y-8781551D02*
X17262467Y-8856542D01*
X17262467Y-8856542D02*
X17187476Y-8894037D01*
X15018800Y-9636619D02*
X15018800Y-9874714D01*
X14780705Y-9779476D02*
X15018800Y-9874714D01*
X15018800Y-9874714D02*
X15256895Y-9779476D01*
X14875943Y-10065190D02*
X15018800Y-9874714D01*
X15018800Y-9874714D02*
X15161657Y-10065190D01*
X12653333Y-20014580D02*
X12605714Y-20062200D01*
X12605714Y-20062200D02*
X12462857Y-20109819D01*
X12462857Y-20109819D02*
X12367619Y-20109819D01*
X12367619Y-20109819D02*
X12224762Y-20062200D01*
X12224762Y-20062200D02*
X12129524Y-19966961D01*
X12129524Y-19966961D02*
X12081905Y-19871723D01*
X12081905Y-19871723D02*
X12034286Y-19681247D01*
X12034286Y-19681247D02*
X12034286Y-19538390D01*
X12034286Y-19538390D02*
X12081905Y-19347914D01*
X12081905Y-19347914D02*
X12129524Y-19252676D01*
X12129524Y-19252676D02*
X12224762Y-19157438D01*
X12224762Y-19157438D02*
X12367619Y-19109819D01*
X12367619Y-19109819D02*
X12462857Y-19109819D01*
X12462857Y-19109819D02*
X12605714Y-19157438D01*
X12605714Y-19157438D02*
X12653333Y-19205057D01*
X13605714Y-20109819D02*
X13034286Y-20109819D01*
X13320000Y-20109819D02*
X13320000Y-19109819D01*
X13320000Y-19109819D02*
X13224762Y-19252676D01*
X13224762Y-19252676D02*
X13129524Y-19347914D01*
X13129524Y-19347914D02*
X13034286Y-19395533D01*
X16400074Y-14769065D02*
X16400074Y-15406486D01*
X16400074Y-15406486D02*
X16437570Y-15481476D01*
X16437570Y-15481476D02*
X16475065Y-15518972D01*
X16475065Y-15518972D02*
X16550056Y-15556467D01*
X16550056Y-15556467D02*
X16700037Y-15556467D01*
X16700037Y-15556467D02*
X16775028Y-15518972D01*
X16775028Y-15518972D02*
X16812523Y-15481476D01*
X16812523Y-15481476D02*
X16850018Y-15406486D01*
X16850018Y-15406486D02*
X16850018Y-14769065D01*
X17187476Y-14844056D02*
X17224971Y-14806560D01*
X17224971Y-14806560D02*
X17299962Y-14769065D01*
X17299962Y-14769065D02*
X17487439Y-14769065D01*
X17487439Y-14769065D02*
X17562429Y-14806560D01*
X17562429Y-14806560D02*
X17599925Y-14844056D01*
X17599925Y-14844056D02*
X17637420Y-14919046D01*
X17637420Y-14919046D02*
X17637420Y-14994037D01*
X17637420Y-14994037D02*
X17599925Y-15106523D01*
X17599925Y-15106523D02*
X17149981Y-15556467D01*
X17149981Y-15556467D02*
X17637420Y-15556467D01*
X15018800Y-15436619D02*
X15018800Y-15674714D01*
X14780705Y-15579476D02*
X15018800Y-15674714D01*
X15018800Y-15674714D02*
X15256895Y-15579476D01*
X14875943Y-15865190D02*
X15018800Y-15674714D01*
X15018800Y-15674714D02*
X15161657Y-15865190D01*
X19933333Y-9964580D02*
X19885714Y-10012200D01*
X19885714Y-10012200D02*
X19742857Y-10059819D01*
X19742857Y-10059819D02*
X19647619Y-10059819D01*
X19647619Y-10059819D02*
X19504762Y-10012200D01*
X19504762Y-10012200D02*
X19409524Y-9916961D01*
X19409524Y-9916961D02*
X19361905Y-9821723D01*
X19361905Y-9821723D02*
X19314286Y-9631247D01*
X19314286Y-9631247D02*
X19314286Y-9488390D01*
X19314286Y-9488390D02*
X19361905Y-9297914D01*
X19361905Y-9297914D02*
X19409524Y-9202676D01*
X19409524Y-9202676D02*
X19504762Y-9107438D01*
X19504762Y-9107438D02*
X19647619Y-9059819D01*
X19647619Y-9059819D02*
X19742857Y-9059819D01*
X19742857Y-9059819D02*
X19885714Y-9107438D01*
X19885714Y-9107438D02*
X19933333Y-9155057D01*
X20314286Y-9155057D02*
X20361905Y-9107438D01*
X20361905Y-9107438D02*
X20457143Y-9059819D01*
X20457143Y-9059819D02*
X20695238Y-9059819D01*
X20695238Y-9059819D02*
X20790476Y-9107438D01*
X20790476Y-9107438D02*
X20838095Y-9155057D01*
X20838095Y-9155057D02*
X20885714Y-9250295D01*
X20885714Y-9250295D02*
X20885714Y-9345533D01*
X20885714Y-9345533D02*
X20838095Y-9488390D01*
X20838095Y-9488390D02*
X20266667Y-10059819D01*
X20266667Y-10059819D02*
X20885714Y-10059819D01*
D12*
X51601667Y-9034318D02*
X51601667Y-9941461D01*
X51601667Y-9941461D02*
X51541190Y-10122889D01*
X51541190Y-10122889D02*
X51420238Y-10243842D01*
X51420238Y-10243842D02*
X51238809Y-10304318D01*
X51238809Y-10304318D02*
X51117857Y-10304318D01*
X52145952Y-9155270D02*
X52206428Y-9094794D01*
X52206428Y-9094794D02*
X52327381Y-9034318D01*
X52327381Y-9034318D02*
X52629762Y-9034318D01*
X52629762Y-9034318D02*
X52750714Y-9094794D01*
X52750714Y-9094794D02*
X52811190Y-9155270D01*
X52811190Y-9155270D02*
X52871667Y-9276222D01*
X52871667Y-9276222D02*
X52871667Y-9397175D01*
X52871667Y-9397175D02*
X52811190Y-9578603D01*
X52811190Y-9578603D02*
X52085476Y-10304318D01*
X52085476Y-10304318D02*
X52871667Y-10304318D01*
D11*
X38581095Y-18279319D02*
X38581095Y-19088842D01*
X38581095Y-19088842D02*
X38628714Y-19184080D01*
X38628714Y-19184080D02*
X38676333Y-19231700D01*
X38676333Y-19231700D02*
X38771571Y-19279319D01*
X38771571Y-19279319D02*
X38962047Y-19279319D01*
X38962047Y-19279319D02*
X39057285Y-19231700D01*
X39057285Y-19231700D02*
X39104904Y-19184080D01*
X39104904Y-19184080D02*
X39152523Y-19088842D01*
X39152523Y-19088842D02*
X39152523Y-18279319D01*
X40104904Y-18279319D02*
X39628714Y-18279319D01*
X39628714Y-18279319D02*
X39581095Y-18755509D01*
X39581095Y-18755509D02*
X39628714Y-18707890D01*
X39628714Y-18707890D02*
X39723952Y-18660271D01*
X39723952Y-18660271D02*
X39962047Y-18660271D01*
X39962047Y-18660271D02*
X40057285Y-18707890D01*
X40057285Y-18707890D02*
X40104904Y-18755509D01*
X40104904Y-18755509D02*
X40152523Y-18850747D01*
X40152523Y-18850747D02*
X40152523Y-19088842D01*
X40152523Y-19088842D02*
X40104904Y-19184080D01*
X40104904Y-19184080D02*
X40057285Y-19231700D01*
X40057285Y-19231700D02*
X39962047Y-19279319D01*
X39962047Y-19279319D02*
X39723952Y-19279319D01*
X39723952Y-19279319D02*
X39628714Y-19231700D01*
X39628714Y-19231700D02*
X39581095Y-19184080D01*
X38885809Y-20952152D02*
X38809619Y-20914057D01*
X38809619Y-20914057D02*
X38771524Y-20875961D01*
X38771524Y-20875961D02*
X38733428Y-20799771D01*
X38733428Y-20799771D02*
X38733428Y-20761676D01*
X38733428Y-20761676D02*
X38771524Y-20685485D01*
X38771524Y-20685485D02*
X38809619Y-20647390D01*
X38809619Y-20647390D02*
X38885809Y-20609295D01*
X38885809Y-20609295D02*
X39038190Y-20609295D01*
X39038190Y-20609295D02*
X39114381Y-20647390D01*
X39114381Y-20647390D02*
X39152476Y-20685485D01*
X39152476Y-20685485D02*
X39190571Y-20761676D01*
X39190571Y-20761676D02*
X39190571Y-20799771D01*
X39190571Y-20799771D02*
X39152476Y-20875961D01*
X39152476Y-20875961D02*
X39114381Y-20914057D01*
X39114381Y-20914057D02*
X39038190Y-20952152D01*
X39038190Y-20952152D02*
X38885809Y-20952152D01*
X38885809Y-20952152D02*
X38809619Y-20990247D01*
X38809619Y-20990247D02*
X38771524Y-21028342D01*
X38771524Y-21028342D02*
X38733428Y-21104533D01*
X38733428Y-21104533D02*
X38733428Y-21256914D01*
X38733428Y-21256914D02*
X38771524Y-21333104D01*
X38771524Y-21333104D02*
X38809619Y-21371200D01*
X38809619Y-21371200D02*
X38885809Y-21409295D01*
X38885809Y-21409295D02*
X39038190Y-21409295D01*
X39038190Y-21409295D02*
X39114381Y-21371200D01*
X39114381Y-21371200D02*
X39152476Y-21333104D01*
X39152476Y-21333104D02*
X39190571Y-21256914D01*
X39190571Y-21256914D02*
X39190571Y-21104533D01*
X39190571Y-21104533D02*
X39152476Y-21028342D01*
X39152476Y-21028342D02*
X39114381Y-20990247D01*
X39114381Y-20990247D02*
X39038190Y-20952152D01*
X35433333Y-15759580D02*
X35385714Y-15807200D01*
X35385714Y-15807200D02*
X35242857Y-15854819D01*
X35242857Y-15854819D02*
X35147619Y-15854819D01*
X35147619Y-15854819D02*
X35004762Y-15807200D01*
X35004762Y-15807200D02*
X34909524Y-15711961D01*
X34909524Y-15711961D02*
X34861905Y-15616723D01*
X34861905Y-15616723D02*
X34814286Y-15426247D01*
X34814286Y-15426247D02*
X34814286Y-15283390D01*
X34814286Y-15283390D02*
X34861905Y-15092914D01*
X34861905Y-15092914D02*
X34909524Y-14997676D01*
X34909524Y-14997676D02*
X35004762Y-14902438D01*
X35004762Y-14902438D02*
X35147619Y-14854819D01*
X35147619Y-14854819D02*
X35242857Y-14854819D01*
X35242857Y-14854819D02*
X35385714Y-14902438D01*
X35385714Y-14902438D02*
X35433333Y-14950057D01*
X35766667Y-14854819D02*
X36433333Y-14854819D01*
X36433333Y-14854819D02*
X36004762Y-15854819D01*
D12*
X2576667Y-19204318D02*
X2576667Y-20111461D01*
X2576667Y-20111461D02*
X2516190Y-20292889D01*
X2516190Y-20292889D02*
X2395238Y-20413842D01*
X2395238Y-20413842D02*
X2213809Y-20474318D01*
X2213809Y-20474318D02*
X2092857Y-20474318D01*
X3846667Y-20474318D02*
X3120952Y-20474318D01*
X3483809Y-20474318D02*
X3483809Y-19204318D01*
X3483809Y-19204318D02*
X3362857Y-19385746D01*
X3362857Y-19385746D02*
X3241905Y-19506699D01*
X3241905Y-19506699D02*
X3120952Y-19567175D01*
D11*
X40300074Y-10369065D02*
X40300074Y-11006486D01*
X40300074Y-11006486D02*
X40337570Y-11081476D01*
X40337570Y-11081476D02*
X40375065Y-11118972D01*
X40375065Y-11118972D02*
X40450056Y-11156467D01*
X40450056Y-11156467D02*
X40600037Y-11156467D01*
X40600037Y-11156467D02*
X40675028Y-11118972D01*
X40675028Y-11118972D02*
X40712523Y-11081476D01*
X40712523Y-11081476D02*
X40750018Y-11006486D01*
X40750018Y-11006486D02*
X40750018Y-10369065D01*
X41462429Y-10631532D02*
X41462429Y-11156467D01*
X41274953Y-10331570D02*
X41087476Y-10894000D01*
X41087476Y-10894000D02*
X41574915Y-10894000D01*
X41481200Y-13983019D02*
X41481200Y-14221114D01*
X41243105Y-14125876D02*
X41481200Y-14221114D01*
X41481200Y-14221114D02*
X41719295Y-14125876D01*
X41338343Y-14411590D02*
X41481200Y-14221114D01*
X41481200Y-14221114D02*
X41624057Y-14411590D01*
X42833333Y-22964580D02*
X42785714Y-23012200D01*
X42785714Y-23012200D02*
X42642857Y-23059819D01*
X42642857Y-23059819D02*
X42547619Y-23059819D01*
X42547619Y-23059819D02*
X42404762Y-23012200D01*
X42404762Y-23012200D02*
X42309524Y-22916961D01*
X42309524Y-22916961D02*
X42261905Y-22821723D01*
X42261905Y-22821723D02*
X42214286Y-22631247D01*
X42214286Y-22631247D02*
X42214286Y-22488390D01*
X42214286Y-22488390D02*
X42261905Y-22297914D01*
X42261905Y-22297914D02*
X42309524Y-22202676D01*
X42309524Y-22202676D02*
X42404762Y-22107438D01*
X42404762Y-22107438D02*
X42547619Y-22059819D01*
X42547619Y-22059819D02*
X42642857Y-22059819D01*
X42642857Y-22059819D02*
X42785714Y-22107438D01*
X42785714Y-22107438D02*
X42833333Y-22155057D01*
X43738095Y-22059819D02*
X43261905Y-22059819D01*
X43261905Y-22059819D02*
X43214286Y-22536009D01*
X43214286Y-22536009D02*
X43261905Y-22488390D01*
X43261905Y-22488390D02*
X43357143Y-22440771D01*
X43357143Y-22440771D02*
X43595238Y-22440771D01*
X43595238Y-22440771D02*
X43690476Y-22488390D01*
X43690476Y-22488390D02*
X43738095Y-22536009D01*
X43738095Y-22536009D02*
X43785714Y-22631247D01*
X43785714Y-22631247D02*
X43785714Y-22869342D01*
X43785714Y-22869342D02*
X43738095Y-22964580D01*
X43738095Y-22964580D02*
X43690476Y-23012200D01*
X43690476Y-23012200D02*
X43595238Y-23059819D01*
X43595238Y-23059819D02*
X43357143Y-23059819D01*
X43357143Y-23059819D02*
X43261905Y-23012200D01*
X43261905Y-23012200D02*
X43214286Y-22964580D01*
X20333333Y-17809819D02*
X20000000Y-17333628D01*
X19761905Y-17809819D02*
X19761905Y-16809819D01*
X19761905Y-16809819D02*
X20142857Y-16809819D01*
X20142857Y-16809819D02*
X20238095Y-16857438D01*
X20238095Y-16857438D02*
X20285714Y-16905057D01*
X20285714Y-16905057D02*
X20333333Y-17000295D01*
X20333333Y-17000295D02*
X20333333Y-17143152D01*
X20333333Y-17143152D02*
X20285714Y-17238390D01*
X20285714Y-17238390D02*
X20238095Y-17286009D01*
X20238095Y-17286009D02*
X20142857Y-17333628D01*
X20142857Y-17333628D02*
X19761905Y-17333628D01*
X20666667Y-16809819D02*
X21285714Y-16809819D01*
X21285714Y-16809819D02*
X20952381Y-17190771D01*
X20952381Y-17190771D02*
X21095238Y-17190771D01*
X21095238Y-17190771D02*
X21190476Y-17238390D01*
X21190476Y-17238390D02*
X21238095Y-17286009D01*
X21238095Y-17286009D02*
X21285714Y-17381247D01*
X21285714Y-17381247D02*
X21285714Y-17619342D01*
X21285714Y-17619342D02*
X21238095Y-17714580D01*
X21238095Y-17714580D02*
X21190476Y-17762200D01*
X21190476Y-17762200D02*
X21095238Y-17809819D01*
X21095238Y-17809819D02*
X20809524Y-17809819D01*
X20809524Y-17809819D02*
X20714286Y-17762200D01*
X20714286Y-17762200D02*
X20666667Y-17714580D01*
D12*
X30432380Y-12459318D02*
X30432380Y-13487413D01*
X30432380Y-13487413D02*
X30492857Y-13608365D01*
X30492857Y-13608365D02*
X30553333Y-13668842D01*
X30553333Y-13668842D02*
X30674285Y-13729318D01*
X30674285Y-13729318D02*
X30916190Y-13729318D01*
X30916190Y-13729318D02*
X31037142Y-13668842D01*
X31037142Y-13668842D02*
X31097619Y-13608365D01*
X31097619Y-13608365D02*
X31158095Y-13487413D01*
X31158095Y-13487413D02*
X31158095Y-12459318D01*
X31641904Y-12459318D02*
X32428095Y-12459318D01*
X32428095Y-12459318D02*
X32004761Y-12943127D01*
X32004761Y-12943127D02*
X32186190Y-12943127D01*
X32186190Y-12943127D02*
X32307142Y-13003603D01*
X32307142Y-13003603D02*
X32367618Y-13064080D01*
X32367618Y-13064080D02*
X32428095Y-13185032D01*
X32428095Y-13185032D02*
X32428095Y-13487413D01*
X32428095Y-13487413D02*
X32367618Y-13608365D01*
X32367618Y-13608365D02*
X32307142Y-13668842D01*
X32307142Y-13668842D02*
X32186190Y-13729318D01*
X32186190Y-13729318D02*
X31823333Y-13729318D01*
X31823333Y-13729318D02*
X31702380Y-13668842D01*
X31702380Y-13668842D02*
X31641904Y-13608365D01*
D11*
X31933333Y-23314580D02*
X31885714Y-23362200D01*
X31885714Y-23362200D02*
X31742857Y-23409819D01*
X31742857Y-23409819D02*
X31647619Y-23409819D01*
X31647619Y-23409819D02*
X31504762Y-23362200D01*
X31504762Y-23362200D02*
X31409524Y-23266961D01*
X31409524Y-23266961D02*
X31361905Y-23171723D01*
X31361905Y-23171723D02*
X31314286Y-22981247D01*
X31314286Y-22981247D02*
X31314286Y-22838390D01*
X31314286Y-22838390D02*
X31361905Y-22647914D01*
X31361905Y-22647914D02*
X31409524Y-22552676D01*
X31409524Y-22552676D02*
X31504762Y-22457438D01*
X31504762Y-22457438D02*
X31647619Y-22409819D01*
X31647619Y-22409819D02*
X31742857Y-22409819D01*
X31742857Y-22409819D02*
X31885714Y-22457438D01*
X31885714Y-22457438D02*
X31933333Y-22505057D01*
X32790476Y-22743152D02*
X32790476Y-23409819D01*
X32552381Y-22362200D02*
X32314286Y-23076485D01*
X32314286Y-23076485D02*
X32933333Y-23076485D01*
X22933333Y-14109819D02*
X22600000Y-13633628D01*
X22361905Y-14109819D02*
X22361905Y-13109819D01*
X22361905Y-13109819D02*
X22742857Y-13109819D01*
X22742857Y-13109819D02*
X22838095Y-13157438D01*
X22838095Y-13157438D02*
X22885714Y-13205057D01*
X22885714Y-13205057D02*
X22933333Y-13300295D01*
X22933333Y-13300295D02*
X22933333Y-13443152D01*
X22933333Y-13443152D02*
X22885714Y-13538390D01*
X22885714Y-13538390D02*
X22838095Y-13586009D01*
X22838095Y-13586009D02*
X22742857Y-13633628D01*
X22742857Y-13633628D02*
X22361905Y-13633628D01*
X23885714Y-14109819D02*
X23314286Y-14109819D01*
X23600000Y-14109819D02*
X23600000Y-13109819D01*
X23600000Y-13109819D02*
X23504762Y-13252676D01*
X23504762Y-13252676D02*
X23409524Y-13347914D01*
X23409524Y-13347914D02*
X23314286Y-13395533D01*
X44233333Y-11814580D02*
X44185714Y-11862200D01*
X44185714Y-11862200D02*
X44042857Y-11909819D01*
X44042857Y-11909819D02*
X43947619Y-11909819D01*
X43947619Y-11909819D02*
X43804762Y-11862200D01*
X43804762Y-11862200D02*
X43709524Y-11766961D01*
X43709524Y-11766961D02*
X43661905Y-11671723D01*
X43661905Y-11671723D02*
X43614286Y-11481247D01*
X43614286Y-11481247D02*
X43614286Y-11338390D01*
X43614286Y-11338390D02*
X43661905Y-11147914D01*
X43661905Y-11147914D02*
X43709524Y-11052676D01*
X43709524Y-11052676D02*
X43804762Y-10957438D01*
X43804762Y-10957438D02*
X43947619Y-10909819D01*
X43947619Y-10909819D02*
X44042857Y-10909819D01*
X44042857Y-10909819D02*
X44185714Y-10957438D01*
X44185714Y-10957438D02*
X44233333Y-11005057D01*
X44566667Y-10909819D02*
X45185714Y-10909819D01*
X45185714Y-10909819D02*
X44852381Y-11290771D01*
X44852381Y-11290771D02*
X44995238Y-11290771D01*
X44995238Y-11290771D02*
X45090476Y-11338390D01*
X45090476Y-11338390D02*
X45138095Y-11386009D01*
X45138095Y-11386009D02*
X45185714Y-11481247D01*
X45185714Y-11481247D02*
X45185714Y-11719342D01*
X45185714Y-11719342D02*
X45138095Y-11814580D01*
X45138095Y-11814580D02*
X45090476Y-11862200D01*
X45090476Y-11862200D02*
X44995238Y-11909819D01*
X44995238Y-11909819D02*
X44709524Y-11909819D01*
X44709524Y-11909819D02*
X44614286Y-11862200D01*
X44614286Y-11862200D02*
X44566667Y-11814580D01*
X31133333Y-17109819D02*
X30800000Y-16633628D01*
X30561905Y-17109819D02*
X30561905Y-16109819D01*
X30561905Y-16109819D02*
X30942857Y-16109819D01*
X30942857Y-16109819D02*
X31038095Y-16157438D01*
X31038095Y-16157438D02*
X31085714Y-16205057D01*
X31085714Y-16205057D02*
X31133333Y-16300295D01*
X31133333Y-16300295D02*
X31133333Y-16443152D01*
X31133333Y-16443152D02*
X31085714Y-16538390D01*
X31085714Y-16538390D02*
X31038095Y-16586009D01*
X31038095Y-16586009D02*
X30942857Y-16633628D01*
X30942857Y-16633628D02*
X30561905Y-16633628D01*
X31990476Y-16443152D02*
X31990476Y-17109819D01*
X31752381Y-16062200D02*
X31514286Y-16776485D01*
X31514286Y-16776485D02*
X32133333Y-16776485D01*
D13*
%TO.C,U1*%
X16619000Y-13229800D02*
X17381000Y-13229800D01*
X17381000Y-10080200D02*
X16619000Y-10080200D01*
%TO.C,U2*%
X16619000Y-19029800D02*
X17381000Y-19029800D01*
X17381000Y-15880200D02*
X16619000Y-15880200D01*
D14*
%TO.C,J2*%
X49375000Y-14055000D02*
X49375000Y-14055000D01*
X49475000Y-14055000D02*
X49475000Y-14055000D01*
D15*
X51025000Y-12555000D02*
X52075000Y-12555000D01*
X51025000Y-13555000D02*
X51025000Y-12555000D01*
X51025000Y-17555000D02*
X51025000Y-18555000D01*
X51025000Y-18555000D02*
X52075000Y-18555000D01*
X53925000Y-17555000D02*
X53925000Y-13555000D01*
D14*
X49375000Y-14055000D02*
G75*
G02*
X49475000Y-14055000I50000J0D01*
G01*
X49475000Y-14055000D02*
G75*
G02*
X49375000Y-14055000I-50000J0D01*
G01*
D16*
%TO.C,U5*%
X36396600Y-19827800D02*
X36396600Y-24552200D01*
X36396600Y-24552200D02*
X40003400Y-24552200D01*
X40003400Y-19827800D02*
X36396600Y-19827800D01*
X40003400Y-24552200D02*
X40003400Y-19827800D01*
D17*
X37311000Y-20386600D02*
G75*
G02*
X36599800Y-20386600I-355600J0D01*
G01*
X36599800Y-20386600D02*
G75*
G02*
X37311000Y-20386600I355600J0D01*
G01*
D15*
%TO.C,J1*%
X3250000Y-12055000D02*
X3250000Y-15255000D01*
X6150000Y-11155000D02*
X5063000Y-11155000D01*
X6150000Y-12055000D02*
X6150000Y-11155000D01*
X6150000Y-15255000D02*
X6150000Y-16155000D01*
X6150000Y-16155000D02*
X5063000Y-16155000D01*
D14*
X7600000Y-14655000D02*
X7600000Y-14655000D01*
X7700000Y-14655000D02*
X7700000Y-14655000D01*
X7600000Y-14655000D02*
G75*
G02*
X7700000Y-14655000I50000J0D01*
G01*
X7700000Y-14655000D02*
G75*
G02*
X7600000Y-14655000I-50000J0D01*
G01*
D13*
%TO.C,U4*%
X39119000Y-14629800D02*
X39881000Y-14629800D01*
X39881000Y-11480200D02*
X39119000Y-11480200D01*
D15*
%TO.C,U3*%
X28475000Y-11605000D02*
X29900000Y-11605000D01*
%TD*%
M02*
