%TF.GenerationSoftware,KiCad,Pcbnew,8.0.5*%
%TF.CreationDate,2024-10-18T13:20:14+03:00*%
%TF.ProjectId,ghghgh,67686768-6768-42e6-9b69-6361645f7063,rev?*%
%TF.SameCoordinates,Original*%
%TF.FileFunction,Copper,L2,Bot*%
%TF.FilePolarity,Positive*%
%FSLAX46Y46*%
G04 Gerber Fmt 4.6, Leading zero omitted, Abs format (unit mm)*
G04 Created by KiCad (PCBNEW 8.0.5) date 2024-10-18 13:20:14*
%MOMM*%
%LPD*%
G01*
G04 APERTURE LIST*
%TA.AperFunction,ComponentPad*%
%ADD10C,0.800000*%
%TD*%
%TA.AperFunction,ComponentPad*%
%ADD11C,6.000000*%
%TD*%
%TA.AperFunction,ViaPad*%
%ADD12C,0.600000*%
%TD*%
%TA.AperFunction,Conductor*%
%ADD13C,0.200000*%
%TD*%
%TA.AperFunction,Conductor*%
%ADD14C,0.500000*%
%TD*%
G04 APERTURE END LIST*
D10*
%TO.P,J3,1,Pin_1*%
%TO.N,GND*%
X52750000Y-5000000D03*
X53409010Y-3409010D03*
X53409010Y-6590990D03*
X55000000Y-2750000D03*
D11*
X55000000Y-5000000D03*
D10*
X55000000Y-7250000D03*
X56590990Y-3409010D03*
X56590990Y-6590990D03*
X57250000Y-5000000D03*
%TD*%
%TO.P,J4,1,Pin_1*%
%TO.N,GND*%
X52750000Y-25000000D03*
X53409010Y-23409010D03*
X53409010Y-26590990D03*
X55000000Y-22750000D03*
D11*
X55000000Y-25000000D03*
D10*
X55000000Y-27250000D03*
X56590990Y-23409010D03*
X56590990Y-26590990D03*
X57250000Y-25000000D03*
%TD*%
%TO.P,J6,1,Pin_1*%
%TO.N,GND*%
X2750000Y-5000000D03*
X3409010Y-3409010D03*
X3409010Y-6590990D03*
X5000000Y-2750000D03*
D11*
X5000000Y-5000000D03*
D10*
X5000000Y-7250000D03*
X6590990Y-3409010D03*
X6590990Y-6590990D03*
X7250000Y-5000000D03*
%TD*%
%TO.P,J5,1,Pin_1*%
%TO.N,GND*%
X2750000Y-25000000D03*
X3409010Y-23409010D03*
X3409010Y-26590990D03*
X5000000Y-22750000D03*
D11*
X5000000Y-25000000D03*
D10*
X5000000Y-27250000D03*
X6590990Y-23409010D03*
X6590990Y-26590990D03*
X7250000Y-25000000D03*
%TD*%
D12*
%TO.N,GND*%
X37000000Y-13100000D03*
X45800000Y-20900000D03*
X10800000Y-17500000D03*
X30800000Y-24300000D03*
X45000000Y-13000000D03*
X21900000Y-10600000D03*
X43600000Y-20700000D03*
%TO.N,-5V*%
X42000000Y-11855000D03*
X44500000Y-24655000D03*
X40800000Y-25655000D03*
X13200000Y-16255000D03*
%TO.N,+5V*%
X37300000Y-16255000D03*
X19700000Y-11955000D03*
X39400000Y-16655000D03*
%TO.N,Net-(U2-OUT)*%
X25300000Y-15255000D03*
X23500000Y-15255000D03*
%TO.N,Net-(U4-IN+)*%
X35400000Y-13455000D03*
X35400000Y-11455000D03*
%TD*%
D13*
%TO.N,GND*%
X43600000Y-20700000D02*
X45600000Y-20700000D01*
X45600000Y-20700000D02*
X45800000Y-20900000D01*
X9200000Y-19200000D02*
X9200000Y-19100000D01*
D14*
%TO.N,-5V*%
X44500000Y-24655000D02*
X44500000Y-25255000D01*
X44100000Y-25655000D02*
X42200000Y-25655000D01*
X19300000Y-25655000D02*
X14700000Y-21055000D01*
X42000000Y-22155000D02*
X42000000Y-11855000D01*
X44500000Y-24655000D02*
X42000000Y-22155000D01*
X14700000Y-21055000D02*
X13200000Y-19555000D01*
X42200000Y-25655000D02*
X19300000Y-25655000D01*
X13200000Y-19555000D02*
X13200000Y-16255000D01*
X42200000Y-25655000D02*
X40800000Y-25655000D01*
X44500000Y-25255000D02*
X44100000Y-25655000D01*
%TO.N,+5V*%
X39400000Y-16655000D02*
X37700000Y-16655000D01*
X37700000Y-16655000D02*
X23839339Y-16655000D01*
X19700000Y-12515661D02*
X19700000Y-11955000D01*
X37700000Y-16655000D02*
X37300000Y-16255000D01*
X23839339Y-16655000D02*
X19700000Y-12515661D01*
D13*
%TO.N,Net-(U2-OUT)*%
X23500000Y-15255000D02*
X25300000Y-15255000D01*
%TO.N,Net-(U4-IN+)*%
X35400000Y-13455000D02*
X35400000Y-11455000D01*
%TD*%
%TA.AperFunction,Conductor*%
%TO.N,GND*%
G36*
X59943039Y-19685D02*
G01*
X59988794Y-72489D01*
X60000000Y-124000D01*
X60000000Y-29876000D01*
X59980315Y-29943039D01*
X59927511Y-29988794D01*
X59876000Y-30000000D01*
X124000Y-30000000D01*
X56961Y-29980315D01*
X11206Y-29927511D01*
X0Y-29876000D01*
X0Y-24999999D01*
X1495197Y-24999999D01*
X1495197Y-25000000D01*
X1514397Y-25366353D01*
X1571784Y-25728684D01*
X1571784Y-25728686D01*
X1666736Y-26083051D01*
X1798204Y-26425535D01*
X1964754Y-26752406D01*
X2164553Y-27060070D01*
X2353297Y-27293148D01*
X3777340Y-25869105D01*
X3855864Y-25977184D01*
X4022816Y-26144136D01*
X4130893Y-26222658D01*
X2706850Y-27646701D01*
X2939929Y-27835446D01*
X3247593Y-28035245D01*
X3574464Y-28201795D01*
X3916948Y-28333263D01*
X4271314Y-28428215D01*
X4633646Y-28485602D01*
X4999999Y-28504803D01*
X5000001Y-28504803D01*
X5366353Y-28485602D01*
X5728684Y-28428215D01*
X5728686Y-28428215D01*
X6083051Y-28333263D01*
X6425535Y-28201795D01*
X6752406Y-28035245D01*
X7060064Y-27835450D01*
X7293148Y-27646701D01*
X5869106Y-26222659D01*
X5977184Y-26144136D01*
X6144136Y-25977184D01*
X6222659Y-25869106D01*
X7646701Y-27293148D01*
X7835450Y-27060064D01*
X8035245Y-26752406D01*
X8201795Y-26425535D01*
X8333263Y-26083051D01*
X8428215Y-25728686D01*
X8428215Y-25728684D01*
X8485602Y-25366353D01*
X8504803Y-25000000D01*
X8504803Y-24999999D01*
X8485602Y-24633646D01*
X8428215Y-24271315D01*
X8428215Y-24271313D01*
X8333263Y-23916948D01*
X8201795Y-23574464D01*
X8035245Y-23247594D01*
X7835446Y-22939929D01*
X7646701Y-22706850D01*
X6222658Y-24130893D01*
X6144136Y-24022816D01*
X5977184Y-23855864D01*
X5869106Y-23777340D01*
X7293149Y-22353297D01*
X7060070Y-22164553D01*
X6752406Y-21964754D01*
X6425535Y-21798204D01*
X6083051Y-21666736D01*
X5728685Y-21571784D01*
X5366353Y-21514397D01*
X5000001Y-21495197D01*
X4999999Y-21495197D01*
X4633646Y-21514397D01*
X4271315Y-21571784D01*
X4271313Y-21571784D01*
X3916948Y-21666736D01*
X3574464Y-21798204D01*
X3247594Y-21964754D01*
X2939924Y-22164557D01*
X2706849Y-22353296D01*
X2706849Y-22353297D01*
X4130893Y-23777341D01*
X4022816Y-23855864D01*
X3855864Y-24022816D01*
X3777341Y-24130893D01*
X2353297Y-22706849D01*
X2353296Y-22706849D01*
X2164557Y-22939924D01*
X1964754Y-23247594D01*
X1798204Y-23574464D01*
X1666736Y-23916948D01*
X1571784Y-24271313D01*
X1571784Y-24271315D01*
X1514397Y-24633646D01*
X1495197Y-24999999D01*
X0Y-24999999D01*
X0Y-16254996D01*
X12394435Y-16254996D01*
X12394435Y-16255000D01*
X12396448Y-16272869D01*
X12397242Y-16279918D01*
X12397801Y-16301181D01*
X12397298Y-16309606D01*
X12445353Y-16886268D01*
X12448667Y-16914715D01*
X12449500Y-16929062D01*
X12449500Y-19628918D01*
X12449500Y-19628920D01*
X12449499Y-19628920D01*
X12478340Y-19773907D01*
X12478343Y-19773917D01*
X12534914Y-19910492D01*
X12567812Y-19959727D01*
X12567813Y-19959730D01*
X12617046Y-20033414D01*
X12617052Y-20033421D01*
X14112707Y-21529074D01*
X14112728Y-21529097D01*
X17583632Y-24999999D01*
X18717048Y-26133415D01*
X18717049Y-26133416D01*
X18821583Y-26237950D01*
X18821585Y-26237952D01*
X18944498Y-26320080D01*
X18944511Y-26320087D01*
X19081082Y-26376656D01*
X19081087Y-26376658D01*
X19081091Y-26376658D01*
X19081092Y-26376659D01*
X19226079Y-26405500D01*
X19226082Y-26405500D01*
X40500028Y-26405500D01*
X40540983Y-26412458D01*
X40620745Y-26440368D01*
X40620750Y-26440369D01*
X40799997Y-26460565D01*
X40799999Y-26460565D01*
X40799999Y-26460564D01*
X40800000Y-26460565D01*
X40824919Y-26457756D01*
X40846193Y-26457198D01*
X40854608Y-26457701D01*
X41431251Y-26409648D01*
X41431261Y-26409646D01*
X41431271Y-26409646D01*
X41459717Y-26406333D01*
X41474063Y-26405500D01*
X44173920Y-26405500D01*
X44271462Y-26386096D01*
X44318913Y-26376658D01*
X44455495Y-26320084D01*
X44508277Y-26284816D01*
X44578416Y-26237952D01*
X45082951Y-25733416D01*
X45165084Y-25610495D01*
X45221658Y-25473913D01*
X45250500Y-25328918D01*
X45250500Y-25318362D01*
X45253651Y-25290586D01*
X45254648Y-25286251D01*
X45278502Y-24999999D01*
X51495197Y-24999999D01*
X51495197Y-25000000D01*
X51514397Y-25366353D01*
X51571784Y-25728684D01*
X51571784Y-25728686D01*
X51666736Y-26083051D01*
X51798204Y-26425535D01*
X51964754Y-26752406D01*
X52164553Y-27060070D01*
X52353297Y-27293148D01*
X53777340Y-25869105D01*
X53855864Y-25977184D01*
X54022816Y-26144136D01*
X54130893Y-26222658D01*
X52706850Y-27646701D01*
X52939929Y-27835446D01*
X53247593Y-28035245D01*
X53574464Y-28201795D01*
X53916948Y-28333263D01*
X54271314Y-28428215D01*
X54633646Y-28485602D01*
X54999999Y-28504803D01*
X55000001Y-28504803D01*
X55366353Y-28485602D01*
X55728684Y-28428215D01*
X55728686Y-28428215D01*
X56083051Y-28333263D01*
X56425535Y-28201795D01*
X56752406Y-28035245D01*
X57060064Y-27835450D01*
X57293148Y-27646701D01*
X55869106Y-26222659D01*
X55977184Y-26144136D01*
X56144136Y-25977184D01*
X56222659Y-25869106D01*
X57646701Y-27293148D01*
X57835450Y-27060064D01*
X58035245Y-26752406D01*
X58201795Y-26425535D01*
X58333263Y-26083051D01*
X58428215Y-25728686D01*
X58428215Y-25728684D01*
X58485602Y-25366353D01*
X58504803Y-25000000D01*
X58504803Y-24999999D01*
X58485602Y-24633646D01*
X58428215Y-24271315D01*
X58428215Y-24271313D01*
X58333263Y-23916948D01*
X58201795Y-23574464D01*
X58035245Y-23247594D01*
X57835446Y-22939929D01*
X57646701Y-22706850D01*
X56222658Y-24130893D01*
X56144136Y-24022816D01*
X55977184Y-23855864D01*
X55869106Y-23777340D01*
X57293149Y-22353297D01*
X57060070Y-22164553D01*
X56752406Y-21964754D01*
X56425535Y-21798204D01*
X56083051Y-21666736D01*
X55728685Y-21571784D01*
X55366353Y-21514397D01*
X55000001Y-21495197D01*
X54999999Y-21495197D01*
X54633646Y-21514397D01*
X54271315Y-21571784D01*
X54271313Y-21571784D01*
X53916948Y-21666736D01*
X53574464Y-21798204D01*
X53247594Y-21964754D01*
X52939924Y-22164557D01*
X52706849Y-22353296D01*
X52706849Y-22353297D01*
X54130893Y-23777341D01*
X54022816Y-23855864D01*
X53855864Y-24022816D01*
X53777341Y-24130893D01*
X52353297Y-22706849D01*
X52353296Y-22706849D01*
X52164557Y-22939924D01*
X51964754Y-23247594D01*
X51798204Y-23574464D01*
X51666736Y-23916948D01*
X51571784Y-24271313D01*
X51571784Y-24271315D01*
X51514397Y-24633646D01*
X51495197Y-24999999D01*
X45278502Y-24999999D01*
X45302701Y-24709608D01*
X45303983Y-24689281D01*
X45304023Y-24688348D01*
X45303821Y-24681734D01*
X45304544Y-24664058D01*
X45305565Y-24655000D01*
X45302625Y-24628917D01*
X45301906Y-24618834D01*
X45301770Y-24614359D01*
X45301769Y-24614355D01*
X45301769Y-24614349D01*
X45301199Y-24610263D01*
X45299416Y-24600432D01*
X45285368Y-24475745D01*
X45225789Y-24305478D01*
X45129816Y-24152738D01*
X45056107Y-24079029D01*
X45051036Y-24073646D01*
X45028983Y-24048791D01*
X45012679Y-24034996D01*
X45005101Y-24028023D01*
X45002262Y-24025184D01*
X45002259Y-24025182D01*
X45002258Y-24025181D01*
X44997800Y-24021626D01*
X44990987Y-24016641D01*
X44587246Y-23675015D01*
X44564787Y-23657242D01*
X44554055Y-23647687D01*
X42786819Y-21880451D01*
X42753334Y-21819128D01*
X42750500Y-21792770D01*
X42750500Y-12518362D01*
X42753651Y-12490586D01*
X42754648Y-12486251D01*
X42802701Y-11909608D01*
X42803983Y-11889281D01*
X42804023Y-11888348D01*
X42803821Y-11881734D01*
X42804544Y-11864058D01*
X42805565Y-11855000D01*
X42802625Y-11828917D01*
X42801906Y-11818834D01*
X42801770Y-11814359D01*
X42801769Y-11814355D01*
X42801769Y-11814349D01*
X42801199Y-11810263D01*
X42799416Y-11800432D01*
X42787936Y-11698539D01*
X42785369Y-11675750D01*
X42785368Y-11675745D01*
X42770847Y-11634247D01*
X42725789Y-11505478D01*
X42629816Y-11352738D01*
X42502262Y-11225184D01*
X42413852Y-11169632D01*
X42349523Y-11129211D01*
X42179254Y-11069631D01*
X42179249Y-11069630D01*
X42000004Y-11049435D01*
X41999996Y-11049435D01*
X41820750Y-11069630D01*
X41820745Y-11069631D01*
X41650476Y-11129211D01*
X41497737Y-11225184D01*
X41370184Y-11352737D01*
X41274211Y-11505476D01*
X41214631Y-11675745D01*
X41214630Y-11675750D01*
X41194435Y-11854996D01*
X41194435Y-11855000D01*
X41196448Y-11872869D01*
X41197242Y-11879918D01*
X41197801Y-11901181D01*
X41197299Y-11909598D01*
X41197298Y-11909609D01*
X41210611Y-12069365D01*
X41245353Y-12486268D01*
X41248667Y-12514715D01*
X41249500Y-12529062D01*
X41249500Y-22228918D01*
X41249500Y-22228920D01*
X41249499Y-22228920D01*
X41278340Y-22373907D01*
X41278343Y-22373917D01*
X41334914Y-22510492D01*
X41367812Y-22559727D01*
X41367813Y-22559730D01*
X41417046Y-22633414D01*
X41417052Y-22633421D01*
X43476451Y-24692819D01*
X43509936Y-24754142D01*
X43504952Y-24823834D01*
X43463080Y-24879767D01*
X43397616Y-24904184D01*
X43388770Y-24904500D01*
X41463364Y-24904500D01*
X41435591Y-24901349D01*
X41431252Y-24900352D01*
X40854598Y-24852297D01*
X40854593Y-24852296D01*
X40854561Y-24852294D01*
X40833986Y-24851002D01*
X40833072Y-24850964D01*
X40833066Y-24850964D01*
X40833061Y-24850964D01*
X40833059Y-24850964D01*
X40826609Y-24851161D01*
X40808931Y-24850441D01*
X40800000Y-24849435D01*
X40799999Y-24849435D01*
X40799998Y-24849435D01*
X40799997Y-24849435D01*
X40773945Y-24852369D01*
X40763892Y-24853089D01*
X40759364Y-24853228D01*
X40755257Y-24853801D01*
X40745426Y-24855583D01*
X40620748Y-24869630D01*
X40540981Y-24897542D01*
X40500028Y-24904500D01*
X19662229Y-24904500D01*
X19595190Y-24884815D01*
X19574548Y-24868181D01*
X15174097Y-20467728D01*
X15174074Y-20467707D01*
X13986819Y-19280451D01*
X13953334Y-19219128D01*
X13950500Y-19192770D01*
X13950500Y-16918362D01*
X13953651Y-16890586D01*
X13954648Y-16886251D01*
X14002701Y-16309608D01*
X14003983Y-16289281D01*
X14004023Y-16288348D01*
X14003821Y-16281734D01*
X14004544Y-16264058D01*
X14005565Y-16255000D01*
X14002625Y-16228917D01*
X14001906Y-16218834D01*
X14001770Y-16214359D01*
X14001769Y-16214355D01*
X14001769Y-16214349D01*
X14001199Y-16210263D01*
X13999416Y-16200432D01*
X13985368Y-16075745D01*
X13925789Y-15905478D01*
X13925174Y-15904500D01*
X13879627Y-15832011D01*
X13829816Y-15752738D01*
X13702262Y-15625184D01*
X13669379Y-15604522D01*
X13549523Y-15529211D01*
X13379254Y-15469631D01*
X13379249Y-15469630D01*
X13200004Y-15449435D01*
X13199996Y-15449435D01*
X13020750Y-15469630D01*
X13020745Y-15469631D01*
X12850476Y-15529211D01*
X12697737Y-15625184D01*
X12570184Y-15752737D01*
X12474211Y-15905476D01*
X12414631Y-16075745D01*
X12414630Y-16075750D01*
X12394435Y-16254996D01*
X0Y-16254996D01*
X0Y-11954996D01*
X18894435Y-11954996D01*
X18894435Y-11955004D01*
X18906213Y-12059546D01*
X18906804Y-12066713D01*
X18907241Y-12070237D01*
X18907892Y-12074447D01*
X18914631Y-12134252D01*
X18924331Y-12161975D01*
X18928942Y-12178915D01*
X18947153Y-12271175D01*
X18949500Y-12295188D01*
X18949500Y-12589579D01*
X18949500Y-12589581D01*
X18949499Y-12589581D01*
X18978340Y-12734568D01*
X18978343Y-12734578D01*
X19034913Y-12871151D01*
X19034914Y-12871153D01*
X19064691Y-12915717D01*
X19064692Y-12915719D01*
X19117043Y-12994071D01*
X19117047Y-12994076D01*
X23360919Y-17237948D01*
X23360923Y-17237951D01*
X23483837Y-17320080D01*
X23483850Y-17320087D01*
X23620421Y-17376656D01*
X23620426Y-17376658D01*
X23620430Y-17376658D01*
X23620431Y-17376659D01*
X23765418Y-17405500D01*
X23765421Y-17405500D01*
X23913256Y-17405500D01*
X37626082Y-17405500D01*
X37773917Y-17405500D01*
X38736637Y-17405500D01*
X38764409Y-17408650D01*
X38768749Y-17409648D01*
X39345391Y-17457701D01*
X39365718Y-17458983D01*
X39366651Y-17459023D01*
X39366652Y-17459022D01*
X39366653Y-17459023D01*
X39367297Y-17459003D01*
X39373264Y-17458821D01*
X39390927Y-17459542D01*
X39400000Y-17460565D01*
X39426085Y-17457625D01*
X39436164Y-17456906D01*
X39440640Y-17456770D01*
X39440648Y-17456767D01*
X39444758Y-17456195D01*
X39454572Y-17454415D01*
X39514614Y-17447650D01*
X39579249Y-17440369D01*
X39579252Y-17440368D01*
X39579255Y-17440368D01*
X39749522Y-17380789D01*
X39902262Y-17284816D01*
X40029816Y-17157262D01*
X40125789Y-17004522D01*
X40185368Y-16834255D01*
X40205565Y-16655000D01*
X40185368Y-16475745D01*
X40125789Y-16305478D01*
X40115025Y-16288348D01*
X40064989Y-16208716D01*
X40029816Y-16152738D01*
X39902262Y-16025184D01*
X39749523Y-15929211D01*
X39579254Y-15869631D01*
X39579249Y-15869630D01*
X39400004Y-15849435D01*
X39400002Y-15849435D01*
X39400000Y-15849435D01*
X39385285Y-15851092D01*
X39375080Y-15852242D01*
X39353817Y-15852800D01*
X39351190Y-15852644D01*
X39345393Y-15852298D01*
X39345392Y-15852298D01*
X39345391Y-15852298D01*
X39240545Y-15861035D01*
X38768727Y-15900353D01*
X38740283Y-15903667D01*
X38725937Y-15904500D01*
X38093707Y-15904500D01*
X38026668Y-15884815D01*
X37988713Y-15846472D01*
X37964367Y-15807726D01*
X37929816Y-15752738D01*
X37802262Y-15625184D01*
X37769379Y-15604522D01*
X37649523Y-15529211D01*
X37479254Y-15469631D01*
X37479249Y-15469630D01*
X37300004Y-15449435D01*
X37299996Y-15449435D01*
X37120750Y-15469630D01*
X37120745Y-15469631D01*
X36950476Y-15529211D01*
X36797737Y-15625184D01*
X36670184Y-15752737D01*
X36611287Y-15846472D01*
X36558952Y-15892763D01*
X36506293Y-15904500D01*
X26061661Y-15904500D01*
X25994622Y-15884815D01*
X25948867Y-15832011D01*
X25938923Y-15762853D01*
X25956668Y-15714527D01*
X26025788Y-15604524D01*
X26072989Y-15469631D01*
X26085368Y-15434255D01*
X26105565Y-15255000D01*
X26085368Y-15075745D01*
X26025789Y-14905478D01*
X25929816Y-14752738D01*
X25802262Y-14625184D01*
X25768879Y-14604208D01*
X25649523Y-14529211D01*
X25479254Y-14469631D01*
X25479249Y-14469630D01*
X25300004Y-14449435D01*
X25299996Y-14449435D01*
X25120746Y-14469631D01*
X25120745Y-14469631D01*
X25041764Y-14497267D01*
X25026338Y-14501569D01*
X25001314Y-14506833D01*
X24617503Y-14646978D01*
X24574972Y-14654500D01*
X24225027Y-14654500D01*
X24182496Y-14646978D01*
X23798687Y-14506834D01*
X23787104Y-14503150D01*
X23758111Y-14493927D01*
X23758104Y-14493926D01*
X23758095Y-14493924D01*
X23756718Y-14493754D01*
X23730992Y-14487735D01*
X23679252Y-14469631D01*
X23500004Y-14449435D01*
X23499996Y-14449435D01*
X23320750Y-14469630D01*
X23320745Y-14469631D01*
X23150476Y-14529211D01*
X23003568Y-14621521D01*
X22936332Y-14640521D01*
X22869496Y-14620153D01*
X22849915Y-14604208D01*
X20513139Y-12267432D01*
X20479654Y-12206109D01*
X20483780Y-12138793D01*
X20483801Y-12138731D01*
X20485368Y-12134255D01*
X20505565Y-11955000D01*
X20500450Y-11909606D01*
X20485369Y-11775750D01*
X20485368Y-11775745D01*
X20463495Y-11713236D01*
X20425789Y-11605478D01*
X20331235Y-11454996D01*
X34594435Y-11454996D01*
X34594435Y-11455003D01*
X34614631Y-11634252D01*
X34642268Y-11713236D01*
X34646570Y-11728663D01*
X34651833Y-11753685D01*
X34791978Y-12137494D01*
X34799500Y-12180025D01*
X34799500Y-12729972D01*
X34791978Y-12772503D01*
X34651831Y-13156320D01*
X34638928Y-13196882D01*
X34638925Y-13196894D01*
X34638754Y-13198281D01*
X34632735Y-13224006D01*
X34614631Y-13275745D01*
X34614631Y-13275746D01*
X34594435Y-13454996D01*
X34594435Y-13455003D01*
X34614630Y-13634249D01*
X34614631Y-13634254D01*
X34674211Y-13804523D01*
X34770184Y-13957262D01*
X34897738Y-14084816D01*
X35050478Y-14180789D01*
X35220745Y-14240368D01*
X35220750Y-14240369D01*
X35399996Y-14260565D01*
X35400000Y-14260565D01*
X35400004Y-14260565D01*
X35579249Y-14240369D01*
X35579252Y-14240368D01*
X35579255Y-14240368D01*
X35749522Y-14180789D01*
X35902262Y-14084816D01*
X36029816Y-13957262D01*
X36125789Y-13804522D01*
X36185368Y-13634255D01*
X36205565Y-13455000D01*
X36185368Y-13275745D01*
X36157729Y-13196760D01*
X36153428Y-13181335D01*
X36148166Y-13156312D01*
X36008022Y-12772502D01*
X36000500Y-12729971D01*
X36000500Y-12180025D01*
X36008022Y-12137494D01*
X36032899Y-12069365D01*
X36148166Y-11753686D01*
X36161071Y-11713117D01*
X36161241Y-11711739D01*
X36167262Y-11685994D01*
X36185368Y-11634255D01*
X36205565Y-11455000D01*
X36205310Y-11452738D01*
X36185369Y-11275750D01*
X36185368Y-11275745D01*
X36141170Y-11149435D01*
X36125789Y-11105478D01*
X36103265Y-11069632D01*
X36029815Y-10952737D01*
X35902262Y-10825184D01*
X35749523Y-10729211D01*
X35579254Y-10669631D01*
X35579249Y-10669630D01*
X35400004Y-10649435D01*
X35399996Y-10649435D01*
X35220750Y-10669630D01*
X35220745Y-10669631D01*
X35050476Y-10729211D01*
X34897737Y-10825184D01*
X34770184Y-10952737D01*
X34674211Y-11105476D01*
X34614631Y-11275745D01*
X34614630Y-11275750D01*
X34594435Y-11454996D01*
X20331235Y-11454996D01*
X20329816Y-11452738D01*
X20202262Y-11325184D01*
X20049523Y-11229211D01*
X19879254Y-11169631D01*
X19879249Y-11169630D01*
X19700004Y-11149435D01*
X19699996Y-11149435D01*
X19520750Y-11169630D01*
X19520745Y-11169631D01*
X19350476Y-11229211D01*
X19197737Y-11325184D01*
X19070184Y-11452737D01*
X18974211Y-11605476D01*
X18914631Y-11775745D01*
X18914630Y-11775750D01*
X18894435Y-11954996D01*
X0Y-11954996D01*
X0Y-4999999D01*
X1495197Y-4999999D01*
X1495197Y-5000000D01*
X1514397Y-5366353D01*
X1571784Y-5728684D01*
X1571784Y-5728686D01*
X1666736Y-6083051D01*
X1798204Y-6425535D01*
X1964754Y-6752406D01*
X2164553Y-7060070D01*
X2353297Y-7293148D01*
X3777340Y-5869105D01*
X3855864Y-5977184D01*
X4022816Y-6144136D01*
X4130893Y-6222658D01*
X2706850Y-7646701D01*
X2939929Y-7835446D01*
X3247593Y-8035245D01*
X3574464Y-8201795D01*
X3916948Y-8333263D01*
X4271314Y-8428215D01*
X4633646Y-8485602D01*
X4999999Y-8504803D01*
X5000001Y-8504803D01*
X5366353Y-8485602D01*
X5728684Y-8428215D01*
X5728686Y-8428215D01*
X6083051Y-8333263D01*
X6425535Y-8201795D01*
X6752406Y-8035245D01*
X7060064Y-7835450D01*
X7293148Y-7646701D01*
X5869106Y-6222659D01*
X5977184Y-6144136D01*
X6144136Y-5977184D01*
X6222659Y-5869106D01*
X7646701Y-7293148D01*
X7835450Y-7060064D01*
X8035245Y-6752406D01*
X8201795Y-6425535D01*
X8333263Y-6083051D01*
X8428215Y-5728686D01*
X8428215Y-5728684D01*
X8485602Y-5366353D01*
X8504803Y-5000000D01*
X8504803Y-4999999D01*
X51495197Y-4999999D01*
X51495197Y-5000000D01*
X51514397Y-5366353D01*
X51571784Y-5728684D01*
X51571784Y-5728686D01*
X51666736Y-6083051D01*
X51798204Y-6425535D01*
X51964754Y-6752406D01*
X52164553Y-7060070D01*
X52353297Y-7293148D01*
X53777340Y-5869105D01*
X53855864Y-5977184D01*
X54022816Y-6144136D01*
X54130893Y-6222658D01*
X52706850Y-7646701D01*
X52939929Y-7835446D01*
X53247593Y-8035245D01*
X53574464Y-8201795D01*
X53916948Y-8333263D01*
X54271314Y-8428215D01*
X54633646Y-8485602D01*
X54999999Y-8504803D01*
X55000001Y-8504803D01*
X55366353Y-8485602D01*
X55728684Y-8428215D01*
X55728686Y-8428215D01*
X56083051Y-8333263D01*
X56425535Y-8201795D01*
X56752406Y-8035245D01*
X57060064Y-7835450D01*
X57293148Y-7646701D01*
X55869106Y-6222659D01*
X55977184Y-6144136D01*
X56144136Y-5977184D01*
X56222659Y-5869106D01*
X57646701Y-7293148D01*
X57835450Y-7060064D01*
X58035245Y-6752406D01*
X58201795Y-6425535D01*
X58333263Y-6083051D01*
X58428215Y-5728686D01*
X58428215Y-5728684D01*
X58485602Y-5366353D01*
X58504803Y-5000000D01*
X58504803Y-4999999D01*
X58485602Y-4633646D01*
X58428215Y-4271315D01*
X58428215Y-4271313D01*
X58333263Y-3916948D01*
X58201795Y-3574464D01*
X58035245Y-3247594D01*
X57835446Y-2939929D01*
X57646701Y-2706850D01*
X56222658Y-4130893D01*
X56144136Y-4022816D01*
X55977184Y-3855864D01*
X55869106Y-3777340D01*
X57293149Y-2353297D01*
X57060070Y-2164553D01*
X56752406Y-1964754D01*
X56425535Y-1798204D01*
X56083051Y-1666736D01*
X55728685Y-1571784D01*
X55366353Y-1514397D01*
X55000001Y-1495197D01*
X54999999Y-1495197D01*
X54633646Y-1514397D01*
X54271315Y-1571784D01*
X54271313Y-1571784D01*
X53916948Y-1666736D01*
X53574464Y-1798204D01*
X53247594Y-1964754D01*
X52939924Y-2164557D01*
X52706849Y-2353296D01*
X52706849Y-2353297D01*
X54130893Y-3777341D01*
X54022816Y-3855864D01*
X53855864Y-4022816D01*
X53777341Y-4130893D01*
X52353297Y-2706849D01*
X52353296Y-2706849D01*
X52164557Y-2939924D01*
X51964754Y-3247594D01*
X51798204Y-3574464D01*
X51666736Y-3916948D01*
X51571784Y-4271313D01*
X51571784Y-4271315D01*
X51514397Y-4633646D01*
X51495197Y-4999999D01*
X8504803Y-4999999D01*
X8485602Y-4633646D01*
X8428215Y-4271315D01*
X8428215Y-4271313D01*
X8333263Y-3916948D01*
X8201795Y-3574464D01*
X8035245Y-3247594D01*
X7835446Y-2939929D01*
X7646701Y-2706850D01*
X6222658Y-4130893D01*
X6144136Y-4022816D01*
X5977184Y-3855864D01*
X5869106Y-3777340D01*
X7293149Y-2353297D01*
X7060070Y-2164553D01*
X6752406Y-1964754D01*
X6425535Y-1798204D01*
X6083051Y-1666736D01*
X5728685Y-1571784D01*
X5366353Y-1514397D01*
X5000001Y-1495197D01*
X4999999Y-1495197D01*
X4633646Y-1514397D01*
X4271315Y-1571784D01*
X4271313Y-1571784D01*
X3916948Y-1666736D01*
X3574464Y-1798204D01*
X3247594Y-1964754D01*
X2939924Y-2164557D01*
X2706849Y-2353296D01*
X2706849Y-2353297D01*
X4130893Y-3777341D01*
X4022816Y-3855864D01*
X3855864Y-4022816D01*
X3777341Y-4130893D01*
X2353297Y-2706849D01*
X2353296Y-2706849D01*
X2164557Y-2939924D01*
X1964754Y-3247594D01*
X1798204Y-3574464D01*
X1666736Y-3916948D01*
X1571784Y-4271313D01*
X1571784Y-4271315D01*
X1514397Y-4633646D01*
X1495197Y-4999999D01*
X0Y-4999999D01*
X0Y-124000D01*
X19685Y-56961D01*
X72489Y-11206D01*
X124000Y0D01*
X59876000Y0D01*
X59943039Y-19685D01*
G37*
%TD.AperFunction*%
%TD*%
%TA.AperFunction,Conductor*%
%TO.N,-5V*%
G36*
X44260729Y-24060912D02*
G01*
X44702457Y-24434681D01*
X44706559Y-24442641D01*
X44703831Y-24451171D01*
X44703200Y-24451859D01*
X44500762Y-24655652D01*
X44500707Y-24655707D01*
X44296859Y-24858200D01*
X44288574Y-24861599D01*
X44280312Y-24858145D01*
X44279681Y-24857457D01*
X44108970Y-24655707D01*
X43905912Y-24415729D01*
X43903185Y-24407201D01*
X43906571Y-24399901D01*
X44244901Y-24061571D01*
X44253173Y-24058145D01*
X44260729Y-24060912D01*
G37*
%TD.AperFunction*%
%TD*%
%TA.AperFunction,Conductor*%
%TO.N,-5V*%
G36*
X42287327Y-11854957D02*
G01*
X42295588Y-11858411D01*
X42298987Y-11866696D01*
X42298947Y-11867629D01*
X42250894Y-12444272D01*
X42246792Y-12452232D01*
X42239234Y-12455000D01*
X41760766Y-12455000D01*
X41752493Y-12451573D01*
X41749106Y-12444272D01*
X41701052Y-11867629D01*
X41703780Y-11859099D01*
X41711740Y-11854997D01*
X41712653Y-11854957D01*
X42000000Y-11854000D01*
X42287327Y-11854957D01*
G37*
%TD.AperFunction*%
%TD*%
%TA.AperFunction,Conductor*%
%TO.N,+5V*%
G36*
X39395900Y-16358780D02*
G01*
X39400002Y-16366740D01*
X39400042Y-16367673D01*
X39401000Y-16655000D01*
X39401000Y-16655078D01*
X39400042Y-16942326D01*
X39396588Y-16950588D01*
X39388303Y-16953987D01*
X39387370Y-16953947D01*
X38810728Y-16905894D01*
X38802768Y-16901792D01*
X38800000Y-16894234D01*
X38800000Y-16415766D01*
X38803427Y-16407493D01*
X38810728Y-16404106D01*
X39387371Y-16356052D01*
X39395900Y-16358780D01*
G37*
%TD.AperFunction*%
%TD*%
%TA.AperFunction,Conductor*%
%TO.N,-5V*%
G36*
X44787327Y-24654957D02*
G01*
X44795588Y-24658411D01*
X44798987Y-24666696D01*
X44798947Y-24667629D01*
X44750894Y-25244272D01*
X44746792Y-25252232D01*
X44739234Y-25255000D01*
X44260766Y-25255000D01*
X44252493Y-25251573D01*
X44249106Y-25244272D01*
X44201052Y-24667629D01*
X44203780Y-24659099D01*
X44211740Y-24654997D01*
X44212653Y-24654957D01*
X44500000Y-24654000D01*
X44787327Y-24654957D01*
G37*
%TD.AperFunction*%
%TD*%
%TA.AperFunction,Conductor*%
%TO.N,GND*%
G36*
X45801000Y-20900000D02*
G01*
X45587868Y-21112132D01*
X45279762Y-20800000D01*
X45279762Y-20600000D01*
X45800000Y-20600000D01*
X45801000Y-20900000D01*
G37*
%TD.AperFunction*%
%TD*%
%TA.AperFunction,Conductor*%
%TO.N,-5V*%
G36*
X13487327Y-16254957D02*
G01*
X13495588Y-16258411D01*
X13498987Y-16266696D01*
X13498947Y-16267629D01*
X13450894Y-16844272D01*
X13446792Y-16852232D01*
X13439234Y-16855000D01*
X12960766Y-16855000D01*
X12952493Y-16851573D01*
X12949106Y-16844272D01*
X12901052Y-16267629D01*
X12903780Y-16259099D01*
X12911740Y-16254997D01*
X12912653Y-16254957D01*
X13200000Y-16254000D01*
X13487327Y-16254957D01*
G37*
%TD.AperFunction*%
%TD*%
%TA.AperFunction,Conductor*%
%TO.N,-5V*%
G36*
X40812618Y-25356051D02*
G01*
X41389272Y-25404106D01*
X41397232Y-25408208D01*
X41400000Y-25415766D01*
X41400000Y-25894234D01*
X41396573Y-25902507D01*
X41389272Y-25905894D01*
X40812629Y-25953947D01*
X40804099Y-25951219D01*
X40799997Y-25943259D01*
X40799957Y-25942345D01*
X40799000Y-25655000D01*
X40799957Y-25367671D01*
X40803411Y-25359411D01*
X40811696Y-25356012D01*
X40812618Y-25356051D01*
G37*
%TD.AperFunction*%
%TD*%
%TA.AperFunction,Conductor*%
%TO.N,Net-(U4-IN+)*%
G36*
X35500090Y-12858427D02*
G01*
X35502807Y-12862687D01*
X35673330Y-13329694D01*
X35672949Y-13338641D01*
X35666851Y-13344503D01*
X35404511Y-13454115D01*
X35395556Y-13454142D01*
X35395489Y-13454115D01*
X35133148Y-13344503D01*
X35126836Y-13338151D01*
X35126669Y-13329697D01*
X35297193Y-12862686D01*
X35303249Y-12856091D01*
X35308183Y-12855000D01*
X35491817Y-12855000D01*
X35500090Y-12858427D01*
G37*
%TD.AperFunction*%
%TD*%
%TA.AperFunction,Conductor*%
%TO.N,+5V*%
G36*
X37580856Y-16151331D02*
G01*
X37581148Y-16152113D01*
X37665081Y-16403193D01*
X37665685Y-16406902D01*
X37665685Y-16881454D01*
X37662258Y-16889727D01*
X37653985Y-16893154D01*
X37646919Y-16890779D01*
X37098592Y-16475258D01*
X37094068Y-16467530D01*
X37096333Y-16458867D01*
X37097399Y-16457645D01*
X37299370Y-16256622D01*
X37303125Y-16254116D01*
X37565562Y-16145017D01*
X37574516Y-16145007D01*
X37580856Y-16151331D01*
G37*
%TD.AperFunction*%
%TD*%
%TA.AperFunction,Conductor*%
%TO.N,Net-(U2-OUT)*%
G36*
X25183641Y-14982050D02*
G01*
X25189503Y-14988148D01*
X25299115Y-15250489D01*
X25299142Y-15259444D01*
X25299115Y-15259511D01*
X25189503Y-15521851D01*
X25183151Y-15528163D01*
X25174694Y-15528329D01*
X25040947Y-15479493D01*
X24707687Y-15357806D01*
X24701091Y-15351750D01*
X24700000Y-15346816D01*
X24700000Y-15163183D01*
X24703427Y-15154910D01*
X24707687Y-15152193D01*
X25174697Y-14981669D01*
X25183641Y-14982050D01*
G37*
%TD.AperFunction*%
%TD*%
%TA.AperFunction,Conductor*%
%TO.N,+5V*%
G36*
X19701459Y-11955193D02*
G01*
X19967910Y-12065958D01*
X19974234Y-12072298D01*
X19974784Y-12079540D01*
X19905370Y-12363521D01*
X19902278Y-12369016D01*
X19566546Y-12704748D01*
X19558273Y-12708175D01*
X19550000Y-12704748D01*
X19546795Y-12698743D01*
X19402749Y-11968929D01*
X19404509Y-11960151D01*
X19411962Y-11955187D01*
X19414195Y-11954966D01*
X19696944Y-11954298D01*
X19701459Y-11955193D01*
G37*
%TD.AperFunction*%
%TD*%
%TA.AperFunction,Conductor*%
%TO.N,Net-(U2-OUT)*%
G36*
X24092313Y-15152193D02*
G01*
X24098909Y-15158249D01*
X24100000Y-15163183D01*
X24100000Y-15346816D01*
X24096573Y-15355089D01*
X24092313Y-15357806D01*
X23625305Y-15528330D01*
X23616358Y-15527949D01*
X23610496Y-15521851D01*
X23500883Y-15259509D01*
X23500857Y-15250556D01*
X23500862Y-15250542D01*
X23610496Y-14988147D01*
X23616848Y-14981836D01*
X23625302Y-14981669D01*
X24092313Y-15152193D01*
G37*
%TD.AperFunction*%
%TD*%
%TA.AperFunction,Conductor*%
%TO.N,GND*%
G36*
X44200000Y-20600000D02*
G01*
X44200000Y-20800000D01*
X43714805Y-20977164D01*
X43599000Y-20700000D01*
X43714805Y-20422836D01*
X44200000Y-20600000D01*
G37*
%TD.AperFunction*%
%TD*%
%TA.AperFunction,Conductor*%
%TO.N,-5V*%
G36*
X40795378Y-25430423D02*
G01*
X40799892Y-25438156D01*
X40800000Y-25439739D01*
X40800000Y-25886275D01*
X40796573Y-25894548D01*
X40788300Y-25897975D01*
X40783171Y-25896791D01*
X40535643Y-25776052D01*
X40529709Y-25769345D01*
X40530256Y-25760407D01*
X40531451Y-25758464D01*
X40778984Y-25432660D01*
X40786717Y-25428147D01*
X40795378Y-25430423D01*
G37*
%TD.AperFunction*%
%TD*%
%TA.AperFunction,Conductor*%
%TO.N,Net-(U4-IN+)*%
G36*
X35666851Y-11565496D02*
G01*
X35673163Y-11571848D01*
X35673330Y-11580305D01*
X35502807Y-12047313D01*
X35496751Y-12053909D01*
X35491817Y-12055000D01*
X35308183Y-12055000D01*
X35299910Y-12051573D01*
X35297193Y-12047313D01*
X35126669Y-11580302D01*
X35127050Y-11571358D01*
X35133147Y-11565496D01*
X35395490Y-11455883D01*
X35404444Y-11455857D01*
X35666851Y-11565496D01*
G37*
%TD.AperFunction*%
%TD*%
M02*
