G04*
G04 #@! TF.GenerationSoftware,Altium Limited,Altium Designer,24.0.1 (36)*
G04*
G04 Layer_Physical_Order=1*
G04 Layer_Color=255*
%FSLAX44Y44*%
%MOMM*%
G71*
G04*
G04 #@! TF.SameCoordinates,20C74B94-4111-4091-B890-7D796C08C91C*
G04*
G04*
G04 #@! TF.FilePolarity,Positive*
G04*
G01*
G75*
%ADD27R,2.5000X2.0000*%
%ADD28R,1.0000X1.1000*%
%ADD29R,1.3000X1.5000*%
%ADD30R,1.1000X1.0000*%
%ADD31R,2.2500X0.6000*%
%ADD32R,1.5000X1.3000*%
%ADD33R,3.5000X2.2000*%
%ADD34R,1.2000X2.2000*%
%ADD35C,0.4000*%
%ADD36R,1.1300X1.1300*%
%ADD37C,1.1300*%
%ADD38R,1.8000X1.8000*%
%ADD39C,1.8000*%
%ADD40R,1.8000X1.8000*%
%ADD41C,0.6000*%
G36*
X1292451Y1136944D02*
Y591056D01*
X1281944Y580549D01*
X420056D01*
X409549Y591056D01*
Y1102000D01*
Y1136944D01*
X420056Y1147451D01*
X1281944D01*
X1292451Y1136944D01*
D02*
G37*
%LPC*%
G36*
X553750Y1112472D02*
Y1101750D01*
X564472D01*
X563648Y1104825D01*
X562002Y1107675D01*
X559675Y1110002D01*
X556825Y1111648D01*
X553750Y1112472D01*
D02*
G37*
G36*
X550250D02*
X547175Y1111648D01*
X544325Y1110002D01*
X541997Y1107675D01*
X540352Y1104825D01*
X539528Y1101750D01*
X550250D01*
Y1112472D01*
D02*
G37*
G36*
X564472Y1098250D02*
X553750D01*
Y1087528D01*
X556825Y1088352D01*
X559675Y1089997D01*
X562002Y1092325D01*
X563648Y1095175D01*
X564472Y1098250D01*
D02*
G37*
G36*
X550250D02*
X539528D01*
X540352Y1095175D01*
X541997Y1092325D01*
X544325Y1089997D01*
X547175Y1088352D01*
X550250Y1087528D01*
Y1098250D01*
D02*
G37*
G36*
X989590Y1087388D02*
X989590Y1087388D01*
X924306D01*
X922745Y1087078D01*
X921422Y1086194D01*
X921422Y1086194D01*
X918045Y1082816D01*
X867918D01*
X867918Y1082816D01*
X866357Y1082506D01*
X865034Y1081622D01*
X790104Y1006692D01*
X789220Y1005369D01*
X788910Y1003808D01*
X788910Y1003808D01*
Y966889D01*
X781449Y959428D01*
X779091D01*
X779025Y959501D01*
X778553Y960280D01*
X779122Y961550D01*
X779750D01*
Y966300D01*
X765000D01*
Y968050D01*
X763250D01*
Y974550D01*
X750250D01*
Y973963D01*
X749077Y973477D01*
X727670Y994884D01*
X726347Y995768D01*
X724786Y996078D01*
X724786Y996078D01*
X698000D01*
Y1001500D01*
X693578D01*
Y1008500D01*
X698000D01*
Y1027500D01*
X693578D01*
Y1028810D01*
X693268Y1030371D01*
X692384Y1031694D01*
X685382Y1038696D01*
X684059Y1039580D01*
X682498Y1039890D01*
X682498Y1039890D01*
X637112D01*
X637112Y1039890D01*
X635551Y1039580D01*
X634228Y1038696D01*
X634228Y1038696D01*
X627116Y1031584D01*
X626232Y1030261D01*
X625922Y1028700D01*
X625922Y1028700D01*
Y1021000D01*
X623000D01*
Y1006000D01*
X637000D01*
Y1021000D01*
X634079D01*
Y1027011D01*
X638802Y1031734D01*
X680809D01*
X683869Y1028673D01*
X683383Y1027500D01*
X681000D01*
Y1008500D01*
X685421D01*
Y1001500D01*
X681000D01*
Y985310D01*
X679890Y984836D01*
X679000Y985570D01*
Y1001500D01*
X674578D01*
Y1008500D01*
X679000D01*
Y1027500D01*
X662000D01*
Y1008500D01*
X666422D01*
Y1001500D01*
X662000D01*
Y982500D01*
X670528D01*
X676758Y976270D01*
X676232Y975000D01*
X663000D01*
Y961000D01*
X666422D01*
Y959778D01*
X666422Y959778D01*
X666732Y958217D01*
X667616Y956894D01*
X668337Y956173D01*
X667851Y955000D01*
X666500D01*
Y950578D01*
X660500D01*
Y955000D01*
X641500D01*
Y950578D01*
X639818D01*
X639818Y950578D01*
X638257Y950268D01*
X637000Y950733D01*
Y955500D01*
X632579D01*
Y961500D01*
X637000D01*
Y980500D01*
X633584D01*
X633177Y981137D01*
X633000Y981770D01*
X633768Y982919D01*
X634079Y984480D01*
Y989000D01*
X637000D01*
Y1004000D01*
X623000D01*
Y989000D01*
X625922D01*
Y986170D01*
X625616Y985864D01*
X624732Y984541D01*
X624422Y982980D01*
X624422Y982980D01*
Y980500D01*
X620000D01*
Y961500D01*
X624422D01*
Y955500D01*
X620000D01*
Y936500D01*
X637000D01*
Y941922D01*
X639318D01*
X639318Y941922D01*
X640230Y942103D01*
X641250Y941504D01*
X641383Y941362D01*
X641500Y941160D01*
Y938000D01*
X660500D01*
Y942422D01*
X666500D01*
Y938000D01*
X685500D01*
Y955000D01*
X679935D01*
X679768Y955839D01*
X678884Y957162D01*
X678884Y957162D01*
X676219Y959827D01*
X676705Y961000D01*
X678000D01*
Y972991D01*
X679160Y973498D01*
X680000Y972828D01*
Y961000D01*
X683424D01*
X683556Y960337D01*
X684440Y959014D01*
X685763Y958130D01*
X687324Y957820D01*
X689501D01*
X694854Y952466D01*
X694854Y952466D01*
X696177Y951582D01*
X697738Y951272D01*
X699750D01*
Y950350D01*
X725918D01*
Y947650D01*
X699750D01*
Y946174D01*
X698791Y945534D01*
X694854Y941597D01*
X694854Y941597D01*
X686674Y933416D01*
X685500Y933902D01*
Y936000D01*
X666500D01*
Y931578D01*
X660500D01*
Y936000D01*
X641500D01*
Y919000D01*
X660500D01*
Y923421D01*
X666500D01*
Y919000D01*
X685500D01*
Y922695D01*
X686525Y923421D01*
X688086Y923732D01*
X689409Y924616D01*
X692486Y927693D01*
X693660Y927207D01*
Y923112D01*
X693660Y923112D01*
X693970Y921552D01*
X694854Y920228D01*
X701966Y913116D01*
X701966Y913116D01*
X703289Y912232D01*
X704850Y911922D01*
X704850Y911922D01*
X857000D01*
Y906500D01*
X861422D01*
Y903340D01*
X861348Y902970D01*
X861348Y902970D01*
Y899799D01*
X856926D01*
Y880799D01*
X873926D01*
Y899799D01*
X869505D01*
Y902673D01*
X869578Y903044D01*
Y906500D01*
X874000D01*
Y925500D01*
X861582D01*
Y931950D01*
X886250D01*
Y932872D01*
X889619D01*
X889724Y932767D01*
X891561Y932006D01*
X893551D01*
X894320Y932325D01*
X895590Y931476D01*
Y891231D01*
X895429Y891070D01*
X894668Y889233D01*
Y887243D01*
X895429Y885406D01*
X896836Y883999D01*
X898673Y883238D01*
X900663D01*
X902500Y883999D01*
X903907Y885406D01*
X904668Y887243D01*
Y889233D01*
X903907Y891070D01*
X903746Y891231D01*
Y892590D01*
X905016Y893116D01*
X911516Y886616D01*
X911831Y886405D01*
X911992Y884771D01*
X900996Y873774D01*
X890689D01*
X888505Y875959D01*
Y880799D01*
X892926D01*
Y899799D01*
X888505D01*
Y902673D01*
X888578Y903044D01*
Y906500D01*
X893000D01*
Y925500D01*
X876000D01*
Y906500D01*
X880422D01*
Y903340D01*
X880348Y902970D01*
X880348Y902970D01*
Y899799D01*
X875927D01*
Y880799D01*
X880348D01*
Y874270D01*
X880348Y874269D01*
X880659Y872709D01*
X881543Y871386D01*
X886116Y866812D01*
X886116Y866812D01*
X887439Y865928D01*
X889000Y865618D01*
X902685D01*
X902685Y865618D01*
X904246Y865928D01*
X905569Y866812D01*
X920757Y882000D01*
X934000D01*
Y897000D01*
X920000D01*
Y893578D01*
X916089D01*
X911112Y898555D01*
Y930944D01*
X911750Y931950D01*
X912382Y931950D01*
X938250D01*
Y941950D01*
X912382D01*
X911750Y941950D01*
X911112Y942956D01*
Y943644D01*
X911750Y944650D01*
X938180D01*
X939009Y944097D01*
X940570Y943786D01*
X946100D01*
Y938364D01*
X950522D01*
Y933364D01*
X946100D01*
Y927943D01*
X933450D01*
X931889Y927633D01*
X930566Y926748D01*
X930566Y926748D01*
X924116Y920298D01*
X923232Y918975D01*
X922922Y917414D01*
X922922Y917414D01*
Y914000D01*
X920000D01*
Y899000D01*
X934000D01*
Y914000D01*
X931078D01*
Y915725D01*
X935139Y919786D01*
X946100D01*
Y914365D01*
X963100D01*
Y933364D01*
X958678D01*
Y938364D01*
X963100D01*
Y957365D01*
X958678D01*
Y962660D01*
X958368Y964221D01*
X957484Y965544D01*
X957484Y965544D01*
X946672Y976355D01*
Y983413D01*
X947942Y983939D01*
X948103Y983778D01*
X949847Y982771D01*
X951793Y982250D01*
X953807D01*
X954498Y982435D01*
X978395Y958538D01*
X977909Y957365D01*
X965100D01*
Y938364D01*
X969521D01*
Y933364D01*
X965100D01*
Y914365D01*
X969521D01*
Y891739D01*
X968853Y891070D01*
X968092Y889233D01*
Y887243D01*
X968853Y885406D01*
X970259Y883999D01*
X972097Y883238D01*
X974086D01*
X975924Y883999D01*
X977331Y885406D01*
X978092Y887243D01*
Y889233D01*
X977678Y890231D01*
Y914365D01*
X982100D01*
Y933364D01*
X977678D01*
Y938364D01*
X982100D01*
Y953173D01*
X983273Y953659D01*
X995158Y941775D01*
Y898964D01*
X995158Y898964D01*
X995468Y897404D01*
X996352Y896081D01*
X1039535Y852898D01*
X1039350Y852207D01*
Y850193D01*
X1039872Y848247D01*
X1040879Y846503D01*
X1042303Y845079D01*
X1044047Y844072D01*
X1045993Y843550D01*
X1048007D01*
X1049953Y844072D01*
X1051697Y845079D01*
X1053122Y846503D01*
X1054129Y848247D01*
X1054650Y850193D01*
Y852207D01*
X1054129Y854153D01*
X1053122Y855897D01*
X1051697Y857322D01*
X1049953Y858329D01*
X1048007Y858850D01*
X1045993D01*
X1045303Y858665D01*
X1003314Y900654D01*
Y943464D01*
X1003314Y943464D01*
X1003004Y945025D01*
X1002120Y946348D01*
X960265Y988203D01*
X960450Y988893D01*
Y990907D01*
X959929Y992853D01*
X958922Y994597D01*
X957497Y996021D01*
X955753Y997029D01*
X953807Y997550D01*
X951793D01*
X949847Y997029D01*
X948103Y996021D01*
X947942Y995861D01*
X946672Y996387D01*
Y1003404D01*
X951103Y1007835D01*
X951793Y1007650D01*
X953807D01*
X955753Y1008171D01*
X957497Y1009178D01*
X958922Y1010603D01*
X959929Y1012347D01*
X960450Y1014293D01*
Y1016307D01*
X959929Y1018253D01*
X958922Y1019997D01*
X957497Y1021422D01*
X955753Y1022429D01*
X953807Y1022950D01*
X951793D01*
X949847Y1022429D01*
X948103Y1021422D01*
X946679Y1019997D01*
X945672Y1018253D01*
X945150Y1016307D01*
Y1014293D01*
X945335Y1013603D01*
X939710Y1007978D01*
X938826Y1006655D01*
X938516Y1005094D01*
X938516Y1005094D01*
Y981550D01*
X926750D01*
Y975050D01*
X923250D01*
Y981550D01*
X911874D01*
Y1065111D01*
X916230Y1069466D01*
X917500Y1068940D01*
X917500Y1068461D01*
Y1062250D01*
X924250D01*
Y1069500D01*
X918600D01*
X918059Y1069500D01*
X917533Y1070770D01*
X921423Y1074660D01*
X944280D01*
X945150Y1073750D01*
X945150Y1073390D01*
Y1058450D01*
X960450D01*
Y1073390D01*
X960450Y1073750D01*
X961320Y1074660D01*
X992473D01*
X1024735Y1042397D01*
X1024550Y1041707D01*
Y1039693D01*
X1025071Y1037747D01*
X1026079Y1036003D01*
X1027503Y1034578D01*
X1029247Y1033571D01*
X1031193Y1033050D01*
X1033207D01*
X1035153Y1033571D01*
X1036897Y1034578D01*
X1038322Y1036003D01*
X1038679Y1036622D01*
X1127279D01*
X1133588Y1030313D01*
Y1028000D01*
X1106500D01*
Y1005854D01*
X1085500D01*
Y1028000D01*
X1056500D01*
Y1020078D01*
X1051752D01*
X1051752Y1020078D01*
X1050191Y1019768D01*
X1049608Y1019378D01*
X1038679D01*
X1038322Y1019997D01*
X1036897Y1021422D01*
X1035153Y1022429D01*
X1033207Y1022950D01*
X1031193D01*
X1029247Y1022429D01*
X1027503Y1021422D01*
X1026079Y1019997D01*
X1025071Y1018253D01*
X1024550Y1016307D01*
Y1014293D01*
X1025071Y1012347D01*
X1026079Y1010603D01*
X1027503Y1009178D01*
X1029247Y1008171D01*
X1031193Y1007650D01*
X1033207D01*
X1035153Y1008171D01*
X1036897Y1009178D01*
X1038322Y1010603D01*
X1038679Y1011222D01*
X1051052D01*
X1051052Y1011222D01*
X1052613Y1011532D01*
X1053196Y1011922D01*
X1056500D01*
Y1005854D01*
X993413D01*
X960265Y1039003D01*
X960450Y1039693D01*
Y1041707D01*
X959929Y1043653D01*
X958922Y1045397D01*
X957497Y1046822D01*
X955753Y1047829D01*
X953807Y1048350D01*
X951793D01*
X949847Y1047829D01*
X948103Y1046822D01*
X946679Y1045397D01*
X946321Y1044778D01*
X942257D01*
X940652Y1046384D01*
X939329Y1047268D01*
X937768Y1047578D01*
X937768Y1047578D01*
X933898D01*
X933000Y1048476D01*
X933000Y1051000D01*
X934063Y1051500D01*
X934500D01*
Y1058750D01*
X926000D01*
X917500D01*
Y1051500D01*
X917937D01*
X919000Y1051000D01*
X919000Y1050230D01*
Y1036000D01*
X933000D01*
Y1039422D01*
X936079D01*
X937684Y1037816D01*
X939007Y1036932D01*
X940568Y1036622D01*
X940568Y1036622D01*
X946321D01*
X946679Y1036003D01*
X948103Y1034578D01*
X949847Y1033571D01*
X951793Y1033050D01*
X953807D01*
X954498Y1033235D01*
X988840Y998892D01*
X988840Y998892D01*
X990163Y998008D01*
X991724Y997698D01*
X1027866D01*
X1028206Y996428D01*
X1027503Y996021D01*
X1026079Y994597D01*
X1025071Y992853D01*
X1024550Y990907D01*
Y988893D01*
X1025071Y986947D01*
X1026079Y985203D01*
X1027503Y983778D01*
X1029247Y982771D01*
X1031193Y982250D01*
X1033207D01*
X1035153Y982771D01*
X1036897Y983778D01*
X1038322Y985203D01*
X1039329Y986947D01*
X1039850Y988893D01*
Y990907D01*
X1039329Y992853D01*
X1038322Y994597D01*
X1036897Y996021D01*
X1036194Y996428D01*
X1036534Y997698D01*
X1116922D01*
Y952289D01*
X1048698Y884065D01*
X1048007Y884250D01*
X1045993D01*
X1044047Y883729D01*
X1042303Y882722D01*
X1040879Y881297D01*
X1039872Y879553D01*
X1039350Y877607D01*
Y875593D01*
X1039872Y873647D01*
X1040879Y871903D01*
X1042303Y870479D01*
X1044047Y869472D01*
X1045993Y868950D01*
X1048007D01*
X1049953Y869472D01*
X1051697Y870479D01*
X1053122Y871903D01*
X1054129Y873647D01*
X1054650Y875593D01*
Y877607D01*
X1054465Y878298D01*
X1123884Y947716D01*
X1123884Y947716D01*
X1124768Y949039D01*
X1125078Y950600D01*
X1125078Y950600D01*
Y1004000D01*
X1133588D01*
Y934812D01*
X1132414Y934326D01*
X1132018Y934722D01*
X1129932Y935927D01*
X1128150Y936404D01*
Y927400D01*
Y918396D01*
X1129932Y918874D01*
X1132018Y920078D01*
X1132414Y920474D01*
X1133588Y919988D01*
Y914955D01*
X1128098Y909465D01*
X1127407Y909650D01*
X1125393D01*
X1123447Y909129D01*
X1121703Y908122D01*
X1120279Y906697D01*
X1119271Y904953D01*
X1118750Y903007D01*
Y900993D01*
X1119271Y899047D01*
X1120279Y897303D01*
X1121703Y895879D01*
X1123447Y894872D01*
X1125393Y894350D01*
X1127407D01*
X1129353Y894872D01*
X1131097Y895879D01*
X1132522Y897303D01*
X1133529Y899047D01*
X1134050Y900993D01*
Y903007D01*
X1133865Y903698D01*
X1140550Y910382D01*
X1140550Y910382D01*
X1141434Y911705D01*
X1141744Y913266D01*
Y1032002D01*
X1141434Y1033563D01*
X1140550Y1034886D01*
X1140550Y1034886D01*
X1132706Y1042730D01*
X1133232Y1044000D01*
X1135500D01*
Y1051922D01*
X1148000D01*
Y1046500D01*
X1165000D01*
Y1065500D01*
X1148000D01*
Y1060078D01*
X1135500D01*
Y1068000D01*
X1106500D01*
Y1060078D01*
X1085500D01*
Y1068000D01*
X1056500D01*
Y1044778D01*
X1038679D01*
X1038322Y1045397D01*
X1036897Y1046822D01*
X1035153Y1047829D01*
X1033207Y1048350D01*
X1031193D01*
X1030503Y1048165D01*
X997046Y1081622D01*
X997046Y1081622D01*
X992474Y1086194D01*
X991151Y1087078D01*
X990892Y1087129D01*
X989590Y1087388D01*
D02*
G37*
G36*
X1033950Y1075104D02*
Y1067850D01*
X1041204D01*
X1040726Y1069632D01*
X1039522Y1071718D01*
X1037818Y1073422D01*
X1035732Y1074626D01*
X1033950Y1075104D01*
D02*
G37*
G36*
X1030450D02*
X1028668Y1074626D01*
X1026582Y1073422D01*
X1024878Y1071718D01*
X1023674Y1069632D01*
X1023196Y1067850D01*
X1030450D01*
Y1075104D01*
D02*
G37*
G36*
X927750Y1069500D02*
Y1062250D01*
X934500D01*
Y1069500D01*
X927750D01*
D02*
G37*
G36*
X1041204Y1064350D02*
X1033950D01*
Y1057096D01*
X1035732Y1057574D01*
X1037818Y1058778D01*
X1039522Y1060482D01*
X1040726Y1062568D01*
X1041204Y1064350D01*
D02*
G37*
G36*
X1030450D02*
X1023196D01*
X1023674Y1062568D01*
X1024878Y1060482D01*
X1026582Y1058778D01*
X1028668Y1057574D01*
X1030450Y1057096D01*
Y1064350D01*
D02*
G37*
G36*
X511000Y1111000D02*
X489000D01*
Y1089000D01*
X495922D01*
Y1045210D01*
X495922Y1045210D01*
X496232Y1043649D01*
X497116Y1042326D01*
X502398Y1037045D01*
Y1034750D01*
X489150D01*
Y1031178D01*
X485379D01*
X481674Y1034884D01*
X480351Y1035768D01*
X478790Y1036078D01*
X478790Y1036078D01*
X475500D01*
Y1040500D01*
X456500D01*
Y1023500D01*
X475500D01*
Y1027922D01*
X477101D01*
X480806Y1024216D01*
X482129Y1023332D01*
X483690Y1023021D01*
X483690Y1023021D01*
X489150D01*
Y1019450D01*
X502398D01*
Y1008576D01*
X501128Y1008035D01*
X499753Y1008829D01*
X497807Y1009350D01*
X495793D01*
X493847Y1008829D01*
X492103Y1007821D01*
X490679Y1006397D01*
X489672Y1004653D01*
X489150Y1002707D01*
Y1000693D01*
X489672Y998747D01*
X490679Y997003D01*
X492103Y995578D01*
X493847Y994571D01*
X495793Y994050D01*
X497807D01*
X499753Y994571D01*
X501128Y995365D01*
X502398Y994824D01*
Y983176D01*
X501128Y982635D01*
X499753Y983428D01*
X497807Y983950D01*
X495793D01*
X493847Y983428D01*
X492103Y982421D01*
X490679Y980997D01*
X489672Y979253D01*
X489150Y977307D01*
Y975293D01*
X489672Y973347D01*
X490679Y971603D01*
X492103Y970178D01*
X493847Y969171D01*
X495793Y968650D01*
X497807D01*
X499753Y969171D01*
X501128Y969965D01*
X502398Y969424D01*
Y962265D01*
X498498Y958365D01*
X497807Y958550D01*
X495793D01*
X493847Y958028D01*
X492103Y957021D01*
X490679Y955597D01*
X489672Y953853D01*
X489150Y951907D01*
Y949893D01*
X489672Y947947D01*
X490189Y947051D01*
X489173Y946271D01*
X470078Y965365D01*
Y1004500D01*
X475500D01*
Y1021500D01*
X456500D01*
Y1004500D01*
X461922D01*
Y963676D01*
X461922Y963676D01*
X462232Y962115D01*
X463116Y960792D01*
X485976Y937932D01*
X485976Y937932D01*
X487299Y937048D01*
X488860Y936738D01*
X566116D01*
X566116Y936738D01*
X567677Y937048D01*
X569000Y937932D01*
X574503Y943435D01*
X575193Y943250D01*
X577207D01*
X579153Y943771D01*
X580897Y944778D01*
X582322Y946203D01*
X583329Y947947D01*
X583850Y949893D01*
Y951907D01*
X583329Y953853D01*
X582322Y955597D01*
X580897Y957021D01*
X579153Y958028D01*
X577207Y958550D01*
X575193D01*
X573247Y958028D01*
X571503Y957021D01*
X570079Y955597D01*
X569071Y953853D01*
X568550Y951907D01*
Y949893D01*
X568735Y949202D01*
X564427Y944894D01*
X503273D01*
X502787Y946068D01*
X502922Y946203D01*
X503929Y947947D01*
X504450Y949893D01*
Y951907D01*
X504265Y952597D01*
X509360Y957692D01*
X509360Y957692D01*
X510244Y959015D01*
X510554Y960576D01*
X510554Y960576D01*
Y1038734D01*
X510554Y1038734D01*
X510244Y1040295D01*
X509360Y1041618D01*
X504078Y1046899D01*
Y1089000D01*
X511000D01*
Y1111000D01*
D02*
G37*
G36*
X577950Y1036104D02*
Y1028850D01*
X585204D01*
X584726Y1030632D01*
X583522Y1032718D01*
X581818Y1034422D01*
X579732Y1035626D01*
X577950Y1036104D01*
D02*
G37*
G36*
X574450D02*
X572668Y1035626D01*
X570582Y1034422D01*
X568878Y1032718D01*
X567674Y1030632D01*
X567196Y1028850D01*
X574450D01*
Y1036104D01*
D02*
G37*
G36*
X431750Y1038472D02*
Y1027750D01*
X442472D01*
X441648Y1030825D01*
X440003Y1033675D01*
X437675Y1036002D01*
X434825Y1037648D01*
X431750Y1038472D01*
D02*
G37*
G36*
X428250D02*
X425175Y1037648D01*
X422325Y1036002D01*
X419998Y1033675D01*
X418352Y1030825D01*
X417528Y1027750D01*
X428250D01*
Y1038472D01*
D02*
G37*
G36*
X585204Y1025350D02*
X577950D01*
Y1018096D01*
X579732Y1018573D01*
X581818Y1019778D01*
X583522Y1021482D01*
X584726Y1023568D01*
X585204Y1025350D01*
D02*
G37*
G36*
X574450D02*
X567196D01*
X567674Y1023568D01*
X568878Y1021482D01*
X570582Y1019778D01*
X572668Y1018573D01*
X574450Y1018096D01*
Y1025350D01*
D02*
G37*
G36*
X442472Y1024250D02*
X431750D01*
Y1013528D01*
X434825Y1014352D01*
X437675Y1015997D01*
X440003Y1018325D01*
X441648Y1021175D01*
X442472Y1024250D01*
D02*
G37*
G36*
X428250D02*
X417528D01*
X418352Y1021175D01*
X419998Y1018325D01*
X422325Y1015997D01*
X425175Y1014352D01*
X428250Y1013528D01*
Y1024250D01*
D02*
G37*
G36*
X527448Y1111000D02*
X524552D01*
X521754Y1110250D01*
X519246Y1108802D01*
X517198Y1106754D01*
X515750Y1104246D01*
X515000Y1101448D01*
Y1098552D01*
X515750Y1095754D01*
X517198Y1093246D01*
X519246Y1091198D01*
X521754Y1089750D01*
X521922Y1089705D01*
Y1051900D01*
X521922Y1051900D01*
X522232Y1050339D01*
X523116Y1049016D01*
X568735Y1003397D01*
X568550Y1002707D01*
Y1000693D01*
X569071Y998747D01*
X570079Y997003D01*
X571503Y995578D01*
X573247Y994571D01*
X575193Y994050D01*
X577207D01*
X579153Y994571D01*
X580897Y995578D01*
X582322Y997003D01*
X583329Y998747D01*
X583850Y1000693D01*
Y1002707D01*
X583329Y1004653D01*
X582322Y1006397D01*
X580897Y1007821D01*
X579153Y1008829D01*
X577207Y1009350D01*
X575193D01*
X574503Y1009165D01*
X530078Y1053589D01*
Y1089705D01*
X530246Y1089750D01*
X532754Y1091198D01*
X534802Y1093246D01*
X536250Y1095754D01*
X537000Y1098552D01*
Y1101448D01*
X536250Y1104246D01*
X534802Y1106754D01*
X532754Y1108802D01*
X530246Y1110250D01*
X527448Y1111000D01*
D02*
G37*
G36*
X441000Y1011000D02*
X419000D01*
Y989000D01*
X441000D01*
Y1011000D01*
D02*
G37*
G36*
X779750Y974550D02*
X766750D01*
Y969800D01*
X779750D01*
Y974550D01*
D02*
G37*
G36*
X441000Y961000D02*
X419000D01*
Y939000D01*
X441000D01*
Y961000D01*
D02*
G37*
G36*
X577207Y983950D02*
X575193D01*
X573247Y983428D01*
X571503Y982421D01*
X570079Y980997D01*
X569071Y979253D01*
X568550Y977307D01*
Y975293D01*
X569071Y973347D01*
X570079Y971603D01*
X571503Y970178D01*
X573247Y969171D01*
X575193Y968650D01*
X577207D01*
X577897Y968835D01*
X578616Y968116D01*
X578616Y968116D01*
X579939Y967232D01*
X581500Y966921D01*
X581500Y966921D01*
X601000D01*
Y961500D01*
X605422D01*
Y955500D01*
X601000D01*
Y936500D01*
X618000D01*
Y955500D01*
X613578D01*
Y961500D01*
X618000D01*
Y980500D01*
X601000D01*
Y975078D01*
X584015D01*
X583850Y975293D01*
Y977307D01*
X583329Y979253D01*
X582322Y980997D01*
X580897Y982421D01*
X579153Y983428D01*
X577207Y983950D01*
D02*
G37*
G36*
X1124650Y936404D02*
X1122868Y935927D01*
X1120782Y934722D01*
X1119078Y933018D01*
X1117874Y930932D01*
X1117396Y929150D01*
X1124650D01*
Y936404D01*
D02*
G37*
G36*
X1245950Y936104D02*
Y928850D01*
X1253204D01*
X1252727Y930632D01*
X1251522Y932718D01*
X1249818Y934422D01*
X1247732Y935626D01*
X1245950Y936104D01*
D02*
G37*
G36*
X1242450D02*
X1240668Y935626D01*
X1238582Y934422D01*
X1236878Y932718D01*
X1235674Y930632D01*
X1235196Y928850D01*
X1242450D01*
Y936104D01*
D02*
G37*
G36*
X431750Y936472D02*
Y925750D01*
X442472D01*
X441648Y928825D01*
X440003Y931675D01*
X437675Y934003D01*
X434825Y935648D01*
X431750Y936472D01*
D02*
G37*
G36*
X428250D02*
X425175Y935648D01*
X422325Y934003D01*
X419998Y931675D01*
X418352Y928825D01*
X417528Y925750D01*
X428250D01*
Y936472D01*
D02*
G37*
G36*
X1054650Y935050D02*
X1039350D01*
Y919750D01*
X1054650D01*
Y935050D01*
D02*
G37*
G36*
X1172450Y934750D02*
X1157150D01*
Y919450D01*
X1172450D01*
Y934750D01*
D02*
G37*
G36*
X1124650Y925650D02*
X1117396D01*
X1117874Y923868D01*
X1119078Y921782D01*
X1120782Y920078D01*
X1122868Y918874D01*
X1124650Y918396D01*
Y925650D01*
D02*
G37*
G36*
X1253204Y925350D02*
X1245950D01*
Y918096D01*
X1247732Y918574D01*
X1249818Y919778D01*
X1251522Y921482D01*
X1252727Y923568D01*
X1253204Y925350D01*
D02*
G37*
G36*
X1242450D02*
X1235196D01*
X1235674Y923568D01*
X1236878Y921482D01*
X1238582Y919778D01*
X1240668Y918574D01*
X1242450Y918096D01*
Y925350D01*
D02*
G37*
G36*
X442472Y922250D02*
X431750D01*
Y911528D01*
X434825Y912352D01*
X437675Y913998D01*
X440003Y916325D01*
X441648Y919175D01*
X442472Y922250D01*
D02*
G37*
G36*
X428250D02*
X417528D01*
X418352Y919175D01*
X419998Y916325D01*
X422325Y913998D01*
X425175Y912352D01*
X428250Y911528D01*
Y922250D01*
D02*
G37*
G36*
X1048007Y909650D02*
X1045993D01*
X1044047Y909129D01*
X1042303Y908122D01*
X1040879Y906697D01*
X1039872Y904953D01*
X1039350Y903007D01*
Y900993D01*
X1039872Y899047D01*
X1040879Y897303D01*
X1042303Y895879D01*
X1044047Y894872D01*
X1045993Y894350D01*
X1048007D01*
X1049953Y894872D01*
X1051697Y895879D01*
X1053122Y897303D01*
X1054129Y899047D01*
X1054650Y900993D01*
Y903007D01*
X1054129Y904953D01*
X1053122Y906697D01*
X1051697Y908122D01*
X1049953Y909129D01*
X1048007Y909650D01*
D02*
G37*
G36*
X1127407Y884250D02*
X1125393D01*
X1123447Y883729D01*
X1121703Y882722D01*
X1120279Y881297D01*
X1119271Y879553D01*
X1118750Y877607D01*
Y875593D01*
X1119271Y873647D01*
X1120279Y871903D01*
X1121703Y870479D01*
X1123447Y869472D01*
X1125393Y868950D01*
X1127407D01*
X1129353Y869472D01*
X1131097Y870479D01*
X1132522Y871903D01*
X1133529Y873647D01*
X1134050Y875593D01*
Y877607D01*
X1133529Y879553D01*
X1132522Y881297D01*
X1131097Y882722D01*
X1129353Y883729D01*
X1127407Y884250D01*
D02*
G37*
G36*
X1184000Y1065500D02*
X1167000D01*
Y1046500D01*
X1171422D01*
Y992531D01*
X1146265Y967375D01*
X1145381Y966052D01*
X1145071Y964491D01*
X1145071Y964491D01*
Y891951D01*
X1145071Y891951D01*
X1145381Y890390D01*
X1146265Y889067D01*
X1157335Y877997D01*
X1157150Y877307D01*
Y875293D01*
X1157671Y873347D01*
X1158678Y871603D01*
X1160103Y870179D01*
X1161847Y869171D01*
X1163793Y868650D01*
X1165807D01*
X1167753Y869171D01*
X1169497Y870179D01*
X1170164Y870845D01*
X1171434Y870319D01*
Y864827D01*
X1171194Y864630D01*
X1171194Y864630D01*
X1155700D01*
X1155700Y864630D01*
X1154139Y864320D01*
X1152816Y863436D01*
X1134274Y844894D01*
X1133390Y843571D01*
X1133080Y842010D01*
X1133080Y842010D01*
Y785247D01*
X1115911Y768078D01*
X1073500D01*
Y777000D01*
X1034500D01*
Y751000D01*
X1049922D01*
Y715000D01*
X1046000D01*
Y689000D01*
X1062000D01*
Y715000D01*
X1058078D01*
Y751000D01*
X1073500D01*
Y759922D01*
X1117600D01*
X1117600Y759922D01*
X1119161Y760232D01*
X1120484Y761116D01*
X1139938Y780570D01*
X1140376Y780519D01*
X1141208Y780133D01*
Y737616D01*
X1141208Y737616D01*
X1141518Y736055D01*
X1142402Y734732D01*
X1142986Y734149D01*
Y727500D01*
X1128000D01*
Y708500D01*
X1128555D01*
X1129041Y707327D01*
X1112430Y690716D01*
X1111546Y689393D01*
X1111236Y687832D01*
X1111236Y687832D01*
Y633476D01*
X1111236Y633476D01*
X1111546Y631915D01*
X1112430Y630592D01*
X1143926Y599096D01*
X1143926Y599096D01*
X1145249Y598212D01*
X1146810Y597902D01*
X1146810Y597902D01*
X1250950D01*
X1250950Y597902D01*
X1252511Y598212D01*
X1253834Y599096D01*
X1274916Y620178D01*
X1274916Y620178D01*
X1275800Y621501D01*
X1276110Y623062D01*
Y742500D01*
X1275800Y744061D01*
X1274916Y745384D01*
X1273593Y746268D01*
X1272032Y746578D01*
X1270000D01*
Y750000D01*
X1256000D01*
Y735000D01*
X1254937Y734500D01*
X1254500D01*
Y727250D01*
X1263000D01*
Y725500D01*
X1264750D01*
Y716500D01*
X1267954D01*
Y624751D01*
X1257022Y613820D01*
X1255737Y614330D01*
X1255329Y615853D01*
X1254322Y617597D01*
X1252897Y619021D01*
X1251153Y620029D01*
X1249207Y620550D01*
X1247193D01*
X1245247Y620029D01*
X1243503Y619021D01*
X1242079Y617597D01*
X1241071Y615853D01*
X1240550Y613907D01*
Y611893D01*
X1241071Y609947D01*
X1242079Y608203D01*
X1242953Y607328D01*
X1242427Y606058D01*
X1174573D01*
X1174047Y607328D01*
X1174921Y608203D01*
X1175928Y609947D01*
X1176450Y611893D01*
Y613907D01*
X1175928Y615853D01*
X1174921Y617597D01*
X1173497Y619021D01*
X1171753Y620029D01*
X1169807Y620550D01*
X1167793D01*
X1167102Y620365D01*
X1155936Y631532D01*
X1154613Y632416D01*
X1153052Y632726D01*
X1153052Y632726D01*
X1135293D01*
X1132193Y635826D01*
X1132679Y637000D01*
X1148500D01*
Y641422D01*
X1152398D01*
X1152398Y641422D01*
X1153959Y641732D01*
X1155282Y642616D01*
X1157049Y644384D01*
X1162405D01*
X1162891Y643210D01*
X1162678Y642997D01*
X1161671Y641253D01*
X1161150Y639307D01*
Y637293D01*
X1161671Y635347D01*
X1162678Y633603D01*
X1164103Y632178D01*
X1165847Y631171D01*
X1167793Y630650D01*
X1169807D01*
X1171753Y631171D01*
X1173497Y632178D01*
X1174921Y633603D01*
X1175928Y635347D01*
X1176450Y637293D01*
Y639307D01*
X1175928Y641253D01*
X1174921Y642997D01*
X1174708Y643210D01*
X1175194Y644384D01*
X1236349D01*
X1240735Y639997D01*
X1240550Y639307D01*
Y637293D01*
X1241071Y635347D01*
X1242079Y633603D01*
X1243503Y632178D01*
X1245247Y631171D01*
X1247193Y630650D01*
X1249207D01*
X1251153Y631171D01*
X1252897Y632178D01*
X1254322Y633603D01*
X1255329Y635347D01*
X1255850Y637293D01*
Y639307D01*
X1255329Y641253D01*
X1254322Y642997D01*
X1252897Y644421D01*
X1251153Y645429D01*
X1249207Y645950D01*
X1247193D01*
X1246503Y645765D01*
X1240922Y651346D01*
X1239599Y652230D01*
X1238038Y652540D01*
X1238038Y652540D01*
X1155360D01*
X1155360Y652540D01*
X1153799Y652230D01*
X1152476Y651346D01*
X1152476Y651346D01*
X1150709Y649578D01*
X1148500D01*
Y654000D01*
X1131578D01*
Y656000D01*
X1148500D01*
Y660422D01*
X1151920D01*
X1152653Y659932D01*
X1154214Y659622D01*
X1154214Y659622D01*
X1162321D01*
X1162678Y659003D01*
X1164103Y657578D01*
X1165847Y656571D01*
X1167793Y656050D01*
X1169807D01*
X1171753Y656571D01*
X1173497Y657578D01*
X1174921Y659003D01*
X1175928Y660747D01*
X1176450Y662693D01*
Y664707D01*
X1175928Y666653D01*
X1174921Y668397D01*
X1173497Y669821D01*
X1171753Y670829D01*
X1169807Y671350D01*
X1167793D01*
X1165847Y670829D01*
X1164103Y669821D01*
X1162678Y668397D01*
X1162321Y667778D01*
X1155708D01*
X1154975Y668268D01*
X1153414Y668578D01*
X1153414Y668578D01*
X1148500D01*
Y673000D01*
X1133063D01*
X1132537Y674270D01*
X1158838Y700571D01*
X1158838Y700571D01*
X1159722Y701894D01*
X1160032Y703455D01*
X1160032Y703455D01*
Y741999D01*
X1176494D01*
Y749921D01*
X1189500D01*
Y745000D01*
X1218500D01*
Y760231D01*
X1223608Y765339D01*
X1223608Y765339D01*
X1224492Y766662D01*
X1224802Y768223D01*
X1224802Y768223D01*
Y854119D01*
X1224802Y854119D01*
X1224492Y855680D01*
X1223608Y857003D01*
X1223608Y857003D01*
X1176027Y904584D01*
X1174704Y905468D01*
X1173143Y905778D01*
X1173143Y905778D01*
X1172437D01*
X1172290Y906004D01*
X1172977Y907274D01*
X1207459D01*
X1236735Y877997D01*
X1236550Y877307D01*
Y875293D01*
X1237072Y873347D01*
X1238079Y871603D01*
X1239503Y870179D01*
X1241247Y869171D01*
X1243193Y868650D01*
X1245207D01*
X1247153Y869171D01*
X1248650Y870035D01*
X1249920Y869583D01*
Y857617D01*
X1248650Y857165D01*
X1247153Y858029D01*
X1245207Y858550D01*
X1243193D01*
X1241247Y858029D01*
X1239503Y857021D01*
X1238079Y855597D01*
X1237072Y853853D01*
X1236550Y851907D01*
Y849893D01*
X1237072Y847947D01*
X1238079Y846203D01*
X1239503Y844779D01*
X1241247Y843771D01*
X1243193Y843250D01*
X1245207D01*
X1247153Y843771D01*
X1248650Y844635D01*
X1249920Y844183D01*
Y770039D01*
X1235620Y755740D01*
X1234736Y754417D01*
X1234426Y752856D01*
X1234426Y752856D01*
Y673396D01*
X1234426Y673396D01*
X1234736Y671835D01*
X1235620Y670512D01*
X1240735Y665397D01*
X1240550Y664707D01*
Y662693D01*
X1241071Y660747D01*
X1242079Y659003D01*
X1243503Y657578D01*
X1245247Y656571D01*
X1247193Y656050D01*
X1249207D01*
X1251153Y656571D01*
X1252897Y657578D01*
X1254322Y659003D01*
X1255329Y660747D01*
X1255850Y662693D01*
Y664707D01*
X1255329Y666653D01*
X1254322Y668397D01*
X1252897Y669821D01*
X1251153Y670829D01*
X1249207Y671350D01*
X1247193D01*
X1246503Y671165D01*
X1242582Y675086D01*
Y680508D01*
X1243682Y681143D01*
X1244668Y680574D01*
X1246450Y680096D01*
Y689100D01*
Y698104D01*
X1244668Y697626D01*
X1243682Y697057D01*
X1242582Y697692D01*
Y751167D01*
X1256882Y765466D01*
X1256882Y765466D01*
X1257766Y766789D01*
X1258076Y768350D01*
Y891902D01*
X1258076Y891902D01*
X1257766Y893463D01*
X1256882Y894786D01*
X1256882Y894786D01*
X1251665Y900003D01*
X1251850Y900693D01*
Y902707D01*
X1251329Y904653D01*
X1250322Y906397D01*
X1248897Y907822D01*
X1247153Y908829D01*
X1245207Y909350D01*
X1243193D01*
X1241247Y908829D01*
X1239503Y907822D01*
X1238079Y906397D01*
X1237072Y904653D01*
X1236550Y902707D01*
Y900693D01*
X1237072Y898747D01*
X1238079Y897003D01*
X1239503Y895579D01*
X1241247Y894571D01*
X1243193Y894050D01*
X1245207D01*
X1245898Y894235D01*
X1249920Y890213D01*
Y883017D01*
X1248650Y882565D01*
X1247153Y883429D01*
X1245207Y883950D01*
X1243193D01*
X1242503Y883765D01*
X1212032Y914236D01*
X1210709Y915120D01*
X1209148Y915430D01*
X1209148Y915430D01*
X1158452D01*
X1158451Y915430D01*
X1156891Y915120D01*
X1155567Y914236D01*
X1155567Y914236D01*
X1154401Y913069D01*
X1153228Y913555D01*
Y962802D01*
X1178384Y987958D01*
X1178384Y987958D01*
X1179268Y989281D01*
X1179578Y990842D01*
Y1046500D01*
X1184000D01*
Y1065500D01*
D02*
G37*
G36*
X1127407Y858850D02*
X1125393D01*
X1123447Y858329D01*
X1121703Y857322D01*
X1120279Y855897D01*
X1119271Y854153D01*
X1118750Y852207D01*
Y850193D01*
X1119271Y848247D01*
X1120279Y846503D01*
X1121703Y845079D01*
X1123447Y844072D01*
X1125393Y843550D01*
X1127407D01*
X1129353Y844072D01*
X1131097Y845079D01*
X1132522Y846503D01*
X1133529Y848247D01*
X1134050Y850193D01*
Y852207D01*
X1133529Y854153D01*
X1132522Y855897D01*
X1131097Y857322D01*
X1129353Y858329D01*
X1127407Y858850D01*
D02*
G37*
G36*
X1261250Y723750D02*
X1254500D01*
Y716500D01*
X1261250D01*
Y723750D01*
D02*
G37*
G36*
X1126000Y727500D02*
X1109000D01*
Y723257D01*
X1108652Y722078D01*
X1108652Y722078D01*
X1093000D01*
X1091439Y721768D01*
X1090116Y720884D01*
X1090116Y720884D01*
X1084232Y715000D01*
X1069000D01*
Y689000D01*
X1085000D01*
Y704232D01*
X1094689Y713922D01*
X1097239D01*
X1097254Y713886D01*
X1097590Y712652D01*
X1096814Y711491D01*
X1096504Y709930D01*
X1096504Y709930D01*
Y709510D01*
X1096343Y709350D01*
X1095582Y707512D01*
Y705523D01*
X1096343Y703686D01*
X1097750Y702279D01*
X1099587Y701518D01*
X1101577D01*
X1103414Y702279D01*
X1104821Y703686D01*
X1105582Y705523D01*
Y707512D01*
X1105099Y708679D01*
X1107827Y711407D01*
X1109000Y710921D01*
Y708500D01*
X1126000D01*
Y727500D01*
D02*
G37*
G36*
X1039000Y715000D02*
X1023000D01*
Y706078D01*
X1012000D01*
Y711500D01*
X995000D01*
Y692500D01*
X1012000D01*
Y697922D01*
X1023000D01*
Y689000D01*
X1039000D01*
Y715000D01*
D02*
G37*
G36*
X924750Y713472D02*
Y702750D01*
X935472D01*
X934648Y705825D01*
X933002Y708675D01*
X930675Y711002D01*
X927825Y712648D01*
X924750Y713472D01*
D02*
G37*
G36*
X921250D02*
X918175Y712648D01*
X915325Y711002D01*
X912998Y708675D01*
X911352Y705825D01*
X910528Y702750D01*
X921250D01*
Y713472D01*
D02*
G37*
G36*
X950448Y712000D02*
X947552D01*
X944754Y711250D01*
X942246Y709802D01*
X940198Y707754D01*
X938749Y705246D01*
X938000Y702448D01*
Y699552D01*
X938749Y696754D01*
X940198Y694246D01*
X942246Y692198D01*
X944754Y690750D01*
X947552Y690000D01*
X950448D01*
X953246Y690750D01*
X955754Y692198D01*
X957802Y694246D01*
X959250Y696754D01*
X959295Y696921D01*
X966216D01*
X966216Y696921D01*
X967777Y697232D01*
X968809Y697922D01*
X976000D01*
Y692500D01*
X993000D01*
Y711500D01*
X976000D01*
Y706078D01*
X967216D01*
X967216Y706078D01*
X965656Y705768D01*
X964623Y705078D01*
X959295D01*
X959250Y705246D01*
X957802Y707754D01*
X955754Y709802D01*
X953246Y711250D01*
X950448Y712000D01*
D02*
G37*
G36*
X1249950Y698104D02*
Y690850D01*
X1257204D01*
X1256727Y692632D01*
X1255522Y694718D01*
X1253818Y696422D01*
X1251732Y697626D01*
X1249950Y698104D01*
D02*
G37*
G36*
X935472Y699250D02*
X924750D01*
Y688528D01*
X927825Y689352D01*
X930675Y690997D01*
X933002Y693325D01*
X934648Y696175D01*
X935472Y699250D01*
D02*
G37*
G36*
X921250D02*
X910528D01*
X911352Y696175D01*
X912998Y693325D01*
X915325Y690997D01*
X918175Y689352D01*
X921250Y688528D01*
Y699250D01*
D02*
G37*
G36*
X1176450Y696750D02*
X1161150D01*
Y681450D01*
X1176450D01*
Y696750D01*
D02*
G37*
G36*
X1257204Y687350D02*
X1249950D01*
Y680096D01*
X1251732Y680574D01*
X1253818Y681778D01*
X1255522Y683482D01*
X1256727Y685568D01*
X1257204Y687350D01*
D02*
G37*
%LPD*%
D27*
X1071000Y1016000D02*
D03*
Y1056000D02*
D03*
X1204000Y797000D02*
D03*
Y757000D02*
D03*
X1161994Y753999D02*
D03*
Y793999D02*
D03*
X1121000Y1056000D02*
D03*
Y1016000D02*
D03*
D28*
X926000Y1043500D02*
D03*
Y1060500D02*
D03*
X927000Y889500D02*
D03*
Y906500D02*
D03*
X630000Y1013500D02*
D03*
Y996500D02*
D03*
X1263000Y725500D02*
D03*
Y742500D02*
D03*
D29*
X954600Y923865D02*
D03*
X973600D02*
D03*
X954600Y947865D02*
D03*
X973600D02*
D03*
X884500Y916000D02*
D03*
X865500D02*
D03*
X884426Y890300D02*
D03*
X865426D02*
D03*
X823500Y968000D02*
D03*
X804500D02*
D03*
X823500Y943000D02*
D03*
X804500D02*
D03*
X689500Y1018000D02*
D03*
X670500D02*
D03*
X689500Y992000D02*
D03*
X670500D02*
D03*
X628500Y971000D02*
D03*
X609500D02*
D03*
X628500Y946000D02*
D03*
X609500D02*
D03*
X1175500Y1056000D02*
D03*
X1156500D02*
D03*
X984500Y702000D02*
D03*
X1003500D02*
D03*
X1136500Y718000D02*
D03*
X1117500D02*
D03*
D30*
X840500Y991000D02*
D03*
X823500D02*
D03*
X687500Y968000D02*
D03*
X670500D02*
D03*
D31*
X765000Y929950D02*
D03*
Y942650D02*
D03*
Y955350D02*
D03*
Y968050D02*
D03*
X713000Y929950D02*
D03*
Y942650D02*
D03*
Y955350D02*
D03*
Y968050D02*
D03*
X925000Y936950D02*
D03*
Y949650D02*
D03*
Y962350D02*
D03*
Y975050D02*
D03*
X873000Y936950D02*
D03*
Y949650D02*
D03*
Y962350D02*
D03*
Y975050D02*
D03*
D32*
X676000Y946500D02*
D03*
Y927500D02*
D03*
X651000Y946500D02*
D03*
Y927500D02*
D03*
X466000Y1013000D02*
D03*
Y1032000D02*
D03*
X1139000Y645500D02*
D03*
Y664500D02*
D03*
D33*
X1054000Y764000D02*
D03*
D34*
X1077000Y702000D02*
D03*
X1054000D02*
D03*
X1031000D02*
D03*
D35*
X989590Y1083310D02*
X994162Y1078738D01*
X919734D02*
X924306Y1083310D01*
X907796Y1066800D02*
X919734Y1078738D01*
X994162D01*
X867918D02*
X919734D01*
X687324Y961898D02*
X691190D01*
X687324D02*
Y968000D01*
X922489Y889500D02*
X927000D01*
X914400D02*
X922489D01*
X1121000Y950600D02*
Y1005176D01*
X857504Y916000D02*
X865500D01*
X704850D02*
X857504D01*
Y946150D01*
X697738Y938713D02*
X701675Y942650D01*
X686525Y927500D02*
X697738Y938713D01*
X1161994Y753999D02*
X1206500D01*
X1220724Y768223D01*
X1155954Y703455D02*
Y753999D01*
X1175512Y793999D02*
X1181354D01*
X1175512D02*
Y882650D01*
X1108652Y718000D02*
X1117500D01*
X1093000D02*
X1108652D01*
X526000Y1051900D02*
X576200Y1001700D01*
X526000Y1051900D02*
Y1100000D01*
X729996Y933450D02*
Y957580D01*
X713000Y929950D02*
X729996Y933450D01*
X873000Y936950D02*
X892500D01*
X892556Y937006D01*
X860622Y962350D02*
X873000D01*
X840500Y982472D02*
X860622Y962350D01*
X840500Y982472D02*
Y991000D01*
X927000Y906500D02*
Y917414D01*
X933450Y923865D01*
X954600D01*
Y947865D02*
Y962660D01*
X942594Y974666D02*
X954600Y962660D01*
X942594Y974666D02*
Y1005094D01*
X952800Y1015300D01*
X1121000Y1005176D02*
Y1016000D01*
X1117600Y1001776D02*
X1121000Y1005176D01*
X991724Y1001776D02*
X1117600D01*
X952800Y1040700D02*
X991724Y1001776D01*
X466000Y963676D02*
Y1013000D01*
Y963676D02*
X488860Y940816D01*
X566116D01*
X576200Y950900D01*
X581500Y971000D02*
X609500D01*
X576200Y976300D02*
X581500Y971000D01*
X701675Y942650D02*
X713000D01*
X697738Y923112D02*
Y938713D01*
Y923112D02*
X704850Y916000D01*
X676000Y927500D02*
X686525D01*
X1220724Y768223D02*
Y854119D01*
X1173143Y901700D02*
X1220724Y854119D01*
X1164800Y901700D02*
X1173143D01*
X1161994Y753999D02*
X1204000Y757000D01*
X1139000Y645500D02*
X1152398D01*
X1155360Y648462D01*
X1238038D01*
X1248200Y638300D01*
X1077000Y702000D02*
X1093000Y718000D01*
X884426Y874269D02*
Y890300D01*
Y874269D02*
X889000Y869696D01*
X902685D01*
X922489Y889500D01*
X873000Y962350D02*
X891794D01*
X899668Y954476D01*
Y888238D02*
Y954476D01*
X973092Y888238D02*
X973600Y888746D01*
Y923865D01*
X823500Y991000D02*
Y996950D01*
X826802Y1000252D01*
X876300D01*
X889000Y987552D01*
Y973836D02*
Y987552D01*
Y973836D02*
X907034Y955802D01*
Y896866D02*
Y955802D01*
Y896866D02*
X914400Y889500D01*
X765000Y955350D02*
X783138D01*
X792988Y965200D01*
Y1003808D01*
X867918Y1078738D01*
X994162D02*
X1032200Y1040700D01*
X911225Y962350D02*
X925000D01*
X907796Y965779D02*
X911225Y962350D01*
X907796Y965779D02*
Y1066800D01*
X924306Y1083310D02*
X989590D01*
X752236Y942650D02*
X765000D01*
X748736Y946150D02*
X752236Y942650D01*
X748736Y946150D02*
Y968050D01*
X724786Y992000D02*
X748736Y968050D01*
X689500Y992000D02*
X724786D01*
X1100582Y709930D02*
X1108652Y718000D01*
X1100582Y706518D02*
Y709930D01*
X1145286Y831386D02*
X1164800Y850900D01*
X1145286Y737616D02*
Y831386D01*
Y737616D02*
X1147064Y735838D01*
Y707390D02*
Y735838D01*
X1121500Y681826D02*
X1147064Y707390D01*
X1121500Y640752D02*
Y681826D01*
Y640752D02*
X1133604Y628648D01*
X1153052D01*
X1168800Y612900D01*
X1155954Y753999D02*
X1161994D01*
X1127500Y675000D02*
X1155954Y703455D01*
X1127500Y645500D02*
Y675000D01*
Y645500D02*
X1139000D01*
X1263000Y742500D02*
X1272032D01*
Y623062D02*
Y742500D01*
X1250950Y601980D02*
X1272032Y623062D01*
X1146810Y601980D02*
X1250950D01*
X1115314Y633476D02*
X1146810Y601980D01*
X1115314Y633476D02*
Y687832D01*
X1136500Y709018D01*
Y718000D01*
X1054000Y764000D02*
X1117600D01*
X1137158Y783558D01*
Y842010D01*
X1155700Y860552D01*
X1171194D01*
X1174496Y857250D01*
Y816412D02*
Y857250D01*
X1161994Y803910D02*
X1174496Y816412D01*
X1161994Y793999D02*
Y803910D01*
X1149149Y891951D02*
X1164800Y876300D01*
X1149149Y891951D02*
Y964491D01*
X1175500Y990842D01*
Y1056000D01*
X1161994Y793999D02*
X1175512D01*
X1172210Y885952D02*
X1175512Y882650D01*
X1166114Y885952D02*
X1172210D01*
X1155149Y896917D02*
X1166114Y885952D01*
X1155149Y896917D02*
Y908050D01*
X1158451Y911352D01*
X1209148D01*
X1244200Y876300D01*
X630000Y1013500D02*
Y1028700D01*
X637112Y1035812D01*
X682498D01*
X689500Y1028810D01*
Y1018000D02*
Y1028810D01*
X1126400Y902000D02*
X1137666Y913266D01*
Y1032002D01*
X1128968Y1040700D02*
X1137666Y1032002D01*
X1032200Y1040700D02*
X1128968D01*
X952800Y989900D02*
X999236Y943464D01*
Y898964D02*
Y943464D01*
Y898964D02*
X1047000Y851200D01*
X500000Y1045210D02*
Y1100000D01*
Y1045210D02*
X506476Y1038734D01*
Y960576D02*
Y1038734D01*
X496800Y950900D02*
X506476Y960576D01*
X1047000Y876600D02*
X1121000Y950600D01*
X687324Y968000D02*
X687500D01*
X691190Y961898D02*
X697738Y955350D01*
X713000D01*
X861004Y949650D02*
X873000D01*
X857504Y946150D02*
X861004Y949650D01*
X1244200Y901700D02*
X1253998Y891902D01*
Y768350D02*
Y891902D01*
X1238504Y752856D02*
X1253998Y768350D01*
X1238504Y673396D02*
Y752856D01*
Y673396D02*
X1248200Y663700D01*
X967216Y702000D02*
X984500D01*
X966216Y701000D02*
X967216Y702000D01*
X949000Y701000D02*
X966216D01*
X670500Y988296D02*
Y992000D01*
Y988296D02*
X687500Y971296D01*
Y968000D02*
Y971296D01*
X670500Y992000D02*
Y1018000D01*
Y959778D02*
Y968000D01*
Y959778D02*
X676000Y954278D01*
Y946500D02*
Y954278D01*
X630000Y984480D02*
Y996500D01*
X628500Y982980D02*
X630000Y984480D01*
X628500Y971000D02*
Y982980D01*
X651000Y946500D02*
X676000D01*
X628500Y946000D02*
Y971000D01*
X639818Y946500D02*
X651000D01*
X639318Y946000D02*
X639818Y946500D01*
X628500Y946000D02*
X639318D01*
X784702Y943000D02*
X804500D01*
X784352Y942650D02*
X784702Y943000D01*
X765000Y942650D02*
X784352D01*
X804500Y943000D02*
Y968000D01*
X689500Y992000D02*
Y1018000D01*
X973600Y923865D02*
Y947865D01*
X884500Y903044D02*
Y916000D01*
X884426Y902970D02*
X884500Y903044D01*
X884426Y890300D02*
Y902970D01*
X823500Y943000D02*
Y968000D01*
Y991000D01*
X940570Y947865D02*
X954600D01*
X938784Y949650D02*
X940570Y947865D01*
X925000Y949650D02*
X938784D01*
X954600Y923865D02*
Y947865D01*
X940568Y1040700D02*
X952800D01*
X937768Y1043500D02*
X940568Y1040700D01*
X926000Y1043500D02*
X937768D01*
X483690Y1027100D02*
X496800D01*
X478790Y1032000D02*
X483690Y1027100D01*
X466000Y1032000D02*
X478790D01*
X609500Y946000D02*
Y971000D01*
X865500Y903044D02*
Y916000D01*
X865426Y902970D02*
X865500Y903044D01*
X865426Y890300D02*
Y902970D01*
X651000Y927500D02*
X676000D01*
X1051752Y1016000D02*
X1071000D01*
X1051052Y1015300D02*
X1051752Y1016000D01*
X1032200Y1015300D02*
X1051052D01*
X1184355Y797000D02*
X1204000D01*
X1181354Y793999D02*
X1184355Y797000D01*
X1054000Y702000D02*
Y764000D01*
X1154214Y663700D02*
X1168800D01*
X1153414Y664500D02*
X1154214Y663700D01*
X1139000Y664500D02*
X1153414D01*
X1071000Y1056000D02*
X1121000D01*
X1156500D01*
X1003500Y702000D02*
X1031000D01*
D36*
X952800Y1066100D02*
D03*
X496800Y1027100D02*
D03*
X1047000Y927400D02*
D03*
X1164800Y927100D02*
D03*
X1168800Y689100D02*
D03*
D37*
X952800Y1040700D02*
D03*
Y1015300D02*
D03*
Y989900D02*
D03*
X1032200D02*
D03*
Y1015300D02*
D03*
Y1040700D02*
D03*
Y1066100D02*
D03*
X496800Y1001700D02*
D03*
Y976300D02*
D03*
Y950900D02*
D03*
X576200D02*
D03*
Y976300D02*
D03*
Y1001700D02*
D03*
Y1027100D02*
D03*
X1047000Y902000D02*
D03*
Y876600D02*
D03*
Y851200D02*
D03*
X1126400D02*
D03*
Y876600D02*
D03*
Y902000D02*
D03*
Y927400D02*
D03*
X1164800Y901700D02*
D03*
Y876300D02*
D03*
Y850900D02*
D03*
X1244200D02*
D03*
Y876300D02*
D03*
Y901700D02*
D03*
Y927100D02*
D03*
X1168800Y663700D02*
D03*
Y638300D02*
D03*
Y612900D02*
D03*
X1248200D02*
D03*
Y638300D02*
D03*
Y663700D02*
D03*
Y689100D02*
D03*
D38*
X500000Y1100000D02*
D03*
D39*
X552000D02*
D03*
X526000D02*
D03*
X430000Y1026000D02*
D03*
Y924000D02*
D03*
X923000Y701000D02*
D03*
X949000D02*
D03*
D40*
X430000Y1000000D02*
D03*
Y950000D02*
D03*
D41*
X729996Y957580D02*
D03*
X892556Y937006D02*
D03*
X899668Y888238D02*
D03*
X973092D02*
D03*
X1100582Y706518D02*
D03*
M02*
