%TF.GenerationSoftware,KiCad,Pcbnew,8.0.6-8.0.6-0~ubuntu22.04.1*%
%TF.CreationDate,2024-10-31T15:12:39+03:00*%
%TF.ProjectId,first_proj,66697273-745f-4707-926f-6a2e6b696361,rev?*%
%TF.SameCoordinates,Original*%
%TF.FileFunction,Copper,L2,Bot*%
%TF.FilePolarity,Positive*%
%FSLAX46Y46*%
G04 Gerber Fmt 4.6, Leading zero omitted, Abs format (unit mm)*
G04 Created by KiCad (PCBNEW 8.0.6-8.0.6-0~ubuntu22.04.1) date 2024-10-31 15:12:39*
%MOMM*%
%LPD*%
G01*
G04 APERTURE LIST*
%TA.AperFunction,ComponentPad*%
%ADD10O,1.600000X2.500000*%
%TD*%
%TA.AperFunction,ComponentPad*%
%ADD11O,3.500000X7.000000*%
%TD*%
%TA.AperFunction,ComponentPad*%
%ADD12C,0.800000*%
%TD*%
%TA.AperFunction,ComponentPad*%
%ADD13C,6.400000*%
%TD*%
%TA.AperFunction,ComponentPad*%
%ADD14R,1.700000X1.700000*%
%TD*%
%TA.AperFunction,ComponentPad*%
%ADD15O,1.700000X1.700000*%
%TD*%
%TA.AperFunction,ViaPad*%
%ADD16C,0.600000*%
%TD*%
%TA.AperFunction,Conductor*%
%ADD17C,0.200000*%
%TD*%
G04 APERTURE END LIST*
D10*
%TO.P,J2,1,In*%
%TO.N,Net-(J2-In)*%
X117500000Y-85050000D03*
D11*
%TO.P,J2,2,Ext*%
%TO.N,GND*%
X112420000Y-79970000D03*
D10*
X114960000Y-85050000D03*
D11*
X122580000Y-79970000D03*
%TD*%
D12*
%TO.P,J8,1,Pin_1*%
%TO.N,GND*%
X102600000Y-105000000D03*
X103302944Y-103302944D03*
X103302944Y-106697056D03*
X105000000Y-102600000D03*
D13*
X105000000Y-105000000D03*
D12*
X105000000Y-107400000D03*
X106697056Y-103302944D03*
X106697056Y-106697056D03*
X107400000Y-105000000D03*
%TD*%
%TO.P,J6,1,Pin_1*%
%TO.N,GND*%
X152600000Y-55000000D03*
X153302944Y-53302944D03*
X153302944Y-56697056D03*
X155000000Y-52600000D03*
D13*
X155000000Y-55000000D03*
D12*
X155000000Y-57400000D03*
X156697056Y-53302944D03*
X156697056Y-56697056D03*
X157400000Y-55000000D03*
%TD*%
%TO.P,J7,1,Pin_1*%
%TO.N,GND*%
X152600000Y-105000000D03*
X153302944Y-103302944D03*
X153302944Y-106697056D03*
X155000000Y-102600000D03*
D13*
X155000000Y-105000000D03*
D12*
X155000000Y-107400000D03*
X156697056Y-103302944D03*
X156697056Y-106697056D03*
X157400000Y-105000000D03*
%TD*%
%TO.P,J5,1,Pin_1*%
%TO.N,GND*%
X102600000Y-55000000D03*
X103302944Y-53302944D03*
X103302944Y-56697056D03*
X105000000Y-52600000D03*
D13*
X105000000Y-55000000D03*
D12*
X105000000Y-57400000D03*
X106697056Y-53302944D03*
X106697056Y-56697056D03*
X107400000Y-55000000D03*
%TD*%
D10*
%TO.P,J1,1,In*%
%TO.N,Net-(J1-In)*%
X135000000Y-85050000D03*
D11*
%TO.P,J1,2,Ext*%
%TO.N,GND*%
X129920000Y-79970000D03*
D10*
X132460000Y-85050000D03*
D11*
X140080000Y-79970000D03*
%TD*%
D14*
%TO.P,J4,1,Pin_1*%
%TO.N,-5V*%
X114000000Y-103000000D03*
D15*
%TO.P,J4,2,Pin_2*%
%TO.N,GND*%
X114000000Y-105540000D03*
%TD*%
D14*
%TO.P,J3,1,Pin_1*%
%TO.N,+5V*%
X119500000Y-103000000D03*
D15*
%TO.P,J3,2,Pin_2*%
%TO.N,GND*%
X119500000Y-105540000D03*
%TD*%
D16*
%TO.N,GND*%
X144500000Y-97500000D03*
X142862500Y-100000000D03*
%TO.N,Net-(J2-In)*%
X119000000Y-94230000D03*
X151000000Y-96087500D03*
%TO.N,+5V*%
X124500000Y-96500000D03*
%TO.N,Net-(U2--)*%
X151000000Y-99500000D03*
X109500000Y-93000000D03*
%TD*%
D17*
%TO.N,GND*%
X144500000Y-97500000D02*
X142862500Y-99137500D01*
X142862500Y-99137500D02*
X142862500Y-100000000D01*
%TO.N,Net-(J2-In)*%
X119000000Y-94230000D02*
X144881471Y-94230000D01*
X144881471Y-94230000D02*
X150751471Y-100100000D01*
X150751471Y-100100000D02*
X151248529Y-100100000D01*
X151248529Y-100100000D02*
X152000000Y-99348529D01*
X152000000Y-99348529D02*
X152000000Y-97087500D01*
X152000000Y-97087500D02*
X151000000Y-96087500D01*
%TO.N,+5V*%
X119500000Y-101500000D02*
X124500000Y-96500000D01*
X119500000Y-103000000D02*
X119500000Y-101500000D01*
%TO.N,Net-(U2--)*%
X144500000Y-93000000D02*
X151000000Y-99500000D01*
X109500000Y-93000000D02*
X144500000Y-93000000D01*
%TD*%
%TA.AperFunction,Conductor*%
%TO.N,GND*%
G36*
X158944089Y-50520185D02*
G01*
X158989844Y-50572989D01*
X159001046Y-50623449D01*
X159498931Y-109373876D01*
X159479815Y-109441080D01*
X159427400Y-109487281D01*
X159373875Y-109498922D01*
X101122940Y-109001050D01*
X101056071Y-108980794D01*
X101010769Y-108927601D01*
X101000000Y-108877055D01*
X101000000Y-104999999D01*
X101294922Y-104999999D01*
X101294922Y-105000000D01*
X101315219Y-105387287D01*
X101375886Y-105770323D01*
X101375887Y-105770330D01*
X101476262Y-106144936D01*
X101615244Y-106506994D01*
X101791310Y-106852543D01*
X102002531Y-107177793D01*
X102211095Y-107435350D01*
X102211096Y-107435350D01*
X103705748Y-105940698D01*
X103779588Y-106042330D01*
X103957670Y-106220412D01*
X104059300Y-106294251D01*
X102564648Y-107788903D01*
X102564649Y-107788904D01*
X102822206Y-107997468D01*
X103147456Y-108208689D01*
X103493005Y-108384755D01*
X103855063Y-108523737D01*
X104229669Y-108624112D01*
X104229676Y-108624113D01*
X104612712Y-108684780D01*
X104999999Y-108705078D01*
X105000001Y-108705078D01*
X105387287Y-108684780D01*
X105770323Y-108624113D01*
X105770330Y-108624112D01*
X106144936Y-108523737D01*
X106506994Y-108384755D01*
X106852543Y-108208689D01*
X107177783Y-107997476D01*
X107177785Y-107997475D01*
X107435349Y-107788902D01*
X105940698Y-106294251D01*
X106042330Y-106220412D01*
X106220412Y-106042330D01*
X106294251Y-105940698D01*
X107788902Y-107435349D01*
X107997475Y-107177785D01*
X107997476Y-107177783D01*
X108208689Y-106852543D01*
X108384755Y-106506994D01*
X108523737Y-106144936D01*
X108624112Y-105770330D01*
X108624113Y-105770323D01*
X108684780Y-105387287D01*
X108705078Y-105000000D01*
X108705078Y-104999999D01*
X108684780Y-104612712D01*
X108624113Y-104229676D01*
X108624112Y-104229669D01*
X108523737Y-103855063D01*
X108384755Y-103493005D01*
X108208689Y-103147456D01*
X107997468Y-102822206D01*
X107788904Y-102564649D01*
X107788903Y-102564648D01*
X106294251Y-104059300D01*
X106220412Y-103957670D01*
X106042330Y-103779588D01*
X105940698Y-103705748D01*
X107435350Y-102211096D01*
X107435350Y-102211095D01*
X107300795Y-102102135D01*
X112649500Y-102102135D01*
X112649500Y-103897870D01*
X112649501Y-103897876D01*
X112655908Y-103957483D01*
X112706202Y-104092328D01*
X112706206Y-104092335D01*
X112792452Y-104207544D01*
X112792455Y-104207547D01*
X112907664Y-104293793D01*
X112907671Y-104293797D01*
X112907674Y-104293798D01*
X113039598Y-104343002D01*
X113095531Y-104384873D01*
X113119949Y-104450337D01*
X113105098Y-104518610D01*
X113083947Y-104546865D01*
X112961886Y-104668926D01*
X112826400Y-104862420D01*
X112826399Y-104862422D01*
X112726570Y-105076507D01*
X112726567Y-105076513D01*
X112669364Y-105289999D01*
X112669364Y-105290000D01*
X113566988Y-105290000D01*
X113534075Y-105347007D01*
X113500000Y-105474174D01*
X113500000Y-105605826D01*
X113534075Y-105732993D01*
X113566988Y-105790000D01*
X112669364Y-105790000D01*
X112726567Y-106003486D01*
X112726570Y-106003492D01*
X112826399Y-106217578D01*
X112961894Y-106411082D01*
X113128917Y-106578105D01*
X113322421Y-106713600D01*
X113536507Y-106813429D01*
X113536516Y-106813433D01*
X113750000Y-106870634D01*
X113750000Y-105973012D01*
X113807007Y-106005925D01*
X113934174Y-106040000D01*
X114065826Y-106040000D01*
X114192993Y-106005925D01*
X114250000Y-105973012D01*
X114250000Y-106870633D01*
X114463483Y-106813433D01*
X114463492Y-106813429D01*
X114677578Y-106713600D01*
X114871082Y-106578105D01*
X115038105Y-106411082D01*
X115173600Y-106217578D01*
X115273429Y-106003492D01*
X115273432Y-106003486D01*
X115330636Y-105790000D01*
X114433012Y-105790000D01*
X114465925Y-105732993D01*
X114500000Y-105605826D01*
X114500000Y-105474174D01*
X114465925Y-105347007D01*
X114433012Y-105290000D01*
X115330636Y-105290000D01*
X115330635Y-105289999D01*
X115273432Y-105076513D01*
X115273429Y-105076507D01*
X115173600Y-104862422D01*
X115173599Y-104862420D01*
X115038113Y-104668926D01*
X115038108Y-104668920D01*
X114916053Y-104546865D01*
X114882568Y-104485542D01*
X114887552Y-104415850D01*
X114929424Y-104359917D01*
X114960400Y-104343002D01*
X115092331Y-104293796D01*
X115207546Y-104207546D01*
X115293796Y-104092331D01*
X115344091Y-103957483D01*
X115350500Y-103897873D01*
X115350499Y-102102135D01*
X118149500Y-102102135D01*
X118149500Y-103897870D01*
X118149501Y-103897876D01*
X118155908Y-103957483D01*
X118206202Y-104092328D01*
X118206206Y-104092335D01*
X118292452Y-104207544D01*
X118292455Y-104207547D01*
X118407664Y-104293793D01*
X118407671Y-104293797D01*
X118407674Y-104293798D01*
X118539598Y-104343002D01*
X118595531Y-104384873D01*
X118619949Y-104450337D01*
X118605098Y-104518610D01*
X118583947Y-104546865D01*
X118461886Y-104668926D01*
X118326400Y-104862420D01*
X118326399Y-104862422D01*
X118226570Y-105076507D01*
X118226567Y-105076513D01*
X118169364Y-105289999D01*
X118169364Y-105290000D01*
X119066988Y-105290000D01*
X119034075Y-105347007D01*
X119000000Y-105474174D01*
X119000000Y-105605826D01*
X119034075Y-105732993D01*
X119066988Y-105790000D01*
X118169364Y-105790000D01*
X118226567Y-106003486D01*
X118226570Y-106003492D01*
X118326399Y-106217578D01*
X118461894Y-106411082D01*
X118628917Y-106578105D01*
X118822421Y-106713600D01*
X119036507Y-106813429D01*
X119036516Y-106813433D01*
X119250000Y-106870634D01*
X119250000Y-105973012D01*
X119307007Y-106005925D01*
X119434174Y-106040000D01*
X119565826Y-106040000D01*
X119692993Y-106005925D01*
X119750000Y-105973012D01*
X119750000Y-106870634D01*
X119963483Y-106813433D01*
X119963492Y-106813429D01*
X120177578Y-106713600D01*
X120371082Y-106578105D01*
X120538105Y-106411082D01*
X120673600Y-106217578D01*
X120773429Y-106003492D01*
X120773432Y-106003486D01*
X120830636Y-105790000D01*
X119933012Y-105790000D01*
X119965925Y-105732993D01*
X120000000Y-105605826D01*
X120000000Y-105474174D01*
X119965925Y-105347007D01*
X119933012Y-105290000D01*
X120830636Y-105290000D01*
X120830635Y-105289999D01*
X120773432Y-105076513D01*
X120773429Y-105076507D01*
X120737753Y-104999999D01*
X151294922Y-104999999D01*
X151294922Y-105000000D01*
X151315219Y-105387287D01*
X151375886Y-105770323D01*
X151375887Y-105770330D01*
X151476262Y-106144936D01*
X151615244Y-106506994D01*
X151791310Y-106852543D01*
X152002531Y-107177793D01*
X152211095Y-107435350D01*
X152211096Y-107435350D01*
X153705748Y-105940698D01*
X153779588Y-106042330D01*
X153957670Y-106220412D01*
X154059300Y-106294251D01*
X152564648Y-107788903D01*
X152564649Y-107788904D01*
X152822206Y-107997468D01*
X153147456Y-108208689D01*
X153493005Y-108384755D01*
X153855063Y-108523737D01*
X154229669Y-108624112D01*
X154229676Y-108624113D01*
X154612712Y-108684780D01*
X154999999Y-108705078D01*
X155000001Y-108705078D01*
X155387287Y-108684780D01*
X155770323Y-108624113D01*
X155770330Y-108624112D01*
X156144936Y-108523737D01*
X156506994Y-108384755D01*
X156852543Y-108208689D01*
X157177783Y-107997476D01*
X157177785Y-107997475D01*
X157435349Y-107788902D01*
X155940698Y-106294251D01*
X156042330Y-106220412D01*
X156220412Y-106042330D01*
X156294251Y-105940698D01*
X157788902Y-107435349D01*
X157997475Y-107177785D01*
X157997476Y-107177783D01*
X158208689Y-106852543D01*
X158384755Y-106506994D01*
X158523737Y-106144936D01*
X158624112Y-105770330D01*
X158624113Y-105770323D01*
X158684780Y-105387287D01*
X158705078Y-105000000D01*
X158705078Y-104999999D01*
X158684780Y-104612712D01*
X158624113Y-104229676D01*
X158624112Y-104229669D01*
X158523737Y-103855063D01*
X158384755Y-103493005D01*
X158208689Y-103147456D01*
X157997468Y-102822206D01*
X157788904Y-102564649D01*
X157788903Y-102564648D01*
X156294251Y-104059300D01*
X156220412Y-103957670D01*
X156042330Y-103779588D01*
X155940698Y-103705748D01*
X157435350Y-102211096D01*
X157435350Y-102211095D01*
X157177793Y-102002531D01*
X156852543Y-101791310D01*
X156506994Y-101615244D01*
X156144936Y-101476262D01*
X155770330Y-101375887D01*
X155770323Y-101375886D01*
X155387287Y-101315219D01*
X155000001Y-101294922D01*
X154999999Y-101294922D01*
X154612712Y-101315219D01*
X154229676Y-101375886D01*
X154229669Y-101375887D01*
X153855063Y-101476262D01*
X153493005Y-101615244D01*
X153147456Y-101791310D01*
X152822206Y-102002531D01*
X152564648Y-102211095D01*
X152564648Y-102211096D01*
X154059301Y-103705748D01*
X153957670Y-103779588D01*
X153779588Y-103957670D01*
X153705748Y-104059300D01*
X152211096Y-102564648D01*
X152211095Y-102564648D01*
X152002531Y-102822206D01*
X151791310Y-103147456D01*
X151615244Y-103493005D01*
X151476262Y-103855063D01*
X151375887Y-104229669D01*
X151375886Y-104229676D01*
X151315219Y-104612712D01*
X151294922Y-104999999D01*
X120737753Y-104999999D01*
X120673600Y-104862422D01*
X120673599Y-104862420D01*
X120538113Y-104668926D01*
X120538108Y-104668920D01*
X120416053Y-104546865D01*
X120382568Y-104485542D01*
X120387552Y-104415850D01*
X120429424Y-104359917D01*
X120460400Y-104343002D01*
X120592331Y-104293796D01*
X120707546Y-104207546D01*
X120793796Y-104092331D01*
X120844091Y-103957483D01*
X120850500Y-103897873D01*
X120850499Y-102102128D01*
X120844091Y-102042517D01*
X120829177Y-102002531D01*
X120793797Y-101907671D01*
X120793793Y-101907664D01*
X120707547Y-101792455D01*
X120707544Y-101792452D01*
X120592335Y-101706206D01*
X120592328Y-101706202D01*
X120450215Y-101653198D01*
X120450932Y-101651273D01*
X120399486Y-101621975D01*
X120367102Y-101560063D01*
X120373331Y-101490472D01*
X120401037Y-101448196D01*
X124518535Y-97330698D01*
X124579856Y-97297215D01*
X124592311Y-97295163D01*
X124679255Y-97285368D01*
X124849522Y-97225789D01*
X125002262Y-97129816D01*
X125129816Y-97002262D01*
X125225789Y-96849522D01*
X125285368Y-96679255D01*
X125285369Y-96679249D01*
X125305565Y-96500003D01*
X125305565Y-96499996D01*
X125285369Y-96320750D01*
X125285368Y-96320745D01*
X125225788Y-96150476D01*
X125129815Y-95997737D01*
X125002262Y-95870184D01*
X124849523Y-95774211D01*
X124679254Y-95714631D01*
X124679249Y-95714630D01*
X124500004Y-95694435D01*
X124499996Y-95694435D01*
X124320750Y-95714630D01*
X124320745Y-95714631D01*
X124150476Y-95774211D01*
X123997737Y-95870184D01*
X123870184Y-95997737D01*
X123774210Y-96150478D01*
X123714630Y-96320750D01*
X123704837Y-96407668D01*
X123677770Y-96472082D01*
X123669298Y-96481465D01*
X119131286Y-101019478D01*
X119019481Y-101131282D01*
X119019479Y-101131285D01*
X118969361Y-101218094D01*
X118969359Y-101218096D01*
X118940425Y-101268209D01*
X118940424Y-101268210D01*
X118940423Y-101268215D01*
X118899499Y-101420943D01*
X118899499Y-101420945D01*
X118899499Y-101525500D01*
X118879814Y-101592539D01*
X118827010Y-101638294D01*
X118775500Y-101649500D01*
X118602130Y-101649500D01*
X118602123Y-101649501D01*
X118542516Y-101655908D01*
X118407671Y-101706202D01*
X118407664Y-101706206D01*
X118292455Y-101792452D01*
X118292452Y-101792455D01*
X118206206Y-101907664D01*
X118206202Y-101907671D01*
X118155908Y-102042517D01*
X118149501Y-102102116D01*
X118149501Y-102102123D01*
X118149500Y-102102135D01*
X115350499Y-102102135D01*
X115350499Y-102102128D01*
X115344091Y-102042517D01*
X115329177Y-102002531D01*
X115293797Y-101907671D01*
X115293793Y-101907664D01*
X115207547Y-101792455D01*
X115207544Y-101792452D01*
X115092335Y-101706206D01*
X115092328Y-101706202D01*
X114957482Y-101655908D01*
X114957483Y-101655908D01*
X114897883Y-101649501D01*
X114897881Y-101649500D01*
X114897873Y-101649500D01*
X114897864Y-101649500D01*
X113102129Y-101649500D01*
X113102123Y-101649501D01*
X113042516Y-101655908D01*
X112907671Y-101706202D01*
X112907664Y-101706206D01*
X112792455Y-101792452D01*
X112792452Y-101792455D01*
X112706206Y-101907664D01*
X112706202Y-101907671D01*
X112655908Y-102042517D01*
X112649501Y-102102116D01*
X112649501Y-102102123D01*
X112649500Y-102102135D01*
X107300795Y-102102135D01*
X107177793Y-102002531D01*
X106852543Y-101791310D01*
X106506994Y-101615244D01*
X106144936Y-101476262D01*
X105770330Y-101375887D01*
X105770323Y-101375886D01*
X105387287Y-101315219D01*
X105000001Y-101294922D01*
X104999999Y-101294922D01*
X104612712Y-101315219D01*
X104229676Y-101375886D01*
X104229669Y-101375887D01*
X103855063Y-101476262D01*
X103493005Y-101615244D01*
X103147456Y-101791310D01*
X102822206Y-102002531D01*
X102564648Y-102211095D01*
X102564648Y-102211096D01*
X104059301Y-103705748D01*
X103957670Y-103779588D01*
X103779588Y-103957670D01*
X103705748Y-104059300D01*
X102211096Y-102564648D01*
X102211095Y-102564648D01*
X102002531Y-102822206D01*
X101791310Y-103147456D01*
X101615244Y-103493005D01*
X101476262Y-103855063D01*
X101375887Y-104229669D01*
X101375886Y-104229676D01*
X101315219Y-104612712D01*
X101294922Y-104999999D01*
X101000000Y-104999999D01*
X101000000Y-92999996D01*
X108694435Y-92999996D01*
X108694435Y-93000003D01*
X108714630Y-93179249D01*
X108714631Y-93179254D01*
X108774211Y-93349523D01*
X108870184Y-93502262D01*
X108997738Y-93629816D01*
X109150478Y-93725789D01*
X109320745Y-93785368D01*
X109320750Y-93785369D01*
X109499996Y-93805565D01*
X109500000Y-93805565D01*
X109500004Y-93805565D01*
X109679249Y-93785369D01*
X109679252Y-93785368D01*
X109679255Y-93785368D01*
X109849522Y-93725789D01*
X110002262Y-93629816D01*
X110002267Y-93629810D01*
X110005097Y-93627555D01*
X110007275Y-93626665D01*
X110008158Y-93626111D01*
X110008255Y-93626265D01*
X110069783Y-93601145D01*
X110082412Y-93600500D01*
X118225772Y-93600500D01*
X118292811Y-93620185D01*
X118338566Y-93672989D01*
X118348510Y-93742147D01*
X118330765Y-93790473D01*
X118274211Y-93880475D01*
X118214631Y-94050745D01*
X118214630Y-94050750D01*
X118194435Y-94229996D01*
X118194435Y-94230003D01*
X118214630Y-94409249D01*
X118214631Y-94409254D01*
X118274211Y-94579523D01*
X118370184Y-94732262D01*
X118497738Y-94859816D01*
X118650478Y-94955789D01*
X118820745Y-95015368D01*
X118820750Y-95015369D01*
X118999996Y-95035565D01*
X119000000Y-95035565D01*
X119000004Y-95035565D01*
X119179249Y-95015369D01*
X119179252Y-95015368D01*
X119179255Y-95015368D01*
X119349522Y-94955789D01*
X119502262Y-94859816D01*
X119502267Y-94859810D01*
X119505097Y-94857555D01*
X119507275Y-94856665D01*
X119508158Y-94856111D01*
X119508255Y-94856265D01*
X119569783Y-94831145D01*
X119582412Y-94830500D01*
X144581374Y-94830500D01*
X144648413Y-94850185D01*
X144669054Y-94866818D01*
X150382755Y-100580520D01*
X150382757Y-100580521D01*
X150382761Y-100580524D01*
X150519680Y-100659573D01*
X150519687Y-100659577D01*
X150672414Y-100700501D01*
X150672416Y-100700501D01*
X150838125Y-100700501D01*
X150838141Y-100700500D01*
X151161860Y-100700500D01*
X151161876Y-100700501D01*
X151169472Y-100700501D01*
X151327583Y-100700501D01*
X151327586Y-100700501D01*
X151480314Y-100659577D01*
X151530433Y-100630639D01*
X151617245Y-100580520D01*
X151729049Y-100468716D01*
X151729049Y-100468714D01*
X151739257Y-100458507D01*
X151739259Y-100458504D01*
X152358506Y-99839257D01*
X152358511Y-99839253D01*
X152368714Y-99829049D01*
X152368716Y-99829049D01*
X152480520Y-99717245D01*
X152559577Y-99580313D01*
X152600500Y-99427586D01*
X152600500Y-97176560D01*
X152600501Y-97176547D01*
X152600501Y-97008444D01*
X152600501Y-97008443D01*
X152559577Y-96855716D01*
X152535082Y-96813289D01*
X152480524Y-96718790D01*
X152480518Y-96718782D01*
X151830700Y-96068965D01*
X151797215Y-96007642D01*
X151795163Y-95995186D01*
X151785368Y-95908245D01*
X151725789Y-95737978D01*
X151629816Y-95585238D01*
X151502262Y-95457684D01*
X151349523Y-95361711D01*
X151179254Y-95302131D01*
X151179249Y-95302130D01*
X151000004Y-95281935D01*
X150999996Y-95281935D01*
X150820750Y-95302130D01*
X150820745Y-95302131D01*
X150650476Y-95361711D01*
X150497737Y-95457684D01*
X150370184Y-95585237D01*
X150274211Y-95737976D01*
X150214631Y-95908245D01*
X150214630Y-95908250D01*
X150194435Y-96087496D01*
X150194435Y-96087503D01*
X150214630Y-96266749D01*
X150214631Y-96266754D01*
X150274211Y-96437023D01*
X150370184Y-96589762D01*
X150497738Y-96717316D01*
X150650478Y-96813289D01*
X150820745Y-96872868D01*
X150907669Y-96882661D01*
X150972080Y-96909726D01*
X150981465Y-96918200D01*
X151363181Y-97299916D01*
X151396666Y-97361239D01*
X151399500Y-97387597D01*
X151399500Y-98616937D01*
X151379815Y-98683976D01*
X151327011Y-98729731D01*
X151257853Y-98739675D01*
X151234547Y-98733979D01*
X151179249Y-98714630D01*
X151179252Y-98714630D01*
X151092330Y-98704837D01*
X151027916Y-98677770D01*
X151018533Y-98669298D01*
X144987590Y-92638355D01*
X144987588Y-92638352D01*
X144868717Y-92519481D01*
X144868709Y-92519475D01*
X144766936Y-92460717D01*
X144766934Y-92460716D01*
X144731790Y-92440425D01*
X144731789Y-92440424D01*
X144719263Y-92437067D01*
X144579057Y-92399499D01*
X144420943Y-92399499D01*
X144413347Y-92399499D01*
X144413331Y-92399500D01*
X110082412Y-92399500D01*
X110015373Y-92379815D01*
X110005097Y-92372445D01*
X110002263Y-92370185D01*
X110002262Y-92370184D01*
X109945496Y-92334515D01*
X109849523Y-92274211D01*
X109679254Y-92214631D01*
X109679249Y-92214630D01*
X109500004Y-92194435D01*
X109499996Y-92194435D01*
X109320750Y-92214630D01*
X109320745Y-92214631D01*
X109150476Y-92274211D01*
X108997737Y-92370184D01*
X108870184Y-92497737D01*
X108774211Y-92650476D01*
X108714631Y-92820745D01*
X108714630Y-92820750D01*
X108694435Y-92999996D01*
X101000000Y-92999996D01*
X101000000Y-84497682D01*
X113660000Y-84497682D01*
X113660000Y-84800000D01*
X114590496Y-84800000D01*
X114545326Y-84878236D01*
X114515000Y-84991415D01*
X114515000Y-85108585D01*
X114545326Y-85221764D01*
X114590496Y-85300000D01*
X113660000Y-85300000D01*
X113660000Y-85602317D01*
X113692009Y-85804417D01*
X113755244Y-85999031D01*
X113848140Y-86181349D01*
X113968417Y-86346894D01*
X113968417Y-86346895D01*
X114113104Y-86491582D01*
X114278650Y-86611859D01*
X114460968Y-86704754D01*
X114655578Y-86767988D01*
X114710000Y-86776607D01*
X114710000Y-85419504D01*
X114788236Y-85464674D01*
X114901415Y-85495000D01*
X115018585Y-85495000D01*
X115131764Y-85464674D01*
X115210000Y-85419504D01*
X115210000Y-86776606D01*
X115264421Y-86767988D01*
X115459031Y-86704754D01*
X115641349Y-86611859D01*
X115806894Y-86491582D01*
X115806895Y-86491582D01*
X115951582Y-86346895D01*
X115951582Y-86346894D01*
X116071861Y-86181347D01*
X116119234Y-86088371D01*
X116167208Y-86037575D01*
X116235028Y-86020779D01*
X116301164Y-86043316D01*
X116340203Y-86088369D01*
X116387713Y-86181611D01*
X116508028Y-86347213D01*
X116652786Y-86491971D01*
X116807749Y-86604556D01*
X116818390Y-86612287D01*
X116934607Y-86671503D01*
X117000776Y-86705218D01*
X117000778Y-86705218D01*
X117000781Y-86705220D01*
X117105137Y-86739127D01*
X117195465Y-86768477D01*
X117296557Y-86784488D01*
X117397648Y-86800500D01*
X117397649Y-86800500D01*
X117602351Y-86800500D01*
X117602352Y-86800500D01*
X117804534Y-86768477D01*
X117999219Y-86705220D01*
X118181610Y-86612287D01*
X118274590Y-86544732D01*
X118347213Y-86491971D01*
X118347215Y-86491968D01*
X118347219Y-86491966D01*
X118491966Y-86347219D01*
X118491968Y-86347215D01*
X118491971Y-86347213D01*
X118544732Y-86274590D01*
X118612287Y-86181610D01*
X118705220Y-85999219D01*
X118768477Y-85804534D01*
X118800500Y-85602352D01*
X118800500Y-84497682D01*
X131160000Y-84497682D01*
X131160000Y-84800000D01*
X132090496Y-84800000D01*
X132045326Y-84878236D01*
X132015000Y-84991415D01*
X132015000Y-85108585D01*
X132045326Y-85221764D01*
X132090496Y-85300000D01*
X131160000Y-85300000D01*
X131160000Y-85602317D01*
X131192009Y-85804417D01*
X131255244Y-85999031D01*
X131348140Y-86181349D01*
X131468417Y-86346894D01*
X131468417Y-86346895D01*
X131613104Y-86491582D01*
X131778650Y-86611859D01*
X131960968Y-86704754D01*
X132155578Y-86767988D01*
X132210000Y-86776607D01*
X132210000Y-85419504D01*
X132288236Y-85464674D01*
X132401415Y-85495000D01*
X132518585Y-85495000D01*
X132631764Y-85464674D01*
X132710000Y-85419504D01*
X132710000Y-86776606D01*
X132764421Y-86767988D01*
X132959031Y-86704754D01*
X133141349Y-86611859D01*
X133306894Y-86491582D01*
X133306895Y-86491582D01*
X133451582Y-86346895D01*
X133451582Y-86346894D01*
X133571861Y-86181347D01*
X133619234Y-86088371D01*
X133667208Y-86037575D01*
X133735028Y-86020779D01*
X133801164Y-86043316D01*
X133840203Y-86088369D01*
X133887713Y-86181611D01*
X134008028Y-86347213D01*
X134152786Y-86491971D01*
X134307749Y-86604556D01*
X134318390Y-86612287D01*
X134434607Y-86671503D01*
X134500776Y-86705218D01*
X134500778Y-86705218D01*
X134500781Y-86705220D01*
X134605137Y-86739127D01*
X134695465Y-86768477D01*
X134796557Y-86784488D01*
X134897648Y-86800500D01*
X134897649Y-86800500D01*
X135102351Y-86800500D01*
X135102352Y-86800500D01*
X135304534Y-86768477D01*
X135499219Y-86705220D01*
X135681610Y-86612287D01*
X135774590Y-86544732D01*
X135847213Y-86491971D01*
X135847215Y-86491968D01*
X135847219Y-86491966D01*
X135991966Y-86347219D01*
X135991968Y-86347215D01*
X135991971Y-86347213D01*
X136044732Y-86274590D01*
X136112287Y-86181610D01*
X136205220Y-85999219D01*
X136268477Y-85804534D01*
X136300500Y-85602352D01*
X136300500Y-84497648D01*
X136268477Y-84295465D01*
X136239127Y-84205137D01*
X136205220Y-84100781D01*
X136205218Y-84100778D01*
X136205218Y-84100776D01*
X136159794Y-84011628D01*
X136112287Y-83918390D01*
X136066349Y-83855161D01*
X135991971Y-83752786D01*
X135847213Y-83608028D01*
X135681613Y-83487715D01*
X135681612Y-83487714D01*
X135681610Y-83487713D01*
X135624653Y-83458691D01*
X135499223Y-83394781D01*
X135304534Y-83331522D01*
X135129995Y-83303878D01*
X135102352Y-83299500D01*
X134897648Y-83299500D01*
X134873329Y-83303351D01*
X134695465Y-83331522D01*
X134500776Y-83394781D01*
X134318386Y-83487715D01*
X134152786Y-83608028D01*
X134008028Y-83752786D01*
X133887713Y-83918388D01*
X133840203Y-84011630D01*
X133792228Y-84062426D01*
X133724407Y-84079220D01*
X133658272Y-84056682D01*
X133619234Y-84011628D01*
X133571861Y-83918652D01*
X133451582Y-83753105D01*
X133451582Y-83753104D01*
X133306895Y-83608417D01*
X133141349Y-83488140D01*
X132959029Y-83395244D01*
X132764413Y-83332009D01*
X132710000Y-83323390D01*
X132710000Y-84680495D01*
X132631764Y-84635326D01*
X132518585Y-84605000D01*
X132401415Y-84605000D01*
X132288236Y-84635326D01*
X132210000Y-84680495D01*
X132210000Y-83323390D01*
X132155586Y-83332009D01*
X131960970Y-83395244D01*
X131778650Y-83488140D01*
X131613105Y-83608417D01*
X131613104Y-83608417D01*
X131468417Y-83753104D01*
X131468417Y-83753105D01*
X131348140Y-83918650D01*
X131255244Y-84100968D01*
X131192009Y-84295582D01*
X131160000Y-84497682D01*
X118800500Y-84497682D01*
X118800500Y-84497648D01*
X118768477Y-84295465D01*
X118739127Y-84205137D01*
X118705220Y-84100781D01*
X118705218Y-84100778D01*
X118705218Y-84100776D01*
X118659794Y-84011628D01*
X118612287Y-83918390D01*
X118566349Y-83855161D01*
X118491971Y-83752786D01*
X118347213Y-83608028D01*
X118181613Y-83487715D01*
X118181612Y-83487714D01*
X118181610Y-83487713D01*
X118124653Y-83458691D01*
X117999223Y-83394781D01*
X117804534Y-83331522D01*
X117629995Y-83303878D01*
X117602352Y-83299500D01*
X117397648Y-83299500D01*
X117373329Y-83303351D01*
X117195465Y-83331522D01*
X117000776Y-83394781D01*
X116818386Y-83487715D01*
X116652786Y-83608028D01*
X116508028Y-83752786D01*
X116387713Y-83918388D01*
X116340203Y-84011630D01*
X116292228Y-84062426D01*
X116224407Y-84079220D01*
X116158272Y-84056682D01*
X116119234Y-84011628D01*
X116071861Y-83918652D01*
X115951582Y-83753105D01*
X115951582Y-83753104D01*
X115806895Y-83608417D01*
X115641349Y-83488140D01*
X115459029Y-83395244D01*
X115264413Y-83332009D01*
X115210000Y-83323390D01*
X115210000Y-84680495D01*
X115131764Y-84635326D01*
X115018585Y-84605000D01*
X114901415Y-84605000D01*
X114788236Y-84635326D01*
X114710000Y-84680495D01*
X114710000Y-83323390D01*
X114655586Y-83332009D01*
X114460970Y-83395244D01*
X114278650Y-83488140D01*
X114113105Y-83608417D01*
X114113104Y-83608417D01*
X113968417Y-83753104D01*
X113968417Y-83753105D01*
X113848140Y-83918650D01*
X113755244Y-84100968D01*
X113692009Y-84295582D01*
X113660000Y-84497682D01*
X101000000Y-84497682D01*
X101000000Y-78072533D01*
X110170000Y-78072533D01*
X110170000Y-79720000D01*
X111445038Y-79720000D01*
X111415000Y-79871016D01*
X111415000Y-80068984D01*
X111445038Y-80220000D01*
X110170000Y-80220000D01*
X110170000Y-81867466D01*
X110170001Y-81867483D01*
X110208496Y-82159884D01*
X110208499Y-82159897D01*
X110284835Y-82444790D01*
X110284838Y-82444800D01*
X110397704Y-82717281D01*
X110397709Y-82717292D01*
X110545174Y-82972707D01*
X110545185Y-82972723D01*
X110724729Y-83206709D01*
X110724735Y-83206716D01*
X110933283Y-83415264D01*
X110933290Y-83415270D01*
X111167276Y-83594814D01*
X111167292Y-83594825D01*
X111422707Y-83742290D01*
X111422718Y-83742295D01*
X111695199Y-83855161D01*
X111695209Y-83855164D01*
X111980102Y-83931500D01*
X111980115Y-83931503D01*
X112170000Y-83956502D01*
X112170000Y-80944961D01*
X112321016Y-80975000D01*
X112518984Y-80975000D01*
X112670000Y-80944961D01*
X112670000Y-83956501D01*
X112859884Y-83931503D01*
X112859897Y-83931500D01*
X113144790Y-83855164D01*
X113144800Y-83855161D01*
X113417281Y-83742295D01*
X113417292Y-83742290D01*
X113672707Y-83594825D01*
X113672723Y-83594814D01*
X113906709Y-83415270D01*
X113906716Y-83415264D01*
X114115264Y-83206716D01*
X114115270Y-83206709D01*
X114294814Y-82972723D01*
X114294825Y-82972707D01*
X114442290Y-82717292D01*
X114442295Y-82717281D01*
X114555161Y-82444800D01*
X114555164Y-82444790D01*
X114631500Y-82159897D01*
X114631503Y-82159884D01*
X114669998Y-81867483D01*
X114670000Y-81867466D01*
X114670000Y-80220000D01*
X113394962Y-80220000D01*
X113425000Y-80068984D01*
X113425000Y-79871016D01*
X113394962Y-79720000D01*
X114670000Y-79720000D01*
X114670000Y-78072533D01*
X120330000Y-78072533D01*
X120330000Y-79720000D01*
X121605038Y-79720000D01*
X121575000Y-79871016D01*
X121575000Y-80068984D01*
X121605038Y-80220000D01*
X120330000Y-80220000D01*
X120330000Y-81867466D01*
X120330001Y-81867483D01*
X120368496Y-82159884D01*
X120368499Y-82159897D01*
X120444835Y-82444790D01*
X120444838Y-82444800D01*
X120557704Y-82717281D01*
X120557709Y-82717292D01*
X120705174Y-82972707D01*
X120705185Y-82972723D01*
X120884729Y-83206709D01*
X120884735Y-83206716D01*
X121093283Y-83415264D01*
X121093290Y-83415270D01*
X121327276Y-83594814D01*
X121327292Y-83594825D01*
X121582707Y-83742290D01*
X121582718Y-83742295D01*
X121855199Y-83855161D01*
X121855209Y-83855164D01*
X122140102Y-83931500D01*
X122140115Y-83931503D01*
X122330000Y-83956502D01*
X122330000Y-80944961D01*
X122481016Y-80975000D01*
X122678984Y-80975000D01*
X122830000Y-80944961D01*
X122830000Y-83956501D01*
X123019884Y-83931503D01*
X123019897Y-83931500D01*
X123304790Y-83855164D01*
X123304800Y-83855161D01*
X123577281Y-83742295D01*
X123577292Y-83742290D01*
X123832707Y-83594825D01*
X123832723Y-83594814D01*
X124066709Y-83415270D01*
X124066716Y-83415264D01*
X124275264Y-83206716D01*
X124275270Y-83206709D01*
X124454814Y-82972723D01*
X124454825Y-82972707D01*
X124602290Y-82717292D01*
X124602295Y-82717281D01*
X124715161Y-82444800D01*
X124715164Y-82444790D01*
X124791500Y-82159897D01*
X124791503Y-82159884D01*
X124829998Y-81867483D01*
X124830000Y-81867466D01*
X124830000Y-80220000D01*
X123554962Y-80220000D01*
X123585000Y-80068984D01*
X123585000Y-79871016D01*
X123554962Y-79720000D01*
X124830000Y-79720000D01*
X124830000Y-78072533D01*
X127670000Y-78072533D01*
X127670000Y-79720000D01*
X128945038Y-79720000D01*
X128915000Y-79871016D01*
X128915000Y-80068984D01*
X128945038Y-80220000D01*
X127670000Y-80220000D01*
X127670000Y-81867466D01*
X127670001Y-81867483D01*
X127708496Y-82159884D01*
X127708499Y-82159897D01*
X127784835Y-82444790D01*
X127784838Y-82444800D01*
X127897704Y-82717281D01*
X127897709Y-82717292D01*
X128045174Y-82972707D01*
X128045185Y-82972723D01*
X128224729Y-83206709D01*
X128224735Y-83206716D01*
X128433283Y-83415264D01*
X128433290Y-83415270D01*
X128667276Y-83594814D01*
X128667292Y-83594825D01*
X128922707Y-83742290D01*
X128922718Y-83742295D01*
X129195199Y-83855161D01*
X129195209Y-83855164D01*
X129480102Y-83931500D01*
X129480115Y-83931503D01*
X129670000Y-83956502D01*
X129670000Y-80944961D01*
X129821016Y-80975000D01*
X130018984Y-80975000D01*
X130170000Y-80944961D01*
X130170000Y-83956502D01*
X130359884Y-83931503D01*
X130359897Y-83931500D01*
X130644790Y-83855164D01*
X130644800Y-83855161D01*
X130917281Y-83742295D01*
X130917292Y-83742290D01*
X131172707Y-83594825D01*
X131172723Y-83594814D01*
X131406709Y-83415270D01*
X131406716Y-83415264D01*
X131615264Y-83206716D01*
X131615270Y-83206709D01*
X131794814Y-82972723D01*
X131794825Y-82972707D01*
X131942290Y-82717292D01*
X131942295Y-82717281D01*
X132055161Y-82444800D01*
X132055164Y-82444790D01*
X132131500Y-82159897D01*
X132131503Y-82159884D01*
X132169998Y-81867483D01*
X132170000Y-81867466D01*
X132170000Y-80220000D01*
X130894962Y-80220000D01*
X130925000Y-80068984D01*
X130925000Y-79871016D01*
X130894962Y-79720000D01*
X132170000Y-79720000D01*
X132170000Y-78072533D01*
X137830000Y-78072533D01*
X137830000Y-79720000D01*
X139105038Y-79720000D01*
X139075000Y-79871016D01*
X139075000Y-80068984D01*
X139105038Y-80220000D01*
X137830000Y-80220000D01*
X137830000Y-81867466D01*
X137830001Y-81867483D01*
X137868496Y-82159884D01*
X137868499Y-82159897D01*
X137944835Y-82444790D01*
X137944838Y-82444800D01*
X138057704Y-82717281D01*
X138057709Y-82717292D01*
X138205174Y-82972707D01*
X138205185Y-82972723D01*
X138384729Y-83206709D01*
X138384735Y-83206716D01*
X138593283Y-83415264D01*
X138593290Y-83415270D01*
X138827276Y-83594814D01*
X138827292Y-83594825D01*
X139082707Y-83742290D01*
X139082718Y-83742295D01*
X139355199Y-83855161D01*
X139355209Y-83855164D01*
X139640102Y-83931500D01*
X139640115Y-83931503D01*
X139830000Y-83956502D01*
X139830000Y-80944961D01*
X139981016Y-80975000D01*
X140178984Y-80975000D01*
X140330000Y-80944961D01*
X140330000Y-83956502D01*
X140519884Y-83931503D01*
X140519897Y-83931500D01*
X140804790Y-83855164D01*
X140804800Y-83855161D01*
X141077281Y-83742295D01*
X141077292Y-83742290D01*
X141332707Y-83594825D01*
X141332723Y-83594814D01*
X141566709Y-83415270D01*
X141566716Y-83415264D01*
X141775264Y-83206716D01*
X141775270Y-83206709D01*
X141954814Y-82972723D01*
X141954825Y-82972707D01*
X142102290Y-82717292D01*
X142102295Y-82717281D01*
X142215161Y-82444800D01*
X142215164Y-82444790D01*
X142291500Y-82159897D01*
X142291503Y-82159884D01*
X142329998Y-81867483D01*
X142330000Y-81867466D01*
X142330000Y-80220000D01*
X141054962Y-80220000D01*
X141085000Y-80068984D01*
X141085000Y-79871016D01*
X141054962Y-79720000D01*
X142330000Y-79720000D01*
X142330000Y-78072533D01*
X142329998Y-78072516D01*
X142291503Y-77780115D01*
X142291500Y-77780102D01*
X142215164Y-77495209D01*
X142215161Y-77495199D01*
X142102295Y-77222718D01*
X142102290Y-77222707D01*
X141954825Y-76967292D01*
X141954814Y-76967276D01*
X141775270Y-76733290D01*
X141775264Y-76733283D01*
X141566716Y-76524735D01*
X141566709Y-76524729D01*
X141332723Y-76345185D01*
X141332707Y-76345174D01*
X141077292Y-76197709D01*
X141077281Y-76197704D01*
X140804800Y-76084838D01*
X140804790Y-76084835D01*
X140519897Y-76008499D01*
X140519886Y-76008497D01*
X140330000Y-75983496D01*
X140330000Y-78995038D01*
X140178984Y-78965000D01*
X139981016Y-78965000D01*
X139830000Y-78995038D01*
X139830000Y-75983496D01*
X139640113Y-76008497D01*
X139640102Y-76008499D01*
X139355209Y-76084835D01*
X139355199Y-76084838D01*
X139082718Y-76197704D01*
X139082707Y-76197709D01*
X138827292Y-76345174D01*
X138827276Y-76345185D01*
X138593290Y-76524729D01*
X138593283Y-76524735D01*
X138384735Y-76733283D01*
X138384729Y-76733290D01*
X138205185Y-76967276D01*
X138205174Y-76967292D01*
X138057709Y-77222707D01*
X138057704Y-77222718D01*
X137944838Y-77495199D01*
X137944835Y-77495209D01*
X137868499Y-77780102D01*
X137868496Y-77780115D01*
X137830001Y-78072516D01*
X137830000Y-78072533D01*
X132170000Y-78072533D01*
X132169998Y-78072516D01*
X132131503Y-77780115D01*
X132131500Y-77780102D01*
X132055164Y-77495209D01*
X132055161Y-77495199D01*
X131942295Y-77222718D01*
X131942290Y-77222707D01*
X131794825Y-76967292D01*
X131794814Y-76967276D01*
X131615270Y-76733290D01*
X131615264Y-76733283D01*
X131406716Y-76524735D01*
X131406709Y-76524729D01*
X131172723Y-76345185D01*
X131172707Y-76345174D01*
X130917292Y-76197709D01*
X130917281Y-76197704D01*
X130644800Y-76084838D01*
X130644790Y-76084835D01*
X130359897Y-76008499D01*
X130359886Y-76008497D01*
X130170000Y-75983496D01*
X130170000Y-78995038D01*
X130018984Y-78965000D01*
X129821016Y-78965000D01*
X129670000Y-78995038D01*
X129670000Y-75983496D01*
X129480113Y-76008497D01*
X129480102Y-76008499D01*
X129195209Y-76084835D01*
X129195199Y-76084838D01*
X128922718Y-76197704D01*
X128922707Y-76197709D01*
X128667292Y-76345174D01*
X128667276Y-76345185D01*
X128433290Y-76524729D01*
X128433283Y-76524735D01*
X128224735Y-76733283D01*
X128224729Y-76733290D01*
X128045185Y-76967276D01*
X128045174Y-76967292D01*
X127897709Y-77222707D01*
X127897704Y-77222718D01*
X127784838Y-77495199D01*
X127784835Y-77495209D01*
X127708499Y-77780102D01*
X127708496Y-77780115D01*
X127670001Y-78072516D01*
X127670000Y-78072533D01*
X124830000Y-78072533D01*
X124829998Y-78072516D01*
X124791503Y-77780115D01*
X124791500Y-77780102D01*
X124715164Y-77495209D01*
X124715161Y-77495199D01*
X124602295Y-77222718D01*
X124602290Y-77222707D01*
X124454825Y-76967292D01*
X124454814Y-76967276D01*
X124275270Y-76733290D01*
X124275264Y-76733283D01*
X124066716Y-76524735D01*
X124066709Y-76524729D01*
X123832723Y-76345185D01*
X123832707Y-76345174D01*
X123577292Y-76197709D01*
X123577281Y-76197704D01*
X123304800Y-76084838D01*
X123304790Y-76084835D01*
X123019897Y-76008499D01*
X123019886Y-76008497D01*
X122830000Y-75983496D01*
X122830000Y-78995038D01*
X122678984Y-78965000D01*
X122481016Y-78965000D01*
X122330000Y-78995038D01*
X122330000Y-75983496D01*
X122329999Y-75983496D01*
X122140113Y-76008497D01*
X122140102Y-76008499D01*
X121855209Y-76084835D01*
X121855199Y-76084838D01*
X121582718Y-76197704D01*
X121582707Y-76197709D01*
X121327292Y-76345174D01*
X121327276Y-76345185D01*
X121093290Y-76524729D01*
X121093283Y-76524735D01*
X120884735Y-76733283D01*
X120884729Y-76733290D01*
X120705185Y-76967276D01*
X120705174Y-76967292D01*
X120557709Y-77222707D01*
X120557704Y-77222718D01*
X120444838Y-77495199D01*
X120444835Y-77495209D01*
X120368499Y-77780102D01*
X120368496Y-77780115D01*
X120330001Y-78072516D01*
X120330000Y-78072533D01*
X114670000Y-78072533D01*
X114669998Y-78072516D01*
X114631503Y-77780115D01*
X114631500Y-77780102D01*
X114555164Y-77495209D01*
X114555161Y-77495199D01*
X114442295Y-77222718D01*
X114442290Y-77222707D01*
X114294825Y-76967292D01*
X114294814Y-76967276D01*
X114115270Y-76733290D01*
X114115264Y-76733283D01*
X113906716Y-76524735D01*
X113906709Y-76524729D01*
X113672723Y-76345185D01*
X113672707Y-76345174D01*
X113417292Y-76197709D01*
X113417281Y-76197704D01*
X113144800Y-76084838D01*
X113144790Y-76084835D01*
X112859897Y-76008499D01*
X112859886Y-76008497D01*
X112670000Y-75983496D01*
X112670000Y-78995038D01*
X112518984Y-78965000D01*
X112321016Y-78965000D01*
X112170000Y-78995038D01*
X112170000Y-75983496D01*
X111980113Y-76008497D01*
X111980102Y-76008499D01*
X111695209Y-76084835D01*
X111695199Y-76084838D01*
X111422718Y-76197704D01*
X111422707Y-76197709D01*
X111167292Y-76345174D01*
X111167276Y-76345185D01*
X110933290Y-76524729D01*
X110933283Y-76524735D01*
X110724735Y-76733283D01*
X110724729Y-76733290D01*
X110545185Y-76967276D01*
X110545174Y-76967292D01*
X110397709Y-77222707D01*
X110397704Y-77222718D01*
X110284838Y-77495199D01*
X110284835Y-77495209D01*
X110208499Y-77780102D01*
X110208496Y-77780115D01*
X110170001Y-78072516D01*
X110170000Y-78072533D01*
X101000000Y-78072533D01*
X101000000Y-54999999D01*
X101294922Y-54999999D01*
X101294922Y-55000000D01*
X101315219Y-55387287D01*
X101375886Y-55770323D01*
X101375887Y-55770330D01*
X101476262Y-56144936D01*
X101615244Y-56506994D01*
X101791310Y-56852543D01*
X102002531Y-57177793D01*
X102211095Y-57435350D01*
X102211096Y-57435350D01*
X103705748Y-55940698D01*
X103779588Y-56042330D01*
X103957670Y-56220412D01*
X104059300Y-56294251D01*
X102564648Y-57788903D01*
X102564649Y-57788904D01*
X102822206Y-57997468D01*
X103147456Y-58208689D01*
X103493005Y-58384755D01*
X103855063Y-58523737D01*
X104229669Y-58624112D01*
X104229676Y-58624113D01*
X104612712Y-58684780D01*
X104999999Y-58705078D01*
X105000001Y-58705078D01*
X105387287Y-58684780D01*
X105770323Y-58624113D01*
X105770330Y-58624112D01*
X106144936Y-58523737D01*
X106506994Y-58384755D01*
X106852543Y-58208689D01*
X107177783Y-57997476D01*
X107177785Y-57997475D01*
X107435349Y-57788902D01*
X105940698Y-56294251D01*
X106042330Y-56220412D01*
X106220412Y-56042330D01*
X106294251Y-55940698D01*
X107788902Y-57435349D01*
X107997475Y-57177785D01*
X107997476Y-57177783D01*
X108208689Y-56852543D01*
X108384755Y-56506994D01*
X108523737Y-56144936D01*
X108624112Y-55770330D01*
X108624113Y-55770323D01*
X108684780Y-55387287D01*
X108705078Y-55000000D01*
X108705078Y-54999999D01*
X151294922Y-54999999D01*
X151294922Y-55000000D01*
X151315219Y-55387287D01*
X151375886Y-55770323D01*
X151375887Y-55770330D01*
X151476262Y-56144936D01*
X151615244Y-56506994D01*
X151791310Y-56852543D01*
X152002531Y-57177793D01*
X152211095Y-57435350D01*
X152211096Y-57435350D01*
X153705748Y-55940698D01*
X153779588Y-56042330D01*
X153957670Y-56220412D01*
X154059300Y-56294251D01*
X152564648Y-57788903D01*
X152564649Y-57788904D01*
X152822206Y-57997468D01*
X153147456Y-58208689D01*
X153493005Y-58384755D01*
X153855063Y-58523737D01*
X154229669Y-58624112D01*
X154229676Y-58624113D01*
X154612712Y-58684780D01*
X154999999Y-58705078D01*
X155000001Y-58705078D01*
X155387287Y-58684780D01*
X155770323Y-58624113D01*
X155770330Y-58624112D01*
X156144936Y-58523737D01*
X156506994Y-58384755D01*
X156852543Y-58208689D01*
X157177783Y-57997476D01*
X157177785Y-57997475D01*
X157435349Y-57788902D01*
X155940698Y-56294251D01*
X156042330Y-56220412D01*
X156220412Y-56042330D01*
X156294251Y-55940698D01*
X157788902Y-57435349D01*
X157997475Y-57177785D01*
X157997476Y-57177783D01*
X158208689Y-56852543D01*
X158384755Y-56506994D01*
X158523737Y-56144936D01*
X158624112Y-55770330D01*
X158624113Y-55770323D01*
X158684780Y-55387287D01*
X158705078Y-55000000D01*
X158705078Y-54999999D01*
X158684780Y-54612712D01*
X158624113Y-54229676D01*
X158624112Y-54229669D01*
X158523737Y-53855063D01*
X158384755Y-53493005D01*
X158208689Y-53147456D01*
X157997468Y-52822206D01*
X157788904Y-52564649D01*
X157788903Y-52564648D01*
X156294251Y-54059300D01*
X156220412Y-53957670D01*
X156042330Y-53779588D01*
X155940698Y-53705748D01*
X157435350Y-52211096D01*
X157435350Y-52211095D01*
X157177793Y-52002531D01*
X156852543Y-51791310D01*
X156506994Y-51615244D01*
X156144936Y-51476262D01*
X155770330Y-51375887D01*
X155770323Y-51375886D01*
X155387287Y-51315219D01*
X155000001Y-51294922D01*
X154999999Y-51294922D01*
X154612712Y-51315219D01*
X154229676Y-51375886D01*
X154229669Y-51375887D01*
X153855063Y-51476262D01*
X153493005Y-51615244D01*
X153147456Y-51791310D01*
X152822206Y-52002531D01*
X152564648Y-52211095D01*
X152564648Y-52211096D01*
X154059301Y-53705748D01*
X153957670Y-53779588D01*
X153779588Y-53957670D01*
X153705748Y-54059300D01*
X152211096Y-52564648D01*
X152211095Y-52564648D01*
X152002531Y-52822206D01*
X151791310Y-53147456D01*
X151615244Y-53493005D01*
X151476262Y-53855063D01*
X151375887Y-54229669D01*
X151375886Y-54229676D01*
X151315219Y-54612712D01*
X151294922Y-54999999D01*
X108705078Y-54999999D01*
X108684780Y-54612712D01*
X108624113Y-54229676D01*
X108624112Y-54229669D01*
X108523737Y-53855063D01*
X108384755Y-53493005D01*
X108208689Y-53147456D01*
X107997468Y-52822206D01*
X107788904Y-52564649D01*
X107788903Y-52564648D01*
X106294251Y-54059300D01*
X106220412Y-53957670D01*
X106042330Y-53779588D01*
X105940698Y-53705748D01*
X107435350Y-52211096D01*
X107435350Y-52211095D01*
X107177793Y-52002531D01*
X106852543Y-51791310D01*
X106506994Y-51615244D01*
X106144936Y-51476262D01*
X105770330Y-51375887D01*
X105770323Y-51375886D01*
X105387287Y-51315219D01*
X105000001Y-51294922D01*
X104999999Y-51294922D01*
X104612712Y-51315219D01*
X104229676Y-51375886D01*
X104229669Y-51375887D01*
X103855063Y-51476262D01*
X103493005Y-51615244D01*
X103147456Y-51791310D01*
X102822206Y-52002531D01*
X102564648Y-52211095D01*
X102564648Y-52211096D01*
X104059301Y-53705748D01*
X103957670Y-53779588D01*
X103779588Y-53957670D01*
X103705748Y-54059300D01*
X102211096Y-52564648D01*
X102211095Y-52564648D01*
X102002531Y-52822206D01*
X101791310Y-53147456D01*
X101615244Y-53493005D01*
X101476262Y-53855063D01*
X101375887Y-54229669D01*
X101375886Y-54229676D01*
X101315219Y-54612712D01*
X101294922Y-54999999D01*
X101000000Y-54999999D01*
X101000000Y-50624500D01*
X101019685Y-50557461D01*
X101072489Y-50511706D01*
X101124000Y-50500500D01*
X158877050Y-50500500D01*
X158944089Y-50520185D01*
G37*
%TD.AperFunction*%
%TD*%
M02*
