M48
; DRILL file {KiCad 8.0.6-8.0.6-0~ubuntu22.04.1} date 2024-10-31T15:12:31+0300
; FORMAT={-:-/ absolute / inch / decimal}
; #@! TF.CreationDate,2024-10-31T15:12:31+03:00
; #@! TF.GenerationSoftware,Kicad,Pcbnew,8.0.6-8.0.6-0~ubuntu22.04.1
; #@! TF.FileFunction,Plated,1,2,PTH
FMAT,2
INCH
; #@! TA.AperFunction,Plated,PTH,ViaDrill
T1C0.0118
; #@! TA.AperFunction,Plated,PTH,ComponentDrill
T2C0.0197
; #@! TA.AperFunction,Plated,PTH,ComponentDrill
T3C0.0350
; #@! TA.AperFunction,Plated,PTH,ComponentDrill
T4C0.0394
; #@! TA.AperFunction,Plated,PTH,ComponentDrill
T5C0.0791
; #@! TA.AperFunction,Plated,PTH,ComponentDrill
T6C0.1260
%
G90
G05
T1
X4.311Y-3.6614
X4.685Y-3.7098
X4.9016Y-3.7992
X5.6245Y-3.937
X5.689Y-3.8386
X5.9449Y-3.783
X5.9449Y-3.9173
T2
X4.0394Y-2.1654
X4.0394Y-4.1339
X4.067Y-2.0985
X4.067Y-2.2322
X4.067Y-4.067
X4.067Y-4.2007
X4.1339Y-2.0709
X4.1339Y-2.2598
X4.1339Y-4.0394
X4.1339Y-4.2283
X4.2007Y-2.0985
X4.2007Y-2.2322
X4.2007Y-4.067
X4.2007Y-4.2007
X4.2283Y-2.1654
X4.2283Y-4.1339
X6.0079Y-2.1654
X6.0079Y-4.1339
X6.0355Y-2.0985
X6.0355Y-2.2322
X6.0355Y-4.067
X6.0355Y-4.2007
X6.1024Y-2.0709
X6.1024Y-2.2598
X6.1024Y-4.0394
X6.1024Y-4.2283
X6.1692Y-2.0985
X6.1692Y-2.2322
X6.1692Y-4.067
X6.1692Y-4.2007
X6.1969Y-2.1654
X6.1969Y-4.1339
T3
X4.526Y-3.3484
X4.626Y-3.3484
X5.215Y-3.3484
X5.315Y-3.3484
T4
X4.4882Y-4.0551
X4.4882Y-4.1551
X4.7047Y-4.0551
X4.7047Y-4.1551
T5
X4.426Y-3.1484
X4.826Y-3.1484
X5.115Y-3.1484
X5.515Y-3.1484
T6
X4.1339Y-2.1654
X4.1339Y-4.1339
X6.1024Y-2.1654
X6.1024Y-4.1339
M30
