%TF.GenerationSoftware,KiCad,Pcbnew,8.0.6-8.0.6-0~ubuntu22.04.1*%
%TF.CreationDate,2024-10-31T15:12:40+03:00*%
%TF.ProjectId,first_proj,66697273-745f-4707-926f-6a2e6b696361,rev?*%
%TF.SameCoordinates,Original*%
%TF.FileFunction,Soldermask,Bot*%
%TF.FilePolarity,Negative*%
%FSLAX46Y46*%
G04 Gerber Fmt 4.6, Leading zero omitted, Abs format (unit mm)*
G04 Created by KiCad (PCBNEW 8.0.6-8.0.6-0~ubuntu22.04.1) date 2024-10-31 15:12:40*
%MOMM*%
%LPD*%
G01*
G04 APERTURE LIST*
%ADD10O,1.600000X2.500000*%
%ADD11O,3.500000X7.000000*%
%ADD12C,0.800000*%
%ADD13C,6.400000*%
%ADD14R,1.700000X1.700000*%
%ADD15O,1.700000X1.700000*%
G04 APERTURE END LIST*
D10*
%TO.C,J2*%
X117500000Y-85050000D03*
D11*
X112420000Y-79970000D03*
D10*
X114960000Y-85050000D03*
D11*
X122580000Y-79970000D03*
%TD*%
D12*
%TO.C,J8*%
X102600000Y-105000000D03*
X103302944Y-103302944D03*
X103302944Y-106697056D03*
X105000000Y-102600000D03*
D13*
X105000000Y-105000000D03*
D12*
X105000000Y-107400000D03*
X106697056Y-103302944D03*
X106697056Y-106697056D03*
X107400000Y-105000000D03*
%TD*%
%TO.C,J6*%
X152600000Y-55000000D03*
X153302944Y-53302944D03*
X153302944Y-56697056D03*
X155000000Y-52600000D03*
D13*
X155000000Y-55000000D03*
D12*
X155000000Y-57400000D03*
X156697056Y-53302944D03*
X156697056Y-56697056D03*
X157400000Y-55000000D03*
%TD*%
%TO.C,J7*%
X152600000Y-105000000D03*
X153302944Y-103302944D03*
X153302944Y-106697056D03*
X155000000Y-102600000D03*
D13*
X155000000Y-105000000D03*
D12*
X155000000Y-107400000D03*
X156697056Y-103302944D03*
X156697056Y-106697056D03*
X157400000Y-105000000D03*
%TD*%
%TO.C,J5*%
X102600000Y-55000000D03*
X103302944Y-53302944D03*
X103302944Y-56697056D03*
X105000000Y-52600000D03*
D13*
X105000000Y-55000000D03*
D12*
X105000000Y-57400000D03*
X106697056Y-53302944D03*
X106697056Y-56697056D03*
X107400000Y-55000000D03*
%TD*%
D10*
%TO.C,J1*%
X135000000Y-85050000D03*
D11*
X129920000Y-79970000D03*
D10*
X132460000Y-85050000D03*
D11*
X140080000Y-79970000D03*
%TD*%
D14*
%TO.C,J4*%
X114000000Y-103000000D03*
D15*
X114000000Y-105540000D03*
%TD*%
D14*
%TO.C,J3*%
X119500000Y-103000000D03*
D15*
X119500000Y-105540000D03*
%TD*%
M02*
